<!-- Generated by IcoMoon.io -->
<svg version="1.1" xmlns="http://www.w3.org/2000/svg" width="32" height="32" viewBox="0 0 32 32">
<title>access-point-network</title>
<path d="M6.573 3.907c-2.413 2.407-3.907 5.735-3.907 9.412 0 0.005 0 0.010 0 0.015v-0.001c0 3.68 1.493 7.013 3.907 9.427l1.88-1.88c-1.927-1.917-3.12-4.571-3.12-7.504 0-0.015 0-0.030 0-0.045v0.002c0-2.947 1.187-5.627 3.12-7.547l-1.88-1.88M25.427 3.907l-1.88 1.88c1.927 1.921 3.12 4.578 3.12 7.513 0 0.012-0 0.023-0 0.035v-0.002c0 2.96-1.187 5.627-3.12 7.547l1.88 1.88c2.413-2.407 3.907-5.735 3.907-9.412 0-0.005 0-0.010 0-0.015v0.001c0-3.68-1.493-7.013-3.907-9.427M10.347 7.68c-1.45 1.444-2.347 3.442-2.347 5.649 0 0.001 0 0.003 0 0.004v-0c0 2.2 0.893 4.2 2.347 5.653l1.88-1.88c-0.964-0.963-1.56-2.294-1.56-3.764 0-0.003 0-0.007 0-0.010v0.001c0-1.48 0.6-2.813 1.56-3.773l-1.88-1.88M21.653 7.68l-1.88 1.88c0.964 0.963 1.56 2.294 1.56 3.764 0 0.003 0 0.007 0 0.010v-0.001c0 1.48-0.6 2.813-1.56 3.773l1.88 1.88c1.45-1.444 2.347-3.442 2.347-5.649 0-0.001 0-0.003 0-0.004v0c0-2.2-0.893-4.2-2.347-5.653M16 10.667c-1.473 0-2.667 1.194-2.667 2.667v0c0 1.473 1.194 2.667 2.667 2.667v0c1.473 0 2.667-1.194 2.667-2.667v0c0-1.473-1.194-2.667-2.667-2.667v0M14.667 18.667v5.333h-1.333c-0.736 0-1.333 0.597-1.333 1.333v0h-9.333v2.667h9.333c0 0.736 0.597 1.333 1.333 1.333h5.333c0.736 0 1.333-0.597 1.333-1.333v0h9.333v-2.667h-9.333c0-0.736-0.597-1.333-1.333-1.333v0h-1.333v-5.333h-2.667z"></path>
</svg>
