<!-- Generated by IcoMoon.io -->
<svg version="1.1" xmlns="http://www.w3.org/2000/svg" width="32" height="32" viewBox="0 0 32 32">
<title>account-search</title>
<path d="M12.667 4c4.786 0 8.667 3.88 8.667 8.667v0c0 2.147-0.787 4.12-2.093 5.64l0.373 0.36h1.053l6.667 6.667-2 2-6.667-6.667v-1.053l-0.36-0.373c-1.502 1.301-3.475 2.093-5.634 2.093-0.002 0-0.004 0-0.006 0h0c-4.786 0-8.667-3.88-8.667-8.667v0c0-4.786 3.88-8.667 8.667-8.667v0M12.667 18.667c2.147 0 4-1.133 5.093-2.827-1.093-1.507-2.947-2.507-5.093-2.507s-4 1-5.093 2.507c1.093 1.693 2.947 2.827 5.093 2.827M12.667 6.667c-1.289 0-2.333 1.045-2.333 2.333v0c0 1.289 1.045 2.333 2.333 2.333v0c1.289 0 2.333-1.045 2.333-2.333v0c0-1.289-1.045-2.333-2.333-2.333v0z"></path>
</svg>
