<!-- Generated by IcoMoon.io -->
<svg version="1.1" xmlns="http://www.w3.org/2000/svg" width="32" height="32" viewBox="0 0 32 32">
<title>account-card-details</title>
<path d="M2.667 4h26.667c1.4 0 2.667 1.267 2.667 2.667v18.667c0 1.4-1.267 2.667-2.667 2.667h-26.667c-1.4 0-2.667-1.267-2.667-2.667v-18.667c0-1.4 1.267-2.667 2.667-2.667M18.667 8v1.333h10.667v-1.333h-10.667M18.667 10.667v1.333h10.667v-1.333h-10.667M18.667 13.333v1.333h9.333v-1.333h-9.333M10.667 18.547c-2.667 0-8 1.453-8 4.12v1.333h16v-1.333c0-2.667-5.333-4.12-8-4.12M10.667 8c-2.209 0-4 1.791-4 4v0c0 2.209 1.791 4 4 4v0c2.209 0 4-1.791 4-4v0c0-2.209-1.791-4-4-4v0z"></path>
</svg>
