<!-- Generated by IcoMoon.io -->
<svg version="1.1" xmlns="http://www.w3.org/2000/svg" width="32" height="32" viewBox="0 0 32 32">
<title>account-key</title>
<path d="M14.667 13.333v2.667h-1.333v2.667h-2.667v-2.667h-2.893c-0.561 1.566-2.033 2.667-3.762 2.667-0.004 0-0.008 0-0.012-0h0.001c-2.209 0-4-1.791-4-4v0c0-2.209 1.791-4 4-4v0c1.747 0 3.227 1.107 3.773 2.667h6.893M4 13.333c-0.736 0-1.333 0.597-1.333 1.333v0c0 0.736 0.597 1.333 1.333 1.333v0c0.736 0 1.333-0.597 1.333-1.333v0c0-0.736-0.597-1.333-1.333-1.333v0M21.333 18.667c3.56 0 10.667 1.787 10.667 5.333v2.667h-21.333v-2.667c0-3.547 7.107-5.333 10.667-5.333M21.333 16c-2.946 0-5.333-2.388-5.333-5.333v0c0-2.946 2.388-5.333 5.333-5.333v0c2.946 0 5.333 2.388 5.333 5.333v0c0 2.946-2.388 5.333-5.333 5.333v0z"></path>
</svg>
