<!-- Generated by IcoMoon.io -->
<svg version="1.1" xmlns="http://www.w3.org/2000/svg" width="32" height="32" viewBox="0 0 32 32">
<title>account-location</title>
<path d="M24 21.333h-16v-1.2c0-2.667 5.333-4.133 8-4.133s8 1.467 8 4.133M16 7.067c2 0 3.6 1.6 3.6 3.6s-1.6 3.6-3.6 3.6c-2 0-3.6-1.6-3.6-3.6s1.6-3.6 3.6-3.6M25.333 2.667h-18.667c-1.48 0-2.667 1.187-2.667 2.667v18.667c0 1.473 1.194 2.667 2.667 2.667v0h5.333l4 4 4-4h5.333c1.473 0 2.667-1.194 2.667-2.667v0-18.667c0-1.473-1.194-2.667-2.667-2.667v0z"></path>
</svg>
