<!-- Generated by IcoMoon.io -->
<svg version="1.1" xmlns="http://www.w3.org/2000/svg" width="32" height="32" viewBox="0 0 32 32">
<title>account-multiple-minus</title>
<path d="M17.333 17.333c-2.667 0-8 1.333-8 4v2.667h16v-2.667c0-2.667-5.333-4-8-4M26.16 17.547c1.107 0.96 1.84 2.213 1.84 3.787v2.667h4v-2.667c0-2.053-3.16-3.333-5.84-3.787M17.333 14.667c2.209 0 4-1.791 4-4v0c0-2.209-1.791-4-4-4v0c-2.209 0-4 1.791-4 4v0c0 2.209 1.791 4 4 4v0M24 14.667c2.209 0 4-1.791 4-4v0c0-2.209-1.791-4-4-4v0c-0.427 0-0.84 0.067-1.227 0.187 0.76 1.080 1.227 2.4 1.227 3.813s-0.467 2.72-1.227 3.8c0.387 0.133 0.8 0.2 1.227 0.2M10.667 13.333h-10.667v2.667h10.667v-2.667z"></path>
</svg>
