<!-- Generated by IcoMoon.io -->
<svg version="1.1" xmlns="http://www.w3.org/2000/svg" width="32" height="32" viewBox="0 0 32 32">
<title>account-network</title>
<path d="M17.333 21.333v2.667h1.333c0.736 0 1.333 0.597 1.333 1.333v0h9.333v2.667h-9.333c0 0.736-0.597 1.333-1.333 1.333v0h-5.333c-0.736 0-1.333-0.597-1.333-1.333v0h-9.333v-2.667h9.333c0-0.736 0.597-1.333 1.333-1.333h1.333v-2.667h-8v-2c0-2.573 4.173-4.667 9.333-4.667s9.333 2.093 9.333 4.667v2h-8M16 2.667c2.577 0 4.667 2.089 4.667 4.667v0c0 2.577-2.089 4.667-4.667 4.667v0c-2.577 0-4.667-2.089-4.667-4.667v0c0-2.577 2.089-4.667 4.667-4.667v0z"></path>
</svg>
