<!-- Generated by IcoMoon.io -->
<svg version="1.1" xmlns="http://www.w3.org/2000/svg" width="32" height="32" viewBox="0 0 32 32">
<title>account-circle</title>
<path d="M16 25.6c-3.333 0-6.28-1.707-8-4.267 0.040-2.667 5.333-4.133 8-4.133s7.96 1.467 8 4.133c-1.755 2.587-4.681 4.265-8 4.267h-0M16 6.667c2.209 0 4 1.791 4 4v0c0 2.209-1.791 4-4 4v0c-2.209 0-4-1.791-4-4v0c0-2.209 1.791-4 4-4v0M16 2.667c-7.364 0-13.333 5.97-13.333 13.333v0c0 7.364 5.97 13.333 13.333 13.333v0c7.364 0 13.333-5.97 13.333-13.333v0c0-7.373-6-13.333-13.333-13.333z"></path>
</svg>
