<!-- Generated by IcoMoon.io -->
<svg version="1.1" xmlns="http://www.w3.org/2000/svg" width="32" height="32" viewBox="0 0 32 32">
<title>account-settings-variant</title>
<path d="M12 5.333c-2.946 0-5.333 2.388-5.333 5.333v0c0 2.946 2.388 5.333 5.333 5.333v0c2.946 0 5.333-2.388 5.333-5.333v0c0-2.946-2.388-5.333-5.333-5.333v0M12 18.667c-3.56 0-10.667 1.773-10.667 5.333v2.667h14.773c-0.067-0.44-0.107-0.88-0.107-1.333 0-2 0.667-4 1.88-5.6-2.040-0.693-4.307-1.067-5.88-1.067M24 18.667c-0.002-0-0.004-0-0.006-0-0.168 0-0.308 0.119-0.34 0.278l-0 0.002-0.253 1.76c-0.4 0.173-0.787 0.387-1.133 0.627l-1.653-0.667c-0.147 0-0.32 0-0.413 0.173l-1.333 2.307c-0.080 0.147-0.053 0.32 0.080 0.427l1.413 1.093c-0.025 0.2-0.040 0.432-0.040 0.667s0.015 0.467 0.043 0.694l-0.003-0.027-1.413 1.093c-0.074 0.064-0.121 0.158-0.121 0.263 0 0.060 0.015 0.116 0.042 0.165l-0.001-0.002 1.333 2.307c0.080 0.173 0.253 0.173 0.413 0.173l1.653-0.667c0.347 0.24 0.72 0.467 1.133 0.627l0.253 1.76c0.027 0.16 0.16 0.28 0.347 0.28h2.667c0.147 0 0.293-0.12 0.32-0.28l0.253-1.76c0.4-0.173 0.76-0.387 1.12-0.627l1.64 0.667c0.173 0 0.347 0 0.44-0.173l1.333-2.307c0.026-0.047 0.041-0.104 0.041-0.164 0-0.105-0.047-0.199-0.121-0.263l-0-0-1.427-1.093c0.027-0.227 0.053-0.44 0.053-0.667s-0.013-0.44-0.053-0.667l1.413-1.093c0.074-0.064 0.121-0.158 0.121-0.263 0-0.060-0.015-0.116-0.042-0.165l0.001 0.002-1.333-2.307c-0.080-0.173-0.253-0.173-0.427-0.173l-1.64 0.667c-0.36-0.24-0.72-0.467-1.133-0.627l-0.253-1.76c-0.018-0.156-0.148-0.277-0.306-0.28h-0M25.333 23.333c1.105 0 2 0.895 2 2v0c0 1.105-0.895 2-2 2v0c-1.12 0-2-0.893-2-2 0-1.105 0.895-2 2-2v0z"></path>
</svg>
