<!-- Generated by IcoMoon.io -->
<svg version="1.1" xmlns="http://www.w3.org/2000/svg" width="32" height="32" viewBox="0 0 32 32">
<title>air-conditioner</title>
<path d="M8.787 0.882c3.12-2.413 6.506 0.533 7.266 5.12 0.573 0 1.133 0.16 1.64 0.453 0.693-0.8 1.307-1.893 1.067-3.12-0.56-2.866 2.653-5.186 5.706-1.227 2.413 3.12-0.533 6.506-5.133 7.266 0 0.573-0.147 1.147-0.453 1.653 0.8 0.68 1.893 1.293 3.12 1.053 2.84-0.56 5.173 2.64 1.213 5.706-3.12 2.413-6.506-0.533-7.266-5.12-0.573 0-1.133-0.173-1.627-0.467-0.693 0.8-1.32 1.907-1.080 3.133 0.56 2.853-2.653 5.186-5.706 1.227-2.427-3.133 0.533-6.52 5.133-7.266 0-0.573 0.173-1.133 0.467-1.64-0.8-0.68-1.893-1.307-3.133-1.067-2.84 0.56-5.173-2.64-1.213-5.706M6.667 21.334h2.666c1.473 0 2.666 1.194 2.666 2.666v0 8h-2.666v-2.666h-2.667v2.666h-2.667v-8c0-1.473 1.194-2.666 2.667-2.666v0M6.667 24v2.666h2.666v-2.666h-2.667M17.24 21.334h2.76l-3.906 10.666h-2.76l3.906-10.666M24 21.334h4v2.666h-4v5.333h4v2.666h-4c-1.473 0-2.666-1.194-2.666-2.666v0-5.333c0-1.473 1.194-2.666 2.666-2.666v0z"></path>
</svg>
