<!-- Generated by IcoMoon.io -->
<svg version="1.1" xmlns="http://www.w3.org/2000/svg" width="32" height="32" viewBox="0 0 32 32">
<title>airballoon</title>
<path d="M14.667 30.667c-1.473 0-2.667-1.194-2.667-2.667v0-2.667h8v2.667c0 1.473-1.194 2.667-2.667 2.667v0h-2.667M16 1.333c0.947 0 1.853 0.12 2.733 0.347 1.56 2.093 2.6 5.933 2.6 10.32 0 3.040-0.507 5.827-1.333 9.333 0 1.473-1.194 2.667-2.667 2.667v0h-2.667c-1.473 0-2.667-1.194-2.667-2.667v0c-0.827-3.507-1.333-6.293-1.333-9.333 0-4.387 1.040-8.227 2.6-10.32 0.88-0.227 1.787-0.347 2.733-0.347M26.667 10.667c0 4.24-2.467 10.56-6.053 12.28 1.267-2.427 2.053-7.173 2.053-10.947s-0.787-7.187-2.053-9.613c3.587 1.72 6.053 4.040 6.053 8.28M5.333 10.667c0-4.24 2.467-6.56 6.053-8.28-1.267 2.427-2.053 5.84-2.053 9.613s0.787 8.52 2.053 10.947c-3.587-1.72-6.053-8.040-6.053-12.28z"></path>
</svg>
