<!-- Generated by IcoMoon.io -->
<svg version="1.1" xmlns="http://www.w3.org/2000/svg" width="32" height="32" viewBox="0 0 32 32">
<title>alarm-off</title>
<path d="M10.667 4.373l-1.867-1.893-1.147 0.947 1.893 1.907M21.96 24.52c-1.613 1.333-3.693 2.147-5.96 2.147-5.155 0-9.333-4.179-9.333-9.333v0c0-2.267 0.813-4.347 2.147-5.96M3.893 3.053l-1.693 1.707 1.8 1.773-1.507 1.24 1.893 1.893 1.48-1.253 1.067 1.067c-1.822 2.087-2.933 4.835-2.933 7.843 0 0.004 0 0.007 0 0.011v-0.001c0 6.627 5.373 12 12 12v0c3 0 5.747-1.107 7.853-2.933l2.933 2.933 1.693-1.693-24.587-24.587M29.333 7.627l-6.133-5.147-1.72 2.040 6.133 5.147 1.72-2.040M16 8c5.155 0 9.333 4.179 9.333 9.333v0c0 1.12-0.213 2.2-0.573 3.2l2.027 2.027c0.773-1.587 1.213-3.347 1.213-5.227 0-6.627-5.373-12-12-12v0c-1.88 0-3.64 0.44-5.227 1.213l2.027 2.027c1-0.36 2.080-0.573 3.2-0.573z"></path>
</svg>
