<!-- Generated by IcoMoon.io -->
<svg version="1.1" xmlns="http://www.w3.org/2000/svg" width="32" height="32" viewBox="0 0 32 32">
<title>alarm-plus</title>
<path d="M17.333 12h-2.667v4h-4v2.667h4v4h2.667v-4h4v-2.667h-4M16 26.667c-5.155 0-9.333-4.179-9.333-9.333v0c0-5.155 4.179-9.333 9.333-9.333v0c5.155 0 9.333 4.179 9.333 9.333v0c0 5.155-4.179 9.333-9.333 9.333v0M16 5.333c-6.627 0-12 5.373-12 12v0c0 6.627 5.373 12 12 12v0c6.627 0 12-5.373 12-12v0c0-6.627-5.373-12-12-12v0M29.333 7.627l-6.133-5.147-1.72 2.040 6.133 5.147M10.507 4.52l-1.707-2.040-6.133 5.133 1.72 2.040 6.12-5.133z"></path>
</svg>
