<!-- Generated by IcoMoon.io -->
<svg version="1.1" xmlns="http://www.w3.org/2000/svg" width="32" height="32" viewBox="0 0 32 32">
<title>alphabetical</title>
<path d="M8 14.667c1.473 0 2.667 1.194 2.667 2.667v5.333h-5.333c-1.473 0-2.667-1.194-2.667-2.667v0-2.667c0-1.473 1.194-2.667 2.667-2.667h2.667M5.333 17.333v2.667h2.667v-2.667h-2.667M26.667 17.333v2.667h2.667v2.667h-2.667c-1.473 0-2.667-1.194-2.667-2.667v0-2.667c0-1.473 1.194-2.667 2.667-2.667v0h2.667v2.667h-2.667M16 9.333v5.333h2.667c1.473 0 2.667 1.194 2.667 2.667v0 2.667c0 1.473-1.194 2.667-2.667 2.667h-2.667c-1.473 0-2.667-1.194-2.667-2.667v0-10.667h2.667M16 20h2.667v-2.667h-2.667v2.667z"></path>
</svg>
