<!-- Generated by IcoMoon.io -->
<svg version="1.1" xmlns="http://www.w3.org/2000/svg" width="32" height="32" viewBox="0 0 32 32">
<title>amazon-clouddrive</title>
<path d="M6.587 14.827c0.387 0 0.747 0.053 1.093 0.147 0.009-2.858 2.327-5.172 5.187-5.173h0c2.16 0 4.027 1.333 4.787 3.227 0.775-1.009 1.982-1.653 3.34-1.653 0.007 0 0.014 0 0.021 0h-0.001c2.343 0.006 4.241 1.907 4.241 4.251 0 0.337-0.039 0.664-0.113 0.978l0.006-0.029c0.32-0.12 0.68-0.187 1.053-0.187 1.695 0.051 3.050 1.437 3.050 3.14s-1.355 3.089-3.045 3.14l-0.005 0h-19.613c-2.16 0-3.92-1.76-3.92-3.92 0-2.173 1.76-3.92 3.92-3.92z"></path>
</svg>
