<!-- Generated by IcoMoon.io -->
<svg version="1.1" xmlns="http://www.w3.org/2000/svg" width="32" height="32" viewBox="0 0 32 32">
<title>amplifier</title>
<path d="M13.333 2.667h5.333c0.736 0 1.333 0.597 1.333 1.333v0h8v24h-2.667c0 0.736-0.597 1.333-1.333 1.333v0c-0.736 0-1.333-0.597-1.333-1.333v0h-13.333c0 0.736-0.597 1.333-1.333 1.333v0c-0.736 0-1.333-0.597-1.333-1.333v0h-2.667v-24h8c0-0.736 0.597-1.333 1.333-1.333v0M6.667 6.667v5.333h18.667v-5.333h-18.667M9.333 8c0.736 0 1.333 0.597 1.333 1.333v0c0 0.736-0.597 1.333-1.333 1.333v0c-0.736 0-1.333-0.597-1.333-1.333v0c0-0.736 0.597-1.333 1.333-1.333v0M16 8h2.667v1.333h-2.667v-1.333M20 8h1.333v2.667h-1.333v-2.667M22.667 8h1.333v2.667h-1.333v-2.667M16 14.667c-2.946 0-5.333 2.388-5.333 5.333v0c0 2.946 2.388 5.333 5.333 5.333v0c2.946 0 5.333-2.388 5.333-5.333v0c0-2.946-2.388-5.333-5.333-5.333v0M13.333 8c0.736 0 1.333 0.597 1.333 1.333v0c0 0.736-0.597 1.333-1.333 1.333v0c-0.736 0-1.333-0.597-1.333-1.333v0c0-0.736 0.597-1.333 1.333-1.333v0z"></path>
</svg>
