<!-- Generated by IcoMoon.io -->
<svg version="1.1" xmlns="http://www.w3.org/2000/svg" width="32" height="32" viewBox="0 0 32 32">
<title>android-debug-bridge</title>
<path d="M20 12c-0.736 0-1.333-0.597-1.333-1.333v0c0-0.736 0.597-1.333 1.333-1.333v0c0.736 0 1.333 0.597 1.333 1.333v0c0 0.736-0.597 1.333-1.333 1.333v0M12 12c-0.736 0-1.333-0.597-1.333-1.333v0c0-0.736 0.597-1.333 1.333-1.333v0c0.736 0 1.333 0.597 1.333 1.333v0c0 0.736-0.597 1.333-1.333 1.333v0M21.493 5.827l2.8-2.8-1.093-1.107-3.080 3.080c-1.24-0.627-2.64-1-4.12-1-1.493 0-2.88 0.373-4.12 1l-3.080-3.080-1.093 1.107 2.8 2.8c-2.32 1.693-3.84 4.413-3.84 7.507v1.333h18.667v-1.333c0-3.093-1.52-5.813-3.84-7.507M6.667 21.333c0 5.147 4.173 9.333 9.333 9.333 5.155 0 9.333-4.179 9.333-9.333v0-5.333h-18.667v5.333z"></path>
</svg>
