<!-- Generated by IcoMoon.io -->
<svg version="1.1" xmlns="http://www.w3.org/2000/svg" width="32" height="32" viewBox="0 0 32 32">
<title>android-studio</title>
<path d="M14.667 2.667h2.667v2.667h0.667c1.105 0 2 0.895 2 2v0 4.667l-0.587 0.587 2.187 3.787c1.48-1.453 2.4-3.467 2.4-5.707h2.667c0 3.227-1.427 6.12-3.693 8.080l4.187 7.253 0.173 2.96-2.493-1.627-4.093-7.107c-1.413 0.707-3.040 1.107-4.747 1.107s-3.333-0.4-4.747-1.107l-4.093 7.107-2.493 1.627 0.173-2.96 7.747-13.413-0.587-0.587v-4.667c0-1.105 0.895-2 2-2v0h0.667v-2.667M12.587 17.907c1.040 0.493 2.2 0.76 3.413 0.76s2.373-0.267 3.413-0.76l-1.947-3.373h-0.013c-0.827 0.8-2.080 0.8-2.907 0h-0.013l-1.947 3.373M16 8c-0.736 0-1.333 0.597-1.333 1.333v0c0 0.736 0.597 1.333 1.333 1.333v0c0.736 0 1.333-0.597 1.333-1.333v0c0-0.736-0.597-1.333-1.333-1.333v0z"></path>
</svg>
