<!-- Generated by IcoMoon.io -->
<svg version="1.1" xmlns="http://www.w3.org/2000/svg" width="32" height="32" viewBox="0 0 32 32">
<title>apple-finder</title>
<path d="M5.333 5.333h10.52c0.76-1.453 1.653-2.827 2.72-4l1.48 1.48c-0.573 0.787-1.080 1.64-1.533 2.52h8.147c1.473 0 2.667 1.194 2.667 2.667v0 17.333c0 1.473-1.194 2.667-2.667 2.667h-6.76l0.44 1.64-2.44 0.96-0.667-2.6h-11.907c-1.473 0-2.667-1.194-2.667-2.667v0-17.333c0-1.473 1.194-2.667 2.667-2.667v0M5.333 8v17.333h11.387c-0.053-0.44-0.133-0.88-0.187-1.333h-0.533c-3.667 0-6.96-0.667-9.16-1.653l1.213-2.187c1.28 0.693 4.173 1.173 7.947 1.173h0.32c-0.040-0.893-0.027-1.787 0.040-2.667h-4.36s0.533-5.373 2.667-10.667h-9.333M26.667 25.333v-17.333h-9.333c-1.2 2.96-1.893 5.947-2.267 8h3.827c-0.227 1.707-0.267 3.493-0.147 5.24 2.413-0.173 4.253-0.573 5.2-1.080l1.213 2.187c-1.573 0.72-3.693 1.253-6.107 1.507 0.080 0.507 0.16 1 0.28 1.48h7.333M8 10.667h2.667v4h-2.667v-4M21.333 10.667h2.667v4h-2.667v-4z"></path>
</svg>
