<!-- Generated by IcoMoon.io -->
<svg version="1.1" xmlns="http://www.w3.org/2000/svg" width="32" height="32" viewBox="0 0 32 32">
<title>apple-safari</title>
<path d="M16 2.667c7.364 0 13.333 5.97 13.333 13.333v0c0 7.364-5.97 13.333-13.333 13.333v0c-7.364 0-13.333-5.97-13.333-13.333v0c0-7.364 5.97-13.333 13.333-13.333v0M16 5.333c-5.891 0-10.667 4.776-10.667 10.667v0c0 2.787 1.067 5.333 2.813 7.213l5.027-10.040 10.040-5.027c-1.88-1.744-4.406-2.813-7.182-2.813-0.011 0-0.022 0-0.033 0h0.002M16 26.667c5.891 0 10.667-4.776 10.667-10.667v0c0-2.787-1.067-5.333-2.813-7.213l-5.027 10.040-10.040 5.027c1.88 1.744 4.406 2.813 7.182 2.813 0.011 0 0.022-0 0.033-0h-0.002M16 16l-1.027-1.027-2.040 4.093 4.093-2.040-1.027-1.027M16 23.333h1.333v2h-1.333v-2M21.173 21.187l0.947-0.947 1.413 1.413-0.947 0.947-1.413-1.413M23.333 16v-1.333h2v1.333h-2M16 8.667h-1.333v-2h1.333v2M10.827 10.813l-0.947 0.947-1.413-1.413 0.947-0.947 1.413 1.413M8.667 16v1.333h-2v-1.333h2z"></path>
</svg>
