<!-- Generated by IcoMoon.io -->
<svg version="1.1" xmlns="http://www.w3.org/2000/svg" width="32" height="32" viewBox="0 0 32 32">
<title>apple</title>
<path d="M24.947 26c-1.107 1.653-2.28 3.267-4.067 3.293-1.787 0.040-2.36-1.053-4.387-1.053-2.040 0-2.667 1.027-4.36 1.093-1.747 0.067-3.067-1.76-4.187-3.373-2.28-3.293-4.027-9.36-1.68-13.44 1.16-2.027 3.24-3.307 5.493-3.347 1.707-0.027 3.333 1.16 4.387 1.16 1.040 0 3.013-1.427 5.080-1.213 0.867 0.040 3.293 0.347 4.853 2.64-0.12 0.080-2.893 1.707-2.867 5.080 0.040 4.027 3.533 5.373 3.573 5.387-0.040 0.093-0.56 1.92-1.84 3.773M17.333 4.667c0.973-1.107 2.587-1.947 3.92-2 0.173 1.56-0.453 3.133-1.387 4.253-0.92 1.133-2.44 2.013-3.933 1.893-0.2-1.533 0.547-3.133 1.4-4.147z"></path>
</svg>
