<!-- Generated by IcoMoon.io -->
<svg version="1.1" xmlns="http://www.w3.org/2000/svg" width="32" height="32" viewBox="0 0 32 32">
<title>apple-mobileme</title>
<path d="M29.333 20.053c0 2.92-2.347 5.28-5.24 5.28h-16.187c-2.893 0-5.24-2.36-5.24-5.28 0-2.627 1.907-4.8 4.413-5.2-0.040-0.187-0.053-0.373-0.053-0.573 0-1.84 1.48-3.347 3.32-3.347 0.813 0 1.573 0.307 2.147 0.8 1.027-2.333 2.347-4.48 6.053-4.48 4.493 0 6.613 3.493 6.613 7.187 0 0.147 0 0.307-0.013 0.453 2.408 0.518 4.187 2.628 4.187 5.155 0 0.002 0 0.004 0 0.006v-0z"></path>
</svg>
