<!-- Generated by IcoMoon.io -->
<svg version="1.1" xmlns="http://www.w3.org/2000/svg" width="32" height="32" viewBox="0 0 32 32">
<title>appnet</title>
<path d="M19.293 12.187c0.8-1.933 2.28-6.48 2.507-7.28 0.2-0.787 0.8-0.907 1.133-0.907h2.733c0.453 0 0.707 0.347 0.6 0.907-2.867 10.12-4.813 13.093-4.813 13.76 0 1.707 1.827 4.893 3.533 4.893 1.013 0 0.8-1.48 1.933-1.48h2.16c0.347 0 0.68 0.347 0.68 0.92 0 0.56-0.627 5-4.947 5-4.333 0-5.947-5.227-5.947-5.227-0.56 1.133-3.893 5.227-7.987 5.227-7.28 0-8.64-7.733-8.64-12.28 0-4.56 2.16-11.72 8.307-11.72 6.12 0 8.747 8.187 8.747 8.187M6 15.373c0 2.627-0.12 8.080 4.667 8.187 2.72 0.12 5.213-3.293 6.413-6.027-1.653-5.68-2.787-9.093-6.413-9.093-4.907 0.107-4.667 6.933-4.667 6.933z"></path>
</svg>
