<!-- Generated by IcoMoon.io -->
<svg version="1.1" xmlns="http://www.w3.org/2000/svg" width="32" height="32" viewBox="0 0 32 32">
<title>autorenew</title>
<path d="M16 8v4l5.333-5.333-5.333-5.333v4c-5.891 0-10.667 4.776-10.667 10.667v0c0 2.093 0.613 4.040 1.653 5.68l1.947-1.947c-0.588-1.075-0.933-2.356-0.933-3.717 0-0.006 0-0.012 0-0.018v0.001c0-4.418 3.582-8 8-8v0M25.013 10.32l-1.947 1.947c0.587 1.12 0.933 2.4 0.933 3.733 0 4.418-3.582 8-8 8v0-4l-5.333 5.333 5.333 5.333v-4c5.891 0 10.667-4.776 10.667-10.667v0c0-2.093-0.613-4.040-1.653-5.68z"></path>
</svg>
