<!-- Generated by IcoMoon.io -->
<svg version="1.1" xmlns="http://www.w3.org/2000/svg" width="32" height="32" viewBox="0 0 32 32">
<title>baby</title>
<path d="M24.667 5.333c1.841 0 3.333 1.492 3.333 3.333v0c0 1.841-1.492 3.333-3.333 3.333v0c-1.841 0-3.333-1.492-3.333-3.333v0c0-1.841 1.492-3.333 3.333-3.333v0M6 26.667c-1.105 0-2-0.895-2-2v0c0-1.105 0.895-2 2-2v0h9.333c1.105 0 2 0.895 2 2v0c0 1.105-0.895 2-2 2v0h-9.333M21.453 25.333l-1.867-5.333h-4.92l-5.667-5.667s3-3.333 7.667-3.333c4 0 4.467 1.333 4.747 2.16l3.813 10.84c0.373 1.040-0.187 2.187-1.227 2.56-1.040 0.36-2.187-0.187-2.547-1.227z"></path>
</svg>
