<!-- Generated by IcoMoon.io -->
<svg version="1.1" xmlns="http://www.w3.org/2000/svg" width="32" height="32" viewBox="0 0 32 32">
<title>baby-buggy</title>
<path d="M17.333 2.667v10.667h10.667c0-5.891-4.776-10.667-10.667-10.667v0M25.76 21.187c1.397-1.778 2.24-4.049 2.24-6.516 0-0.001 0-0.003 0-0.004v0h-19.413l-1.253-2.667h-4.667v2.667h2.96s2.52 5.427 2.827 5.893c-1.467 0.773-2.453 2.333-2.453 4.107 0 2.577 2.089 4.667 4.667 4.667v0c2.347 0 4.293-1.733 4.613-4h2.773c0.32 2.267 2.267 4 4.613 4 2.577 0 4.667-2.089 4.667-4.667v0c0-1.387-0.613-2.627-1.573-3.48M10.667 26.667c-1.105 0-2-0.895-2-2v0c0-1.105 0.895-2 2-2v0c1.105 0 2 0.895 2 2v0c0 1.105-0.895 2-2 2v0M22.667 26.667c-1.105 0-2-0.895-2-2v0c0-1.105 0.895-2 2-2v0c1.105 0 2 0.895 2 2v0c0 1.105-0.895 2-2 2v0z"></path>
</svg>
