<!-- Generated by IcoMoon.io -->
<svg version="1.1" xmlns="http://www.w3.org/2000/svg" width="32" height="32" viewBox="0 0 32 32">
<title>backup-restore</title>
<path d="M16 4c-6.627 0-12 5.373-12 12v0h-4l5.333 5.333 5.333-5.333h-4c0-5.155 4.179-9.333 9.333-9.333v0c5.155 0 9.333 4.179 9.333 9.333v0c0 5.155-4.179 9.333-9.333 9.333v0c-2 0-3.88-0.667-5.413-1.733l-1.92 1.92c2.012 1.543 4.563 2.474 7.332 2.48h0.001c6.627 0 12-5.373 12-12v0c0-6.627-5.373-12-12-12v0M18.667 16c0-1.473-1.194-2.667-2.667-2.667v0c-1.473 0-2.667 1.194-2.667 2.667v0c0 1.473 1.194 2.667 2.667 2.667v0c1.473 0 2.667-1.194 2.667-2.667v0z"></path>
</svg>
