<!-- Generated by IcoMoon.io -->
<svg version="1.1" xmlns="http://www.w3.org/2000/svg" width="32" height="32" viewBox="0 0 32 32">
<title>barley</title>
<path d="M9.773 24.44c-1.107-1.547-1.107-3.333-1.107-5.107 2.227 1.333 4.44 2.667 5.56 4.227l0.44 0.747v-3.040c-2-1.2-3.893-2.427-4.893-3.827-1.107-1.547-1.107-3.333-1.107-5.107 2.227 1.333 4.44 2.667 5.56 4.227l0.44 0.773v-3.067c-2-1.2-3.893-2.427-4.893-3.827-1.107-1.547-1.107-3.333-1.107-5.107 2.227 1.333 4.44 2.667 5.56 4.227 0.133 0.187 0.253 0.387 0.36 0.6-0.227-0.827-0.373-1.6-0.387-2.4-0.013-2.013 0.867-4.080 1.747-6.147 0.92 1.973 1.84 3.96 1.853 5.973 0.013 0.84-0.133 1.693-0.373 2.533 0.107-0.187 0.213-0.373 0.347-0.56 1.12-1.56 3.333-2.893 5.56-4.227 0 1.773 0 3.56-1.107 5.107-1 1.4-2.893 2.627-4.893 3.827v3.067l0.44-0.773c1.12-1.56 3.333-2.893 5.56-4.227 0 1.773 0 3.56-1.107 5.107-1 1.4-2.893 2.627-4.893 3.827v3.040l0.44-0.747c1.12-1.56 3.333-2.893 5.56-4.227 0 1.773 0 3.56-1.107 5.107-1 1.4-2.893 2.627-4.893 3.827v2.4h-2.667v-2.4c-2-1.2-3.893-2.427-4.893-3.827z"></path>
</svg>
