<!-- Generated by IcoMoon.io -->
<svg version="1.1" xmlns="http://www.w3.org/2000/svg" width="32" height="32" viewBox="0 0 32 32">
<title>basket-fill</title>
<path d="M4 2.667h4v4h-4v-4M8 9.333h4v4h-4v-4M10.667 2.667h4v4h-4v-4M22.667 14.667l-6.667-6.667h4v-5.333h5.333v5.333h4l-6.667 6.667M10 29.333c-1.040 0-1.947-0.6-2.387-1.467l-3.48-9.947-0.133-0.587c0-0.736 0.597-1.333 1.333-1.333v0h21.333c0.736 0 1.333 0.597 1.333 1.333v0l-0.053 0.387-3.56 10.147c-0.44 0.867-1.347 1.467-2.387 1.467h-12M10.147 26.667h11.707l2.907-8h-17.533l2.92 8z"></path>
</svg>
