<!-- Generated by IcoMoon.io -->
<svg version="1.1" xmlns="http://www.w3.org/2000/svg" width="32" height="32" viewBox="0 0 32 32">
<title>battery-unknown</title>
<path d="M20.093 16.333l-1.2 1.227c-0.72 0.72-1.227 1.347-1.44 2.44h-2.72c0.147-1.2 0.68-2.293 1.493-3.107l1.653-1.68c0.493-0.48 0.787-1.147 0.787-1.88 0-1.473-1.194-2.667-2.667-2.667v0c-1.473 0-2.667 1.194-2.667 2.667v0h-2.667c0-2.946 2.388-5.333 5.333-5.333v0c2.946 0 5.333 2.388 5.333 5.333v0c0 1.173-0.48 2.24-1.24 3M17.333 25.333h-2.667v-2.667h2.667M22.227 5.333h-2.227v-2.667h-8v2.667h-2.227c-0.979 0-1.773 0.794-1.773 1.773v0 20.44c0 0.987 0.8 1.787 1.773 1.787h12.453c0.973 0 1.773-0.8 1.773-1.787v-20.44c0-0.987-0.8-1.773-1.773-1.773z"></path>
</svg>
