<!-- Generated by IcoMoon.io -->
<svg version="1.1" xmlns="http://www.w3.org/2000/svg" width="32" height="32" viewBox="0 0 32 32">
<title>beats</title>
<path d="M9.333 16c0 3.682 2.985 6.667 6.667 6.667v0c3.682 0 6.667-2.985 6.667-6.667v0c0-3.682-2.985-6.667-6.667-6.667v0c-1.507 0-2.88 0.493-4 1.333v-7.387c1.267-0.4 2.6-0.613 4-0.613 7.364 0 13.333 5.97 13.333 13.333v0c0 7.364-5.97 13.333-13.333 13.333v0c-7.364 0-13.333-5.97-13.333-13.333v0c0-4.933 2.667-9.24 6.667-11.547v11.547M19.333 16c0 0.493-0.267 0.907-0.667 1.147l-2.52 1.907c-0.222 0.174-0.505 0.279-0.813 0.28h-0c-0.736 0-1.333-0.597-1.333-1.333v-4c0-0.736 0.597-1.333 1.333-1.333v0c0.308 0.001 0.591 0.106 0.816 0.282l-0.003-0.002 2.52 1.907c0.4 0.24 0.667 0.653 0.667 1.147z"></path>
</svg>
