<!-- Generated by IcoMoon.io -->
<svg version="1.1" xmlns="http://www.w3.org/2000/svg" width="32" height="32" viewBox="0 0 32 32">
<title>bell-ring</title>
<path d="M15.333 29.333c0.187 0 0.36 0 0.533-0.053 1.223-0.262 2.128-1.331 2.133-2.613v-0.001h-5.333c0 1.473 1.194 2.667 2.667 2.667v0M24 14c0-4.093-2.853-7.52-6.667-8.427v-0.907c0-1.105-0.895-2-2-2v0c-1.105 0-2 0.895-2 2v0 0.907c-3.827 0.907-6.667 4.333-6.667 8.427v7.333l-2.667 2.667v1.333h22.667v-1.333l-2.667-2.667M26.627 13.333h2.667c-0.2-4.28-2.307-8.040-5.493-10.467l-1.907 1.907c2.72 1.893 4.533 5.027 4.733 8.56M8.773 4.773l-1.907-1.907c-3.195 2.454-5.299 6.193-5.532 10.43l-0.002 0.036h2.667c0.24-3.533 2.053-6.667 4.773-8.56z"></path>
</svg>
