<!-- Generated by IcoMoon.io -->
<svg version="1.1" xmlns="http://www.w3.org/2000/svg" width="32" height="32" viewBox="0 0 32 32">
<title>bell-plus</title>
<path d="M13.333 28c0 1.473 1.194 2.667 2.667 2.667v0c1.473 0 2.667-1.194 2.667-2.667v0M25.173 22.427v-7.76c0-4.333-3-7.96-7.053-8.92v-0.96c0-1.171-0.949-2.12-2.12-2.12v0c-1.171 0-2.12 0.949-2.12 2.12v0 0.96c-4.075 0.989-7.053 4.605-7.053 8.918 0 0.001 0 0.002 0 0.002v-0 7.76l-2.827 2.827v1.413h24v-1.413M21.333 17.333h-4v4h-2.667v-4h-4v-2.667h4v-4h2.667v4h4"></path>
</svg>
