<!-- Generated by IcoMoon.io -->
<svg version="1.1" xmlns="http://www.w3.org/2000/svg" width="32" height="32" viewBox="0 0 32 32">
<title>bell-outline</title>
<path d="M21.333 22.667h-12v-8.667c0-3.333 2.667-6 6-6s6 2.667 6 6M24 21.333v-7.333c0-4.093-2.853-7.52-6.667-8.427v-0.907c0-1.105-0.895-2-2-2v0c-1.105 0-2 0.895-2 2v0 0.907c-3.827 0.907-6.667 4.333-6.667 8.427v7.333l-2.667 2.667v1.333h22.667v-1.333M15.333 29.333c1.473 0 2.667-1.194 2.667-2.667v0h-5.333c0 1.473 1.194 2.667 2.667 2.667v0z"></path>
</svg>
