<!-- Generated by IcoMoon.io -->
<svg version="1.1" xmlns="http://www.w3.org/2000/svg" width="32" height="32" viewBox="0 0 32 32">
<title>binoculars</title>
<path d="M14.667 8h2.667v9.333h-2.667v-9.333M12 26.667c0 0.736-0.597 1.333-1.333 1.333h-4c-0.736 0-1.333-0.597-1.333-1.333v-6.667l2.667-12h5.333v9.333c0 0.736-0.597 1.333-1.333 1.333v0 8M13.333 6.667h-4v-2.667h4v2.667M20 26.667v-8c-0.736 0-1.333-0.597-1.333-1.333v0-9.333h5.333l2.667 12v6.667c0 0.736-0.597 1.333-1.333 1.333h-4c-0.736 0-1.333-0.597-1.333-1.333v0M18.667 6.667v-2.667h4v2.667h-4z"></path>
</svg>
