<!-- Generated by IcoMoon.io -->
<svg version="1.1" xmlns="http://www.w3.org/2000/svg" width="32" height="32" viewBox="0 0 32 32">
<title>bio</title>
<path d="M22.667 16h4c1.473 0 2.667 1.194 2.667 2.667v0 4c0 1.473-1.194 2.667-2.667 2.667h-4c-1.473 0-2.667-1.194-2.667-2.667v-4c0-1.473 1.194-2.667 2.667-2.667v0M22.667 18.667v4h4v-4h-4M2.667 9.333h6.667c1.473 0 2.667 1.194 2.667 2.667v0 2.667c0 1.473-1.194 2.667-2.667 2.667v0c1.473 0 2.667 1.194 2.667 2.667v0 2.667c0 1.473-1.194 2.667-2.667 2.667h-6.667v-16M5.333 12v4h4v-4h-4M5.333 22.667h4v-4h-4v4M14.667 17.333h2.667v8h-2.667v-8M14.667 12h2.667v2.667h-2.667v-2.667z"></path>
</svg>
