<!-- Generated by IcoMoon.io -->
<svg version="1.1" xmlns="http://www.w3.org/2000/svg" width="32" height="32" viewBox="0 0 32 32">
<title>black-mesa</title>
<path d="M16 2.667c7.364 0 13.333 5.97 13.333 13.333v0c0 7.364-5.97 13.333-13.333 13.333v0c-7.364 0-13.333-5.97-13.333-13.333v0c0-7.364 5.97-13.333 13.333-13.333v0M16 5.333c-5.891 0-10.667 4.776-10.667 10.667v0c0 0.001 0 0.003 0 0.004 0 3.18 1.393 6.034 3.602 7.986l0.011 0.010h3.053v-8h10.667l2.867 4.787c0.72-1.453 1.133-3.067 1.133-4.787 0-5.891-4.776-10.667-10.667-10.667v0z"></path>
</svg>
