<!-- Generated by IcoMoon.io -->
<svg version="1.1" xmlns="http://www.w3.org/2000/svg" width="32" height="32" viewBox="0 0 32 32">
<title>blackberry</title>
<path d="M7.267 13.707c1.267 0 2.733 1.027 2.733 2.293s-1.467 2.293-2.733 2.293h-4.6l0.92-4.587h3.68M8.187 6.347c1.267 0 2.76 1.027 2.76 2.32 0 1.24-1.493 2.28-2.76 2.28h-4.6l0.92-4.6h3.68M17.373 6.347c1.293 0 2.76 1.027 2.76 2.32 0 1.24-1.467 2.28-2.76 2.28h-4.827l0.92-4.6h3.907M16.453 13.707c1.28 0 2.76 1.027 2.76 2.293s-1.48 2.293-2.76 2.293h-4.827l0.92-4.587h3.907M14.627 21.053c1.267 0 2.747 1.040 2.747 2.28 0 1.293-1.48 2.32-2.747 2.32h-4.627l0.947-4.6h3.68M24.733 18.293c1.267 0 2.76 1.040 2.76 2.307s-1.493 2.293-2.76 2.293h-4.6l0.92-4.6h3.68M26.573 10.947c1.267 0 2.76 1.053 2.76 2.293 0 1.267-1.493 2.307-2.76 2.307h-4.573l0.893-4.6h3.68z"></path>
</svg>
