<!-- Generated by IcoMoon.io -->
<svg version="1.1" xmlns="http://www.w3.org/2000/svg" width="32" height="32" viewBox="0 0 32 32">
<title>blender</title>
<path d="M10.667 4c0 0.453 0.227 0.92 0.667 1.173l4.667 2.827h-12.667c-1.105 0-2 0.895-2 2v0c0 1.105 0.895 2 2 2v0h7.88l-8.547 5.333c-1.12 0.667-1.333 1.627-1.333 2.667 0 1.333 1.027 2.667 2.667 2.667 0.92 0 1.853-0.667 2.667-1.333l2.667-2.16c0.267 5.653 4.947 10.16 10.667 10.16 5.891 0 10.667-4.776 10.667-10.667v0c0-3.893-2.093-7.333-5.213-9.16-0.040-0.027-0.080-0.067-0.12-0.093 0 0-0.107-0.080-0.187-0.12-4.133-2.787-7.773-4.333-12.413-6.453-0.28-0.12-0.52-0.173-0.733-0.173-0.8 0-1.333 0.613-1.333 1.333M20 12c3.682 0 6.667 2.985 6.667 6.667v0c0 3.682-2.985 6.667-6.667 6.667v0c-3.682 0-6.667-2.985-6.667-6.667v0c0-3.682 2.985-6.667 6.667-6.667v0M20 14c-2.577 0-4.667 2.089-4.667 4.667v0c0 2.577 2.089 4.667 4.667 4.667v0c2.577 0 4.667-2.089 4.667-4.667v0c0-2.577-2.089-4.667-4.667-4.667v0z"></path>
</svg>
