<!-- Generated by IcoMoon.io -->
<svg version="1.1" xmlns="http://www.w3.org/2000/svg" width="32" height="32" viewBox="0 0 32 32">
<title>block-helper</title>
<path d="M16 0c8.837 0 16 7.163 16 16v0c0 8.837-7.163 16-16 16v0c-8.837 0-16-7.163-16-16v0c0-8.837 7.163-16 16-16v0M16 2.667c-7.364 0-13.333 5.97-13.333 13.333v0c0 3.2 1.133 6.133 3.013 8.44l18.76-18.76c-2.277-1.876-5.223-3.013-8.435-3.013-0.002 0-0.004 0-0.005 0h0M16 29.333c7.364 0 13.333-5.97 13.333-13.333v0c0-3.2-1.133-6.133-3.013-8.44l-18.76 18.76c2.277 1.876 5.223 3.013 8.435 3.013 0.002 0 0.004 0 0.005 0h-0z"></path>
</svg>
