<!-- Generated by IcoMoon.io -->
<svg version="1.1" xmlns="http://www.w3.org/2000/svg" width="32" height="32" viewBox="0 0 32 32">
<title>bluetooth-audio</title>
<path d="M17.173 21.72l-2.507 2.507v-5.013M14.667 7.773l2.507 2.507-2.507 2.493M20.947 10.28l-7.613-7.613h-1.333v10.107l-6.12-6.107-1.88 1.88 7.453 7.453-7.453 7.44 1.88 1.893 6.12-6.12v10.12h1.333l7.613-7.613-5.733-5.72M26.040 8.947l-1.693 1.72c0.84 1.573 1.32 3.4 1.32 5.333s-0.48 3.76-1.32 5.333l1.6 1.627c1.288-2.004 2.053-4.45 2.053-7.074 0-0.002 0-0.004 0-0.006v0c0-2.547-0.72-4.907-1.96-6.933M18.987 16l3.093 3.107c0.373-0.973 0.587-2.013 0.587-3.107s-0.213-2.133-0.573-3.093l-3.107 3.093z"></path>
</svg>
