<!-- Generated by IcoMoon.io -->
<svg version="1.1" xmlns="http://www.w3.org/2000/svg" width="32" height="32" viewBox="0 0 32 32">
<title>bluetooth-transfer</title>
<path d="M19.613 10.28l-5.733 5.72 5.733 5.72-7.613 7.613h-1.333v-10.12l-6.12 6.12-1.88-1.88 7.453-7.453-7.453-7.453 1.88-1.88 6.12 6.12v-10.12h1.333l7.613 7.613M13.333 7.773v5.013l2.507-2.507-2.507-2.507M15.84 21.72l-2.507-2.507v5.013l2.507-2.507M29.333 10.667h-2.667v4h-2.667v-4h-2.667l4-5.333 4 5.333M29.333 21.333l-4 5.333-4-5.333h2.667v-4h2.667v4h2.667z"></path>
</svg>
