<!-- Generated by IcoMoon.io -->
<svg version="1.1" xmlns="http://www.w3.org/2000/svg" width="32" height="32" viewBox="0 0 32 32">
<title>blur</title>
<path d="M18.667 11.333c-1.105 0-2 0.895-2 2v0c0 1.105 0.895 2 2 2v0c1.105 0 2-0.895 2-2v0c0-1.105-0.895-2-2-2v0M18.667 16.667c-1.105 0-2 0.895-2 2v0c0 1.105 0.895 2 2 2v0c1.105 0 2-0.895 2-2v0c0-1.105-0.895-2-2-2v0M13.333 22.667c-0.736 0-1.333 0.597-1.333 1.333v0c0 0.736 0.597 1.333 1.333 1.333v0c0.736 0 1.333-0.597 1.333-1.333v0c0-0.736-0.597-1.333-1.333-1.333v0M13.333 11.333c-1.105 0-2 0.895-2 2v0c0 1.105 0.895 2 2 2v0c1.105 0 2-0.895 2-2v0c0-1.105-0.895-2-2-2v0M18.667 27.333c-0.368 0-0.667 0.298-0.667 0.667v0c0 0.368 0.298 0.667 0.667 0.667v0c0.368 0 0.667-0.298 0.667-0.667v0c0-0.368-0.298-0.667-0.667-0.667v0M18.667 22.667c-0.736 0-1.333 0.597-1.333 1.333v0c0 0.736 0.597 1.333 1.333 1.333v0c0.736 0 1.333-0.597 1.333-1.333v0c0-0.736-0.597-1.333-1.333-1.333v0M28 18c-0.368 0-0.667 0.298-0.667 0.667v0c0 0.368 0.298 0.667 0.667 0.667v0c0.368 0 0.667-0.298 0.667-0.667v0c0-0.368-0.298-0.667-0.667-0.667v0M24 6.667c-0.736 0-1.333 0.597-1.333 1.333v0c0 0.736 0.597 1.333 1.333 1.333v0c0.736 0 1.333-0.597 1.333-1.333v0c0-0.736-0.597-1.333-1.333-1.333v0M24 12c-0.736 0-1.333 0.597-1.333 1.333v0c0 0.736 0.597 1.333 1.333 1.333v0c0.736 0 1.333-0.597 1.333-1.333v0c0-0.736-0.597-1.333-1.333-1.333v0M24 22.667c-0.736 0-1.333 0.597-1.333 1.333v0c0 0.736 0.597 1.333 1.333 1.333v0c0.736 0 1.333-0.597 1.333-1.333v0c0-0.736-0.597-1.333-1.333-1.333v0M24 17.333c-0.736 0-1.333 0.597-1.333 1.333v0c0 0.736 0.597 1.333 1.333 1.333v0c0.736 0 1.333-0.597 1.333-1.333v0c0-0.736-0.597-1.333-1.333-1.333v0M13.333 16.667c-1.105 0-2 0.895-2 2v0c0 1.105 0.895 2 2 2v0c1.105 0 2-0.895 2-2v0c0-1.105-0.895-2-2-2v0M13.333 9.333c0.736 0 1.333-0.597 1.333-1.333v0c0-0.736-0.597-1.333-1.333-1.333v0c-0.736 0-1.333 0.597-1.333 1.333v0c0 0.736 0.597 1.333 1.333 1.333v0M13.333 4.667c0.368 0 0.667-0.298 0.667-0.667v0c0-0.368-0.298-0.667-0.667-0.667v0c-0.368 0-0.667 0.298-0.667 0.667v0c0 0.368 0.298 0.667 0.667 0.667v0M13.333 27.333c-0.368 0-0.667 0.298-0.667 0.667v0c0 0.368 0.298 0.667 0.667 0.667v0c0.368 0 0.667-0.298 0.667-0.667v0c0-0.368-0.298-0.667-0.667-0.667v0M4 18c-0.368 0-0.667 0.298-0.667 0.667v0c0 0.368 0.298 0.667 0.667 0.667v0c0.368 0 0.667-0.298 0.667-0.667v0c0-0.368-0.298-0.667-0.667-0.667v0M18.667 4.667c0.368 0 0.667-0.298 0.667-0.667v0c0-0.368-0.298-0.667-0.667-0.667v0c-0.368 0-0.667 0.298-0.667 0.667v0c0 0.368 0.298 0.667 0.667 0.667v0M18.667 9.333c0.736 0 1.333-0.597 1.333-1.333v0c0-0.736-0.597-1.333-1.333-1.333v0c-0.736 0-1.333 0.597-1.333 1.333v0c0 0.736 0.597 1.333 1.333 1.333v0M28 14c0.368 0 0.667-0.298 0.667-0.667v0c0-0.368-0.298-0.667-0.667-0.667v0c-0.368 0-0.667 0.298-0.667 0.667v0c0 0.368 0.298 0.667 0.667 0.667v0M8 6.667c-0.736 0-1.333 0.597-1.333 1.333v0c0 0.736 0.597 1.333 1.333 1.333v0c0.736 0 1.333-0.597 1.333-1.333v0c0-0.736-0.597-1.333-1.333-1.333v0M4 12.667c-0.368 0-0.667 0.298-0.667 0.667v0c0 0.368 0.298 0.667 0.667 0.667v0c0.368 0 0.667-0.298 0.667-0.667v0c0-0.368-0.298-0.667-0.667-0.667v0M8 12c-0.736 0-1.333 0.597-1.333 1.333v0c0 0.736 0.597 1.333 1.333 1.333v0c0.736 0 1.333-0.597 1.333-1.333v0c0-0.736-0.597-1.333-1.333-1.333v0M8 22.667c-0.736 0-1.333 0.597-1.333 1.333v0c0 0.736 0.597 1.333 1.333 1.333v0c0.736 0 1.333-0.597 1.333-1.333v0c0-0.736-0.597-1.333-1.333-1.333v0M8 17.333c-0.736 0-1.333 0.597-1.333 1.333v0c0 0.736 0.597 1.333 1.333 1.333v0c0.736 0 1.333-0.597 1.333-1.333v0c0-0.736-0.597-1.333-1.333-1.333v0z"></path>
</svg>
