<!-- Generated by IcoMoon.io -->
<svg version="1.1" xmlns="http://www.w3.org/2000/svg" width="32" height="32" viewBox="0 0 32 32">
<title>blur-radial</title>
<path d="M18.667 17.333c-0.736 0-1.333 0.597-1.333 1.333v0c0 0.736 0.597 1.333 1.333 1.333v0c0.736 0 1.333-0.597 1.333-1.333v0c0-0.736-0.597-1.333-1.333-1.333v0M18.667 22c-0.368 0-0.667 0.298-0.667 0.667v0c0 0.368 0.298 0.667 0.667 0.667v0c0.368 0 0.667-0.298 0.667-0.667v0c0-0.368-0.298-0.667-0.667-0.667v0M16 26.667c-5.891 0-10.667-4.776-10.667-10.667v0c0-5.891 4.776-10.667 10.667-10.667v0c5.891 0 10.667 4.776 10.667 10.667v0c0 5.891-4.776 10.667-10.667 10.667v0M16 2.667c-7.364 0-13.333 5.97-13.333 13.333v0c0 7.364 5.97 13.333 13.333 13.333v0c7.364 0 13.333-5.97 13.333-13.333v0c0-7.364-5.97-13.333-13.333-13.333v0M22.667 12.667c-0.368 0-0.667 0.298-0.667 0.667v0c0 0.368 0.298 0.667 0.667 0.667v0c0.368 0 0.667-0.298 0.667-0.667v0c0-0.368-0.298-0.667-0.667-0.667v0M22.667 18c-0.368 0-0.667 0.298-0.667 0.667v0c0 0.368 0.298 0.667 0.667 0.667v0c0.368 0 0.667-0.298 0.667-0.667v0c0-0.368-0.298-0.667-0.667-0.667v0M18.667 10c0.368 0 0.667-0.298 0.667-0.667v0c0-0.368-0.298-0.667-0.667-0.667v0c-0.368 0-0.667 0.298-0.667 0.667v0c0 0.368 0.298 0.667 0.667 0.667v0M18.667 12c-0.736 0-1.333 0.597-1.333 1.333v0c0 0.736 0.597 1.333 1.333 1.333v0c0.736 0 1.333-0.597 1.333-1.333v0c0-0.736-0.597-1.333-1.333-1.333v0M13.333 10c0.368 0 0.667-0.298 0.667-0.667v0c0-0.368-0.298-0.667-0.667-0.667v0c-0.368 0-0.667 0.298-0.667 0.667v0c0 0.368 0.298 0.667 0.667 0.667v0M9.333 18c-0.368 0-0.667 0.298-0.667 0.667v0c0 0.368 0.298 0.667 0.667 0.667v0c0.368 0 0.667-0.298 0.667-0.667v0c0-0.368-0.298-0.667-0.667-0.667v0M13.333 22c-0.368 0-0.667 0.298-0.667 0.667v0c0 0.368 0.298 0.667 0.667 0.667v0c0.368 0 0.667-0.298 0.667-0.667v0c0-0.368-0.298-0.667-0.667-0.667v0M9.333 12.667c-0.368 0-0.667 0.298-0.667 0.667v0c0 0.368 0.298 0.667 0.667 0.667v0c0.368 0 0.667-0.298 0.667-0.667v0c0-0.368-0.298-0.667-0.667-0.667v0M13.333 17.333c-0.736 0-1.333 0.597-1.333 1.333v0c0 0.736 0.597 1.333 1.333 1.333v0c0.736 0 1.333-0.597 1.333-1.333v0c0-0.736-0.597-1.333-1.333-1.333v0M13.333 12c-0.736 0-1.333 0.597-1.333 1.333v0c0 0.736 0.597 1.333 1.333 1.333v0c0.736 0 1.333-0.597 1.333-1.333v0c0-0.736-0.597-1.333-1.333-1.333v0z"></path>
</svg>
