<!-- Generated by IcoMoon.io -->
<svg version="1.1" xmlns="http://www.w3.org/2000/svg" width="32" height="32" viewBox="0 0 32 32">
<title>bomb</title>
<path d="M15 8c0-2.393 1.94-4.333 4.333-4.333v0c2.393 0 4.333 1.94 4.333 4.333v0c0 0.56 0.44 1 1 1s1-0.44 1-1v-1h2v1c0 1.657-1.343 3-3 3v0c-1.657 0-3-1.343-3-3v0c0-1.289-1.045-2.333-2.333-2.333v0c-1.289 0-2.333 1.045-2.333 2.333v0h1.667v1.72c3.853 1.147 6.667 4.72 6.667 8.947 0 5.155-4.179 9.333-9.333 9.333v0c-5.155 0-9.333-4.179-9.333-9.333v0c0-4.227 2.813-7.8 6.667-8.947v-1.72h1.667M29.333 8h2.667v1.333h-2.667v-1.333M25.333 5.333v-2.667h1.333v2.667h-1.333M27.88 5.84l1.893-1.893 0.947 0.947-1.893 1.893-0.947-0.947z"></path>
</svg>
