<!-- Generated by IcoMoon.io -->
<svg version="1.1" xmlns="http://www.w3.org/2000/svg" width="32" height="32" viewBox="0 0 32 32">
<title>book-open-page-variant</title>
<path d="M25.333 2.667l-6.667 6v14.667l6.667-6v-14.667M8.667 6.667c-2.6 0-5.4 0.533-7.333 2v19.547c0 0.333 0.333 0.667 0.667 0.667 0.133 0 0.2-0.093 0.333-0.093 1.8-0.867 4.4-1.453 6.333-1.453 2.6 0 5.4 0.533 7.333 2 1.8-1.133 5.067-2 7.333-2 2.2 0 4.467 0.413 6.333 1.413 0.133 0.067 0.2 0.040 0.333 0.040 0.333 0 0.667-0.333 0.667-0.667v-19.453c-0.8-0.6-1.667-1-2.667-1.333v18c-1.467-0.467-3.067-0.667-4.667-0.667-2.267 0-5.533 0.867-7.333 2v-18c-1.933-1.467-4.733-2-7.333-2z"></path>
</svg>
