<!-- Generated by IcoMoon.io -->
<svg version="1.1" xmlns="http://www.w3.org/2000/svg" width="32" height="32" viewBox="0 0 32 32">
<title>border-bottom</title>
<path d="M6.667 20h-2.667v2.667h2.667M4 28h24v-2.667h-24M6.667 14.667h-2.667v2.667h2.667M25.333 12h2.667v-2.667h-2.667M25.333 6.667h2.667v-2.667h-2.667M6.667 9.333h-2.667v2.667h2.667M25.333 22.667h2.667v-2.667h-2.667M25.333 17.333h2.667v-2.667h-2.667M22.667 4h-2.667v2.667h2.667M17.333 4h-2.667v2.667h2.667M22.667 14.667h-2.667v2.667h2.667M17.333 9.333h-2.667v2.667h2.667M6.667 4h-2.667v2.667h2.667M17.333 14.667h-2.667v2.667h2.667M12 4h-2.667v2.667h2.667M17.333 20h-2.667v2.667h2.667M12 14.667h-2.667v2.667h2.667v-2.667z"></path>
</svg>
