<!-- Generated by IcoMoon.io -->
<svg version="1.1" xmlns="http://www.w3.org/2000/svg" width="32" height="32" viewBox="0 0 32 32">
<title>box-shadow</title>
<path d="M4 4h20v20h-20v-20M25.333 25.333h2.667v2.667h-2.667v-2.667M25.333 21.333h2.667v2.667h-2.667v-2.667M25.333 17.333h2.667v2.667h-2.667v-2.667M25.333 13.333h2.667v2.667h-2.667v-2.667M25.333 9.333h2.667v2.667h-2.667v-2.667M21.333 25.333h2.667v2.667h-2.667v-2.667M17.333 25.333h2.667v2.667h-2.667v-2.667M13.333 25.333h2.667v2.667h-2.667v-2.667M9.333 25.333h2.667v2.667h-2.667v-2.667z"></path>
</svg>
