<!-- Generated by IcoMoon.io -->
<svg version="1.1" xmlns="http://www.w3.org/2000/svg" width="32" height="32" viewBox="0 0 32 32">
<title>bridge</title>
<path d="M9.333 18.667v-4.12c-0.96-0.44-1.853-0.973-2.667-1.6v5.72h2.667M6.667 24h-2.667v-2.667h-2.667v-2.667h2.667v-9.333h2.667v1.907c2.4 2.093 5.693 3.427 9.333 3.427s6.933-1.333 9.333-3.427v-1.907h2.667v9.333h2.667v2.667h-2.667v2.667h-2.667v-2.667h-18.667v2.667M22.667 14.547v4.12h2.667v-5.72c-0.813 0.627-1.707 1.16-2.667 1.6M21.333 18.667v-3.573c-0.853 0.307-1.747 0.533-2.667 0.693v2.88h2.667M17.333 18.667v-2.72l-1.333 0.053-1.333-0.053v2.72h2.667M13.333 18.667v-2.88c-0.92-0.16-1.813-0.387-2.667-0.693v3.573h2.667z"></path>
</svg>
