<!-- Generated by IcoMoon.io -->
<svg version="1.1" xmlns="http://www.w3.org/2000/svg" width="32" height="32" viewBox="0 0 32 32">
<title>brightness-6</title>
<path d="M16 10.667c-2.946 0-5.333 2.388-5.333 5.333v0c0 2.946 2.388 5.333 5.333 5.333v0c2.946 0 5.333-2.388 5.333-5.333v0c0-2.946-2.388-5.333-5.333-5.333v0M16 24c-4.418 0-8-3.582-8-8v0c0-4.418 3.582-8 8-8v0c4.418 0 8 3.582 8 8v0c0 4.418-3.582 8-8 8v0M26.667 11.587v-6.253h-6.253l-4.413-4.413-4.413 4.413h-6.253v6.253l-4.413 4.413 4.413 4.413v6.253h6.253l4.413 4.413 4.413-4.413h6.253v-6.253l4.413-4.413-4.413-4.413z"></path>
</svg>
