<!-- Generated by IcoMoon.io -->
<svg version="1.1" xmlns="http://www.w3.org/2000/svg" width="32" height="32" viewBox="0 0 32 32">
<title>brightness-3</title>
<path d="M16 24c-1.187 0-2.32-0.267-3.333-0.733 2.747-1.267 4.667-4.040 4.667-7.267s-1.92-6-4.667-7.267c1.013-0.467 2.147-0.733 3.333-0.733 4.418 0 8 3.582 8 8v0c0 4.418-3.582 8-8 8v0M26.667 11.587v-6.253h-6.253l-4.413-4.413-4.413 4.413h-6.253v6.253l-4.413 4.413 4.413 4.413v6.253h6.253l4.413 4.413 4.413-4.413h6.253v-6.253l4.413-4.413-4.413-4.413z"></path>
</svg>
