<!-- Generated by IcoMoon.io -->
<svg version="1.1" xmlns="http://www.w3.org/2000/svg" width="32" height="32" viewBox="0 0 32 32">
<title>buffer</title>
<path d="M16.8 3.813c3.56 1.653 7.2 3.373 10.747 5.027 0.2 0.093 0.453 0.16 0.453 0.427s-0.253 0.32-0.453 0.413c-3.547 1.653-7.147 3.347-10.72 4.987-0.239 0.132-0.524 0.21-0.827 0.21s-0.588-0.078-0.836-0.214l0.009 0.005c-3.587-1.653-7.173-3.333-10.747-5-0.187-0.080-0.427-0.147-0.427-0.413 0-0.24 0.24-0.307 0.413-0.387 3.587-1.68 7.24-3.4 10.84-5.067 0.387-0.173 1.147-0.16 1.547 0.013M16 28.2c-0.267 0-0.453-0.107-0.827-0.24-3.587-1.653-7.173-3.333-10.733-5-0.187-0.093-0.44-0.147-0.44-0.427 0-0.267 0.253-0.32 0.453-0.413 0.587-0.28 1.187-0.56 1.773-0.84 0.6-0.267 1.187-0.267 1.773 0.013 2.387 1.107 4.76 2.213 7.133 3.32 0.587 0.28 1.173 0.267 1.76 0 2.373-1.12 4.747-2.227 7.107-3.333 0.587-0.267 1.16-0.28 1.72-0.013 0.64 0.28 1.267 0.587 1.893 0.88 0.093 0.040 0.187 0.093 0.267 0.16 0.173 0.133 0.173 0.36 0 0.467-0.107 0.080-0.227 0.147-0.347 0.2-3.533 1.693-7.093 3.32-10.653 4.96-0.267 0.133-0.627 0.267-0.88 0.267M16 21.56c-0.133 0-0.6-0.133-0.853-0.227-3.573-1.68-7.147-3.333-10.693-5.013-0.187-0.080-0.453-0.147-0.453-0.413 0-0.28 0.267-0.333 0.467-0.427 0.6-0.293 1.2-0.573 1.8-0.853 0.573-0.253 1.147-0.253 1.733 0.040 2.373 1.093 4.773 2.213 7.173 3.333 0.547 0.253 1.107 0.253 1.667 0 2.4-1.133 4.8-2.253 7.213-3.373 0.547-0.253 1.107-0.253 1.667 0 0.627 0.293 1.267 0.587 1.893 0.88 0.080 0.040 0.173 0.080 0.253 0.147 0.187 0.147 0.187 0.347-0.013 0.507-0.067 0.053-0.16 0.093-0.24 0.133-3.613 1.707-7.2 3.373-10.8 5.040-0.253 0.12-0.707 0.227-0.813 0.227z"></path>
</svg>
