<!-- Generated by IcoMoon.io -->
<svg version="1.1" xmlns="http://www.w3.org/2000/svg" width="32" height="32" viewBox="0 0 32 32">
<title>bulletin-board</title>
<path d="M16.053 3.333l-3.347 3.333h6.667l-3.32-3.333M5.333 9.333v17.333h21.333v-17.333h-21.333M16 0l6.667 6.667h4c1.473 0 2.667 1.194 2.667 2.667v17.333c0 1.473-1.194 2.667-2.667 2.667h-21.333c-1.473 0-2.667-1.194-2.667-2.667v-17.333c0-1.473 1.194-2.667 2.667-2.667h4l6.667-6.667M9.333 24v-5.333h6.667v5.333h-6.667M18.667 22.667v-9.333h5.333v9.333h-5.333M8 16v-4h6.667v4h-6.667z"></path>
</svg>
