<!-- Generated by IcoMoon.io -->
<svg version="1.1" xmlns="http://www.w3.org/2000/svg" width="32" height="32" viewBox="0 0 32 32">
<title>bullhorn</title>
<path d="M21.333 16v5.333c0 0.736-0.597 1.333-1.333 1.333v0c-0.227 0-0.44 0-1.253-0.667-0.827-0.667-2.227-2-3.667-2.667-1.333-0.613-2.707-0.667-4.067-0.667l1.613 4.427 0.040 0.24c0 0.368-0.298 0.667-0.667 0.667v0h-2.667c-0.293 0-0.547-0.187-0.627-0.453l-1.787-4.88h-0.253c-0.736 0-1.333-0.597-1.333-1.333v0c-1.473 0-2.667-1.194-2.667-2.667v0c0-1.473 1.194-2.667 2.667-2.667v0c0-0.736 0.597-1.333 1.333-1.333h4c1.48 0 2.96 0 4.413-0.667 1.44-0.667 2.84-2 3.667-2.667 0.813-0.667 1.027-0.667 1.253-0.667 0.736 0 1.333 0.597 1.333 1.333v0 5.333c0.736 0 1.333 0.597 1.333 1.333v0c0 0.736-0.597 1.333-1.333 1.333v0M28 14.667c0 1.84-0.747 3.507-1.947 4.72l-1.893-1.893c0.725-0.723 1.174-1.722 1.174-2.827s-0.449-2.104-1.174-2.827l-0-0 1.893-1.893c1.2 1.213 1.947 2.88 1.947 4.72z"></path>
</svg>
