<!-- Generated by IcoMoon.io -->
<svg version="1.1" xmlns="http://www.w3.org/2000/svg" width="32" height="32" viewBox="0 0 32 32">
<title>bus</title>
<path d="M24 14.667h-16v-6.667h16M22 22.667c-1.105 0-2-0.895-2-2v0c0-1.105 0.895-2 2-2v0c1.105 0 2 0.895 2 2v0c0 1.105-0.895 2-2 2v0M10 22.667c-1.105 0-2-0.895-2-2v0c0-1.105 0.895-2 2-2v0c1.105 0 2 0.895 2 2v0c0 1.105-0.895 2-2 2v0M5.333 21.333c0 1.173 0.52 2.227 1.333 2.96v2.373c0 0.736 0.597 1.333 1.333 1.333v0h1.333c0.736 0 1.333-0.597 1.333-1.333v0-1.333h10.667v1.333c0 0.736 0.597 1.333 1.333 1.333h1.333c0.736 0 1.333-0.597 1.333-1.333v-2.373c0.813-0.733 1.333-1.787 1.333-2.96v-13.333c0-4.667-4.773-5.333-10.667-5.333s-10.667 0.667-10.667 5.333v13.333z"></path>
</svg>
