<!-- Generated by IcoMoon.io -->
<svg version="1.1" xmlns="http://www.w3.org/2000/svg" width="32" height="32" viewBox="0 0 32 32">
<title>cake</title>
<path d="M15.333 0.667c0.667 0.333 2 2.533 2 4s-0.893 2-2 2-2-0.2-2-1.667 1.333-2.333 2-4.333M24.667 12c3.333 0 6 2.667 6 6 0 2.080-1.053 3.907-2.667 4.987v7.68h-24v-7.68c-1.613-1.080-2.667-2.907-2.667-4.987 0-3.333 2.667-6 6-6h6v-4h4v4h7.333M16 21.333c1.841 0 3.333-1.492 3.333-3.333v0h2c0 1.841 1.492 3.333 3.333 3.333v0c1.841 0 3.333-1.492 3.333-3.333v0c0-1.841-1.492-3.333-3.333-3.333v0h-17.333c-1.841 0-3.333 1.492-3.333 3.333v0c0 1.841 1.492 3.333 3.333 3.333v0c1.841 0 3.333-1.492 3.333-3.333v0h2c0 1.841 1.492 3.333 3.333 3.333v0z"></path>
</svg>
