<!-- Generated by IcoMoon.io -->
<svg version="1.1" xmlns="http://www.w3.org/2000/svg" width="32" height="32" viewBox="0 0 32 32">
<title>cake-layered</title>
<path d="M28 28v-5.333c0-1.473-1.194-2.667-2.667-2.667v0h-1.333v-4c0-1.473-1.194-2.667-2.667-2.667v0h-4v-2.667h-2.667v2.667h-4c-1.48 0-2.667 1.187-2.667 2.667v4h-1.333c-1.48 0-2.667 1.187-2.667 2.667v5.333h-2.667v2.667h29.333v-2.667M16 9.333c1.473 0 2.667-1.194 2.667-2.667v0c0-0.507-0.133-0.973-0.387-1.373l-2.28-3.96-2.293 3.96c-0.24 0.4-0.373 0.867-0.373 1.373 0 1.473 1.194 2.667 2.667 2.667v0z"></path>
</svg>
