<!-- Generated by IcoMoon.io -->
<svg version="1.1" xmlns="http://www.w3.org/2000/svg" width="32" height="32" viewBox="0 0 32 32">
<title>calendar-multiple-check</title>
<path d="M28 22.667v-12h-18.667v12h18.667M28 4c1.473 0 2.667 1.194 2.667 2.667v0 16c0 1.473-1.194 2.667-2.667 2.667v0h-18.667c-1.473 0-2.667-1.194-2.667-2.667v-16c0-1.473 1.194-2.667 2.667-2.667h1.333v-2.667h2.667v2.667h10.667v-2.667h2.667v2.667h1.333M23.373 14.747l-5.92 5.92-3.573-3.573 1.413-1.413 2.16 2.16 4.507-4.507 1.413 1.413M4 28h18.667v2.667h-18.667c-1.473 0-2.667-1.194-2.667-2.667v0-16h2.667v16z"></path>
</svg>
