<!-- Generated by IcoMoon.io -->
<svg version="1.1" xmlns="http://www.w3.org/2000/svg" width="32" height="32" viewBox="0 0 32 32">
<title>calendar-remove</title>
<path d="M25.333 25.333h-18.667v-14.667h18.667M25.333 4h-1.333v-2.667h-2.667v2.667h-10.667v-2.667h-2.667v2.667h-1.333c-1.473 0-2.667 1.194-2.667 2.667v0 18.667c0 1.473 1.194 2.667 2.667 2.667v0h18.667c1.473 0 2.667-1.194 2.667-2.667v0-18.667c0-1.473-1.194-2.667-2.667-2.667v0M12.413 22.667l3.253-3.253 3.253 3.253 1.413-1.413-3.253-3.253 3.253-3.253-1.413-1.413-3.253 3.253-3.253-3.253-1.413 1.413 3.253 3.253-3.253 3.253 1.413 1.413z"></path>
</svg>
