<!-- Generated by IcoMoon.io -->
<svg version="1.1" xmlns="http://www.w3.org/2000/svg" width="32" height="32" viewBox="0 0 32 32">
<title>camera-enhance</title>
<path d="M12 4l-2.44 2.667h-4.227c-1.473 0-2.667 1.194-2.667 2.667v16c0 1.473 1.194 2.667 2.667 2.667h21.333c1.473 0 2.667-1.194 2.667-2.667v0-16c0-1.473-1.194-2.667-2.667-2.667h-4.227l-2.44-2.667M16 24c-3.682 0-6.667-2.985-6.667-6.667v0c0-3.682 2.985-6.667 6.667-6.667v0c3.682 0 6.667 2.985 6.667 6.667v0c0 3.682-2.985 6.667-6.667 6.667v0M16 22.667l1.667-3.667 3.667-1.667-3.667-1.667-1.667-3.667-1.667 3.667-3.667 1.667 3.667 1.667"></path>
</svg>
