<!-- Generated by IcoMoon.io -->
<svg version="1.1" xmlns="http://www.w3.org/2000/svg" width="32" height="32" viewBox="0 0 32 32">
<title>camera-off</title>
<path d="M1.6 5.96l1.733-1.693 23.333 23.36-1.693 1.707-2.667-2.667h-16.973c-1.473 0-2.667-1.194-2.667-2.667v0-16c0-0.293 0.053-0.573 0.133-0.84l-1.2-1.2M9.333 5.333l2.667-2.667h8l2.667 2.667h4c1.473 0 2.667 1.194 2.667 2.667v0 16c0 0.8-0.347 1.507-0.907 2l-6.653-6.667c0.573-0.973 0.893-2.12 0.893-3.333 0-3.682-2.985-6.667-6.667-6.667v0c-1.213 0-2.36 0.32-3.333 0.893l-4.907-4.893h1.573M9.333 16c0 3.682 2.985 6.667 6.667 6.667v0c0.667 0 1.373-0.107 2-0.307l-2.373-2.36c-1.912-0.211-3.416-1.715-3.625-3.608l-0.002-0.018-2.36-2.373c-0.2 0.627-0.307 1.333-0.307 2M16 12c2.209 0 4 1.791 4 4v0c0 0.002 0 0.004 0 0.006 0 0.476-0.083 0.932-0.235 1.355l0.009-0.028-5.107-5.107c0.395-0.144 0.852-0.227 1.327-0.227 0.002 0 0.004 0 0.006 0h-0z"></path>
</svg>
