<!-- Generated by IcoMoon.io -->
<svg version="1.1" xmlns="http://www.w3.org/2000/svg" width="32" height="32" viewBox="0 0 32 32">
<title>camera-party-mode</title>
<path d="M16 22.667c-2.173 0-4.080-1.053-5.333-2.667h5.333c2.209 0 4-1.791 4-4v0c0-0.467-0.093-0.92-0.24-1.333h2.773c0.080 0.427 0.133 0.88 0.133 1.333 0 3.682-2.985 6.667-6.667 6.667v0M16 9.333c2.173 0 4.080 1.053 5.333 2.667h-5.333c-2.209 0-4 1.791-4 4v0c0 0.467 0.093 0.907 0.24 1.333h-2.773c-0.093-0.427-0.133-0.88-0.133-1.333 0-3.682 2.985-6.667 6.667-6.667v0M26.667 5.333h-4.227l-2.44-2.667h-8l-2.44 2.667h-4.227c-1.473 0-2.667 1.194-2.667 2.667v0 16c0 1.473 1.194 2.667 2.667 2.667h21.333c1.473 0 2.667-1.194 2.667-2.667v0-16c0-1.473-1.194-2.667-2.667-2.667v0z"></path>
</svg>
