<!-- Generated by IcoMoon.io -->
<svg version="1.1" xmlns="http://www.w3.org/2000/svg" width="32" height="32" viewBox="0 0 32 32">
<title>camera-timer</title>
<path d="M6.587 8.467c-0.52-0.52-0.52-1.373 0-1.893 0.24-0.241 0.573-0.39 0.94-0.39s0.7 0.149 0.94 0.39l0 0 9.427 7.547c1.040 1.040 1.040 2.733 0 3.773s-2.733 1.040-3.773 0l-0.373-0.467-7.16-8.96M16 26.667c5.891 0 10.667-4.776 10.667-10.667v0c0-2.947-1.2-5.613-3.12-7.547l1.88-1.88c2.413 2.407 3.907 5.735 3.907 9.412 0 0.005 0 0.010 0 0.015v-0.001c0 7.364-5.97 13.333-13.333 13.333v0c-7.364 0-13.333-5.97-13.333-13.333h2.667c0 5.891 4.776 10.667 10.667 10.667v0M16 1.333c1.473 0 2.667 1.194 2.667 2.667v0c0 1.473-1.194 2.667-2.667 2.667v0c-1.473 0-2.667-1.194-2.667-2.667v0c0-1.473 1.194-2.667 2.667-2.667v0z"></path>
</svg>
