<!-- Generated by IcoMoon.io -->
<svg version="1.1" xmlns="http://www.w3.org/2000/svg" width="32" height="32" viewBox="0 0 32 32">
<title>camera-rear-variant</title>
<path d="M8 0h16c1.473 0 2.667 1.194 2.667 2.667v0 26.667c0 1.473-1.194 2.667-2.667 2.667v0h-16c-1.473 0-2.667-1.194-2.667-2.667v-26.667c0-1.473 1.194-2.667 2.667-2.667v0M16 2.667c-1.473 0-2.667 1.194-2.667 2.667v0c0 1.473 1.194 2.667 2.667 2.667v0c1.473 0 2.667-1.194 2.667-2.667v0c0-1.473-1.194-2.667-2.667-2.667v0M17.333 24h-5.333v2.667h5.333v2.667l4-4-4-4v2.667z"></path>
</svg>
