<!-- Generated by IcoMoon.io -->
<svg version="1.1" xmlns="http://www.w3.org/2000/svg" width="32" height="32" viewBox="0 0 32 32">
<title>car-connected</title>
<path d="M6.667 18.667h18.667l-2-6h-14.667l-2 6M23.333 25.333c1.105 0 2-0.895 2-2v0c0-1.105-0.895-2-2-2v0c-1.105 0-2 0.895-2 2v0c0 1.105 0.895 2 2 2v0M8.667 25.333c1.105 0 2-0.895 2-2v0c0-1.105-0.895-2-2-2v0c-1.105 0-2 0.895-2 2v0c0 1.105 0.895 2 2 2v0M25.227 12l2.773 8v10.667c0 0.736-0.597 1.333-1.333 1.333v0h-1.333c-0.736 0-1.333-0.597-1.333-1.333v0-1.333h-16v1.333c0 0.736-0.597 1.333-1.333 1.333v0h-1.333c-0.736 0-1.333-0.597-1.333-1.333v0-10.667l2.773-8c0.267-0.773 1.027-1.333 1.893-1.333h14.667c0.867 0 1.627 0.56 1.893 1.333M16 0c2.827 0 5.533 1.147 7.533 3.133l-1.893 1.893c-1.443-1.448-3.435-2.348-5.638-2.36h-0.002c-2.107 0-4.147 0.867-5.64 2.36l-1.88-1.893c1.924-1.929 4.581-3.125 7.518-3.133h0.002M16 5.333c1.413 0 2.76 0.587 3.76 1.573l-1.893 1.893c-0.493-0.493-1.16-0.8-1.867-0.8-0.667 0-1.373 0.307-1.867 0.8l-1.893-1.893c1-0.987 2.347-1.573 3.76-1.573z"></path>
</svg>
