<!-- Generated by IcoMoon.io -->
<svg version="1.1" xmlns="http://www.w3.org/2000/svg" width="32" height="32" viewBox="0 0 32 32">
<title>car-wash</title>
<path d="M6.667 17.333l2-6h14.667l2 6M23.333 24c-1.105 0-2-0.895-2-2v0c0-1.105 0.895-2 2-2v0c1.105 0 2 0.895 2 2v0c0 1.105-0.895 2-2 2v0M8.667 24c-1.105 0-2-0.895-2-2v0c0-1.105 0.895-2 2-2v0c1.105 0 2 0.895 2 2v0c0 1.105-0.895 2-2 2v0M25.227 10.667c-0.267-0.773-1.013-1.333-1.893-1.333h-14.667c-0.88 0-1.627 0.56-1.893 1.333l-2.773 8v10.667c0 0.736 0.597 1.333 1.333 1.333h1.333c0.736 0 1.333-0.597 1.333-1.333v0-1.333h16v1.333c0 0.736 0.597 1.333 1.333 1.333v0h1.333c0.736 0 1.333-0.597 1.333-1.333v0-10.667M9.333 6.667c1.105 0 2-0.895 2-2v0c0-1.333-2-3.6-2-3.6s-2 2.267-2 3.6c0 1.105 0.895 2 2 2v0M16 6.667c1.105 0 2-0.895 2-2v0c0-1.333-2-3.6-2-3.6s-2 2.267-2 3.6c0 1.105 0.895 2 2 2v0M22.667 6.667c1.105 0 2-0.895 2-2v0c0-1.333-2-3.6-2-3.6s-2 2.267-2 3.6c0 1.105 0.895 2 2 2v0z"></path>
</svg>
