<!-- Generated by IcoMoon.io -->
<svg version="1.1" xmlns="http://www.w3.org/2000/svg" width="32" height="32" viewBox="0 0 32 32">
<title>cards-playing-outline</title>
<path d="M14.92 3c1.040 0.013 2.027 0.64 2.413 1.667l6.667 15.933c0.12 0.347 0.187 0.733 0.173 1.067-0.033 1.076-0.691 1.99-1.623 2.393l-0.017 0.007-9.827 4.067c-0.347 0.16-0.707 0.2-1.053 0.2-1.089-0.025-2.015-0.699-2.407-1.649l-0.006-0.018-6.613-15.933c-0.56-1.347 0.093-2.907 1.453-3.467l9.813-4.067c0.333-0.12 0.68-0.2 1.027-0.2M19.56 3h1.933c1.473 0 2.667 1.194 2.667 2.667v0 8.467l-4.6-11.133M26.84 5.053l1.787 0.76c0.978 0.406 1.653 1.353 1.653 2.457 0 0.364-0.073 0.711-0.206 1.027l0.006-0.017-3.24 7.813v-12.040M14.92 5.627l-9.853 4.093 6.627 16.013 9.867-4.080-6.64-16.027M11.533 11.387l4.307 3.213-0.587 5.347-4.307-3.227 0.587-5.333z"></path>
</svg>
