<!-- Generated by IcoMoon.io -->
<svg version="1.1" xmlns="http://www.w3.org/2000/svg" width="32" height="32" viewBox="0 0 32 32">
<title>carrot</title>
<path d="M21.333 13.333l-0.267 1.333h-3.067c-0.368 0-0.667 0.298-0.667 0.667v0c0 0.368 0.298 0.667 0.667 0.667v0h2.8l-1.333 6.667h-2.8c-0.368 0-0.667 0.298-0.667 0.667v0c0 0.368 0.298 0.667 0.667 0.667v0h2.533l-0.533 2.667c0 1.473-1.194 2.667-2.667 2.667v0c-1.473 0-2.667-1.194-2.667-2.667v0l-1.333-6.667h2c0.368 0 0.667-0.298 0.667-0.667v0c0-0.368-0.298-0.667-0.667-0.667h-2.267l-1.067-5.333c0-1.6 1.24-2.973 3.053-3.613l-1.853-2.68c-0.147-0.211-0.235-0.472-0.235-0.754 0-0.455 0.228-0.856 0.577-1.096l0.005-0.003c0.212-0.149 0.476-0.239 0.76-0.239 0.451 0 0.85 0.224 1.090 0.568l0.003 0.004 0.6 0.88v-2.4c0-0.736 0.597-1.333 1.333-1.333v0c0.736 0 1.333 0.597 1.333 1.333v0 3.040l2-2.32c0.44-0.56 1.293-0.627 1.853-0.147 0.56 0.467 0.627 1.307 0.147 1.88l-2.84 3.347c1.693 0.667 2.84 2 2.84 3.533z"></path>
</svg>
