<!-- Generated by IcoMoon.io -->
<svg version="1.1" xmlns="http://www.w3.org/2000/svg" width="32" height="32" viewBox="0 0 32 32">
<title>case-sensitive-alt</title>
<path d="M26.667 18.667c0-2-0.667-2.667-2.667-2.667h-2.667v-1.333c0-1.333 0-1.333-2.667-1.333v12h5.333c2 0 2.667-0.707 2.667-2.667v-4M16 16c0-2-0.707-2.667-2.667-2.667h-5.333c-2 0-2.667 0.667-2.667 2.667v9.333h2.667v-4h5.333v4h2.667v-9.333M13.333 9.333h5.333v-2.667h-5.333v2.667M29.333 12v14.667c0 1.48-1.187 2.667-2.667 2.667h-21.333c-1.473 0-2.667-1.194-2.667-2.667v-14.667c0-1.48 1.187-2.667 2.667-2.667h5.333v-2.667l2.667-2.667h5.333l2.667 2.667v2.667h5.333c1.473 0 2.667 1.194 2.667 2.667v0M21.333 22.667h2.667v-4h-2.667v4M8 16h5.333v2.667h-5.333v-2.667z"></path>
</svg>
