<!-- Generated by IcoMoon.io -->
<svg version="1.1" xmlns="http://www.w3.org/2000/svg" width="32" height="32" viewBox="0 0 32 32">
<title>cash-</title>
<path d="M2.667 6.667h26.667v20h-26.667v-20M26.667 24v-14.667h-21.333v14.667h21.333M22.667 10.667c0 1.473 1.194 2.667 2.667 2.667v0 6.667c-1.473 0-2.667 1.194-2.667 2.667v0h-13.333c0-1.473-1.194-2.667-2.667-2.667v0-6.667c1.473 0 2.667-1.194 2.667-2.667v0h13.333M22.667 17.333v-1.333c0-1.467-0.893-2.667-2-2.667s-2 1.2-2 2.667v1.333c0 1.467 0.893 2.667 2 2.667s2-1.2 2-2.667M20.667 14.667c0.368 0 0.667 0.298 0.667 0.667v2.667c0 0.368-0.298 0.667-0.667 0.667v0c-0.368 0-0.667-0.298-0.667-0.667v0-2.667c0-0.368 0.298-0.667 0.667-0.667v0M17.333 17.333v-1.333c0-1.467-0.893-2.667-2-2.667s-2 1.2-2 2.667v1.333c0 1.467 0.893 2.667 2 2.667s2-1.2 2-2.667M15.333 14.667c0.368 0 0.667 0.298 0.667 0.667v0 2.667c0 0.368-0.298 0.667-0.667 0.667v0c-0.368 0-0.667-0.298-0.667-0.667v0-2.667c0-0.368 0.298-0.667 0.667-0.667v0M10.667 20h1.333v-6.667h-1.333l-1.333 0.667v1.333l1.333-0.667v5.333z"></path>
</svg>
