<!-- Generated by IcoMoon.io -->
<svg version="1.1" xmlns="http://www.w3.org/2000/svg" width="32" height="32" viewBox="0 0 32 32">
<title>cat</title>
<path d="M16 10.667l-1.773 0.12c-1.147-1.36-4.36-4.787-7.56-4.787 0 0-2.627 3.947-0.053 9.213-0.733 1.107-1.187 1.68-1.28 3l-2.573 0.387 0.28 1.307 2.347-0.347 0.187 0.947-2.093 1.253 0.627 1.187 1.933-1.187c1.533 3.253 5.413 4.907 9.96 4.907s8.427-1.653 9.96-4.907l1.933 1.187 0.627-1.187-2.093-1.253 0.187-0.947 2.347 0.347 0.28-1.307-2.573-0.387c-0.093-1.32-0.547-1.893-1.28-3 2.573-5.267-0.053-9.213-0.053-9.213-3.2 0-6.413 3.427-7.56 4.787l-1.773-0.12M12 14.667c0.736 0 1.333 0.597 1.333 1.333v0c0 0.736-0.597 1.333-1.333 1.333v0c-0.736 0-1.333-0.597-1.333-1.333v0c0-0.736 0.597-1.333 1.333-1.333v0M20 14.667c0.736 0 1.333 0.597 1.333 1.333v0c0 0.736-0.597 1.333-1.333 1.333v0c-0.736 0-1.333-0.597-1.333-1.333v0c0-0.736 0.597-1.333 1.333-1.333v0M14.667 18.667h2.667l-0.933 1.853c0.267 0.853 1.013 1.48 1.933 1.48 1.105 0 2-0.895 2-2v0h0.667c0 1.473-1.194 2.667-2.667 2.667v0c-1 0-1.867-0.547-2.333-1.333-0.467 0.787-1.333 1.333-2.333 1.333-1.473 0-2.667-1.194-2.667-2.667v0h0.667c0 1.105 0.895 2 2 2v0c0.92 0 1.667-0.627 1.933-1.48l-0.933-1.853z"></path>
</svg>
