<!-- Generated by IcoMoon.io -->
<svg version="1.1" xmlns="http://www.w3.org/2000/svg" width="32" height="32" viewBox="0 0 32 32">
<title>chart-pie</title>
<path d="M28 14.667h-10.667v-10.667c5.891 0 10.667 4.776 10.667 10.667v0M25.333 17.333c-0.001 3.693-1.874 6.949-4.722 8.869l-0.038 0.024-5.133-8.893h9.893M14.667 28c-3.693-0.001-6.949-1.874-8.869-4.722l-0.024-0.038 8.653-5 4.987 8.653c-1.413 0.707-3.040 1.107-4.747 1.107M4 17.333c0-5.891 4.776-10.667 10.667-10.667v0 9.893l-9.56 5.52c-0.698-1.377-1.107-3.002-1.107-4.722 0-0.009 0-0.017 0-0.026v0.001z"></path>
</svg>
