<!-- Generated by IcoMoon.io -->
<svg version="1.1" xmlns="http://www.w3.org/2000/svg" width="32" height="32" viewBox="0 0 32 32">
<title>checkbox-multiple-marked-circle-outline</title>
<path d="M18.667 2.667c-5.891 0-10.667 4.776-10.667 10.667v0c0 5.891 4.776 10.667 10.667 10.667v0c5.891 0 10.667-4.776 10.667-10.667v0h-2.667c0 4.427-3.573 8-8 8-4.418 0-8-3.582-8-8v0c0-4.418 3.582-8 8-8v0c0.573 0 1.147 0.067 1.693 0.187l2.147-2.133c-1.227-0.48-2.507-0.72-3.84-0.72M27.453 4.773l-8.787 8.787-3.173-3.173-1.88 1.893 5.053 5.053 10.667-10.667M6.573 7.76c-2.389 1.97-3.901 4.928-3.907 8.239v0.001c0 5.891 4.776 10.667 10.667 10.667v0c0.853 0 1.693-0.107 2.507-0.307-2.347-0.52-4.507-1.693-6.28-3.307-2.534-1.376-4.226-4.017-4.227-7.053v-0c0-0.4 0.040-0.787 0.093-1.187-0.053-0.493-0.093-0.987-0.093-1.48 0-1.92 0.427-3.827 1.24-5.573z"></path>
</svg>
