<!-- Generated by IcoMoon.io -->
<svg version="1.1" xmlns="http://www.w3.org/2000/svg" width="32" height="32" viewBox="0 0 32 32">
<title>checkbox-multiple-marked-circle</title>
<path d="M18.667 2.667c-5.891 0-10.667 4.776-10.667 10.667v0c0 5.891 4.776 10.667 10.667 10.667v0c5.891 0 10.667-4.776 10.667-10.667v0c0-5.891-4.776-10.667-10.667-10.667v0M6.573 7.76c-2.389 1.97-3.901 4.928-3.907 8.239v0.001c0 5.891 4.776 10.667 10.667 10.667v0c0.853 0 1.693-0.107 2.507-0.307-2.347-0.52-4.507-1.693-6.28-3.307-2.534-1.376-4.226-4.017-4.227-7.053v-0c0-0.4 0.040-0.787 0.093-1.187-0.053-0.493-0.093-0.987-0.093-1.48 0-1.92 0.427-3.827 1.24-5.573M24.12 8.107l1.88 1.893-8.667 8.667-5.053-5.053 1.893-1.893 3.16 3.173"></path>
</svg>
