<!-- Generated by IcoMoon.io -->
<svg version="1.1" xmlns="http://www.w3.org/2000/svg" width="32" height="32" viewBox="0 0 32 32">
<title>check-circle-outline</title>
<path d="M16 2.667c7.364 0 13.333 5.97 13.333 13.333v0c0 7.364-5.97 13.333-13.333 13.333v0c-7.364 0-13.333-5.97-13.333-13.333v0c0-7.364 5.97-13.333 13.333-13.333v0M16 5.333c-5.891 0-10.667 4.776-10.667 10.667v0c0 5.891 4.776 10.667 10.667 10.667v0c5.891 0 10.667-4.776 10.667-10.667v0c0-5.891-4.776-10.667-10.667-10.667v0M14.667 22l-6-6 1.88-1.88 4.12 4.107 7.453-7.44 1.88 1.88-9.333 9.333z"></path>
</svg>
