<!-- Generated by IcoMoon.io -->
<svg version="1.1" xmlns="http://www.w3.org/2000/svg" width="32" height="32" viewBox="0 0 32 32">
<title>checkbox-multiple-marked</title>
<path d="M29.333 21.333c0 1.473-1.194 2.667-2.667 2.667h-16c-1.473 0-2.667-1.194-2.667-2.667v0-16c0-1.48 1.187-2.667 2.667-2.667h16c1.473 0 2.667 1.194 2.667 2.667v16M21.333 26.667v2.667h-16c-1.473 0-2.667-1.194-2.667-2.667v-17.333h2.667v17.333h16M17.333 18.667l9.333-9.333-1.88-1.88-7.453 7.44-4.12-4.107-1.88 1.88 6 6z"></path>
</svg>
