<!-- Generated by IcoMoon.io -->
<svg version="1.1" xmlns="http://www.w3.org/2000/svg" width="32" height="32" viewBox="0 0 32 32">
<title>chemical-weapon</title>
<path d="M14.667 10.44c-1.567-0.566-2.667-2.040-2.667-3.771 0-0.001 0-0.001 0-0.002v0c0-2.209 1.791-4 4-4v0c2.209 0 4 1.791 4 4v0c0 1.747-1.12 3.227-2.667 3.773v3.747c-0.399-0.118-0.858-0.186-1.333-0.186s-0.934 0.068-1.368 0.194l0.034-0.009v-3.747M24.4 28.133c-1.211-0.699-2.013-1.987-2.013-3.463 0-0.256 0.024-0.506 0.070-0.749l-0.004 0.025-3.253-1.88c0.64-0.613 1.12-1.4 1.333-2.307l3.253 1.88c1.253-1.080 3.093-1.293 4.6-0.427 1.92 1.107 2.573 3.547 1.467 5.453-0.7 1.206-1.985 2.004-3.456 2.004-0.736 0-1.425-0.199-2.016-0.547l0.019 0.010M3.6 21.2c1.507-0.867 3.347-0.64 4.6 0.427l3.267-1.88c0.213 0.92 0.68 1.693 1.333 2.307l-3.267 1.88c0.307 1.627-0.427 3.333-1.933 4.2-1.92 1.107-4.36 0.453-5.467-1.467-0.337-0.574-0.537-1.264-0.537-2.001 0-1.474 0.797-2.762 1.985-3.455l0.019-0.010M18.667 18.667c0 1.473-1.194 2.667-2.667 2.667v0c-1.473 0-2.667-1.194-2.667-2.667v0c0-1.473 1.194-2.667 2.667-2.667v0c1.473 0 2.667 1.194 2.667 2.667v0M22.667 18.667l-0.040 0.76-1.96-1.147c-0.133-1.427-0.893-2.667-2-3.453v-2.28c2.36 1.040 4 3.387 4 6.12M19.96 24.040c-1.107 0.813-2.48 1.293-3.96 1.293s-2.853-0.48-3.96-1.333l1.96-1.107c0.613 0.28 1.293 0.44 2 0.44s1.373-0.16 2-0.44l1.96 1.147M9.373 19.413l-0.040-0.747c0-2.733 1.64-5.080 4-6.107v2.28c-1.107 0.773-1.867 2.013-2 3.427l-1.96 1.147z"></path>
</svg>
