<!-- Generated by IcoMoon.io -->
<svg version="1.1" xmlns="http://www.w3.org/2000/svg" width="32" height="32" viewBox="0 0 32 32">
<title>church</title>
<path d="M14.667 2.667h2.667v2.667h2.667v2.667h-2.667v4.533l12 4.8v2.667l-2.667-1.067v10.4h-8v-6.667c0-1.473-1.194-2.667-2.667-2.667v0c-1.473 0-2.667 1.194-2.667 2.667v0 6.667h-8v-10.4l-2.667 1.067v-2.667l12-4.8v-4.533h-2.667v-2.667h2.667v-2.667M8 26.667h2.667v-6.667l-1.333-1.333-1.333 1.333v6.667M21.333 26.667h2.667v-6.667l-1.333-1.333-1.333 1.333v6.667z"></path>
</svg>
