<!-- Generated by IcoMoon.io -->
<svg version="1.1" xmlns="http://www.w3.org/2000/svg" width="32" height="32" viewBox="0 0 32 32">
<title>cisco-webex</title>
<path d="M16 4c6.627 0 12 5.373 12 12v0c0 6.627-5.373 12-12 12v0c-6.627 0-12-5.373-12-12v0c0-6.627 5.373-12 12-12v0M7.92 11.333c-0.789 1.339-1.256 2.951-1.256 4.672 0 3.435 1.859 6.435 4.625 8.051l0.044 0.024c4.467 2.587 13.8-13.587 9.333-16.16-1.339-0.789-2.951-1.256-4.672-1.256-3.435 0-6.435 1.859-8.051 4.625l-0.024 0.044z"></path>
</svg>
