<!-- Generated by IcoMoon.io -->
<svg version="1.1" xmlns="http://www.w3.org/2000/svg" width="32" height="32" viewBox="0 0 32 32">
<title>clippy</title>
<path d="M20 20.667c0 1.841-1.492 3.333-3.333 3.333v0c-1.841 0-3.333-1.492-3.333-3.333v0-2.333c0-0.552 0.448-1 1-1v0c0.552 0 1 0.448 1 1v0 2.333c0 0.736 0.597 1.333 1.333 1.333v0c0.736 0 1.333-0.597 1.333-1.333v0-4.813c-1.16-0.373-2-1.36-2-2.52 0-1.467 1.333-2.667 3-2.667s3 1.2 3 2.667c0 1.16-0.84 2.147-2 2.52v4.813M11 10.667c1.667 0 3 1.2 3 2.667 0 1.16-0.84 2.147-2 2.52v7.147c0 2.393 1.94 4.333 4.333 4.333v0c2.393 0 4.333-1.94 4.333-4.333v0-4.667c0-0.552 0.448-1 1-1v0c0.552 0 1 0.448 1 1v0 4.667c0 3.498-2.836 6.333-6.333 6.333v0c-3.498 0-6.333-2.836-6.333-6.333v0-7.147c-1.16-0.373-2-1.36-2-2.52 0-1.467 1.333-2.667 3-2.667M13.413 8.173l-0.573 1.947c-0.547-0.293-1.173-0.453-1.84-0.453-1.213 0-2.293 0.533-2.96 1.36l-1.6-1.2c0.84-1.067 2.107-1.827 3.56-2.080v-0.080c0-2.761 2.239-5 5-5v0c2.761 0 5 2.239 5 5v0 0.080c1.453 0.253 2.72 1.013 3.56 2.080l-1.6 1.2c-0.667-0.827-1.747-1.36-2.96-1.36-0.667 0-1.293 0.16-1.84 0.453l-0.573-1.947c0.44-0.173 0.92-0.347 1.413-0.427v-0.080c0-1.667-1.333-3-3-3s-3 1.333-3 3v0.080c0.493 0.080 0.973 0.253 1.413 0.427M19 12.333c-0.733 0-1.333 0.453-1.333 1s0.6 1 1.333 1 1.333-0.453 1.333-1-0.6-1-1.333-1M11 12.333c-0.733 0-1.333 0.453-1.333 1s0.6 1 1.333 1 1.333-0.453 1.333-1-0.6-1-1.333-1z"></path>
</svg>
