<!-- Generated by IcoMoon.io -->
<svg version="1.1" xmlns="http://www.w3.org/2000/svg" width="32" height="32" viewBox="0 0 32 32">
<title>clock-out</title>
<path d="M24 1.333l2.4 2.387-5.347 5.333 1.893 1.893 5.333-5.333 2.387 2.387v-6.667M16 10.667c-5.147 0-9.333 4.173-9.333 9.333 0 5.155 4.179 9.333 9.333 9.333v0c5.147 0 9.333-4.173 9.333-9.333 0-5.155-4.179-9.333-9.333-9.333v0M16 13.533c3.56 0 6.467 2.893 6.467 6.467 0 3.571-2.895 6.467-6.467 6.467v0c-3.573 0-6.467-2.893-6.467-6.467 0-3.571 2.895-6.467 6.467-6.467v0M14.667 16v4.92l4.253 2.453 1-1.733-3.253-1.88v-3.76"></path>
</svg>
