<!-- Generated by IcoMoon.io -->
<svg version="1.1" xmlns="http://www.w3.org/2000/svg" width="32" height="32" viewBox="0 0 32 32">
<title>clock</title>
<path d="M16 26.667c5.891 0 10.667-4.776 10.667-10.667v0c0-5.891-4.776-10.667-10.667-10.667v0c-5.891 0-10.667 4.776-10.667 10.667v0c0 5.891 4.776 10.667 10.667 10.667v0M16 2.667c7.364 0 13.333 5.97 13.333 13.333v0c0 7.364-5.97 13.333-13.333 13.333v0c-7.373 0-13.333-6-13.333-13.333 0-7.364 5.97-13.333 13.333-13.333v0M16.667 9.333v7l6 3.56-1 1.64-7-4.2v-8h2z"></path>
</svg>
