<!-- Generated by IcoMoon.io -->
<svg version="1.1" xmlns="http://www.w3.org/2000/svg" width="32" height="32" viewBox="0 0 32 32">
<title>close-box-outline</title>
<path d="M25.333 4h-18.667c-1.473 0-2.667 1.194-2.667 2.667v0 18.667c0 1.473 1.194 2.667 2.667 2.667v0h18.667c1.473 0 2.667-1.194 2.667-2.667v0-18.667c0-1.473-1.194-2.667-2.667-2.667v0M25.333 25.333h-18.667v-18.667h18.667v18.667M22.667 11.2l-4.8 4.8 4.8 4.8-1.867 1.867-4.8-4.8-4.8 4.8-1.867-1.867 4.8-4.8-4.8-4.8 1.867-1.867 4.8 4.8 4.8-4.8 1.867 1.867z"></path>
</svg>
