<!-- Generated by IcoMoon.io -->
<svg version="1.1" xmlns="http://www.w3.org/2000/svg" width="32" height="32" viewBox="0 0 32 32">
<title>cloud-sync</title>
<path d="M16 5.333c0.001 0 0.001 0 0.002 0 4.831 0 8.861 3.431 9.787 7.989l0.011 0.064c3.467 0.24 6.2 3.093 6.2 6.613 0 3.682-2.985 6.667-6.667 6.667v0h-17.333c-4.418 0-8-3.582-8-8v0c0-4.12 3.12-7.52 7.133-7.947 1.701-3.225 5.032-5.386 8.867-5.387h0M10 12.92c-1.92 2.413-1.733 5.827 0.427 7.987 1.12 1.093 2.653 1.76 4.24 1.76v2.48l3.773-3.76-3.773-3.773v2.387c-0.88 0-1.733-0.347-2.36-0.973-1.12-1.12-1.293-2.88-0.413-4.2l-1.893-1.907M12.227 11.96l1.933 1.933 1.84 1.827v-2.387c0.88 0 1.733 0.347 2.36 0.973 1.12 1.12 1.293 2.88 0.413 4.2l1.893 1.907c1.92-2.413 1.733-5.827-0.427-7.987-1.12-1.093-2.653-1.76-4.24-1.76v-2.48l-3.773 3.773z"></path>
</svg>
