<!-- Generated by IcoMoon.io -->
<svg version="1.1" xmlns="http://www.w3.org/2000/svg" width="32" height="32" viewBox="0 0 32 32">
<title>cloud-circle</title>
<path d="M22 21.333h-11.333c-2.209 0-4-1.791-4-4v0c0-2.209 1.791-4 4-4v0h0.187c0.587-2.293 2.653-4 5.147-4 2.946 0 5.333 2.388 5.333 5.333v0h0.667c1.841 0 3.333 1.492 3.333 3.333v0c0 1.841-1.492 3.333-3.333 3.333v0M16 2.667c-7.364 0-13.333 5.97-13.333 13.333v0c0 7.364 5.97 13.333 13.333 13.333v0c7.364 0 13.333-5.97 13.333-13.333v0c0-7.364-5.97-13.333-13.333-13.333v0z"></path>
</svg>
