<!-- Generated by IcoMoon.io -->
<svg version="1.1" xmlns="http://www.w3.org/2000/svg" width="32" height="32" viewBox="0 0 32 32">
<title>cloud-outline-off</title>
<path d="M10.307 13.333l10.667 10.667h-12.973c-2.946 0-5.333-2.388-5.333-5.333v0c0-2.946 2.388-5.333 5.333-5.333v0M4 7.027l3.667 3.64c-4.253 0.2-7.667 3.693-7.667 8 0 4.418 3.582 8 8 8v0h15.64l2.667 2.667 1.693-1.693-22.307-22.307M25.8 13.373c-0.942-4.616-4.968-8.040-9.795-8.040-0.002 0-0.003 0-0.005 0h0c-2 0-3.8 0.573-5.333 1.56l1.933 1.947c1.013-0.533 2.173-0.84 3.4-0.84 4.050 0 7.333 3.283 7.333 7.333v0 0.667h2c2.209 0 4 1.791 4 4v0c0 1.507-0.853 2.813-2.080 3.493l1.933 1.933c1.693-1.213 2.813-3.187 2.813-5.427 0-3.52-2.733-6.373-6.2-6.627z"></path>
</svg>
