<!-- Generated by IcoMoon.io -->
<svg version="1.1" xmlns="http://www.w3.org/2000/svg" width="32" height="32" viewBox="0 0 32 32">
<title>cloud-print</title>
<path d="M16 2.667c-3.853 0-7.2 2.187-8.867 5.387-4.029 0.448-7.133 3.834-7.133 7.946 0 0 0 0.001 0 0.001v-0c0 4.418 3.582 8 8 8v0 5.333h16v-5.333h1.333c3.682 0 6.667-2.985 6.667-6.667v0c0-3.52-2.733-6.373-6.2-6.613-0.936-4.622-4.966-8.053-9.798-8.053-0.001 0-0.002 0-0.002 0h0M10.667 17.333h10.667v9.333h-10.667v-9.333M12 18.667v1.333h8v-1.333h-8M12 21.333v1.333h8v-1.333h-8M12 24v1.333h8v-1.333h-8z"></path>
</svg>
