<!-- Generated by IcoMoon.io -->
<svg version="1.1" xmlns="http://www.w3.org/2000/svg" width="32" height="32" viewBox="0 0 32 32">
<title>code-string</title>
<path d="M4 6.667c0-1.473 1.194-2.667 2.667-2.667v0h18.667c1.473 0 2.667 1.194 2.667 2.667v0 18.667c0 1.473-1.194 2.667-2.667 2.667v0h-18.667c-1.473 0-2.667-1.194-2.667-2.667v0-18.667M16.667 14.667h-1.333c-1.105 0-2-0.895-2-2v0c0-1.105 0.895-2 2-2v0h1.333c1.105 0 2 0.895 2 2v0h2.667c0-2.577-2.089-4.667-4.667-4.667h-1.333c-2.577 0-4.667 2.089-4.667 4.667v0c0 2.577 2.089 4.667 4.667 4.667h1.333c1.105 0 2 0.895 2 2v0c0 1.105-0.895 2-2 2v0h-1.333c-1.105 0-2-0.895-2-2v0h-2.667c0 2.577 2.089 4.667 4.667 4.667h1.333c2.577 0 4.667-2.089 4.667-4.667v0c0-2.577-2.089-4.667-4.667-4.667v0z"></path>
</svg>
