<!-- Generated by IcoMoon.io -->
<svg version="1.1" xmlns="http://www.w3.org/2000/svg" width="32" height="32" viewBox="0 0 32 32">
<title>comment-plus-outline</title>
<path d="M12 29.333c-0.736 0-1.333-0.597-1.333-1.333v0-4h-5.333c-1.473 0-2.667-1.194-2.667-2.667v0-16c0-1.473 1.194-2.667 2.667-2.667h21.333c1.473 0 2.667 1.194 2.667 2.667v0 16c0 1.473-1.194 2.667-2.667 2.667h-8.133l-4.933 4.947c-0.267 0.253-0.6 0.387-0.933 0.387h-0.667M13.333 21.333v4.107l4.107-4.107h9.227v-16h-21.333v16h8M14.667 8h2.667v4h4v2.667h-4v4h-2.667v-4h-4v-2.667h4v-4z"></path>
</svg>
