<!-- Generated by IcoMoon.io -->
<svg version="1.1" xmlns="http://www.w3.org/2000/svg" width="32" height="32" viewBox="0 0 32 32">
<title>comment-multiple-outline</title>
<path d="M16 30.667c-0.736 0-1.333-0.597-1.333-1.333v0-4h-5.333c-1.473 0-2.667-1.194-2.667-2.667v-13.333c0-1.473 1.194-2.667 2.667-2.667h18.667c1.473 0 2.667 1.194 2.667 2.667v13.333c0 1.473-1.194 2.667-2.667 2.667v0h-5.467l-4.933 4.947c-0.267 0.253-0.6 0.387-0.933 0.387h-0.667M17.333 22.667v4.107l4.107-4.107h6.56v-13.333h-18.667v13.333h8M4 20h-2.667v-16c0-1.473 1.194-2.667 2.667-2.667h21.333v2.667h-21.333v16z"></path>
</svg>
