<!-- Generated by IcoMoon.io -->
<svg version="1.1" xmlns="http://www.w3.org/2000/svg" width="32" height="32" viewBox="0 0 32 32">
<title>comment-question-outline</title>
<path d="M5.333 2.667c-1.473 0-2.667 1.194-2.667 2.667v16c0 1.473 1.194 2.667 2.667 2.667h5.333v4c0 0.736 0.597 1.333 1.333 1.333v0h0.667c0.333 0 0.667-0.133 0.933-0.387l4.933-4.947h8.133c1.473 0 2.667-1.194 2.667-2.667v0-16c0-1.473-1.194-2.667-2.667-2.667h-21.333M5.333 5.333h21.333v16h-9.227l-4.107 4.107v-4.107h-8v-16M16.253 7.333c-1.187 0-2.133 0.24-2.853 0.72-0.733 0.48-1.107 1.28-1.040 2.2h2.627c0-0.373 0.133-0.653 0.347-0.84 0.267-0.187 0.56-0.28 0.92-0.28 0.413 0 0.773 0.107 1.013 0.347 0.24 0.227 0.36 0.52 0.36 0.92 0 0.373-0.107 0.707-0.293 0.987-0.227 0.293-0.507 0.533-0.853 0.72-0.693 0.427-1.147 0.8-1.427 1.12-0.253 0.32-0.387 0.773-0.387 1.44h2.667c0-0.373 0.067-0.667 0.187-0.907 0.12-0.227 0.347-0.427 0.693-0.627 0.613-0.28 1.12-0.653 1.507-1.133 0.387-0.493 0.587-1.013 0.587-1.6 0-0.933-0.36-1.68-1.080-2.24-0.72-0.547-1.72-0.827-2.973-0.827M14.667 16v2.667h2.667v-2.667h-2.667z"></path>
</svg>
