<!-- Generated by IcoMoon.io -->
<svg version="1.1" xmlns="http://www.w3.org/2000/svg" width="32" height="32" viewBox="0 0 32 32">
<title>comment-account</title>
<path d="M12 29.333c-0.736 0-1.333-0.597-1.333-1.333v0-4h-5.333c-1.473 0-2.667-1.194-2.667-2.667v0-16c0-1.473 1.194-2.667 2.667-2.667h21.333c1.473 0 2.667 1.194 2.667 2.667v0 16c0 1.473-1.194 2.667-2.667 2.667h-8.133l-4.933 4.947c-0.267 0.253-0.6 0.387-0.933 0.387h-0.667M21.333 18.667v-1.333c0-1.773-3.56-2.667-5.333-2.667s-5.333 0.893-5.333 2.667v1.333h10.667M16 8c-1.473 0-2.667 1.194-2.667 2.667v0c0 1.473 1.194 2.667 2.667 2.667v0c1.473 0 2.667-1.194 2.667-2.667v0c0-1.473-1.194-2.667-2.667-2.667v0z"></path>
</svg>
