<!-- Generated by IcoMoon.io -->
<svg version="1.1" xmlns="http://www.w3.org/2000/svg" width="32" height="32" viewBox="0 0 32 32">
<title>content-duplicate</title>
<path d="M14.667 22.667h-9.333c-1.473 0-2.667-1.194-2.667-2.667v0-16c0-1.473 1.194-2.667 2.667-2.667h16v2.667h-16v16h9.333v-2.667l5.333 4-5.333 4v-2.667M25.333 28v-18.667h-14.667v8h-2.667v-8c0-1.473 1.194-2.667 2.667-2.667h14.667c1.473 0 2.667 1.194 2.667 2.667v18.667c0 1.473-1.194 2.667-2.667 2.667v0h-14.667c-1.473 0-2.667-1.194-2.667-2.667v0-2.667h2.667v2.667h14.667z"></path>
</svg>
