<!-- Generated by IcoMoon.io -->
<svg version="1.1" xmlns="http://www.w3.org/2000/svg" width="32" height="32" viewBox="0 0 32 32">
<title>copyright</title>
<path d="M13.44 14.48c0.067-0.44 0.213-0.827 0.4-1.147 0.16-0.347 0.453-0.627 0.787-0.84 0.32-0.2 0.707-0.293 1.213-0.307 0.307 0.013 0.587 0.067 0.827 0.173 0.28 0.12 0.52 0.307 0.707 0.48 0.187 0.2 0.333 0.44 0.453 0.707s0.173 0.56 0.173 0.853h2.4c-0.027-0.627-0.147-1.2-0.4-1.733-0.2-0.507-0.507-0.96-0.907-1.333-0.427-0.373-0.88-0.667-1.44-0.88s-1.173-0.307-1.853-0.307c-0.867 0-1.627 0.147-2.267 0.453s-1.173 0.733-1.6 1.227c-0.427 0.52-0.747 1.12-0.947 1.813s-0.32 1.413-0.32 2.187v0.36c0 0.773 0.107 1.493 0.307 2.187s0.52 1.293 0.947 1.8c0.427 0.493 0.96 0.92 1.6 1.213s1.4 0.453 2.267 0.453c0.627 0 1.213-0.107 1.76-0.307s1.027-0.48 1.44-0.867c0.413-0.333 0.747-0.747 1.013-1.227 0.213-0.48 0.36-0.987 0.373-1.533h-2.373c0 0.28-0.093 0.533-0.213 0.76-0.12 0.253-0.28 0.453-0.453 0.627-0.227 0.173-0.453 0.307-0.72 0.4-0.253 0.093-0.52 0.12-0.8 0.133-0.48-0.013-0.88-0.107-1.187-0.307-0.345-0.197-0.617-0.489-0.782-0.842l-0.005-0.012c-0.197-0.33-0.337-0.717-0.398-1.13l-0.002-0.017c-0.065-0.399-0.104-0.861-0.107-1.331v-0.363c0-0.493 0.040-0.907 0.107-1.347M16 2.667c-7.364 0-13.333 5.97-13.333 13.333v0c0 7.364 5.97 13.333 13.333 13.333v0c7.364 0 13.333-5.97 13.333-13.333v0c0-7.364-5.97-13.333-13.333-13.333v0M16 26.667c-5.88 0-10.667-4.787-10.667-10.667s4.787-10.667 10.667-10.667 10.667 4.787 10.667 10.667-4.787 10.667-10.667 10.667z"></path>
</svg>
