<!-- Generated by IcoMoon.io -->
<svg version="1.1" xmlns="http://www.w3.org/2000/svg" width="32" height="32" viewBox="0 0 32 32">
<title>cow</title>
<path d="M14 24c0.368 0 0.667 0.298 0.667 0.667v0c0 0.368-0.298 0.667-0.667 0.667v0c-0.368 0-0.667-0.298-0.667-0.667v0c0-0.368 0.298-0.667 0.667-0.667v0M18 24c0.368 0 0.667 0.298 0.667 0.667v0c0 0.368-0.298 0.667-0.667 0.667v0c-0.368 0-0.667-0.298-0.667-0.667v0c0-0.368 0.298-0.667 0.667-0.667v0M13.333 14.667c0.736 0 1.333 0.597 1.333 1.333v0c0 0.736-0.597 1.333-1.333 1.333v0c-0.736 0-1.333-0.597-1.333-1.333v0c0-0.736 0.597-1.333 1.333-1.333v0M18.667 14.667c0.736 0 1.333 0.597 1.333 1.333v0c0 0.736-0.597 1.333-1.333 1.333v0c-0.736 0-1.333-0.597-1.333-1.333v0c0-0.736 0.597-1.333 1.333-1.333v0M24 24c0 2.947-3.587 5.333-8 5.333s-8-2.387-8-5.333c0-1.2 0.6-2.307 1.6-3.2-1-1.333-1.6-3-1.6-4.8l0.16-1.627c-0.72 0.2-1.587 0.2-2.293 0-1.36-0.373-3.413-1.907-3.107-2.973s2.853-1.267 4.213-0.867c0.787 0.227 1.627 0.8 2.12 1.413l0.76-1.080c-0.8-1.467-0.52-5.533 3.48-6.867l-0.12 0.187c-0.373 0.587-1.333 2.44-0.32 4.44 0.917-0.396 1.985-0.626 3.107-0.626s2.189 0.23 3.159 0.646l-0.052-0.020c1.013-2 0.053-3.853-0.32-4.44l-0.12-0.187c4 1.333 4.28 5.4 3.48 6.867l0.76 1.080c0.493-0.613 1.333-1.187 2.12-1.413 1.36-0.4 3.907-0.2 4.213 0.867s-1.747 2.6-3.107 2.973c-0.707 0.2-1.573 0.2-2.293 0l0.16 1.627c0 1.8-0.6 3.467-1.6 4.8 1 0.893 1.6 2 1.6 3.2M16 21.333c-2.947 0-5.333 1.2-5.333 2.667s2.387 2.667 5.333 2.667 5.333-1.2 5.333-2.667-2.387-2.667-5.333-2.667M16 18.667c1.493 0 2.893 0.28 4.093 0.747 0.773-0.92 1.24-2.080 1.24-3.413 0-2.946-2.388-5.333-5.333-5.333v0c-2.946 0-5.333 2.388-5.333 5.333v0c0 1.333 0.467 2.493 1.24 3.413 1.2-0.467 2.6-0.747 4.093-0.747"></path>
</svg>
