<!-- Generated by IcoMoon.io -->
<svg version="1.1" xmlns="http://www.w3.org/2000/svg" width="32" height="32" viewBox="0 0 32 32">
<title>credit-card-multiple</title>
<path d="M28 10.667v-2.667h-18.667v2.667h18.667M28 21.333v-6.667h-18.667v6.667h18.667M28 5.333c1.473 0 2.667 1.194 2.667 2.667v0 13.333c0 1.473-1.194 2.667-2.667 2.667v0h-18.667c-1.473 0-2.667-1.194-2.667-2.667v0-13.333c0-1.48 1.187-2.667 2.667-2.667h18.667M4 26.667h20v2.667h-20c-1.473 0-2.667-1.194-2.667-2.667v-14.667h2.667v14.667z"></path>
</svg>
