<!-- Generated by IcoMoon.io -->
<svg version="1.1" xmlns="http://www.w3.org/2000/svg" width="32" height="32" viewBox="0 0 32 32">
<title>credit-card-off</title>
<path d="M1.24 5.6l1.707-1.693 23.72 23.72-1.693 1.707-2.667-2.667h-16.973c-1.473 0-2.667-1.194-2.667-2.667v0-16c0-0.293 0.053-0.573 0.147-0.827l-1.573-1.573M26.667 10.667v-2.667h-16.24l-2.667-2.667h18.907c1.473 0 2.667 1.194 2.667 2.667v0 16c0 0.8-0.347 1.507-0.907 2l-2-2h0.24v-8h-8.24l-5.333-5.333h13.573M5.333 10.667h0.973l-0.973-0.973v0.973M5.333 16v8h14.307l-8-8h-6.307z"></path>
</svg>
