<!-- Generated by IcoMoon.io -->
<svg version="1.1" xmlns="http://www.w3.org/2000/svg" width="32" height="32" viewBox="0 0 32 32">
<title>crop-rotate</title>
<path d="M9.96 28.667c-4.36-2.093-7.48-6.32-7.96-11.333h-2c0.667 8.213 7.547 14.667 15.933 14.667 0.307 0 0.587 0 0.88-0.040l-5.080-5.093-1.773 1.8M16.067 0c-0.307 0-0.587 0-0.88 0.053l5.080 5.080 1.773-1.8c4.36 2.093 7.48 6.32 7.96 11.333h2c-0.667-8.213-7.547-14.667-15.933-14.667M21.333 18.667h2.667v-8c0-1.473-1.194-2.667-2.667-2.667v0h-8v2.667h8v8M10.667 21.333v-16h-2.667v2.667h-2.667v2.667h2.667v10.667c0 1.473 1.194 2.667 2.667 2.667h10.667v2.667h2.667v-2.667h2.667v-2.667h-16z"></path>
</svg>
