<!-- Generated by IcoMoon.io -->
<svg version="1.1" xmlns="http://www.w3.org/2000/svg" width="32" height="32" viewBox="0 0 32 32">
<title>currency-ngn</title>
<path d="M5.333 12h2.667v-8h2.667l4.56 8h6.107v-8h2.667v8h2.667v2.667h-2.667v2.667h2.667v2.667h-2.667v8h-2.667l-4.573-8h-6.093v8h-2.667v-8h-2.667v-2.667h2.667v-2.667h-2.667v-2.667M10.667 12h1.507l-1.507-2.627v2.627M10.667 14.667v2.667h4.56l-1.52-2.667h-3.040M21.333 22.667v-2.667h-1.533l1.533 2.667M16.747 14.667l1.533 2.667h3.053v-2.667h-4.587z"></path>
</svg>
