<!-- Generated by IcoMoon.io -->
<svg version="1.1" xmlns="http://www.w3.org/2000/svg" width="32" height="32" viewBox="0 0 32 32">
<title>currency-btc</title>
<path d="M6 6.667h4.667v-4h2.667v4h2v-4h2.667v4c7.333 0 7.333 8 3.333 8.333 5.333-0.333 6.667 10.333-3.333 10.333v4h-2.667v-4h-2v4h-2.667v-4h-4.667l0.667-2.667h1.333c0.736 0 1.333-0.597 1.333-1.333v0-10.667c0-0.736-0.597-1.333-1.333-1.333v0h-2v-2.667M13.333 9.333v5.333s6 0.333 6-2.667-6-2.667-6-2.667M13.333 16.667v6s7.333 0 7.333-3-7.333-3-7.333-3z"></path>
</svg>
