<!-- Generated by IcoMoon.io -->
<svg version="1.1" xmlns="http://www.w3.org/2000/svg" width="32" height="32" viewBox="0 0 32 32">
<title>database-minus</title>
<path d="M12 4c-5.893 0-10.667 2.387-10.667 5.333s4.773 5.333 10.667 5.333 10.667-2.387 10.667-5.333-4.773-5.333-10.667-5.333M1.333 12v4c0 2.947 4.773 5.333 10.667 5.333s10.667-2.387 10.667-5.333v-4c0 2.947-4.773 5.333-10.667 5.333s-10.667-2.387-10.667-5.333M1.333 18.667v4c0 2.947 4.773 5.333 10.667 5.333 1.88 0 3.72-0.253 5.333-0.72v-4c-1.613 0.467-3.453 0.72-5.333 0.72-5.893 0-10.667-2.387-10.667-5.333M20 22.667v2.667h10.667v-2.667"></path>
</svg>
