<!-- Generated by IcoMoon.io -->
<svg version="1.1" xmlns="http://www.w3.org/2000/svg" width="32" height="32" viewBox="0 0 32 32">
<title>debug-step-over</title>
<path d="M16 18.667c1.473 0 2.667 1.194 2.667 2.667v0c0 1.473-1.194 2.667-2.667 2.667v0c-1.473 0-2.667-1.194-2.667-2.667v0c0-1.473 1.194-2.667 2.667-2.667v0M31.28 11.813l-2.12 9.187-9.16-2.12 5.067-3.173c-1.905-3.045-5.24-5.040-9.041-5.040-0.009 0-0.018 0-0.027 0h0.001c-5.267 0-9.64 3.813-10.507 8.84l-2.627-0.467c1.080-6.267 6.547-11.040 13.133-11.040 4.773 0 8.973 2.52 11.333 6.293l3.947-2.48z"></path>
</svg>
