<!-- Generated by IcoMoon.io -->
<svg version="1.1" xmlns="http://www.w3.org/2000/svg" width="32" height="32" viewBox="0 0 32 32">
<title>deskphone</title>
<path d="M6.667 4h18.667c1.473 0 2.667 1.194 2.667 2.667v0 18.667c0 1.473-1.194 2.667-2.667 2.667v0h-18.667c-1.473 0-2.667-1.194-2.667-2.667v0-18.667c0-1.473 1.194-2.667 2.667-2.667v0M20 6.667v18.667h5.333v-18.667h-5.333M6.667 6.667v5.333h10.667v-5.333h-10.667M6.667 14.667v2.667h2.667v-2.667h-2.667M10.667 14.667v2.667h2.667v-2.667h-2.667M14.667 14.667v2.667h2.667v-2.667h-2.667M6.667 18.667v2.667h2.667v-2.667h-2.667M10.667 18.667v2.667h2.667v-2.667h-2.667M14.667 18.667v2.667h2.667v-2.667h-2.667M14.667 22.667v2.667h2.667v-2.667h-2.667M10.667 22.667v2.667h2.667v-2.667h-2.667M6.667 22.667v2.667h2.667v-2.667h-2.667z"></path>
</svg>
