<!-- Generated by IcoMoon.io -->
<svg version="1.1" xmlns="http://www.w3.org/2000/svg" width="32" height="32" viewBox="0 0 32 32">
<title>dice-d3</title>
<path d="M28 22c0 0.507-0.28 0.947-0.707 1.173l-10.533 5.92c-0.213 0.16-0.48 0.24-0.76 0.24s-0.547-0.080-0.76-0.24l-10.533-5.92c-0.423-0.226-0.707-0.665-0.707-1.17 0-0.001 0-0.003 0-0.004v0-12c0-0.507 0.28-0.947 0.707-1.173l10.533-5.92c0.213-0.16 0.48-0.24 0.76-0.24s0.547 0.080 0.76 0.24l10.533 5.92c0.427 0.227 0.707 0.667 0.707 1.173v12M16 5.533l-9.333 5.253v10.427l9.333 5.253 9.333-5.253v-10.427l-9.333-5.253M19.907 11.027c1.893 0 3.427 1.534 3.427 3.427v0 3.547c0 1.867-1.533 3.4-3.427 3.4-1.907 0-3.427-1.533-3.427-3.4v-3.547c0-1.893 1.534-3.427 3.427-3.427v0M19.893 12.947c-0.773 0-1.413 0.627-1.413 1.413v3.68c0 0.787 0.64 1.427 1.413 1.427s1.44-0.64 1.44-1.427v-3.68c0-0.787-0.667-1.413-1.44-1.413M15.267 19.68v1.6l-6.853-0.040v-1.36s4.573-4.44 4.587-5.787c0-1.653-1.36-1.48-1.36-1.48s-1.307 0.053-1.453 1.667l-2 0.067s0.053-3.333 3.587-3.333c3.16 0 3.2 2.373 3.2 2.987 0 2.24-4.107 5.693-4.107 5.693l4.4-0.013z"></path>
</svg>
