<!-- Generated by IcoMoon.io -->
<svg version="1.1" xmlns="http://www.w3.org/2000/svg" width="32" height="32" viewBox="0 0 32 32">
<title>dice-d</title>
<path d="M17.907 20.2h1.147v1.613h-1.147v2.187h-2.013v-2.187h-4.133l-0.093-1.267 4.213-6.653h2.027v6.307M13.667 20.2h2.227v-3.573l-2.227 3.573M29.333 28h-26.667c-0.48 0-0.92-0.253-1.16-0.667-0.108-0.185-0.172-0.407-0.172-0.645 0-0.255 0.074-0.494 0.202-0.694l-0.003 0.005 13.333-22c0.467-0.827 1.8-0.827 2.28 0l13.333 22c0.117 0.193 0.186 0.427 0.186 0.676 0 0.731-0.593 1.324-1.324 1.324-0.003 0-0.006 0-0.009-0h0M5.040 25.333h21.933l-10.973-18.093-10.96 18.093z"></path>
</svg>
