<!-- Generated by IcoMoon.io -->
<svg version="1.1" xmlns="http://www.w3.org/2000/svg" width="32" height="32" viewBox="0 0 32 32">
<title>discord</title>
<path d="M29.333 32l-7-6.667 0.84 2.667h-17.173c-1.841 0-3.333-1.492-3.333-3.333v0-20c0-1.841 1.492-3.333 3.333-3.333v0h20c1.841 0 3.333 1.492 3.333 3.333v0 27.333M16 9.067c-3.573 0-6.080 1.533-6.080 1.533 1.373-1.227 3.773-1.933 3.773-1.933l-0.227-0.227c-2.253 0.040-4.293 1.6-4.293 1.6-2.293 4.787-2.147 8.92-2.147 8.92 1.867 2.413 4.64 2.24 4.64 2.24l0.947-1.2c-1.667-0.36-2.72-1.84-2.72-1.84s2.507 1.707 6.107 1.707 6.107-1.707 6.107-1.707-1.053 1.48-2.72 1.84l0.947 1.2s2.773 0.173 4.64-2.24c0 0 0.147-4.133-2.147-8.92 0 0-2.040-1.56-4.293-1.6l-0.227 0.227s2.4 0.707 3.773 1.933c0 0-2.507-1.533-6.080-1.533M13.24 14.12c0.867 0 1.573 0.76 1.56 1.693 0 0.92-0.693 1.693-1.56 1.693-0.853 0-1.547-0.773-1.547-1.693 0-0.933 0.68-1.693 1.547-1.693M18.8 14.12c0.867 0 1.56 0.76 1.56 1.693 0 0.92-0.693 1.693-1.56 1.693-0.853 0-1.547-0.773-1.547-1.693 0-0.933 0.68-1.693 1.547-1.693z"></path>
</svg>
