<!-- Generated by IcoMoon.io -->
<svg version="1.1" xmlns="http://www.w3.org/2000/svg" width="32" height="32" viewBox="0 0 32 32">
<title>do-not-disturb-off</title>
<path d="M22.667 14.667v2.667h-1.947l6.24 6.24c1.485-2.109 2.373-4.73 2.373-7.56 0-0.005 0-0.010 0-0.014v0.001c0-7.364-5.97-13.333-13.333-13.333v0c-2.813 0-5.427 0.88-7.573 2.373l9.627 9.627h4.613M3.027 3.027l-1.693 1.693 3.707 3.707c-1.485 2.109-2.373 4.73-2.373 7.56 0 0.005 0 0.010 0 0.014v-0.001c0 7.364 5.97 13.333 13.333 13.333v0c2.813 0 5.427-0.88 7.573-2.373l3.707 3.707 1.693-1.693-25.947-25.947M9.333 17.333v-2.667h1.947l2.667 2.667h-4.613z"></path>
</svg>
