<!-- Generated by IcoMoon.io -->
<svg version="1.1" xmlns="http://www.w3.org/2000/svg" width="32" height="32" viewBox="0 0 32 32">
<title>drag-horizontal</title>
<path d="M4 20v-2.667h2.667v2.667h-2.667M4 14.667v-2.667h2.667v2.667h-2.667M9.333 20v-2.667h2.667v2.667h-2.667M9.333 14.667v-2.667h2.667v2.667h-2.667M14.667 20v-2.667h2.667v2.667h-2.667M14.667 14.667v-2.667h2.667v2.667h-2.667M20 20v-2.667h2.667v2.667h-2.667M20 14.667v-2.667h2.667v2.667h-2.667M25.333 20v-2.667h2.667v2.667h-2.667M25.333 14.667v-2.667h2.667v2.667h-2.667z"></path>
</svg>
