<!-- Generated by IcoMoon.io -->
<svg version="1.1" xmlns="http://www.w3.org/2000/svg" width="32" height="32" viewBox="0 0 32 32">
<title>drag</title>
<path d="M9.333 25.333v-2.667h2.667v2.667h-2.667M14.667 25.333v-2.667h2.667v2.667h-2.667M20 25.333v-2.667h2.667v2.667h-2.667M9.333 20v-2.667h2.667v2.667h-2.667M14.667 20v-2.667h2.667v2.667h-2.667M20 20v-2.667h2.667v2.667h-2.667M9.333 14.667v-2.667h2.667v2.667h-2.667M14.667 14.667v-2.667h2.667v2.667h-2.667M20 14.667v-2.667h2.667v2.667h-2.667M9.333 9.333v-2.667h2.667v2.667h-2.667M14.667 9.333v-2.667h2.667v2.667h-2.667M20 9.333v-2.667h2.667v2.667h-2.667z"></path>
</svg>
