<!-- Generated by IcoMoon.io -->
<svg version="1.1" xmlns="http://www.w3.org/2000/svg" width="32" height="32" viewBox="0 0 32 32">
<title>drag-vertical</title>
<path d="M12 4h2.667v2.667h-2.667v-2.667M17.333 4h2.667v2.667h-2.667v-2.667M12 9.333h2.667v2.667h-2.667v-2.667M17.333 9.333h2.667v2.667h-2.667v-2.667M12 14.667h2.667v2.667h-2.667v-2.667M17.333 14.667h2.667v2.667h-2.667v-2.667M12 20h2.667v2.667h-2.667v-2.667M17.333 20h2.667v2.667h-2.667v-2.667M12 25.333h2.667v2.667h-2.667v-2.667M17.333 25.333h2.667v2.667h-2.667v-2.667z"></path>
</svg>
