<!-- Generated by IcoMoon.io -->
<svg version="1.1" xmlns="http://www.w3.org/2000/svg" width="32" height="32" viewBox="0 0 32 32">
<title>drawing-box</title>
<path d="M24 24h-8v-7.72c-0.88 0.813-2.040 1.32-3.333 1.32-2.72 0-4.933-2.213-4.933-4.933 0-2.725 2.209-4.933 4.933-4.933v0c2.72 0 4.933 2.213 4.933 4.933 0 1.293-0.507 2.453-1.32 3.333h7.72M25.333 4h-18.667c-1.48 0-2.667 1.187-2.667 2.667v18.667c0 1.473 1.194 2.667 2.667 2.667v0h18.667c1.473 0 2.667-1.194 2.667-2.667v0-18.667c0-1.473-1.194-2.667-2.667-2.667v0z"></path>
</svg>
