<!-- Generated by IcoMoon.io -->
<svg version="1.1" xmlns="http://www.w3.org/2000/svg" width="32" height="32" viewBox="0 0 32 32">
<title>dribbble</title>
<path d="M21.893 24.56c-0.638-2.9-1.29-5.245-2.048-7.542l0.155 0.542c0.667-0.093 1.333-0.147 2.107-0.147h0.027c1.24 0 2.6 0.16 4.080 0.493-0.529 2.776-2.102 5.112-4.286 6.631l-0.034 0.022M16 26.4c-2.32 0-4.453-0.76-6.187-2.053 0.373-0.6 1.16-1.76 2.427-2.96 1.28-1.24 3.093-2.52 5.4-3.28 0.787 2.227 1.507 4.76 2.053 7.613-1.147 0.44-2.36 0.68-3.693 0.68M5.6 16v-0.147c0.293 0.013 0.68 0.013 1.133 0.013h0.013c2.080-0.013 5.733-0.187 9.44-1.347 0.2 0.44 0.4 0.893 0.6 1.373-2.48 0.827-4.427 2.147-5.867 3.44-1.373 1.28-2.32 2.52-2.867 3.333-1.525-1.781-2.453-4.113-2.453-6.662 0-0.002 0-0.003 0-0.005v0M11.4 6.667c0.733 0.867 2.173 2.747 3.72 5.667-3.12 0.947-6.307 1.16-8.213 1.16h-0.173c-0.32 0-0.6 0-0.827-0.013 0.76-2.987 2.76-5.48 5.493-6.813M16 5.6c2.453 0 4.707 0.853 6.48 2.28-1.36 1.64-3.147 2.787-5.107 3.653-1.373-2.64-2.707-4.533-3.587-5.693 0.72-0.147 1.453-0.24 2.213-0.24M24.173 9.573c1.285 1.625 2.1 3.674 2.212 5.909l0.001 0.025c-1.276-0.29-2.743-0.46-4.249-0.467l-0.005-0h-0.013c-1.067 0-2.067 0.093-3.013 0.253-0.227-0.56-0.44-1.093-0.693-1.613 2.107-0.92 4.12-2.24 5.76-4.107M16 2.667c-7.364 0-13.333 5.97-13.333 13.333v0c0 7.364 5.97 13.333 13.333 13.333v0c7.364 0 13.333-5.97 13.333-13.333v0c0-7.364-5.97-13.333-13.333-13.333v0z"></path>
</svg>
