<!-- Generated by IcoMoon.io -->
<svg version="1.1" xmlns="http://www.w3.org/2000/svg" width="32" height="32" viewBox="0 0 32 32">
<title>drone</title>
<path d="M29.333 14.667h-1.333l-1.333-2.667h-8.333l3 4.667h-2.667l-4.333-4.667h-9c-0.733 0-2.667-0.6-2.667-1.333s2-3.333 4.667-3.333 2.893 1.333 4.667 2h16c0.736 0 1.333 0.597 1.333 1.333v0 4M14.333 8.667l4.333-4.667h2.667l-3 4.667h-4M24 14.667v-2h2.333l-1 2h-1.333M4 25.333c-0.736 0-1.333-0.597-1.333-1.333v0c0-0.736 0.597-1.333 1.333-1.333v0c2.946 0 5.333 2.388 5.333 5.333v0c0 0.736-0.597 1.333-1.333 1.333v0c-0.736 0-1.333-0.597-1.333-1.333v0c0-1.473-1.194-2.667-2.667-2.667v0M14.667 28c0 0.736-0.597 1.333-1.333 1.333v0c-0.736 0-1.333-0.597-1.333-1.333v0c0-4.418-3.582-8-8-8v0c-0.736 0-1.333-0.597-1.333-1.333v0c0-0.736 0.597-1.333 1.333-1.333v0c5.891 0 10.667 4.776 10.667 10.667v0z"></path>
</svg>
