<!-- Generated by IcoMoon.io -->
<svg version="1.1" xmlns="http://www.w3.org/2000/svg" width="32" height="32" viewBox="0 0 32 32">
<title>drupal</title>
<path d="M27.293 19.533c0 0.853-0.293 2.28-0.853 3.267-0.573 1-1 1.28-1.853 1.28-0.987-0.147-2.84-2.987-4.107-3.12-1.573 0-4.84 3.267-7.533 3.267-1.56 0-2.133-0.293-2.56-0.573-0.853-0.573-1.133-1.427-1.133-2.56 0-2.133 1.987-3.973 4.4-3.973 3.133 0 5.253 3.12 6.827 2.987 1.267 0 3.827-2.56 5.107-2.56 1.28-0.28 1.707 1.12 1.707 1.987M22.173 7.040c-1.413-0.853-2.693-1.28-4.12-2.133-0.84-0.573-1.987-1.84-2.973-2.987-0.413 1.853-0.707 2.56-1.427 3.133-1.413 0.987-2.133 1.413-3.4 1.987-1 0.56-6.253 3.693-6.253 10.507s5.827 11.787 12.067 11.787c6.4 0 11.933-4.667 11.933-11.64 0.28-6.96-4.973-10.093-5.827-10.653z"></path>
</svg>
