<!-- Generated by IcoMoon.io -->
<svg version="1.1" xmlns="http://www.w3.org/2000/svg" width="32" height="32" viewBox="0 0 32 32">
<title>dumbbell</title>
<path d="M5.627 18.827l-0.96-0.947c-0.476-0.483-0.77-1.147-0.77-1.88s0.294-1.397 0.77-1.88l-0 0c1.067-1.053 2.747-1.053 3.787 0l3.44 3.427 5.653-5.653-3.427-3.44c-1.053-1.040-1.053-2.72 0-3.787 0.483-0.476 1.147-0.77 1.88-0.77s1.397 0.294 1.88 0.77l-0-0 0.947 0.96 7.547 7.547 0.96 0.947c1.027 1.040 1.027 2.72 0 3.76-1.067 1.053-2.747 1.053-3.787 0l-3.44-3.427-5.653 5.653 3.427 3.44c1.053 1.040 1.053 2.72 0 3.787-1.040 1.027-2.72 1.027-3.76 0l-0.947-0.96-7.547-7.547M4.213 25.893l1.413-1.413-1.88-1.88c-0.241-0.241-0.389-0.573-0.389-0.94 0-0.734 0.595-1.329 1.329-1.329 0.367 0 0.699 0.149 0.94 0.389v0l5.653 5.653c0.241 0.241 0.389 0.573 0.389 0.94 0 0.734-0.595 1.329-1.329 1.329-0.367 0-0.699-0.149-0.94-0.389l-1.88-1.88-1.413 1.413-1.893-1.893M25.893 4.213l1.893 1.893-1.413 1.413 1.88 1.88c0.52 0.52 0.52 1.36 0 1.88-0.52 0.533-1.36 0.533-1.88 0l-5.653-5.653c-0.241-0.241-0.389-0.573-0.389-0.94 0-0.734 0.595-1.329 1.329-1.329 0.367 0 0.699 0.149 0.94 0.389v0l1.88 1.88 1.413-1.413z"></path>
</svg>
