<!-- Generated by IcoMoon.io -->
<svg version="1.1" xmlns="http://www.w3.org/2000/svg" width="32" height="32" viewBox="0 0 32 32">
<title>earth-box</title>
<path d="M6.667 4c-1.48 0-2.667 1.187-2.667 2.667v18.667c0 1.473 1.194 2.667 2.667 2.667v0h18.667c1.473 0 2.667-1.194 2.667-2.667v0-18.667c0-1.473-1.194-2.667-2.667-2.667v0h-18.667M21.040 6.667h4.293v16.24c-0.347-1.067-1.747-1.853-2.933-1.853h-1.333v-4c0-0.736-0.597-1.333-1.333-1.333h-8v-2.667h2.667c0.736 0 1.333-0.597 1.333-1.333v0-2.667h2.667c1.373 0 2.493-1.053 2.64-2.387M6.667 13.72l6.4 6v1.333c0 1.473 1.194 2.667 2.667 2.667v0 1.613h-9.067v-11.613z"></path>
</svg>
