<!-- Generated by IcoMoon.io -->
<svg version="1.1" xmlns="http://www.w3.org/2000/svg" width="32" height="32" viewBox="0 0 32 32">
<title>earth-box-off</title>
<path d="M30.667 5.693l-2.667 2.667v16.973c0 1.473-1.194 2.667-2.667 2.667v0h-16.973l-2.667 2.667-1.693-1.707 24.96-24.96 1.707 1.693M6.667 4h18.907l-2.667 2.667h-1.867c-0.147 1.333-1.267 2.387-2.64 2.387h-2.667v2.667c0 0.747-0.6 1.333-1.333 1.333h-2.667v2.667h2.107l-2.44 2.44-4.733-4.44v9.187l-2.667 2.667v-18.907c0-1.48 1.187-2.667 2.667-2.667M15.733 25.333v-1.613c-0.84 0-1.6-0.387-2.093-1l-2.613 2.613h4.707M21.067 17.053v4h1.333c1.187 0 2.587 0.787 2.933 1.853v-11.88l-4.893 4.893c0.373 0.24 0.627 0.653 0.627 1.133z"></path>
</svg>
