<!-- Generated by IcoMoon.io -->
<svg version="1.1" xmlns="http://www.w3.org/2000/svg" width="32" height="32" viewBox="0 0 32 32">
<title>earth-off</title>
<path d="M29.333 7.027l-2 1.973c1.28 2.040 2 4.427 2 7 0 7.364-5.97 13.333-13.333 13.333v0c-2.56 0-4.96-0.72-7-2l-1.973 2-1.693-1.707 22.293-22.293 1.707 1.693M23.867 23.187c1.733-1.893 2.8-4.413 2.8-7.187 0-1.827-0.453-3.547-1.267-5.040l-5.627 5.627c0.147 0.213 0.227 0.467 0.227 0.747v4h1.333c1.187 0 2.187 0.787 2.533 1.853M14.667 26.573v-2.573c-0.667 0-1.24-0.227-1.693-0.613l-2.013 2.013c1.133 0.6 2.373 1 3.707 1.173M20 6.12v0.547c0 1.473-1.194 2.667-2.667 2.667v0h-2.667v2.667c0 0.736-0.597 1.333-1.333 1.333h-2.667v2.667h2.907l-2.787 2.787-5.173-5.173c-0.173 0.76-0.28 1.56-0.28 2.387 0 2.32 0.747 4.48 2 6.227l-1.893 1.907c-1.73-2.211-2.773-5.032-2.773-8.096 0-0.013 0-0.026 0-0.039v0.002c0-7.364 5.97-13.333 13.333-13.333v0c3.067 0 5.88 1.027 8.133 2.773l-1.907 1.893c-0.643-0.46-1.376-0.868-2.154-1.187l-0.072-0.026z"></path>
</svg>
