<!-- Generated by IcoMoon.io -->
<svg version="1.1" xmlns="http://www.w3.org/2000/svg" width="32" height="32" viewBox="0 0 32 32">
<title>elevator</title>
<path d="M9.333 2.667l5.333 5.333h-4v5.333h-2.667v-5.333h-4l5.333-5.333M22.667 13.333l-5.333-5.333h4v-5.333h2.667v5.333h4l-5.333 5.333M9.333 16h13.333c1.473 0 2.667 1.194 2.667 2.667v0 8c0 1.473-1.194 2.667-2.667 2.667h-13.333c-1.473 0-2.667-1.194-2.667-2.667v-8c0-1.473 1.194-2.667 2.667-2.667v0M9.333 18.667v8h13.333v-8h-13.333z"></path>
</svg>
