<!-- Generated by IcoMoon.io -->
<svg version="1.1" xmlns="http://www.w3.org/2000/svg" width="32" height="32" viewBox="0 0 32 32">
<title>emoticon-poop</title>
<path d="M12 14.667c0.733 0 1.333 1.2 1.333 2.667s-0.6 2.667-1.333 2.667-1.333-1.2-1.333-2.667 0.6-2.667 1.333-2.667M20 14.667c0.733 0 1.333 1.2 1.333 2.667s-0.6 2.667-1.333 2.667-1.333-1.2-1.333-2.667 0.6-2.667 1.333-2.667M13 2.333s8.333 3 7 8.333c0 0 5.333 0 3 4.667 0 0 5.613 0.587 4.040 5.12-1.707 1.587-2.107 2.053-3.707 3.213l3.747-2.147c1.387 0.68 5.413 3.107 0.92 6.48-5.333 4-13.333 0.333-16 0.333s-5.333 1-6.667 1-2.667-1.333-2.667-4 2.667-4 4-4c0 0-4-4 2.667-6.667 0 0-2.667-4 2.667-5.333 0 0-1.333-1.333 0-2.667s1-3 1-4.333M10.667 22.667c1.773 1.56 3.56 3.107 5.333 3.107s3.56-1.547 5.333-3.107h-10.667M12 13.333c-1.467 0-2.667 1.787-2.667 4s1.2 4 2.667 4 2.667-1.787 2.667-4-1.2-4-2.667-4M20 13.333c-1.467 0-2.667 1.787-2.667 4s1.2 4 2.667 4 2.667-1.787 2.667-4-1.2-4-2.667-4z"></path>
</svg>
