<!-- Generated by IcoMoon.io -->
<svg version="1.1" xmlns="http://www.w3.org/2000/svg" width="32" height="32" viewBox="0 0 32 32">
<title>emoticon-tongue</title>
<path d="M12 10.667c1.473 0 2.667 1.194 2.667 2.667v0c0 0.48-0.133 0.947-0.36 1.333-0.453-0.8-1.32-1.333-2.307-1.333s-1.853 0.533-2.307 1.333c-0.227-0.387-0.36-0.853-0.36-1.333 0-1.473 1.194-2.667 2.667-2.667v0M20 10.667c1.473 0 2.667 1.194 2.667 2.667v0c0 0.48-0.133 0.947-0.36 1.333-0.453-0.8-1.32-1.333-2.307-1.333s-1.853 0.533-2.307 1.333c-0.227-0.387-0.36-0.853-0.36-1.333 0-1.473 1.194-2.667 2.667-2.667v0M16 26.667c5.891 0 10.667-4.776 10.667-10.667v0c0-5.891-4.776-10.667-10.667-10.667v0c-5.891 0-10.667 4.776-10.667 10.667v0c0 5.891 4.776 10.667 10.667 10.667v0M16 2.667c7.364 0 13.333 5.97 13.333 13.333v0c0 7.364-5.97 13.333-13.333 13.333v0c-7.373 0-13.333-6-13.333-13.333 0-7.364 5.97-13.333 13.333-13.333v0M12 17.333h8c0.736 0 1.333 0.597 1.333 1.333v0c0 0.736-0.597 1.333-1.333 1.333v0c0 2.667-1.2 4-2.667 4s-2.667-1.333-2.667-4h-2.667c-0.736 0-1.333-0.597-1.333-1.333v0c0-0.736 0.597-1.333 1.333-1.333v0z"></path>
</svg>
