<!-- Generated by IcoMoon.io -->
<svg version="1.1" xmlns="http://www.w3.org/2000/svg" width="32" height="32" viewBox="0 0 32 32">
<title>emoticon-dead</title>
<path d="M16 2.667c-7.373 0-13.333 5.96-13.333 13.333s5.96 13.333 13.333 13.333c7.364 0 13.333-5.97 13.333-13.333v0c0-7.373-6-13.333-13.333-13.333M16 26.667c-5.891 0-10.667-4.776-10.667-10.667v0c0-5.891 4.776-10.667 10.667-10.667v0c5.891 0 10.667 4.776 10.667 10.667v0c0 5.891-4.776 10.667-10.667 10.667v0M21.573 10.347l-1.413 1.413-1.413-1.413-1.413 1.413 1.413 1.413-1.413 1.413 1.413 1.413 1.413-1.413 1.413 1.413 1.413-1.413-1.413-1.413 1.413-1.413-1.413-1.413M10.427 16l1.413-1.413 1.413 1.413 1.413-1.413-1.413-1.413 1.413-1.413-1.413-1.413-1.413 1.413-1.413-1.413-1.413 1.413 1.413 1.413-1.413 1.413 1.413 1.413M16 18.667c-3.107 0-5.747 1.947-6.813 4.667h13.627c-1.067-2.72-3.707-4.667-6.813-4.667z"></path>
</svg>
