<!-- Generated by IcoMoon.io -->
<svg version="1.1" xmlns="http://www.w3.org/2000/svg" width="32" height="32" viewBox="0 0 32 32">
<title>escalator</title>
<path d="M26.667 10.667h-1.4l-16 16h-3.933c-1.473 0-2.667-1.194-2.667-2.667v0c0-1.473 1.194-2.667 2.667-2.667h1.72l2.28-2.28v-5.72c0-0.736 0.597-1.333 1.333-1.333h1.333c0.736 0 1.333 0.597 1.333 1.333v0 1.72l9.72-9.72h3.613c1.473 0 2.667 1.194 2.667 2.667v0c0 1.473-1.194 2.667-2.667 2.667v0M11.333 6.667c1.105 0 2 0.895 2 2v0c0 1.105-0.895 2-2 2v0c-1.105 0-2-0.895-2-2v0c0-1.105 0.895-2 2-2v0z"></path>
</svg>
