<!-- Generated by IcoMoon.io -->
<svg version="1.1" xmlns="http://www.w3.org/2000/svg" width="32" height="32" viewBox="0 0 32 32">
<title>exit-to-app</title>
<path d="M25.333 4h-18.667c-1.48 0-2.667 1.187-2.667 2.667v5.333h2.667v-5.333h18.667v18.667h-18.667v-5.333h-2.667v5.333c0 1.473 1.194 2.667 2.667 2.667v0h18.667c1.473 0 2.667-1.194 2.667-2.667v0-18.667c0-1.473-1.194-2.667-2.667-2.667v0M13.44 20.773l1.893 1.893 6.667-6.667-6.667-6.667-1.893 1.88 3.453 3.453h-12.893v2.667h12.893l-3.453 3.44z"></path>
</svg>
