<!-- Generated by IcoMoon.io -->
<svg version="1.1" xmlns="http://www.w3.org/2000/svg" width="32" height="32" viewBox="0 0 32 32">
<title>eyedropper</title>
<path d="M25.8 15.627l-2.84 2.84-1.88-1.893-10.28 10.28-6.133 2.48-2-2 2.48-6.133 10.28-10.28-1.893-1.88 2.84-2.84 9.427 9.427M22.347 4c0.724-0.723 1.723-1.17 2.827-1.17s2.103 0.447 2.827 1.17l-0-0c0.723 0.724 1.17 1.723 1.17 2.827s-0.447 2.103-1.17 2.827l-2.56 2.56-5.653-5.653 2.56-2.56M7.413 22.707l-1.413 3.293 3.293-1.413 9.907-9.92-1.867-1.867-9.92 9.907z"></path>
</svg>
