<!-- Generated by IcoMoon.io -->
<svg version="1.1" xmlns="http://www.w3.org/2000/svg" width="32" height="32" viewBox="0 0 32 32">
<title>face-profile</title>
<path d="M16 2.667c-7.364 0-13.333 5.97-13.333 13.333v0c0 7.364 5.97 13.333 13.333 13.333v0c7.364 0 13.333-5.97 13.333-13.333v0c0-7.364-5.97-13.333-13.333-13.333v0M16 11.187c2.039 1.343 4.539 2.143 7.226 2.147h0.001c1.040 0 2.040-0.12 3-0.347 0.28 0.947 0.44 1.96 0.44 3.013 0 5.88-4.787 10.667-10.667 10.667-4 0-7.48-2.213-9.333-5.48l2.333-2.52v-1.333c0-0.92 0.746-1.667 1.667-1.667v0c0.92 0 1.667 0.746 1.667 1.667v1.333h3.667M21.333 15.667c-0.92 0-1.667 0.746-1.667 1.667v0c0 0.92 0.746 1.667 1.667 1.667v0c0.92 0 1.667-0.746 1.667-1.667v0c0-0.92-0.746-1.667-1.667-1.667v0z"></path>
</svg>
