<!-- Generated by IcoMoon.io -->
<svg version="1.1" xmlns="http://www.w3.org/2000/svg" width="32" height="32" viewBox="0 0 32 32">
<title>fan</title>
<path d="M16 14.667c-0.736 0-1.333 0.597-1.333 1.333v0c0 0.736 0.597 1.333 1.333 1.333v0c0.736 0 1.333-0.597 1.333-1.333v0c0-0.736-0.597-1.333-1.333-1.333v0M16.667 2.667c6 0 6.147 4.76 3 6.333-1.32 0.653-1.907 2.053-2.16 3.293 0.64 0.267 1.2 0.68 1.627 1.213 4.933-2.667 10.24-1.613 10.24 3.16 0 6-4.76 6.133-6.333 2.973-0.667-1.32-2.080-1.907-3.32-2.16-0.267 0.64-0.68 1.187-1.213 1.64 2.653 4.92 1.6 10.213-3.173 10.213-6 0-6.12-4.773-2.973-6.347 1.307-0.653 1.893-2.040 2.16-3.267-0.653-0.267-1.227-0.693-1.653-1.227-4.92 2.64-10.2 1.6-10.2-3.16 0-6 4.747-6.147 6.32-2.987 0.667 1.32 2.067 1.893 3.307 2.147 0.253-0.64 0.68-1.2 1.227-1.627-2.653-4.92-1.6-10.2 3.147-10.2z"></path>
</svg>
