<!-- Generated by IcoMoon.io -->
<svg version="1.1" xmlns="http://www.w3.org/2000/svg" width="32" height="32" viewBox="0 0 32 32">
<title>fax</title>
<path d="M8 2.667c-0.736 0-1.333 0.597-1.333 1.333v0 5.333h1.333v-2.667h2.667v-1.333h-2.667v-1.333h2.667v-1.333h-2.667M14.667 2.667c-0.736 0-1.333 0.597-1.333 1.333v0 5.333h1.333v-2.667h1.333v2.667h1.333v-5.333c0-0.736-0.597-1.333-1.333-1.333h-1.333M20 2.667l1.893 3.333-1.893 3.333h1.507l1.16-2 1.16 2h1.507l-1.893-3.333 1.893-3.333h-1.507l-1.16 2-1.16-2h-1.507M14.667 4h1.333v1.333h-1.333v-1.333M6.667 12c-2.209 0-4 1.791-4 4v0 8h5.333v5.333h16v-5.333h5.333v-8c0-2.209-1.791-4-4-4v0h-18.667M25.333 14.667c0.736 0 1.333 0.597 1.333 1.333v0c0 0.736-0.597 1.333-1.333 1.333v0c-0.736 0-1.333-0.597-1.333-1.333v0c0-0.736 0.597-1.333 1.333-1.333v0M10.667 20h10.667v6.667h-10.667v-6.667z"></path>
</svg>
