<!-- Generated by IcoMoon.io -->
<svg version="1.1" xmlns="http://www.w3.org/2000/svg" width="32" height="32" viewBox="0 0 32 32">
<title>ferry</title>
<path d="M8 8h16v5.28l-8-2.613-8 2.613M5.253 25.333h0.080c2.133 0 4-1.173 5.333-2.667 1.333 1.493 3.2 2.667 5.333 2.667s4-1.173 5.333-2.667c1.333 1.493 3.2 2.667 5.333 2.667h0.067l2.533-8.92c0.107-0.333 0.067-0.707-0.080-1.027-0.173-0.32-0.453-0.56-0.8-0.667l-1.72-0.56v-6.16c0-1.473-1.194-2.667-2.667-2.667v0h-4v-4h-8v4h-4c-1.473 0-2.667 1.194-2.667 2.667v0 6.16l-1.72 0.56c-0.347 0.107-0.627 0.347-0.8 0.667-0.147 0.32-0.187 0.693-0.080 1.027M26.667 28c-1.853 0-3.707-0.627-5.333-1.773-3.253 2.28-7.413 2.28-10.667 0-1.627 1.147-3.48 1.773-5.333 1.773h-2.667v2.667h2.667c1.827 0 3.653-0.467 5.333-1.333 3.333 1.733 7.333 1.733 10.667 0 1.68 0.867 3.493 1.333 5.333 1.333h2.667v-2.667h-2.667z"></path>
</svg>
