<!-- Generated by IcoMoon.io -->
<svg version="1.1" xmlns="http://www.w3.org/2000/svg" width="32" height="32" viewBox="0 0 32 32">
<title>file-cloud</title>
<path d="M17.333 12h7.333l-7.333-7.333v7.333M8 2.667h10.667l8 8v16c0 1.473-1.194 2.667-2.667 2.667v0h-16c-1.473 0-2.667-1.194-2.667-2.667v-21.333c0-1.48 1.187-2.667 2.667-2.667M20.907 20c-0.487-2.297-2.499-3.996-4.907-3.996-1.908 0-3.567 1.067-4.413 2.636l-0.013 0.027c-2.018 0.24-3.568 1.938-3.573 3.999v0.001c0 2.209 1.791 4 4 4v0h8.667c1.841 0 3.333-1.492 3.333-3.333v0c0-1.76-1.373-3.187-3.093-3.333z"></path>
</svg>
