<!-- Generated by IcoMoon.io -->
<svg version="1.1" xmlns="http://www.w3.org/2000/svg" width="32" height="32" viewBox="0 0 32 32">
<title>file-find</title>
<path d="M12 17.333c0 2.209 1.791 4 4 4v0c2.209 0 4-1.791 4-4v0c0-2.209-1.791-4-4-4v0c-2.209 0-4 1.791-4 4v0M26.667 26.12v-15.453l-8-8h-10.667c-1.473 0-2.667 1.194-2.667 2.667v21.333c0 1.473 1.194 2.667 2.667 2.667v0h16c0.6 0 1.133-0.2 1.587-0.533l-5.907-5.907c-1.067 0.693-2.347 1.107-3.68 1.107-3.682 0-6.667-2.985-6.667-6.667v0c0-3.682 2.985-6.667 6.667-6.667v0c3.682 0 6.667 2.985 6.667 6.667v0c0 1.333-0.413 2.613-1.107 3.667l5.107 5.12z"></path>
</svg>
