<!-- Generated by IcoMoon.io -->
<svg version="1.1" xmlns="http://www.w3.org/2000/svg" width="32" height="32" viewBox="0 0 32 32">
<title>file-music</title>
<path d="M17.333 12h7.333l-7.333-7.333v7.333M8 2.667h10.667l8 8v16c0 1.473-1.194 2.667-2.667 2.667v0h-16c-1.473 0-2.667-1.194-2.667-2.667v-21.333c0-1.48 1.187-2.667 2.667-2.667M12 21.333c-1.473 0-2.667 1.194-2.667 2.667v0c0 1.473 1.194 2.667 2.667 2.667v0c1.473 0 2.667-1.194 2.667-2.667v0-6.667h4v-2.667h-5.333v7.027c-0.387-0.227-0.853-0.36-1.333-0.36z"></path>
</svg>
