<!-- Generated by IcoMoon.io -->
<svg version="1.1" xmlns="http://www.w3.org/2000/svg" width="32" height="32" viewBox="0 0 32 32">
<title>file-word</title>
<path d="M8 2.667h10.667l8 8v16c0 1.473-1.194 2.667-2.667 2.667v0h-16c-1.473 0-2.667-1.194-2.667-2.667v-21.333c0-1.473 1.194-2.667 2.667-2.667v0M17.333 4.667v7.333h7.333l-7.333-7.333M9.333 17.333l2 9.333h2.667l2-4 2 4h2.667l2-9.333h1.333v-2.667h-5.333v2.667h1.333l-1.2 5.6-1.467-2.933h-2.667l-1.467 2.933-1.2-5.6h1.333v-2.667h-5.333v2.667h1.333z"></path>
</svg>
