<!-- Generated by IcoMoon.io -->
<svg version="1.1" xmlns="http://www.w3.org/2000/svg" width="32" height="32" viewBox="0 0 32 32">
<title>file-powerpoint</title>
<path d="M8 2.667h10.667l8 8v16c0 1.473-1.194 2.667-2.667 2.667v0h-16c-1.473 0-2.667-1.194-2.667-2.667v-21.333c0-1.473 1.194-2.667 2.667-2.667v0M17.333 4.667v7.333h7.333l-7.333-7.333M10.667 14.667v2.667h1.333v8h-1.333v1.333h5.333v-1.333h-1.333v-2.667h2.667c2.209 0 4-1.791 4-4v0c0-2.209-1.791-4-4-4v0h-6.667M17.333 17.333c0.736 0 1.333 0.597 1.333 1.333v0c0 0.736-0.597 1.333-1.333 1.333h-2.667v-2.667h2.667z"></path>
</svg>
