<!-- Generated by IcoMoon.io -->
<svg version="1.1" xmlns="http://www.w3.org/2000/svg" width="32" height="32" viewBox="0 0 32 32">
<title>file-pdf-box</title>
<path d="M15.24 14.587c-0.307 0.987-0.747 2.040-1.347 3.2-0.267 0.507-0.56 0.987-0.667 1.387l0.147-0.053c1.693-0.653 3.293-1.027 4.453-1.24-0.2-0.133-0.387-0.28-0.547-0.427-0.8-0.68-1.493-1.667-2.040-2.867M23.88 19.667c-0.227 0.253-0.627 0.4-1.213 0.4-1.013 0-2.667-0.307-4-0.987-2.293 0.253-4 0.56-5.373 1-0.067 0.027-0.147 0.053-0.24 0.093-1.653 2.827-2.88 4.093-3.96 4.093-0.213 0-0.427-0.053-0.587-0.147l-0.64-0.413-0.040-0.067c-0.059-0.138-0.093-0.298-0.093-0.467 0-0.090 0.010-0.177 0.028-0.262l-0.001 0.008c0.147-0.707 0.907-1.827 2.507-2.827 0.253-0.187 0.653-0.4 1.187-0.653 0.4-0.693 0.827-1.507 1.28-2.4 0.68-1.373 1.107-2.733 1.44-3.907v-0.013c-0.493-1.613-0.787-2.587-0.293-4.36 0.12-0.507 0.56-1.027 1.053-1.027h0.32c0.307 0 0.6 0.107 0.813 0.32 0.88 0.88 0.467 3.027 0.027 4.8-0.027 0.080-0.040 0.147-0.053 0.187 0.533 1.507 1.293 2.72 2.133 3.413 0.347 0.267 0.733 0.533 1.16 0.773 0.6-0.067 1.173-0.093 1.72-0.093 1.653 0 2.653 0.293 3.040 0.92 0.133 0.213 0.2 0.467 0.16 0.733-0.013 0.333-0.133 0.64-0.373 0.88M25.333 4h-18.667c-1.48 0-2.667 1.187-2.667 2.667v18.667c0 1.473 1.194 2.667 2.667 2.667v0h18.667c1.473 0 2.667-1.194 2.667-2.667v0-18.667c0-1.473-1.194-2.667-2.667-2.667v0M23.333 18.72c-0.133-0.133-0.667-0.467-2.533-0.467-0.093 0-0.187 0-0.307 0.133 0.973 0.427 1.92 0.68 2.533 0.68 0.093 0 0.173-0.013 0.253-0.027h0.053c0.067-0.027 0.107-0.040 0.12-0.173-0.027-0.040-0.053-0.093-0.12-0.147M11.107 20.667c-0.28 0.16-0.507 0.307-0.64 0.413-0.947 0.867-1.547 1.747-1.613 2.253 0.6-0.2 1.387-1.080 2.253-2.667M15.133 11.453l0.067-0.053c0.093-0.427 0.133-0.8 0.213-1.093l0.040-0.213c0.133-0.76 0.107-1.147-0.12-1.467l-0.2-0.067c-0.027 0.040-0.067 0.107-0.093 0.16-0.227 0.56-0.213 1.533 0.093 2.733z"></path>
</svg>
