<!-- Generated by IcoMoon.io -->
<svg version="1.1" xmlns="http://www.w3.org/2000/svg" width="32" height="32" viewBox="0 0 32 32">
<title>file-hidden</title>
<path d="M17.333 12h1.333v2.667h-4v-5.333h2.667v2.667M24.667 12l-2.827-2.827 1.667-1.667 3.16 3.16v2.667h-2.667v1.333h-4v-2.667h4.667M17.333 4.667v-2h-1.333v2.667h1.333v2.667h-2.667v-2.667h-2.667v-2.667h-1.333v2.667h-2.667v1.333h-2.667v-1.333c0-1.48 1.187-2.667 2.667-2.667h10.667l3.147 3.147-1.667 1.667-2.813-2.813M26.667 26.667c0 1.473-1.194 2.667-2.667 2.667v0h-2.667v-2.667h2.667v-1.333h2.667v1.333M24 20h2.667v4h-2.667v-4M16 29.333v-2.667h4v2.667h-4M10.667 29.333v-2.667h4v2.667h-4M8 29.333c-1.473 0-2.667-1.194-2.667-2.667v-2.667h2.667v2.667h1.333v2.667h-1.333M5.333 18.667h2.667v4h-2.667v-4M5.333 13.333h2.667v4h-2.667v-4M24 14.667h2.667v4h-2.667v-4M5.333 8h2.667v4h-2.667v-4z"></path>
</svg>
