<!-- Generated by IcoMoon.io -->
<svg version="1.1" xmlns="http://www.w3.org/2000/svg" width="32" height="32" viewBox="0 0 32 32">
<title>film</title>
<path d="M4.667 4h2v-1.6c0-0.587 0.48-1.067 1.067-1.067h5.867c0.587 0 1.067 0.48 1.067 1.067v1.6h2c1.105 0 2 0.895 2 2v0 0.667h10.667v20h-10.667v0.667c0 1.105-0.895 2-2 2v0h-12c-1.105 0-2-0.895-2-2v0-21.333c0-1.105 0.895-2 2-2v0M24 9.333v2.667h2.667v-2.667h-2.667M18.667 9.333v2.667h2.667v-2.667h-2.667M13.333 9.333v2.667h2.667v-2.667h-2.667M18.667 21.333v2.667h2.667v-2.667h-2.667M24 21.333v2.667h2.667v-2.667h-2.667M13.333 21.333v2.667h2.667v-2.667h-2.667z"></path>
</svg>
