<!-- Generated by IcoMoon.io -->
<svg version="1.1" xmlns="http://www.w3.org/2000/svg" width="32" height="32" viewBox="0 0 32 32">
<title>filmstrip-off</title>
<path d="M1.333 5.693l1.707-1.693 24.96 24.96-1.693 1.707-4.973-4.973v2.307h-10.667v-2.667h-2.667v2.667h-2.667v-18.307l-4-4M24 12v-2.667h-2.667v2.667h2.667M24 17.333v-2.667h-2.667v2.667h2.667M24 20h-1.573l-13.333-13.333h1.573v-2.667h10.667v2.667h2.667v-2.667h2.667v20.24l-2.667-2.667v-1.573M10.667 17.333v-2.307l-0.36-0.36h-2.307v2.667h2.667M10.667 22.667v-2.667h-2.667v2.667h2.667M8 4v1.573l-1.573-1.573h1.573z"></path>
</svg>
