<!-- Generated by IcoMoon.io -->
<svg version="1.1" xmlns="http://www.w3.org/2000/svg" width="32" height="32" viewBox="0 0 32 32">
<title>fish</title>
<path d="M16 26.667l1.013-4c-4.347-0.28-8.227-2.133-9.347-4.56-0.12 0.64-0.293 1.227-0.56 1.667-0.88 1.56-2.667 1.56-4.44 1.56 1.467 0 2-2.093 2-4.667s-0.533-4.667-2-4.667c1.773 0 3.56 0 4.44 1.56 0.267 0.44 0.44 1.027 0.56 1.667 0.867-1.893 3.427-3.427 6.547-4.133l-2.213-4.427c2.667 0 5.333 0 7.107 0.893 1.507 0.747 2.373 2.133 3.147 3.613 3.893 0.933 7.080 3.040 7.080 5.493 0 2.507-3.333 4.667-7.333 5.547-1.107 1.467-2.187 2.827-3.107 3.56-1.12 0.893-2 0.893-2.893 0.893M22.667 14.667c-0.736 0-1.333 0.597-1.333 1.333v0c0 0.736 0.597 1.333 1.333 1.333v0c0.736 0 1.333-0.597 1.333-1.333v0c0-0.736-0.597-1.333-1.333-1.333v0z"></path>
</svg>
