<!-- Generated by IcoMoon.io -->
<svg version="1.1" xmlns="http://www.w3.org/2000/svg" width="32" height="32" viewBox="0 0 32 32">
<title>flag-outline-variant</title>
<path d="M8 4c0.736 0 1.333 0.597 1.333 1.333v0 1.173c1.413-0.587 3.333-1.173 5.333-1.173 4 0 4 2.667 6.667 2.667 4 0 5.333-2.667 5.333-2.667v10.667s-1.333 2.667-5.333 2.667-4-2.667-6.667-2.667c-4 0-5.333 2.667-5.333 2.667v9.333h-2.667v-22.667c0-0.736 0.597-1.333 1.333-1.333v0M9.333 9.667v5.667s2.667-2 5.333-2 4 2.667 6.667 2.667 2.667-1.333 2.667-1.333v-4.667s-1.333 0.667-2.667 0.667c-2.667 0-4-2.667-6.667-2.667s-5.333 1.667-5.333 1.667z"></path>
</svg>
