<!-- Generated by IcoMoon.io -->
<svg version="1.1" xmlns="http://www.w3.org/2000/svg" width="32" height="32" viewBox="0 0 32 32">
<title>folder-star</title>
<path d="M26.667 8h-10.667l-2.667-2.667h-8c-1.473 0-2.667 1.194-2.667 2.667v0 16c0 1.473 1.194 2.667 2.667 2.667h21.333c1.473 0 2.667-1.194 2.667-2.667v0-13.333c0-1.473-1.194-2.667-2.667-2.667v0M23.92 22.667l-3.92-2.293-3.92 2.293 1.040-4.44-3.453-2.987 4.547-0.387 1.787-4.187 1.787 4.187 4.547 0.387-3.453 2.987 1.040 4.44z"></path>
</svg>
