<!-- Generated by IcoMoon.io -->
<svg version="1.1" xmlns="http://www.w3.org/2000/svg" width="32" height="32" viewBox="0 0 32 32">
<title>food-off</title>
<path d="M2.667 7.027l1.707-1.693 23.627 23.627-1.693 1.707-2.667-2.667h-2.973l-0.387-3.333-2.987-3.013c-0.147 0.587-0.667 1.013-1.293 1.013h-12c-0.736 0-1.333-0.597-1.333-1.333v0c0-0.736 0.597-1.333 1.333-1.333v0h6.667l2 2 2-2h0.973l-1.333-1.333h-11.64c0-2.209 1.791-4 4-4v0h3.64l-7.64-7.64M18.667 10.667h2.973l-1.507-6.053 2.32-0.613 1.667 6.667h5.213l-1.68 14.56-8.267-8.267-0.72-6.293M17.333 24c0 2.209-1.791 4-4 4v0h-6.667c-2.209 0-4-1.791-4-4v0h14.667z"></path>
</svg>
