<!-- Generated by IcoMoon.io -->
<svg version="1.1" xmlns="http://www.w3.org/2000/svg" width="32" height="32" viewBox="0 0 32 32">
<title>food-fork-drink</title>
<path d="M4 4c-0.736 0-1.333 0.597-1.333 1.333v0 7.333c0 2.253 1.373 4.173 3.333 4.96v8.373c0 1.105 0.895 2 2 2v0c1.105 0 2-0.895 2-2v0-8.373c1.96-0.787 3.333-2.707 3.333-4.96v-7.333c0-0.736-0.597-1.333-1.333-1.333v0c-0.736 0-1.333 0.597-1.333 1.333v0 5.333c0 0.368-0.298 0.667-0.667 0.667v0c-0.368 0-0.667-0.298-0.667-0.667v0-5.333c0-0.736-0.597-1.333-1.333-1.333v0c-0.736 0-1.333 0.597-1.333 1.333v0 5.333c0 0.368-0.298 0.667-0.667 0.667v0c-0.368 0-0.667-0.298-0.667-0.667v0-5.333c0-0.736-0.597-1.333-1.333-1.333v0M26.507 4c-0.173 0-0.347 0.12-0.507 0.213l-4.667 2.787v5h-5.333v2.667h1.333l1.333 13.333h8l1.333-13.333h1.333v-2.667h-5.333v-3.547l3.333-2c0.667-0.373 0.84-1.12 0.453-1.787-0.28-0.48-0.773-0.733-1.28-0.667z"></path>
</svg>
