<!-- Generated by IcoMoon.io -->
<svg version="1.1" xmlns="http://www.w3.org/2000/svg" width="32" height="32" viewBox="0 0 32 32">
<title>football-australian</title>
<path d="M10 10c2.227-2.173 5.053-3.747 7.827-4.427 6.173-1.573 10.173 2.427 8.6 8.6-0.68 2.773-2.253 5.6-4.427 7.827-2.227 2.173-5.053 3.747-7.827 4.427-6.173 1.573-10.173-2.427-8.6-8.6 0.68-2.773 2.253-5.6 4.427-7.827M14.16 15.013l-0.48 0.48 2.827 2.827 0.48-0.48-2.827-2.827M15.493 13.68l-0.48 0.48 2.827 2.827 0.48-0.48-2.827-2.827M12.827 16.347l-0.48 0.48 2.827 2.827 0.48-0.48-2.827-2.827M16.84 12.373l-0.467 0.467 2.827 2.827 0.467-0.467-2.827-2.827M11.507 17.707l-0.467 0.467 2.827 2.827 0.467-0.467-2.827-2.827M18.173 11.040l-0.467 0.467 2.827 2.827 0.467-0.467-2.827-2.827z"></path>
</svg>
