<!-- Generated by IcoMoon.io -->
<svg version="1.1" xmlns="http://www.w3.org/2000/svg" width="32" height="32" viewBox="0 0 32 32">
<title>format-strikethrough-variant</title>
<path d="M30.667 16v2.667h-5.853c1.333 2.853 1.267 10.667-8.307 10.667-11.107 0.067-10.68-8.667-10.68-8.667l5.293 0.067c0.040 4.493 4.213 4.493 5.040 4.44 0.853-0.067 4.040-0.053 4.293-3.173 0.107-1.453-1.36-2.56-2.96-3.333h-16.16v-2.667h29.333M25.88 10.52l-5.307-0.040s0.227-3.693-4.373-3.707c-4.6-0.027-4.2 2.933-4.2 3.307 0.053 0.373 0.453 2.213 4 3.093h-8.387s-4.653-8.973 6.707-10.507c11.613-1.6 11.587 7.88 11.56 7.853z"></path>
</svg>
