<!-- Generated by IcoMoon.io -->
<svg version="1.1" xmlns="http://www.w3.org/2000/svg" width="32" height="32" viewBox="0 0 32 32">
<title>format-line-style</title>
<path d="M4 21.333h6.667v-2.667h-6.667v2.667M12.667 21.333h6.667v-2.667h-6.667v2.667M21.333 21.333h6.667v-2.667h-6.667v2.667M4 26.667h2.667v-2.667h-2.667v2.667M9.333 26.667h2.667v-2.667h-2.667v2.667M14.667 26.667h2.667v-2.667h-2.667v2.667M20 26.667h2.667v-2.667h-2.667v2.667M25.333 26.667h2.667v-2.667h-2.667v2.667M4 16h10.667v-2.667h-10.667v2.667M17.333 16h10.667v-2.667h-10.667v2.667M4 5.333v5.333h24v-5.333h-24z"></path>
</svg>
