<!-- Generated by IcoMoon.io -->
<svg version="1.1" xmlns="http://www.w3.org/2000/svg" width="32" height="32" viewBox="0 0 32 32">
<title>format-header-pound</title>
<path d="M4 5.333h2.667v8h5.333v-8h2.667v18.667h-2.667v-8h-5.333v8h-2.667v-18.667M17.333 10.667h3.080l0.427-4h2.667l-0.427 4h2.667l0.427-4h2.667l-0.427 4h2.253v2.667h-2.533l-0.267 2.667h2.8v2.667h-3.080l-0.427 4h-2.667l0.427-4h-2.667l-0.427 4h-2.667l0.427-4h-2.253v-2.667h2.533l0.267-2.667h-2.8v-2.667M22.8 13.333l-0.267 2.667h2.667l0.267-2.667h-2.667z"></path>
</svg>
