<!-- Generated by IcoMoon.io -->
<svg version="1.1" xmlns="http://www.w3.org/2000/svg" width="32" height="32" viewBox="0 0 32 32">
<title>format-subscript</title>
<path d="M21.333 9.88l-6.12 6.12 6.12 6.12-1.88 1.88-6.12-6.12-6.12 6.12-1.88-1.88 6.12-6.12-6.12-6.12 1.88-1.88 6.12 6.12 6.12-6.12 1.88 1.88M29.133 28.040h-6.507v-1.333l1.187-1.067c1.013-0.867 1.76-1.587 2.267-2.173 0.493-0.587 0.747-1.133 0.76-1.653 0.002-0.022 0.002-0.049 0.002-0.075 0-0.336-0.139-0.64-0.362-0.858l-0-0c-0.24-0.213-0.627-0.373-1.147-0.373-0.413 0-0.773 0.080-1.12 0.24l-0.88 0.507-0.6-1.56c0.36-0.28 0.787-0.52 1.307-0.707s1.093-0.32 1.72-0.32c1.040 0.053 1.84 0.333 2.373 0.88s0.827 1.24 0.827 2.093c-0.013 0.747-0.253 1.44-0.72 2.067-0.453 0.627-1.013 1.227-1.693 1.813l-0.853 0.693v0.027h3.44v1.8z"></path>
</svg>
