<!-- Generated by IcoMoon.io -->
<svg version="1.1" xmlns="http://www.w3.org/2000/svg" width="32" height="32" viewBox="0 0 32 32">
<title>format-header-5</title>
<path d="M4 5.333h2.667v8h5.333v-8h2.667v18.667h-2.667v-8h-5.333v8h-2.667v-18.667M20 5.333h5.333c1.473 0 2.667 1.194 2.667 2.667v0 1.333h-2.667v-1.333h-5.333v5.333h5.333c1.473 0 2.667 1.194 2.667 2.667v0 5.333c0 1.473-1.194 2.667-2.667 2.667v0h-5.333c-1.473 0-2.667-1.194-2.667-2.667v0-13.333c0-1.473 1.194-2.667 2.667-2.667v0M20 16v5.333h5.333v-5.333h-5.333z"></path>
</svg>
