<!-- Generated by IcoMoon.io -->
<svg version="1.1" xmlns="http://www.w3.org/2000/svg" width="32" height="32" viewBox="0 0 32 32">
<title>format-list-bulleted-type</title>
<path d="M6.667 12.667l3.333 6h-6.667l3.333-6M4 5.333h5.333v5.333h-5.333v-5.333M6.667 26.667c1.473 0 2.667-1.194 2.667-2.667v0c0-1.473-1.194-2.667-2.667-2.667v0c-1.473 0-2.667 1.194-2.667 2.667v0c0 1.473 1.194 2.667 2.667 2.667v0M12 6.667v2.667h16v-2.667h-16M12 25.333h16v-2.667h-16v2.667M12 17.333h16v-2.667h-16v2.667z"></path>
</svg>
