<!-- Generated by IcoMoon.io -->
<svg version="1.1" xmlns="http://www.w3.org/2000/svg" width="32" height="32" viewBox="0 0 32 32">
<title>fridge</title>
<path d="M12 28v1.333h-2.667v-1.333c-1.473 0-2.667-1.194-2.667-2.667v-20c0-1.473 1.194-2.667 2.667-2.667h13.333c1.473 0 2.667 1.194 2.667 2.667v20c0 1.473-1.194 2.667-2.667 2.667v0 1.333h-2.667v-1.333h-8M9.333 5.333v6.667h13.333v-6.667h-13.333M9.333 25.333h13.333v-10.667h-13.333v10.667M10.667 16h2.667v4h-2.667v-4M10.667 8h2.667v2.667h-2.667v-2.667z"></path>
</svg>
