<!-- Generated by IcoMoon.io -->
<svg version="1.1" xmlns="http://www.w3.org/2000/svg" width="32" height="32" viewBox="0 0 32 32">
<title>function</title>
<path d="M20.8 7.053c-1.467-0.133-2.76 0.947-2.893 2.427l-0.333 3.853h3.76v2.667h-4l-0.587 6.76c-0.241 2.734-2.52 4.862-5.295 4.862-0.168 0-0.335-0.008-0.499-0.023l0.021 0.002c-1.725-0.15-3.199-1.1-4.067-2.471l-0.013-0.022 2-2c0.32 0.987 1.2 1.747 2.307 1.84 1.467 0.133 2.76-0.947 2.893-2.427l0.573-6.52h-4v-2.667h4.227l0.36-4.093c0.253-2.933 2.84-5.107 5.773-4.84 1.747 0.147 3.213 1.12 4.080 2.493l-2 2c-0.32-0.987-1.2-1.747-2.307-1.84z"></path>
</svg>
