<!-- Generated by IcoMoon.io -->
<svg version="1.1" xmlns="http://www.w3.org/2000/svg" width="32" height="32" viewBox="0 0 32 32">
<title>gamepad-variant</title>
<path d="M9.333 8h13.333c4.418 0 8 3.582 8 8v0c0 4.418-3.582 8-8 8v0c-2.373 0-4.493-1.027-5.96-2.667h-1.413c-1.467 1.64-3.587 2.667-5.96 2.667-4.418 0-8-3.582-8-8v0c0-4.418 3.582-8 8-8v0M8 12v2.667h-2.667v2.667h2.667v2.667h2.667v-2.667h2.667v-2.667h-2.667v-2.667h-2.667M20.667 16c-1.105 0-2 0.895-2 2v0c0 1.105 0.895 2 2 2v0c1.105 0 2-0.895 2-2v0c0-1.105-0.895-2-2-2v0M24.667 12c-1.105 0-2 0.895-2 2v0c0 1.105 0.895 2 2 2v0c1.105 0 2-0.895 2-2v0c0-1.105-0.895-2-2-2v0z"></path>
</svg>
