<!-- Generated by IcoMoon.io -->
<svg version="1.1" xmlns="http://www.w3.org/2000/svg" width="32" height="32" viewBox="0 0 32 32">
<title>gas-station</title>
<path d="M24 13.333c-0.736 0-1.333-0.597-1.333-1.333v0c0-0.736 0.597-1.333 1.333-1.333v0c0.736 0 1.333 0.597 1.333 1.333v0c0 0.736-0.597 1.333-1.333 1.333v0M16 13.333h-8v-6.667h8M26.36 9.64l0.013-0.013-4.96-4.96-1.413 1.413 2.813 2.813c-1.253 0.44-2.147 1.68-2.147 3.107 0 1.841 1.492 3.333 3.333 3.333v0c0.48 0 0.92-0.107 1.333-0.28v9.613c0 0.736-0.597 1.333-1.333 1.333v0c-0.736 0-1.333-0.597-1.333-1.333v0-6c0-1.473-1.194-2.667-2.667-2.667v0h-1.333v-9.333c0-1.473-1.194-2.667-2.667-2.667v0h-8c-1.48 0-2.667 1.187-2.667 2.667v21.333h13.333v-10h2v6.667c0 1.841 1.492 3.333 3.333 3.333v0c1.841 0 3.333-1.492 3.333-3.333v-12.667c0-0.92-0.373-1.76-0.973-2.36z"></path>
</svg>
