<!-- Generated by IcoMoon.io -->
<svg version="1.1" xmlns="http://www.w3.org/2000/svg" width="32" height="32" viewBox="0 0 32 32">
<title>gender-male-female</title>
<path d="M23.44 5.333h-4.773v-2.667h9.333v9.333h-2.667v-4.787l-5.107 5.107c0.694 1.036 1.108 2.31 1.108 3.681 0 3.211-2.269 5.891-5.292 6.525l-0.043 0.008v2.8h2.667v2.667h-2.667v2.667h-2.667v-2.667h-2.667v-2.667h2.667v-2.8c-3.065-0.642-5.333-3.322-5.333-6.532 0-0 0-0.001 0-0.001v0c0-3.682 2.985-6.667 6.667-6.667v0c1.333 0 2.613 0.4 3.667 1.107l5.107-5.107M14.667 12c-2.209 0-4 1.791-4 4v0c0 2.209 1.791 4 4 4v0c2.209 0 4-1.791 4-4v0c0-2.209-1.791-4-4-4v0z"></path>
</svg>
