<!-- Generated by IcoMoon.io -->
<svg version="1.1" xmlns="http://www.w3.org/2000/svg" width="32" height="32" viewBox="0 0 32 32">
<title>gift</title>
<path d="M29.333 16v10.667c0 1.473-1.194 2.667-2.667 2.667h-21.333c-1.473 0-2.667-1.194-2.667-2.667v-10.667c-0.736 0-1.333-0.597-1.333-1.333v-4c0-1.473 1.194-2.667 2.667-2.667h4.227c-0.144-0.395-0.227-0.852-0.227-1.327 0-0.002 0-0.004 0-0.006v0c0-2.209 1.791-4 4-4v0c1.333 0 2.507 0.667 3.24 1.653v-0.013l0.76 1.027 0.76-1.027v0.013c0.733-0.987 1.907-1.653 3.24-1.653 2.209 0 4 1.791 4 4v0c0 0.002 0 0.004 0 0.006 0 0.476-0.083 0.932-0.235 1.355l0.009-0.028h4.227c1.473 0 2.667 1.194 2.667 2.667v0 4c0 0.736-0.597 1.333-1.333 1.333v0M5.333 26.667h9.333v-10.667h-9.333v10.667M26.667 26.667v-10.667h-9.333v10.667h9.333M12 5.333c-0.736 0-1.333 0.597-1.333 1.333v0c0 0.736 0.597 1.333 1.333 1.333v0c0.736 0 1.333-0.597 1.333-1.333v0c0-0.736-0.597-1.333-1.333-1.333v0M20 5.333c-0.736 0-1.333 0.597-1.333 1.333v0c0 0.736 0.597 1.333 1.333 1.333v0c0.736 0 1.333-0.597 1.333-1.333v0c0-0.736-0.597-1.333-1.333-1.333v0M4 10.667v2.667h10.667v-2.667h-10.667M17.333 10.667v2.667h10.667v-2.667h-10.667z"></path>
</svg>
