<!-- Generated by IcoMoon.io -->
<svg version="1.1" xmlns="http://www.w3.org/2000/svg" width="32" height="32" viewBox="0 0 32 32">
<title>git</title>
<path d="M3.467 14.12l7.707-7.72 2.253 2.267c-0.32 1.133 0.2 2.373 1.24 2.973v7.387c-0.8 0.453-1.333 1.32-1.333 2.307 0 1.473 1.194 2.667 2.667 2.667v0c1.473 0 2.667-1.194 2.667-2.667v0c0-0.987-0.533-1.853-1.333-2.307v-6.48l2.76 2.787c-0.093 0.2-0.093 0.427-0.093 0.667 0 1.473 1.194 2.667 2.667 2.667v0c1.473 0 2.667-1.194 2.667-2.667v0c0-1.473-1.194-2.667-2.667-2.667v0c-0.24 0-0.467 0-0.667 0.093l-3.427-3.427c0.057-0.205 0.090-0.44 0.090-0.684 0-1.091-0.662-2.028-1.606-2.43l-0.017-0.007c-0.573-0.213-1.173-0.267-1.707-0.12l-2.267-2.253 1.053-1.040c1.040-1.053 2.72-1.053 3.76 0l10.653 10.653c1.053 1.040 1.053 2.72 0 3.76l-10.653 10.653c-1.040 1.053-2.72 1.053-3.76 0l-10.653-10.653c-1.053-1.040-1.053-2.72 0-3.76z"></path>
</svg>
