<!-- Generated by IcoMoon.io -->
<svg version="1.1" xmlns="http://www.w3.org/2000/svg" width="32" height="32" viewBox="0 0 32 32">
<title>github-circle</title>
<path d="M16 2.667c-7.364 0-13.333 5.97-13.333 13.333v0c0 5.893 3.827 10.893 9.12 12.667 0.667 0.107 0.88-0.307 0.88-0.667v-2.253c-3.693 0.8-4.48-1.787-4.48-1.787-0.613-1.547-1.48-1.96-1.48-1.96-1.213-0.827 0.093-0.8 0.093-0.8 1.333 0.093 2.040 1.373 2.040 1.373 1.16 2.027 3.12 1.427 3.88 1.107 0.12-0.867 0.467-1.453 0.84-1.787-2.96-0.333-6.067-1.48-6.067-6.56 0-1.48 0.507-2.667 1.373-3.613-0.133-0.333-0.6-1.72 0.133-3.52 0 0 1.12-0.36 3.667 1.36 1.053-0.293 2.2-0.44 3.333-0.44s2.28 0.147 3.333 0.44c2.547-1.72 3.667-1.36 3.667-1.36 0.733 1.8 0.267 3.187 0.133 3.52 0.867 0.947 1.373 2.133 1.373 3.613 0 5.093-3.12 6.213-6.093 6.547 0.48 0.413 0.92 1.227 0.92 2.467v3.653c0 0.36 0.213 0.787 0.893 0.667 5.293-1.787 9.107-6.773 9.107-12.667 0-7.364-5.97-13.333-13.333-13.333v0z"></path>
</svg>
