<!-- Generated by IcoMoon.io -->
<svg version="1.1" xmlns="http://www.w3.org/2000/svg" width="32" height="32" viewBox="0 0 32 32">
<title>glass-flute</title>
<path d="M10.667 2.667h10.667c-0.44 4-0.893 8-1.667 10.44-0.773 2.453-1.893 3.333-2.44 5.667-0.56 2.333-0.56 6.12 0.213 7.893 0.787 1.773 2.333 1.56 3.12 1.667 0.773 0.107 0.773 0.56 0.773 1h-10.667c0-0.44 0-0.893 0.773-1 0.787-0.107 2.333 0.107 3.12-1.667 0.773-1.773 0.773-5.56 0.213-7.893-0.547-2.333-1.667-3.213-2.44-5.667-0.773-2.44-1.227-6.44-1.667-10.44M13.333 5.333c0.093 1.373 0.2 2.76 0.32 4h4.693c0.12-1.24 0.227-2.627 0.32-4h-5.333z"></path>
</svg>
