<!-- Generated by IcoMoon.io -->
<svg version="1.1" xmlns="http://www.w3.org/2000/svg" width="32" height="32" viewBox="0 0 32 32">
<title>gondola</title>
<path d="M24 13.333h-6.667v-3.213l12.16-2.027-0.32-1.973-7.293 1.213c0.067-0.2 0.12-0.427 0.12-0.667 0-1.105-0.895-2-2-2v0c-1.105 0-2 0.895-2 2v0c0 0.467 0.173 0.907 0.453 1.24l-1.12 0.187v-1.427h-2.667v1.88l-0.787 0.12c0.067-0.2 0.12-0.427 0.12-0.667 0-1.105-0.895-2-2-2v0c-1.105 0-2 0.895-2 2v0c0 0.48 0.173 0.907 0.44 1.24l-7.933 1.333 0.32 1.973 11.84-1.973v2.76h-6.667c-1.473 0-2.667 1.194-2.667 2.667v0 8c0 1.473 1.194 2.667 2.667 2.667v0h16c1.473 0 2.667-1.194 2.667-2.667v0-8c0-1.473-1.194-2.667-2.667-2.667v0M8 16h3v5.333h-3v-5.333M13 21.333v-5.333h6v5.333h-6M24 21.333h-3v-5.333h3v5.333z"></path>
</svg>
