<!-- Generated by IcoMoon.io -->
<svg version="1.1" xmlns="http://www.w3.org/2000/svg" width="32" height="32" viewBox="0 0 32 32">
<title>google-earth</title>
<path d="M16.533 10.080c-3.733-3.533-6.8-2.547-8.12-1.947 1-0.96 2.173-1.733 3.48-2.267 3.707-0.133 7.88 0.587 10.187 3.88 0 0 3.253 5.587 4.4 3.12 0.293 1 0.453 2.040 0.453 3.133 0 0.4-0.027 0.787-0.067 1.173-2.707-0.307-6.427-3.413-10.333-7.093M25.467 21.467c-1.253 0.493-2.8 1.333-5.28 1.333-2.507 0-4.707-1-7.44-1.867-2.48-0.787-3.413-2-5.12-2-0.88 0-1.32 0.88-1.56 1.613-0.632-1.331-1.001-2.893-1.001-4.541 0-1.105 0.166-2.172 0.474-3.176l-0.020 0.076c1.68-2.107 4.253-3.413 7.933-0.56 0 0 8.307 6.213 13.053 6.627-0.24 0.88-0.6 1.693-1.040 2.493M16 26.933c-1.493 0-2.92-0.307-4.227-0.853-0.827-1.973-0.813-3.52 1.493-2.747 0 0 5.227 2 10.733 0.107-1.997 2.151-4.84 3.493-7.997 3.493-0.001 0-0.002 0-0.003 0h0M16 2.667c-7.364 0-13.333 5.97-13.333 13.333v0c0 7.364 5.97 13.333 13.333 13.333v0c7.364 0 13.333-5.97 13.333-13.333v0c0-7.373-6-13.333-13.333-13.333z"></path>
</svg>
