<!-- Generated by IcoMoon.io -->
<svg version="1.1" xmlns="http://www.w3.org/2000/svg" width="32" height="32" viewBox="0 0 32 32">
<title>google-nearby</title>
<path d="M5.6 4c-0.84 0-1.533 0.667-1.6 1.48v18.253c0 0.88 0.72 1.6 1.6 1.6 0.147 0 0.293 0 0.44-0.067 5.293-2.813 10.707-6.093 15.96-9.16 0.587-0.253 0.947-0.827 0.947-1.44 0-0.573-0.28-1.107-0.813-1.387-5.467-3.2-11.187-6.52-16.093-9.213-0.147-0.067-0.293-0.067-0.44-0.067M26.493 8c-0.147 0-0.293 0-0.44 0.067-1.253 0.693-2.68 1.507-4.053 2.267 0.467 0.267 0.92 0.52 1.333 0.773 1.333 0.733 2.093 2.093 2.093 3.56 0 1.573-0.92 3.027-2.333 3.693-1.867 1.093-5.867 3.453-8 4.693 3.667 2.133 7.333 4.28 10.96 6.213 0.147 0.067 0.293 0.067 0.44 0.067 0.893 0 1.6-0.72 1.6-1.6 0-6.080 0.013-12.187 0-18.253-0.093-0.813-0.76-1.48-1.6-1.48z"></path>
</svg>
