<!-- Generated by IcoMoon.io -->
<svg version="1.1" xmlns="http://www.w3.org/2000/svg" width="32" height="32" viewBox="0 0 32 32">
<title>google-wallet</title>
<path d="M13.187 14.773c-0.173-1.56-0.667-3.080-1.493-4.413-0.36-0.64-0.413-1.427-0.187-2.027 0.107-0.333 0.267-0.6 0.533-0.88 0.28-0.28 0.573-0.44 0.853-0.547 0.28-0.12 0.44-0.16 0.853-0.16 0.467 0 0.92 0.147 1.293 0.387l0.587 0.547 0.147 0.213c1.42 2.311 2.263 5.11 2.267 8.106v0.001l-0.040 1.053c-0.16 2.52-0.933 4.947-2.24 7.12-0.427 0.72-1.2 1.16-2.040 1.16l-0.68-0.12-0.547-0.24c-0.68-0.4-1.067-1.093-1.16-1.813 0-0.427 0.053-0.867 0.253-1.28l0.107-0.173c0.988-1.621 1.573-3.581 1.573-5.678 0-0.010 0-0.020-0-0.030v0.002l-0.080-1.227M27.173 10.507c0.4 1.787 0.613 3.653 0.613 5.493 0 1.907-0.213 3.76-0.613 5.547l-0.36 1.4c-0.44 1.587-0.947 2.813-1.48 3.72-0.4 0.827-1.253 1.333-2.16 1.333-0.373 0-0.733-0.080-1.067-0.24-0.773-0.36-1.213-1-1.373-1.707l-0.067-0.573c0-0.547 0.227-1.013 0.24-1.053 1.253-2.64 1.88-5.453 1.88-8.427 0-2.907-0.627-5.747-1.893-8.427-0.6-1.24-0.067-2.733 1.173-3.333 0.347-0.16 0.707-0.24 1.080-0.24 0.96 0 1.853 0.56 2.253 1.427 0.773 1.627 1.373 3.333 1.773 5.080M21.493 12.667c0.187 1.093 0.293 2.213 0.293 3.333 0 2.667-0.52 5.227-1.52 7.627-0.12-2.013-0.6-3.947-1.387-5.707l0.080-0.947 0.040-1.027c0-2.773-0.72-5.48-2.107-7.853 1.773 1.28 3.347 2.853 4.6 4.573M5.333 14c-1.133-0.627-1.547-2-0.96-3.093 0.4-0.733 1.16-1.2 2-1.2 0.373 0 0.733 0.093 1.067 0.293 1.72 0.893 3.267 2.133 4.52 3.547l0.2 1.187 0.080 1.267c0 1.907-0.493 3.787-1.44 5.427-0.667-3.213-2.64-5.933-5.467-7.427z"></path>
</svg>
