<!-- Generated by IcoMoon.io -->
<svg version="1.1" xmlns="http://www.w3.org/2000/svg" width="32" height="32" viewBox="0 0 32 32">
<title>google</title>
<path d="M28.467 14.8h-12.227v3.64h8.68c-0.44 5.080-4.667 7.253-8.667 7.253-5.107 0-9.587-4.027-9.587-9.693 0-5.467 4.267-9.693 9.6-9.693 4.12 0 6.533 2.627 6.533 2.627l2.533-2.64s-3.253-3.627-9.2-3.627c-7.573 0-13.427 6.4-13.427 13.333 0 6.733 5.507 13.333 13.627 13.333 7.133 0 12.333-4.893 12.333-12.12 0-1.533-0.2-2.413-0.2-2.413z"></path>
</svg>
