<!-- Generated by IcoMoon.io -->
<svg version="1.1" xmlns="http://www.w3.org/2000/svg" width="32" height="32" viewBox="0 0 32 32">
<title>google-controller-off</title>
<path d="M2.667 7.027l1.707-1.693 22.293 22.293-1.693 1.707-8-8h-6.347l-3.96 4c-0.44 0.4-1.027 0.667-1.667 0.667-1.289 0-2.333-1.045-2.333-2.333v0-0.333l1.333-9.84c0.133-1.373 0.707-2.6 1.587-3.547l-2.92-2.92M6.667 13.333v1.333h2.667v2.667h1.333v-2.307l-1.693-1.693h-2.307M22 8c3.147 0 5.72 2.413 6 5.493l1.333 9.84v0.333c0 0.88-0.48 1.667-1.2 2.040l-17.707-17.707h11.573M22 10.667c-0.552 0-1 0.448-1 1v0c0 0.552 0.448 1 1 1v0c0.552 0 1-0.448 1-1v0c0-0.552-0.448-1-1-1v0M19.667 13c-0.552 0-1 0.448-1 1v0c0 0.552 0.448 1 1 1v0c0.552 0 1-0.448 1-1v0c0-0.552-0.448-1-1-1v0M24.333 13c-0.552 0-1 0.448-1 1v0c0 0.552 0.448 1 1 1v0c0.552 0 1-0.448 1-1v0c0-0.552-0.448-1-1-1v0M22 15.333c-0.552 0-1 0.448-1 1v0c0 0.552 0.448 1 1 1v0c0.552 0 1-0.448 1-1v0c0-0.552-0.448-1-1-1v0z"></path>
</svg>
