<!-- Generated by IcoMoon.io -->
<svg version="1.1" xmlns="http://www.w3.org/2000/svg" width="32" height="32" viewBox="0 0 32 32">
<title>grid</title>
<path d="M13.333 5.333v5.333h5.333v-5.333h-5.333M21.333 5.333v5.333h5.333v-5.333h-5.333M21.333 13.333v5.333h5.333v-5.333h-5.333M21.333 21.333v5.333h5.333v-5.333h-5.333M18.667 26.667v-5.333h-5.333v5.333h5.333M10.667 26.667v-5.333h-5.333v5.333h5.333M10.667 18.667v-5.333h-5.333v5.333h5.333M10.667 10.667v-5.333h-5.333v5.333h5.333M13.333 18.667h5.333v-5.333h-5.333v5.333M5.333 2.667h21.333c1.473 0 2.667 1.194 2.667 2.667v0 21.333c0 1.473-1.194 2.667-2.667 2.667h-21.333c-1.44 0-2.667-1.2-2.667-2.667v-21.333c0-1.473 1.194-2.667 2.667-2.667v0z"></path>
</svg>
