<!-- Generated by IcoMoon.io -->
<svg version="1.1" xmlns="http://www.w3.org/2000/svg" width="32" height="32" viewBox="0 0 32 32">
<title>hamburger</title>
<path d="M2.667 21.333h26.667v2.667c0 1.48-1.187 2.667-2.667 2.667h-21.333c-1.48 0-2.667-1.187-2.667-2.667v-2.667M8 5.333h16c2.96 0 5.333 2.373 5.333 5.333v2.667h-26.667v-2.667c0-2.96 2.373-5.333 5.333-5.333M5.333 14.667h14.667l2.667 2.667 2.667-2.667h1.333c1.48 0 2.667 1.187 2.667 2.667s-1.187 2.667-2.667 2.667h-21.333c-1.48 0-2.667-1.187-2.667-2.667s1.187-2.667 2.667-2.667z"></path>
</svg>
