<!-- Generated by IcoMoon.io -->
<svg version="1.1" xmlns="http://www.w3.org/2000/svg" width="32" height="32" viewBox="0 0 32 32">
<title>hand-pointing-right</title>
<path d="M28 12c0.736 0 1.333 0.597 1.333 1.333v0c0 0.736-0.597 1.333-1.333 1.333v0h-5.96l-0.173 1.613-2.933 6.587c-0.267 0.667-0.973 1.133-1.787 1.133h-5.813c-1.067 0-2-0.973-2-2v-8.667c0-0.52 0.213-0.987 0.573-1.333l5.6-6.533 1.027 0.987c0.267 0.253 0.427 0.6 0.427 0.987l-0.040 0.293-2.253 4.267h13.333M2.667 24v-10.667h4v10.667h-4z"></path>
</svg>
