<!-- Generated by IcoMoon.io -->
<svg version="1.1" xmlns="http://www.w3.org/2000/svg" width="32" height="32" viewBox="0 0 32 32">
<title>harddisk</title>
<path d="M8 2.667h16c1.473 0 2.667 1.194 2.667 2.667v21.333c0 1.473-1.194 2.667-2.667 2.667v0h-16c-1.473 0-2.667-1.194-2.667-2.667v-21.333c0-1.473 1.194-2.667 2.667-2.667v0M16 5.333c-4.418 0-8 3.582-8 8v0c0 4.413 3.587 8 8.133 8l-1.173-2.973c-0.11-0.191-0.175-0.42-0.175-0.663 0-0.494 0.266-0.925 0.662-1.16l0.006-0.003 1.147-0.667c0.191-0.11 0.42-0.175 0.663-0.175 0.494 0 0.925 0.266 1.16 0.662l0.003 0.006 2.56 3.227c1.843-1.473 3.013-3.72 3.013-6.241 0-0.004 0-0.009 0-0.013v0.001c0-4.418-3.582-8-8-8v0M16 12c0.736 0 1.333 0.597 1.333 1.333v0c0 0.736-0.597 1.333-1.333 1.333v0c-0.736 0-1.333-0.597-1.333-1.333v0c0-0.736 0.597-1.333 1.333-1.333v0M9.333 24c-0.736 0-1.333 0.597-1.333 1.333v0c0 0.736 0.597 1.333 1.333 1.333v0c0.736 0 1.333-0.597 1.333-1.333v0c0-0.736-0.597-1.333-1.333-1.333v0M16.12 17.693l3.32 8.413 3.453-2-5.627-7.080-1.147 0.667z"></path>
</svg>
