<!-- Generated by IcoMoon.io -->
<svg version="1.1" xmlns="http://www.w3.org/2000/svg" width="32" height="32" viewBox="0 0 32 32">
<title>headset-off</title>
<path d="M30 6.36l-2.76 2.76c0.493 1.307 0.76 2.733 0.76 4.213v13.333c0 2.209-1.791 4-4 4v0h-8v-2.667h9.333v-1.333h-5.333v-10.307l-8 8v2.307h-2.307l-3.333 3.333-1.693-1.707 23.627-23.627 1.707 1.693M16 1.333c0.008-0 0.017-0 0.027-0 3.362 0 6.4 1.389 8.57 3.624l0.003 0.003-1.88 1.893c-1.687-1.76-4.058-2.853-6.683-2.853-0.013 0-0.026 0-0.039 0h0.002c-5.155 0-9.333 4.179-9.333 9.333v2.667h5.333v1.573l-7.333 7.32c-0.413-0.64-0.667-1.4-0.667-2.227v-9.333c0-6.627 5.373-12 12-12v0M25.333 16v-2.667c0-0.72-0.080-1.413-0.227-2.080l-4.747 4.747h4.973z"></path>
</svg>
