<!-- Generated by IcoMoon.io -->
<svg version="1.1" xmlns="http://www.w3.org/2000/svg" width="32" height="32" viewBox="0 0 32 32">
<title>headset-dock</title>
<path d="M2.667 24h9.333v-15.827c-2.307 0.587-4 2.68-4 5.16v1.333h2.667v8h-2.667c-1.473 0-2.667-1.194-2.667-2.667v0-6.667c0-4.418 3.582-8 8-8v0h1.333c4.418 0 8 3.582 8 8v0 2.667h1.333v-4h2.667v4c0 1.473-1.194 2.667-2.667 2.667v0h-1.333v1.333c0 1.473-1.194 2.667-2.667 2.667v0h-2.667v-8h2.667v-1.333c0-2.48-1.693-4.573-4-5.16v15.827h13.333v2.667h-26.667v-2.667z"></path>
</svg>
