<!-- Generated by IcoMoon.io -->
<svg version="1.1" xmlns="http://www.w3.org/2000/svg" width="32" height="32" viewBox="0 0 32 32">
<title>heart-box</title>
<path d="M6.667 4h18.667c1.473 0 2.667 1.194 2.667 2.667v0 18.667c0 1.473-1.194 2.667-2.667 2.667v0h-18.667c-1.473 0-2.667-1.194-2.667-2.667v0-18.667c0-1.473 1.194-2.667 2.667-2.667v0M16 22.667l0.96-0.88c3.44-3.12 5.707-5.173 5.707-7.693 0-2.053-1.613-3.667-3.667-3.667-1.16 0-2.267 0.547-3 1.4-0.73-0.848-1.801-1.386-2.998-1.4l-0.002-0c-2.053 0-3.667 1.613-3.667 3.667 0 2.52 2.267 4.573 5.707 7.693l0.96 0.88z"></path>
</svg>
