<!-- Generated by IcoMoon.io -->
<svg version="1.1" xmlns="http://www.w3.org/2000/svg" width="32" height="32" viewBox="0 0 32 32">
<title>help-circle-outline</title>
<path d="M14.667 24h2.667v-2.667h-2.667v2.667M16 2.667c-7.364 0-13.333 5.97-13.333 13.333v0c0 7.364 5.97 13.333 13.333 13.333v0c7.364 0 13.333-5.97 13.333-13.333v0c0-7.364-5.97-13.333-13.333-13.333v0M16 26.667c-5.88 0-10.667-4.787-10.667-10.667s4.787-10.667 10.667-10.667 10.667 4.787 10.667 10.667-4.787 10.667-10.667 10.667M16 8c-2.946 0-5.333 2.388-5.333 5.333v0h2.667c0-1.473 1.194-2.667 2.667-2.667v0c1.473 0 2.667 1.194 2.667 2.667v0c0 2.667-4 2.333-4 6.667h2.667c0-3 4-3.333 4-6.667 0-2.946-2.388-5.333-5.333-5.333v0z"></path>
</svg>
