<!-- Generated by IcoMoon.io -->
<svg version="1.1" xmlns="http://www.w3.org/2000/svg" width="32" height="32" viewBox="0 0 32 32">
<title>help-circle</title>
<path d="M20.093 15l-1.2 1.227c-0.96 0.96-1.56 1.773-1.56 3.773h-2.667v-0.667c0-1.48 0.6-2.813 1.56-3.773l1.653-1.68c0.493-0.48 0.787-1.147 0.787-1.88 0-1.473-1.194-2.667-2.667-2.667v0c-1.473 0-2.667 1.194-2.667 2.667h-2.667c0-2.946 2.388-5.333 5.333-5.333v0c2.946 0 5.333 2.388 5.333 5.333v0c-0.002 1.171-0.475 2.231-1.24 3l0-0M17.333 25.333h-2.667v-2.667h2.667M16 2.667c-7.364 0-13.333 5.97-13.333 13.333v0c0 7.364 5.97 13.333 13.333 13.333v0c7.364 0 13.333-5.97 13.333-13.333v0c0-7.373-6-13.333-13.333-13.333z"></path>
</svg>
