<!-- Generated by IcoMoon.io -->
<svg version="1.1" xmlns="http://www.w3.org/2000/svg" width="32" height="32" viewBox="0 0 32 32">
<title>history</title>
<path d="M14.667 9.333v6.813l6.28 3.72 1.053-1.707-5.333-3.16v-5.667M16.667 2.667c-4.707 0-8.787 2.56-10.973 6.36l-3.027-3.027v8.667h8.667l-3.667-3.667c1.613-3.36 5-5.667 9-5.667 5.523 0 10 4.477 10 10v0c0 5.523-4.477 10-10 10v0c-4.36 0-8.040-2.787-9.413-6.667h-2.8c1.467 5.373 6.36 9.333 12.213 9.333 6.987 0 12.667-5.667 12.667-12.667 0-6.996-5.671-12.667-12.667-12.667v0z"></path>
</svg>
