<!-- Generated by IcoMoon.io -->
<svg version="1.1" xmlns="http://www.w3.org/2000/svg" width="32" height="32" viewBox="0 0 32 32">
<title>hook-off</title>
<path d="M17.333 13.147v1.76l2.667 2.667v-4.427c2.853-0.733 4.573-3.64 3.827-6.48-0.606-2.329-2.69-4.020-5.169-4.020-0.471 0-0.927 0.061-1.361 0.175l0.037-0.008c-2.319 0.618-3.999 2.699-3.999 5.172 0 0.479 0.063 0.943 0.181 1.385l-0.008-0.037c0.493 1.867 1.947 3.333 3.827 3.813M18.667 5.333c1.473 0 2.667 1.194 2.667 2.667v0c0 1.473-1.194 2.667-2.667 2.667v0c-1.473 0-2.667-1.194-2.667-2.667v0c0-1.473 1.194-2.667 2.667-2.667v0M24.973 29.333l-5.16-5.16c-0.738 2.95-3.366 5.101-6.496 5.101-0.548 0-1.080-0.066-1.59-0.19l0.046 0.009c-2.973-0.72-5.107-3.373-5.107-6.427v-6.667l6.667 6.667h-4c0 2.209 1.791 4 4 4v0c2.209 0 4-1.791 4-4v0-0.973l-14.667-14.667 1.707-1.693 22.293 22.293-1.693 1.707z"></path>
</svg>
