<!-- Generated by IcoMoon.io -->
<svg version="1.1" xmlns="http://www.w3.org/2000/svg" width="32" height="32" viewBox="0 0 32 32">
<title>hook</title>
<path d="M24 8c-0.003 2.466-1.684 4.539-3.963 5.138l-0.037 0.008v9.52c0 3.682-2.985 6.667-6.667 6.667v0c-3.682 0-6.667-2.985-6.667-6.667v0-6.667l6.667 6.667h-4c0 2.209 1.791 4 4 4v0c2.209 0 4-1.791 4-4v0-9.52c-2.36-0.613-4-2.747-4-5.187 0-2.947 2.4-5.293 5.333-5.293 2.96 0 5.333 2.387 5.333 5.333M18.667 10.667c1.473 0 2.667-1.194 2.667-2.667v0c0-1.473-1.194-2.667-2.667-2.667v0c-1.473 0-2.667 1.194-2.667 2.667v0c0 1.473 1.194 2.667 2.667 2.667v0z"></path>
</svg>
