<!-- Generated by IcoMoon.io -->
<svg version="1.1" xmlns="http://www.w3.org/2000/svg" width="32" height="32" viewBox="0 0 32 32">
<title>hops</title>
<path d="M28 16s-11.333-2.667-11.333-13.333c0 0 11.333 0 11.333 13.333M4 16c0-13.333 11.333-13.333 11.333-13.333 0 10.667-11.333 13.333-11.333 13.333M16 8.667s1.333 2.88 4 5.333c-0.32 4.88-4 7.333-4 7.333s-3.68-2.453-4-7.333c2.667-2.453 4-5.333 4-5.333M27.667 17.667s-1 5-3.667 7.667c0 0-3.293-2.187-4.893-5.587 0.96-1.64 1.56-3.587 1.893-4.907 1.84 1.4 4 2.493 6.667 2.827M20.667 24.333c-1.333 2.667-4.667 4.667-4.667 4.667s-3.333-2-4.667-4.667c0 0 1.453-1.213 2.467-3.267 0.627 0.733 1.347 1.32 2.2 1.6 0.853-0.28 1.573-0.867 2.2-1.6 1.013 2.053 2.467 3.267 2.467 3.267M4.333 17.667c2.667-0.333 4.827-1.427 6.667-2.827 0.333 1.32 0.933 3.267 1.893 4.907-1.6 3.4-4.893 5.587-4.893 5.587-2.667-2.667-3.667-7.667-3.667-7.667z"></path>
</svg>
