<!-- Generated by IcoMoon.io -->
<svg version="1.1" xmlns="http://www.w3.org/2000/svg" width="32" height="32" viewBox="0 0 32 32">
<title>hospital-building</title>
<path d="M2.667 29.333v-20c0-0.736 0.597-1.333 1.333-1.333h5.333v-5.333h13.333v5.333h5.333c0.736 0 1.333 0.597 1.333 1.333v0 20h-10.667v-6.667h-5.333v6.667h-10.667M12 5.333v8h2.667v-2.667h2.667v2.667h2.667v-8h-2.667v2.667h-2.667v-2.667h-2.667M5.333 26.667h5.333v-4h-5.333v4M5.333 20h5.333v-4h-5.333v4M21.333 26.667h5.333v-4h-5.333v4M21.333 20h5.333v-4h-5.333v4M13.333 20h5.333v-4h-5.333v4z"></path>
</svg>
