<!-- Generated by IcoMoon.io -->
<svg version="1.1" xmlns="http://www.w3.org/2000/svg" width="32" height="32" viewBox="0 0 32 32">
<title>human-male-female</title>
<path d="M10 2.667c1.473 0 2.667 1.194 2.667 2.667v0c0 1.473-1.194 2.667-2.667 2.667v0c-1.473 0-2.667-1.194-2.667-2.667v0c0-1.473 1.194-2.667 2.667-2.667v0M8 9.333h4c1.473 0 2.667 1.194 2.667 2.667v0 7.333h-2v10h-5.333v-10h-2v-7.333c0-1.473 1.194-2.667 2.667-2.667v0M22 2.667c1.473 0 2.667 1.194 2.667 2.667v0c0 1.473-1.194 2.667-2.667 2.667v0c-1.473 0-2.667-1.194-2.667-2.667v0c0-1.473 1.194-2.667 2.667-2.667v0M20 29.333v-8h-4l3.453-10.12c0.333-1.093 1.347-1.88 2.547-1.88s2.213 0.787 2.547 1.88l3.453 10.12h-4v8h-4z"></path>
</svg>
