<!-- Generated by IcoMoon.io -->
<svg version="1.1" xmlns="http://www.w3.org/2000/svg" width="32" height="32" viewBox="0 0 32 32">
<title>image-filter-center-focus-weak</title>
<path d="M6.667 20h-2.667v5.333c0 1.473 1.194 2.667 2.667 2.667v0h5.333v-2.667h-5.333M6.667 6.667h5.333v-2.667h-5.333c-1.473 0-2.667 1.194-2.667 2.667v0 5.333h2.667M25.333 4h-5.333v2.667h5.333v5.333h2.667v-5.333c0-1.473-1.194-2.667-2.667-2.667v0M25.333 25.333h-5.333v2.667h5.333c1.473 0 2.667-1.194 2.667-2.667v0-5.333h-2.667M16 10.667c-2.946 0-5.333 2.388-5.333 5.333v0c0 2.946 2.388 5.333 5.333 5.333v0c2.946 0 5.333-2.388 5.333-5.333v0c0-2.946-2.388-5.333-5.333-5.333v0M16 18.667c-1.473 0-2.667-1.194-2.667-2.667v0c0-1.473 1.194-2.667 2.667-2.667v0c1.473 0 2.667 1.194 2.667 2.667v0c0 1.473-1.194 2.667-2.667 2.667v0z"></path>
</svg>
