<!-- Generated by IcoMoon.io -->
<svg version="1.1" xmlns="http://www.w3.org/2000/svg" width="32" height="32" viewBox="0 0 32 32">
<title>image-filter-drama</title>
<path d="M25.333 24h-17.333c-2.946 0-5.333-2.388-5.333-5.333v0c0-2.946 2.388-5.333 5.333-5.333v0c2.946 0 5.333 2.388 5.333 5.333v0h2.667c0-3.68-2.48-6.773-5.867-7.707 1.347-1.787 3.467-2.96 5.867-2.96 4.040 0 7.333 3.293 7.333 7.333v0.667h2c2.209 0 4 1.791 4 4v0c0 2.209-1.791 4-4 4v0M25.8 13.387c-0.936-4.622-4.966-8.053-9.798-8.053-0.001 0-0.002 0-0.002 0h0c-3.831 0.001-7.158 2.162-8.827 5.332l-0.026 0.055c-4.034 0.443-7.145 3.831-7.147 7.947v0c0 4.418 3.582 8 8 8v0h17.333c3.682 0 6.667-2.985 6.667-6.667v0c0-3.52-2.733-6.373-6.2-6.613z"></path>
</svg>
