<!-- Generated by IcoMoon.io -->
<svg version="1.1" xmlns="http://www.w3.org/2000/svg" width="32" height="32" viewBox="0 0 32 32">
<title>image-filter</title>
<path d="M28 22.667h-18.667v-18.667h18.667M28 1.333h-18.667c-1.473 0-2.667 1.194-2.667 2.667v0 18.667c0 1.473 1.194 2.667 2.667 2.667h18.667c1.473 0 2.667-1.194 2.667-2.667v-18.667c0-1.473-1.194-2.667-2.667-2.667v0M4 6.667h-2.667v21.333c0 1.473 1.194 2.667 2.667 2.667h21.333v-2.667h-21.333M21.28 13.72l-3.667 4.72-2.613-3.147-3.667 4.707h14.667l-4.72-6.28z"></path>
</svg>
