<!-- Generated by IcoMoon.io -->
<svg version="1.1" xmlns="http://www.w3.org/2000/svg" width="32" height="32" viewBox="0 0 32 32">
<title>image-broken</title>
<path d="M25.333 4c1.473 0 2.667 1.194 2.667 2.667v0 8h-2.667v2.667h-2.667v2.667h-2.667v2.667h-2.667v2.667h-2.667v2.667h-8c-1.473 0-2.667-1.194-2.667-2.667v0-18.667c0-1.473 1.194-2.667 2.667-2.667v0h18.667M28 20v5.333c0 1.473-1.194 2.667-2.667 2.667v0h-5.333v-2.667h2.667v-2.667h2.667v-2.667h2.667M25.333 11.333c0-0.368-0.298-0.667-0.667-0.667h-17.333c-0.368 0-0.667 0.298-0.667 0.667v0 9.333c0 0.368 0.298 0.667 0.667 0.667h7.333v-1.333h2.667v-2.667h2.667v-2.667h2.667v-2.667h2.667v-0.667z"></path>
</svg>
