<!-- Generated by IcoMoon.io -->
<svg version="1.1" xmlns="http://www.w3.org/2000/svg" width="32" height="32" viewBox="0 0 32 32">
<title>inbox-arrow-up</title>
<path d="M18.667 18.667h-5.333v-4h-2.667l5.333-5.333 5.333 5.333h-2.667v4M6.667 20v-13.333h18.667v13.333h-5.333c0 2.209-1.791 4-4 4v0c-2.209 0-4-1.791-4-4v0h-5.333M25.333 4h-18.667c-1.473 0-2.667 1.194-2.667 2.667v0 18.667c0 1.473 1.194 2.667 2.667 2.667v0h18.667c1.473 0 2.667-1.194 2.667-2.667v0-18.667c0-1.473-1.194-2.667-2.667-2.667v0"></path>
</svg>
