<!-- Generated by IcoMoon.io -->
<svg version="1.1" xmlns="http://www.w3.org/2000/svg" width="32" height="32" viewBox="0 0 32 32">
<title>incognito</title>
<path d="M16 4c-3.587 0-6.12 1.627-6.12 1.627l-1.88 6.373h16l-1.88-6.373s-2.533-1.627-6.12-1.627M16 14.667c-3.64 0-8.813 0.72-9.16 0.787-1.387 0.373-2.507 0.747-3.387 1.093-1.347 0.453-2.12 0.787-2.12 0.787h29.333s-0.773-0.333-2.12-0.787c-0.88-0.347-2.027-0.72-3.427-1.093 0 0-5.36-0.787-9.12-0.787M10 18.667c-2.577 0-4.667 2.089-4.667 4.667v0c0 2.577 2.089 4.667 4.667 4.667v0c2.577 0 4.667-2.089 4.667-4.667v0c0-0.213 0-0.427-0.040-0.627 0.427-0.093 0.88-0.173 1.373-0.16 0.493 0 0.947 0.067 1.373 0.16-0.040 0.2-0.040 0.413-0.040 0.627 0 2.577 2.089 4.667 4.667 4.667v0c2.577 0 4.667-2.089 4.667-4.667v0c0-2.577-2.089-4.667-4.667-4.667v0c-1.96 0-3.64 1.2-4.333 2.92-0.427-0.133-0.933-0.253-1.667-0.253s-1.24 0.12-1.667 0.253c-0.71-1.727-2.378-2.92-4.326-2.92-0.003 0-0.005 0-0.008 0h0M10 20c1.841 0 3.333 1.492 3.333 3.333v0c0 1.841-1.492 3.333-3.333 3.333v0c-1.841 0-3.333-1.492-3.333-3.333v0c0-1.841 1.492-3.333 3.333-3.333v0M22 20c1.841 0 3.333 1.492 3.333 3.333v0c0 1.841-1.492 3.333-3.333 3.333v0c-1.841 0-3.333-1.492-3.333-3.333v0c0-1.841 1.492-3.333 3.333-3.333v0z"></path>
</svg>
