<!-- Generated by IcoMoon.io -->
<svg version="1.1" xmlns="http://www.w3.org/2000/svg" width="32" height="32" viewBox="0 0 32 32">
<title>instagram</title>
<path d="M10.4 2.667h11.2c4.267 0 7.733 3.467 7.733 7.733v11.2c0 4.271-3.462 7.733-7.733 7.733h-11.2c-4.267 0-7.733-3.467-7.733-7.733v-11.2c0-4.271 3.462-7.733 7.733-7.733v0M10.133 5.333c-2.651 0-4.8 2.149-4.8 4.8v0 11.733c0 2.653 2.147 4.8 4.8 4.8h11.733c2.651 0 4.8-2.149 4.8-4.8v0-11.733c0-2.653-2.147-4.8-4.8-4.8h-11.733M23 7.333c0.92 0 1.667 0.746 1.667 1.667v0c0 0.92-0.746 1.667-1.667 1.667v0c-0.92 0-1.667-0.746-1.667-1.667v0c0-0.92 0.746-1.667 1.667-1.667v0M16 9.333c3.682 0 6.667 2.985 6.667 6.667v0c0 3.682-2.985 6.667-6.667 6.667v0c-3.682 0-6.667-2.985-6.667-6.667v0c0-3.682 2.985-6.667 6.667-6.667v0M16 12c-2.209 0-4 1.791-4 4v0c0 2.209 1.791 4 4 4v0c2.209 0 4-1.791 4-4v0c0-2.209-1.791-4-4-4v0z"></path>
</svg>
