<!-- Generated by IcoMoon.io -->
<svg version="1.1" xmlns="http://www.w3.org/2000/svg" width="32" height="32" viewBox="0 0 32 32">
<title>invert-colors</title>
<path d="M16 26.107c-2.133 0-4.147-0.827-5.653-2.333-1.449-1.438-2.347-3.431-2.347-5.633 0-0.012 0-0.023 0-0.035v0.002c0-2.107 0.827-4.147 2.347-5.653l5.653-5.653M23.547 10.573l-7.547-7.547-7.547 7.547c-4.16 4.16-4.16 10.92 0 15.080 1.926 1.928 4.587 3.12 7.527 3.12 0.007 0 0.014 0 0.020-0h-0.001c2.733 0 5.467-1.040 7.547-3.12 4.16-4.16 4.16-10.92 0-15.080z"></path>
</svg>
