<!-- Generated by IcoMoon.io -->
<svg version="1.1" xmlns="http://www.w3.org/2000/svg" width="32" height="32" viewBox="0 0 32 32">
<title>jeepney</title>
<path d="M25.333 17.333v-8h1.333v-4h-21.333v4h1.333v8h-4c0 1.24 0.667 2.28 2 2.573v6.76c0 0.736 0.597 1.333 1.333 1.333v0h1.333c0.736 0 1.333-0.597 1.333-1.333v-1.333h14.667v1.333c0 0.736 0.597 1.333 1.333 1.333h1.333c0.736 0 1.333-0.597 1.333-1.333v-6.76c1.333-0.307 2-1.333 2-2.573h-4M10.667 20c-1.105 0-2-0.895-2-2v0c0-1.105 0.895-2 2-2v0c1.105 0 2 0.895 2 2v0c0 1.105-0.895 2-2 2v0M21.333 20c-1.105 0-2-0.895-2-2v0c0-1.105 0.895-2 2-2v0c1.105 0 2 0.895 2 2v0c0 1.105-0.895 2-2 2v0M23.333 14c-2.107-0.427-4.627-0.667-7.333-0.667s-5.333 0.24-7.333 0.667v-4.667h14.667v4.667z"></path>
</svg>
