<!-- Generated by IcoMoon.io -->
<svg version="1.1" xmlns="http://www.w3.org/2000/svg" width="32" height="32" viewBox="0 0 32 32">
<title>key-change</title>
<path d="M8.667 2.667c2.613 0 4.84 1.667 5.653 4h15.013v4h-5.333v4h-4v-4h-5.68c-0.813 2.333-3.040 4-5.653 4-3.333 0-6-2.667-6-6s2.667-6 6-6M8.667 6.667c-1.105 0-2 0.895-2 2v0c0 1.105 0.895 2 2 2v0c1.105 0 2-0.895 2-2v0c0-1.105-0.895-2-2-2v0M8.667 17.333c2.613 0 4.84 1.667 5.653 4h15.013v4h-2.667v4h-2.667v-4h-2.667v4h-4v-4h-3.013c-0.813 2.333-3.040 4-5.653 4-3.333 0-6-2.667-6-6s2.667-6 6-6M8.667 21.333c-1.105 0-2 0.895-2 2v0c0 1.105 0.895 2 2 2v0c1.105 0 2-0.895 2-2v0c0-1.105-0.895-2-2-2v0z"></path>
</svg>
