<!-- Generated by IcoMoon.io -->
<svg version="1.1" xmlns="http://www.w3.org/2000/svg" width="32" height="32" viewBox="0 0 32 32">
<title>key-variant</title>
<path d="M29.333 24v5.333h-5.333v-4h-4v-4h-4l-3.013-3.013c-0.733 0.227-1.507 0.347-2.32 0.347-4.418 0-8-3.582-8-8v0c0-4.418 3.582-8 8-8v0c4.418 0 8 3.582 8 8v0c0 0.813-0.12 1.587-0.347 2.32l11.013 11.013M9.333 6.667c-1.473 0-2.667 1.194-2.667 2.667v0c0 1.473 1.194 2.667 2.667 2.667v0c1.473 0 2.667-1.194 2.667-2.667v0c0-1.473-1.194-2.667-2.667-2.667v0z"></path>
</svg>
