<!-- Generated by IcoMoon.io -->
<svg version="1.1" xmlns="http://www.w3.org/2000/svg" width="32" height="32" viewBox="0 0 32 32">
<title>keyboard-off</title>
<path d="M1.333 5.693l1.707-1.693 23.627 23.627-1.693 1.707-4-4h-15.64c-1.473 0-2.667-1.194-2.667-2.667v-13.333c0-0.667 0.24-1.24 0.613-1.693l-1.947-1.947M25.333 13.333v-2.667h-2.667v2.667h2.667M25.333 17.333v-2.667h-2.667v2.667h2.667M21.333 13.333v-2.667h-2.667v2.667h2.667M21.333 17.333v-2.667h-2.667v1.573l-2.907-2.907h1.573v-2.667h-2.667v1.573l-5.573-5.573h17.573c1.473 0 2.667 1.194 2.667 2.667v13.333c0 1.147-0.72 2.12-1.733 2.493l-7.84-7.827h1.573M10.667 20v2.667h7.64l-2.667-2.667h-4.973M6.667 13.333h2.307l-2.307-2.307v2.307M9.333 17.333v-2.667h-2.667v2.667h2.667M10.667 17.333h2.307l-2.307-2.307v2.307z"></path>
</svg>
