<!-- Generated by IcoMoon.io -->
<svg version="1.1" xmlns="http://www.w3.org/2000/svg" width="32" height="32" viewBox="0 0 32 32">
<title>lan</title>
<path d="M13.333 2.667c-1.48 0-2.667 1.187-2.667 2.667v4c0 1.48 1.187 2.667 2.667 2.667h1.333v2.667h-12v2.667h5.333v2.667h-1.333c-1.48 0-2.667 1.187-2.667 2.667v4c0 1.48 1.187 2.667 2.667 2.667h5.333c1.48 0 2.667-1.187 2.667-2.667v-4c0-1.48-1.187-2.667-2.667-2.667h-1.333v-2.667h10.667v2.667h-1.333c-1.48 0-2.667 1.187-2.667 2.667v4c0 1.48 1.187 2.667 2.667 2.667h5.333c1.48 0 2.667-1.187 2.667-2.667v-4c0-1.48-1.187-2.667-2.667-2.667h-1.333v-2.667h5.333v-2.667h-12v-2.667h1.333c1.48 0 2.667-1.187 2.667-2.667v-4c0-1.48-1.187-2.667-2.667-2.667h-5.333M13.333 5.333h5.333v4h-5.333v-4M6.667 22.667h5.333v4h-5.333v-4M20 22.667h5.333v4h-5.333v-4z"></path>
</svg>
