<!-- Generated by IcoMoon.io -->
<svg version="1.1" xmlns="http://www.w3.org/2000/svg" width="32" height="32" viewBox="0 0 32 32">
<title>language-php</title>
<path d="M16 24.107c-8.84 0-16-3.627-16-8.107s7.16-8.107 16-8.107 16 3.627 16 8.107-7.16 8.107-16 8.107M9.080 13.507c0.72 0 1.213 0.133 1.453 0.413 0.24 0.267 0.293 0.747 0.173 1.373-0.133 0.707-0.387 1.16-0.773 1.453-0.373 0.293-0.947 0.44-1.72 0.44h-1.16l0.707-3.68h1.32M4.413 20.907h1.92l0.453-2.333h1.64c0.72 0 1.307-0.080 1.773-0.227 0.467-0.16 0.893-0.413 1.28-0.773 0.32-0.293 0.573-0.613 0.773-0.973 0.2-0.347 0.347-0.747 0.413-1.173 0.213-1.040 0.067-1.853-0.44-2.427-0.52-0.587-1.32-0.867-2.427-0.867h-3.68l-1.707 8.773M14.080 9.8l-1.707 8.773h1.893l0.987-5.027h1.52c0.48 0 0.8 0.080 0.947 0.24s0.173 0.453 0.093 0.88l-0.76 3.907h1.933l0.787-4.093c0.173-0.827 0.040-1.427-0.36-1.813-0.4-0.36-1.133-0.533-2.2-0.533h-1.693l0.48-2.333h-1.92M24 13.507c0.733 0 1.213 0.133 1.453 0.413 0.24 0.267 0.293 0.747 0.173 1.373-0.133 0.707-0.387 1.16-0.76 1.453-0.387 0.293-0.96 0.44-1.733 0.44h-1.133l0.667-3.68h1.333M19.333 20.907h1.92l0.453-2.333h1.627c0.733 0 1.333-0.080 1.8-0.227 0.467-0.16 0.867-0.413 1.267-0.773 0.32-0.293 0.587-0.613 0.773-0.973 0.2-0.347 0.347-0.747 0.427-1.173 0.2-1.040 0.053-1.853-0.453-2.427-0.48-0.587-1.32-0.867-2.427-0.867h-3.667l-1.72 8.773z"></path>
</svg>
