<!-- Generated by IcoMoon.io -->
<svg version="1.1" xmlns="http://www.w3.org/2000/svg" width="32" height="32" viewBox="0 0 32 32">
<title>language-javascript</title>
<path d="M4 4h24v24h-24v-24M10.307 24.053c0.533 1.133 1.587 2.067 3.387 2.067 2 0 3.373-1.067 3.373-3.4v-7.707h-2.267v7.653c0 1.147-0.467 1.44-1.2 1.44-0.773 0-1.093-0.533-1.453-1.16l-1.84 1.107M18.28 23.813c0.667 1.307 2.013 2.307 4.12 2.307 2.133 0 3.733-1.107 3.733-3.147 0-1.88-1.080-2.72-3-3.547l-0.56-0.24c-0.973-0.413-1.387-0.693-1.387-1.36 0-0.547 0.413-0.973 1.080-0.973 0.64 0 1.067 0.28 1.453 0.973l1.747-1.16c-0.733-1.28-1.773-1.773-3.2-1.773-2.013 0-3.307 1.28-3.307 2.973 0 1.84 1.080 2.707 2.707 3.4l0.56 0.24c1.040 0.453 1.653 0.733 1.653 1.507 0 0.64-0.6 1.107-1.533 1.107-1.107 0-1.747-0.573-2.227-1.373l-1.84 1.067z"></path>
</svg>
