<!-- Generated by IcoMoon.io -->
<svg version="1.1" xmlns="http://www.w3.org/2000/svg" width="32" height="32" viewBox="0 0 32 32">
<title>language-csharp</title>
<path d="M15.333 21.293l0.547 3.253c-0.347 0.187-0.907 0.36-1.653 0.52-0.76 0.173-1.653 0.267-2.68 0.267-2.947-0.053-5.16-0.933-6.64-2.613-1.493-1.693-2.24-3.84-2.24-6.44 0.067-3.080 0.96-5.44 2.667-7.093 1.76-1.667 3.947-2.52 6.587-2.52 1 0 1.867 0.093 2.587 0.253s1.253 0.333 1.6 0.533l-0.773 3.32-1.413-0.453c-0.533-0.133-1.147-0.2-1.853-0.2-1.547-0.013-2.827 0.48-3.827 1.467-1.013 0.973-1.533 2.467-1.573 4.453 0 1.813 0.493 3.227 1.44 4.267 0.947 1.027 2.28 1.56 3.987 1.573l1.773-0.16c0.573-0.107 1.053-0.253 1.467-0.427M18.52 25.333l0.813-5.333h-2l0.453-2.667h2l0.427-2.667h-2l0.453-2.667h2l0.813-5.333h2.667l-0.813 5.333h1.333l0.813-5.333h2.667l-0.813 5.333h2l-0.453 2.667h-2l-0.427 2.667h2l-0.453 2.667h-2l-0.813 5.333h-2.667l0.813-5.333h-1.333l-0.813 5.333h-2.667M22.453 17.333h1.333l0.427-2.667h-1.333l-0.427 2.667z"></path>
</svg>
