<!-- Generated by IcoMoon.io -->
<svg version="1.1" xmlns="http://www.w3.org/2000/svg" width="32" height="32" viewBox="0 0 32 32">
<title>laptop-mac</title>
<path d="M16 25.333c-0.736 0-1.333-0.597-1.333-1.333v0c0-0.736 0.597-1.333 1.333-1.333v0c0.736 0 1.333 0.597 1.333 1.333v0c0 0.736-0.597 1.333-1.333 1.333v0M5.333 6.667h21.333v14.667h-21.333M26.667 24c1.473 0 2.667-1.194 2.667-2.667v0-14.667c0-1.473-1.194-2.667-2.667-2.667h-21.333c-1.48 0-2.667 1.187-2.667 2.667v14.667c0 1.473 1.194 2.667 2.667 2.667h-5.333c0 1.473 1.194 2.667 2.667 2.667v0h26.667c1.473 0 2.667-1.194 2.667-2.667v0h-5.333z"></path>
</svg>
