<!-- Generated by IcoMoon.io -->
<svg version="1.1" xmlns="http://www.w3.org/2000/svg" width="32" height="32" viewBox="0 0 32 32">
<title>lastfm</title>
<path d="M24 23.907c-2.773-0.013-4.253-1.373-5.28-3.787l-0.293-0.653-2.533-5.827c-0.84-2.053-2.933-3.453-5.28-3.453-3.187 0-5.773 2.6-5.773 5.813s2.587 5.813 5.773 5.813c2.213 0 4.16-1.267 5.12-3.147l1.027 2.413c-1.452 1.787-3.65 2.92-6.112 2.92-0.012 0-0.024-0-0.036-0h0.002c-4.387 0-7.947-3.573-7.947-8 0-4.413 3.56-8 7.947-8 3.307 0 5.987 1.787 7.347 4.933 0.093 0.253 1.427 3.387 2.6 6.053 0.72 1.68 1.333 2.76 3.32 2.827 1.96 0.067 3.307-1.147 3.307-2.653 0-1.48-1.027-1.827-2.76-2.413-3.093-1.027-4.707-2.080-4.707-4.547 0-2.427 1.613-4.040 4.28-4.040 1.747 0 2.987 0.773 3.853 2.32l-1.693 0.853c-0.64-0.88-1.347-1.24-2.24-1.24-1.253 0-2.147 0.88-2.147 2.040 0 1.653 1.467 1.907 3.52 2.573 2.76 0.907 4.040 1.96 4.040 4.52 0 2.707-2.307 4.68-5.333 4.68z"></path>
</svg>
