<!-- Generated by IcoMoon.io -->
<svg version="1.1" xmlns="http://www.w3.org/2000/svg" width="32" height="32" viewBox="0 0 32 32">
<title>led-on</title>
<path d="M14.667 0v5.333h2.667v-5.333h-2.667M24.4 3.053l-4.080 4 1.867 1.893 4.080-4-1.867-1.893M7.613 3.053l-1.893 1.893 4 4 1.893-1.893-4-4M16 8c-2.946 0-5.333 2.388-5.333 5.333v0 8h-2.667v2.667h4v6.667h2.667v-6.667h2.667v6.667h2.667v-6.667h4v-2.667h-2.667v-8c0-2.946-2.388-5.333-5.333-5.333v0M2.667 12v2.667h5.333v-2.667h-5.333M24 12v2.667h5.333v-2.667h-5.333z"></path>
</svg>
