<!-- Generated by IcoMoon.io -->
<svg version="1.1" xmlns="http://www.w3.org/2000/svg" width="32" height="32" viewBox="0 0 32 32">
<title>lightbulb-on</title>
<path d="M16 8c4.418 0 8 3.582 8 8v0c0 2.96-1.613 5.547-4 6.933v2.4c0 0.736-0.597 1.333-1.333 1.333v0h-5.333c-0.736 0-1.333-0.597-1.333-1.333v0-2.4c-2.387-1.387-4-3.973-4-6.933 0-4.418 3.582-8 8-8v0M18.667 28v1.333c0 0.736-0.597 1.333-1.333 1.333h-2.667c-0.736 0-1.333-0.597-1.333-1.333v0-1.333h5.333M26.667 14.667h4v2.667h-4v-2.667M1.333 14.667h4v2.667h-4v-2.667M17.333 1.333v4h-2.667v-4h2.667M6.56 4.667l2.84 2.853-1.893 1.88-2.84-2.827 1.893-1.907M22.6 7.507l2.827-2.84 1.907 1.907-2.84 2.827-1.893-1.893z"></path>
</svg>
