<!-- Generated by IcoMoon.io -->
<svg version="1.1" xmlns="http://www.w3.org/2000/svg" width="32" height="32" viewBox="0 0 32 32">
<title>link</title>
<path d="M21.333 8h-4v2.533h4c3.019 0 5.467 2.447 5.467 5.467v0c0 3.019-2.448 5.467-5.467 5.467v0h-4v2.533h4c4.418 0 8-3.582 8-8v0c0-4.427-3.587-8-8-8M5.2 16c0-3.019 2.447-5.467 5.467-5.467h4v-2.533h-4c-4.418 0-8 3.582-8 8v0c0 4.418 3.582 8 8 8v0h4v-2.533h-4c-3.013 0-5.467-2.453-5.467-5.467M10.667 17.333h10.667v-2.667h-10.667v2.667z"></path>
</svg>
