<!-- Generated by IcoMoon.io -->
<svg version="1.1" xmlns="http://www.w3.org/2000/svg" width="32" height="32" viewBox="0 0 32 32">
<title>lock</title>
<path d="M16 22.667c1.473 0 2.667-1.194 2.667-2.667v0c0-1.473-1.194-2.667-2.667-2.667v0c-1.473 0-2.667 1.194-2.667 2.667v0c0 1.473 1.194 2.667 2.667 2.667v0M24 10.667c1.473 0 2.667 1.194 2.667 2.667v13.333c0 1.473-1.194 2.667-2.667 2.667v0h-16c-1.473 0-2.667-1.194-2.667-2.667v-13.333c0-1.473 1.194-2.667 2.667-2.667v0h1.333v-2.667c0-3.682 2.985-6.667 6.667-6.667v0c3.682 0 6.667 2.985 6.667 6.667v0 2.667h1.333M16 4c-2.209 0-4 1.791-4 4v0 2.667h8v-2.667c0-2.209-1.791-4-4-4v0z"></path>
</svg>
