<!-- Generated by IcoMoon.io -->
<svg version="1.1" xmlns="http://www.w3.org/2000/svg" width="32" height="32" viewBox="0 0 32 32">
<title>lock-pattern</title>
<path d="M9.333 4c2.946 0 5.333 2.388 5.333 5.333v0c0 2.48-1.693 4.573-4 5.16v3.013c0.493 0.12 0.96 0.32 1.387 0.573l6.027-6.027c-0.48-0.8-0.747-1.72-0.747-2.72 0-2.946 2.388-5.333 5.333-5.333v0c2.946 0 5.333 2.388 5.333 5.333v0c0 2.946-2.388 5.333-5.333 5.333v0c-0.987 0-1.907-0.267-2.667-0.733l-6.067 6.067c0.467 0.76 0.733 1.68 0.733 2.667 0 2.946-2.388 5.333-5.333 5.333v0c-2.946 0-5.333-2.388-5.333-5.333v0c0-2.48 1.693-4.573 4-5.16v-3.013c-2.307-0.587-4-2.68-4-5.16 0-2.946 2.388-5.333 5.333-5.333v0M22.667 17.333c2.946 0 5.333 2.388 5.333 5.333v0c0 2.946-2.388 5.333-5.333 5.333v0c-2.946 0-5.333-2.388-5.333-5.333v0c0-2.946 2.388-5.333 5.333-5.333v0M22.667 20c-1.473 0-2.667 1.194-2.667 2.667v0c0 1.473 1.194 2.667 2.667 2.667v0c1.473 0 2.667-1.194 2.667-2.667v0c0-1.473-1.194-2.667-2.667-2.667v0z"></path>
</svg>
