<!-- Generated by IcoMoon.io -->
<svg version="1.1" xmlns="http://www.w3.org/2000/svg" width="32" height="32" viewBox="0 0 32 32">
<title>magnify-plus</title>
<path d="M12 2.667c5.155 0 9.333 4.179 9.333 9.333v0c0 2.093-0.667 4-1.853 5.587l1.067 1.080h0.787l8 8-2.667 2.667-8-8v-0.787l-1.080-1.067c-1.524 1.157-3.453 1.853-5.545 1.853-0.015 0-0.029-0-0.044-0h0.002c-5.155 0-9.333-4.179-9.333-9.333v0c0-5.155 4.179-9.333 9.333-9.333v0M10.667 6.667v4h-4v2.667h4v4h2.667v-4h4v-2.667h-4v-4h-2.667z"></path>
</svg>
