<!-- Generated by IcoMoon.io -->
<svg version="1.1" xmlns="http://www.w3.org/2000/svg" width="32" height="32" viewBox="0 0 32 32">
<title>map-marker-multiple</title>
<path d="M18.667 15.333c1.841 0 3.333-1.492 3.333-3.333v0c0-1.841-1.492-3.333-3.333-3.333v0c-1.841 0-3.333 1.492-3.333 3.333v0c0 1.841 1.492 3.333 3.333 3.333v0M18.667 2.667c5.147 0 9.333 4.173 9.333 9.333 0 7-9.333 17.333-9.333 17.333s-9.333-10.333-9.333-17.333c0-5.155 4.179-9.333 9.333-9.333v0M6.667 12c0 6 6.773 14.213 8 15.747l-1.333 1.587s-9.333-10.333-9.333-17.333c0-4.227 2.813-7.8 6.667-8.947-2.453 2.2-4 5.387-4 8.947z"></path>
</svg>
