<!-- Generated by IcoMoon.io -->
<svg version="1.1" xmlns="http://www.w3.org/2000/svg" width="32" height="32" viewBox="0 0 32 32">
<title>map-marker-minus</title>
<path d="M12 15.333c1.841 0 3.333-1.492 3.333-3.333v0c0-1.841-1.492-3.333-3.333-3.333v0c-1.841 0-3.333 1.492-3.333 3.333v0c0 1.841 1.492 3.333 3.333 3.333v0M12 2.667c5.147 0 9.333 4.173 9.333 9.333 0 7-9.333 17.333-9.333 17.333s-9.333-10.333-9.333-17.333c0-5.155 4.179-9.333 9.333-9.333v0M20 22.667h10.667v2.667h-10.667v-2.667z"></path>
</svg>
