<!-- Generated by IcoMoon.io -->
<svg version="1.1" xmlns="http://www.w3.org/2000/svg" width="32" height="32" viewBox="0 0 32 32">
<title>map-marker-off</title>
<path d="M21.827 21.467l-6.307-6.32-11.16-11.147-1.693 1.693 4.24 4.24c-0.16 0.667-0.24 1.347-0.24 2.067 0 7 9.333 17.333 9.333 17.333s2.227-2.467 4.493-5.8l4.48 4.467 1.693-1.707M16 8.667c1.841 0 3.333 1.492 3.333 3.333v0c0 0.973-0.44 1.853-1.107 2.467l4.84 4.867c1.307-2.507 2.267-5.093 2.267-7.333 0-5.155-4.179-9.333-9.333-9.333v0c-2.667 0-5.013 1.093-6.72 2.853l4.253 4.253c0.613-0.68 1.48-1.107 2.467-1.107z"></path>
</svg>
