<!-- Generated by IcoMoon.io -->
<svg version="1.1" xmlns="http://www.w3.org/2000/svg" width="32" height="32" viewBox="0 0 32 32">
<title>margin</title>
<path d="M19.507 9.040l-2.307-1.333 7.467-4.933-0.533 8.933-2.307-1.333-10.187 17.627h-3.080l10.947-18.96M23.333 16c2.573 0 4.667 2.32 4.667 6s-2.093 6-4.667 6-4.667-2.32-4.667-6 2.093-6 4.667-6M23.333 18.667c-1.107 0-2 1.12-2 3.333s0.893 3.333 2 3.333 2-1.12 2-3.333c0-2.213-0.893-3.333-2-3.333M10 6.667c2.573 0 4.667 2.32 4.667 6s-2.093 6-4.667 6-4.667-2.32-4.667-6 2.093-6 4.667-6M10 9.333c-1.107 0-2 1.12-2 3.333s0.893 3.333 2 3.333 2-1.12 2-3.333c0-2.213-0.893-3.333-2-3.333z"></path>
</svg>
