<!-- Generated by IcoMoon.io -->
<svg version="1.1" xmlns="http://www.w3.org/2000/svg" width="32" height="32" viewBox="0 0 32 32">
<title>math-compass</title>
<path d="M17.333 5.6v-1.6c0-0.8-0.533-1.333-1.333-1.333v2.933c-2.933 0.533-4 2-4 3.733 0 1.067 0.4 2 1.067 2.667l-7.733 14.533v2.8l2.933-2.667 7.2-13.333h0.533c2.267 0 4-1.733 4-4 0-1.733-1.067-3.2-2.667-3.733M17.2 10c-0.267 0.4-0.667 0.667-1.2 0.667-0.8 0-1.333-0.533-1.333-1.333 0-0.267 0.133-0.4 0.133-0.667 0.267-0.4 0.667-0.667 1.2-0.667 0.8 0 1.333 0.533 1.333 1.333 0 0.267-0.133 0.4-0.133 0.667M26.667 26.533v2.8l-2.933-2.667-5.867-10.933c0.933-0.267 1.733-0.667 2.4-1.2l6.4 12z"></path>
</svg>
