<!-- Generated by IcoMoon.io -->
<svg version="1.1" xmlns="http://www.w3.org/2000/svg" width="32" height="32" viewBox="0 0 32 32">
<title>message-bulleted-off</title>
<path d="M1.693 2.307l-1.693 1.693 2.667 2.667v22.667l5.333-5.333h12l7.64 7.64 1.693-1.693-27.64-27.64M10.667 18.667h-2.667v-2.667h2.667v2.667M8 14.667v-2.667l2.667 2.667h-2.667M26.667 2.667h-21.227l7.893 7.893v-2.56h10.667v2.667h-10.56l1.333 1.333h9.227v2.667h-6.56l9.32 9.333c1.427-0.067 2.573-1.227 2.573-2.667v-16c0-1.473-1.194-2.667-2.667-2.667v0z"></path>
</svg>
