<!-- Generated by IcoMoon.io -->
<svg version="1.1" xmlns="http://www.w3.org/2000/svg" width="32" height="32" viewBox="0 0 32 32">
<title>meteor</title>
<path d="M3.733 4l22.493 21.093s0.44 0.6-0.12 1.187c-0.547 0.587-1.267 0.080-1.267 0.080l-21.107-22.36M10.413 6.12l17.467 16.067s0.427 0.587-0.12 1.147c-0.56 0.627-1.28 0.12-1.28 0.12l-16.067-17.333M5.72 10.667l17.467 16.040s0.427 0.587-0.12 1.173c-0.56 0.6-1.28 0.12-1.28 0.12l-16.067-17.333M16.067 7.947l12.2 11.213s0.293 0.413-0.093 0.84c-0.373 0.4-0.88 0.040-0.88 0.040l-11.227-12.093M7.267 15.88l12.2 11.227s0.293 0.413-0.080 0.827c-0.387 0.413-0.893 0.067-0.893 0.067l-11.227-12.12M21.84 10.56l5.56 5.093s0.147 0.187-0.067 0.387c-0.16 0.187-0.413 0.027-0.413 0.027l-5.080-5.507M10.080 21.467l5.573 5.080s0.147 0.2-0.053 0.387c-0.187 0.2-0.44 0.027-0.44 0.027l-5.080-5.493z"></path>
</svg>
