<!-- Generated by IcoMoon.io -->
<svg version="1.1" xmlns="http://www.w3.org/2000/svg" width="32" height="32" viewBox="0 0 32 32">
<title>microphone-outline</title>
<path d="M23.067 14.667c0 4-3.387 6.8-7.067 6.8s-7.067-2.8-7.067-6.8h-2.267c0 4.547 3.627 8.307 8 8.96v4.373h2.667v-4.373c4.373-0.653 8-4.413 8-8.96M14.4 6.533c0-0.88 0.72-1.6 1.6-1.6s1.6 0.72 1.6 1.6l-0.013 8.267c0 0.88-0.707 1.6-1.587 1.6s-1.6-0.72-1.6-1.6M16 18.667c2.209 0 4-1.791 4-4v0-8c0-2.209-1.791-4-4-4v0c-2.209 0-4 1.791-4 4v0 8c0 2.209 1.791 4 4 4v0z"></path>
</svg>
