<!-- Generated by IcoMoon.io -->
<svg version="1.1" xmlns="http://www.w3.org/2000/svg" width="32" height="32" viewBox="0 0 32 32">
<title>microphone-variant</title>
<path d="M12 4c2.946 0 5.333 2.388 5.333 5.333v0h-10.667c0-2.946 2.388-5.333 5.333-5.333v0M15.787 13.093l-1.12 10.907h-1.333v1.333c0 1.473 1.194 2.667 2.667 2.667v0c1.473 0 2.667-1.194 2.667-2.667v0-6.667c0-2.946 2.388-5.333 5.333-5.333v0h2.667l-1.333 1.333 1.333 1.333h-2.667c-1.473 0-2.667 1.194-2.667 2.667v0 6.667c0 2.946-2.388 5.333-5.333 5.333v0c-2.946 0-5.333-2.388-5.333-5.333v0-1.333h-1.333l-1.12-10.907c-0.653-0.667-1.133-1.493-1.373-2.427h10.32c-0.24 0.933-0.72 1.76-1.373 2.427M12 14.667c-0.736 0-1.333 0.597-1.333 1.333v0c0 0.736 0.597 1.333 1.333 1.333v0c0.736 0 1.333-0.597 1.333-1.333v0c0-0.736-0.597-1.333-1.333-1.333v0z"></path>
</svg>
