<!-- Generated by IcoMoon.io -->
<svg version="1.1" xmlns="http://www.w3.org/2000/svg" width="32" height="32" viewBox="0 0 32 32">
<title>microphone-settings</title>
<path d="M25.333 13.333h-2.267c0 4-3.387 6.8-7.067 6.8s-7.067-2.8-7.067-6.8h-2.267c0 4.547 3.627 8.307 8 8.96v4.373h2.667v-4.373c4.373-0.653 8-4.413 8-8.96M20 32h2.667v-2.667h-2.667M14.667 32h2.667v-2.667h-2.667M16 17.333c2.209 0 4-1.791 4-4v0-8c0-2.209-1.791-4-4-4v0c-2.209 0-4 1.791-4 4v0 8c0 2.209 1.791 4 4 4v0M9.333 32h2.667v-2.667h-2.667v2.667z"></path>
</svg>
