<!-- Generated by IcoMoon.io -->
<svg version="1.1" xmlns="http://www.w3.org/2000/svg" width="32" height="32" viewBox="0 0 32 32">
<title>more</title>
<path d="M25.333 18c-1.105 0-2-0.895-2-2v0c0-1.105 0.895-2 2-2v0c1.105 0 2 0.895 2 2v0c0 1.105-0.895 2-2 2v0M18.667 18c-1.105 0-2-0.895-2-2v0c0-1.105 0.895-2 2-2v0c1.105 0 2 0.895 2 2v0c0 1.105-0.895 2-2 2v0M12 18c-1.105 0-2-0.895-2-2v0c0-1.105 0.895-2 2-2v0c1.105 0 2 0.895 2 2v0c0 1.105-0.895 2-2 2v0M29.333 4h-20c-0.92 0-1.64 0.467-2.12 1.173l-7.213 10.827 7.213 10.813c0.48 0.707 1.28 1.187 2.2 1.187h19.92c1.473 0 2.667-1.194 2.667-2.667v0-18.667c0-1.473-1.194-2.667-2.667-2.667v0z"></path>
</svg>
