<!-- Generated by IcoMoon.io -->
<svg version="1.1" xmlns="http://www.w3.org/2000/svg" width="32" height="32" viewBox="0 0 32 32">
<title>motorbike</title>
<path d="M21.813 5.693h2.92v-2.853h-2.92v-1.413h2.48c-0.44-0.853-1.453-1.427-2.48-1.427-1.6 0-2.907 1.28-2.907 2.84 0 1.573 1.307 2.853 2.907 2.853M13.387 12.52l3.947-3.28 5.933 3.56h-9.6M26.040 16.067l2.027-1.987c1.173-1.133 1.173-2.84 0-3.987l-2.467 2.427-6.987-6.827c-0.427-0.72-1.28-1.147-2.173-1.147-0.733 0-1.307 0.293-1.773 0.72l-5.333 5.253c-0.467 0.427-0.747 1-0.747 1.707v0.72h-1.747c-1.453 0-2.627 1.28-2.627 2.84v0.573c0.453-0.147 1.027-0.147 1.453-0.147 3.787 0 7 2.987 7 6.827 0 0.427 0 1-0.16 1.427h6.827c-0.133-0.427-0.133-1-0.133-1.427 0-3.987 3.053-6.973 6.84-6.973M5.813 26.307c-2.027 0-3.627-1.56-3.627-3.547 0-2 1.6-3.56 3.627-3.56 2.040 0 3.64 1.56 3.64 3.56 0 1.987-1.6 3.547-3.64 3.547M5.813 17.067c-3.2 0-5.813 2.56-5.813 5.693 0 3.12 2.613 5.68 5.813 5.68s5.827-2.56 5.827-5.68c0-3.133-2.627-5.693-5.827-5.693M26.187 26.307c-2.040 0-3.64-1.56-3.64-3.547 0-2 1.6-3.56 3.64-3.56 2.027 0 3.627 1.56 3.627 3.56 0 1.987-1.6 3.547-3.627 3.547M26.187 17.067c-3.2 0-5.827 2.56-5.827 5.693 0 3.12 2.627 5.68 5.827 5.68s5.813-2.56 5.813-5.68c0-3.133-2.613-5.693-5.813-5.693z"></path>
</svg>
