<!-- Generated by IcoMoon.io -->
<svg version="1.1" xmlns="http://www.w3.org/2000/svg" width="32" height="32" viewBox="0 0 32 32">
<title>mouse-off</title>
<path d="M2.667 7.027l1.707-1.693 22.293 22.293-1.693 1.707-1.64-1.613c-1.89 1.823-4.465 2.947-7.303 2.947-0.011 0-0.021-0-0.032-0h0.002c-5.891 0-10.667-4.776-10.667-10.667v0-5.333h4.973l-2.667-2.667h-2.307c0-0.72 0.067-1.427 0.2-2.107l-2.867-2.867M14.667 1.427v10.573h-0.24l-6.707-6.72c1.692-2.079 4.127-3.497 6.894-3.848l0.052-0.005M26.667 14.667v5.333c0 1.267-0.227 2.48-0.627 3.613l-8.947-8.947h9.573M17.333 1.427c5.253 0.653 9.333 5.133 9.333 10.573h-9.333v-10.573z"></path>
</svg>
