<!-- Generated by IcoMoon.io -->
<svg version="1.1" xmlns="http://www.w3.org/2000/svg" width="32" height="32" viewBox="0 0 32 32">
<title>mouse-variant-off</title>
<path d="M2.667 7.027l1.707-1.693 22.293 22.293-1.693 1.707-1.92-1.92c-1.16 1.92-3.293 3.253-5.72 3.253-3.682 0-6.667-2.985-6.667-6.667v0-1.467c-3.065-0.642-5.333-3.322-5.333-6.532 0-0 0-0.001 0-0.001v0-4h2.307l-4.973-4.973M18.667 9.333h-5.333v-6.533c3.065 0.642 5.333 3.322 5.333 6.532 0 0 0 0.001 0 0.001v-0M10.667 2.8v5.44l-3.493-3.507c0.92-0.96 2.16-1.653 3.493-1.933M18.667 16v0.227l-4.24-4.227h4.24v4M13.333 22.533v1.467c0 2.209 1.791 4 4 4v0c1.707 0 3.16-1.067 3.733-2.573l-4.533-4.533c-0.88 0.813-1.973 1.387-3.2 1.64M21.333 17.333c0-2.946 2.388-5.333 5.333-5.333h2.667l-1.333 1.333 1.333 1.333h-2.667c-1.473 0-2.667 1.194-2.667 2.667v4.24l-2.667-2.667v-1.573z"></path>
</svg>
