<!-- Generated by IcoMoon.io -->
<svg version="1.1" xmlns="http://www.w3.org/2000/svg" width="32" height="32" viewBox="0 0 32 32">
<title>move-resize</title>
<path d="M12 1.333v1.333h1.333v4h-1.333v1.333h4v-1.333h-1.333v-4h1.333v-1.333M12 9.333c-1.48 0-2.667 1.187-2.667 2.667v16c0 1.48 1.187 2.667 2.667 2.667h16c1.48 0 2.667-1.187 2.667-2.667v-16c0-1.48-1.187-2.667-2.667-2.667M1.333 12v4h1.333v-1.333h4v1.333h1.333v-4h-1.333v1.333h-4v-1.333M12 12h16v16h-16M18.667 13.333v1.333h1.333v6.667h-5.333v-1.333h-1.333v4h1.333v-1.333h5.333v2.667h-1.333v1.333h4v-1.333h-1.333v-2.667h4v1.333h1.333v-4h-1.333v1.333h-4v-6.667h1.333v-1.333"></path>
</svg>
