<!-- Generated by IcoMoon.io -->
<svg version="1.1" xmlns="http://www.w3.org/2000/svg" width="32" height="32" viewBox="0 0 32 32">
<title>multiplication-box</title>
<path d="M25.333 4c1.473 0 2.667 1.194 2.667 2.667v0 18.667c0 1.473-1.194 2.667-2.667 2.667v0h-18.667c-1.473 0-2.667-1.194-2.667-2.667v0-18.667c0-1.48 1.187-2.667 2.667-2.667h18.667M14.667 22.667h2.667v-4.36l3.773 2.173 1.333-2.307-3.773-2.173 3.773-2.187-1.333-2.307-3.773 2.187v-4.36h-2.667v4.36l-3.773-2.187-1.333 2.307 3.773 2.187-3.773 2.173 1.333 2.307 3.773-2.173v4.36z"></path>
</svg>
