<!-- Generated by IcoMoon.io -->
<svg version="1.1" xmlns="http://www.w3.org/2000/svg" width="32" height="32" viewBox="0 0 32 32">
<title>music-note-bluetooth-off</title>
<path d="M13.333 4v7.573l4 4v-7.573h5.333v-4h-9.333M4.373 6l-1.707 1.693 8.347 8.347c-3.168 0.161-5.676 2.767-5.68 5.96v0c0 3.333 2.667 6 6 6 3.2 0 5.8-2.52 5.96-5.68l6.28 6.28 1.707-1.693-20.907-20.907M26.667 9.333v5.053l-3.053-3.053-0.947 0.947 3.72 3.72-3.72 3.72 0.947 0.947 3.053-3.053v5.053h0.667l3.8-3.8-2.853-2.867 2.867-2.867-3.813-3.8h-0.667M28 11.88l1.253 1.253-1.253 1.253v-2.507M28 17.613l1.253 1.253-1.253 1.253v-2.507z"></path>
</svg>
