<!-- Generated by IcoMoon.io -->
<svg version="1.1" xmlns="http://www.w3.org/2000/svg" width="32" height="32" viewBox="0 0 32 32">
<title>music-box-outline</title>
<path d="M21.333 12h-4v7.333c0 1.841-1.492 3.333-3.333 3.333v0c-1.841 0-3.333-1.492-3.333-3.333v0c0-1.841 1.492-3.333 3.333-3.333v0c0.76 0 1.44 0.253 2 0.667v-7.333h5.333v2.667M25.333 4c1.473 0 2.667 1.194 2.667 2.667v0 18.667c0 1.473-1.194 2.667-2.667 2.667v0h-18.667c-1.473 0-2.667-1.194-2.667-2.667v0-18.667c0-1.473 1.194-2.667 2.667-2.667v0h18.667M6.667 6.667v18.667h18.667v-18.667h-18.667z"></path>
</svg>
