<!-- Generated by IcoMoon.io -->
<svg version="1.1" xmlns="http://www.w3.org/2000/svg" width="32" height="32" viewBox="0 0 32 32">
<title>music-circle</title>
<path d="M21.333 12v-2.667h-5.333v7.333c-0.56-0.413-1.24-0.667-2-0.667-1.841 0-3.333 1.492-3.333 3.333v0c0 1.841 1.492 3.333 3.333 3.333v0c1.841 0 3.333-1.492 3.333-3.333v0-7.333h4M16 2.667c7.364 0 13.333 5.97 13.333 13.333v0c0 7.364-5.97 13.333-13.333 13.333v0c-7.364 0-13.333-5.97-13.333-13.333v0c0-7.364 5.97-13.333 13.333-13.333v0z"></path>
</svg>
