<!-- Generated by IcoMoon.io -->
<svg version="1.1" xmlns="http://www.w3.org/2000/svg" width="32" height="32" viewBox="0 0 32 32">
<title>nature-people</title>
<path d="M6 14.667c1.105 0 2-0.895 2-2v0c0-1.105-0.895-2-2-2v0c-1.105 0-2 0.895-2 2v0c0 1.105 0.895 2 2 2v0M29.56 12.227c0-5.16-4.173-9.333-9.333-9.333-5.155 0-9.333 4.179-9.333 9.333v0c0 4.627 3.36 8.44 7.773 9.187v5.253h-10.667v-4h1.333v-5.333c0-0.736-0.597-1.333-1.333-1.333v0h-4c-0.736 0-1.333 0.597-1.333 1.333v5.333h1.333v6.667h21.333v-2.667h-4v-5.173c4.656-0.572 8.226-4.502 8.227-9.267v-0z"></path>
</svg>
