<!-- Generated by IcoMoon.io -->
<svg version="1.1" xmlns="http://www.w3.org/2000/svg" width="32" height="32" viewBox="0 0 32 32">
<title>needle</title>
<path d="M14.867 20.24l-1.893-1.88 1.893-1.893 1.88 1.893 1.88-1.893-1.88-1.88 1.88-1.88 1.893 1.88 1.88-1.88-3.773-3.773-9.427 9.427 3.773 3.773 1.893-1.893M4.107 25.333l4.16-4.147-2.827-2.827 13.187-13.2 2.84 2.84 1.867-1.893-1.867-1.893 1.867-1.88 5.667 5.667-1.88 1.867-1.893-1.867-1.893 1.867 2.84 2.84-13.2 13.187-2.827-2.827-6.040 6.053v-3.787z"></path>
</svg>
