<!-- Generated by IcoMoon.io -->
<svg version="1.1" xmlns="http://www.w3.org/2000/svg" width="32" height="32" viewBox="0 0 32 32">
<title>nest-thermostat</title>
<path d="M22.6 22.6l-2.827-2.827c0.96-0.973 1.56-2.307 1.56-3.773 0-0.987-0.28-1.907-0.76-2.667l2.893-2.92c1.165 1.519 1.867 3.446 1.867 5.538 0 0.017-0 0.034-0 0.052v-0.003c0 2.573-1.040 4.907-2.733 6.6M16 6.667c2.093 0 4 0.667 5.587 1.867l-2.92 2.88c-0.76-0.467-1.68-0.747-2.667-0.747-2.946 0-5.333 2.388-5.333 5.333v0c0 1.467 0.6 2.8 1.56 3.773l-2.827 2.827c-1.689-1.684-2.733-4.013-2.733-6.586 0-0.005 0-0.010 0-0.015v0.001c0-5.155 4.179-9.333 9.333-9.333v0M16 2.667c-7.364 0-13.333 5.97-13.333 13.333v0c0 7.364 5.97 13.333 13.333 13.333v0c7.364 0 13.333-5.97 13.333-13.333v0c0-7.373-6-13.333-13.333-13.333z"></path>
</svg>
