<!-- Generated by IcoMoon.io -->
<svg version="1.1" xmlns="http://www.w3.org/2000/svg" width="32" height="32" viewBox="0 0 32 32">
<title>new-box</title>
<path d="M26.667 5.333c1.48 0 2.667 1.187 2.667 2.667v16c0 1.48-1.187 2.667-2.667 2.667h-21.333c-1.48 0-2.667-1.187-2.667-2.667v-16c0-1.48 1.187-2.667 2.667-2.667h21.333M11.333 20v-8h-1.667v4.667l-3.333-4.667h-1.667v8h1.667v-4.667l3.4 4.667h1.6M18 13.68v-1.68h-5.333v8h5.333v-1.667h-3.333v-1.48h3.333v-1.68h-3.333v-1.493h3.333M27.333 18.667v-6.667h-1.667v6h-1.493v-4.667h-1.667v4.667h-1.507v-6h-1.667v6.667c0 0.736 0.597 1.333 1.333 1.333h5.333c0.736 0 1.333-0.597 1.333-1.333v0z"></path>
</svg>
