<!-- Generated by IcoMoon.io -->
<svg version="1.1" xmlns="http://www.w3.org/2000/svg" width="32" height="32" viewBox="0 0 32 32">
<title>newspaper</title>
<path d="M26.667 14.667h-21.333v-4h21.333M26.667 20h-9.333v-2.667h9.333M26.667 25.333h-9.333v-2.667h9.333M14.667 25.333h-9.333v-8h9.333M27.107 6.227l-2.213-2.227-2.227 2.227-2.227-2.227-2.213 2.227-2.227-2.227-2.227 2.227-2.213-2.227-2.227 2.227-2.227-2.227-2.213 2.227-2.227-2.227v21.333c0 1.473 1.194 2.667 2.667 2.667h21.333c1.473 0 2.667-1.194 2.667-2.667v0-21.333l-2.227 2.227z"></path>
</svg>
