<!-- Generated by IcoMoon.io -->
<svg version="1.1" xmlns="http://www.w3.org/2000/svg" width="32" height="32" viewBox="0 0 32 32">
<title>nfc-variant</title>
<path d="M24 8h-6.667c-1.473 0-2.667 1.194-2.667 2.667v0 3.040c-0.787 0.453-1.333 1.307-1.333 2.293 0 1.473 1.194 2.667 2.667 2.667v0c1.473 0 2.667-1.194 2.667-2.667v0c0-0.987-0.533-1.84-1.333-2.293v-3.040h4v10.667h-10.667v-10.667h2.667v-2.667h-5.333v16h16M26.667 26.667h-21.333v-21.333h21.333M26.667 2.667h-21.333c-1.473 0-2.667 1.194-2.667 2.667v21.333c0 1.473 1.194 2.667 2.667 2.667h21.333c1.473 0 2.667-1.194 2.667-2.667v0-21.333c0-1.48-1.187-2.667-2.667-2.667z"></path>
</svg>
