<!-- Generated by IcoMoon.io -->
<svg version="1.1" xmlns="http://www.w3.org/2000/svg" width="32" height="32" viewBox="0 0 32 32">
<title>nodejs</title>
<path d="M16 2.467c-0.36 0-0.733 0.093-1.040 0.267l-9.92 5.733c-0.64 0.373-1.040 1.067-1.040 1.813v11.44c0 0.747 0.4 1.44 1.040 1.813l2.6 1.493c1.267 0.613 1.693 0.627 2.28 0.627 1.867 0 2.947-1.133 2.947-3.107v-11.293c0-0.16-0.133-0.293-0.293-0.293h-1.24c-0.173 0-0.307 0.133-0.307 0.293v11.293c0 0.88-0.907 1.747-2.36 1.013l-2.733-1.56c-0.088-0.063-0.146-0.165-0.147-0.28v-11.44c0-0.12 0.053-0.227 0.147-0.28l9.92-5.72c0.080-0.053 0.213-0.053 0.293 0l9.92 5.72c0.093 0.053 0.147 0.16 0.147 0.28v11.44c0 0.107-0.053 0.213-0.147 0.28l-9.92 5.72c-0.080 0.053-0.213 0.053-0.307 0l-2.507-1.52c-0.107-0.040-0.213-0.053-0.28-0.013-0.707 0.4-0.84 0.48-1.493 0.68-0.16 0.053-0.413 0.147 0.093 0.427l3.307 1.96c0.32 0.187 0.667 0.28 1.040 0.28s0.72-0.093 1.040-0.28l9.92-5.72c0.64-0.373 1.040-1.067 1.040-1.813v-11.44c0-0.747-0.4-1.44-1.040-1.813l-9.92-5.733c-0.307-0.173-0.667-0.267-1.040-0.267M18.667 10.667c-2.827 0-4.52 1.187-4.52 3.187 0 2.147 1.68 2.773 4.4 3.040 3.24 0.32 3.493 0.8 3.493 1.44 0 1.107-0.893 1.573-2.973 1.573-2.64 0-3.2-0.653-3.4-1.96-0.029-0.137-0.149-0.239-0.293-0.24h-1.28c-0.16 0-0.28 0.12-0.28 0.293 0 1.653 0.907 3.653 5.253 3.653 3.133 0 4.933-1.24 4.933-3.4 0-2.147-1.44-2.707-4.493-3.12-3.080-0.4-3.387-0.613-3.387-1.333 0-0.6 0.267-1.4 2.547-1.4 2 0 2.787 0.44 3.093 1.813 0.027 0.133 0.147 0.227 0.28 0.227h1.293c0.067 0 0.147-0.027 0.2-0.093 0.053-0.053 0.093-0.133 0.067-0.213-0.187-2.373-1.76-3.467-4.933-3.467z"></path>
</svg>
