<!-- Generated by IcoMoon.io -->
<svg version="1.1" xmlns="http://www.w3.org/2000/svg" width="32" height="32" viewBox="0 0 32 32">
<title>nuke</title>
<path d="M18.72 16h-5.387v-1.333h-6c-2.577 0-4.667-2.089-4.667-4.667v0c0-2.577 2.089-4.667 4.667-4.667v0c1.373 0 2.6 0.587 3.453 1.533 0.547-2.4 2.653-4.2 5.213-4.2s4.667 1.8 5.213 4.2c0.853-0.947 2.080-1.533 3.453-1.533 2.577 0 4.667 2.089 4.667 4.667v0c0 2.577-2.089 4.667-4.667 4.667h-5.947v1.333M13.333 22.533v-1.52h-6.667v-2.667h18.667v2.667h-6.613v1.547l7.947 2.88c0.773 0.28 1.333 1.013 1.333 1.893 0 1.105-0.895 2-2 2v0h-20c-1.105 0-2-0.895-2-2v0c0-0.88 0.56-1.613 1.333-1.893l8-2.907z"></path>
</svg>
