<!-- Generated by IcoMoon.io -->
<svg version="1.1" xmlns="http://www.w3.org/2000/svg" width="32" height="32" viewBox="0 0 32 32">
<title>numeric--plus-box-multiple-outline</title>
<path d="M28 12h-2.667v-2.667h-2.667v2.667h-2.667v2.667h2.667v2.667h2.667v-2.667h2.667v8h-18.667v-18.667h18.667M28 1.333h-18.667c-1.473 0-2.667 1.194-2.667 2.667v0 18.667c0 1.473 1.194 2.667 2.667 2.667h18.667c1.473 0 2.667-1.194 2.667-2.667v-18.667c0-1.473-1.194-2.667-2.667-2.667v0M14.667 12v-1.333h1.333v1.333M18.667 16v-5.333c0-1.473-1.194-2.667-2.667-2.667v0h-1.333c-1.473 0-2.667 1.194-2.667 2.667v0 1.333c0 1.473 1.194 2.667 2.667 2.667v0h1.333v1.333h-4v2.667h4c1.473 0 2.667-1.194 2.667-2.667v0M4 6.667h-2.667v21.333c0 1.473 1.194 2.667 2.667 2.667h21.333v-2.667h-21.333v-21.333z"></path>
</svg>
