<!-- Generated by IcoMoon.io -->
<svg version="1.1" xmlns="http://www.w3.org/2000/svg" width="32" height="32" viewBox="0 0 32 32">
<title>numeric--box-multiple-outline6</title>
<path d="M17.333 14.667h2.667v2.667h-2.667M17.333 20h2.667c1.473 0 2.667-1.194 2.667-2.667v0-2.667c0-1.473-1.194-2.667-2.667-2.667v0h-2.667v-2.667h5.333v-2.667h-5.333c-1.473 0-2.667 1.194-2.667 2.667v8c0 1.473 1.194 2.667 2.667 2.667v0M28 22.667h-18.667v-18.667h18.667M28 1.333h-18.667c-1.473 0-2.667 1.194-2.667 2.667v0 18.667c0 1.473 1.194 2.667 2.667 2.667h18.667c1.473 0 2.667-1.194 2.667-2.667v-18.667c0-1.473-1.194-2.667-2.667-2.667v0M4 6.667h-2.667v21.333c0 1.473 1.194 2.667 2.667 2.667h21.333v-2.667h-21.333v-21.333z"></path>
</svg>
