<!-- Generated by IcoMoon.io -->
<svg version="1.1" xmlns="http://www.w3.org/2000/svg" width="32" height="32" viewBox="0 0 32 32">
<title>numeric</title>
<path d="M5.333 22.667v-10.667h-2.667v-2.667h5.333v13.333h-2.667M29.333 20c0 1.473-1.194 2.667-2.667 2.667h-5.333v-2.667h5.333v-2.667h-2.667v-2.667h2.667v-2.667h-5.333v-2.667h5.333c1.473 0 2.667 1.194 2.667 2.667v0 2c0 1.105-0.895 2-2 2v0c1.105 0 2 0.895 2 2v0 2M18.667 20v2.667h-8v-5.333c0-1.473 1.194-2.667 2.667-2.667h2.667v-2.667h-5.333v-2.667h5.333c1.473 0 2.667 1.194 2.667 2.667v0 2.667c0 1.473-1.194 2.667-2.667 2.667v0h-2.667v2.667h5.333z"></path>
</svg>
