<!-- Generated by IcoMoon.io -->
<svg version="1.1" xmlns="http://www.w3.org/2000/svg" width="32" height="32" viewBox="0 0 32 32">
<title>numeric--box8</title>
<path d="M25.333 4c1.473 0 2.667 1.194 2.667 2.667v0 18.667c0 1.473-1.194 2.667-2.667 2.667v0h-18.667c-1.473 0-2.667-1.194-2.667-2.667v0-18.667c0-1.473 1.194-2.667 2.667-2.667v0h18.667M14.667 22.667h2.667c1.473 0 2.667-1.194 2.667-2.667v0-2c0-1.105-0.895-2-2-2v0c1.105 0 2-0.895 2-2v0-2c0-1.473-1.194-2.667-2.667-2.667v0h-2.667c-1.473 0-2.667 1.194-2.667 2.667v0 2c0 1.105 0.895 2 2 2v0c-1.105 0-2 0.895-2 2v0 2c0 1.473 1.194 2.667 2.667 2.667v0M14.667 17.333h2.667v2.667h-2.667v-2.667M14.667 12h2.667v2.667h-2.667v-2.667z"></path>
</svg>
