<!-- Generated by IcoMoon.io -->
<svg version="1.1" xmlns="http://www.w3.org/2000/svg" width="32" height="32" viewBox="0 0 32 32">
<title>numeric--box-outline3</title>
<path d="M20 20v-2c0-1.105-0.895-2-2-2v0c1.105 0 2-0.895 2-2v0-2c0-1.473-1.194-2.667-2.667-2.667v0h-5.333v2.667h5.333v2.667h-2.667v2.667h2.667v2.667h-5.333v2.667h5.333c1.473 0 2.667-1.194 2.667-2.667v0M25.333 25.333h-18.667v-18.667h18.667M25.333 4h-18.667c-1.473 0-2.667 1.194-2.667 2.667v0 18.667c0 1.473 1.194 2.667 2.667 2.667v0h18.667c1.473 0 2.667-1.194 2.667-2.667v0-18.667c0-1.473-1.194-2.667-2.667-2.667v0z"></path>
</svg>
