<!-- Generated by IcoMoon.io -->
<svg version="1.1" xmlns="http://www.w3.org/2000/svg" width="32" height="32" viewBox="0 0 32 32">
<title>numeric--box3</title>
<path d="M20 14c0 1.105-0.895 2-2 2v0c1.12 0 2 0.893 2 2v2c0 1.48-1.187 2.667-2.667 2.667h-5.333v-2.667h5.333v-2.667h-2.667v-2.667h2.667v-2.667h-5.333v-2.667h5.333c1.48 0 2.667 1.187 2.667 2.667M25.333 4h-18.667c-1.453 0-2.667 1.2-2.667 2.667v18.667c0 1.473 1.194 2.667 2.667 2.667v0h18.667c1.473 0 2.667-1.194 2.667-2.667v0-18.667c0-1.473-1.194-2.667-2.667-2.667v0z"></path>
</svg>
