<!-- Generated by IcoMoon.io -->
<svg version="1.1" xmlns="http://www.w3.org/2000/svg" width="32" height="32" viewBox="0 0 32 32">
<title>numeric--plus-box</title>
<path d="M28 6.667v18.667c0 1.473-1.194 2.667-2.667 2.667v0h-18.667c-1.473 0-2.667-1.194-2.667-2.667v0-18.667c0-1.473 1.194-2.667 2.667-2.667v0h18.667c1.473 0 2.667 1.194 2.667 2.667v0M25.333 14.667h-2.667v-2.667h-2.667v2.667h-2.667v2.667h2.667v2.667h2.667v-2.667h2.667v-2.667M13.333 9.333h-2.667c-1.473 0-2.667 1.194-2.667 2.667v0 2.667c0 1.473 1.194 2.667 2.667 2.667h2.667v2.667h-5.333v2.667h5.333c1.473 0 2.667-1.194 2.667-2.667v0-8c0-1.473-1.194-2.667-2.667-2.667v0M10.667 12h2.667v2.667h-2.667v-2.667z"></path>
</svg>
