<!-- Generated by IcoMoon.io -->
<svg version="1.1" xmlns="http://www.w3.org/2000/svg" width="32" height="32" viewBox="0 0 32 32">
<title>onedrive</title>
<path d="M26.773 18.187c1.453 0.227 2.56 1.48 2.56 3 0 1.187-0.667 2.213-1.667 2.707l-0.227 0.107h-15.227c-1.933 0-3.493-1.587-3.493-3.52 0-1.947 1.573-3.52 3.52-3.52l0.293 0.013-0.013-0.267c0-2.43 1.97-4.4 4.4-4.4v0c1.707 0 3.187 0.973 3.92 2.36 0.6-0.36 1.32-0.6 2.107-0.6 2.121 0 3.84 1.719 3.84 3.84v0l-0.013 0.28M11.76 16.213c-2.155 0.248-3.813 2.063-3.813 4.264 0 0.001 0 0.002 0 0.003v-0c0 0.907 0.28 1.733 0.72 2.427h-2.36c-2.010 0-3.64-1.63-3.64-3.64v0c0-1.933 1.493-3.493 3.373-3.627l-0.093-0.893c0-2.267 1.84-4.080 4.107-4.080 0.84 0 1.64 0.24 2.293 0.667 0.952-1.873 2.864-3.133 5.071-3.133 0.003 0 0.007 0 0.010 0h-0.001c2.933 0 5.347 2.24 5.64 5.093h-0.12c-0.64 0-1.253 0.133-1.827 0.373-0.948-1.307-2.47-2.147-4.189-2.147-0.004 0-0.008 0-0.012 0h0.001c-2.689 0.002-4.9 2.050-5.158 4.672l-0.002 0.021z"></path>
</svg>
