<!-- Generated by IcoMoon.io -->
<svg version="1.1" xmlns="http://www.w3.org/2000/svg" width="32" height="32" viewBox="0 0 32 32">
<title>opacity</title>
<path d="M23.547 10.667l-7.547-7.533-7.547 7.533c-1.921 1.927-3.112 4.584-3.12 7.518v0.002c0 2.667 1.040 5.48 3.12 7.56 1.929 1.936 4.598 3.134 7.547 3.134s5.617-1.198 7.546-3.134l0-0c2.080-2.080 3.12-4.893 3.12-7.56s-1.040-5.44-3.12-7.52M8 18.667c0-2.667 0.827-4.36 2.347-5.867l5.653-5.773 5.653 5.84c1.52 1.493 2.347 3.133 2.347 5.8h-16z"></path>
</svg>
