<!-- Generated by IcoMoon.io -->
<svg version="1.1" xmlns="http://www.w3.org/2000/svg" width="32" height="32" viewBox="0 0 32 32">
<title>opera</title>
<path d="M23.107 4.76c-1.96-1.347-4.373-2.093-7.107-2.093-2.493 0-4.72 0.627-6.587 1.76-3.573 2.173-5.787 6.24-5.787 11.44 0 7.053 4.947 13.467 12.373 13.467s12.373-6.413 12.373-13.467c0-4.947-2-8.867-5.267-11.107M16 5.027c4 0 4.8 5.547 4.8 10.6 0 4.667-0.453 10.92-4.747 10.92s-4.853-6.32-4.853-10.987c0-5.040 0.8-10.533 4.8-10.533z"></path>
</svg>
