<!-- Generated by IcoMoon.io -->
<svg version="1.1" xmlns="http://www.w3.org/2000/svg" width="32" height="32" viewBox="0 0 32 32">
<title>owl</title>
<path d="M16 21.333c0.747 1.12 1.747 2.040 2.933 2.667l-2.933 2.933-2.933-2.933c1.187-0.627 2.2-1.547 2.933-2.667M22.667 14.933c-1.473 0-2.667 1.194-2.667 2.667v0c0 1.473 1.194 2.667 2.667 2.667v0c1.473 0 2.667-1.194 2.667-2.667v0c0-1.473-1.194-2.667-2.667-2.667v0M9.333 14.933c-1.473 0-2.667 1.194-2.667 2.667v0c0 1.473 1.194 2.667 2.667 2.667v0c1.473 0 2.667-1.194 2.667-2.667v0c0-1.473-1.194-2.667-2.667-2.667v0M22.667 11.6c2.946 0 5.333 2.388 5.333 5.333v0c0 2.946-2.388 5.333-5.333 5.333v0c-2.946 0-5.333-2.388-5.333-5.333v0c0-2.946 2.388-5.333 5.333-5.333v0M9.333 11.6c2.946 0 5.333 2.388 5.333 5.333v0c0 2.946-2.388 5.333-5.333 5.333v0c-2.946 0-5.333-2.388-5.333-5.333v0c0-2.946 2.388-5.333 5.333-5.333v0M2.987 1.333c2.347 4.933 0.653 8.613-0.92 12.267-0.48 1.067-0.733 2.173-0.733 3.333 0 4.418 3.582 8 8 8v0c0.28-0.013 0.56-0.027 0.84-0.067l3.947 3.947 1.88 1.853 1.88-1.853 3.947-3.947c0.28 0.040 0.56 0.053 0.84 0.067 4.418 0 8-3.582 8-8v0c0-1.16-0.253-2.267-0.733-3.333-1.573-3.653-3.267-7.333-0.92-12.267-3.52 2.747-8.533 4.92-13.013 4.933-4.48-0.013-9.493-2.187-13.013-4.933z"></path>
</svg>
