<!-- Generated by IcoMoon.io -->
<svg version="1.1" xmlns="http://www.w3.org/2000/svg" width="32" height="32" viewBox="0 0 32 32">
<title>package-up</title>
<path d="M27.387 6.973c0.387 0.453 0.613 1.027 0.613 1.693v16.667c0 1.473-1.194 2.667-2.667 2.667v0h-18.667c-1.473 0-2.667-1.194-2.667-2.667v0-16.667c0-0.667 0.227-1.24 0.613-1.693l1.84-2.24c0.373-0.453 0.92-0.733 1.547-0.733h16c0.627 0 1.173 0.28 1.533 0.733l1.853 2.24M6.827 6.667h18.333l-1.253-1.333h-16l-1.080 1.333M16 12.667l-7.333 7.333h4.667v2.667h5.333v-2.667h4.667l-7.333-7.333z"></path>
</svg>
