<!-- Generated by IcoMoon.io -->
<svg version="1.1" xmlns="http://www.w3.org/2000/svg" width="32" height="32" viewBox="0 0 32 32">
<title>package-variant</title>
<path d="M2.667 14.613c-0.409-0.228-0.681-0.658-0.681-1.151 0-0.25 0.070-0.483 0.19-0.682l-0.003 0.006 2-3.453c0.147-0.267 0.373-0.453 0.627-0.56l10.44-5.867c0.213-0.16 0.48-0.24 0.76-0.24s0.547 0.080 0.76 0.24l10.533 5.92c0.253 0.133 0.467 0.347 0.587 0.613l1.933 3.36c0.373 0.64 0.147 1.453-0.48 1.813l-1.333 0.773v6.613c0 0.507-0.28 0.947-0.707 1.173l-10.533 5.92c-0.213 0.16-0.48 0.24-0.76 0.24s-0.547-0.080-0.76-0.24l-10.533-5.92c-0.423-0.226-0.707-0.665-0.707-1.17 0-0.001 0-0.003 0-0.004v0-7.387c-0.4 0.227-0.907 0.24-1.333 0M16 5.533v8.933l7.947-4.467-7.947-4.467M6.667 21.213l8 4.507v-8.947l-8-4.493v8.933M25.333 21.213v-4.293l-6.667 3.867c-0.44 0.24-0.933 0.227-1.333 0.013v4.92l8-4.507M18.467 17.813l8.373-4.84-0.773-1.347-8.373 4.84 0.773 1.347z"></path>
</svg>
