<!-- Generated by IcoMoon.io -->
<svg version="1.1" xmlns="http://www.w3.org/2000/svg" width="32" height="32" viewBox="0 0 32 32">
<title>panda</title>
<path d="M16 4c2.32 0 4.48 0.667 6.32 1.8 0.853-1.093 2.187-1.8 3.68-1.8 2.577 0 4.667 2.089 4.667 4.667v0c0 2-1.267 3.707-3.040 4.373 0.24 0.96 0.373 1.933 0.373 2.96 0 6.627-5.373 12-12 12v0c-6.627 0-12-5.373-12-12v0c0-1.027 0.133-2 0.373-2.96-1.788-0.683-3.036-2.382-3.040-4.373v-0.001c0-2.577 2.089-4.667 4.667-4.667v0c1.493 0 2.827 0.707 3.68 1.8 1.84-1.133 4-1.8 6.32-1.8M16 6.667c-5.155 0-9.333 4.179-9.333 9.333v0c0 5.155 4.179 9.333 9.333 9.333v0c5.155 0 9.333-4.179 9.333-9.333v0c0-5.155-4.179-9.333-9.333-9.333v0M21.587 13.733c0.48 1.773-0.147 3.48-1.387 3.813-1.253 0.347-2.64-0.827-3.12-2.613-0.48-1.773 0.147-3.48 1.387-3.813 1.253-0.333 2.64 0.827 3.12 2.613M10.413 13.733c0.48-1.787 1.867-2.947 3.12-2.613 1.24 0.333 1.867 2.040 1.387 3.813-0.48 1.787-1.867 2.96-3.12 2.613-1.24-0.333-1.867-2.040-1.387-3.813M16 18.667c0.8 0 1.507 0.253 2 0.667l-1.333 1.333c0 0.56 0.453 1 1 1 0.552 0 1-0.448 1-1v0c0-0.368 0.298-0.667 0.667-0.667v0c0.368 0 0.667 0.298 0.667 0.667v0c0 1.289-1.045 2.333-2.333 2.333v0c-0.653 0-1.24-0.267-1.667-0.707-0.427 0.44-1.013 0.707-1.667 0.707-1.289 0-2.333-1.045-2.333-2.333v0c0-0.368 0.298-0.667 0.667-0.667v0c0.368 0 0.667 0.298 0.667 0.667v0c0 0.552 0.448 1 1 1v0c0.552 0 1-0.448 1-1v0l-1.333-1.333c0.493-0.413 1.2-0.667 2-0.667z"></path>
</svg>
