<!-- Generated by IcoMoon.io -->
<svg version="1.1" xmlns="http://www.w3.org/2000/svg" width="32" height="32" viewBox="0 0 32 32">
<title>paper-cut-vertical</title>
<path d="M15.24 4.307l0.76 1.027 0.76-1.027v0.013c0.733-0.987 1.907-1.653 3.24-1.653 2.209 0 4 1.791 4 4v0c0 0.002 0 0.004 0 0.006 0 0.476-0.083 0.932-0.235 1.355l0.009-0.028h2.893c1.473 0 2.667 1.194 2.667 2.667v0 16c0 1.473-1.194 2.667-2.667 2.667h-21.333c-1.473 0-2.667-1.194-2.667-2.667v-16c0-1.473 1.194-2.667 2.667-2.667h2.893c-0.144-0.395-0.227-0.852-0.227-1.327 0-0.002 0-0.004 0-0.006v0c0-2.209 1.791-4 4-4v0c1.333 0 2.507 0.667 3.24 1.653v-0.013M5.333 10.667v16h9.333c0-0.736 0.597-1.333 1.333-1.333v0c0.736 0 1.333 0.597 1.333 1.333v0h9.333v-16h-6.8l2.8 3.893-2.133 1.573-3.973-5.467h-1.12l-3.973 5.467-2.133-1.573 2.8-3.893h-6.8M12 5.333c-0.736 0-1.333 0.597-1.333 1.333v0c0 0.736 0.597 1.333 1.333 1.333v0c0.736 0 1.333-0.597 1.333-1.333v0c0-0.736-0.597-1.333-1.333-1.333v0M20 5.333c-0.736 0-1.333 0.597-1.333 1.333v0c0 0.736 0.597 1.333 1.333 1.333v0c0.736 0 1.333-0.597 1.333-1.333v0c0-0.736-0.597-1.333-1.333-1.333v0M16 21.333c0.736 0 1.333 0.597 1.333 1.333v0c0 0.736-0.597 1.333-1.333 1.333v0c-0.736 0-1.333-0.597-1.333-1.333v0c0-0.736 0.597-1.333 1.333-1.333v0M16 17.333c0.736 0 1.333 0.597 1.333 1.333v0c0 0.736-0.597 1.333-1.333 1.333v0c-0.736 0-1.333-0.597-1.333-1.333v0c0-0.736 0.597-1.333 1.333-1.333v0M16 13.333c0.736 0 1.333 0.597 1.333 1.333v0c0 0.736-0.597 1.333-1.333 1.333v0c-0.736 0-1.333-0.597-1.333-1.333v0c0-0.736 0.597-1.333 1.333-1.333v0z"></path>
</svg>
