<!-- Generated by IcoMoon.io -->
<svg version="1.1" xmlns="http://www.w3.org/2000/svg" width="32" height="32" viewBox="0 0 32 32">
<title>paw</title>
<path d="M11.133 4c1.573-0.227 3.24 1.493 3.72 3.867 0.48 2.36-0.387 4.467-1.96 4.707-1.56 0.24-3.24-1.48-3.733-3.853-0.493-2.36 0.4-4.467 1.973-4.72M20.667 4c1.587 0.253 2.467 2.36 2 4.72-0.507 2.373-2.173 4.093-3.747 3.853-1.587-0.24-2.453-2.347-1.96-4.707 0.48-2.373 2.147-4.093 3.707-3.867M4 10.133c1.52-0.653 3.587 0.533 4.667 2.6 1.013 2.107 0.667 4.32-0.84 4.973s-3.56-0.52-4.613-2.613c-1.053-2.093-0.68-4.32 0.787-4.96M28 10.133c1.467 0.64 1.84 2.867 0.787 4.96s-3.107 3.267-4.613 2.613c-1.507-0.653-1.853-2.867-0.84-4.973 1.080-2.067 3.147-3.253 4.667-2.6M25.773 24.507c0.053 1.253-0.907 2.64-2.053 3.16-2.387 1.093-5.213-1.173-7.867-1.173s-5.507 2.36-7.853 1.173c-1.333-0.653-2.253-2.387-2.080-3.827 0.24-1.987 2.627-3.053 4.040-4.507 1.88-1.88 3.213-5.413 5.893-5.413 2.667 0 4.080 3.48 5.88 5.413 1.48 1.627 3.947 3 4.040 5.173z"></path>
</svg>
