<!-- Generated by IcoMoon.io -->
<svg version="1.1" xmlns="http://www.w3.org/2000/svg" width="32" height="32" viewBox="0 0 32 32">
<title>pencil-circle</title>
<path d="M16 2.667c-7.373 0-13.333 5.96-13.333 13.333s5.96 13.333 13.333 13.333 13.333-5.96 13.333-13.333-5.96-13.333-13.333-13.333M20.133 9.427c0.187 0 0.373 0.067 0.533 0.213l1.693 1.693c0.307 0.293 0.307 0.76 0 1.040l-1.333 1.333-2.733-2.733 1.333-1.333c0.133-0.147 0.32-0.213 0.507-0.213M17.507 11.747l2.747 2.747-8.080 8.080h-2.747v-2.747l8.080-8.080z"></path>
</svg>
