<!-- Generated by IcoMoon.io -->
<svg version="1.1" xmlns="http://www.w3.org/2000/svg" width="32" height="32" viewBox="0 0 32 32">
<title>pencil-box-outline</title>
<path d="M25.333 25.333v-18.667h-18.667v18.667h18.667M25.333 4c1.473 0 2.667 1.194 2.667 2.667v0 18.667c0 1.473-1.194 2.667-2.667 2.667v0h-18.667c-1.473 0-2.667-1.194-2.667-2.667v0-18.667c0-1.473 1.194-2.667 2.667-2.667v0h18.667M22.267 12.467l-1.333 1.333-2.733-2.733 1.333-1.333c0.28-0.293 0.747-0.293 1.027 0l1.707 1.707c0.293 0.28 0.293 0.747 0 1.027M9.333 19.92l8.080-8.080 2.747 2.747-8.080 8.080h-2.747v-2.747z"></path>
</svg>
