<!-- Generated by IcoMoon.io -->
<svg version="1.1" xmlns="http://www.w3.org/2000/svg" width="32" height="32" viewBox="0 0 32 32">
<title>pencil-lock</title>
<path d="M7.333 2.667c-1.841 0-3.333 1.492-3.333 3.333v0 0.667c-0.736 0-1.333 0.597-1.333 1.333v0 5.333c0 0.736 0.597 1.333 1.333 1.333v0h6.667c0.736 0 1.333-0.597 1.333-1.333v0-5.333c0-0.736-0.597-1.333-1.333-1.333v0-0.667c0-1.841-1.492-3.333-3.333-3.333v0M7.333 4c1.105 0 2 0.895 2 2v0 0.667h-4v-0.667c0-1.105 0.895-2 2-2v0M26.213 4c-0.347 0-0.667 0.12-0.92 0.373l-2.453 2.467 5 5 2.453-2.467c0.52-0.52 0.52-1.373 0-1.867l-3.12-3.133c-0.267-0.253-0.627-0.373-0.96-0.373M21.413 8.253l-14.747 14.747v5h5l14.747-14.747-5-5z"></path>
</svg>
