<!-- Generated by IcoMoon.io -->
<svg version="1.1" xmlns="http://www.w3.org/2000/svg" width="32" height="32" viewBox="0 0 32 32">
<title>phone-incoming</title>
<path d="M5.333 4c-0.736 0-1.333 0.597-1.333 1.333v0c0 12.518 10.148 22.667 22.667 22.667v0c0.736 0 1.333-0.597 1.333-1.333v-4.667c0-0.736-0.597-1.333-1.333-1.333v0c-1.667 0-3.267-0.267-4.76-0.76-0.123-0.041-0.265-0.064-0.413-0.064-0.368 0-0.703 0.146-0.948 0.384l-2.933 2.933c-3.803-1.962-6.824-4.984-8.734-8.675l-0.053-0.112 2.933-2.947c0.246-0.234 0.399-0.563 0.399-0.929 0-0.145-0.024-0.284-0.068-0.414l0.003 0.009c-0.482-1.414-0.76-3.044-0.76-4.738 0-0.008 0-0.016 0-0.024v0.001c0-0.736-0.597-1.333-1.333-1.333v0h-4.667M25.333 14.667v-2h-4.667l7.333-7.333-1.333-1.333-7.333 7.333v-4.667h-2v8h8z"></path>
</svg>
