<!-- Generated by IcoMoon.io -->
<svg version="1.1" xmlns="http://www.w3.org/2000/svg" width="32" height="32" viewBox="0 0 32 32">
<title>phone-hangup</title>
<path d="M16 12c-2.133 0-4.2 0.333-6.133 0.96v4.133c0 0.533-0.307 0.987-0.747 1.2-1.307 0.653-2.493 1.493-3.56 2.467-0.227 0.24-0.56 0.387-0.893 0.387-0.4 0-0.733-0.16-0.973-0.4l-3.307-3.307c-0.239-0.239-0.387-0.569-0.387-0.933v0c0-0.373 0.147-0.707 0.387-0.947 4.067-3.867 9.56-6.227 15.613-6.227s11.547 2.36 15.613 6.227c0.24 0.24 0.387 0.573 0.387 0.947 0 0.36-0.147 0.693-0.387 0.933l-3.307 3.307c-0.24 0.24-0.573 0.4-0.973 0.4-0.355-0.006-0.675-0.153-0.907-0.387l-0-0c-1.053-0.973-2.24-1.813-3.547-2.467-0.446-0.221-0.747-0.672-0.747-1.194 0-0.002 0-0.004 0-0.006v0-4.133c-1.933-0.627-4-0.96-6.133-0.96z"></path>
</svg>
