<!-- Generated by IcoMoon.io -->
<svg version="1.1" xmlns="http://www.w3.org/2000/svg" width="32" height="32" viewBox="0 0 32 32">
<title>phone-bluetooth</title>
<path d="M26.667 20.667c-1.667 0-3.267-0.267-4.76-0.76-0.467-0.147-0.987-0.040-1.36 0.333l-2.933 2.933c-3.8-1.966-6.82-4.987-8.734-8.675l-0.053-0.112 2.933-2.933c0.373-0.373 0.48-0.893 0.333-1.36-0.482-1.414-0.76-3.044-0.76-4.738 0-0.008 0-0.016 0-0.024v0.001c0-0.736-0.597-1.333-1.333-1.333v0h-4.667c-0.736 0-1.333 0.597-1.333 1.333v0c0 12.518 10.148 22.667 22.667 22.667v0c0.736 0 1.333-0.597 1.333-1.333v-4.667c0-0.736-0.597-1.333-1.333-1.333v0M24 9.613l1.253 1.24-1.253 1.253M24 3.88l1.253 1.253-1.253 1.253M19.613 12.667l3.053-3.053v5.053h0.667l3.8-3.813-2.853-2.853 2.853-2.867-3.8-3.8h-0.667v5.053l-3.053-3.053-0.947 0.947 3.72 3.72-3.72 3.72 0.947 0.947z"></path>
</svg>
