<!-- Generated by IcoMoon.io -->
<svg version="1.1" xmlns="http://www.w3.org/2000/svg" width="32" height="32" viewBox="0 0 32 32">
<title>phone-classic</title>
<path d="M16 4c-6.053 0-11.547 2.373-15.613 6.227-0.24 0.24-0.387 0.573-0.387 0.947s0.147 0.707 0.387 0.947l3.307 3.307c0.243 0.241 0.578 0.389 0.947 0.389 0.362 0 0.692-0.143 0.934-0.376l-0 0c1.053-0.987 2.253-1.813 3.547-2.467 0.44-0.213 0.747-0.667 0.747-1.2v-4.133c1.933-0.64 3.987-0.973 6.133-0.973 2.12 0 4.187 0.333 6.12 0.96v4.133c0 0.52 0.307 0.987 0.747 1.2 1.307 0.653 2.467 1.493 3.56 2.467 0.24 0.24 0.573 0.373 0.907 0.373 0.4 0 0.733-0.147 0.973-0.387l3.307-3.307c0.24-0.24 0.387-0.573 0.387-0.947s-0.16-0.693-0.4-0.933c-4.049-3.855-9.54-6.227-15.586-6.227-0.005 0-0.010 0-0.015 0h0.001M12 9.333v4s-8 6.667-8 10.667v5.333h24v-5.333c0-4-8-10.667-8-10.667v-4h-2.667v2.667h-2.667v-2.667h-2.667M16 16c2.946 0 5.333 2.388 5.333 5.333v0c0 2.946-2.388 5.333-5.333 5.333v0c-2.946 0-5.333-2.388-5.333-5.333v0c0-2.946 2.388-5.333 5.333-5.333v0M16 18c-1.841 0-3.333 1.492-3.333 3.333v0c0 1.841 1.492 3.333 3.333 3.333v0c1.841 0 3.333-1.492 3.333-3.333v0c0-1.841-1.492-3.333-3.333-3.333v0z"></path>
</svg>
