<!-- Generated by IcoMoon.io -->
<svg version="1.1" xmlns="http://www.w3.org/2000/svg" width="32" height="32" viewBox="0 0 32 32">
<title>phone-minus</title>
<path d="M5.333 4c-0.736 0-1.333 0.597-1.333 1.333v0c0 12.518 10.148 22.667 22.667 22.667v0c0.736 0 1.333-0.597 1.333-1.333v-4.667c0-0.736-0.597-1.333-1.333-1.333v0c-1.653 0-3.267-0.267-4.76-0.76-0.467-0.147-0.987-0.040-1.36 0.333l-2.933 2.933c-3.797-1.97-6.817-4.99-8.734-8.675l-0.053-0.112 2.933-2.947c0.373-0.36 0.48-0.88 0.333-1.347-0.493-1.493-0.76-3.107-0.76-4.76 0-0.736-0.597-1.333-1.333-1.333v0M17.333 8v2.667h10.667v-2.667"></path>
</svg>
