<!-- Generated by IcoMoon.io -->
<svg version="1.1" xmlns="http://www.w3.org/2000/svg" width="32" height="32" viewBox="0 0 32 32">
<title>piano</title>
<path d="M5.333 4h21.333c1.473 0 2.667 1.194 2.667 2.667v0 18.667c0 1.473-1.194 2.667-2.667 2.667h-21.333c-1.473 0-2.667-1.194-2.667-2.667v0-18.667c0-1.473 1.194-2.667 2.667-2.667v0M5.333 6.667v18.667h5.333v-8h-1.667v-10.667h-3.667M12 25.333h8v-8h-1.667v-10.667h-4.667v10.667h-1.667v8M21.333 25.333h5.333v-18.667h-3.667v10.667h-1.667v8z"></path>
</svg>
