<!-- Generated by IcoMoon.io -->
<svg version="1.1" xmlns="http://www.w3.org/2000/svg" width="32" height="32" viewBox="0 0 32 32">
<title>pinterest</title>
<path d="M17.667 23c-1.333 0-2.613-0.573-3.533-1.533l-1.587 5.333-0.107 0.347-0.053-0.027c-0.333 0.547-0.907 0.88-1.56 0.88-1 0-1.827-0.827-1.827-1.84 0-0.080 0.013-0.16 0.027-0.24l-0.027-0.013 0.080-0.293 3.080-9.267s-0.333-1.013-0.333-2.453c0-2.867 1.547-3.733 2.773-3.733 1.24 0 2.373 0.44 2.373 2.187 0 2.24-1.493 3.387-1.493 4.987 0 1.253 1.013 2.253 2.24 2.253 3.893 0 5.28-2.92 5.28-5.667 0-3.64-3.147-6.587-7-6.587-3.867 0-7 2.947-7 6.587 0 1.12 0.333 2.24 0.907 3.213 0.147 0.267 0.227 0.56 0.227 0.867 0 0.92-0.746 1.667-1.667 1.667v0c-0.587 0-1.133-0.333-1.44-0.827-0.852-1.406-1.357-3.103-1.36-4.919v-0.001c0-5.48 4.64-9.92 10.333-9.92s10.333 4.44 10.333 9.92c0 4.373-2.72 9.080-8.667 9.080z"></path>
</svg>
