<!-- Generated by IcoMoon.io -->
<svg version="1.1" xmlns="http://www.w3.org/2000/svg" width="32" height="32" viewBox="0 0 32 32">
<title>pinterest-box</title>
<path d="M17.333 21.6c-1.067 0-2.093-0.453-2.827-1.227l-1.267 4.293-0.093 0.253-0.040-0.027c-0.253 0.44-0.72 0.707-1.24 0.707-0.813 0-1.467-0.653-1.467-1.467 0-0.067 0.013-0.133 0.013-0.2h-0.013l0.067-0.24 2.467-7.413s-0.267-0.827-0.267-1.973c0-2.307 1.227-2.973 2.213-2.973 1 0 1.893 0.347 1.893 1.747 0 1.787-1.187 2.707-1.187 4 0 0.987 0.8 1.8 1.787 1.8 3.12 0 4.227-2.347 4.227-4.547 0-2.907-2.507-5.267-5.6-5.267s-5.6 2.36-5.6 5.267c0 0.893 0.267 1.787 0.72 2.573 0.12 0.213 0.213 0.427 0.213 0.693 0 0.736-0.597 1.333-1.333 1.333v0c-0.493 0-0.947-0.267-1.173-0.667-0.687-1.118-1.093-2.471-1.093-3.92 0-0.005 0-0.009 0-0.014v0.001c0-4.373 3.707-7.933 8.267-7.933s8.267 3.56 8.267 7.933c0 3.493-2.173 7.267-6.933 7.267M26.667 2.667h-21.333c-1.48 0-2.667 1.187-2.667 2.667v21.333c0 1.473 1.194 2.667 2.667 2.667h21.333c1.473 0 2.667-1.194 2.667-2.667v0-21.333c0-1.473-1.194-2.667-2.667-2.667v0z"></path>
</svg>
