<!-- Generated by IcoMoon.io -->
<svg version="1.1" xmlns="http://www.w3.org/2000/svg" width="32" height="32" viewBox="0 0 32 32">
<title>pistol</title>
<path d="M9.333 6.667h21.333v5.333h-1.333v1.333h-8c-0.736 0-1.333 0.597-1.333 1.333v0 1.333c0 1.473-1.194 2.667-2.667 2.667v0h-4.507c-0.507 0-0.973 0.293-1.2 0.747l-3.267 6.52c-0.227 0.453-0.68 0.733-1.187 0.733h-4.507s-4 0 1.333-8c0 0 4-5.333-1.333-5.333v-6.667h1.333l0.667-1.333h4l0.667 1.333M18.667 16v-1.333c0-0.736-0.597-1.333-1.333-1.333h-1.333s-1.333 1.333 0 2.667c-1.473 0-2.667-1.194-2.667-2.667v0c-0.736 0-1.333 0.597-1.333 1.333v0 1.333c0 0.736 0.597 1.333 1.333 1.333v0h4c0.736 0 1.333-0.597 1.333-1.333v0z"></path>
</svg>
