<!-- Generated by IcoMoon.io -->
<svg version="1.1" xmlns="http://www.w3.org/2000/svg" width="32" height="32" viewBox="0 0 32 32">
<title>playstation</title>
<path d="M12.667 5.693c1.84 0.347 4.533 1.16 6 1.64 3.667 1.267 4.92 2.84 4.92 6.387 0 3.467-2.133 4.773-4.853 3.467v-6.453c0-0.733-0.133-1.44-0.853-1.64-0.547-0.173-0.867 0.333-0.867 1.080v16.133l-4.347-1.387v-19.227M17.827 23.493l7-2.493c0.8-0.28 0.92-0.68 0.28-0.893-0.653-0.213-1.813-0.147-2.613 0.133l-4.667 1.64v-2.613l0.28-0.093s1.347-0.507 3.227-0.68c1.907-0.213 4.227 0.027 6.040 0.707 2.053 0.653 2.293 1.613 1.773 2.267-0.533 0.667-1.813 1.133-1.813 1.133l-9.507 3.4v-2.507M4.667 23.227c-2.093-0.56-2.453-1.827-1.493-2.56 0.893-0.667 2.4-1.133 2.4-1.133l6.24-2.2v2.507l-4.48 1.613c-0.8 0.28-0.92 0.68-0.28 0.893s1.813 0.16 2.6-0.133l2.16-0.773v2.253l-0.427 0.080c-2.16 0.347-4.453 0.227-6.72-0.547z"></path>
</svg>
