<!-- Generated by IcoMoon.io -->
<svg version="1.1" xmlns="http://www.w3.org/2000/svg" width="32" height="32" viewBox="0 0 32 32">
<title>plus-circle-multiple-outline</title>
<path d="M21.333 10.667h-2.667v4h-4v2.667h4v4h2.667v-4h4v-2.667h-4M2.667 16c0-3.72 2.187-6.933 5.333-8.427v-2.907c-4.667 1.68-8 6.12-8 11.333s3.333 9.653 8 11.333v-2.907c-3.147-1.493-5.333-4.707-5.333-8.427M20 4c-6.613 0-12 5.387-12 12s5.387 12 12 12 12-5.387 12-12-5.387-12-12-12M20 25.333c-5.147 0-9.333-4.187-9.333-9.333s4.187-9.333 9.333-9.333 9.333 4.187 9.333 9.333-4.187 9.333-9.333 9.333z"></path>
</svg>
