<!-- Generated by IcoMoon.io -->
<svg version="1.1" xmlns="http://www.w3.org/2000/svg" width="32" height="32" viewBox="0 0 32 32">
<title>pound-box</title>
<path d="M4 6.667c0-1.473 1.194-2.667 2.667-2.667v0h18.667c1.473 0 2.667 1.194 2.667 2.667v0 18.667c0 1.473-1.194 2.667-2.667 2.667v0h-18.667c-1.473 0-2.667-1.194-2.667-2.667v0-18.667M9.333 24h2.667l0.467-2.667h5.333l-0.467 2.667h2.667l0.467-2.667h2.667l0.48-2.667h-2.667l0.933-5.333h2.667l0.467-2.667h-2.667l0.48-2.667h-2.667l-0.48 2.667h-5.333l0.48-2.667h-2.667l-0.48 2.667h-2.667l-0.467 2.667h2.667l-0.933 5.333h-2.667l-0.48 2.667h2.667l-0.467 2.667M13.88 13.333h5.333l-0.933 5.333h-5.333l0.933-5.333z"></path>
</svg>
