<!-- Generated by IcoMoon.io -->
<svg version="1.1" xmlns="http://www.w3.org/2000/svg" width="32" height="32" viewBox="0 0 32 32">
<title>power</title>
<path d="M22.080 7.253l-1.933 1.933c2.323 1.417 3.852 3.936 3.853 6.813v0c0 4.418-3.582 8-8 8v0c-4.418 0-8-3.582-8-8v0c0-2.893 1.547-5.413 3.84-6.827l-1.92-1.92c-2.786 1.941-4.587 5.129-4.587 8.737 0 0.003 0 0.007 0 0.010v-0.001c0 5.891 4.776 10.667 10.667 10.667v0c5.891 0 10.667-4.776 10.667-10.667v0c0-3.627-1.813-6.827-4.587-8.747M17.333 4h-2.667v13.333h2.667"></path>
</svg>
