<!-- Generated by IcoMoon.io -->
<svg version="1.1" xmlns="http://www.w3.org/2000/svg" width="32" height="32" viewBox="0 0 32 32">
<title>presentation-play</title>
<path d="M2.667 4h10.667c0-1.473 1.194-2.667 2.667-2.667v0c1.473 0 2.667 1.194 2.667 2.667v0h10.667v2.667h-1.333v14.667h-7.667l2.333 8h-2.667l-2.333-8h-3.333l-2.333 8h-2.667l2.333-8h-7.667v-14.667h-1.333v-2.667M6.667 6.667v12h18.667v-12h-18.667M15.8 15.8c-0.118 0.123-0.283 0.199-0.466 0.2h-0c-0.368 0-0.667-0.298-0.667-0.667v0-5.333c0-0.368 0.298-0.667 0.667-0.667v0c0.187 0 0.347 0.080 0.467 0.2l1.867 1.853c0.427 0.427 0.853 0.853 0.853 1.28s-0.427 0.853-0.853 1.28l-1.867 1.853z"></path>
</svg>
