<!-- Generated by IcoMoon.io -->
<svg version="1.1" xmlns="http://www.w3.org/2000/svg" width="32" height="32" viewBox="0 0 32 32">
<title>printer-alert</title>
<path d="M18.667 5.333v5.333h-10.667v-5.333h10.667M20 17.333c0.736 0 1.333-0.597 1.333-1.333v0c0-0.736-0.597-1.333-1.333-1.333v0c-0.736 0-1.333 0.597-1.333 1.333v0c0 0.736 0.597 1.333 1.333 1.333v0M17.333 25.333v-5.333h-8v5.333h8M20 12c2.209 0 4 1.791 4 4v0 6.667h-4v5.333h-13.333v-5.333h-4v-6.667c0-2.209 1.791-4 4-4v0h13.333M29.333 9.333v6.667h-2.667v-6.667h2.667M29.333 18.667v2.667h-2.667v-2.667h2.667z"></path>
</svg>
