<!-- Generated by IcoMoon.io -->
<svg version="1.1" xmlns="http://www.w3.org/2000/svg" width="32" height="32" viewBox="0 0 32 32">
<title>printer-d</title>
<path d="M25.333 8c0.736 0 1.333-0.597 1.333-1.333v0c0-0.736-0.597-1.333-1.333-1.333v0c-0.736 0-1.333 0.597-1.333 1.333v0c0 0.736 0.597 1.333 1.333 1.333v0M25.333 2.667c2.209 0 4 1.791 4 4v0 8h-5.333v-5.333h-16v5.333h-5.333v-8c0-2.209 1.791-4 4-4v0h18.667M24 24.333c0 0.507-0.28 0.947-0.707 1.173l-6.533 3.587c-0.227 0.16-0.48 0.24-0.76 0.24s-0.547-0.080-0.76-0.24l-6.533-3.587c-0.423-0.226-0.707-0.665-0.707-1.17 0-0.001 0-0.003 0-0.004v0-7c0-0.507 0.28-0.947 0.707-1.173l6.533-3.253c0.213-0.16 0.48-0.24 0.76-0.24s0.533 0.080 0.76 0.24l6.533 3.253c0.427 0.227 0.707 0.667 0.707 1.173v7M16 15.533l-3.947 1.8 3.947 2.133 3.947-2.133-3.947-1.8M10.667 23.547l4 2.173v-3.947l-4-2.16v3.933M21.333 23.547v-3.933l-4 2.16v3.947l4-2.173z"></path>
</svg>
