<!-- Generated by IcoMoon.io -->
<svg version="1.1" xmlns="http://www.w3.org/2000/svg" width="32" height="32" viewBox="0 0 32 32">
<title>professional-hexagon</title>
<path d="M28 22c0 0.507-0.28 0.947-0.707 1.173l-10.533 5.92c-0.213 0.16-0.48 0.24-0.76 0.24s-0.547-0.080-0.76-0.24l-10.533-5.92c-0.423-0.226-0.707-0.665-0.707-1.17 0-0.001 0-0.003 0-0.004v0-12c0-0.507 0.28-0.947 0.707-1.173l10.533-5.92c0.213-0.16 0.48-0.24 0.76-0.24s0.547 0.080 0.76 0.24l10.533 5.92c0.427 0.227 0.707 0.667 0.707 1.173v12M6.667 12v8h1.667v-2.667h1c1.473 0 2.667-1.194 2.667-2.667v0c0-1.473-1.194-2.667-2.667-2.667h-2.667M8.333 16v-2.667h0.667c0.736 0 1.333 0.597 1.333 1.333v0c0 0.736-0.597 1.333-1.333 1.333v0h-0.667M13 12v8h1.667v-2.667h1l0.88 2.667h1.76l-1.053-3.187c0.653-0.48 1.080-1.267 1.080-2.147 0-1.473-1.194-2.667-2.667-2.667h-2.667M14.667 16v-2.667h0.667c0.736 0 1.333 0.597 1.333 1.333v0c0 0.736-0.597 1.333-1.333 1.333h-0.667M22.667 12c-1.84 0-3.333 1.787-3.333 4s1.493 4 3.333 4 3.333-1.787 3.333-4-1.493-4-3.333-4M22.667 13.667c1.013 0 1.84 1.040 1.84 2.333s-0.827 2.333-1.84 2.333c-1.013 0-1.827-1.040-1.827-2.333s0.813-2.333 1.827-2.333z"></path>
</svg>
