<!-- Generated by IcoMoon.io -->
<svg version="1.1" xmlns="http://www.w3.org/2000/svg" width="32" height="32" viewBox="0 0 32 32">
<title>puzzle</title>
<path d="M27.333 14.667h-2v-5.333c0-1.473-1.194-2.667-2.667-2.667h-5.333v-2c0-1.841-1.492-3.333-3.333-3.333v0c-1.841 0-3.333 1.492-3.333 3.333v0 2h-5.333c-1.473 0-2.667 1.194-2.667 2.667v5.067h2c2 0 3.6 1.6 3.6 3.6s-1.6 3.6-3.6 3.6h-2v5.067c0 1.473 1.194 2.667 2.667 2.667h5.067v-2c0-2 1.6-3.6 3.6-3.6s3.6 1.6 3.6 3.6v2h5.067c1.473 0 2.667-1.194 2.667-2.667v-5.333h2c1.841 0 3.333-1.492 3.333-3.333v0c0-1.841-1.492-3.333-3.333-3.333v0z"></path>
</svg>
