<!-- Generated by IcoMoon.io -->
<svg version="1.1" xmlns="http://www.w3.org/2000/svg" width="32" height="32" viewBox="0 0 32 32">
<title>qqchat</title>
<path d="M4.24 18.053c0.773-1.84 1.853-3.2 2.653-3.493-0.013-1.067 0.187-1.733 0.52-2.267 0-0.040-0.080-0.48 0.213-1.027 0.2-4.8 3.32-8.6 8.373-8.6s8.173 3.8 8.373 8.6c0.293 0.547 0.213 0.987 0.213 1.027 0.333 0.533 0.533 1.2 0.52 2.267 0.8 0.293 1.88 1.653 2.653 3.507 1 2.347 1.16 4.6 0.36 5-0.547 0.267-1.413-0.4-2.227-1.573-0.32 1.307-1.12 2.507-2.253 3.453 1.2 0.44 1.973 1.16 1.973 1.973 0 1.333-2.107 2.413-4.693 2.413-2.347 0-4.253-0.88-4.64-2h-0.56c-0.387 1.12-2.293 2-4.64 2-2.587 0-4.693-1.080-4.693-2.413 0-0.813 0.773-1.533 1.973-1.973-1.133-0.947-1.933-2.147-2.253-3.453-0.813 1.173-1.68 1.84-2.227 1.573-0.8-0.4-0.64-2.653 0.36-5.013z"></path>
</svg>
