<!-- Generated by IcoMoon.io -->
<svg version="1.1" xmlns="http://www.w3.org/2000/svg" width="32" height="32" viewBox="0 0 32 32">
<title>qrcode-scan</title>
<path d="M5.333 5.333h8v8h-8v-8M26.667 5.333v8h-8v-8h8M18.667 20h2.667v-2.667h-2.667v-2.667h2.667v2.667h2.667v-2.667h2.667v2.667h-2.667v2.667h2.667v4h-2.667v2.667h-2.667v-2.667h-4v2.667h-2.667v-5.333h4v-1.333M21.333 20v4h2.667v-4h-2.667M5.333 26.667v-8h8v8h-8M8 8v2.667h2.667v-2.667h-2.667M21.333 8v2.667h2.667v-2.667h-2.667M8 21.333v2.667h2.667v-2.667h-2.667M5.333 14.667h2.667v2.667h-2.667v-2.667M12 14.667h5.333v5.333h-2.667v-2.667h-2.667v-2.667M14.667 8h2.667v5.333h-2.667v-5.333M2.667 2.667v5.333h-2.667v-5.333c0-1.473 1.194-2.667 2.667-2.667v0h5.333v2.667h-5.333M29.333 0c1.473 0 2.667 1.194 2.667 2.667v0 5.333h-2.667v-5.333h-5.333v-2.667h5.333M2.667 24v5.333h5.333v2.667h-5.333c-1.473 0-2.667-1.194-2.667-2.667v0-5.333h2.667M29.333 29.333v-5.333h2.667v5.333c0 1.473-1.194 2.667-2.667 2.667v0h-5.333v-2.667h5.333z"></path>
</svg>
