<!-- Generated by IcoMoon.io -->
<svg version="1.1" xmlns="http://www.w3.org/2000/svg" width="32" height="32" viewBox="0 0 32 32">
<title>qrcode</title>
<path d="M4 14.667h2.667v2.667h-2.667v-2.667M14.667 6.667h2.667v5.333h-2.667v-5.333M12 14.667h5.333v5.333h-2.667v-2.667h-2.667v-2.667M20 14.667h2.667v2.667h2.667v-2.667h2.667v2.667h-2.667v2.667h2.667v5.333h-2.667v2.667h-2.667v-2.667h-5.333v2.667h-2.667v-5.333h5.333v-2.667h2.667v-2.667h-2.667v-2.667M25.333 25.333v-5.333h-2.667v5.333h2.667M20 4h8v8h-8v-8M22.667 6.667v2.667h2.667v-2.667h-2.667M4 4h8v8h-8v-8M6.667 6.667v2.667h2.667v-2.667h-2.667M4 20h8v8h-8v-8M6.667 22.667v2.667h2.667v-2.667h-2.667z"></path>
</svg>
