<!-- Generated by IcoMoon.io -->
<svg version="1.1" xmlns="http://www.w3.org/2000/svg" width="32" height="32" viewBox="0 0 32 32">
<title>quality-high</title>
<path d="M19.333 18h2.667v-4h-2.667M24 18.667c0 0.736-0.597 1.333-1.333 1.333v0h-1v2h-2v-2h-1c-0.736 0-1.333-0.597-1.333-1.333v-5.333c0-0.736 0.597-1.333 1.333-1.333h4c0.736 0 1.333 0.597 1.333 1.333v0M14.667 20h-2v-2.667h-2.667v2.667h-2v-8h2v3.333h2.667v-3.333h2M25.333 5.333h-18.667c-1.48 0-2.667 1.187-2.667 2.667v16c0 1.473 1.194 2.667 2.667 2.667v0h18.667c1.473 0 2.667-1.194 2.667-2.667v0-16c0-1.473-1.194-2.667-2.667-2.667v0z"></path>
</svg>
