<!-- Generated by IcoMoon.io -->
<svg version="1.1" xmlns="http://www.w3.org/2000/svg" width="32" height="32" viewBox="0 0 32 32">
<title>radar</title>
<path d="M25.427 6.573l-1.88 1.88c1.928 1.933 3.12 4.6 3.12 7.546 0 0 0 0 0 0.001v-0c0 5.891-4.776 10.667-10.667 10.667v0c-5.891 0-10.667-4.776-10.667-10.667v0c0-5.44 4.067-9.92 9.333-10.573v2.693c-3.787 0.64-6.667 3.92-6.667 7.88 0 4.418 3.582 8 8 8v0c4.418 0 8-3.582 8-8v0c0-2.213-0.893-4.213-2.347-5.653l-1.88 1.88c0.96 0.973 1.56 2.307 1.56 3.773 0 2.946-2.388 5.333-5.333 5.333v0c-2.946 0-5.333-2.388-5.333-5.333v0c0-2.48 1.707-4.547 4-5.147v2.853c-0.8 0.467-1.333 1.307-1.333 2.293 0 1.473 1.194 2.667 2.667 2.667v0c1.473 0 2.667-1.194 2.667-2.667v0c0-0.987-0.533-1.84-1.333-2.293v-11.040h-1.333c-7.364 0-13.333 5.97-13.333 13.333v0c0 7.364 5.97 13.333 13.333 13.333v0c7.364 0 13.333-5.97 13.333-13.333v0c0-3.68-1.493-7.013-3.907-9.427z"></path>
</svg>
