<!-- Generated by IcoMoon.io -->
<svg version="1.1" xmlns="http://www.w3.org/2000/svg" width="32" height="32" viewBox="0 0 32 32">
<title>radio-tower</title>
<path d="M16 13.333c1.473 0 2.667 1.194 2.667 2.667v0c0 0.001 0 0.002 0 0.003 0 0.656-0.237 1.257-0.63 1.721l0.003-0.004 4.227 11.613h-2.84l-3.427-9.427-3.427 9.427h-2.84l4.227-11.613c-0.39-0.461-0.627-1.061-0.627-1.717 0-0.001 0-0.002 0-0.003v0c0-1.473 1.194-2.667 2.667-2.667v0M16 10.667c-2.946 0-5.333 2.388-5.333 5.333v0c0 0.667 0.133 1.333 0.373 1.947l-1.173 3.2c-1.161-1.383-1.866-3.182-1.867-5.147v-0c0-4.418 3.582-8 8-8v0c4.418 0 8 3.582 8 8v0c0 1.96-0.707 3.747-1.867 5.147l-1.173-3.2c0.24-0.613 0.373-1.28 0.373-1.947 0-2.946-2.388-5.333-5.333-5.333v0M16 5.333c-5.891 0-10.667 4.776-10.667 10.667v0c0 3.147 1.333 6 3.52 7.92l-0.96 2.667c-3.191-2.462-5.226-6.287-5.227-10.587v-0c0-7.364 5.97-13.333 13.333-13.333v0c7.364 0 13.333 5.97 13.333 13.333v0c0 4.307-2.053 8.147-5.227 10.587l-0.96-2.667c2.187-1.92 3.52-4.773 3.52-7.92 0-5.891-4.776-10.667-10.667-10.667v0z"></path>
</svg>
