<!-- Generated by IcoMoon.io -->
<svg version="1.1" xmlns="http://www.w3.org/2000/svg" width="32" height="32" viewBox="0 0 32 32">
<title>rdio</title>
<path d="M25.72 14.453c0.080 0.507 0.12 1.027 0.12 1.547 0 6.147-5.173 11.133-11.6 11.133-6.413 0-11.573-4.987-11.573-11.133s5.16-11.133 11.573-11.133c1.253 0 2.467 0.187 3.6 0.547v6.733s-3.453-1.893-6.547 0.32c-3.093 2.2-2.507 4.547-2.507 4.547s0.147 3.653 4.507 3.653c4.867 0 6.253-4.413 6.253-4.413v-10.147c0.933 0.467 1.787 1.040 2.653 1.693 2.067 1.293 4.227 2.12 6.693 2.053 0 0 0.44-0.107 0.44 0.813 0 0.533-0.16 1.107-0.667 1.667 0 0-0.96 1.44-2.947 2.12z"></path>
</svg>
