<!-- Generated by IcoMoon.io -->
<svg version="1.1" xmlns="http://www.w3.org/2000/svg" width="32" height="32" viewBox="0 0 32 32">
<title>readability</title>
<path d="M16 5.333c4.2 0 7.747 3.173 8.92 7.533-0.92 0.667-1.48 1.707-1.587 2.88l-0.24 2.8c-2.36-1.213-4.72-2.32-7.093-2.32-2.36 0-4.733 1.107-7.093 2.32l-0.24-2.853c-0.107-1.173-0.667-2.2-1.573-2.88 1.187-4.333 4.72-7.48 8.907-7.48M22.733 22.667h-13.467l-0.293-3.373c2.36-1.173 4.68-2.293 7.027-2.293s4.667 1.12 7.040 2.293l-0.307 3.373M6.667 25.333v-1.333l-1.707-4.667h-0.293c-1.841 0-3.333-1.492-3.333-3.333v0c0-1.841 1.492-3.333 3.333-3.333v0c1.76 0 3.187 1.333 3.333 3.080l0.667 8.253v1.333h-2M25.333 25.333h-2v-1.333l0.667-8.253c0.136-1.729 1.572-3.080 3.324-3.080 0.003 0 0.007 0 0.010 0h-0.001c1.841 0 3.333 1.492 3.333 3.333v0c0 1.841-1.492 3.333-3.333 3.333h-0.293l-1.707 4.667v1.333z"></path>
</svg>
