<!-- Generated by IcoMoon.io -->
<svg version="1.1" xmlns="http://www.w3.org/2000/svg" width="32" height="32" viewBox="0 0 32 32">
<title>recycle</title>
<path d="M29.093 20.56l-3.333 5.773c-0.653 1.147-1.867 1.747-3.093 1.667h-2.667v2.667l-3.333-6 3.333-6v2.667h3.76l-2.96-5.133 5.773-3.333 2.4 4.16c0.693 1.027 0.787 2.4 0.12 3.533M12.28 4.080h6.667c1.307 0 2.44 0.76 2.987 1.853l1.333 2.32 2.307-1.333-3.52 5.88-6.867 0.12 2.307-1.333-1.88-3.267-2.947 5.133-5.787-3.333 2.4-4.16c0.547-1.107 1.68-1.88 3-1.88M6.733 26.347l-3.333-5.773c-0.653-1.133-0.56-2.493 0.12-3.52l1.333-2.307-2.307-1.333 6.853 0.107 3.533 5.893-2.307-1.333-1.88 3.253h5.92v6.667h-4.8c-0.072 0.006-0.157 0.009-0.242 0.009-1.228 0-2.301-0.661-2.883-1.646l-0.008-0.016z"></path>
</svg>
