<!-- Generated by IcoMoon.io -->
<svg version="1.1" xmlns="http://www.w3.org/2000/svg" width="32" height="32" viewBox="0 0 32 32">
<title>relative-scale</title>
<path d="M26.667 24h-21.333v-16h21.333M26.667 5.333h-21.333c-1.48 0-2.667 1.187-2.667 2.667v16c0 1.473 1.194 2.667 2.667 2.667h21.333c1.473 0 2.667-1.194 2.667-2.667v0-16c0-1.473-1.194-2.667-2.667-2.667v0M16 13.333h-2.667v2.667h2.667M10.667 13.333h-2.667v2.667h2.667M21.333 18.667h-2.667v2.667h2.667M21.333 13.333h-2.667v2.667h2.667v-2.667z"></path>
</svg>
