<!-- Generated by IcoMoon.io -->
<svg version="1.1" xmlns="http://www.w3.org/2000/svg" width="32" height="32" viewBox="0 0 32 32">
<title>reload</title>
<path d="M25.333 16h4.427l-6.6 6.6-6.6-6.6h6.067c0.001-0.043 0.001-0.094 0.001-0.145 0-2.16-0.883-4.114-2.307-5.521l-0.001-0.001c-1.447-1.446-3.446-2.34-5.653-2.34s-4.206 0.894-5.653 2.34l0-0c-1.446 1.45-2.34 3.45-2.34 5.66s0.894 4.21 2.34 5.66l-0-0c1.449 1.443 3.447 2.336 5.654 2.336 1.25 0 2.433-0.286 3.487-0.797l-0.048 0.021 1.96 1.96c-1.549 0.929-3.418 1.479-5.415 1.479-2.941 0-5.604-1.192-7.532-3.119l0 0c-4.16-4.16-4.147-10.907 0.013-15.067 4.2-4.173 10.907-4.187 15.080-0.013 1.928 1.926 3.12 4.587 3.12 7.527 0 0.007 0 0.014-0 0.020v-0.001z"></path>
</svg>
