<!-- Generated by IcoMoon.io -->
<svg version="1.1" xmlns="http://www.w3.org/2000/svg" width="32" height="32" viewBox="0 0 32 32">
<title>responsive</title>
<path d="M5.333 8v13.333h6.667v-5.333c0-1.473 1.194-2.667 2.667-2.667h6.667c1.473 0 2.667 1.194 2.667 2.667v0 5.333h2.667v-13.333h-21.333M0 26.667v-2.667h5.333c-1.473 0-2.667-1.194-2.667-2.667v0-13.333c0-1.473 1.194-2.667 2.667-2.667h21.333c1.473 0 2.667 1.194 2.667 2.667v0 13.333c0 1.473-1.194 2.667-2.667 2.667h5.333v2.667h-8c0 1.473-1.194 2.667-2.667 2.667v0h-6.667c-1.473 0-2.667-1.194-2.667-2.667v0h-12M15.333 26.667c-0.368 0-0.667 0.298-0.667 0.667v0c0 0.368 0.298 0.667 0.667 0.667v0c0.368 0 0.667-0.298 0.667-0.667v0c0-0.368-0.298-0.667-0.667-0.667v0M20.667 26.667c-0.368 0-0.667 0.298-0.667 0.667v0c0 0.368 0.298 0.667 0.667 0.667v0c0.368 0 0.667-0.298 0.667-0.667v0c0-0.368-0.298-0.667-0.667-0.667v0M17.333 26.667v1.333h1.333v-1.333h-1.333M14.667 16v9.333h6.667v-9.333h-6.667z"></path>
</svg>
