<!-- Generated by IcoMoon.io -->
<svg version="1.1" xmlns="http://www.w3.org/2000/svg" width="32" height="32" viewBox="0 0 32 32">
<title>robot</title>
<path d="M16 2.667c1.473 0 2.667 1.194 2.667 2.667v0c0 0.987-0.533 1.853-1.333 2.307v1.693h1.333c5.155 0 9.333 4.179 9.333 9.333v0h1.333c0.736 0 1.333 0.597 1.333 1.333v0 4c0 0.736-0.597 1.333-1.333 1.333h-1.333v1.333c0 1.473-1.194 2.667-2.667 2.667v0h-18.667c-1.473 0-2.667-1.194-2.667-2.667v-1.333h-1.333c-0.736 0-1.333-0.597-1.333-1.333v-4c0-0.736 0.597-1.333 1.333-1.333h1.333c0-5.155 4.179-9.333 9.333-9.333h1.333v-1.693c-0.8-0.453-1.333-1.32-1.333-2.307 0-1.473 1.194-2.667 2.667-2.667v0M10 17.333c-1.841 0-3.333 1.492-3.333 3.333v0c0 1.841 1.492 3.333 3.333 3.333v0c1.841 0 3.333-1.492 3.333-3.333v0c0-1.841-1.492-3.333-3.333-3.333v0M22 17.333c-1.841 0-3.333 1.492-3.333 3.333v0c0 1.841 1.492 3.333 3.333 3.333v0c1.841 0 3.333-1.492 3.333-3.333v0c0-1.841-1.492-3.333-3.333-3.333v0z"></path>
</svg>
