<!-- Generated by IcoMoon.io -->
<svg version="1.1" xmlns="http://www.w3.org/2000/svg" width="32" height="32" viewBox="0 0 32 32">
<title>rocket</title>
<path d="M3.747 18.827l3.773-3.773 3.373-0.667c4.293-5.84 12.507-8.76 15.48-8.76 0 2.973-2.92 11.187-8.76 15.48l-0.667 3.373-3.773 3.773-0.947-4.707c-1.88 0-1.88 0-2.827-0.947s-0.947-0.947-0.947-2.827l-4.707-0.947M7.52 22.6l1.88 1.88-3.547 3.56h-1.893v-1.893l3.56-3.547M5.627 20.72l1.653 0.227-3.28 3.267v-1.893l1.627-1.6M11.053 24.72l0.227 1.653-1.6 1.627h-1.893l3.267-3.28M17.333 12.667c-1.105 0-2 0.895-2 2v0c0 1.105 0.895 2 2 2v0c1.105 0 2-0.895 2-2v0c0-1.105-0.895-2-2-2v0z"></path>
</svg>
