<!-- Generated by IcoMoon.io -->
<svg version="1.1" xmlns="http://www.w3.org/2000/svg" width="32" height="32" viewBox="0 0 32 32">
<title>roomba</title>
<path d="M16 2.667c3.533 0 6.92 1.413 9.427 3.907l-1.893 1.893c-1.927-1.932-4.59-3.129-7.533-3.133h-0.001c-2.827 0-5.547 1.12-7.533 3.133l-1.893-1.893c2.507-2.493 5.893-3.907 9.427-3.907M4.88 8.667l1.933 1.92c-0.926 1.549-1.476 3.417-1.48 5.412v0.001c0 5.891 4.776 10.667 10.667 10.667v0c5.891 0 10.667-4.776 10.667-10.667v0c0-1.907-0.52-3.773-1.493-5.413l1.947-1.92c1.387 2.060 2.213 4.598 2.213 7.329 0 0.002 0 0.003 0 0.005v-0c0 7.364-5.97 13.333-13.333 13.333v0c-7.364 0-13.333-5.97-13.333-13.333v0c0-2.613 0.773-5.173 2.213-7.333M16 8c4.418 0 8 3.582 8 8v0c0 2.12-0.84 4.16-2.347 5.653l-1.88-1.88c-0.966 0.965-2.3 1.562-3.773 1.562s-2.807-0.597-3.773-1.562l0 0-1.88 1.88c-1.45-1.442-2.347-3.438-2.347-5.644 0-0.003 0-0.007 0-0.010v0.001c0-4.418 3.582-8 8-8v0M16 10.667c-0.736 0-1.333 0.597-1.333 1.333v0c0 0.736 0.597 1.333 1.333 1.333v0c0.736 0 1.333-0.597 1.333-1.333v0c0-0.736-0.597-1.333-1.333-1.333v0z"></path>
</svg>
