<!-- Generated by IcoMoon.io -->
<svg version="1.1" xmlns="http://www.w3.org/2000/svg" width="32" height="32" viewBox="0 0 32 32">
<title>rotate-right-variant</title>
<path d="M13.333 5.333v-4l5.333 5.333-5.333 5.333v-4c-4.418 0-8 3.582-8 8v0l0.107 1.333h-2.693l-0.080-1.333c0-5.891 4.776-10.667 10.667-10.667v0M22.667 2.667h4c1.473 0 2.667 1.194 2.667 2.667v21.333c0 1.473-1.194 2.667-2.667 2.667h-4c-1.473 0-2.667-1.194-2.667-2.667v-21.333c0-1.473 1.194-2.667 2.667-2.667v0M5.333 20h12v9.333h-12c-1.473 0-2.667-1.194-2.667-2.667v-4c0-1.473 1.194-2.667 2.667-2.667v0z"></path>
</svg>
