<!-- Generated by IcoMoon.io -->
<svg version="1.1" xmlns="http://www.w3.org/2000/svg" width="32" height="32" viewBox="0 0 32 32">
<title>rotate-</title>
<path d="M9.787 8.547l-8.64 8.653 8.653 8.64 8.653-8.64-8.667-8.653M4.92 17.2l4.88-4.88 4.867 4.88-4.88 4.88-4.867-4.88M25.813 8.853c-2.162-2.174-5.155-3.52-8.463-3.52-0.006 0-0.012 0-0.018 0h0.001v-4.32l-5.653 5.653 5.653 5.653v-4.32c2.387 0 4.773 0.907 6.6 2.733 1.687 1.69 2.73 4.023 2.73 6.6s-1.043 4.91-2.73 6.6l0-0c-1.683 1.688-4.012 2.733-6.584 2.733-1.377 0-2.685-0.299-3.861-0.837l0.058 0.024-1.987 1.987c1.773 0.987 3.773 1.493 5.773 1.493 3.067 0 6.147-1.173 8.48-3.52 2.175-2.168 3.52-5.167 3.52-8.48s-1.346-6.312-3.52-8.48l-0-0z"></path>
</svg>
