<!-- Generated by IcoMoon.io -->
<svg version="1.1" xmlns="http://www.w3.org/2000/svg" width="32" height="32" viewBox="0 0 32 32">
<title>rotate-left-variant</title>
<path d="M5.333 2.667h4c1.473 0 2.667 1.194 2.667 2.667v21.333c0 1.473-1.194 2.667-2.667 2.667v0h-4c-1.473 0-2.667-1.194-2.667-2.667v-21.333c0-1.473 1.194-2.667 2.667-2.667v0M26.667 20c1.473 0 2.667 1.194 2.667 2.667v0 4c0 1.473-1.194 2.667-2.667 2.667h-12v-9.333h12M18.667 5.333c5.891 0 10.667 4.776 10.667 10.667v0l-0.080 1.333h-2.693l0.107-1.333c0-4.418-3.582-8-8-8v0 4l-5.333-5.333 5.333-5.333v4z"></path>
</svg>
