<!-- Generated by IcoMoon.io -->
<svg version="1.1" xmlns="http://www.w3.org/2000/svg" width="32" height="32" viewBox="0 0 32 32">
<title>rounded-corner</title>
<path d="M25.333 25.333h2.667v2.667h-2.667v-2.667M25.333 22.667h2.667v-2.667h-2.667v2.667M4 17.333h2.667v-2.667h-2.667v2.667M4 22.667h2.667v-2.667h-2.667v2.667M4 12h2.667v-2.667h-2.667v2.667M4 6.667h2.667v-2.667h-2.667v2.667M9.333 6.667h2.667v-2.667h-2.667v2.667M20 28h2.667v-2.667h-2.667v2.667M14.667 28h2.667v-2.667h-2.667v2.667M20 28h2.667v-2.667h-2.667v2.667M9.333 28h2.667v-2.667h-2.667v2.667M4 28h2.667v-2.667h-2.667v2.667M28 10.667c0-3.682-2.985-6.667-6.667-6.667v0h-6.667v2.667h6.667c2.209 0 4 1.791 4 4v0 6.667h2.667v-6.667z"></path>
</svg>
