<!-- Generated by IcoMoon.io -->
<svg version="1.1" xmlns="http://www.w3.org/2000/svg" width="32" height="32" viewBox="0 0 32 32">
<title>rowing</title>
<path d="M11.333 19.333l-6 6 2 2 4.667-4.667h2.667l-3.333-3.333M20 1.333c-1.473 0-2.667 1.194-2.667 2.667v0c0 1.473 1.194 2.667 2.667 2.667v0c1.473 0 2.667-1.194 2.667-2.667v0c0-1.473-1.194-2.667-2.667-2.667v0M28 28l-4 4-4-4v-2l-9.453-9.453c-0.413 0.067-0.813 0.12-1.213 0.12v-2.907c2.213 0.040 4.813-1.16 6.227-2.72l1.867-2.067c0.253-0.307 0.573-0.507 0.92-0.667 0.387-0.187 0.827-0.307 1.28-0.307h0.040c1.667 0 3 1.333 3 3.013v7.653c0 1.133-0.467 2.16-1.227 2.893l-4.773-4.773v-3.027c-0.84 0.693-1.907 1.36-3.053 1.853l8.387 8.387h2l4 4z"></path>
</svg>
