<!-- Generated by IcoMoon.io -->
<svg version="1.1" xmlns="http://www.w3.org/2000/svg" width="32" height="32" viewBox="0 0 32 32">
<title>rss-box</title>
<path d="M6.667 4h18.667c1.473 0 2.667 1.194 2.667 2.667v0 18.667c0 1.473-1.194 2.667-2.667 2.667v0h-18.667c-1.473 0-2.667-1.194-2.667-2.667v0-18.667c0-1.473 1.194-2.667 2.667-2.667v0M10 20c-1.105 0-2 0.895-2 2v0c0 1.105 0.895 2 2 2v0c1.105 0 2-0.895 2-2v0c0-1.105-0.895-2-2-2v0M8 13.333v2.667c4.418 0 8 3.582 8 8v0h2.667c0-5.891-4.776-10.667-10.667-10.667v0M8 8v2.667c7.364 0 13.333 5.97 13.333 13.333v0h2.667c0-8.837-7.163-16-16-16v0z"></path>
</svg>
