<!-- Generated by IcoMoon.io -->
<svg version="1.1" xmlns="http://www.w3.org/2000/svg" width="32" height="32" viewBox="0 0 32 32">
<title>ruler</title>
<path d="M1.853 24.48l2.36-2.347 1.893 1.867 1.413-1.4-1.893-1.88 1.893-1.893 3.293 3.307 1.413-1.413-3.293-3.307 1.88-1.88 1.893 1.88 1.413-1.413-1.893-1.88 1.893-1.893 3.293 3.307 1.413-1.413-3.293-3.307 1.88-1.88 1.88 1.88 1.427-1.413-1.893-1.88 1.893-1.893 3.28 3.307 1.427-1.413-3.293-3.307 2.347-2.36 5.667 5.667-22.627 22.627-5.667-5.667z"></path>
</svg>
