<!-- Generated by IcoMoon.io -->
<svg version="1.1" xmlns="http://www.w3.org/2000/svg" width="32" height="32" viewBox="0 0 32 32">
<title>scale-balance</title>
<path d="M16 4c-1.693 0-3.2 1.067-3.76 2.667h-8.24v2.667h2.6l-3.933 9.333c-0.627 2.667 1.333 4 4.667 4s5.413-1.333 4.667-4l-3.933-9.333h4.16c0.44 1.133 1.307 2 2.44 2.44v14.893h-12v2.667h26.667v-2.667h-12v-14.907c1.133-0.427 2-1.293 2.427-2.427h4.173l-3.933 9.333c-0.627 2.667 1.333 4 4.667 4s5.413-1.333 4.667-4l-3.933-9.333h2.6v-2.667h-8.227c-0.573-1.6-2.080-2.667-3.773-2.667M16 6.667c0.736 0 1.333 0.597 1.333 1.333v0c0 0.736-0.597 1.333-1.333 1.333v0c-0.736 0-1.333-0.597-1.333-1.333v0c0-0.736 0.597-1.333 1.333-1.333v0M7.333 13.667l2 5h-4l2-5M24.667 13.667l2 5h-4l2-5z"></path>
</svg>
