<!-- Generated by IcoMoon.io -->
<svg version="1.1" xmlns="http://www.w3.org/2000/svg" width="32" height="32" viewBox="0 0 32 32">
<title>seal</title>
<path d="M27.187 25.827l-5.347-1.827-1.84 5.333-4.107-8-3.893 8-1.84-5.333-5.347 1.827 3.893-8c-1.271-1.576-2.040-3.603-2.040-5.81 0-0.006 0-0.012 0-0.018v0.001c0-5.155 4.179-9.333 9.333-9.333v0c5.155 0 9.333 4.179 9.333 9.333v0c0 2.2-0.76 4.227-2.040 5.827l3.893 8M9.333 12l3.587 1.787-0.253 4 3.333-2.213 3.333 2.2-0.227-3.987 3.56-1.787-3.573-1.8 0.24-3.973-3.333 2.187-3.333-2.213 0.227 4.013-3.56 1.787z"></path>
</svg>
