<!-- Generated by IcoMoon.io -->
<svg version="1.1" xmlns="http://www.w3.org/2000/svg" width="32" height="32" viewBox="0 0 32 32">
<title>seat-recline-normal</title>
<path d="M10.12 7.213c-1.040-1.040-1.040-2.733 0-3.773s2.733-1.040 3.773 0c1.040 1.040 1.040 2.733 0 3.773-1.053 1.053-2.733 1.053-3.773 0M8 21.333v-12h-2.667v12c0 3.682 2.985 6.667 6.667 6.667v0h8v-2.667h-8c-2.209 0-4-1.791-4-4v0M26.667 26.76l-6.76-6.76h-4.573v-4.907c1.867 1.533 4.8 2.907 7.333 2.907v-2.907c-2.213 0.027-4.813-1.16-6.227-2.72l-1.867-2.067c-0.253-0.307-0.573-0.507-0.92-0.667-0.387-0.187-0.827-0.307-1.28-0.307h-0.040c-1.667 0-3 1.333-3 3v7.667c0 2.209 1.791 4 4 4v0h6.76l4.667 4.667"></path>
</svg>
