<!-- Generated by IcoMoon.io -->
<svg version="1.1" xmlns="http://www.w3.org/2000/svg" width="32" height="32" viewBox="0 0 32 32">
<title>security-network</title>
<path d="M17.333 24h1.333c0.736 0 1.333 0.597 1.333 1.333v0h9.333v2.667h-9.333c0 0.736-0.597 1.333-1.333 1.333v0h-5.333c-0.736 0-1.333-0.597-1.333-1.333v0h-9.333v-2.667h9.333c0-0.736 0.597-1.333 1.333-1.333h1.333v-2.213c-3.907-1.613-6.667-5.787-6.667-10.227v-5.333l8-3.56 8 3.56v5.333c0 4.44-2.76 8.613-6.667 10.227v2.213M16 5.333l-5.333 2.253v4.413h5.333v-6.667M16 12v8c2.547-0.627 5.333-3.92 5.333-6.667v-1.333h-5.333z"></path>
</svg>
