<!-- Generated by IcoMoon.io -->
<svg version="1.1" xmlns="http://www.w3.org/2000/svg" width="32" height="32" viewBox="0 0 32 32">
<title>selection</title>
<path d="M2.667 5.333v4h2.667v-4h-2.667M9.333 5.333h-6.667c0-1.473 1.194-2.667 2.667-2.667h4v2.667M29.333 5.333v4h-2.667v-4h2.667M22.667 5.333h6.667c0-1.473-1.194-2.667-2.667-2.667h-4v2.667M29.333 26.667v-4h-2.667v4h2.667M22.667 26.667h6.667c0 1.473-1.194 2.667-2.667 2.667h-4v-2.667M2.667 26.667v-4h2.667v4h-2.667M9.333 26.667h-6.667c0 1.473 1.194 2.667 2.667 2.667h4v-2.667M13.333 2.667h5.333v2.667h-5.333v-2.667M13.333 26.667h5.333v2.667h-5.333v-2.667M26.667 13.333h2.667v5.333h-2.667v-5.333M2.667 13.333h2.667v5.333h-2.667v-5.333z"></path>
</svg>
