<!-- Generated by IcoMoon.io -->
<svg version="1.1" xmlns="http://www.w3.org/2000/svg" width="32" height="32" viewBox="0 0 32 32">
<title>select-off</title>
<path d="M1.333 5.693l1.707-1.693 24.96 24.96-1.693 1.707-3.64-3.64v0.973h-2.667v-2.667h0.973l-14.307-14.307v0.973h-2.667v-2.667h0.973l-3.64-3.64M26.667 4c0.736 0 1.333 0.597 1.333 1.333v0 1.333h-2.667v-2.667h1.333M20 6.667v-2.667h2.667v2.667h-2.667M14.667 6.667v-2.667h2.667v2.667h-2.667M9.333 6.667v-2.667h2.667v2.667h-2.667M14.667 28v-2.667h2.667v2.667h-2.667M9.333 28v-2.667h2.667v2.667h-2.667M5.333 28c-0.736 0-1.333-0.597-1.333-1.333v0-1.333h2.667v2.667h-1.333M4 20h2.667v2.667h-2.667v-2.667M28 20v2.667h-2.667v-2.667h2.667M4 14.667h2.667v2.667h-2.667v-2.667M28 14.667v2.667h-2.667v-2.667h2.667M28 9.333v2.667h-2.667v-2.667h2.667z"></path>
</svg>
