<!-- Generated by IcoMoon.io -->
<svg version="1.1" xmlns="http://www.w3.org/2000/svg" width="32" height="32" viewBox="0 0 32 32">
<title>server-off</title>
<path d="M5.333 1.333h21.333c0.736 0 1.333 0.597 1.333 1.333v0 5.333c0 0.736-0.597 1.333-1.333 1.333v0h-14.907l-2.667-2.667h0.24v-2.667h-2.667v0.24l-2.387-2.387c0.24-0.32 0.627-0.52 1.053-0.52M29.333 30.293l-1.693 1.707-1.333-1.333h-20.973c-0.736 0-1.333-0.597-1.333-1.333v0-5.333c0-0.736 0.597-1.333 1.333-1.333v0h12.973l-2.667-2.667h-10.307c-0.736 0-1.333-0.597-1.333-1.333v0-5.333c0-0.736 0.597-1.333 1.333-1.333v0h2.307l-2.733-2.733c-0.4-0.133-0.707-0.44-0.84-0.84l-2.733-2.733 1.707-1.693 26.293 26.293M26.667 12c0.736 0 1.333 0.597 1.333 1.333v5.333c0 0.736-0.597 1.333-1.333 1.333v0h-4.24l-8-8h12.24M26.667 22.667c0.736 0 1.333 0.597 1.333 1.333v0 1.573l-2.907-2.907h1.573M12 6.667h1.333v-2.667h-1.333v2.667M12 17.333h0.973l-0.973-0.973v0.973M12 28h1.333v-2.667h-1.333v2.667M6.667 14.667v2.667h2.667v-2.667h-2.667M6.667 25.333v2.667h2.667v-2.667h-2.667z"></path>
</svg>
