<!-- Generated by IcoMoon.io -->
<svg version="1.1" xmlns="http://www.w3.org/2000/svg" width="32" height="32" viewBox="0 0 32 32">
<title>server</title>
<path d="M5.333 1.333h21.333c0.736 0 1.333 0.597 1.333 1.333v0 5.333c0 0.736-0.597 1.333-1.333 1.333v0h-21.333c-0.736 0-1.333-0.597-1.333-1.333v0-5.333c0-0.736 0.597-1.333 1.333-1.333v0M5.333 12h21.333c0.736 0 1.333 0.597 1.333 1.333v0 5.333c0 0.736-0.597 1.333-1.333 1.333v0h-21.333c-0.736 0-1.333-0.597-1.333-1.333v0-5.333c0-0.736 0.597-1.333 1.333-1.333v0M5.333 22.667h21.333c0.736 0 1.333 0.597 1.333 1.333v5.333c0 0.736-0.597 1.333-1.333 1.333v0h-21.333c-0.736 0-1.333-0.597-1.333-1.333v0-5.333c0-0.736 0.597-1.333 1.333-1.333v0M12 6.667h1.333v-2.667h-1.333v2.667M12 17.333h1.333v-2.667h-1.333v2.667M12 28h1.333v-2.667h-1.333v2.667M6.667 4v2.667h2.667v-2.667h-2.667M6.667 14.667v2.667h2.667v-2.667h-2.667M6.667 25.333v2.667h2.667v-2.667h-2.667z"></path>
</svg>
