<!-- Generated by IcoMoon.io -->
<svg version="1.1" xmlns="http://www.w3.org/2000/svg" width="32" height="32" viewBox="0 0 32 32">
<title>shopping</title>
<path d="M16 17.333c-3.682 0-6.667-2.985-6.667-6.667v0h2.667c0 2.209 1.791 4 4 4v0c2.209 0 4-1.791 4-4v0h2.667c0 3.682-2.985 6.667-6.667 6.667v0M16 4c2.209 0 4 1.791 4 4v0h-8c0-2.209 1.791-4 4-4v0M25.333 8h-2.667c0-3.682-2.985-6.667-6.667-6.667v0c-3.682 0-6.667 2.985-6.667 6.667v0h-2.667c-1.48 0-2.667 1.187-2.667 2.667v16c0 1.473 1.194 2.667 2.667 2.667v0h18.667c1.473 0 2.667-1.194 2.667-2.667v-16c0-1.473-1.194-2.667-2.667-2.667v0z"></path>
</svg>
