<!-- Generated by IcoMoon.io -->
<svg version="1.1" xmlns="http://www.w3.org/2000/svg" width="32" height="32" viewBox="0 0 32 32">
<title>shredder</title>
<path d="M8 4v5.333h2.667v-2.667h10.667v2.667h2.667v-5.333h-16M6.667 10.667c-2.209 0-4 1.791-4 4v0 8h4v-4h18.667v4h4v-8c0-2.209-1.791-4-4-4v0h-18.667M24 13.333c0.736 0 1.333 0.597 1.333 1.333v0c0 0.736-0.597 1.333-1.333 1.333v0c-0.736 0-1.333-0.597-1.333-1.333v0c0-0.736 0.597-1.333 1.333-1.333v0M9.333 21.333v6.667h2.667v-6.667h-2.667M14.667 21.333v5.333h2.667v-5.333h-2.667M20 21.333v6.667h2.667v-6.667h-2.667z"></path>
</svg>
