<!-- Generated by IcoMoon.io -->
<svg version="1.1" xmlns="http://www.w3.org/2000/svg" width="32" height="32" viewBox="0 0 32 32">
<title>signal-variant</title>
<path d="M5.333 8v-2.667h0.133c11.733 0 21.2 9.467 21.2 21.2v0.133h-2.667v-0.133c0-10.267-8.267-18.533-18.667-18.533M5.333 13.333v-2.667c8.837 0 16 7.163 16 16v0h-2.667c0-7.364-5.97-13.333-13.333-13.333v0M5.333 18.667v-2.667c5.891 0 10.667 4.776 10.667 10.667v0h-2.667c0-4.418-3.582-8-8-8v0M5.333 21.333c2.946 0 5.333 2.388 5.333 5.333v0h-5.333v-5.333z"></path>
</svg>
