<!-- Generated by IcoMoon.io -->
<svg version="1.1" xmlns="http://www.w3.org/2000/svg" width="32" height="32" viewBox="0 0 32 32">
<title>silverware</title>
<path d="M10.8 17.787l-5.587-5.573c-0.964-0.967-1.56-2.3-1.56-3.773s0.596-2.807 1.56-3.773l-0 0 9.36 9.333-3.773 3.787M19.84 15.373l-1.96 1.96 9.173 9.173-1.88 1.88-9.173-9.173-9.173 9.173-1.88-1.88 13.013-13.013c-0.947-2.040-0.28-4.907 1.84-7.027 2.547-2.56 6.2-3.040 8.147-1.093 1.96 1.96 1.48 5.613-1.080 8.16-2.12 2.12-4.987 2.787-7.027 1.84z"></path>
</svg>
