<!-- Generated by IcoMoon.io -->
<svg version="1.1" xmlns="http://www.w3.org/2000/svg" width="32" height="32" viewBox="0 0 32 32">
<title>soccer</title>
<path d="M16 2.667c-7.364 0-13.333 5.97-13.333 13.333v0c0 7.364 5.97 13.333 13.333 13.333v0c7.364 0 13.333-5.97 13.333-13.333v0c0-7.364-5.97-13.333-13.333-13.333v0M16 4c2.347 0 4.533 0.707 6.373 1.88l-0.373 0.787h-6l-2.293-1.12 0.467-1.373c0.6-0.107 1.2-0.173 1.827-0.173M12.707 4.507l-0.453 1.373-3.413 1.707-1.667 0.333c1.463-1.585 3.335-2.771 5.448-3.392l0.085-0.021M17.333 8h4l3.587 4.787-1.667 3.427-3.507 0.827-4.373-5.12 1.96-3.92M8.213 8.88l1.12 4.453-1.627 4.080-3.413 1.173c-0.187-0.84-0.293-1.693-0.293-2.587 0-2.533 0.787-4.853 2.12-6.787l2.093-0.333M27.413 12.293c0.387 1.16 0.587 2.413 0.587 3.707 0 1.92-0.493 3.72-1.293 5.333h-1.373l-1.12-4.453 2-4 1.2-0.587M10.667 13.333h4l3.747 4.373-2.413 3.627-4.213 1.040-3.080-4.12 1.96-4.92M16 22.667l4 2.667-1.16 2.293c-0.92 0.213-1.867 0.373-2.84 0.373-2.333 0-4.493-0.667-6.333-1.827l1.547-2.293 4.787-1.213M25.333 22.667h0.667c-1.333 2-3.333 3.56-5.587 4.453l0.92-1.787 4-2.667z"></path>
</svg>
