<!-- Generated by IcoMoon.io -->
<svg version="1.1" xmlns="http://www.w3.org/2000/svg" width="32" height="32" viewBox="0 0 32 32">
<title>sofa</title>
<path d="M9.333 8h2.667c1.473 0 2.667 1.194 2.667 2.667v0 5.333h-8v-5.333c0-1.473 1.194-2.667 2.667-2.667v0M20 8h2.667c1.473 0 2.667 1.194 2.667 2.667v0 5.333h-8v-5.333c0-1.473 1.194-2.667 2.667-2.667v0M1.333 12h1.333c0.736 0 1.333 0.597 1.333 1.333v2.667c0 1.473 1.194 2.667 2.667 2.667h18.667c1.473 0 2.667-1.194 2.667-2.667v0-2.667c0-0.736 0.597-1.333 1.333-1.333v0h1.333c0.736 0 1.333 0.597 1.333 1.333v12h-4v-2.667h-24v2.667h-4v-12c0-0.736 0.597-1.333 1.333-1.333v0z"></path>
</svg>
