<!-- Generated by IcoMoon.io -->
<svg version="1.1" xmlns="http://www.w3.org/2000/svg" width="32" height="32" viewBox="0 0 32 32">
<title>soundcloud</title>
<path d="M15.413 11.827v10.84h11.68c2.467-0.173 3.573-1.693 3.573-3.56 0-1.973-1.493-3.56-3.493-3.56-0.507 0-0.933 0.107-1.373 0.293-0.32-3.12-2.973-5.56-6.24-5.56-1.56 0-3.040 0.587-4.147 1.547M14.24 13.187c-0.4-0.24-0.827-0.427-1.293-0.52v10h1.853v-10.213c-0.2 0.213-0.387 0.48-0.56 0.733M11.107 12.467v10.2h1.227v-10.16c-0.253-0.040-0.507-0.053-0.773-0.053-0.16 0-0.307 0-0.453 0.013M8.667 13.333v9.333h1.213v-9.947c-0.44 0.147-0.853 0.36-1.213 0.613M6.44 16.667c-0.080 0-0.16-0.080-0.253-0.12v6.12h1.227v-8.187c-0.493 0.64-0.827 1.4-0.973 2.187M3.72 16.293v6.253c0.28 0.080 0.6 0.12 0.947 0.12h0.293v-6.48c-0.107-0.013-0.213-0.027-0.293-0.027-0.347 0-0.667 0.053-0.947 0.133M1.333 19.413c0 1 0.453 1.88 1.16 2.48v-4.947c-0.707 0.587-1.16 1.48-1.16 2.467z"></path>
</svg>
