<!-- Generated by IcoMoon.io -->
<svg version="1.1" xmlns="http://www.w3.org/2000/svg" width="32" height="32" viewBox="0 0 32 32">
<title>source-fork</title>
<path d="M8 2.667c2.209 0 4 1.791 4 4v0c0 1.707-1.080 3.173-2.587 3.747 0.12 0.613 0.44 1.36 1.253 2.427 1.333 1.72 4 4.267 5.333 6.053 1.333-1.787 4-4.333 5.333-6.053 0.813-1.067 1.133-1.813 1.253-2.427-1.523-0.593-2.583-2.045-2.587-3.746v-0c0-2.209 1.791-4 4-4v0c2.209 0 4 1.791 4 4v0c0 1.76-1.147 3.267-2.733 3.8-0.107 0.693-0.413 1.533-1.267 2.64-1.333 1.787-4 4.333-5.333 6.067-0.813 1.053-1.133 1.8-1.253 2.413 1.507 0.573 2.587 2.040 2.587 3.747 0 2.209-1.791 4-4 4v0c-2.209 0-4-1.791-4-4v0c0-1.707 1.080-3.173 2.587-3.747-0.12-0.613-0.44-1.36-1.253-2.413-1.333-1.733-4-4.28-5.333-6.067-0.853-1.107-1.16-1.947-1.267-2.64-1.6-0.552-2.729-2.044-2.733-3.8v-0c0-2.209 1.791-4 4-4v0M8 5.333c-0.736 0-1.333 0.597-1.333 1.333v0c0 0.736 0.597 1.333 1.333 1.333v0c0.736 0 1.333-0.597 1.333-1.333v0c0-0.736-0.597-1.333-1.333-1.333v0M24 5.333c-0.736 0-1.333 0.597-1.333 1.333v0c0 0.736 0.597 1.333 1.333 1.333v0c0.736 0 1.333-0.597 1.333-1.333v0c0-0.736-0.597-1.333-1.333-1.333v0M16 24c-0.736 0-1.333 0.597-1.333 1.333v0c0 0.736 0.597 1.333 1.333 1.333v0c0.736 0 1.333-0.597 1.333-1.333v0c0-0.736-0.597-1.333-1.333-1.333v0z"></path>
</svg>
