<!-- Generated by IcoMoon.io -->
<svg version="1.1" xmlns="http://www.w3.org/2000/svg" width="32" height="32" viewBox="0 0 32 32">
<title>source-merge</title>
<path d="M9.333 4c2.209 0 4 1.791 4 4v0c0 1.72-1.080 3.187-2.613 3.747 0.72 6.667 6.72 7.947 9.533 8.2 0.574-1.538 2.030-2.613 3.738-2.613 0.003 0 0.006 0 0.009 0h-0c2.209 0 4 1.791 4 4v0c0 2.209-1.791 4-4 4v0c-1.747 0-3.24-1.12-3.787-2.667-5.667-0.267-7.627-2.413-9.547-4.813v2.373c1.56 0.547 2.667 2.027 2.667 3.773 0 2.209-1.791 4-4 4v0c-2.209 0-4-1.791-4-4v0c0-1.747 1.107-3.227 2.667-3.773v-8.453c-1.566-0.561-2.667-2.033-2.667-3.762 0-0.004 0-0.008 0-0.012v0.001c0-2.209 1.791-4 4-4v0M9.333 6.667c-0.736 0-1.333 0.597-1.333 1.333v0c0 0.736 0.597 1.333 1.333 1.333v0c0.736 0 1.333-0.597 1.333-1.333v0c0-0.736-0.597-1.333-1.333-1.333v0M9.333 22.667c-0.736 0-1.333 0.597-1.333 1.333v0c0 0.736 0.597 1.333 1.333 1.333v0c0.736 0 1.333-0.597 1.333-1.333v0c0-0.736-0.597-1.333-1.333-1.333v0M24 20c-0.736 0-1.333 0.597-1.333 1.333v0c0 0.736 0.597 1.333 1.333 1.333v0c0.736 0 1.333-0.597 1.333-1.333v0c0-0.736-0.597-1.333-1.333-1.333v0z"></path>
</svg>
