<!-- Generated by IcoMoon.io -->
<svg version="1.1" xmlns="http://www.w3.org/2000/svg" width="32" height="32" viewBox="0 0 32 32">
<title>speedometer</title>
<path d="M16 21.333c-2.209 0-4-1.791-4-4v0c0-1.493 0.813-2.8 2-3.48l12.947-7.493-7.373 12.773c-0.667 1.307-2.013 2.2-3.573 2.2M16 4c2.413 0 4.667 0.667 6.627 1.76l-2.8 1.613c-1.16-0.453-2.493-0.707-3.827-0.707-5.891 0-10.667 4.776-10.667 10.667v0c0 2.947 1.187 5.613 3.12 7.533h0.013c0.52 0.52 0.52 1.36 0 1.88s-1.373 0.52-1.893 0.013c-2.413-2.407-3.907-5.735-3.907-9.412 0-0.005 0-0.010 0-0.015v0.001c0-7.364 5.97-13.333 13.333-13.333v0M29.333 17.333c0 3.68-1.493 7.013-3.907 9.427-0.52 0.507-1.36 0.507-1.88-0.013-0.241-0.24-0.39-0.573-0.39-0.94s0.149-0.7 0.39-0.94l0-0c1.927-1.92 3.12-4.576 3.12-7.511 0-0.008 0-0.016-0-0.024v0.001c0-1.333-0.253-2.667-0.72-3.867l1.613-2.8c1.107 2 1.773 4.24 1.773 6.667z"></path>
</svg>
