<!-- Generated by IcoMoon.io -->
<svg version="1.1" xmlns="http://www.w3.org/2000/svg" width="32" height="32" viewBox="0 0 32 32">
<title>spotlight</title>
<path d="M2.667 8l6.787 3.4c-0.92 1.267-1.453 2.88-1.453 4.6s0.533 3.333 1.453 4.6l-6.787 3.4v-16M8 4h16l-3.4 5.453c-1.267-0.92-2.88-1.453-4.6-1.453s-3.333 0.533-4.6 1.453l-3.4-5.453M29.333 8v16l-6.787-3.4c0.92-1.267 1.453-2.88 1.453-4.6s-0.533-3.333-1.453-4.6l6.787-3.4M24 28h-16l3.4-5.453c1.267 0.92 2.88 1.453 4.6 1.453s3.333-0.533 4.6-1.453l3.4 5.453M16 10.667c2.946 0 5.333 2.388 5.333 5.333v0c0 2.946-2.388 5.333-5.333 5.333v0c-2.946 0-5.333-2.388-5.333-5.333v0c0-2.946 2.388-5.333 5.333-5.333v0M16 13.333c-1.473 0-2.667 1.194-2.667 2.667v0c0 1.473 1.194 2.667 2.667 2.667v0c1.473 0 2.667-1.194 2.667-2.667v0c0-1.473-1.194-2.667-2.667-2.667v0z"></path>
</svg>
