<!-- Generated by IcoMoon.io -->
<svg version="1.1" xmlns="http://www.w3.org/2000/svg" width="32" height="32" viewBox="0 0 32 32">
<title>spotify</title>
<path d="M23.867 14.533c-4.267-2.533-11.4-2.8-15.467-1.533-0.667 0.2-1.333-0.2-1.533-0.8-0.2-0.667 0.2-1.333 0.8-1.533 4.733-1.4 12.533-1.133 17.467 1.8 0.6 0.333 0.8 1.133 0.467 1.733-0.333 0.467-1.133 0.667-1.733 0.333M23.733 18.267c-0.333 0.467-0.933 0.667-1.4 0.333-3.6-2.2-9.067-2.867-13.267-1.533-0.533 0.133-1.133-0.133-1.267-0.667s0.133-1.133 0.667-1.267c4.867-1.467 10.867-0.733 15 1.8 0.4 0.2 0.6 0.867 0.267 1.333M22.133 21.933c-0.267 0.4-0.733 0.533-1.133 0.267-3.133-1.933-7.067-2.333-11.733-1.267-0.467 0.133-0.867-0.2-1-0.6-0.133-0.467 0.2-0.867 0.6-1 5.067-1.133 9.467-0.667 12.933 1.467 0.467 0.2 0.533 0.733 0.333 1.133M16 2.667c-7.364 0-13.333 5.97-13.333 13.333v0c0 7.364 5.97 13.333 13.333 13.333v0c7.364 0 13.333-5.97 13.333-13.333v0c0-7.364-5.97-13.333-13.333-13.333v0z"></path>
</svg>
