<!-- Generated by IcoMoon.io -->
<svg version="1.1" xmlns="http://www.w3.org/2000/svg" width="32" height="32" viewBox="0 0 32 32">
<title>spray</title>
<path d="M13.333 5.333h2.667v2.667h-2.667v-2.667M9.333 4h2.667v2.667h-2.667v-2.667M9.333 8h2.667v2.667h-2.667v-2.667M8 10.667v2.667h-2.667v-2.667h2.667M8 6.667v2.667h-2.667v-2.667h2.667M8 2.667v2.667h-2.667v-2.667h2.667M17.333 29.333c-1.473 0-2.667-1.194-2.667-2.667v-13.333c0-1.473 1.194-2.667 2.667-2.667v0-1.333h1.333v-4h4v4h1.333v1.333c1.473 0 2.667 1.194 2.667 2.667v13.333c0 1.473-1.194 2.667-2.667 2.667v0h-6.667M17.333 13.333v13.333h6.667v-13.333h-6.667z"></path>
</svg>
