<!-- Generated by IcoMoon.io -->
<svg version="1.1" xmlns="http://www.w3.org/2000/svg" width="32" height="32" viewBox="0 0 32 32">
<title>square-inc</title>
<path d="M8 4h16c2.209 0 4 1.791 4 4v0 16c0 2.209-1.791 4-4 4v0h-16c-2.209 0-4-1.791-4-4v0-16c0-2.209 1.791-4 4-4v0M9.333 8c-0.736 0-1.333 0.597-1.333 1.333v0 13.333c0 0.736 0.597 1.333 1.333 1.333v0h13.333c0.736 0 1.333-0.597 1.333-1.333v0-13.333c0-0.736-0.597-1.333-1.333-1.333v0h-13.333M12.667 12h6.667c0.368 0 0.667 0.298 0.667 0.667v0 6.667c0 0.368-0.298 0.667-0.667 0.667v0h-6.667c-0.368 0-0.667-0.298-0.667-0.667v0-6.667c0-0.368 0.298-0.667 0.667-0.667v0z"></path>
</svg>
