<!-- Generated by IcoMoon.io -->
<svg version="1.1" xmlns="http://www.w3.org/2000/svg" width="32" height="32" viewBox="0 0 32 32">
<title>square-inc-cash</title>
<path d="M7.333 0h17.333c4.050 0 7.333 3.283 7.333 7.333v0 17.333c0 4.050-3.283 7.333-7.333 7.333v0h-17.333c-4.050 0-7.333-3.283-7.333-7.333v0-17.333c0-4.050 3.283-7.333 7.333-7.333v0M20.52 20.24c0 2.107-1.187 3.507-3.387 3.693v-7.12c2.267 0.693 3.387 1.4 3.387 3.427M15.533 8v6.507c-1.747-0.507-3.493-1.267-3.493-3.267 0-1.987 1.533-3.080 3.493-3.24M20.667 10.133l1.333-1.067c-1.173-1.52-2.8-2.507-4.867-2.707v-1.293h-1.6v1.267c-2.867 0.187-5.293 1.893-5.293 5 0 3.333 2.747 4.373 5.293 5.053v7.56c-1.48-0.16-3.147-0.867-4.293-2.573l-1.507 1c1.2 1.787 3.28 2.96 5.8 3.147v1.413h1.6v-1.387c3.333-0.213 5.133-2.427 5.133-5.36 0-3.413-2.52-4.507-5.133-5.267v-6.853c1.533 0.227 2.667 0.947 3.533 2.067z"></path>
</svg>
