<!-- Generated by IcoMoon.io -->
<svg version="1.1" xmlns="http://www.w3.org/2000/svg" width="32" height="32" viewBox="0 0 32 32">
<title>stadium</title>
<path d="M6.667 4h2.667l4 2.667-4 2.667v1.773c1.96-0.28 4.24-0.44 6.667-0.44s4.707 0.16 6.667 0.44v-7.107h2.667l4 2.667-4 2.667v2.28c2.467 0.613 4 1.453 4 2.387 0 1.84-6 3.333-13.333 3.333s-13.333-1.493-13.333-3.333c0-0.933 1.533-1.773 4-2.387v-7.613M16 12.667c-4.413 0-6.667 0.227-6.667 1.333s2.253 1.333 6.667 1.333 6.667-0.227 6.667-1.333-2.253-1.333-6.667-1.333M16 19.667c5.080 0 9.6-0.893 12.533-2.267l-1.867 10.6h-6.667v-2.667c0-1.473-1.194-2.667-2.667-2.667v0h-2.667c-1.473 0-2.667 1.194-2.667 2.667v0 2.667h-6.667l-1.867-10.6c2.933 1.373 7.453 2.267 12.533 2.267z"></path>
</svg>
