<!-- Generated by IcoMoon.io -->
<svg version="1.1" xmlns="http://www.w3.org/2000/svg" width="32" height="32" viewBox="0 0 32 32">
<title>steam</title>
<path d="M26.853 10.387c1.587 0 2.867 1.28 2.867 2.853s-1.28 2.853-2.867 2.853c-1.576 0-2.853-1.277-2.853-2.853v0c0-1.573 1.28-2.853 2.853-2.853M4 9.24c2.209 0 4 1.791 4 4v0 0.413l8.44 4.4c0.68-0.52 1.507-0.813 2.413-0.813l2.867-4c0-2.84 2.28-5.147 5.133-5.147 2.842 0 5.147 2.304 5.147 5.147v0c0 2.842-2.304 5.147-5.147 5.147v0l-4 2.853c0 2.209-1.791 4-4 4v0c-2.187 0-4-1.787-4-4v-0.147l-8.667-4.507c-0.627 0.413-1.387 0.653-2.187 0.653-2.209 0-4-1.791-4-4v0c0-2.209 1.791-4 4-4v0M20.040 19.92c0.853 0.427 1.187 1.453 0.747 2.307-0.427 0.84-1.453 1.173-2.293 0.747l-2.453-1.28c0.236 1.362 1.409 2.384 2.82 2.384 1.572 0 2.847-1.267 2.86-2.836v-0.001c0-1.573-1.28-2.853-2.867-2.853-0.44 0-0.853 0.093-1.227 0.28l2.413 1.253M4 10.387c-1.573 0-2.853 1.28-2.853 2.853s1.28 2.853 2.853 2.853c0.32 0 0.667-0.053 0.933-0.16l-1.893-0.973c-0.563-0.287-0.942-0.862-0.942-1.526 0-0.28 0.067-0.544 0.187-0.777l-0.004 0.010c0.44-0.853 1.467-1.2 2.307-0.76l2.267 1.173c-0.087-1.505-1.329-2.693-2.849-2.693-0.002 0-0.003 0-0.005 0h0M26.853 9.24c-2.187 0-4 1.787-4 4 0 2.209 1.791 4 4 4v0c2.209 0 4-1.791 4-4v0c0-2.209-1.791-4-4-4v0z"></path>
</svg>
