<!-- Generated by IcoMoon.io -->
<svg version="1.1" xmlns="http://www.w3.org/2000/svg" width="32" height="32" viewBox="0 0 32 32">
<title>steering</title>
<path d="M16 2.667c-7.364 0-13.333 5.97-13.333 13.333v0c0 7.364 5.97 13.333 13.333 13.333v0c7.364 0 13.333-5.97 13.333-13.333v0c0-7.364-5.97-13.333-13.333-13.333v0M16 5.333c5.467 0 10 4.133 10.667 9.333h-4c-0.667-1.467-3.467-2.667-6.667-2.667s-6 1.2-6.667 2.667h-4c0.667-5.2 5.2-9.333 10.667-9.333M5.333 17.333h4c0.267 1.733 1.6 4.8 5.333 5.333v4c-4.8-0.533-8.8-4.533-9.333-9.333M17.333 26.667v-4c3.733-0.533 4.933-3.6 5.333-5.333h4c-0.533 4.8-4.533 8.8-9.333 9.333z"></path>
</svg>
