<!-- Generated by IcoMoon.io -->
<svg version="1.1" xmlns="http://www.w3.org/2000/svg" width="32" height="32" viewBox="0 0 32 32">
<title>stethoscope</title>
<path d="M25.333 10.667c0.747 0 1.333 0.573 1.333 1.333 0 0.736-0.597 1.333-1.333 1.333v0c-0.76 0-1.333-0.6-1.333-1.333 0-0.76 0.573-1.333 1.333-1.333M2.667 2.667v12c0 3.947 2.92 7.333 6.853 7.88 0.827 4.013 4.373 6.787 8.48 6.787 4.786 0 8.667-3.88 8.667-8.667v-4.92c1.547-0.56 2.667-2.027 2.667-3.747 0-2.209-1.791-4-4-4v0c-2.209 0-4 1.791-4 4v0c0 1.72 1.12 3.2 2.667 3.747v4.8c0 3.333-2.667 6-6 6-2.667 0-4.907-1.613-5.707-4.013 3.707-0.8 6.373-4.133 6.373-7.867v-12h-5.333v4h2.667v8c0 2.946-2.388 5.333-5.333 5.333v0c-2.946 0-5.333-2.388-5.333-5.333v0-8h2.667v-4h-5.333z"></path>
</svg>
