<!-- Generated by IcoMoon.io -->
<svg version="1.1" xmlns="http://www.w3.org/2000/svg" width="32" height="32" viewBox="0 0 32 32">
<title>sticker</title>
<path d="M16.16 24.613l8.24-8.24c-1.813 0.413-3.987 1.227-5.64 2.907-1.373 1.387-2.24 3.16-2.6 5.333M27.667 13.333h0.4c0.52 0 0.987 0.36 1.173 0.853 0.187 0.48 0.093 1.053-0.307 1.427l-13.333 13.333c-0.267 0.253-0.587 0.387-0.933 0.387l-0.48-0.093c-0.493-0.187-0.853-0.653-0.853-1.173-0.213-4.52 0.973-8.12 3.547-10.693 3.787-3.773 9.28-4.040 10.787-4.040M16 2.667c6 0 11.12 4 12.773 9.48l-2.107-0.147h-0.773c-1.573-3.907-5.413-6.667-9.893-6.667-5.891 0-10.667 4.776-10.667 10.667v0c0 4.48 2.76 8.32 6.667 9.893-0.040 0.947 0 1.907 0.147 2.867-5.48-1.653-9.48-6.76-9.48-12.76 0-7.373 6-13.333 13.333-13.333z"></path>
</svg>
