<!-- Generated by IcoMoon.io -->
<svg version="1.1" xmlns="http://www.w3.org/2000/svg" width="32" height="32" viewBox="0 0 32 32">
<title>subway-variant</title>
<path d="M24 14.667h-6.667v-6.667h6.667M22 22.667c-1.105 0-2-0.895-2-2v0c0-1.105 0.895-2 2-2v0c1.105 0 2 0.895 2 2v0c0 1.105-0.895 2-2 2v0M14.667 14.667h-6.667v-6.667h6.667M10 22.667c-1.105 0-2-0.895-2-2v0c0-1.105 0.895-2 2-2v0c1.105 0 2 0.895 2 2v0c0 1.105-0.895 2-2 2v0M16 2.667c-5.893 0-10.667 0.667-10.667 5.333v12.667c0 2.577 2.089 4.667 4.667 4.667v0l-2 2v0.667h16v-0.667l-2-2c2.577 0 4.667-2.089 4.667-4.667v-12.667c0-4.667-4.773-5.333-10.667-5.333z"></path>
</svg>
