<!-- Generated by IcoMoon.io -->
<svg version="1.1" xmlns="http://www.w3.org/2000/svg" width="32" height="32" viewBox="0 0 32 32">
<title>sunglasses</title>
<path d="M9.333 22.667h-4c-2.16 0-4.053-1.68-4.32-3.813l-0.667-3.987c-0.147-1.133 0.173-2.2 0.867-2.973s1.707-1.227 2.787-1.227h8c1.107 0 2.107 0.467 2.747 1.28 0.147 0.2 0.28 0.413 0.387 0.653 0.573-0.12 1.16-0.12 1.72 0 0.107-0.24 0.24-0.453 0.4-0.653 0.627-0.813 1.627-1.28 2.747-1.28h8c1.080 0 2.093 0.453 2.787 1.227 0.68 0.773 1 1.84 0.867 2.92l-0.68 4.093c-0.253 2.080-2.16 3.76-4.307 3.76h-4c-2.080 0-4.107-1.587-4.613-3.6l-1.2-3.613c-0.507-0.373-1.213-0.373-1.72 0l-1.227 3.707c-0.48 1.933-2.493 3.507-4.573 3.507z"></path>
</svg>
