<!-- Generated by IcoMoon.io -->
<svg version="1.1" xmlns="http://www.w3.org/2000/svg" width="32" height="32" viewBox="0 0 32 32">
<title>sync-off</title>
<path d="M26.667 5.333h-8v8l2.987-2.987c1.448 1.447 2.344 3.445 2.347 5.653v0c0 1.333-0.333 2.587-0.907 3.693l1.947 1.947c1.021-1.597 1.628-3.546 1.628-5.635 0-2.944-1.204-5.607-3.147-7.523l-0.001-0.001 3.147-3.147M3.813 7.213l3.147 3.147c-1.021 1.597-1.628 3.546-1.628 5.635 0 2.944 1.204 5.607 3.147 7.523l0.001 0.001-3.147 3.147h8v-8l-2.987 2.987c-1.448-1.447-2.344-3.445-2.347-5.653v-0c0-1.333 0.333-2.587 0.907-3.693l10.773 10.773c-0.347 0.173-0.667 0.333-1.013 0.453v2.787c1.053-0.28 2.053-0.72 2.96-1.28l3.147 3.147 1.693-1.693-20.947-20.973-1.707 1.693M13.333 8.467v-2.787c-1.067 0.28-2.067 0.72-2.973 1.28l1.947 1.947c0.36-0.16 0.667-0.32 1.027-0.44z"></path>
</svg>
