<!-- Generated by IcoMoon.io -->
<svg version="1.1" xmlns="http://www.w3.org/2000/svg" width="32" height="32" viewBox="0 0 32 32">
<title>table-column-width</title>
<path d="M6.667 10.667h18.667c1.473 0 2.667 1.194 2.667 2.667v13.333c0 1.473-1.194 2.667-2.667 2.667v0h-18.667c-1.473 0-2.667-1.194-2.667-2.667v-13.333c0-1.473 1.194-2.667 2.667-2.667v0M6.667 16v4h8v-4h-8M17.333 16v4h8v-4h-8M6.667 22.667v4h8v-4h-8M17.333 22.667v4h8v-4h-8M14.667 2.667h13.333v5.333h-2.667v-2.667h-8v2.667h-2.667v-5.333z"></path>
</svg>
