<!-- Generated by IcoMoon.io -->
<svg version="1.1" xmlns="http://www.w3.org/2000/svg" width="32" height="32" viewBox="0 0 32 32">
<title>table-row-height</title>
<path d="M4 6.667h16c1.473 0 2.667 1.194 2.667 2.667v13.333c0 1.473-1.194 2.667-2.667 2.667v0h-16c-1.473 0-2.667-1.194-2.667-2.667v-13.333c0-1.473 1.194-2.667 2.667-2.667v0M4 12v4h6.667v-4h-6.667M13.333 12v4h6.667v-4h-6.667M4 18.667v4h6.667v-4h-6.667M13.333 18.667v4h6.667v-4h-6.667M30.667 18.667v-9.333h-5.333v2.667h2.667v4h-2.667v2.667h5.333z"></path>
</svg>
