<!-- Generated by IcoMoon.io -->
<svg version="1.1" xmlns="http://www.w3.org/2000/svg" width="32" height="32" viewBox="0 0 32 32">
<title>tag-multiple</title>
<path d="M7.333 12c1.105 0 2-0.895 2-2v0c0-1.105-0.895-2-2-2v0c-1.105 0-2 0.895-2 2v0c0 1.105 0.895 2 2 2v0M23.213 15.44c0.48 0.48 0.787 1.147 0.787 1.893 0 0.733-0.293 1.4-0.787 1.88l-6.667 6.667c-0.482 0.485-1.149 0.784-1.887 0.784s-1.405-0.3-1.887-0.784l-9.32-9.32c-0.493-0.493-0.787-1.16-0.787-1.893v-6.667c0-1.48 1.187-2.667 2.667-2.667h6.667c0.733 0 1.4 0.293 1.88 0.773l9.333 9.333M18.053 7.613l1.333-1.333 9.16 9.16c0.493 0.48 0.787 1.16 0.787 1.893s-0.293 1.4-0.773 1.88l-7.173 7.173-1.333-1.333 7.613-7.72-9.613-9.72z"></path>
</svg>
