<!-- Generated by IcoMoon.io -->
<svg version="1.1" xmlns="http://www.w3.org/2000/svg" width="32" height="32" viewBox="0 0 32 32">
<title>taxi</title>
<path d="M6.667 14.667l2-6h14.667l2 6M23.333 21.333c-1.105 0-2-0.895-2-2v0c0-1.105 0.895-2 2-2v0c1.105 0 2 0.895 2 2v0c0 1.105-0.895 2-2 2v0M8.667 21.333c-1.105 0-2-0.895-2-2v0c0-1.105 0.895-2 2-2v0c1.105 0 2 0.895 2 2v0c0 1.105-0.895 2-2 2v0M25.227 8c-0.267-0.773-1.013-1.333-1.893-1.333h-3.333v-2.667h-8v2.667h-3.333c-0.88 0-1.627 0.56-1.893 1.333l-2.773 8v10.667c0 0.736 0.597 1.333 1.333 1.333v0h1.333c0.736 0 1.333-0.597 1.333-1.333v0-1.333h16v1.333c0 0.736 0.597 1.333 1.333 1.333v0h1.333c0.736 0 1.333-0.597 1.333-1.333v-10.667l-2.773-8z"></path>
</svg>
