<!-- Generated by IcoMoon.io -->
<svg version="1.1" xmlns="http://www.w3.org/2000/svg" width="32" height="32" viewBox="0 0 32 32">
<title>temperature-celsius</title>
<path d="M22 6.667c2.067 0 4 0.627 5.587 1.707l-1.547 3.853c-1.056-0.967-2.469-1.56-4.020-1.56-0.007 0-0.014 0-0.021 0h0.001c-3.333 0-6 2.667-6 6s2.667 6 6 6c1.373 0 2.627-0.453 3.64-1.227l1.52 3.8c-1.466 0.896-3.239 1.427-5.137 1.427-0.008 0-0.017 0-0.025-0h0.001c-5.523 0-10-4.477-10-10v0c0-5.523 4.477-10 10-10v0M8 4c2.209 0 4 1.791 4 4v0c0 2.209-1.791 4-4 4v0c-2.209 0-4-1.791-4-4v0c0-2.209 1.791-4 4-4v0M8 6.667c-0.736 0-1.333 0.597-1.333 1.333v0c0 0.736 0.597 1.333 1.333 1.333v0c0.736 0 1.333-0.597 1.333-1.333v0c0-0.736-0.597-1.333-1.333-1.333v0z"></path>
</svg>
