<!-- Generated by IcoMoon.io -->
<svg version="1.1" xmlns="http://www.w3.org/2000/svg" width="32" height="32" viewBox="0 0 32 32">
<title>tennis</title>
<path d="M16 2.667c3.333 0 6.333 1.2 8.667 3.2-2.864 2.456-4.667 6.078-4.667 10.121 0 0.004 0 0.008 0 0.013v-0.001c0 4.053 1.813 7.693 4.667 10.133-2.333 2-5.333 3.2-8.667 3.2s-6.333-1.2-8.667-3.2c2.864-2.456 4.667-6.078 4.667-10.121 0-0.004 0-0.008 0-0.013v0.001c0-4.053-1.813-7.693-4.667-10.133 2.333-2 5.333-3.2 8.667-3.2M29.333 16c0 3.093-1.053 5.933-2.827 8.2-2.354-1.969-3.84-4.907-3.84-8.192 0-0.003 0-0.005 0-0.008v0c0-3.293 1.493-6.24 3.84-8.2 1.762 2.229 2.827 5.080 2.827 8.18 0 0.007 0 0.014-0 0.022v-0.001M2.667 16c0-3.093 1.053-5.933 2.827-8.2 2.354 1.969 3.84 4.907 3.84 8.192 0 0.003 0 0.005 0 0.008v-0c0 3.293-1.493 6.24-3.84 8.2-1.762-2.229-2.827-5.080-2.827-8.18 0-0.007 0-0.014 0-0.022v0.001z"></path>
</svg>
