<!-- Generated by IcoMoon.io -->
<svg version="1.1" xmlns="http://www.w3.org/2000/svg" width="32" height="32" viewBox="0 0 32 32">
<title>text-to-speech-off</title>
<path d="M2.667 7.027l1.707-1.693 22.293 22.293-1.693 1.707-7.133-7.133c-1.135 2.274-3.259 3.91-5.792 4.353l-0.048 0.007v2.773h-2.667v-2.773c-3.787-0.64-6.667-3.933-6.667-7.893h2.667c0 2.946 2.388 5.333 5.333 5.333v0c2.427 0 4.48-1.627 5.12-3.853l-2.453-2.453v0.973c0 1.473-1.194 2.667-2.667 2.667v0c-1.473 0-2.667-1.194-2.667-2.667v-6.307l-5.333-5.333M28.547 12.547l-5.653 5.667 1.347-4.88h-5.573c-1.473 0-2.667-1.194-2.667-2.667v-5.333c0-1.473 1.194-2.667 2.667-2.667v0h8c1.473 0 2.667 1.194 2.667 2.667v5.333c0 0.733-0.293 1.4-0.787 1.88z"></path>
</svg>
