<!-- Generated by IcoMoon.io -->
<svg version="1.1" xmlns="http://www.w3.org/2000/svg" width="32" height="32" viewBox="0 0 32 32">
<title>textbox</title>
<path d="M22.667 9.333h6.667v13.333h-6.667v2.667c0 0.736 0.597 1.333 1.333 1.333v0h2.667v2.667h-3.333c-0.733 0-2-0.6-2-1.333 0 0.733-1.267 1.333-2 1.333h-3.333v-2.667h2.667c0.736 0 1.333-0.597 1.333-1.333v0-18.667c0-0.736-0.597-1.333-1.333-1.333v0h-2.667v-2.667h3.333c0.733 0 2 0.6 2 1.333 0-0.733 1.267-1.333 2-1.333h3.333v2.667h-2.667c-0.736 0-1.333 0.597-1.333 1.333v0 2.667M2.667 9.333h14.667v2.667h-12v8h12v2.667h-14.667v-13.333M26.667 20v-8h-4v8h4z"></path>
</svg>
