<!-- Generated by IcoMoon.io -->
<svg version="1.1" xmlns="http://www.w3.org/2000/svg" width="32" height="32" viewBox="0 0 32 32">
<title>text-to-speech</title>
<path d="M10.667 9.333c1.473 0 2.667 1.194 2.667 2.667v0 6.667c0 1.473-1.194 2.667-2.667 2.667v0c-1.473 0-2.667-1.194-2.667-2.667v0-6.667c0-1.473 1.194-2.667 2.667-2.667v0M18.667 18.667c0 3.96-2.88 7.253-6.667 7.893v2.773h-2.667v-2.773c-3.787-0.64-6.667-3.933-6.667-7.893h2.667c0 2.946 2.388 5.333 5.333 5.333v0c2.946 0 5.333-2.388 5.333-5.333v0h2.667M28.547 12.547l-5.653 5.667 1.347-4.88h-5.573c-1.473 0-2.667-1.194-2.667-2.667v-5.333c0-1.473 1.194-2.667 2.667-2.667v0h8c1.473 0 2.667 1.194 2.667 2.667v5.333c0 0.733-0.293 1.4-0.787 1.88z"></path>
</svg>
