<!-- Generated by IcoMoon.io -->
<svg version="1.1" xmlns="http://www.w3.org/2000/svg" width="32" height="32" viewBox="0 0 32 32">
<title>theater</title>
<path d="M5.333 20h2.667c1.473 0 2.667 1.194 2.667 2.667v0 2.667h1.333v-2.667c0-1.473 1.194-2.667 2.667-2.667h2.667c1.473 0 2.667 1.194 2.667 2.667v0 2.667h1.333v-2.667c0-1.473 1.194-2.667 2.667-2.667v0h2.667c1.473 0 2.667 1.194 2.667 2.667v0 2.667h1.333v4h-29.333v-4h1.333v-2.667c0-1.473 1.194-2.667 2.667-2.667v0M14.667 9.333l5.333 4-5.333 4v-8M5.333 2.667h21.333c1.473 0 2.667 1.194 2.667 2.667v0 12.72c-0.754-0.452-1.664-0.72-2.637-0.72-0.011 0-0.021 0-0.032 0h0.002v-12h-21.333v12c-0.973 0-1.88 0.253-2.667 0.72v-12.72c0-1.473 1.194-2.667 2.667-2.667v0z"></path>
</svg>
