<!-- Generated by IcoMoon.io -->
<svg version="1.1" xmlns="http://www.w3.org/2000/svg" width="32" height="32" viewBox="0 0 32 32">
<title>theme-light-dark</title>
<path d="M10 2.667c-2.387 1.533-4 4.24-4 7.333s1.613 5.8 4.040 7.333c-4.093 0-7.373-3.28-7.373-7.333 0-4.050 3.283-7.333 7.333-7.333v0M25.427 4.667l1.907 1.907-20.76 20.76-1.907-1.907 20.76-20.76M17.187 7.907l-1.973-1.24-1.92 1.333 0.56-2.267-1.853-1.413 2.333-0.16 0.773-2.2 0.893 2.173 2.307 0.040-1.8 1.507 0.68 2.227M12.787 12.72l-1.547-0.973-1.493 1.040 0.453-1.76-1.453-1.107 1.813-0.12 0.6-1.72 0.68 1.693 1.813 0.040-1.4 1.16 0.533 1.747M25.333 18c0 4.050-3.283 7.333-7.333 7.333v0c-1.627 0-3.133-0.533-4.347-1.427l10.253-10.253c0.893 1.213 1.427 2.72 1.427 4.347M19.467 26.773l3.693-1.533-0.32 4.467-3.373-2.933M25.24 23.173l1.533-3.693 2.933 3.387-4.467 0.307M26.773 16.56l-1.52-3.707 4.453 0.32-2.933 3.387M12.84 25.24l3.693 1.533-3.373 2.92-0.32-4.453z"></path>
</svg>
