<!-- Generated by IcoMoon.io -->
<svg version="1.1" xmlns="http://www.w3.org/2000/svg" width="32" height="32" viewBox="0 0 32 32">
<title>thumb-up-outline</title>
<path d="M6.667 12v16h-5.333v-16h5.333M12 28c-1.473 0-2.667-1.194-2.667-2.667v0-13.333c0-0.733 0.293-1.4 0.787-1.88l8.773-8.787 1.413 1.413c0.36 0.36 0.587 0.853 0.587 1.4l-0.040 0.427-1.267 6.093h8.413c1.473 0 2.667 1.194 2.667 2.667v2.667c0 0.347-0.067 0.667-0.187 0.973l-4.027 9.4c-0.4 0.96-1.347 1.627-2.453 1.627h-12M12 25.333h12.040l3.96-9.333v-2.667h-11.72l1.507-7.093-5.787 5.8v13.293z"></path>
</svg>
