<!-- Generated by IcoMoon.io -->
<svg version="1.1" xmlns="http://www.w3.org/2000/svg" width="32" height="32" viewBox="0 0 32 32">
<title>thumb-up</title>
<path d="M30.667 13.333c0-1.473-1.194-2.667-2.667-2.667v0h-8.427l1.28-6.093c0.027-0.133 0.040-0.28 0.040-0.427 0-0.547-0.227-1.053-0.587-1.413l-1.413-1.4-8.773 8.773c-0.493 0.493-0.787 1.16-0.787 1.893v13.333c0 1.473 1.194 2.667 2.667 2.667v0h12c1.107 0 2.053-0.667 2.453-1.627l4.027-9.4c0.12-0.307 0.187-0.627 0.187-0.973v-2.667M1.333 28h5.333v-16h-5.333v16z"></path>
</svg>
