<!-- Generated by IcoMoon.io -->
<svg version="1.1" xmlns="http://www.w3.org/2000/svg" width="32" height="32" viewBox="0 0 32 32">
<title>thumbs-up-down</title>
<path d="M29.388 13.714h-8.816c-0.81 0-1.502 0.496-1.802 1.189l-2.952 6.909c-0.091 0.222-0.144 0.47-0.144 0.718v1.633c0 0.721 0.585 1.306 1.306 1.306h6.766l-0.888 4.153v0.313c0 0.405 0.17 0.758 0.431 1.045l1.032 1.019 6.452-6.452c0.353-0.353 0.575-0.849 0.575-1.384v-8.49c0-1.082-0.877-1.959-1.959-1.959v0M15.673 8.49c0-0.721-0.585-1.306-1.306-1.306v0h-6.766l0.888-4.153v-0.3c0-0.405-0.17-0.771-0.431-1.045l-1.032-1.032-6.452 6.452c-0.353 0.353-0.575 0.849-0.575 1.384v8.49c0 1.082 0.877 1.959 1.959 1.959v0h8.816c0.81 0 1.502-0.496 1.802-1.189l2.952-6.909c0.091-0.222 0.144-0.47 0.144-0.718v-1.633z"></path>
</svg>
