<!-- Generated by IcoMoon.io -->
<svg version="1.1" xmlns="http://www.w3.org/2000/svg" width="32" height="32" viewBox="0 0 32 32">
<title>ticket</title>
<path d="M20.773 22.4l-4.773-3.067-4.773 3.067 1.44-5.493-4.387-3.573 5.667-0.347 2.053-5.253 2.053 5.253 5.667 0.347-4.387 3.573M26.667 16c0-1.473 1.194-2.667 2.667-2.667v0-5.333c0-1.473-1.194-2.667-2.667-2.667h-21.333c-1.473 0-2.667 1.194-2.667 2.667v0 5.333c1.473 0 2.667 1.194 2.667 2.667v0c0 1.473-1.194 2.667-2.667 2.667v0 5.333c0 1.473 1.194 2.667 2.667 2.667h21.333c1.473 0 2.667-1.194 2.667-2.667v0-5.333c-1.473 0-2.667-1.194-2.667-2.667v0z"></path>
</svg>
