<!-- Generated by IcoMoon.io -->
<svg version="1.1" xmlns="http://www.w3.org/2000/svg" width="32" height="32" viewBox="0 0 32 32">
<title>ticket-confirmation</title>
<path d="M17.333 11.333h-2.667v-2.667h2.667v2.667M17.333 17.333h-2.667v-2.667h2.667v2.667M17.333 23.333h-2.667v-2.667h2.667v2.667M29.333 13.333v-5.333c0-1.473-1.194-2.667-2.667-2.667h-21.333c-1.473 0-2.667 1.194-2.667 2.667v0 5.333c1.473 0 2.667 1.194 2.667 2.667v0c0 1.473-1.194 2.667-2.667 2.667v0 5.333c0 1.473 1.194 2.667 2.667 2.667h21.333c1.473 0 2.667-1.194 2.667-2.667v0-5.333c-1.473 0-2.667-1.194-2.667-2.667v0c0-1.473 1.194-2.667 2.667-2.667v0z"></path>
</svg>
