<!-- Generated by IcoMoon.io -->
<svg version="1.1" xmlns="http://www.w3.org/2000/svg" width="32" height="32" viewBox="0 0 32 32">
<title>ticket-percent</title>
<path d="M5.333 5.333c-1.473 0-2.667 1.194-2.667 2.667v0 5.333c1.473 0 2.667 1.194 2.667 2.667v0c0 1.473-1.194 2.667-2.667 2.667v0 5.333c0 1.473 1.194 2.667 2.667 2.667h21.333c1.473 0 2.667-1.194 2.667-2.667v0-5.333c-1.473 0-2.667-1.194-2.667-2.667v0c0-1.473 1.194-2.667 2.667-2.667v0-5.333c0-1.473-1.194-2.667-2.667-2.667h-21.333M20.667 9.333l2 2-11.333 11.333-2-2 11.333-11.333M11.747 9.387c1.307 0 2.36 1.053 2.36 2.36 0 1.303-1.057 2.36-2.36 2.36v0c-1.307 0-2.36-1.053-2.36-2.36 0-1.303 1.057-2.36 2.36-2.36v0M20.253 17.893c1.307 0 2.36 1.053 2.36 2.36 0 1.303-1.057 2.36-2.36 2.36v0c-1.307 0-2.36-1.053-2.36-2.36 0-1.303 1.057-2.36 2.36-2.36v0z"></path>
</svg>
