<!-- Generated by IcoMoon.io -->
<svg version="1.1" xmlns="http://www.w3.org/2000/svg" width="32" height="32" viewBox="0 0 32 32">
<title>timer-</title>
<path d="M27.827 19.16c-0.187-0.373-0.493-0.707-0.84-0.987-0.373-0.28-0.813-0.52-1.347-0.707s-1.133-0.36-1.8-0.507c-0.467-0.093-0.853-0.2-1.173-0.293-0.293-0.12-0.533-0.227-0.72-0.347-0.161-0.095-0.288-0.232-0.371-0.395l-0.003-0.005c-0.067-0.149-0.107-0.322-0.107-0.505 0-0.005 0-0.011 0-0.016v0.001c0-0.2 0.040-0.373 0.12-0.547 0.080-0.185 0.203-0.338 0.357-0.451l0.003-0.002c0.16-0.133 0.36-0.24 0.6-0.32s0.533-0.12 0.853-0.12c0.333 0 0.6 0.040 0.88 0.147 0.253 0.093 0.467 0.227 0.64 0.387 0.173 0.173 0.293 0.347 0.413 0.56 0.053 0.213 0.107 0.427 0.107 0.653h2.6c0-0.006 0-0.014 0-0.022 0-1.049-0.481-1.985-1.234-2.6l-0.006-0.005c-0.4-0.333-0.88-0.587-1.467-0.787-0.56-0.2-1.213-0.293-1.933-0.293-0.68 0-1.307 0.093-1.853 0.28s-1.027 0.44-1.413 0.76c-0.387 0.293-0.68 0.693-0.893 1.12-0.194 0.381-0.307 0.83-0.307 1.306 0 0.014 0 0.028 0 0.042l-0-0.002c0 0.493 0.107 0.907 0.307 1.28s0.493 0.693 0.853 0.973c0.36 0.28 0.8 0.507 1.307 0.707s1.080 0.347 1.693 0.48c0.52 0.107 0.947 0.227 1.267 0.347 0.307 0.12 0.573 0.253 0.76 0.387 0.173 0.133 0.293 0.32 0.36 0.453 0.067 0.16 0.093 0.333 0.093 0.533 0 0.413-0.173 0.747-0.533 1.013-0.373 0.267-0.88 0.387-1.56 0.387-0.293 0-0.573-0.027-0.853-0.107-0.28-0.067-0.533-0.173-0.747-0.32-0.477-0.324-0.787-0.863-0.787-1.476 0-0.002 0-0.003 0-0.005v0h-2.52c0 0.507 0.093 0.947 0.32 1.4 0.213 0.44 0.52 0.867 0.933 1.24 0.413 0.36 0.92 0.653 1.507 0.88 0.667 0.227 1.333 0.32 2.133 0.32 0.707 0 1.347-0.067 1.92-0.24s1.067-0.427 1.48-0.72c0.413-0.307 0.72-0.68 0.947-1.107s0.333-0.893 0.333-1.413c-0.027-0.52-0.147-0.987-0.32-1.36M15.48 17.293c-0.213-0.32-0.48-0.627-0.813-0.867-0.36-0.26-0.775-0.476-1.22-0.63l-0.034-0.010c0.4-0.187 0.76-0.4 1.067-0.667s0.56-0.547 0.76-0.853c0.2-0.307 0.36-0.613 0.453-0.933 0.107-0.333 0.147-0.667 0.147-0.987 0-0.733-0.12-1.387-0.373-1.947-0.24-0.56-0.587-1.027-1.040-1.413-0.427-0.373-0.973-0.667-1.6-0.853-0.6-0.173-1.293-0.267-2.040-0.267-0.733 0-1.413 0.133-2.027 0.32-0.627 0.227-1.16 0.533-1.6 0.92s-0.8 0.84-1.040 1.373c-0.267 0.52-0.387 1.107-0.387 1.72h2.64c0-0.347 0.067-0.653 0.187-0.92 0.107-0.267 0.293-0.507 0.507-0.693 0.227-0.187 0.48-0.333 0.773-0.44s0.613-0.147 0.973-0.147c0.813 0 1.413 0.2 1.813 0.613s0.587 1 0.587 1.76c0 0.36-0.053 0.693-0.16 0.96-0.107 0.32-0.28 0.573-0.507 0.787s-0.507 0.373-0.84 0.493c-0.333 0.12-0.733 0.173-1.187 0.173h-1.56v2.093h1.573c0.453 0 0.853 0.053 1.213 0.147 0.36 0.107 0.667 0.253 0.92 0.467s0.453 0.507 0.587 0.813c0.133 0.32 0.213 0.72 0.213 1.16 0 0.827-0.24 1.453-0.707 1.867-0.467 0.467-1.12 0.667-1.933 0.667-0.387 0-0.747-0.040-1.067-0.16-0.32-0.107-0.587-0.267-0.813-0.507-0.227-0.187-0.4-0.427-0.52-0.72s-0.187-0.613-0.187-0.96h-2.653c0 0.733 0.147 1.373 0.413 1.933 0.293 0.56 0.667 1.027 1.16 1.4 0.48 0.347 1.027 0.653 1.653 0.84 0.627 0.173 1.28 0.28 1.973 0.28 0.76 0 1.453-0.107 2.107-0.307s1.213-0.507 1.68-0.907c0.48-0.4 0.853-0.893 1.12-1.467s0.4-1.24 0.4-1.973c0-0.387-0.053-0.787-0.147-1.147-0.107-0.307-0.253-0.68-0.467-1.013z"></path>
</svg>
