<!-- Generated by IcoMoon.io -->
<svg version="1.1" xmlns="http://www.w3.org/2000/svg" width="32" height="32" viewBox="0 0 32 32">
<title>timetable</title>
<path d="M18.667 16h2v3.76l3.253 1.88-1 1.733-4.253-2.453v-4.92M5.333 2.667h18.667c1.473 0 2.667 1.194 2.667 2.667v8.133c1.653 1.68 2.667 3.987 2.667 6.533 0 5.155-4.179 9.333-9.333 9.333v0c-2.547 0-4.853-1.013-6.533-2.667h-8.133c-1.473 0-2.667-1.194-2.667-2.667v0-18.667c0-1.473 1.194-2.667 2.667-2.667v0M5.333 20v4h6.227c-0.573-1.213-0.893-2.573-0.893-4h-5.333M5.333 10.667h8v-4h-8v4M24 10.667v-4h-8v4h8M5.333 17.333h5.72c0.453-1.533 1.293-2.907 2.413-4h-8.133v4M20 13.533c-3.571 0-6.467 2.895-6.467 6.467v0c0 3.573 2.893 6.467 6.467 6.467 3.571 0 6.467-2.895 6.467-6.467v0c0-3.573-2.893-6.467-6.467-6.467z"></path>
</svg>
