<!-- Generated by IcoMoon.io -->
<svg version="1.1" xmlns="http://www.w3.org/2000/svg" width="32" height="32" viewBox="0 0 32 32">
<title>tooth</title>
<path d="M9.333 2.667c-4 0-6.667 4-6.667 8 0 2.813 1.333 6.667 2.667 8s2.667 10.667 5.333 10.667c6.053 0 2.667-9.333 5.333-9.333s-0.72 9.333 5.333 9.333c2.667 0 4-9.333 5.333-10.667s2.667-5.187 2.667-8c0-4-2.667-8-6.667-8s-4 1.333-6.667 1.333-2.667-1.333-6.667-1.333M9.333 5.333c2.667 0 4 1.333 6.667 1.333s4-1.333 6.667-1.333c2.227 0 4 2.667 4 5.333 0 2.333-1.147 5.48-2.413 6.747-1.147 1.147-2.84 9.173-3.587 9.173-0.28 0-0.667-1.413-0.667-3.133 0-2.72-0.76-6.12-4-6.12s-4 3.4-4 6.12c0 1.72-0.387 3.133-0.667 3.133-0.747 0-2.44-8.027-3.587-9.173-1.267-1.267-2.413-4.413-2.413-6.747 0-2.667 1.773-5.333 4-5.333z"></path>
</svg>
