<!-- Generated by IcoMoon.io -->
<svg version="1.1" xmlns="http://www.w3.org/2000/svg" width="32" height="32" viewBox="0 0 32 32">
<title>tram</title>
<path d="M22.667 24c-0.8 0-1.333-0.533-1.333-1.333s0.533-1.333 1.333-1.333 1.333 0.533 1.333 1.333-0.533 1.333-1.333 1.333M8.933 14.267l0.4-4.533c0-0.933 0.8-1.733 1.733-1.733h9.733c1.067 0 1.867 0.8 1.867 1.733l0.4 4.4c0 0.933-0.8 1.733-1.733 1.733h-10.667c-0.933 0.133-1.733-0.667-1.733-1.6M9.333 24c-0.8 0-1.333-0.533-1.333-1.333s0.533-1.333 1.333-1.333 1.333 0.533 1.333 1.333-0.533 1.333-1.333 1.333M25.333 8c0-1.473-1.194-2.667-2.667-2.667h-2.667c0-1.473-1.194-2.667-2.667-2.667v0h-2.667c-1.473 0-2.667 1.194-2.667 2.667v0h-2.667c-1.473 0-2.667 1.194-2.667 2.667v0l-1.333 16c0 1.473 1.194 2.667 2.667 2.667h2.667l-1.333 2.667h13.467l-1.333-2.667h2.533c1.473 0 2.667-1.194 2.667-2.667v0l-1.333-16z"></path>
</svg>
