<!-- Generated by IcoMoon.io -->
<svg version="1.1" xmlns="http://www.w3.org/2000/svg" width="32" height="32" viewBox="0 0 32 32">
<title>transcribe</title>
<path d="M26.667 6.667c1.473 0 2.667 1.194 2.667 2.667v13.333c0 1.473-1.194 2.667-2.667 2.667h-21.333c-1.473 0-2.667-1.194-2.667-2.667v-13.333c0-1.48 1.187-2.667 2.667-2.667h21.333M24 22.667v-2.667h-7.333l-2.667 2.667h10M8 22.667h3.333l9.133-9.173c0.267-0.253 0.267-0.68 0-0.947l-2.347-2.347c-0.267-0.267-0.693-0.267-0.947 0l-9.173 9.173v3.293z"></path>
</svg>
