<!-- Generated by IcoMoon.io -->
<svg version="1.1" xmlns="http://www.w3.org/2000/svg" width="32" height="32" viewBox="0 0 32 32">
<title>transit-transfer</title>
<path d="M22 20.667h7.333v2h-7.333v2.333l-3.333-3.333 3.333-3.333v2.333M26 26.333v-2.333l3.333 3.333-3.333 3.333v-2.333h-7.333v-2h7.333M12.667 7.333c-1.473 0-2.667-1.194-2.667-2.667v0c0-1.473 1.194-2.667 2.667-2.667v0c1.473 0 2.667 1.194 2.667 2.667v0c0 1.473-1.194 2.667-2.667 2.667v0M7.667 11.867l-2.333 1v4.467h-2.667v-6.267l7-2.867c0.333-0.133 0.667-0.2 1-0.2 0.933 0 1.8 0.467 2.267 1.267l1.267 2.133c1.2 1.933 3.333 3.267 5.8 3.267v2.667c-2.933 0-5.533-1.333-7.267-3.467l-0.8 4 2.733 2.733v10.067h-2.667v-8l-2.867-2.667-2.333 10.667h-2.8l3.667-18.8z"></path>
</svg>
