<!-- Generated by IcoMoon.io -->
<svg version="1.1" xmlns="http://www.w3.org/2000/svg" width="32" height="32" viewBox="0 0 32 32">
<title>translate</title>
<path d="M17.16 20.093l-3.387-3.347 0.040-0.040c2.185-2.421 3.881-5.331 4.901-8.541l0.045-0.165h3.907v-2.667h-9.333v-2.667h-2.667v2.667h-9.333v2.667h14.893c-0.893 2.56-2.307 5-4.227 7.133-1.24-1.373-2.267-2.88-3.080-4.467h-2.667c0.973 2.173 2.307 4.227 3.973 6.080l-6.787 6.693 1.893 1.893 6.667-6.667 4.147 4.147 1.013-2.72M24.667 13.333h-2.667l-6 16h2.667l1.493-4h6.333l1.507 4h2.667l-6-16M21.173 22.667l2.16-5.773 2.16 5.773h-4.32z"></path>
</svg>
