<!-- Generated by IcoMoon.io -->
<svg version="1.1" xmlns="http://www.w3.org/2000/svg" width="32" height="32" viewBox="0 0 32 32">
<title>truck-delivery</title>
<path d="M4 5.333c-1.473 0-2.667 1.194-2.667 2.667v0 14.667h2.667c0 2.209 1.791 4 4 4v0c2.209 0 4-1.791 4-4v0h8c0 2.209 1.791 4 4 4v0c2.209 0 4-1.791 4-4v0h2.667v-6.667l-4-5.333h-4v-5.333M13.333 8l5.333 5.333-5.333 5.333v-4h-8v-2.667h8M22.667 12.667h3.333l2.627 3.333h-5.96M8 20.667c1.105 0 2 0.895 2 2v0c0 1.105-0.895 2-2 2v0c-1.105 0-2-0.895-2-2v0c0-1.105 0.895-2 2-2v0M24 20.667c1.105 0 2 0.895 2 2v0c0 1.105-0.895 2-2 2v0c-1.105 0-2-0.895-2-2v0c0-1.105 0.895-2 2-2v0z"></path>
</svg>
