<!-- Generated by IcoMoon.io -->
<svg version="1.1" xmlns="http://www.w3.org/2000/svg" width="32" height="32" viewBox="0 0 32 32">
<title>tshirt-crew</title>
<path d="M21.333 28h-10.667c-0.736 0-1.333-0.597-1.333-1.333v-10.573l-1.733 1.4c-0.52 0.507-1.36 0.507-1.88 0l-3.773-3.773c-0.241-0.24-0.39-0.573-0.39-0.94s0.149-0.7 0.39-0.94l7.84-7.84h2.213c0 1.467 1.787 2.667 4 2.667s4-1.2 4-2.667h2.213l7.84 7.84c0.52 0.52 0.52 1.36 0 1.88l-3.773 3.773c-0.52 0.507-1.36 0.507-1.88 0l-1.733-1.4v10.573c0 0.736-0.597 1.333-1.333 1.333v0M27.227 12.773l-5.747-5.733c-0.413 0.467-0.907 0.88-1.48 1.227-1.12 0.667-2.493 1.067-4 1.067-2.267 0-4.28-0.907-5.48-2.293l-5.747 5.733 1.893 1.893 4-2.667h1.333v13.333h8v-13.333h1.333l4 2.667 1.893-1.893z"></path>
</svg>
