<!-- Generated by IcoMoon.io -->
<svg version="1.1" xmlns="http://www.w3.org/2000/svg" width="32" height="32" viewBox="0 0 32 32">
<title>tumblr</title>
<path d="M21.333 14.667h-4v5.2c0 0.973 0.187 1.467 1.467 1.467h2.533v4s-1.373 0.133-2.8 0.133c-3.533 0-5.2-2.133-5.2-4.533v-6.267h-2.667v-3.733c3.213-0.267 3.493-2.72 3.733-4.267h2.933v4h4M26.667 2.667h-21.333c-1.48 0-2.667 1.187-2.667 2.667v21.333c0 1.473 1.194 2.667 2.667 2.667h21.333c1.473 0 2.667-1.194 2.667-2.667v0-21.333c0-1.473-1.194-2.667-2.667-2.667v0z"></path>
</svg>
