<!-- Generated by IcoMoon.io -->
<svg version="1.1" xmlns="http://www.w3.org/2000/svg" width="32" height="32" viewBox="0 0 32 32">
<title>ubuntu</title>
<path d="M29.333 16c0 7.364-5.97 13.333-13.333 13.333v0c-7.364 0-13.333-5.97-13.333-13.333v0c0-7.364 5.97-13.333 13.333-13.333v0c7.364 0 13.333 5.97 13.333 13.333v0M19.12 10.32c0.773 0.44 1.747 0.173 2.213-0.587 0.413-0.76 0.16-1.733-0.613-2.187-0.76-0.44-1.747-0.213-2.187 0.587-0.44 0.76-0.173 1.747 0.587 2.187M15.84 20.667c-0.707 0-1.373-0.147-1.96-0.427l-1.12 2c0.933 0.427 1.973 0.72 3.080 0.72 0.653 0 1.267-0.093 1.867-0.253 0.107-0.653 0.48-1.24 1.093-1.587 0.613-0.36 1.307-0.387 1.92-0.16 1.187-1.16 1.947-2.747 2.067-4.52l-2.28-0.027c-0.223 2.394-2.222 4.253-4.656 4.253-0.004 0-0.008 0-0.012 0h0.001M15.84 11.333c2.453 0 4.453 1.853 4.667 4.253l2.28-0.040c-0.119-1.774-0.887-3.348-2.066-4.506l-0.001-0.001c-0.613 0.227-1.32 0.187-1.92-0.16-0.613-0.347-0.987-0.947-1.093-1.587-0.6-0.16-1.213-0.253-1.867-0.253-1.107 0-2.147 0.253-3.080 0.72l1.12 2c0.587-0.28 1.253-0.427 1.96-0.427M11.16 16c0-1.587 0.787-2.987 1.987-3.827l-1.147-1.973c-1.409 0.943-2.442 2.353-2.882 4.005l-0.011 0.049c0.507 0.413 0.827 1.040 0.827 1.747s-0.32 1.333-0.827 1.747c0.451 1.697 1.485 3.102 2.868 4.024l0.025 0.016 1.147-1.96c-1.2-0.84-1.987-2.24-1.987-3.827M19.12 21.68c-0.76 0.44-1.027 1.413-0.587 2.187 0.44 0.76 1.427 1.027 2.187 0.587 0.773-0.453 1.027-1.427 0.613-2.187-0.467-0.773-1.44-1.027-2.213-0.587M7.68 14.4c-0.88 0-1.6 0.72-1.6 1.6s0.72 1.6 1.6 1.6c0.893 0 1.6-0.72 1.6-1.6s-0.707-1.6-1.6-1.6z"></path>
</svg>
