<!-- Generated by IcoMoon.io -->
<svg version="1.1" xmlns="http://www.w3.org/2000/svg" width="32" height="32" viewBox="0 0 32 32">
<title>untappd</title>
<path d="M19.213 5.333s0.707 0.52 0.747 0.947c0 0.133-0.32 0.187-0.387 0.293-0.080 0.093 0.027 0.293-0.040 0.373-0.080 0.067-0.2 0.067-0.32 0.267-0.107 0.2-3.12 6.24-3.573 6.96-0.187 0.533-0.347 2.44-0.48 2.707-0.147 0.253-6.707 9.573-6.947 9.853-0.653 0.773-2.467 0.333-3.84-0.653-1.307-0.933-2.053-2.48-1.56-3.2 0.213-0.307 6.72-9.653 6.907-9.88 0.2-0.227 1.947-1 2.373-1.387 0.533-0.653 5.187-5.56 5.333-5.72s0.107-0.293 0.147-0.387c0.053-0.093 0.267-0.067 0.333-0.173 0.093-0.093-0.053-0.387 0.093-0.427 0.12-0.053 0.613-0.013 1.213 0.427M14.467 5.92l1.187 1.24-1.973 2.093-1.067-2.093c-0.107-0.2-0.24-0.2-0.32-0.267-0.067-0.080 0.027-0.267-0.040-0.373-0.080-0.107-0.387-0.080-0.387-0.213 0-0.147 0.2-0.6 0.8-1.027 0 0 0.747-0.48 1.16-0.373 0.133 0.040 0.080 0.36 0.173 0.427 0.053 0.133 0.267 0.107 0.307 0.2 0.053 0.080 0 0.227 0.16 0.387M29.227 22.867c0.493 0.88-0.52 2.467-1.893 3.4-1.333 0.92-3.053 1.12-3.56 0.4-0.227-0.293-6.88-9.573-7.027-9.84-0.147-0.253-0.32-2.16-0.507-2.707l-0.040-0.053c0.4-0.733 1.227-2.373 2.107-4.107 0.76 0.787 1.36 1.453 1.533 1.667 0.44 0.373 2.2 1.147 2.4 1.373 0.187 0.227 6.8 9.547 6.987 9.867z"></path>
</svg>
