<!-- Generated by IcoMoon.io -->
<svg version="1.1" xmlns="http://www.w3.org/2000/svg" width="32" height="32" viewBox="0 0 32 32">
<title>update</title>
<path d="M28 13.493h-9.040l3.653-3.76c-3.64-3.6-9.533-3.733-13.173-0.133-1.686 1.666-2.73 3.978-2.73 6.533s1.044 4.868 2.729 6.532l0.001 0.001c3.64 3.6 9.533 3.6 13.173 0 1.813-1.8 2.72-3.893 2.72-6.533h2.667c0 2.64-1.173 6.067-3.52 8.387-4.68 4.64-12.28 4.64-16.96 0-4.667-4.627-4.707-12.147-0.027-16.773 2.164-2.145 5.144-3.47 8.433-3.47s6.269 1.325 8.434 3.471l-0.001-0.001 3.64-3.747v9.493M16.667 10.667v5.667l4.667 2.773-0.96 1.613-5.707-3.387v-6.667h2z"></path>
</svg>
