<!-- Generated by IcoMoon.io -->
<svg version="1.1" xmlns="http://www.w3.org/2000/svg" width="32" height="32" viewBox="0 0 32 32">
<title>vector-difference</title>
<path d="M4 1.333c-1.48 0-2.667 1.187-2.667 2.667v14.667c0 1.48 1.187 2.667 2.667 2.667h2.667v-2.667h-2.667v-14.667h14.667v2.667h2.667v-2.667c0-1.48-1.187-2.667-2.667-2.667h-14.667M12 9.333c-1.48 0-2.667 1.187-2.667 2.667v2.667h2.667v-2.667h2.667v-2.667h-2.667M17.333 9.333v2.667h1.333v1.333h2.667v-4h-4M24 9.333v2.667h2.667v14.667h-14.667v-2.667h-2.667v2.667c0 1.48 1.187 2.667 2.667 2.667h14.667c1.48 0 2.667-1.187 2.667-2.667v-14.667c0-1.48-1.187-2.667-2.667-2.667h-2.667M18.667 16v2.667h-2.667v2.667h2.667c1.48 0 2.667-1.187 2.667-2.667v-2.667h-2.667M9.333 17.333v4h4v-2.667h-1.333v-1.333h-2.667z"></path>
</svg>
