<!-- Generated by IcoMoon.io -->
<svg version="1.1" xmlns="http://www.w3.org/2000/svg" width="32" height="32" viewBox="0 0 32 32">
<title>vector-polygon</title>
<path d="M2.667 2.667v8h3.040l1.72 10.667h-2.093v8h8v-2.587l6.667-0.013v2.6h8v-8h-2.44l1.107-9.333h2.667v-8h-8v4.707l-1.6 1.96h-6.947l-2.12-2.907v-5.093M5.333 5.333h2.667v2.667h-2.667M24 6.667h2.667v2.667h-2.667M8.413 10.667h1.067l2.52 3.453v4.547h8v-4.12l2.093-2.547h1.907l-1.12 9.333h-2.88v2.747h-6.667v-2.747h-3.2M14.667 13.333h2.667v2.667h-2.667M8 24h2.667v2.667h-2.667M22.667 24h2.667v2.667h-2.667"></path>
</svg>
