<!-- Generated by IcoMoon.io -->
<svg version="1.1" xmlns="http://www.w3.org/2000/svg" width="32" height="32" viewBox="0 0 32 32">
<title>vector-circle-variant</title>
<path d="M29.333 12h-2.707c-1.693-4.787-6.213-8-11.293-8-6.627 0-12 5.373-12 12v0c0 6.667 5.373 12 12 12 5.080 0 9.6-3.2 11.333-8h2.667M26.667 14.667v2.667h-2.667v-2.667M23.76 20c-1.547 3.253-4.827 5.333-8.427 5.333-5.147 0-9.333-4.173-9.333-9.333 0-5.147 4.187-9.333 9.333-9.333 3.6 0 6.88 2.093 8.413 5.333h-2.413v8"></path>
</svg>
