<!-- Generated by IcoMoon.io -->
<svg version="1.1" xmlns="http://www.w3.org/2000/svg" width="32" height="32" viewBox="0 0 32 32">
<title>vector-combine</title>
<path d="M4 1.333c-1.48 0-2.667 1.187-2.667 2.667v14.667c0 1.48 1.187 2.667 2.667 2.667h5.333v5.333c0 1.48 1.187 2.667 2.667 2.667h14.667c1.48 0 2.667-1.187 2.667-2.667v-14.667c0-1.48-1.187-2.667-2.667-2.667h-5.333v-5.333c0-1.48-1.187-2.667-2.667-2.667h-14.667M4 4h14.667v5.333h-6.667c-1.48 0-2.667 1.187-2.667 2.667v6.667h-5.333v-14.667M12 12h6.667v6.667h-6.667v-6.667M21.333 12h5.333v14.667h-14.667v-5.333h6.667c1.48 0 2.667-1.187 2.667-2.667v-6.667z"></path>
</svg>
