<!-- Generated by IcoMoon.io -->
<svg version="1.1" xmlns="http://www.w3.org/2000/svg" width="32" height="32" viewBox="0 0 32 32">
<title>vine</title>
<path d="M26.52 15.933c-0.613 0.147-1.187 0.2-1.76 0.2-3.027 0-5.36-2.133-5.36-5.787 0-1.8 0.707-2.747 1.693-2.747 0.907 0 1.573 0.84 1.573 2.547 0 0.973-0.28 2.040-0.467 2.667 0 0 0.933 1.627 3.48 1.133 0.547-1.2 0.84-2.76 0.84-4.133 0-3.68-1.853-5.813-5.307-5.813-3.533 0-5.6 2.72-5.6 6.293 0 3.547 1.653 6.6 4.387 7.987-1.147 2.293-2.613 4.32-4.133 5.853-2.773-3.347-5.28-7.813-6.307-16.533h-4.080c1.893 14.52 7.507 19.133 9 20.027 0.853 0.507 1.56 0.48 2.333 0.040 1.187-0.68 4.827-4.333 6.84-8.547 0.84-0.013 1.853-0.107 2.867-0.333v-2.853z"></path>
</svg>
