<!-- Generated by IcoMoon.io -->
<svg version="1.1" xmlns="http://www.w3.org/2000/svg" width="32" height="32" viewBox="0 0 32 32">
<title>vk-box</title>
<path d="M6.667 4h18.667c1.473 0 2.667 1.194 2.667 2.667v0 18.667c0 1.473-1.194 2.667-2.667 2.667v0h-18.667c-1.473 0-2.667-1.194-2.667-2.667v0-18.667c0-1.473 1.194-2.667 2.667-2.667v0M22.987 18.707c-1.573-1.453-1.36-1.227 0.533-3.747 1.147-1.533 1.613-2.467 1.467-2.867-0.147-0.373-0.987-0.28-0.987-0.28l-2.813 0.027s-0.213-0.040-0.36 0.053c-0.16 0.107-0.253 0.307-0.253 0.307s-0.453 1.187-1.040 2.2c-1.253 2.12-1.76 2.227-1.96 2.107-0.467-0.307-0.36-1.24-0.36-1.907 0-2.053 0.32-2.92-0.6-3.133-0.307-0.080-0.533-0.133-1.32-0.133-1 0-1.853 0-2.333 0.24-0.293 0.16-0.573 0.507-0.413 0.52 0.187 0.027 0.6 0.12 0.827 0.427 0.293 0.387 0.28 1.267 0.28 1.267s0.16 2.427-0.387 2.733c-0.387 0.2-0.907-0.227-2.013-2.147-0.587-0.987-1.013-2.080-1.013-2.080l-0.24-0.293-0.413-0.2h-2.68s-0.4 0-0.547 0.2c-0.133 0.133-0.013 0.427-0.013 0.427s2.093 4.853 4.467 7.307c2.173 2.267 4.64 2.013 4.64 2.013h1.12s0.333 0.067 0.507-0.107c0.16-0.173 0.16-0.387 0.16-0.387s-0.027-1.507 0.667-1.72c0.693-0.2 1.573 1.44 2.507 2.093 0.707 0.48 1.24 0.373 1.24 0.373l2.507-0.040s1.307-0.080 0.68-1.107c-0.040-0.080-0.36-0.76-1.853-2.147z"></path>
</svg>
