<!-- Generated by IcoMoon.io -->
<svg version="1.1" xmlns="http://www.w3.org/2000/svg" width="32" height="32" viewBox="0 0 32 32">
<title>vk</title>
<path d="M26.053 19.467c2.067 1.92 2.493 2.84 2.56 2.96 0.853 1.413-0.933 1.52-0.933 1.52l-3.44 0.053s-0.747 0.147-1.707-0.52c-1.293-0.88-2.533-3.187-3.453-2.88-0.947 0.307-0.92 2.373-0.92 2.373s0 0.293-0.213 0.52c-0.24 0.253-0.707 0.16-0.707 0.16h-1.533s-3.4 0.347-6.373-2.76c-3.267-3.387-6.147-10.053-6.147-10.053s-0.16-0.4 0.013-0.627c0.2-0.213 0.76-0.213 0.76-0.213h3.68s0.36 0 0.587 0.213c0.2 0.147 0.32 0.453 0.32 0.453s0.587 1.48 1.387 2.84c1.533 2.653 2.24 3.227 2.733 2.947 0.8-0.413 0.573-3.747 0.573-3.747s0.013-1.213-0.387-1.747c-0.307-0.413-0.893-0.547-1.147-0.573-0.213-0.027 0.133-0.507 0.573-0.733 0.667-0.32 1.827-0.32 3.213-0.32 1.080 0 1.387 0.080 1.8 0.173 1.28 0.307 0.84 1.493 0.84 4.32 0 0.92-0.133 2.173 0.493 2.613 0.28 0.187 0.973 0.027 2.707-2.893 0.8-1.387 1.413-3.027 1.413-3.027s0.133-0.28 0.333-0.413c0.213-0.107 0.507-0.107 0.507-0.107h3.867s1.173-0.133 1.36 0.387c0.2 0.547-0.44 1.84-2.027 3.933-2.587 3.467-2.88 3.147-0.733 5.147z"></path>
</svg>
