<!-- Generated by IcoMoon.io -->
<svg version="1.1" xmlns="http://www.w3.org/2000/svg" width="32" height="32" viewBox="0 0 32 32">
<title>voice</title>
<path d="M12 6.667c2.946 0 5.333 2.388 5.333 5.333v0c0 2.946-2.388 5.333-5.333 5.333v0c-2.946 0-5.333-2.388-5.333-5.333v0c0-2.946 2.388-5.333 5.333-5.333v0M12 20c3.56 0 10.667 1.787 10.667 5.333v2.667h-21.333v-2.667c0-3.547 7.107-5.333 10.667-5.333M22.347 7.147c2.693 2.933 2.693 7 0 9.693l-2.24-2.253c1.12-1.573 1.12-3.613 0-5.187l2.24-2.253M26.76 2.667c5.24 5.4 5.2 13.48 0 18.667l-2.173-2.173c3.693-4.24 3.693-10.293 0-14.32l2.173-2.173z"></path>
</svg>
