<!-- Generated by IcoMoon.io -->
<svg version="1.1" xmlns="http://www.w3.org/2000/svg" width="32" height="32" viewBox="0 0 32 32">
<title>voicemail</title>
<path d="M24.667 20c-2.577 0-4.667-2.089-4.667-4.667v0c0-2.577 2.089-4.667 4.667-4.667v0c2.577 0 4.667 2.089 4.667 4.667v0c0 2.577-2.089 4.667-4.667 4.667v0M7.333 20c-2.577 0-4.667-2.089-4.667-4.667v0c0-2.577 2.089-4.667 4.667-4.667v0c2.577 0 4.667 2.089 4.667 4.667v0c0 2.577-2.089 4.667-4.667 4.667v0M24.667 8c-4.050 0-7.333 3.283-7.333 7.333v0c0 1.773 0.627 3.4 1.68 4.667h-6.027c1.053-1.267 1.68-2.893 1.68-4.667 0-4.050-3.283-7.333-7.333-7.333v0c-4.050 0-7.333 3.283-7.333 7.333v0c0 4.050 3.283 7.333 7.333 7.333h17.333c4.050 0 7.333-3.283 7.333-7.333v0c0-4.050-3.283-7.333-7.333-7.333v0z"></path>
</svg>
