<!-- Generated by IcoMoon.io -->
<svg version="1.1" xmlns="http://www.w3.org/2000/svg" width="32" height="32" viewBox="0 0 32 32">
<title>volume-off</title>
<path d="M16 5.333l-2.787 2.787 2.787 2.787M5.693 4l-1.693 1.693 6.307 6.307h-6.307v8h5.333l6.667 6.667v-8.973l5.667 5.68c-0.893 0.68-1.893 1.24-3 1.56v2.76c1.84-0.427 3.507-1.267 4.907-2.413l2.733 2.72 1.693-1.693-12-12M25.333 16c0 1.253-0.267 2.427-0.72 3.52l2.013 2.013c0.863-1.604 1.371-3.509 1.373-5.533v-0.001c0-5.707-4-10.48-9.333-11.693v2.747c3.853 1.147 6.667 4.72 6.667 8.947M22 16c0-2.36-1.333-4.387-3.333-5.373v2.947l3.267 3.267c0.067-0.267 0.067-0.56 0.067-0.84z"></path>
</svg>
