<!-- Generated by IcoMoon.io -->
<svg version="1.1" xmlns="http://www.w3.org/2000/svg" width="32" height="32" viewBox="0 0 32 32">
<title>vpn</title>
<path d="M12 6.667h8l-4 4-4-4M14 19.547c-0.4 0.453-0.667 1.12-0.667 1.787 0 1.473 1.194 2.667 2.667 2.667v0c1.473 0 2.667-1.194 2.667-2.667v0c0-0.733-0.293-1.4-0.787-1.88l1.893-1.893c0.96 0.973 1.56 2.307 1.56 3.773 0 2.946-2.388 5.333-5.333 5.333v0c-2.946 0-5.333-2.388-5.333-5.333v0c0-1.427 0.56-2.72 1.467-3.667l-0.013-0.013 9.44-9.427c0.963-0.964 2.294-1.56 3.764-1.56 0.003 0 0.007 0 0.010 0h-0.001c2.946 0 5.333 2.388 5.333 5.333v0c0 2.946-2.388 5.333-5.333 5.333v0c-1.467 0-2.8-0.6-3.773-1.56l1.893-1.893c0.48 0.493 1.147 0.787 1.88 0.787 1.473 0 2.667-1.194 2.667-2.667v0c0-1.473-1.194-2.667-2.667-2.667v0c-0.733 0-1.4 0.293-1.88 0.787l-9.453 9.427M8.547 10.12c-0.48-0.493-1.147-0.787-1.88-0.787-1.473 0-2.667 1.194-2.667 2.667v0c0 1.473 1.194 2.667 2.667 2.667v0c0.733 0 1.4-0.293 1.88-0.787l1.893 1.893c-0.973 0.96-2.307 1.56-3.773 1.56-2.946 0-5.333-2.388-5.333-5.333v0c0-2.946 2.388-5.333 5.333-5.333v0c1.48 0 2.813 0.6 3.773 1.56l3.68 3.68-1.893 1.893-3.68-3.68z"></path>
</svg>
