<!-- Generated by IcoMoon.io -->
<svg version="1.1" xmlns="http://www.w3.org/2000/svg" width="32" height="32" viewBox="0 0 32 32">
<title>walk</title>
<path d="M18.827 13.333h6.507v-2.4h-4.827l-2.667-4.44c-0.4-0.667-1.12-1.12-1.947-1.12-0.24 0-0.453 0.040-0.667 0.107l-7.227 2.253v6.933h2.4v-4.893l2.813-0.88-5.213 20.44h2.4l3.827-10.813 3.107 4.147v6.667h2.4v-8.547l-3.32-6.053 0.973-3.827M18.667 5.067c1.333 0 2.4-1.067 2.4-2.4s-1.067-2.4-2.4-2.4-2.4 1.067-2.4 2.4 1.067 2.4 2.4 2.4z"></path>
</svg>
