<!-- Generated by IcoMoon.io -->
<svg version="1.1" xmlns="http://www.w3.org/2000/svg" width="32" height="32" viewBox="0 0 32 32">
<title>wallet</title>
<path d="M28 24v1.333c0 1.473-1.194 2.667-2.667 2.667v0h-18.667c-1.473 0-2.667-1.194-2.667-2.667v0-18.667c0-1.473 1.194-2.667 2.667-2.667v0h18.667c1.473 0 2.667 1.194 2.667 2.667v0 1.333h-12c-1.473 0-2.667 1.194-2.667 2.667v0 10.667c0 1.473 1.194 2.667 2.667 2.667v0M16 21.333h13.333v-10.667h-13.333M21.333 18c-1.105 0-2-0.895-2-2v0c0-1.105 0.895-2 2-2v0c1.105 0 2 0.895 2 2v0c0 1.105-0.895 2-2 2v0z"></path>
</svg>
