<!-- Generated by IcoMoon.io -->
<svg version="1.1" xmlns="http://www.w3.org/2000/svg" width="32" height="32" viewBox="0 0 32 32">
<title>watch-import</title>
<path d="M2.667 14.667h6.667l-3.333-3.333 1.893-1.893 6.56 6.56-6.56 6.56-1.893-1.893 3.333-3.333h-6.667v-2.667M16 24c4.418 0 8-3.582 8-8v0c0-4.418-3.582-8-8-8v0c-1.867 0-3.587 0.667-4.947 1.72l-1.893-1.893 0.24-0.187 1.267-7.64h10.667l1.267 7.64c2.485 1.956 4.067 4.963 4.067 8.341 0 0.007 0 0.014-0 0.020v-0.001c0 3.387-1.587 6.413-4.067 8.36l-1.267 7.64h-10.667l-1.267-7.64-0.24-0.187 1.893-1.893c1.36 1.053 3.080 1.72 4.947 1.72z"></path>
</svg>
