<!-- Generated by IcoMoon.io -->
<svg version="1.1" xmlns="http://www.w3.org/2000/svg" width="32" height="32" viewBox="0 0 32 32">
<title>watch-export</title>
<path d="M18.667 14.667h6.667l-3.333-3.333 1.893-1.893 6.56 6.56-6.56 6.56-1.893-1.893 3.333-3.333h-6.667v-2.667M16 24c-4.418 0-8-3.582-8-8v0c0-4.418 3.582-8 8-8v0c1.867 0 3.587 0.667 4.947 1.72l1.893-1.893-0.24-0.187-1.267-7.64h-10.667l-1.267 7.64c-2.486 1.959-4.067 4.97-4.067 8.35 0 0.003 0 0.007 0 0.010v-0.001c0 0.006-0 0.012-0 0.019 0 3.377 1.581 6.385 4.044 8.324l0.023 0.017 1.267 7.64h10.667l1.267-7.64 0.24-0.187-1.893-1.893c-1.349 1.064-3.072 1.71-4.945 1.72h-0.002z"></path>
</svg>
