<!-- Generated by IcoMoon.io -->
<svg version="1.1" xmlns="http://www.w3.org/2000/svg" width="32" height="32" viewBox="0 0 32 32">
<title>weather-rainy</title>
<path d="M8 18.667c0.736 0 1.333 0.597 1.333 1.333v0c0 0.736-0.597 1.333-1.333 1.333v0c-3.682 0-6.667-2.985-6.667-6.667v0c0-3.682 2.985-6.667 6.667-6.667v0c1.333-3.133 4.4-5.333 8-5.333 4.573 0 8.32 3.547 8.667 8.040l0.667-0.040c2.946 0 5.333 2.388 5.333 5.333v0c0 2.946-2.388 5.333-5.333 5.333h-1.333c-0.736 0-1.333-0.597-1.333-1.333v0c0-0.736 0.597-1.333 1.333-1.333v0h1.333c1.473 0 2.667-1.194 2.667-2.667v0c0-1.473-1.194-2.667-2.667-2.667v0h-2.667v-1.333c0-3.682-2.985-6.667-6.667-6.667v0c-3.333 0-6.067 2.427-6.587 5.587-0.44-0.16-0.92-0.253-1.413-0.253-2.209 0-4 1.791-4 4v0c0 2.209 1.791 4 4 4v0M19.773 20.893c2.080 2.080 2.080 5.107 0 7.213-1.040 1.040-2.44 1.227-3.773 1.227s-2.733-0.187-3.773-1.227c-2.080-2.107-2.080-5.133 0-7.213l3.773-6.227 3.773 6.227M17.88 22.253l-1.88-3.253-1.88 3.253c-1.053 1.080-1.053 2.68 0 3.747 0.547 0.573 1.213 0.667 1.88 0.667s1.333-0.093 1.88-0.667c1.053-1.067 1.053-2.667 0-3.747z"></path>
</svg>
