<!-- Generated by IcoMoon.io -->
<svg version="1.1" xmlns="http://www.w3.org/2000/svg" width="32" height="32" viewBox="0 0 32 32">
<title>weather-windy-variant</title>
<path d="M8 8l0.92 0.080c0.873-3.144 3.71-5.413 7.077-5.413 0.001 0 0.002 0 0.004 0h-0c4.050 0 7.333 3.283 7.333 7.333v0l-0.107 1.267c0.613-0.387 1.333-0.6 2.107-0.6 2.209 0 4 1.791 4 4v0c0 2.209-1.791 4-4 4v0h-17.333c-2.946 0-5.333-2.388-5.333-5.333v0c0-2.946 2.388-5.333 5.333-5.333v0M8 10.667c-1.473 0-2.667 1.194-2.667 2.667v0c0 1.473 1.194 2.667 2.667 2.667v0h17.333c0.736 0 1.333-0.597 1.333-1.333v0c0-0.736-0.597-1.333-1.333-1.333h-4.667v-3.333c0-2.577-2.089-4.667-4.667-4.667v0c-2.577 0-4.667 2.089-4.667 4.667v0 0.667h-3.333M24 24h-18.667c-0.736 0-1.333-0.597-1.333-1.333v0c0-0.736 0.597-1.333 1.333-1.333h18.667c2.209 0 4 1.791 4 4v0c0 2.209-1.791 4-4 4v0c-1.107 0-2.107-0.453-2.827-1.173-0.507-0.52-0.507-1.36 0-1.88 0.24-0.241 0.573-0.39 0.94-0.39s0.7 0.149 0.94 0.39l0 0c0.24 0.24 0.573 0.387 0.947 0.387 0.736 0 1.333-0.597 1.333-1.333v0c0-0.736-0.597-1.333-1.333-1.333v0z"></path>
</svg>
