<!-- Generated by IcoMoon.io -->
<svg version="1.1" xmlns="http://www.w3.org/2000/svg" width="32" height="32" viewBox="0 0 32 32">
<title>weather-partlycloudy</title>
<path d="M16.987 7.293c3.147 1.373 4.813 4.747 4.24 7.987 1.702 1.475 2.772 3.639 2.773 6.053v0.227c0.395-0.144 0.852-0.227 1.327-0.227 0.002 0 0.004 0 0.006 0h-0c2.209 0 4 1.791 4 4v0c0 2.209-1.791 4-4 4v0h-17.333c-2.946 0-5.333-2.388-5.333-5.333v0c0-2.946 2.388-5.333 5.333-5.333v0h0.36c-1.693-2.067-2.227-5.013-1.027-7.653 1.169-2.583 3.723-4.347 6.689-4.347 1.073 0 2.092 0.231 3.010 0.646l-0.046-0.019M15.907 9.733c-2.36-1.067-5.12 0.013-6.16 2.36-0.613 1.36-0.507 2.867 0.133 4.080 1.474-1.742 3.662-2.84 6.106-2.84 0.005 0 0.010 0 0.015 0h-0.001c0.933 0 1.84 0.16 2.667 0.453-0.085-1.805-1.181-3.334-2.731-4.041l-0.029-0.012M18.067 4.853c-0.733-0.32-1.467-0.547-2.227-0.693l3.32-1.733 1.2 3.853c-0.663-0.55-1.418-1.027-2.23-1.4l-0.064-0.026M8.12 5.92c-0.653 0.467-1.227 1-1.72 1.587l0.147-3.747 3.947 0.907c-0.827 0.28-1.627 0.707-2.373 1.253M24 12.947c-0.12-0.787-0.293-1.547-0.547-2.28l3.173 2-2.733 2.973c0.147-0.867 0.173-1.773 0.107-2.693M4.053 15.067c0.093 0.8 0.267 1.56 0.52 2.267l-3.16-2 2.72-2.96c-0.133 0.867-0.173 1.773-0.080 2.693M25.333 24h-4v-2.667c0-2.946-2.388-5.333-5.333-5.333v0c-2.946 0-5.333 2.388-5.333 5.333v0h-2.667c-1.473 0-2.667 1.194-2.667 2.667v0c0 1.473 1.194 2.667 2.667 2.667v0h17.333c0.736 0 1.333-0.597 1.333-1.333v0c0-0.736-0.597-1.333-1.333-1.333v0z"></path>
</svg>
