<!-- Generated by IcoMoon.io -->
<svg version="1.1" xmlns="http://www.w3.org/2000/svg" width="32" height="32" viewBox="0 0 32 32">
<title>weather-cloudy</title>
<path d="M8 25.333c-3.682 0-6.667-2.985-6.667-6.667v0c0-3.682 2.985-6.667 6.667-6.667v0c1.333-3.133 4.4-5.333 8-5.333 4.573 0 8.32 3.547 8.667 8.040l0.667-0.040c2.946 0 5.333 2.388 5.333 5.333v0c0 2.946-2.388 5.333-5.333 5.333h-17.333M25.333 17.333h-2.667v-1.333c0-3.682-2.985-6.667-6.667-6.667v0c-3.333 0-6.067 2.427-6.587 5.587-0.44-0.16-0.92-0.253-1.413-0.253-2.209 0-4 1.791-4 4v0c0 2.209 1.791 4 4 4v0h17.333c1.473 0 2.667-1.194 2.667-2.667v0c0-1.473-1.194-2.667-2.667-2.667v0z"></path>
</svg>
