<!-- Generated by IcoMoon.io -->
<svg version="1.1" xmlns="http://www.w3.org/2000/svg" width="32" height="32" viewBox="0 0 32 32">
<title>weather-sunny</title>
<path d="M16 9.333c3.682 0 6.667 2.985 6.667 6.667v0c0 3.682-2.985 6.667-6.667 6.667v0c-3.682 0-6.667-2.985-6.667-6.667v0c0-3.682 2.985-6.667 6.667-6.667v0M16 12c-2.209 0-4 1.791-4 4v0c0 2.209 1.791 4 4 4v0c2.209 0 4-1.791 4-4v0c0-2.209-1.791-4-4-4v0M16 2.667l3.187 4.56c-0.987-0.36-2.067-0.56-3.187-0.56s-2.2 0.2-3.187 0.56l3.187-4.56M4.453 9.333l5.547-0.467c-0.82 0.695-1.511 1.51-2.056 2.423l-0.024 0.044c-0.587 0.987-0.92 2-1.107 3.053l-2.36-5.053M4.48 22.667l2.347-5.027c0.415 2.224 1.555 4.13 3.161 5.509l0.013 0.011-5.52-0.493M27.533 9.333l-2.36 5.053c-0.4-2.233-1.544-4.147-3.16-5.522l-0.013-0.011 5.533 0.48M27.52 22.667l-5.52 0.48c0.787-0.68 1.493-1.52 2.053-2.48 0.56-0.973 0.92-2 1.107-3.053l2.36 5.053M16 29.333l-3.213-4.587c0.987 0.36 2.067 0.587 3.213 0.587 1.093 0 2.173-0.227 3.16-0.587l-3.16 4.587z"></path>
</svg>
