<!-- Generated by IcoMoon.io -->
<svg version="1.1" xmlns="http://www.w3.org/2000/svg" width="32" height="32" viewBox="0 0 32 32">
<title>weather-windy</title>
<path d="M5.333 13.333c-0.736 0-1.333-0.597-1.333-1.333v0c0-0.736 0.597-1.333 1.333-1.333v0h10.667c1.473 0 2.667-1.194 2.667-2.667v0c0-1.473-1.194-2.667-2.667-2.667v0c-0.733 0-1.4 0.293-1.88 0.787-0.237 0.253-0.574 0.41-0.947 0.41s-0.709-0.157-0.946-0.41l-0.001-0.001c-0.52-0.52-0.52-1.373 0-1.893 0.973-0.96 2.307-1.56 3.773-1.56 2.946 0 5.333 2.388 5.333 5.333v0c0 2.946-2.388 5.333-5.333 5.333v0h-10.667M25.333 16c0.736 0 1.333-0.597 1.333-1.333v0c0-0.736-0.597-1.333-1.333-1.333v0c-0.373 0-0.707 0.147-0.947 0.387s-0.573 0.39-0.94 0.39-0.7-0.149-0.94-0.39l-0-0c-0.507-0.52-0.507-1.36 0-1.88 0.72-0.72 1.72-1.173 2.827-1.173 2.209 0 4 1.791 4 4v0c0 2.209-1.791 4-4 4v0h-18.667c-0.736 0-1.333-0.597-1.333-1.333v0c0-0.736 0.597-1.333 1.333-1.333h18.667M24 24h-18.667c-0.736 0-1.333-0.597-1.333-1.333v0c0-0.736 0.597-1.333 1.333-1.333h18.667c2.209 0 4 1.791 4 4v0c0 2.209-1.791 4-4 4v0c-1.107 0-2.107-0.453-2.827-1.173-0.507-0.52-0.507-1.36 0-1.88 0.24-0.241 0.573-0.39 0.94-0.39s0.7 0.149 0.94 0.39l0 0c0.24 0.24 0.573 0.387 0.947 0.387 0.736 0 1.333-0.597 1.333-1.333v0c0-0.736-0.597-1.333-1.333-1.333v0z"></path>
</svg>
