<!-- Generated by IcoMoon.io -->
<svg version="1.1" xmlns="http://www.w3.org/2000/svg" width="32" height="32" viewBox="0 0 32 32">
<title>weather-fog</title>
<path d="M4 20h13.333c0.736 0 1.333 0.597 1.333 1.333v0c0 0.736-0.597 1.333-1.333 1.333h-13.333c-0.736 0-1.333-0.597-1.333-1.333v0c0-0.736 0.597-1.333 1.333-1.333v0M21.333 20h6.667c0.736 0 1.333 0.597 1.333 1.333v0c0 0.736-0.597 1.333-1.333 1.333v0h-6.667c-0.736 0-1.333-0.597-1.333-1.333v0c0-0.736 0.597-1.333 1.333-1.333v0M1.333 16c0-3.682 2.985-6.667 6.667-6.667v0c1.333-3.133 4.4-5.333 8-5.333 4.573 0 8.32 3.547 8.667 8.040l0.667-0.040c2.92 0 5.293 2.347 5.333 5.333h-2.667c0-1.473-1.194-2.667-2.667-2.667v0h-2.667v-1.333c0-3.682-2.985-6.667-6.667-6.667v0c-3.333 0-6.067 2.427-6.587 5.587-0.44-0.16-0.92-0.253-1.413-0.253-2.209 0-4 1.791-4 4v0c0 0.002 0 0.004 0 0.006 0 0.476 0.083 0.932 0.235 1.355l-0.009-0.028h-2.76l-0.133-1.333M4 25.333h2.667c0.736 0 1.333 0.597 1.333 1.333v0c0 0.736-0.597 1.333-1.333 1.333v0h-2.667c-0.736 0-1.333-0.597-1.333-1.333v0c0-0.736 0.597-1.333 1.333-1.333v0M10.667 25.333h17.333c0.736 0 1.333 0.597 1.333 1.333v0c0 0.736-0.597 1.333-1.333 1.333v0h-17.333c-0.736 0-1.333-0.597-1.333-1.333v0c0-0.736 0.597-1.333 1.333-1.333v0z"></path>
</svg>
