<!-- Generated by IcoMoon.io -->
<svg version="1.1" xmlns="http://www.w3.org/2000/svg" width="32" height="32" viewBox="0 0 32 32">
<title>weather-snowy</title>
<path d="M8 18.667c0.736 0 1.333 0.597 1.333 1.333v0c0 0.736-0.597 1.333-1.333 1.333v0c-3.682 0-6.667-2.985-6.667-6.667v0c0-3.682 2.985-6.667 6.667-6.667v0c1.333-3.133 4.4-5.333 8-5.333 4.573 0 8.32 3.547 8.667 8.040l0.667-0.040c2.946 0 5.333 2.388 5.333 5.333v0c0 2.946-2.388 5.333-5.333 5.333h-1.333c-0.736 0-1.333-0.597-1.333-1.333v0c0-0.736 0.597-1.333 1.333-1.333v0h1.333c1.473 0 2.667-1.194 2.667-2.667v0c0-1.473-1.194-2.667-2.667-2.667v0h-2.667v-1.333c0-3.682-2.985-6.667-6.667-6.667v0c-3.333 0-6.067 2.427-6.587 5.587-0.44-0.16-0.92-0.253-1.413-0.253-2.209 0-4 1.791-4 4v0c0 2.209 1.791 4 4 4v0M10.507 24.093l2.92-0.76-2.147-2.16c-0.52-0.507-0.52-1.36 0-1.893 0.52-0.52 1.387-0.52 1.893 0l2.16 2.147 0.76-2.92c0.173-0.55 0.678-0.943 1.275-0.943 0.736 0 1.333 0.597 1.333 1.333 0 0.107-0.013 0.212-0.037 0.312l0.002-0.009-0.787 2.92 2.92-0.787c0.117-0.037 0.251-0.059 0.391-0.059 0.736 0 1.333 0.597 1.333 1.333 0 0.629-0.436 1.156-1.022 1.297l-0.009 0.002-2.92 0.76 2.147 2.16c0.52 0.507 0.52 1.373 0 1.893s-1.387 0.52-1.893 0l-2.16-2.147-0.76 2.92c-0.173 0.55-0.678 0.943-1.275 0.943-0.736 0-1.333-0.597-1.333-1.333 0-0.107 0.013-0.212 0.037-0.312l-0.002 0.009 0.787-2.92-2.92 0.787c-0.117 0.037-0.251 0.059-0.391 0.059-0.736 0-1.333-0.597-1.333-1.333 0-0.629 0.436-1.156 1.022-1.297l0.009-0.002z"></path>
</svg>
