<!-- Generated by IcoMoon.io -->
<svg version="1.1" xmlns="http://www.w3.org/2000/svg" width="32" height="32" viewBox="0 0 32 32">
<title>web</title>
<path d="M21.813 18.667c0.107-0.88 0.187-1.76 0.187-2.667s-0.080-1.787-0.187-2.667h4.507c0.213 0.853 0.347 1.747 0.347 2.667s-0.133 1.813-0.347 2.667M19.453 26.080c0.8-1.48 1.413-3.080 1.84-4.747h3.933c-1.298 2.207-3.303 3.879-5.698 4.724l-0.075 0.023M19.12 18.667h-6.24c-0.133-0.88-0.213-1.76-0.213-2.667s0.080-1.8 0.213-2.667h6.24c0.12 0.867 0.213 1.76 0.213 2.667s-0.093 1.787-0.213 2.667M16 26.613c-1.107-1.6-2-3.373-2.547-5.28h5.093c-0.547 1.907-1.44 3.68-2.547 5.28M10.667 10.667h-3.893c1.285-2.213 3.289-3.888 5.686-4.724l0.074-0.022c-0.8 1.48-1.4 3.080-1.867 4.747M6.773 21.333h3.893c0.467 1.667 1.067 3.267 1.867 4.747-2.466-0.868-4.467-2.54-5.733-4.696l-0.027-0.050M5.68 18.667c-0.213-0.853-0.347-1.747-0.347-2.667s0.133-1.813 0.347-2.667h4.507c-0.107 0.88-0.187 1.76-0.187 2.667s0.080 1.787 0.187 2.667M16 5.373c1.107 1.6 2 3.387 2.547 5.293h-5.093c0.547-1.907 1.44-3.693 2.547-5.293M25.227 10.667h-3.933c-0.463-1.805-1.093-3.384-1.895-4.856l0.055 0.109c2.453 0.84 4.493 2.533 5.773 4.747M16 2.667c-7.373 0-13.333 6-13.333 13.333 0 7.364 5.97 13.333 13.333 13.333v0c7.364 0 13.333-5.97 13.333-13.333v0c0-7.364-5.97-13.333-13.333-13.333v0z"></path>
</svg>
