<!-- Generated by IcoMoon.io -->
<svg version="1.1" xmlns="http://www.w3.org/2000/svg" width="32" height="32" viewBox="0 0 32 32">
<title>webhook</title>
<path d="M13.947 25.333c-1.947 2.76-5.747 3.453-8.493 1.533-2.733-1.92-3.373-5.747-1.453-8.533 1.069-1.537 2.794-2.553 4.76-2.64l0.013-0 0.067 1.907c-1.213 0.093-2.387 0.72-3.147 1.813-1.333 1.92-0.92 4.507 0.907 5.8 1.84 1.28 4.413 0.787 5.747-1.12 0.413-0.6 0.653-1.253 0.747-1.92v-1.347l7.44-0.053 0.093-0.147c0.707-1.227 2.24-1.653 3.44-0.96 0.755 0.448 1.254 1.259 1.254 2.187 0 0.472-0.129 0.914-0.354 1.292l0.006-0.012c-0.707 1.213-2.253 1.64-3.453 0.947-0.547-0.307-0.933-0.8-1.107-1.36l-5.427 0.027c-0.172 0.98-0.536 1.851-1.055 2.609l0.015-0.023M23.653 15.813c3.373 0.413 5.773 3.44 5.36 6.76-0.413 3.333-3.48 5.693-6.853 5.28-1.948-0.233-3.596-1.344-4.558-2.92l-0.015-0.027 1.653-0.96c0.684 1.048 1.791 1.772 3.072 1.931l0.021 0.002c2.333 0.28 4.4-1.307 4.68-3.533s-1.373-4.267-3.68-4.547c-0.72-0.080-1.413 0.013-2.040 0.24l-1.133 0.587-3.44-6.36h-0.293c-1.371-0.041-2.467-1.163-2.467-2.54 0-0.021 0-0.042 0.001-0.063l-0 0.003c0.040-1.387 1.24-2.467 2.64-2.413 1.4 0.080 2.507 1.213 2.467 2.6-0.027 0.587-0.253 1.12-0.613 1.533l2.533 4.68c0.827-0.267 1.733-0.36 2.667-0.253M11 12.187c-1.333-3.133 0.080-6.72 3.16-8.027 3.093-1.307 6.667 0.173 8 3.307 0.787 1.827 0.627 3.827-0.267 5.427l-1.653-0.96c0.56-1.080 0.653-2.4 0.12-3.64-0.907-2.133-3.32-3.16-5.387-2.293-2.080 0.88-3.013 3.333-2.107 5.467 0.373 0.88 1 1.56 1.76 2.013l0.52 0.28-4.093 6.653c0.040 0.067 0.093 0.147 0.133 0.253 0.653 1.213 0.2 2.747-1.027 3.4-1.213 0.653-2.747 0.173-3.413-1.080-0.653-1.24-0.2-2.773 1.027-3.427 0.52-0.28 1.093-0.347 1.64-0.227l3.080-5.027c-0.627-0.573-1.16-1.293-1.493-2.12z"></path>
</svg>
