<!-- Generated by IcoMoon.io -->
<svg version="1.1" xmlns="http://www.w3.org/2000/svg" width="32" height="32" viewBox="0 0 32 32">
<title>wechat</title>
<path d="M12.667 5.333c-5.52 0-10 3.587-10 8 0 2.52 1.44 4.747 3.707 6.213l-1.040 3.12 3.333-2c1.187 0.413 2.493 0.667 3.88 0.667-0.341-0.787-0.541-1.703-0.547-2.665v-0.002c0-4.413 4.173-8 9.333-8 0.253 0 0.507 0 0.747 0.040-1.36-3.12-5.040-5.373-9.413-5.373M8.667 8.667c0.736 0 1.333 0.597 1.333 1.333v0c0 0.736-0.597 1.333-1.333 1.333v0c-0.736 0-1.333-0.597-1.333-1.333v0c0-0.736 0.597-1.333 1.333-1.333v0M15.333 8.667c0.736 0 1.333 0.597 1.333 1.333v0c0 0.736-0.597 1.333-1.333 1.333v0c-0.736 0-1.333-0.597-1.333-1.333v0c0-0.736 0.597-1.333 1.333-1.333v0M21.333 12c-4.413 0-8 2.987-8 6.667s3.587 6.667 8 6.667c0.893 0 1.747-0.107 2.547-0.333l2.787 1.667-0.827-2.493c2.093-1.213 3.493-3.227 3.493-5.507 0-3.68-3.587-6.667-8-6.667M18.667 15.333c0.736 0 1.333 0.597 1.333 1.333v0c0 0.736-0.597 1.333-1.333 1.333v0c-0.736 0-1.333-0.597-1.333-1.333v0c0-0.736 0.597-1.333 1.333-1.333v0M24 15.333c0.736 0 1.333 0.597 1.333 1.333v0c0 0.736-0.597 1.333-1.333 1.333v0c-0.736 0-1.333-0.597-1.333-1.333v0c0-0.736 0.597-1.333 1.333-1.333v0z"></path>
</svg>
