<!-- Generated by IcoMoon.io -->
<svg version="1.1" xmlns="http://www.w3.org/2000/svg" width="32" height="32" viewBox="0 0 32 32">
<title>weight</title>
<path d="M16 4c2.946 0 5.333 2.388 5.333 5.333v0c0 0.973-0.253 1.88-0.72 2.667h3.387c1.267 0 2.333 0.893 2.6 2.080 2.68 10.68 2.733 10.96 2.733 11.253 0 1.473-1.194 2.667-2.667 2.667h-21.333c-1.473 0-2.667-1.194-2.667-2.667v0c0-0.293 0.053-0.573 2.733-11.253 0.267-1.187 1.333-2.080 2.6-2.080h3.387c-0.452-0.754-0.72-1.664-0.72-2.636 0-0.011 0-0.021 0-0.032v0.002c0-2.946 2.388-5.333 5.333-5.333v0M16 6.667c-1.473 0-2.667 1.194-2.667 2.667v0c0 1.473 1.194 2.667 2.667 2.667v0c1.473 0 2.667-1.194 2.667-2.667v0c0-1.473-1.194-2.667-2.667-2.667v0z"></path>
</svg>
