<!-- Generated by IcoMoon.io -->
<svg version="1.1" xmlns="http://www.w3.org/2000/svg" width="32" height="32" viewBox="0 0 32 32">
<title>wikipedia</title>
<path d="M19.96 25.267l-3.413-8.040c-1.36 2.653-2.853 5.44-4.133 8.040-0.013 0.013-0.627 0-0.627 0-1.96-4.6-3.987-9.133-5.96-13.693-0.453-1.12-2.053-2.907-3.16-2.907v-0.6h6.747v0.6c-0.8 0-2.16 0.533-1.813 1.4 0.96 2.053 4.32 10.013 5.24 12.040 0.627-1.253 2.4-4.56 3.16-5.96-0.6-1.173-2.493-5.573-3.053-6.667-0.427-0.72-1.507-0.813-2.333-0.813 0-0.2 0.013-0.333 0-0.587l5.947 0.013v0.533c-0.813 0.040-1.573 0.32-1.227 1.093 0.8 1.653 1.267 2.84 2 4.373 0.227-0.453 1.427-2.92 2-4.213 0.347-0.867-0.173-1.213-1.613-1.213 0.013-0.16 0.013-0.44 0.013-0.573 1.853-0.013 4.64-0.013 5.133-0.027v0.56c-0.947 0.040-1.92 0.547-2.427 1.32l-2.44 5.12c0.24 0.68 2.613 5.947 2.867 6.533l5.133-11.773c-0.4-0.96-1.547-1.16-2-1.16v-0.6l5.333 0.040v0.56c-1.173 0-1.907 0.667-2.333 1.667-1.067 2.387-4.333 9.987-6.467 14.933h-0.573z"></path>
</svg>
