<!-- Generated by IcoMoon.io -->
<svg version="1.1" xmlns="http://www.w3.org/2000/svg" width="32" height="32" viewBox="0 0 32 32">
<title>wordpress</title>
<path d="M16.267 20.667l-3.4 8.293c0.943 0.236 2.025 0.372 3.139 0.372 1.153 0 2.273-0.145 3.341-0.419l-0.093 0.020M27.48 9.413c0.253 1.2 0.2 2.653-0.293 4.253-1.293 4.16-4.52 11.667-5.72 14.507 4.64-2.067 7.867-6.68 7.867-12.040 0-2.453-0.667-4.76-1.853-6.72M5.747 11.52s-0.653-0.853-1.333-0.853h-0.707c-0.667 1.507-1.040 3.493-1.040 5.333 0 5.453 3.333 10.147 8.16 12.147M4.173 9.52c2.227-4.147 6.68-6.853 11.827-6.853 3.333 0 6.373 1.413 8.707 3.413-0.667-0.133-1.373 0.013-2.133 0.44-1.72 0.987-2.28 3.76-0.053 5.16 1.4 0.867 1.893 3.040 1.84 4.373-0.040 1.32-3.227 7.427-3.227 7.427l-3.133-10.64s-0.080-0.747-0.080-0.96c0-0.267 0.080-0.6 0.253-0.8 0.12-0.12 0.293-0.413 0.493-0.413h1.48v-1.147h-8v1.147h0.253c0.267 0 0.52 0.387 0.76 0.627 0.293 0.307 0.667 1.44 1.107 2.613l1.16 3.827-2.507 5.773-2.747-11.547s0.080-0.8 0.253-0.933c0.107-0.093 0.24-0.36 0.467-0.36h0.067v-1.147h-6.787z"></path>
</svg>
