<!-- Generated by IcoMoon.io -->
<svg version="1.1" xmlns="http://www.w3.org/2000/svg" width="32" height="32" viewBox="0 0 32 32">
<title>worker</title>
<path d="M16 20c-5.893 0-10.667 2.387-10.667 5.333v2.667h21.333v-2.667c0-2.947-4.773-5.333-10.667-5.333M10.667 12c0 2.946 2.388 5.333 5.333 5.333v0c2.946 0 5.333-2.388 5.333-5.333v0M15.333 2.667c-0.4 0-0.667 0.28-0.667 0.667v4h-1.333v-3.333s-3 1.147-3 5c0 0-1 0.187-1 1.667h13.333c-0.067-1.48-1-1.667-1-1.667 0-3.853-3-5-3-5v3.333h-1.333v-4c0-0.387-0.253-0.667-0.667-0.667h-1.333z"></path>
</svg>
