<!-- Generated by IcoMoon.io -->
<svg version="1.1" xmlns="http://www.w3.org/2000/svg" width="32" height="32" viewBox="0 0 32 32">
<title>wunderlist</title>
<path d="M22.667 23.333l-6.667-3.333-6.667 3.333v-16.667h-2.667v18.667h18.667v-18.667h-2.667v16.667M16 16.56l3 1.8-0.8-3.4 2.653-2.293-3.52-0.307-1.333-3.213-1.333 3.213-3.52 0.307 2.653 2.293-0.8 3.4 3-1.8M6.667 4h18.667c1.473 0 2.667 1.194 2.667 2.667v0 18.667c0 1.473-1.194 2.667-2.667 2.667v0h-18.667c-1.473 0-2.667-1.194-2.667-2.667v0-18.667c0-1.473 1.194-2.667 2.667-2.667v0z"></path>
</svg>
