<!-- Generated by IcoMoon.io -->
<svg version="1.1" xmlns="http://www.w3.org/2000/svg" width="31" height="32" viewBox="0 0 31 32">
<title>x</title>
<path d="M8.781 11.031q-0.844 0.031-1.656 0.031h-2.594q-0.563 0-1.141 0.188t-1.016 0.578-0.719 1-0.281 1.422v2.375h28.5v-1.281q0-0.5-0.016-0.938t-0.016-0.563q0-0.406-0.156-0.906t-0.531-0.922-0.984-0.703-1.547-0.281h-4.156v3.031h-13.688v-3.031zM29.844 18.313v1.625q0 0.719 0.016 1.625t0.016 1.813-0.328 1.484-0.813 0.938-1.031 0.5-0.984 0.141q-0.438 0.031-0.922 0.016t-0.922-0.016h-1l-1.406-4h-13.719l-1.375 4h-1.969q-0.625 0-1.406-0.031-0.781 0-1.281-0.297t-0.797-0.719-0.422-0.922-0.125-0.938v-5.219h28.469zM5.094 20.281q-0.375 0-0.656 0.266t-0.281 0.672 0.281 0.672 0.656 0.266q0.406 0 0.688-0.266t0.281-0.672-0.281-0.672-0.688-0.266zM9.875 24.156q-0.25 0.813-0.438 1.5-0.156 0.594-0.328 1.156t-0.234 0.781-0.094 0.469 0.031 0.453 0.297 0.328 0.672 0.125h11.406q0.719 0 1.063-0.375t0.063-1.188q-0.156-0.406-0.297-0.953t-0.297-1.078q-0.156-0.594-0.344-1.219h-11.5zM10.5 12.438v-7.125q0-0.344 0.078-0.719t0.313-0.672 0.641-0.484 1.063-0.188h5.875q0.969 0 1.609 0.453t0.641 1.641v7.094h-10.219z"></path>
</svg>
