<!-- Generated by IcoMoon.io -->
<svg version="1.1" xmlns="http://www.w3.org/2000/svg" width="32" height="32" viewBox="0 0 32 32">
<title>xbox</title>
<path d="M8.573 4.96c0.093-0.080 0.187-0.16 0.253-0.213 2.080-1.347 4.507-2.080 7.173-2.080 2.507 0 4.853 0.667 6.853 1.893 0.147 0.107 0.533 0.36 0.747 0.613-1.933-2.133-7.6 2.427-7.6 2.427-2-1.507-3.773-2.533-5.12-2.933-1.133-0.28-1.907 0-2.267 0.267M25.787 6.947c-0.067-0.067-0.133-0.133-0.187-0.2-0.48-0.533-1.093-0.667-1.6-0.627-0.52 0.16-2.8 0.973-5.6 3.627 0 0 3.16 3.067 5.093 6.2s3.080 5.6 2.373 9.027c2.133-2.373 3.467-5.52 3.467-8.973 0-3.493-1.333-6.667-3.547-9.053M20.973 17.28c-0.867-0.96-2.133-2.333-3.827-4.013-0.36-0.36-0.747-0.733-1.147-1.133 0 0-0.627 0.613-1.427 1.427-1.027 1.027-2.347 2.373-3.093 3.16-1.307 1.4-5.067 5.8-5.28 8.267 0 0-0.867-1.947 1-6.467 1.2-2.947 4.8-7.373 6.333-8.813 0 0-1.373-1.52-3.107-2.573l-0.067-0.040c-0.84-0.493-1.747-0.88-2.627-0.933-0.893 0.067-1.453 0.72-1.453 0.72-2.238 2.37-3.613 5.576-3.613 9.103 0 0.006 0 0.012 0 0.018v-0.001c0 7.364 5.97 13.333 13.333 13.333v0c3.907 0 7.427-1.68 9.867-4.36 0 0-0.28-1.773-2.080-4.307-0.413-0.573-1.96-2.413-2.813-3.387z"></path>
</svg>
