<!-- Generated by IcoMoon.io -->
<svg version="1.1" xmlns="http://www.w3.org/2000/svg" width="32" height="32" viewBox="0 0 32 32">
<title>xbox-controller-off</title>
<path d="M2.667 7.027l1.707-1.693 22.293 22.293-1.693 1.707-8.307-8.333h-5c-2.667 0-3.667 3-6.333 4.333-2.667 0-4.667-3.947 0.56-15.080l-3.227-3.227M12.44 8.307h7.12c1.773-1.64 5.52 0.587 5.52 0.587l0.587 1.107h0.333c4.667 10 3.707 14.267 1.587 15.16l-17.427-17.427c0.84-0.093 1.667 0.013 2.28 0.573M16 9.333c-0.736 0-1.333 0.597-1.333 1.333v0c0 0.736 0.597 1.333 1.333 1.333v0c0.736 0 1.333-0.597 1.333-1.333v0c0-0.736-0.597-1.333-1.333-1.333v0z"></path>
</svg>
