<!-- Generated by IcoMoon.io -->
<svg version="1.1" xmlns="http://www.w3.org/2000/svg" width="32" height="32" viewBox="0 0 32 32">
<title>xing</title>
<path d="M23.56 2.667c-0.573 0-0.827 0.36-1.027 0.733 0 0-8.293 14.693-8.533 15.173l5.44 10.027c0.187 0.347 0.48 0.733 1.067 0.733h3.84c0.24 0 0.413-0.093 0.507-0.24 0.107-0.173 0.107-0.387 0-0.6l-5.427-9.933 8.52-15.053c0.051-0.090 0.081-0.198 0.081-0.313 0-0.105-0.025-0.204-0.070-0.291l0.002 0.004c-0.113-0.147-0.288-0.241-0.486-0.241-0.012 0-0.024 0-0.036 0.001l0.002-0M7.4 7.933c-0.227 0-0.427 0.067-0.52 0.24-0.107 0.173-0.093 0.373 0.027 0.587l2.587 4.533-4.080 7.2c-0.080 0.213-0.080 0.427 0 0.6 0.093 0.16 0.267 0.24 0.493 0.24h3.853c0.573 0 0.853-0.373 1.053-0.733 0 0 3.987-7.053 4.147-7.333l-2.64-4.6c-0.187-0.347-0.48-0.733-1.080-0.733"></path>
</svg>
