<!-- Generated by IcoMoon.io -->
<svg version="1.1" xmlns="http://www.w3.org/2000/svg" width="32" height="32" viewBox="0 0 32 32">
<title>xing-box</title>
<path d="M6.4 4c-1.333 0-2.4 1.067-2.4 2.4v19.2c0 1.333 1.067 2.4 2.4 2.4h19.2c1.333 0 2.4-1.067 2.4-2.4v-19.2c0-1.333-1.067-2.4-2.4-2.4M21.427 6.667h2.72c0.16 0 0.293 0.053 0.347 0.173 0.080 0.12 0.080 0.267 0 0.413l-5.96 10.56 3.8 6.933c0.080 0.147 0.080 0.293 0 0.413-0.067 0.107-0.187 0.173-0.333 0.173h-2.707c-0.413 0-0.627-0.28-0.747-0.52l-3.827-7.013 5.987-10.613c0.147-0.267 0.32-0.52 0.72-0.52M9.453 10.347h2.68c0.413 0 0.627 0.267 0.76 0.52l1.853 3.227c-0.12 0.187-2.907 5.133-2.907 5.133-0.147 0.253-0.333 0.52-0.747 0.52h-2.693c-0.16 0-0.28-0.067-0.347-0.187-0.025-0.061-0.040-0.132-0.040-0.207s0.015-0.146 0.042-0.21l-0.001 0.004 2.853-5.053-1.813-3.16c-0.067-0.147-0.093-0.267-0.013-0.413 0.067-0.107 0.2-0.173 0.373-0.173z"></path>
</svg>
