<!-- Generated by IcoMoon.io -->
<svg version="1.1" xmlns="http://www.w3.org/2000/svg" width="32" height="32" viewBox="0 0 32 32">
<title>zip-box</title>
<path d="M18.667 22.667h-2.667v-2.667h-2.667v-2.667h2.667v2.667h2.667M18.667 12h-2.667v2.667h2.667v2.667h-2.667v-2.667h-2.667v-2.667h2.667v-2.667h-2.667v-2.667h2.667v2.667h2.667M25.333 4h-18.667c-1.48 0-2.667 1.187-2.667 2.667v18.667c0 1.473 1.194 2.667 2.667 2.667v0h18.667c1.473 0 2.667-1.194 2.667-2.667v0-18.667c0-1.473-1.194-2.667-2.667-2.667v0z"></path>
</svg>
