<!-- Generated by IcoMoon.io -->
<svg version="1.1" xmlns="http://www.w3.org/2000/svg" width="32" height="32" viewBox="0 0 32 32">
<title>account-remove</title>
<path d="M20 18.667c3.56 0 10.667 1.773 10.667 5.333v2.667h-21.333v-2.667c0-3.56 7.107-5.333 10.667-5.333M20 16c-2.946 0-5.333-2.388-5.333-5.333v0c0-2.946 2.388-5.333 5.333-5.333v0c2.946 0 5.333 2.388 5.333 5.333v0c0 2.946-2.388 5.333-5.333 5.333v0M6.667 12.787l2.827-2.84 1.893 1.893-2.84 2.827 2.84 2.827-1.893 1.893-2.827-2.84-2.827 2.84-1.893-1.893 2.84-2.827-2.84-2.827 1.893-1.893 2.827 2.84z"></path>
</svg>
