<!-- Generated by IcoMoon.io -->
<svg version="1.1" xmlns="http://www.w3.org/2000/svg" width="32" height="32" viewBox="0 0 32 32">
<title>account-check</title>
<path d="M12 6.667c2.577 0 4.667 2.089 4.667 4.667v0c0 2.577-2.089 4.667-4.667 4.667v0c-2.577 0-4.667-2.089-4.667-4.667v0c0-2.577 2.089-4.667 4.667-4.667v0M12 18.333c5.16 0 9.333 2.093 9.333 4.667v2.333h-18.667v-2.333c0-2.573 4.173-4.667 9.333-4.667M22.667 16.88l-3.667-4 1.547-1.547 2.12 2.12 4.787-4.787 1.547 1.88-6.333 6.333z"></path>
</svg>
