<!-- Generated by IcoMoon.io -->
<svg version="1.1" xmlns="http://www.w3.org/2000/svg" width="32" height="32" viewBox="0 0 32 32">
<title>account-convert</title>
<path d="M10 28.667l1.8-1.787 5.080 5.080-0.88 0.040c-8.387 0-15.253-6.453-15.933-14.667h2c0.48 5.013 3.6 9.253 7.933 11.333M22 3.333l-1.8 1.787-5.080-5.080 0.88-0.040c8.387 0 15.253 6.453 15.933 14.667h-2c-0.48-5.013-3.6-9.24-7.933-11.333M8 22.667c0-2.667 5.333-4.133 8-4.133s8 1.467 8 4.133v1.333h-16v-1.333M20 12c0 2.209-1.791 4-4 4v0c-2.209 0-4-1.791-4-4v0c0-2.209 1.791-4 4-4v0c2.209 0 4 1.791 4 4v0z"></path>
</svg>
