<!-- Generated by IcoMoon.io -->
<svg version="1.1" xmlns="http://www.w3.org/2000/svg" width="32" height="32" viewBox="0 0 32 32">
<title>account-outline</title>
<path d="M16 17.333c-3.56 0-10.667 1.773-10.667 5.333v4h21.333v-4c0-3.56-7.107-5.333-10.667-5.333M16 5.333c-2.946 0-5.333 2.388-5.333 5.333v0c0 2.946 2.388 5.333 5.333 5.333v0c2.946 0 5.333-2.388 5.333-5.333v0c0-2.946-2.388-5.333-5.333-5.333v0M16 19.867c3.96 0 8.133 1.947 8.133 2.8v1.467h-16.267v-1.467c0-0.853 4.133-2.8 8.133-2.8M16 7.867c1.546 0 2.8 1.254 2.8 2.8v0c0 1.546-1.254 2.8-2.8 2.8v0c-1.546 0-2.8-1.254-2.8-2.8v0c0-1.546 1.254-2.8 2.8-2.8v0z"></path>
</svg>
