<!-- Generated by IcoMoon.io -->
<svg version="1.1" xmlns="http://www.w3.org/2000/svg" width="32" height="32" viewBox="0 0 32 32">
<title>account-switch</title>
<path d="M21.333 12c3.107 0 9.333 1.56 9.333 4.667v3.333h-8v-3.333c0-2-1.080-3.48-2.613-4.6l1.28-0.067M10.667 12c3.107 0 9.333 1.56 9.333 4.667v3.333h-18.667v-3.333c0-3.107 6.227-4.667 9.333-4.667M10.667 9.333c-2.209 0-4-1.791-4-4v0c0-2.209 1.791-4 4-4v0c2.209 0 4 1.791 4 4v0c0 2.209-1.791 4-4 4v0M21.333 9.333c-2.209 0-4-1.791-4-4v0c0-2.209 1.791-4 4-4v0c2.209 0 4 1.791 4 4v0c0 2.209-1.791 4-4 4v0M12 22.333v3h8v-3l4.333 4.333-4.333 4.333v-3h-8v3l-4.333-4.333 4.333-4.333z"></path>
</svg>
