<!-- Generated by IcoMoon.io -->
<svg version="1.1" xmlns="http://www.w3.org/2000/svg" width="32" height="32" viewBox="0 0 32 32">
<title>account-star</title>
<path d="M20 18.667c-3.56 0-10.667 1.773-10.667 5.333v2.667h21.333v-2.667c0-3.56-7.107-5.333-10.667-5.333M20 16c2.946 0 5.333-2.388 5.333-5.333v0c0-2.946-2.388-5.333-5.333-5.333v0c-2.946 0-5.333 2.388-5.333 5.333v0c0 2.946 2.388 5.333 5.333 5.333v0M6.667 17.707l3.267 1.987-0.867-3.747 2.933-2.507-3.853-0.333-1.48-3.52-1.507 3.52-3.827 0.333 2.907 2.507-0.907 3.747 3.333-1.987z"></path>
</svg>
