<!-- Generated by IcoMoon.io -->
<svg version="1.1" xmlns="http://www.w3.org/2000/svg" width="32" height="32" viewBox="0 0 32 32">
<title>alarm-multiple</title>
<path d="M12.387 4.333l-5.507 4.627-1.547-1.84 5.52-4.627 1.533 1.84M29.333 7.133l-1.547 1.84-5.52-4.64 1.547-1.84 5.52 4.64M17.333 5.333c5.891 0 10.667 4.776 10.667 10.667v0c0 5.891-4.776 10.667-10.667 10.667v0c-5.891 0-10.667-4.776-10.667-10.667v0c0-5.891 4.776-10.667 10.667-10.667v0M17.333 8c-4.418 0-8 3.582-8 8v0c0 4.418 3.582 8 8 8v0c4.418 0 8-3.582 8-8v0c0-4.418-3.582-8-8-8v0M16 10h2v6.040l4.293 1.96-0.827 1.813-5.467-2.48v-7.333M1.333 18.667c0-3.333 1.507-6.267 3.88-8.227-0.766 1.629-1.213 3.537-1.213 5.55 0 0.004 0 0.007 0 0.011v-0.001l0.080 1.507-0.080 1.16c0 3.040 1.693 5.68 4.187 7.040 1.733 1.627 3.907 2.813 6.333 3.333-0.813 0.187-1.653 0.293-2.52 0.293-5.891 0-10.667-4.776-10.667-10.667v0z"></path>
</svg>
