<!-- Generated by IcoMoon.io -->
<svg version="1.1" xmlns="http://www.w3.org/2000/svg" width="32" height="32" viewBox="0 0 32 32">
<title>all-inclusive</title>
<path d="M24.8 8.827c-1.92 0-3.733 0.747-5.027 2.040l-9.373 8.32c-0.853 0.853-1.987 1.32-3.2 1.32-2.493 0-4.533-2.013-4.533-4.507s2.040-4.507 4.533-4.507c1.213 0 2.347 0.467 3.253 1.373l1.507 1.333 2.040-1.787-1.707-1.48c-1.297-1.301-3.091-2.107-5.072-2.107-0.007 0-0.015 0-0.022 0h0.001c-3.973 0-7.2 3.227-7.2 7.173s3.227 7.173 7.2 7.173c1.92 0 3.733-0.747 5.027-2.040l9.373-8.32c0.853-0.853 1.987-1.32 3.2-1.32 2.493 0 4.533 2.013 4.533 4.507s-2.040 4.507-4.533 4.507c-1.2 0-2.347-0.467-3.253-1.373l-1.547-1.347-2 1.787 1.707 1.493c1.299 1.294 3.090 2.093 5.068 2.093 0.009 0 0.018-0 0.027-0h-0.001c3.973 0 7.2-3.213 7.2-7.16 0-4-3.227-7.173-7.2-7.173z"></path>
</svg>
