<!-- Generated by IcoMoon.io -->
<svg version="1.1" xmlns="http://www.w3.org/2000/svg" width="32" height="32" viewBox="0 0 32 32">
<title>alpha</title>
<path d="M24.107 23.733c-0.613 0.173-1.16 0.267-1.64 0.267-1.6 0-2.68-1.173-3.227-3.533h-0.067c-1.32 2.547-3.173 3.813-5.507 3.813-1.747 0-3.147-0.653-4.2-1.973s-1.573-2.973-1.573-4.973c0-2.333 0.6-4.2 1.787-5.653s2.8-2.187 4.84-2.187c1.093 0 2.080 0.307 2.933 0.907 0.853 0.613 1.507 1.467 1.96 2.573h0.053l0.947-3.2h3.413l-2.853 7.093c0.32 1.653 0.653 2.787 1.027 3.387 0.32 0.6 0.773 0.907 1.333 0.907 0.32 0 0.573-0.053 0.8-0.147l-0.027 2.72M18.427 16.747c-0.28-1.507-0.733-2.68-1.347-3.48-0.6-0.813-1.333-1.213-2.173-1.213-1.093 0-1.973 0.493-2.627 1.467-0.653 0.987-0.947 2.2-0.947 3.627 0 1.307 0.253 2.387 0.827 3.267 0.56 0.88 1.32 1.307 2.267 1.307 0.8 0 1.533-0.387 2.187-1.12 0.667-0.76 1.213-1.867 1.653-3.32l0.16-0.533z"></path>
</svg>
