<!-- Generated by IcoMoon.io -->
<svg version="1.1" xmlns="http://www.w3.org/2000/svg" width="32" height="32" viewBox="0 0 32 32">
<title>amazon</title>
<path d="M21.24 22.787c-0.24 0.213-0.573 0.227-0.84 0.080-1.187-0.987-1.4-1.44-2.053-2.387-1.96 2-3.347 2.6-5.893 2.6-3 0-5.347-1.853-5.347-5.56 0-2.907 1.56-4.853 3.813-5.84 1.947-0.853 4.653-1.013 6.72-1.24v-0.44c0-0.88 0.067-1.88-0.44-2.613-0.427-0.653-1.267-0.933-2-0.933-1.36 0-2.573 0.707-2.867 2.147-0.067 0.32-0.333 0.64-0.627 0.653l-3.467-0.373c-0.293-0.067-0.613-0.293-0.533-0.747 0.8-4.2 4.6-5.467 8-5.467 1.733 0 4 0.467 5.373 1.773 1.733 1.627 1.587 3.8 1.587 6.16v5.56c0 1.667 0.667 2.413 1.333 3.307 0.227 0.333 0.28 0.72 0 0.947l-2.747 2.373h-0.013M17.64 14.080v-0.747c-2.587 0-5.32 0.52-5.32 3.56 0 1.547 0.813 2.6 2.173 2.6 1.013 0 1.907-0.627 2.48-1.627 0.693-1.24 0.667-2.4 0.667-3.787M26.88 26.053c-2.88 2.133-7.12 3.28-10.747 3.28-5.080 0-9.667-1.88-13.133-5.013-0.267-0.24-0.027-0.573 0.333-0.387 3.707 2.173 8.333 3.48 13.107 3.48 3.213 0 6.76-0.667 10.013-2.040 0.493-0.213 0.88 0.32 0.427 0.68M28.093 24.667c-0.373-0.48-2.467-0.227-3.427-0.107-0.253 0.027-0.293-0.213-0.040-0.4 1.653-1.173 4.387-0.827 4.707-0.44 0.32 0.4-0.093 3.133-1.653 4.427-0.24 0.213-0.467 0.093-0.347-0.147 0.347-0.893 1.133-2.853 0.76-3.333z"></path>
</svg>
