<!-- Generated by IcoMoon.io -->
<svg version="1.1" xmlns="http://www.w3.org/2000/svg" width="32" height="32" viewBox="0 0 32 32">
<title>ambulance</title>
<path d="M24 24.667c1.105 0 2-0.895 2-2v0c0-1.105-0.895-2-2-2v0c-1.105 0-2 0.895-2 2v0c0 1.105 0.895 2 2 2v0M26 12.667h-3.333v3.333h5.947l-2.613-3.333M8 24.667c1.105 0 2-0.895 2-2v0c0-1.105-0.895-2-2-2v0c-1.105 0-2 0.895-2 2v0c0 1.105 0.895 2 2 2v0M26.667 10.667l4 5.333v6.667h-2.667c0 2.209-1.791 4-4 4v0c-2.209 0-4-1.791-4-4v0h-8c0 2.209-1.791 4-4 4v0c-2.209 0-4-1.791-4-4v0h-2.667v-14.667c0-1.48 1.187-2.667 2.667-2.667h18.667v5.333h4M10.667 8v4h-4v2.667h4v4h2.667v-4h4v-2.667h-4v-4h-2.667z"></path>
</svg>
