<!-- Generated by IcoMoon.io -->
<svg version="1.1" xmlns="http://www.w3.org/2000/svg" width="32" height="32" viewBox="0 0 32 32">
<title>anchor</title>
<path d="M16 2.667c-2.209 0-4 1.791-4 4v0c0 1.693 1.067 3.2 2.667 3.773v2.893h-4v2.667h4v9.227c-2.517-0.404-4.636-1.843-5.939-3.859l-0.021-0.034h1.96v-2.667h-6.667v6.667h2.667v-2.267c2.107 3.080 5.6 4.933 9.333 4.933s7.227-1.853 9.333-4.92v2.253h2.667v-6.667h-6.667v2.667h1.947c-1.333 2.080-3.507 3.507-5.947 3.893v-9.227h4v-2.667h-4v-2.907c1.6-0.56 2.667-2.067 2.667-3.76 0-2.209-1.791-4-4-4v0M16 5.333c0.736 0 1.333 0.597 1.333 1.333v0c0 0.736-0.597 1.333-1.333 1.333v0c-0.736 0-1.333-0.597-1.333-1.333v0c0-0.736 0.597-1.333 1.333-1.333v0z"></path>
</svg>
