<!-- Generated by IcoMoon.io -->
<svg version="1.1" xmlns="http://www.w3.org/2000/svg" width="32" height="32" viewBox="0 0 32 32">
<title>android</title>
<path d="M20 6.67h-1.333v-1.333h1.333M13.334 6.67h-1.333v-1.333h1.333M20.706 2.883l1.746-1.746c0.253-0.253 0.253-0.68 0-0.947-0.123-0.118-0.29-0.19-0.473-0.19s-0.351 0.072-0.474 0.19l-1.973 1.973c-1.067-0.52-2.266-0.827-3.533-0.827-1.28 0-2.48 0.307-3.546 0.84l-1.986-1.986c-0.12-0.118-0.285-0.19-0.467-0.19s-0.346 0.072-0.467 0.19l0-0c-0.267 0.267-0.267 0.693 0 0.947l1.746 1.746c-1.986 1.466-3.28 3.786-3.28 6.453h15.998c0-2.666-1.333-4.999-3.293-6.453M27.332 10.669c-1.104 0-2 0.895-2 2v0 9.332c0 1.104 0.895 2 2 2v0c1.104 0 2-0.895 2-2v0-9.332c0-1.104-0.895-2-2-2v0M4.668 10.669c-1.104 0-2 0.895-2 2v0 9.332c0 1.104 0.895 2 2 2v0c1.104 0 2-0.895 2-2v-9.332c0-1.104-0.895-2-2-2v0M8.001 24.001c0 0.736 0.597 1.333 1.333 1.333h1.333v4.666c0 1.104 0.895 2 2 2v0c1.104 0 2-0.895 2-2v0-4.666h2.666v4.666c0 1.104 0.895 2 2 2v0c1.104 0 2-0.895 2-2v0-4.666h1.333c0.736 0 1.333-0.597 1.333-1.333v0-13.332h-15.998v13.332z"></path>
</svg>
