<!-- Generated by IcoMoon.io -->
<svg version="1.1" xmlns="http://www.w3.org/2000/svg" width="32" height="32" viewBox="0 0 32 32">
<title>animation</title>
<path d="M5.333 2.667c-1.48 0-2.667 1.187-2.667 2.667v13.333h2.667v-13.333h13.333v-2.667h-13.333M10.667 8c-1.48 0-2.667 1.187-2.667 2.667v13.333h2.667v-13.333h13.333v-2.667h-13.333M16 13.333c-1.48 0-2.667 1.187-2.667 2.667v10.667c0 1.48 1.187 2.667 2.667 2.667h10.667c1.48 0 2.667-1.187 2.667-2.667v-10.667c0-1.48-1.187-2.667-2.667-2.667h-10.667z"></path>
</svg>
