<!-- Generated by IcoMoon.io -->
<svg version="1.1" xmlns="http://www.w3.org/2000/svg" width="32" height="32" viewBox="0 0 32 32">
<title>arrow-down-drop-circle-outline</title>
<path d="M16 2.667c-7.364 0-13.333 5.97-13.333 13.333v0c0 7.364 5.97 13.333 13.333 13.333v0c7.364 0 13.333-5.97 13.333-13.333v0c0-7.364-5.97-13.333-13.333-13.333v0M16 5.333c5.891 0 10.667 4.776 10.667 10.667v0c0 5.891-4.776 10.667-10.667 10.667v0c-5.891 0-10.667-4.776-10.667-10.667v0c0-5.891 4.776-10.667 10.667-10.667v0M9.333 13.333l6.667 6.667 6.667-6.667h-13.333z"></path>
</svg>
