<!-- Generated by IcoMoon.io -->
<svg version="1.1" xmlns="http://www.w3.org/2000/svg" width="32" height="32" viewBox="0 0 32 32">
<title>at</title>
<path d="M23.227 20c0.493-1.213 0.773-2.573 0.773-4 0-5.16-3.587-9.333-8-9.333s-8 4.173-8 9.333 3.587 9.333 8 9.333c2.053 0 4 0 5.333-1.040v3.107c-1.333 0.6-3.387 0.6-5.333 0.6-5.893 0-10.667-5.373-10.667-12s4.773-12 10.667-12 10.667 5.373 10.667 12c0 2.467-0.667 4.76-1.8 6.667h-6.2v-2c-0.853 1.24-2 2-3.333 2-2.573 0-4.667-2.987-4.667-6.667s2.093-6.667 4.667-6.667c1.333 0 2.48 0.76 3.333 2v-0.667h2.667v9.333h1.893M16 12c-1.467 0-2.667 1.787-2.667 4s1.2 4 2.667 4 2.667-1.787 2.667-4-1.2-4-2.667-4z"></path>
</svg>
