<!-- Generated by IcoMoon.io -->
<svg version="1.1" xmlns="http://www.w3.org/2000/svg" width="32" height="32" viewBox="0 0 32 32">
<title>auto-fix</title>
<path d="M10 7.467l-3.333 1.867 1.867-3.333-1.867-3.333 3.333 1.867 3.333-1.867-1.867 3.333 1.867 3.333-3.333-1.867M26 20.533l3.333-1.867-1.867 3.333 1.867 3.333-3.333-1.867-3.333 1.867 1.867-3.333-1.867-3.333 3.333 1.867M29.333 2.667l-1.867 3.333 1.867 3.333-3.333-1.867-3.333 1.867 1.867-3.333-1.867-3.333 3.333 1.867 3.333-1.867M17.787 17.040l3.253-3.253-2.827-2.827-3.253 3.253 2.827 2.827M19.16 9.72l3.12 3.12c0.52 0.493 0.52 1.36 0 1.88l-15.56 15.56c-0.52 0.52-1.387 0.52-1.88 0l-3.12-3.12c-0.52-0.493-0.52-1.36 0-1.88l15.56-15.56c0.52-0.52 1.387-0.52 1.88 0z"></path>
</svg>
