<!-- Generated by IcoMoon.io -->
<svg version="1.1" xmlns="http://www.w3.org/2000/svg" width="32" height="32" viewBox="0 0 32 32">
<title>barcode-scan</title>
<path d="M5.333 8h2.667v16h-2.667v-16M9.333 8h1.333v16h-1.333v-16M12 8h4v16h-4v-16M17.333 8h1.333v16h-1.333v-16M21.333 8h2.667v16h-2.667v-16M25.333 8h1.333v16h-1.333v-16M2.667 5.333v5.333h-2.667v-5.333c0-1.473 1.194-2.667 2.667-2.667v0h5.333v2.667h-5.333M29.333 2.667c1.473 0 2.667 1.194 2.667 2.667v5.333h-2.667v-5.333h-5.333v-2.667h5.333M2.667 21.333v5.333h5.333v2.667h-5.333c-1.473 0-2.667-1.194-2.667-2.667v-5.333h2.667M29.333 26.667v-5.333h2.667v5.333c0 1.473-1.194 2.667-2.667 2.667v0h-5.333v-2.667h5.333z"></path>
</svg>
