<!-- Generated by IcoMoon.io -->
<svg version="1.1" xmlns="http://www.w3.org/2000/svg" width="32" height="32" viewBox="0 0 32 32">
<title>basecamp</title>
<path d="M4.52 20.853c0.013-0.12 0.040-0.253 0.080-0.373 0.067-0.24 0.12-0.48 0.2-0.693 0.293-0.867 0.747-1.68 1.2-2.453 0.267-0.4 0.52-0.787 0.76-1.173 0.253-0.387 0.507-0.773 0.8-1.147 0.44-0.6 1.040-1.24 1.773-1.48 1.053-0.333 1.827 0.747 2.427 1.427 0.347 0.373 0.72 0.773 1.187 1 0.227 0.093 0.467 0.147 0.707 0.133 0.347-0.027 0.653-0.267 0.92-0.48 0.707-0.587 1.293-1.347 1.84-2.080 0.613-0.8 1.2-1.627 1.893-2.36 0.293-0.307 0.6-0.707 1.027-0.84 0.065-0.020 0.14-0.031 0.218-0.031 0.23 0 0.438 0.099 0.581 0.257l0.001 0.001c0.093 0.107 0.2 0.16 0.293 0.227 0.747 0.547 1.44 1.213 2.093 1.88 0.56 0.573 1.107 1.187 1.613 1.813 0.533 0.613 0.987 1.24 1.4 1.92 0.507 0.84 0.933 1.707 1.413 2.547 0.427 0.773 0.867 1.667 0.427 2.547-0.040 0.040-0.040 0.093-0.040 0.133-0.787 1.293-2.16 2.093-3.52 2.613-1.64 0.627-3.387 0.933-5.147 1.053-1.787 0.133-3.6 0.12-5.4-0.040-1.627-0.16-3.267-0.453-4.787-1.040-1.28-0.493-2.48-1.213-3.36-2.307-0.2-0.267-0.373-0.533-0.52-0.827-0.027-0.027-0.040-0.067-0.053-0.093-0.027-0.053-0.040-0.080-0.027-0.133M2.773 22c0.187 0.307 0.4 0.573 0.613 0.827 0.427 0.507 0.92 0.973 1.44 1.387 1.12 0.867 2.413 1.493 3.76 1.933 1.547 0.52 3.173 0.773 4.8 0.907 1.88 0.16 3.8 0.16 5.68-0.040 1.733-0.187 3.48-0.547 5.107-1.187 1.515-0.613 2.818-1.436 3.945-2.451l-0.012 0.011c0.307-0.267 0.6-0.547 0.827-0.88 0.213-0.28 0.4-0.587 0.4-0.933 0-0.4 0-0.813-0.107-1.213-0.093-0.44-0.213-0.867-0.32-1.293l-0.12-0.48c-0.471-2.056-1.145-3.867-2.021-5.556l0.061 0.129c-0.747-1.44-1.667-2.813-2.747-4.040-1-1.12-2.173-2.16-3.507-2.88-0.707-0.4-1.467-0.707-2.24-0.907-0.413-0.16-0.84-0.253-1.267-0.347-0.12-0.013-0.227-0.040-0.333-0.040h-1.253c-0.147 0-0.24-0.013-0.373 0-0.107 0.013-0.227 0.040-0.333 0.053-0.227 0.040-0.44 0.080-0.653 0.133-0.427 0.093-0.84 0.2-1.253 0.387-0.813 0.32-1.573 0.747-2.293 1.253-1.413 0.96-2.64 2.2-3.667 3.56-1.080 1.44-1.96 3.053-2.627 4.733-0.72 1.787-1.213 3.653-1.52 5.56-0.040 0.24-0.093 0.493-0.093 0.707v0.427c0 0.067 0 0.107 0.040 0.16 0.013 0.027 0.040 0.080 0.067 0.080z"></path>
</svg>
