<!-- Generated by IcoMoon.io -->
<svg version="1.1" xmlns="http://www.w3.org/2000/svg" width="32" height="32" viewBox="0 0 32 32">
<title>basket</title>
<path d="M7.333 28c-1.040 0-1.947-0.6-2.387-1.467l-3.48-12.613-0.133-0.587c0-0.736 0.597-1.333 1.333-1.333h6.107l6.133-8.76c0.243-0.35 0.643-0.576 1.095-0.576 0.458 0 0.863 0.232 1.102 0.585l0.003 0.005 6.12 8.747h6.107c0.736 0 1.333 0.597 1.333 1.333v0l-0.053 0.387-3.56 12.813c-0.44 0.867-1.347 1.467-2.387 1.467h-17.333M16 6.32l-4 5.68h8l-4-5.68M16 17.333c-1.473 0-2.667 1.194-2.667 2.667v0c0 1.473 1.194 2.667 2.667 2.667v0c1.473 0 2.667-1.194 2.667-2.667v0c0-1.473-1.194-2.667-2.667-2.667v0z"></path>
</svg>
