<!-- Generated by IcoMoon.io -->
<svg version="1.1" xmlns="http://www.w3.org/2000/svg" width="32" height="32" viewBox="0 0 32 32">
<title>beach</title>
<path d="M20 24.72c2.84-0.44 6-0.72 9.333-0.72v5.333h-22.667c0-0.867 4.267-2.853 10.667-4.133v-8.667c-1.12 0.333-2.067 1.080-2.667 2.067-0.828-1.369-2.309-2.269-4-2.269s-3.172 0.901-3.988 2.248l-0.012 0.021c0.040-4.773 4.667-8.693 10.667-9.213v-0.053c0-0.736 0.597-1.333 1.333-1.333v0c0.736 0 1.333 0.597 1.333 1.333v0 0.053c6 0.52 10.613 4.44 10.667 9.213-0.828-1.369-2.309-2.269-4-2.269s-3.172 0.901-3.988 2.248l-0.012 0.021c-0.6-0.987-1.547-1.733-2.667-2.080v8.2M9.333 2.667c0 3.682-2.985 6.667-6.667 6.667v0-6.667h6.667z"></path>
</svg>
