<!-- Generated by IcoMoon.io -->
<svg version="1.1" xmlns="http://www.w3.org/2000/svg" width="32" height="32" viewBox="0 0 32 32">
<title>bell-ring-outline</title>
<path d="M21.333 22.667v-8.667c0-3.333-2.667-6-6-6s-6 2.667-6 6v8.667h12M24 21.333l2.667 2.667v1.333h-22.667v-1.333l2.667-2.667v-7.333c0-4.093 2.84-7.52 6.667-8.427v-0.907c0-1.105 0.895-2 2-2v0c1.105 0 2 0.895 2 2v0 0.907c3.813 0.907 6.667 4.333 6.667 8.427v7.333M15.333 29.333c-1.473 0-2.667-1.194-2.667-2.667v0h5.333c0 1.473-1.194 2.667-2.667 2.667v0M26.627 13.333c-0.2-3.533-2.013-6.667-4.733-8.56l1.907-1.907c3.187 2.427 5.293 6.187 5.493 10.467h-2.667M8.773 4.773c-2.72 1.893-4.533 5.027-4.773 8.56h-2.667c0.235-4.274 2.338-8.013 5.5-10.442l0.033-0.025 1.907 1.907z"></path>
</svg>
