<!-- Generated by IcoMoon.io -->
<svg version="1.1" xmlns="http://www.w3.org/2000/svg" width="32" height="32" viewBox="0 0 32 32">
<title>bell-off</title>
<path d="M18.667 26.667c0 1.473-1.194 2.667-2.667 2.667v0c-1.473 0-2.667-1.194-2.667-2.667v0h5.333M26.32 28.76l-3.427-3.427h-18.893l4-4v-8c0-0.867 0.133-1.707 0.4-2.493l-3.773-3.773 1.893-1.88 21.68 21.68-1.88 1.893M14.667 5.44v-1.44c0-0.736 0.597-1.333 1.333-1.333v0c0.736 0 1.333 0.597 1.333 1.333v0 1.44c3.787 0.64 6.667 3.933 6.667 7.893v5.56l-12.307-12.307c0.893-0.587 1.893-0.96 2.973-1.147z"></path>
</svg>
