<!-- Generated by IcoMoon.io -->
<svg version="1.1" xmlns="http://www.w3.org/2000/svg" width="32" height="32" viewBox="0 0 32 32">
<title>beta</title>
<path d="M12.307 23.453v7.373h-3.133v-21.867c0-1.933 0.573-3.453 1.707-4.587 1.12-1.133 2.68-1.707 4.6-1.707 1.853 0 3.28 0.453 4.347 1.333 1.053 0.907 1.573 2.16 1.573 3.747 0 1.093-0.347 2.12-1.040 3.067s-1.587 1.6-2.693 1.96v0.053c1.667 0.267 2.96 0.867 3.84 1.84 0.88 0.947 1.32 2.16 1.32 3.653 0 1.76-0.613 3.2-1.827 4.307-1.227 1.107-2.827 1.653-4.827 1.653-1.413 0-2.707-0.28-3.867-0.827M14.293 14.333v-2.56c1.16-0.147 2.107-0.573 2.867-1.293 0.747-0.733 1.12-1.547 1.12-2.48 0-1.84-0.947-2.773-2.813-2.773-1.013 0-1.8 0.32-2.347 0.973s-0.813 1.56-0.813 2.747v11.72c1.213 0.707 2.4 1.053 3.547 1.053 1.12 0 2-0.293 2.627-0.867 0.627-0.587 0.933-1.413 0.933-2.467 0-2.387-1.707-3.72-5.12-4.053z"></path>
</svg>
