<!-- Generated by IcoMoon.io -->
<svg version="1.1" xmlns="http://www.w3.org/2000/svg" width="32" height="32" viewBox="0 0 32 32">
<title>bike</title>
<path d="M6.667 27.333c-2.577 0-4.667-2.089-4.667-4.667v0c0-2.577 2.089-4.667 4.667-4.667v0c2.577 0 4.667 2.089 4.667 4.667v0c0 2.577-2.089 4.667-4.667 4.667v0M6.667 16c-3.682 0-6.667 2.985-6.667 6.667v0c0 3.682 2.985 6.667 6.667 6.667v0c3.682 0 6.667-2.985 6.667-6.667v0c0-3.682-2.985-6.667-6.667-6.667v0M19.733 13.333h5.6v-2.4h-4.267l-2.587-4.36c-0.387-0.667-1.147-1.107-1.947-1.107-0.627 0-1.2 0.253-1.6 0.667l-4.933 4.92c-0.413 0.413-0.667 0.947-0.667 1.613 0 0.84 0.44 1.547 1.133 1.96l4.467 2.707v6.667h2.4v-8.667l-3-2.2 3.093-3.133M25.333 27.333c-2.577 0-4.667-2.089-4.667-4.667v0c0-2.577 2.089-4.667 4.667-4.667v0c2.577 0 4.667 2.089 4.667 4.667v0c0 2.577-2.089 4.667-4.667 4.667v0M25.333 16c-3.682 0-6.667 2.985-6.667 6.667v0c0 3.682 2.985 6.667 6.667 6.667v0c3.682 0 6.667-2.985 6.667-6.667v0c0-3.682-2.985-6.667-6.667-6.667v0M21.333 6.4c1.333 0 2.4-1.067 2.4-2.4s-1.067-2.4-2.4-2.4-2.4 1.067-2.4 2.4 1.067 2.4 2.4 2.4z"></path>
</svg>
