<!-- Generated by IcoMoon.io -->
<svg version="1.1" xmlns="http://www.w3.org/2000/svg" width="32" height="32" viewBox="0 0 32 32">
<title>biohazard</title>
<path d="M30.667 21.413c0 0.307 0 0.587-0.053 0.853-0.24-3.413-3.093-6.12-6.613-6.12-0.493 0-0.973 0.067-1.44 0.16 0.053 0.36 0.107 0.667 0.107 1.027 0 3.133-2.253 5.76-5.24 6.413 0.467 2.987 2.987 5.307 6.107 5.533-0.293 0.053-0.573 0.053-0.867 0.053-2.773 0-5.24-1.413-6.667-3.547-1.458 2.151-3.891 3.547-6.649 3.547-0.006 0-0.012 0-0.018-0h0.001c-0.293 0-0.573 0-0.867-0.053 3.12-0.227 5.627-2.533 6.107-5.533-3-0.653-5.24-3.28-5.24-6.413 0-0.36 0.053-0.667 0.093-1.027-0.453-0.093-0.933-0.16-1.427-0.16-0.006-0-0.013-0-0.019-0-3.482 0-6.336 2.685-6.606 6.097l-0.001 0.023c-0.040-0.267-0.040-0.547-0.040-0.853 0-4.28 3.453-7.76 7.747-7.893-0.68-1.137-1.083-2.509-1.083-3.975 0-2.952 1.632-5.522 4.043-6.858l0.040-0.020c-1.667 1.2-2.747 3.12-2.747 5.333 0 1.8 0.747 3.453 1.96 4.667 1.213-1.213 2.867-1.947 4.707-1.947 1.827 0 3.493 0.733 4.667 1.947 1.24-1.213 2-2.867 2-4.667 0-2.213-1.093-4.133-2.747-5.333 2.451 1.357 4.083 3.927 4.083 6.879 0 1.466-0.402 2.837-1.103 4.010l0.020-0.036c4.307 0.133 7.747 3.613 7.747 7.893M12.36 13.48c1.027 0.677 2.286 1.081 3.64 1.081s2.613-0.403 3.665-1.096l-0.025 0.016c-0.973-0.88-2.227-1.44-3.64-1.44s-2.667 0.56-3.64 1.44M16 19.293c1.093 0 2-0.893 2-1.96 0-1.105-0.895-2-2-2v0c-1.105 0-2 0.895-2 2v0c0 1.067 0.893 1.96 2 1.96M14.627 22.387c-0.133-2.52-1.68-4.667-3.893-5.653-0.027 0.2-0.067 0.387-0.067 0.6 0 2.427 1.693 4.453 3.96 5.053M21.28 16.733c-2.224 1-3.78 3.127-3.946 5.633l-0.001 0.020c2.307-0.6 4-2.627 4-5.053 0-0.213-0.040-0.4-0.053-0.6z"></path>
</svg>
