<!-- Generated by IcoMoon.io -->
<svg version="1.1" xmlns="http://www.w3.org/2000/svg" width="32" height="32" viewBox="0 0 32 32">
<title>bitbucket</title>
<path d="M16 7.68c4.080 0.013 7.4-0.693 7.4-1.56s-3.307-1.573-7.4-1.587c-4.080 0-7.4 0.693-7.4 1.56 0 0.88 3.307 1.587 7.4 1.587M16 19.2c2 0 3.667-1.653 3.667-3.68 0-2.025-1.642-3.667-3.667-3.667v0c-2 0-3.667 1.64-3.667 3.667 0.008 2.025 1.643 3.665 3.665 3.68h0.001M16 2.667c6.36 0 11.547 1.707 11.547 3.827 0 0.56-1.387 8.587-1.933 11.76-0.24 1.427-3.933 3.52-9.613 3.52v0c-5.68 0-9.373-2.093-9.613-3.52-0.547-3.173-1.933-11.2-1.933-11.76 0-2.12 5.187-3.827 11.547-3.827M24.307 21.44c0.2 0 0.4 0.147 0.4 0.453v0.107l-0.827 4.28c-0.387 1.72-3.787 3.053-7.88 3.053s-7.493-1.333-7.88-3.053l-0.827-4.28v-0.107c0-0.307 0.2-0.453 0.4-0.453 0.187 0 0.307 0.12 0.307 0.12s2.853 2.253 8 2.253 8-2.253 8-2.253 0.12-0.12 0.307-0.12M17.84 15.52c0 1.013-0.827 1.813-1.84 1.813s-1.84-0.8-1.84-1.813c0-1.016 0.824-1.84 1.84-1.84v0c1.016 0 1.84 0.824 1.84 1.84v0z"></path>
</svg>
