<!-- Generated by IcoMoon.io -->
<svg version="1.1" xmlns="http://www.w3.org/2000/svg" width="32" height="32" viewBox="0 0 32 32">
<title>blinds</title>
<path d="M4 2.667h24c0.736 0 1.333 0.597 1.333 1.333v0 2.667c0 0.736-0.597 1.333-1.333 1.333v0h-1.333v9.333c0 0.736-0.597 1.333-1.333 1.333h-8v2.893c1.56 0.547 2.667 2.027 2.667 3.773 0 2.209-1.791 4-4 4v0c-2.209 0-4-1.791-4-4v0c0-1.747 1.107-3.227 2.667-3.773v-2.893h-8c-0.736 0-1.333-0.597-1.333-1.333v0-9.333h-1.333c-0.736 0-1.333-0.597-1.333-1.333v0-2.667c0-0.736 0.597-1.333 1.333-1.333v0M16 24c-0.736 0-1.333 0.597-1.333 1.333v0c0 0.736 0.597 1.333 1.333 1.333v0c0.736 0 1.333-0.597 1.333-1.333v0c0-0.736-0.597-1.333-1.333-1.333v0z"></path>
</svg>
