<!-- Generated by IcoMoon.io -->
<svg version="1.1" xmlns="http://www.w3.org/2000/svg" width="32" height="32" viewBox="0 0 32 32">
<title>blogger</title>
<path d="M18.667 17.333h-5.4c-0.736 0-1.333 0.597-1.333 1.333v0c0 0.736 0.597 1.333 1.333 1.333h5.4c0.736 0 1.333-0.597 1.333-1.333v0c0-0.736-0.597-1.333-1.333-1.333v0M13.267 13.333h3.467c0.736 0 1.333-0.597 1.333-1.333v0c0-0.736-0.597-1.333-1.333-1.333h-3.467c-0.736 0-1.333 0.597-1.333 1.333v0c0 0.736 0.597 1.333 1.333 1.333v0M21.333 12v1.333c0 0.736 0.597 1.333 1.333 1.333v0c0.736 0 1.333 0.597 1.333 1.333v4c0 2.209-1.791 4-4 4v0h-8c-2.209 0-4-1.791-4-4v0-9.333c0-2.209 1.791-4 4-4v0h5.333c2.209 0 4 1.791 4 4v0M26.667 2.667h-21.333c-1.48 0-2.667 1.187-2.667 2.667v21.333c0 1.473 1.194 2.667 2.667 2.667h21.333c1.473 0 2.667-1.194 2.667-2.667v0-21.333c0-1.473-1.194-2.667-2.667-2.667v0z"></path>
</svg>
