<!-- Generated by IcoMoon.io -->
<svg version="1.1" xmlns="http://www.w3.org/2000/svg" width="32" height="32" viewBox="0 0 32 32">
<title>bomb-off</title>
<path d="M19.333 3.667c-2.4 0-4.333 1.933-4.333 4.333h-1.667v1.72c-0.92 0.28-1.773 0.693-2.56 1.213l12.947 12.947c1.010-1.458 1.613-3.264 1.613-5.212 0-0.001 0-0.001 0-0.002v0c0-4.227-2.813-7.8-6.667-8.947v-1.72h-1.667c0-1.289 1.045-2.333 2.333-2.333v0c1.289 0 2.333 1.045 2.333 2.333v0c0 1.657 1.343 3 3 3v0c1.653 0 2.987-1.347 2.987-3v-1h-1.987v1c0 0.56-0.453 1-1 1-0.56 0-1-0.44-1-1 0-2.4-1.947-4.333-4.333-4.333M4.547 8.48l-1.88 1.88 4.733 4.733c-0.467 1.093-0.733 2.293-0.733 3.573 0 5.147 4.173 9.333 9.333 9.333 1.227 0 2.44-0.253 3.573-0.733l4.733 4.733 1.88-1.88-21.64-21.64z"></path>
</svg>
