<!-- Generated by IcoMoon.io -->
<svg version="1.1" xmlns="http://www.w3.org/2000/svg" width="32" height="32" viewBox="0 0 32 32">
<title>bone</title>
<path d="M10.667 18.667c0 2.209-1.791 4-4 4v0c-2.209 0-4-1.791-4-4v0c0-1.027 0.387-1.96 1.013-2.667-0.627-0.707-1.013-1.64-1.013-2.667 0-2.209 1.791-4 4-4v0c2.209 0 4 1.791 4 4v0c1.773 0.107 3.56 0.227 5.333 0.227s3.56-0.12 5.333-0.227c0-2.209 1.791-4 4-4v0c2.209 0 4 1.791 4 4v0c0 1.027-0.387 1.96-1.013 2.667 0.627 0.707 1.013 1.64 1.013 2.667 0 2.209-1.791 4-4 4v0c-2.209 0-4-1.791-4-4v0c-1.773-0.107-3.56-0.227-5.333-0.227s-3.56 0.12-5.333 0.227z"></path>
</svg>
