<!-- Generated by IcoMoon.io -->
<svg version="1.1" xmlns="http://www.w3.org/2000/svg" width="32" height="32" viewBox="0 0 32 32">
<title>border-none</title>
<path d="M20 6.667h2.667v-2.667h-2.667M20 17.333h2.667v-2.667h-2.667M20 28h2.667v-2.667h-2.667M14.667 6.667h2.667v-2.667h-2.667M25.333 6.667h2.667v-2.667h-2.667M14.667 12h2.667v-2.667h-2.667M25.333 12h2.667v-2.667h-2.667M25.333 28h2.667v-2.667h-2.667M25.333 17.333h2.667v-2.667h-2.667M25.333 22.667h2.667v-2.667h-2.667M14.667 17.333h2.667v-2.667h-2.667M4 6.667h2.667v-2.667h-2.667M4 12h2.667v-2.667h-2.667M4 17.333h2.667v-2.667h-2.667M4 22.667h2.667v-2.667h-2.667M4 28h2.667v-2.667h-2.667M14.667 28h2.667v-2.667h-2.667M14.667 22.667h2.667v-2.667h-2.667M9.333 28h2.667v-2.667h-2.667M9.333 17.333h2.667v-2.667h-2.667M9.333 6.667h2.667v-2.667h-2.667v2.667z"></path>
</svg>
