<!-- Generated by IcoMoon.io -->
<svg version="1.1" xmlns="http://www.w3.org/2000/svg" width="32" height="32" viewBox="0 0 32 32">
<title>box-cutter</title>
<path d="M9.627 15.88c-0.44 0.44-0.68 0.987-0.747 1.56l7.347 3.147 11.32-11.307c1.040-1.053 1.040-2.733 0-3.773l-1.893-1.893c-1.040-1.040-2.72-1.040-3.773 0l-12.253 12.267M6.667 21.333v7.667l7.747-6.96-6.667-2.667-1.080 1.96M22.827 6.44c0.507-0.52 1.373-0.52 1.893 0 0.52 0.533 0.52 1.373 0 1.893s-1.387 0.52-1.893 0c-0.52-0.52-0.52-1.36 0-1.893z"></path>
</svg>
