<!-- Generated by IcoMoon.io -->
<svg version="1.1" xmlns="http://www.w3.org/2000/svg" width="32" height="32" viewBox="0 0 32 32">
<title>box</title>
<path d="M20.52 18.72c0-1.892-1.534-3.427-3.427-3.427v0c-1.886 0.004-3.413 1.534-3.413 3.42 0 1.889 1.531 3.42 3.42 3.42 1.886 0 3.416-1.527 3.42-3.413v-0M22.8 18.72c0.418 0.773 0.664 1.693 0.664 2.67 0 3.147-2.551 5.699-5.699 5.699s-5.699-2.551-5.699-5.699c0-0.001 0-0.002 0-0.003v0c-0.977 1.817-2.864 3.031-5.035 3.031-3.114 0-5.645-2.498-5.698-5.599l-0-0.005v-9.48c0-0.587 0.52-1.093 1.147-1.093s1.12 0.507 1.133 1.093v4.827c0.96-0.72 2.147-1.147 3.427-1.147 2.173 0 4.067 1.227 5.027 3.027 0.977-1.812 2.86-3.024 5.026-3.027h0c3.147 0 5.707 2.56 5.707 5.707M10.453 18.72c0-1.893-1.533-3.427-3.413-3.427-1.893 0-3.427 1.534-3.427 3.427v0c0 1.889 1.531 3.42 3.42 3.42s3.42-1.531 3.42-3.42v0M30.453 22.613c0.147 0.213 0.213 0.453 0.213 0.68 0 0.347-0.16 0.707-0.453 0.907-0.188 0.138-0.424 0.223-0.679 0.227h-0.001c-0.333 0-0.667-0.147-0.867-0.427l-2.547-3.373-2.52 3.373c-0.227 0.28-0.56 0.427-0.893 0.427-0.24 0-0.48-0.080-0.707-0.227-0.28-0.2-0.44-0.573-0.44-0.92 0-0.227 0.080-0.467 0.213-0.667l2.893-3.893-2.893-3.907c-0.133-0.18-0.213-0.407-0.213-0.652 0-0.005 0-0.010 0-0.015v0.001c0-0.347 0.16-0.68 0.44-0.907 0.52-0.373 1.213-0.28 1.6 0.213l2.52 3.36 2.547-3.36c0.347-0.493 1.053-0.587 1.547-0.213 0.307 0.227 0.453 0.573 0.453 0.933 0 0.227-0.067 0.453-0.213 0.64l-2.907 3.907 2.907 3.893z"></path>
</svg>
