<!-- Generated by IcoMoon.io -->
<svg version="1.1" xmlns="http://www.w3.org/2000/svg" width="32" height="32" viewBox="0 0 32 32">
<title>cached</title>
<path d="M25.333 10.667l-5.333 5.333h4c0 4.418-3.582 8-8 8v0c-1.333 0-2.627-0.333-3.733-0.933l-1.947 1.947c1.607 1.037 3.57 1.653 5.677 1.653 0.001 0 0.002 0 0.003 0h-0c5.891 0 10.667-4.776 10.667-10.667v0h4M8 16c0-4.418 3.582-8 8-8v0c1.333 0 2.627 0.333 3.733 0.933l1.947-1.947c-1.607-1.037-3.57-1.653-5.677-1.653-0.001 0-0.002 0-0.003 0h0c-5.891 0-10.667 4.776-10.667 10.667v0h-4l5.333 5.333 5.333-5.333"></path>
</svg>
