<!-- Generated by IcoMoon.io -->
<svg version="1.1" xmlns="http://www.w3.org/2000/svg" width="32" height="32" viewBox="0 0 32 32">
<title>cake-variant</title>
<path d="M16 8c1.473 0 2.667-1.194 2.667-2.667v0c0-0.507-0.133-0.973-0.387-1.373l-2.28-3.96-2.28 3.96c-0.253 0.4-0.387 0.867-0.387 1.373 0 1.473 1.194 2.667 2.667 2.667v0M22.133 21.333l-1.427-1.44-1.44 1.44c-1.733 1.72-4.773 1.733-6.52 0l-1.413-1.44-1.467 1.44c-0.834 0.824-1.982 1.333-3.248 1.333-0.979 0-1.887-0.304-2.634-0.823l0.015 0.010v6.147c0 0.736 0.597 1.333 1.333 1.333v0h21.333c0.736 0 1.333-0.597 1.333-1.333v-6.147c-0.732 0.509-1.64 0.813-2.619 0.813-1.266 0-2.414-0.509-3.248-1.334l0 0M24 12h-6.667v-2.667h-2.667v2.667h-6.667c-2.209 0-4 1.791-4 4v0 2.053c0 1.44 1.173 2.613 2.613 2.613 0.72 0 1.387-0.267 1.84-0.76l2.88-2.84 2.813 2.84c0.987 0.987 2.707 0.987 3.693 0l2.827-2.84 2.867 2.84c0.467 0.493 1.133 0.76 1.84 0.76 1.44 0 2.627-1.173 2.627-2.613v-2.053c0-2.209-1.791-4-4-4v0z"></path>
</svg>
