<!-- Generated by IcoMoon.io -->
<svg version="1.1" xmlns="http://www.w3.org/2000/svg" width="32" height="32" viewBox="0 0 32 32">
<title>calculator</title>
<path d="M9.333 2.667h13.333c1.473 0 2.667 1.194 2.667 2.667v21.333c0 1.473-1.194 2.667-2.667 2.667h-13.333c-1.473 0-2.667-1.194-2.667-2.667v-21.333c0-1.473 1.194-2.667 2.667-2.667v0M9.333 5.333v5.333h13.333v-5.333h-13.333M9.333 13.333v2.667h2.667v-2.667h-2.667M14.667 13.333v2.667h2.667v-2.667h-2.667M20 13.333v2.667h2.667v-2.667h-2.667M9.333 18.667v2.667h2.667v-2.667h-2.667M14.667 18.667v2.667h2.667v-2.667h-2.667M20 18.667v2.667h2.667v-2.667h-2.667M9.333 24v2.667h2.667v-2.667h-2.667M14.667 24v2.667h2.667v-2.667h-2.667M20 24v2.667h2.667v-2.667h-2.667z"></path>
</svg>
