<!-- Generated by IcoMoon.io -->
<svg version="1.1" xmlns="http://www.w3.org/2000/svg" width="32" height="32" viewBox="0 0 32 32">
<title>calendar-clock</title>
<path d="M20 17.333h2v3.76l3.253 1.88-1 1.733-4.253-2.453v-4.92M25.333 10.667h-18.667v14.667h6.227c-0.573-1.213-0.893-2.573-0.893-4 0-5.155 4.179-9.333 9.333-9.333v0c1.427 0 2.787 0.32 4 0.893v-2.227M6.667 28c-1.473 0-2.667-1.194-2.667-2.667v0-18.667c0-1.48 1.187-2.667 2.667-2.667h1.333v-2.667h2.667v2.667h10.667v-2.667h2.667v2.667h1.333c1.473 0 2.667 1.194 2.667 2.667v0 8.133c1.653 1.68 2.667 3.987 2.667 6.533 0 5.155-4.179 9.333-9.333 9.333v0c-2.547 0-4.853-1.013-6.533-2.667h-8.133M21.333 14.867c-3.571 0-6.467 2.895-6.467 6.467v0c0 3.573 2.893 6.467 6.467 6.467 3.571 0 6.467-2.895 6.467-6.467v0c0-3.573-2.893-6.467-6.467-6.467z"></path>
</svg>
