<!-- Generated by IcoMoon.io -->
<svg version="1.1" xmlns="http://www.w3.org/2000/svg" width="32" height="32" viewBox="0 0 32 32">
<title>calendar-check</title>
<path d="M25.333 25.333h-18.667v-14.667h18.667M25.333 4h-1.333v-2.667h-2.667v2.667h-10.667v-2.667h-2.667v2.667h-1.333c-1.473 0-2.667 1.194-2.667 2.667v0 18.667c0 1.473 1.194 2.667 2.667 2.667v0h18.667c1.473 0 2.667-1.194 2.667-2.667v0-18.667c0-1.473-1.194-2.667-2.667-2.667v0M22.040 14.747l-1.413-1.413-6.507 6.507-2.827-2.827-1.413 1.413 4.24 4.24 7.92-7.92z"></path>
</svg>
