<!-- Generated by IcoMoon.io -->
<svg version="1.1" xmlns="http://www.w3.org/2000/svg" width="32" height="32" viewBox="0 0 32 32">
<title>calendar-multiple</title>
<path d="M28 22.667v-12h-18.667v12h18.667M28 4c1.473 0 2.667 1.194 2.667 2.667v0 16c0 1.473-1.194 2.667-2.667 2.667v0h-18.667c-1.473 0-2.667-1.194-2.667-2.667v-16c0-1.473 1.194-2.667 2.667-2.667h1.333v-2.667h2.667v2.667h10.667v-2.667h2.667v2.667h1.333M4 28h18.667v2.667h-18.667c-1.473 0-2.667-1.194-2.667-2.667v0-16h2.667v16M25.333 20h-5.333v-5.333h5.333v5.333z"></path>
</svg>
