<!-- Generated by IcoMoon.io -->
<svg version="1.1" xmlns="http://www.w3.org/2000/svg" width="32" height="32" viewBox="0 0 32 32">
<title>calendar-plus</title>
<path d="M25.333 25.333v-16h-18.667v16h18.667M21.333 1.333h2.667v2.667h1.333c1.473 0 2.667 1.194 2.667 2.667v0 18.667c0 1.473-1.194 2.667-2.667 2.667v0h-18.667c-1.473 0-2.667-1.194-2.667-2.667v0-18.667c0-1.48 1.187-2.667 2.667-2.667h1.333v-2.667h2.667v2.667h10.667v-2.667M14.667 12h2.667v4h4v2.667h-4v4h-2.667v-4h-4v-2.667h4v-4z"></path>
</svg>
