<!-- Generated by IcoMoon.io -->
<svg version="1.1" xmlns="http://www.w3.org/2000/svg" width="32" height="32" viewBox="0 0 32 32">
<title>calendar-question</title>
<path d="M8 1.333v2.667h-1.333c-1.473 0-2.667 1.194-2.667 2.667v0 18.667c0 1.473 1.194 2.667 2.667 2.667v0h18.667c1.473 0 2.667-1.194 2.667-2.667v0-18.667c0-1.473-1.194-2.667-2.667-2.667v0h-1.333v-2.667h-2.667v2.667h-10.667v-2.667h-2.667M6.667 10.667h18.667v14.667h-18.667v-14.667M16.253 12c-1.16 0-2.093 0.267-2.813 0.787-0.693 0.547-1.040 1.307-1.027 2.36l0.013 0.040h2.573c0.013-0.4 0.133-0.707 0.373-0.92 0.229-0.191 0.527-0.307 0.851-0.307 0.010 0 0.020 0 0.030 0l-0.002-0c0.413 0 0.76 0.133 1 0.373 0.24 0.253 0.347 0.6 0.347 1 0 0.427-0.093 0.787-0.307 1.093-0.187 0.307-0.467 0.573-0.813 0.787-0.68 0.453-1.147 0.853-1.4 1.213-0.267 0.347-0.413 0.907-0.413 1.573h2.667c0-0.413 0.053-0.747 0.173-0.987s0.347-0.48 0.68-0.693c0.6-0.32 1.093-0.707 1.48-1.24s0.587-1.080 0.587-1.747c0-1.013-0.36-1.827-1.080-2.427-0.707-0.6-1.68-0.907-2.92-0.907M14.667 21.333v2.667h2.667v-2.667h-2.667z"></path>
</svg>
