<!-- Generated by IcoMoon.io -->
<svg version="1.1" xmlns="http://www.w3.org/2000/svg" width="32" height="32" viewBox="0 0 32 32">
<title>camera</title>
<path d="M5.333 5.333h4l2.667-2.667h8l2.667 2.667h4c1.473 0 2.667 1.194 2.667 2.667v0 16c0 1.473-1.194 2.667-2.667 2.667h-21.333c-1.473 0-2.667-1.194-2.667-2.667v0-16c0-1.473 1.194-2.667 2.667-2.667v0M16 9.333c-3.682 0-6.667 2.985-6.667 6.667v0c0 3.682 2.985 6.667 6.667 6.667v0c3.682 0 6.667-2.985 6.667-6.667v0c0-3.682-2.985-6.667-6.667-6.667v0M16 12c2.209 0 4 1.791 4 4v0c0 2.209-1.791 4-4 4v0c-2.209 0-4-1.791-4-4v0c0-2.209 1.791-4 4-4v0z"></path>
</svg>
