<!-- Generated by IcoMoon.io -->
<svg version="1.1" xmlns="http://www.w3.org/2000/svg" width="32" height="32" viewBox="0 0 32 32">
<title>camera-front-variant</title>
<path d="M8 0h16c1.473 0 2.667 1.194 2.667 2.667v0 26.667c0 1.473-1.194 2.667-2.667 2.667v0h-16c-1.473 0-2.667-1.194-2.667-2.667v-26.667c0-1.473 1.194-2.667 2.667-2.667v0M16 8c2.209 0 4 1.791 4 4v0c0 2.209-1.791 4-4 4v0c-2.209 0-4-1.791-4-4v0c0-2.209 1.791-4 4-4v0M14.667 1.333v2.667h2.667v-2.667h-2.667M8 5.333v16.667c0-1.84 3.587-3.333 8-3.333s8 1.493 8 3.333v-16.667h-16M17.333 24h-5.333v2.667h5.333v2.667l4-4-4-4v2.667z"></path>
</svg>
