<!-- Generated by IcoMoon.io -->
<svg version="1.1" xmlns="http://www.w3.org/2000/svg" width="32" height="32" viewBox="0 0 32 32">
<title>camera-iris</title>
<path d="M18.307 20l-5.2 9.013c0.872 0.203 1.873 0.32 2.901 0.32 3.204 0 6.145-1.132 8.442-3.019l-0.023 0.019-4.88-8.467M3.28 20c1.227 3.893 4.2 7.013 7.987 8.453l4.893-8.453M11.387 16l-5.2-9c-2.181 2.339-3.52 5.489-3.52 8.951 0 0.017 0 0.035 0 0.052v-0.003c0 0.907 0.093 1.8 0.267 2.667h9.987M29.067 13.333h-9.987l0.387 0.667 6.347 11c2.182-2.353 3.52-5.515 3.52-8.99 0-0.004 0-0.007 0-0.011v0.001c0-0.92-0.093-1.813-0.267-2.667M28.72 12c-1.227-3.907-4.2-7.013-7.987-8.453l-4.893 8.453M12.533 14l6.36-11.013c-0.933-0.2-1.893-0.32-2.893-0.32-3.2 0-6.133 1.12-8.427 3l4.88 8.467 0.080-0.133z"></path>
</svg>
