<!-- Generated by IcoMoon.io -->
<svg version="1.1" xmlns="http://www.w3.org/2000/svg" width="32" height="32" viewBox="0 0 32 32">
<title>camera-front</title>
<path d="M9.333 2.667h13.333v14c0-2.227-4.44-3.333-6.667-3.333s-6.667 1.107-6.667 3.333M22.667 0h-13.333c-1.473 0-2.667 1.194-2.667 2.667v0 18.667c0 1.473 1.194 2.667 2.667 2.667h13.333c1.473 0 2.667-1.194 2.667-2.667v0-18.667c0-1.473-1.194-2.667-2.667-2.667v0M16 10.667c1.473 0 2.667-1.194 2.667-2.667v0c0-1.473-1.194-2.667-2.667-2.667v0c-1.473 0-2.667 1.194-2.667 2.667v0c0 1.473 1.194 2.667 2.667 2.667v0M18.667 26.667v2.667h6.667v-2.667M13.333 26.667h-6.667v2.667h6.667v2.667l4-4-4-4v2.667z"></path>
</svg>
