<!-- Generated by IcoMoon.io -->
<svg version="1.1" xmlns="http://www.w3.org/2000/svg" width="32" height="32" viewBox="0 0 32 32">
<title>candycane</title>
<path d="M13.333 13.333c0 1.473-1.194 2.667-2.667 2.667v0c-1.473 0-2.667-1.194-2.667-2.667v0-2.667c0-0.84 0.133-1.64 0.36-2.4l4.973 4.973v0.093M16 2.667c0.987 0 1.92 0.173 2.787 0.507l-2.827 4.827c-1.107 0-2.040 0.667-2.427 1.667l-3.88-3.88c1.479-1.905 3.77-3.12 6.344-3.12 0.001 0 0.002 0 0.002 0h-0M23.68 8.413l-5.013 5.013v-2.76c0-0.507-0.133-0.973-0.373-1.373l2.813-4.787c1.204 1 2.102 2.33 2.559 3.85l0.015 0.056M24 17.453l-5.333 5.333v-5.587l5.333-5.333v5.587M24 26.667c0 1.473-1.194 2.667-2.667 2.667v0c-1.473 0-2.667-1.194-2.667-2.667v-0.12l5.333-5.333v5.453z"></path>
</svg>
