<!-- Generated by IcoMoon.io -->
<svg version="1.1" xmlns="http://www.w3.org/2000/svg" width="32" height="32" viewBox="0 0 32 32">
<title>candle</title>
<path d="M16.667 2.667c-2.213 0-4 4.453-4 6.667 0 2.209 1.791 4 4 4v0c2.209 0 4-1.791 4-4v0c0-2.213-1.787-6.667-4-6.667M16.667 8.667c0.736 0 1.333 0.597 1.333 1.333v0c0 0.736-0.597 1.333-1.333 1.333v0c-0.736 0-1.333-0.597-1.333-1.333v0c0-0.736 0.597-1.333 1.333-1.333v0M13.333 14.667c-0.736 0-1.333 0.597-1.333 1.333v0 10.667h-2.667c-0.736 0-1.333-0.597-1.333-1.333v0-1.333c0-0.736-0.597-1.333-1.333-1.333v0c-0.736 0-1.333 0.597-1.333 1.333v0 1.333c0 2.209 1.791 4 4 4v0h16c0.736 0 1.333-0.597 1.333-1.333v0c0-0.736-0.597-1.333-1.333-1.333h-4v-10.667c0-0.736-0.597-1.333-1.333-1.333v0h-6.667z"></path>
</svg>
