<!-- Generated by IcoMoon.io -->
<svg version="1.1" xmlns="http://www.w3.org/2000/svg" width="32" height="32" viewBox="0 0 32 32">
<title>cards-outline</title>
<path d="M14.92 3c-0.347 0-0.693 0.080-1.027 0.2l-9.813 4.067c-0.977 0.408-1.651 1.355-1.651 2.46 0 0.363 0.073 0.709 0.204 1.024l-0.006-0.018 6.613 15.933c0.399 0.968 1.324 1.642 2.41 1.667l0.003 0c0.347 0 0.707-0.040 1.053-0.2l9.827-4.067c0.949-0.41 1.607-1.324 1.64-2.396l0-0.004c0.013-0.333-0.053-0.72-0.173-1.067l-6.667-15.933c-0.385-0.978-1.319-1.659-2.412-1.667h-0.001M19.56 3l4.6 11.133v-8.467c0-1.473-1.194-2.667-2.667-2.667v0M26.84 5.053v12.040l3.24-7.813c0.126-0.298 0.199-0.645 0.199-1.009 0-1.105-0.675-2.052-1.635-2.451l-0.018-0.006M14.92 5.627l6.64 16.027-9.853 4.080-6.64-16.013"></path>
</svg>
