<!-- Generated by IcoMoon.io -->
<svg version="1.1" xmlns="http://www.w3.org/2000/svg" width="32" height="32" viewBox="0 0 32 32">
<title>cards</title>
<path d="M28.627 5.8l-1.787-0.747v12.040l3.24-7.813c0.547-1.36-0.080-2.92-1.453-3.48M2.627 10.733l6.613 15.933c0.398 0.971 1.323 1.649 2.41 1.68l0.004 0c0.347 0 0.707-0.067 1.053-0.213l9.827-4.067c1-0.413 1.613-1.4 1.64-2.387 0.013-0.347-0.053-0.733-0.173-1.080l-6.667-15.933c-0.385-0.978-1.319-1.659-2.412-1.667h-0.001c-0.347 0-0.693 0.080-1.027 0.2l-9.813 4.067c-0.977 0.408-1.651 1.355-1.651 2.46 0 0.363 0.073 0.709 0.204 1.024l-0.006-0.018M24.16 5.667c0-1.473-1.194-2.667-2.667-2.667v0h-1.933l4.6 11.12"></path>
</svg>
