<!-- Generated by IcoMoon.io -->
<svg version="1.1" xmlns="http://www.w3.org/2000/svg" width="32" height="32" viewBox="0 0 32 32">
<title>cart-off</title>
<path d="M30.307 30.307l-28.613-28.613-1.693 1.693 5.853 5.853 2.947 6.213-1.8 3.267c-0.213 0.373-0.333 0.813-0.333 1.28 0 1.473 1.194 2.667 2.667 2.667h9.947l1.84 1.84c-0.667 0.48-1.12 1.267-1.12 2.16 0 1.473 1.194 2.667 2.667 2.667v0c0.893 0 1.68-0.44 2.16-1.12l3.787 3.787 1.693-1.693M9.893 20c-0.184 0-0.333-0.149-0.333-0.333v0l0.040-0.16 1.2-2.173h3.147l2.667 2.667h-6.72M20.733 17.333c1 0 1.88-0.547 2.333-1.373l4.773-8.627c0.107-0.213 0.16-0.44 0.16-0.667 0-0.736-0.597-1.333-1.333-1.333v0h-17.947l12.013 12M9.333 24c-1.473 0-2.667 1.194-2.667 2.667v0c0 1.473 1.194 2.667 2.667 2.667v0c1.473 0 2.667-1.194 2.667-2.667v0c0-1.473-1.194-2.667-2.667-2.667v0z"></path>
</svg>
