<!-- Generated by IcoMoon.io -->
<svg version="1.1" xmlns="http://www.w3.org/2000/svg" width="32" height="32" viewBox="0 0 32 32">
<title>cart</title>
<path d="M22.667 24c-1.48 0-2.667 1.187-2.667 2.667 0 1.473 1.194 2.667 2.667 2.667v0c1.473 0 2.667-1.194 2.667-2.667v0c0-1.473-1.194-2.667-2.667-2.667v0M1.333 2.667v2.667h2.667l4.8 10.12-1.813 3.267c-0.2 0.373-0.32 0.813-0.32 1.28 0 1.473 1.194 2.667 2.667 2.667h16v-2.667h-15.44c-0.184 0-0.333-0.149-0.333-0.333v0c0-0.067 0.013-0.12 0.040-0.16l1.2-2.173h9.933c1 0 1.88-0.56 2.333-1.373l4.773-8.627c0.093-0.213 0.16-0.44 0.16-0.667 0-0.736-0.597-1.333-1.333-1.333v0h-19.72l-1.253-2.667M9.333 24c-1.48 0-2.667 1.187-2.667 2.667 0 1.473 1.194 2.667 2.667 2.667v0c1.473 0 2.667-1.194 2.667-2.667v0c0-1.473-1.194-2.667-2.667-2.667v0z"></path>
</svg>
