<!-- Generated by IcoMoon.io -->
<svg version="1.1" xmlns="http://www.w3.org/2000/svg" width="32" height="32" viewBox="0 0 32 32">
<title>cash-usd</title>
<path d="M26.667 24h-21.333v-16h21.333M26.667 5.333h-21.333c-1.48 0-2.667 1.187-2.667 2.667v16c0 1.473 1.194 2.667 2.667 2.667h21.333c1.473 0 2.667-1.194 2.667-2.667v0-16c0-1.473-1.194-2.667-2.667-2.667v0M14.667 22.667h2.667v-1.333h1.333c0.736 0 1.333-0.597 1.333-1.333v0-4c0-0.736-0.597-1.333-1.333-1.333v0h-4v-1.333h5.333v-2.667h-2.667v-1.333h-2.667v1.333h-1.333c-0.736 0-1.333 0.597-1.333 1.333v0 4c0 0.736 0.597 1.333 1.333 1.333v0h4v1.333h-5.333v2.667h2.667v1.333z"></path>
</svg>
