<!-- Generated by IcoMoon.io -->
<svg version="1.1" xmlns="http://www.w3.org/2000/svg" width="32" height="32" viewBox="0 0 32 32">
<title>cash-multiple</title>
<path d="M6.667 8h24v16h-24v-16M18.667 12c2.209 0 4 1.791 4 4v0c0 2.209-1.791 4-4 4v0c-2.209 0-4-1.791-4-4v0c0-2.209 1.791-4 4-4v0M12 10.667c0 1.473-1.194 2.667-2.667 2.667v0 5.333c1.473 0 2.667 1.194 2.667 2.667v0h13.333c0-1.473 1.194-2.667 2.667-2.667v0-5.333c-1.473 0-2.667-1.194-2.667-2.667v0h-13.333M1.333 13.333h2.667v13.333h21.333v2.667h-24v-16z"></path>
</svg>
