<!-- Generated by IcoMoon.io -->
<svg version="1.1" xmlns="http://www.w3.org/2000/svg" width="32" height="32" viewBox="0 0 32 32">
<title>cast-connected</title>
<path d="M28 4h-24c-1.48 0-2.667 1.187-2.667 2.667v4h2.667v-4h24v18.667h-9.333v2.667h9.333c1.473 0 2.667-1.194 2.667-2.667v0-18.667c0-1.473-1.194-2.667-2.667-2.667v0M1.333 13.333v2.667c6.627 0 12 5.373 12 12v0h2.667c0-8.107-6.573-14.667-14.667-14.667M25.333 9.333h-18.667v2.173c5.28 1.707 9.453 5.88 11.16 11.16h7.507M1.333 18.667v2.667c3.682 0 6.667 2.985 6.667 6.667v0h2.667c0-5.155-4.179-9.333-9.333-9.333v0M1.333 24v4h4c0-2.209-1.791-4-4-4v0z"></path>
</svg>
