<!-- Generated by IcoMoon.io -->
<svg version="1.1" xmlns="http://www.w3.org/2000/svg" width="32" height="32" viewBox="0 0 32 32">
<title>cellphone-basic</title>
<path d="M20 2.667c-0.736 0-1.333 0.597-1.333 1.333v0 4h-5.333c-1.48 0-2.667 1.187-2.667 2.667v16c0 1.48 1.187 2.667 2.667 2.667h6.667c1.48 0 2.667-1.187 2.667-2.667v-16c0-0.987-0.533-1.84-1.333-2.293v-4.373c0-0.736-0.597-1.333-1.333-1.333v0M13.333 10.667h6.667v6.667h-6.667v-6.667M13.333 20h1.333v1.333h-1.333v-1.333M16 20h1.333v1.333h-1.333v-1.333M18.667 20h1.333v1.333h-1.333v-1.333M13.333 22.667h1.333v1.333h-1.333v-1.333M16 22.667h1.333v1.333h-1.333v-1.333M18.667 22.667h1.333v1.333h-1.333v-1.333M13.333 25.333h1.333v1.333h-1.333v-1.333M16 25.333h1.333v1.333h-1.333v-1.333M18.667 25.333h1.333v1.333h-1.333v-1.333z"></path>
</svg>
