<!-- Generated by IcoMoon.io -->
<svg version="1.1" xmlns="http://www.w3.org/2000/svg" width="32" height="32" viewBox="0 0 32 32">
<title>cellphone-link-off</title>
<path d="M30.667 10.667h-8c-0.736 0-1.333 0.597-1.333 1.333v5.573l2.667 2.667v-6.907h5.333v9.333h-2.907l4 4h0.24c0.736 0 1.333-0.597 1.333-1.333v0-13.333c0-0.736-0.597-1.333-1.333-1.333v0M5.333 8.36l14.307 14.307h-14.307v-14.307M2.56 2.2l-1.693 1.693 2.427 2.427c-0.389 0.443-0.627 1.028-0.627 1.668 0 0.004 0 0.008 0 0.013v-0.001 14.667h-2.667v4h23.64l3.133 3.133 1.693-1.693-25.907-25.907M29.333 8v-2.667h-20.24l2.667 2.667h17.573z"></path>
</svg>
