<!-- Generated by IcoMoon.io -->
<svg version="1.1" xmlns="http://www.w3.org/2000/svg" width="32" height="32" viewBox="0 0 32 32">
<title>certificate</title>
<path d="M5.333 4c-1.48 0-2.667 1.187-2.667 2.667v13.333c0 1.473 1.194 2.667 2.667 2.667h10.667v6.667l4-4 4 4v-6.667h2.667c1.473 0 2.667-1.194 2.667-2.667v0-13.333c0-1.473-1.194-2.667-2.667-2.667h-21.333M16 6.667l4 2.667 4-2.667v4.667l4 2-4 2v4.667l-4-2.667-4 2.667v-4.667l-4-2 4-2v-4.667M5.333 6.667h6.667v2.667h-6.667v-2.667M5.333 12h4v2.667h-4v-2.667M5.333 17.333h6.667v2.667h-6.667v-2.667z"></path>
</svg>
