<!-- Generated by IcoMoon.io -->
<svg version="1.1" xmlns="http://www.w3.org/2000/svg" width="32" height="32" viewBox="0 0 32 32">
<title>chart-bubble</title>
<path d="M9.6 14.933c2.36 0 4.267 1.907 4.267 4.267s-1.907 4.267-4.267 4.267c-2.36 0-4.267-1.907-4.267-4.267s1.907-4.267 4.267-4.267M19.733 21.333c1.473 0 2.667 1.194 2.667 2.667v0c0 1.473-1.194 2.667-2.667 2.667v0c-1.473 0-2.667-1.194-2.667-2.667v0c0-1.473 1.194-2.667 2.667-2.667v0M20.267 5.333c3.535 0 6.4 2.865 6.4 6.4v0c0 3.533-2.867 6.4-6.4 6.4-3.535 0-6.4-2.865-6.4-6.4v0c0-3.533 2.867-6.4 6.4-6.4z"></path>
</svg>
