<!-- Generated by IcoMoon.io -->
<svg version="1.1" xmlns="http://www.w3.org/2000/svg" width="32" height="32" viewBox="0 0 32 32">
<title>chart-arc</title>
<path d="M21.573 26.133l-2.68-4.64c1.307-0.96 2.213-2.453 2.4-4.16h5.373c-0.237 3.68-2.186 6.859-5.052 8.774l-0.041 0.026M17.333 9.373v-5.373c5.733 0.347 10.32 4.933 10.667 10.667h-5.373c-0.316-2.787-2.506-4.978-5.266-5.291l-0.027-0.003M9.333 16.667c0 0.853 0.173 1.667 0.507 2.4l-4.64 2.68c-0.757-1.47-1.2-3.209-1.2-5.050 0-0.010 0-0.021 0-0.031v0.002c0-6.040 4.72-10.973 10.667-11.333v5.373c-3 0.333-5.333 2.867-5.333 5.96M15.333 28c-3.96 0-7.44-2-9.467-5.093l4.64-2.68c1.097 1.486 2.842 2.44 4.809 2.44 0.006 0 0.012 0 0.018-0h-0.001c0.853 0 1.667-0.173 2.4-0.507l2.68 4.64c-1.533 0.773-3.253 1.2-5.080 1.2z"></path>
</svg>
