<!-- Generated by IcoMoon.io -->
<svg version="1.1" xmlns="http://www.w3.org/2000/svg" width="32" height="32" viewBox="0 0 32 32">
<title>checkbox-multiple-marked-outline</title>
<path d="M26.667 21.333v-8h2.667v8c0 1.473-1.194 2.667-2.667 2.667h-16c-1.473 0-2.667-1.194-2.667-2.667v0-16c0-1.48 1.187-2.667 2.667-2.667h10.667v2.667h-10.667v16h16M14.547 9.44l4.12 4.12 8.787-8.787 1.88 1.893-10.667 10.667-6-6 1.88-1.893M21.333 26.667v2.667h-16c-1.473 0-2.667-1.194-2.667-2.667v-17.333h2.667v17.333h16z"></path>
</svg>
