<!-- Generated by IcoMoon.io -->
<svg version="1.1" xmlns="http://www.w3.org/2000/svg" width="32" height="32" viewBox="0 0 32 32">
<title>checkbox-marked-circle-outline</title>
<path d="M26.667 16c0 5.891-4.776 10.667-10.667 10.667v0c-5.891 0-10.667-4.776-10.667-10.667v0c0-5.891 4.776-10.667 10.667-10.667v0c1.013 0 2 0.147 2.933 0.413l2.093-2.093c-1.474-0.624-3.188-0.987-4.987-0.987-0.014 0-0.028 0-0.042 0h0.002c-7.364 0-13.333 5.97-13.333 13.333v0c0 7.364 5.97 13.333 13.333 13.333v0c7.364 0 13.333-5.97 13.333-13.333v0M10.547 13.44l-1.88 1.893 6 6 13.333-13.333-1.88-1.893-11.453 11.453-4.12-4.12z"></path>
</svg>
