<!-- Generated by IcoMoon.io -->
<svg version="1.1" xmlns="http://www.w3.org/2000/svg" width="32" height="32" viewBox="0 0 32 32">
<title>clipboard-outline</title>
<path d="M9.333 10.667v-2.667h-2.667v17.333h18.667v-17.333h-2.667v2.667h-13.333M12 5.333c0-2.209 1.791-4 4-4v0c2.209 0 4 1.791 4 4v0h5.333c1.473 0 2.667 1.194 2.667 2.667v0 17.333c0 1.473-1.194 2.667-2.667 2.667v0h-18.667c-1.473 0-2.667-1.194-2.667-2.667v0-17.333c0-1.473 1.194-2.667 2.667-2.667v0h5.333M16 4c-0.736 0-1.333 0.597-1.333 1.333v0c0 0.736 0.597 1.333 1.333 1.333v0c0.736 0 1.333-0.597 1.333-1.333v0c0-0.736-0.597-1.333-1.333-1.333v0z"></path>
</svg>
