<!-- Generated by IcoMoon.io -->
<svg version="1.1" xmlns="http://www.w3.org/2000/svg" width="32" height="32" viewBox="0 0 32 32">
<title>clipboard-text</title>
<path d="M22.667 12h-13.333v-2.667h13.333M22.667 17.333h-13.333v-2.667h13.333M18.667 22.667h-9.333v-2.667h9.333M16 4c0.736 0 1.333 0.597 1.333 1.333v0c0 0.736-0.597 1.333-1.333 1.333v0c-0.736 0-1.333-0.597-1.333-1.333v0c0-0.736 0.597-1.333 1.333-1.333v0M25.333 4h-5.573c-0.56-1.547-2.027-2.667-3.76-2.667s-3.2 1.12-3.76 2.667h-5.573c-1.473 0-2.667 1.194-2.667 2.667v0 18.667c0 1.473 1.194 2.667 2.667 2.667v0h18.667c1.473 0 2.667-1.194 2.667-2.667v0-18.667c0-1.473-1.194-2.667-2.667-2.667v0z"></path>
</svg>
