<!-- Generated by IcoMoon.io -->
<svg version="1.1" xmlns="http://www.w3.org/2000/svg" width="32" height="32" viewBox="0 0 32 32">
<title>clipboard-flow</title>
<path d="M25.333 5.333h-5.573c-0.76-2.080-3.053-3.147-5.093-2.4-1.147 0.4-2 1.28-2.427 2.4h-5.573c-1.473 0-2.667 1.194-2.667 2.667v0 18.667c0 1.473 1.194 2.667 2.667 2.667v0h18.667c1.473 0 2.667-1.194 2.667-2.667v-18.667c0-1.473-1.194-2.667-2.667-2.667v0M16 5.333c0.736 0 1.333 0.597 1.333 1.333v0c0 0.736-0.597 1.333-1.333 1.333v0c-0.736 0-1.333-0.597-1.333-1.333v0c0-0.736 0.597-1.333 1.333-1.333v0M13.333 22.667h-2.667v-9.333h-4l5.333-5.333 5.333 5.333h-4v9.333M20 26.667l-5.333-5.333h4v-9.333h2.667v9.333h4l-5.333 5.333z"></path>
</svg>
