<!-- Generated by IcoMoon.io -->
<svg version="1.1" xmlns="http://www.w3.org/2000/svg" width="32" height="32" viewBox="0 0 32 32">
<title>clock-alert</title>
<path d="M16 2.667c-7.373 0-13.333 6-13.333 13.333 0 7.364 5.97 13.333 13.333 13.333v0c3 0 5.773-1.013 8-2.667v-3.627c-1.96 2.213-4.813 3.627-8 3.627-5.891 0-10.667-4.776-10.667-10.667v0c0-5.891 4.776-10.667 10.667-10.667v0c4.48 0 8.307 2.76 9.88 6.667h2.84c-1.693-5.413-6.72-9.333-12.72-9.333M14.667 9.333v8l7 4.2 1-1.64-6-3.56v-7h-2M26.667 14.667v9.333h2.667v-9.333h-2.667M26.667 26.667v2.667h2.667v-2.667h-2.667z"></path>
</svg>
