<!-- Generated by IcoMoon.io -->
<svg version="1.1" xmlns="http://www.w3.org/2000/svg" width="32" height="32" viewBox="0 0 32 32">
<title>clock-end</title>
<path d="M16 1.333c-5.147 0-9.333 4.187-9.333 9.333 0 5.155 4.179 9.333 9.333 9.333v0c5.147 0 9.333-4.173 9.333-9.333 0-5.147-4.187-9.333-9.333-9.333M16 4.2c3.56 0 6.467 2.893 6.467 6.467s-2.907 6.467-6.467 6.467c-3.571 0-6.467-2.895-6.467-6.467v0c0-3.571 2.895-6.467 6.467-6.467v0M14.667 6.667v4.92l4.253 2.453 1-1.733-3.253-1.88v-3.76M20 21.333v4h-16v2.667h16v4l5.333-5.333M25.333 26.667v5.333h2.667v-10.667h-2.667"></path>
</svg>
