<!-- Generated by IcoMoon.io -->
<svg version="1.1" xmlns="http://www.w3.org/2000/svg" width="32" height="32" viewBox="0 0 32 32">
<title>clock-fast</title>
<path d="M20 5.333c5.891 0 10.667 4.776 10.667 10.667v0c0 5.891-4.776 10.667-10.667 10.667v0c-5.891 0-10.667-4.776-10.667-10.667v0c0-5.891 4.776-10.667 10.667-10.667v0M20 8c-4.418 0-8 3.582-8 8v0c0 4.418 3.582 8 8 8v0c4.418 0 8-3.582 8-8v0c0-4.418-3.582-8-8-8v0M18.667 10.667h2v5.040l3.107 3.107-1.413 1.413-3.693-3.693v-5.867M2.667 24c-0.736 0-1.333-0.597-1.333-1.333v0c0-0.736 0.597-1.333 1.333-1.333h5.107c0.413 0.947 0.947 1.84 1.56 2.667h-6.667M4 17.333c-0.736 0-1.333-0.597-1.333-1.333v0c0-0.736 0.597-1.333 1.333-1.333v0h2.733l-0.067 1.333 0.067 1.333h-2.733M5.333 10.667c-0.736 0-1.333-0.597-1.333-1.333v0c0-0.736 0.597-1.333 1.333-1.333v0h4c-0.613 0.827-1.147 1.72-1.56 2.667h-2.44z"></path>
</svg>
