<!-- Generated by IcoMoon.io -->
<svg version="1.1" xmlns="http://www.w3.org/2000/svg" width="32" height="32" viewBox="0 0 32 32">
<title>cloud-print-outline</title>
<path d="M25.333 21.333c2.209 0 4-1.791 4-4v0c0-2.209-1.791-4-4-4v0h-2v-0.667c0-4.050-3.283-7.333-7.333-7.333v0c-3.333 0-6.173 2.253-7.053 5.333h-0.947c-2.946 0-5.333 2.388-5.333 5.333v0c0 2.946 2.388 5.333 5.333 5.333v0-6.667h16v6.667h1.333M25.813 10.72c3.453 0.24 6.187 3.093 6.187 6.613 0 3.682-2.985 6.667-6.667 6.667v0h-1.333v5.333h-16v-5.333c-4.418 0-8-3.582-8-8v0c0-4.12 3.12-7.52 7.133-7.947 1.701-3.225 5.032-5.386 8.867-5.387h0c4.853 0 8.893 3.467 9.813 8.053M10.667 17.333v9.333h10.667v-9.333h-10.667M12 24h8v1.333h-8v-1.333M20 22.667h-8v-1.333h8v1.333M12 18.667h8v1.333h-8v-1.333z"></path>
</svg>
