<!-- Generated by IcoMoon.io -->
<svg version="1.1" xmlns="http://www.w3.org/2000/svg" width="32" height="32" viewBox="0 0 32 32">
<title>cloud-download</title>
<path d="M22.667 17.333l-6.667 6.667-6.667-6.667h4v-5.333h5.333v5.333M25.8 13.373c-0.942-4.616-4.968-8.040-9.795-8.040-0.002 0-0.003 0-0.005 0h0c-3.853 0-7.2 2.187-8.867 5.373-4.030 0.454-7.133 3.844-7.133 7.958 0 0.001 0 0.002 0 0.002v-0c0 4.418 3.582 8 8 8v0h17.333c3.682 0 6.667-2.985 6.667-6.667v0c0-3.52-2.733-6.373-6.2-6.627z"></path>
</svg>
