<!-- Generated by IcoMoon.io -->
<svg version="1.1" xmlns="http://www.w3.org/2000/svg" width="32" height="32" viewBox="0 0 32 32">
<title>codepen</title>
<path d="M25.933 17.72l-2.6-1.72 2.6-1.72M17.027 25.040v-4.813l4.48-2.987 3.6 2.413M16 18.44l-3.653-2.44 3.653-2.44 3.653 2.44M14.973 25.040l-8.080-5.387 3.6-2.413 4.48 2.987M6.067 14.28l2.6 1.72-2.6 1.72M14.973 6.96v4.813l-4.48 2.987-3.6-2.413M17.027 6.96l8.080 5.387-3.6 2.413-4.48-2.987M28 12.213v-0.053c0-0.027 0-0.053-0.040-0.080 0-0.013 0-0.040-0.013-0.080 0 0-0.013 0-0.027-0.053 0-0.013-0.013-0.027-0.027-0.040 0-0.027-0.013-0.053-0.027-0.067-0.013-0.027-0.027-0.040-0.027-0.053-0.013-0.027-0.040-0.040-0.053-0.067-0.013-0.013-0.013-0.027-0.027-0.040 0-0.029-0.024-0.053-0.053-0.053v0l-0.040-0.040c-0.019-0.021-0.041-0.039-0.065-0.053l-0.001-0.001-0.040-0.040c-0.013 0-0.013 0-0.013-0.013l-10.973-7.307c-0.162-0.107-0.36-0.17-0.573-0.17s-0.412 0.063-0.577 0.172l0.004-0.002-10.973 7.307c0 0.013 0 0.013-0.013 0.013l-0.040 0.040c-0.027 0.013-0.040 0.027-0.067 0.053l-0.093 0.093c-0.013 0.013-0.013 0.027-0.027 0.040-0.013 0.027-0.040 0.040-0.053 0.067 0 0.013-0.013 0.027-0.027 0.053-0.013 0.013-0.027 0.040-0.027 0.067-0.013 0.013-0.027 0.027-0.027 0.040-0.013 0.053-0.013 0.053-0.027 0.053-0.013 0.040-0.013 0.067-0.013 0.080-0.040 0.027-0.040 0.053-0.040 0.080v7.68c0 0.027 0 0.053 0.040 0.080 0 0.013 0 0.040 0.013 0.080 0.013 0 0.013 0 0.027 0.053 0 0.013 0.013 0.027 0.027 0.040 0 0.027 0.013 0.053 0.027 0.067 0.013 0.027 0.027 0.040 0.027 0.053 0.013 0.027 0.040 0.040 0.053 0.067 0.013 0.013 0.013 0.027 0.027 0.040 0.027 0.013 0.040 0.040 0.053 0.053l0.040 0.040c0.027 0.027 0.040 0.040 0.067 0.053l0.040 0.040c0.013 0 0.013 0 0.013 0.013l10.973 7.307c0.173 0.12 0.373 0.173 0.573 0.173s0.4-0.053 0.573-0.173l10.973-7.307c0-0.013 0-0.013 0.013-0.013l0.040-0.040c0.027-0.013 0.040-0.027 0.067-0.053l0.040-0.040c0.013-0.013 0.027-0.040 0.053-0.053 0.013-0.013 0.013-0.027 0.027-0.040 0.013-0.027 0.040-0.040 0.053-0.067 0-0.013 0.013-0.027 0.027-0.053 0.013-0.013 0.027-0.040 0.027-0.067 0.013-0.013 0.027-0.027 0.027-0.040 0.013-0.053 0.027-0.053 0.027-0.053 0.013-0.040 0.013-0.067 0.013-0.080 0.040-0.027 0.040-0.053 0.040-0.080v-7.627z"></path>
</svg>
