<!-- Generated by IcoMoon.io -->
<svg version="1.1" xmlns="http://www.w3.org/2000/svg" width="32" height="32" viewBox="0 0 32 32">
<title>code-braces</title>
<path d="M10.667 4c-1.473 0-2.667 1.194-2.667 2.667v0 5.333c0 1.473-1.194 2.667-2.667 2.667h-1.333v2.667h1.333c1.473 0 2.667 1.194 2.667 2.667v0 5.333c0 1.473 1.194 2.667 2.667 2.667h2.667v-2.667h-2.667v-6.667c0-1.473-1.194-2.667-2.667-2.667v0c1.473 0 2.667-1.194 2.667-2.667v0-6.667h2.667v-2.667M21.333 4c1.473 0 2.667 1.194 2.667 2.667v0 5.333c0 1.473 1.194 2.667 2.667 2.667v0h1.333v2.667h-1.333c-1.473 0-2.667 1.194-2.667 2.667v0 5.333c0 1.473-1.194 2.667-2.667 2.667v0h-2.667v-2.667h2.667v-6.667c0-1.473 1.194-2.667 2.667-2.667v0c-1.473 0-2.667-1.194-2.667-2.667v0-6.667h-2.667v-2.667h2.667z"></path>
</svg>
