<!-- Generated by IcoMoon.io -->
<svg version="1.1" xmlns="http://www.w3.org/2000/svg" width="32" height="32" viewBox="0 0 32 32">
<title>coffee-outline</title>
<path d="M2.667 28v-2.667h24v2.667h-24M26.667 10.667v-4h-2.667v4h2.667M26.667 4c1.473 0 2.667 1.194 2.667 2.667v0 4c0 1.473-1.194 2.667-2.667 2.667h-2.667v4c0 2.946-2.388 5.333-5.333 5.333v0h-8c-2.946 0-5.333-2.388-5.333-5.333v0-13.333h21.333M21.333 6.667h-13.333v10.667c0 1.473 1.194 2.667 2.667 2.667v0h8c1.473 0 2.667-1.194 2.667-2.667v0-10.667z"></path>
</svg>
