<!-- Generated by IcoMoon.io -->
<svg version="1.1" xmlns="http://www.w3.org/2000/svg" width="32" height="32" viewBox="0 0 32 32">
<title>coin</title>
<path d="M16 2.667c7.364 0 13.333 5.97 13.333 13.333v0c0 7.364-5.97 13.333-13.333 13.333v0c-7.364 0-13.333-5.97-13.333-13.333v0c0-7.364 5.97-13.333 13.333-13.333v0M16 5.333c-5.891 0-10.667 4.776-10.667 10.667v0c0 5.891 4.776 10.667 10.667 10.667v0c5.891 0 10.667-4.776 10.667-10.667v0c0-5.891-4.776-10.667-10.667-10.667v0M14.667 22.667v-1.333h-2.667v-2.667h5.333v-1.333h-4c-0.736 0-1.333-0.597-1.333-1.333v0-4c0-0.736 0.597-1.333 1.333-1.333v0h1.333v-1.333h2.667v1.333h2.667v2.667h-5.333v1.333h4c0.736 0 1.333 0.597 1.333 1.333v4c0 0.736-0.597 1.333-1.333 1.333v0h-1.333v1.333h-2.667z"></path>
</svg>
