<!-- Generated by IcoMoon.io -->
<svg version="1.1" xmlns="http://www.w3.org/2000/svg" width="32" height="32" viewBox="0 0 32 32">
<title>coins</title>
<path d="M20 5.333c5.891 0 10.667 4.776 10.667 10.667v0c0 5.891-4.776 10.667-10.667 10.667v0c-5.891 0-10.667-4.776-10.667-10.667v0c0-5.891 4.776-10.667 10.667-10.667v0M20 24c4.418 0 8-3.582 8-8v0c0-4.418-3.582-8-8-8v0c-4.418 0-8 3.582-8 8v0c0 4.418 3.582 8 8 8v0M4 16c0 0 0 0 0 0 0 3.46 2.2 6.406 5.278 7.515l0.056 0.018v2.787c-4.6-1.187-8-5.347-8-10.32s3.4-9.133 8-10.32v2.787c-3.107 1.093-5.333 4.053-5.333 7.533z"></path>
</svg>
