<!-- Generated by IcoMoon.io -->
<svg version="1.1" xmlns="http://www.w3.org/2000/svg" width="32" height="32" viewBox="0 0 32 32">
<title>compass</title>
<path d="M18.92 18.92l-10.92 5.080 5.080-10.92 10.92-5.080M16 2.667c-7.364 0-13.333 5.97-13.333 13.333v0c0 7.364 5.97 13.333 13.333 13.333v0c7.364 0 13.333-5.97 13.333-13.333v0c0-7.364-5.97-13.333-13.333-13.333v0M16 14.533c-0.81 0-1.467 0.657-1.467 1.467v0c0 0.81 0.657 1.467 1.467 1.467v0c0.81 0 1.467-0.657 1.467-1.467v0c0-0.81-0.657-1.467-1.467-1.467v0z"></path>
</svg>
