<!-- Generated by IcoMoon.io -->
<svg version="1.1" xmlns="http://www.w3.org/2000/svg" width="32" height="32" viewBox="0 0 32 32">
<title>console</title>
<path d="M26.667 25.333v-16h-21.333v16h21.333M26.667 4c1.473 0 2.667 1.194 2.667 2.667v0 18.667c0 1.473-1.194 2.667-2.667 2.667h-21.333c-1.473 0-2.667-1.194-2.667-2.667v0-18.667c0-1.473 1.194-2.667 2.667-2.667h21.333M17.333 22.667v-2.667h6.667v2.667h-6.667M12.773 17.333l-5.347-5.333h3.773l4.4 4.4c0.52 0.52 0.52 1.373 0 1.893l-4.373 4.373h-3.773l5.32-5.333z"></path>
</svg>
