<!-- Generated by IcoMoon.io -->
<svg version="1.1" xmlns="http://www.w3.org/2000/svg" width="32" height="32" viewBox="0 0 32 32">
<title>content-paste</title>
<path d="M25.333 26.667h-18.667v-21.333h2.667v4h13.333v-4h2.667M16 2.667c0.736 0 1.333 0.597 1.333 1.333v0c0 0.736-0.597 1.333-1.333 1.333v0c-0.736 0-1.333-0.597-1.333-1.333v0c0-0.736 0.597-1.333 1.333-1.333v0M25.333 2.667h-5.573c-0.56-1.547-2.027-2.667-3.76-2.667s-3.2 1.12-3.76 2.667h-5.573c-1.473 0-2.667 1.194-2.667 2.667v21.333c0 1.473 1.194 2.667 2.667 2.667v0h18.667c1.473 0 2.667-1.194 2.667-2.667v-21.333c0-1.473-1.194-2.667-2.667-2.667v0z"></path>
</svg>
