<!-- Generated by IcoMoon.io -->
<svg version="1.1" xmlns="http://www.w3.org/2000/svg" width="32" height="32" viewBox="0 0 32 32">
<title>contrast-circle</title>
<path d="M16 26.667c-2.947 0-5.613-1.2-7.547-3.12l15.093-15.093c1.928 1.933 3.12 4.6 3.12 7.546 0 0 0 0 0 0.001v-0c0 5.891-4.776 10.667-10.667 10.667v0M8 10.667h2.667v-2.667h2v2.667h2.667v2h-2.667v2.667h-2v-2.667h-2.667M16 2.667c-7.364 0-13.333 5.97-13.333 13.333v0c0 7.364 5.97 13.333 13.333 13.333v0c7.364 0 13.333-5.97 13.333-13.333v0c0-7.364-5.97-13.333-13.333-13.333v0M16 21.333h6.667v-2h-6.667v2z"></path>
</svg>
