<!-- Generated by IcoMoon.io -->
<svg version="1.1" xmlns="http://www.w3.org/2000/svg" width="32" height="32" viewBox="0 0 32 32">
<title>content-cut</title>
<path d="M25.333 4l-8 8 2.667 2.667 9.333-9.333v-1.333M16 16.667c-0.368 0-0.667-0.298-0.667-0.667v0c0-0.368 0.298-0.667 0.667-0.667v0c0.368 0 0.667 0.298 0.667 0.667v0c0 0.368-0.298 0.667-0.667 0.667v0M8 26.667c-1.473 0-2.667-1.194-2.667-2.667v0c0-1.473 1.194-2.667 2.667-2.667v0c1.473 0 2.667 1.194 2.667 2.667v0c0 1.473-1.194 2.667-2.667 2.667v0M8 10.667c-1.473 0-2.667-1.194-2.667-2.667v0c0-1.473 1.194-2.667 2.667-2.667v0c1.473 0 2.667 1.194 2.667 2.667v0c0 1.473-1.194 2.667-2.667 2.667v0M12.853 10.187c0.307-0.667 0.48-1.4 0.48-2.187 0-2.946-2.388-5.333-5.333-5.333v0c-2.946 0-5.333 2.388-5.333 5.333v0c0 2.946 2.388 5.333 5.333 5.333v0c0.787 0 1.52-0.173 2.187-0.48l3.147 3.147-3.147 3.147c-0.667-0.307-1.4-0.48-2.187-0.48-2.946 0-5.333 2.388-5.333 5.333v0c0 2.946 2.388 5.333 5.333 5.333v0c2.946 0 5.333-2.388 5.333-5.333v0c0-0.787-0.173-1.52-0.48-2.187l3.147-3.147 9.333 9.333h4v-1.333l-16.48-16.48z"></path>
</svg>
