<!-- Generated by IcoMoon.io -->
<svg version="1.1" xmlns="http://www.w3.org/2000/svg" width="32" height="32" viewBox="0 0 32 32">
<title>content-save-all</title>
<path d="M22.667 9.333v-5.333h-13.333v5.333h13.333M18.667 22.667c2.209 0 4-1.791 4-4v0c0-2.209-1.791-4-4-4v0c-2.209 0-4 1.791-4 4v0c0 2.209 1.791 4 4 4v0M25.333 1.333l5.333 5.333v16c0 1.473-1.194 2.667-2.667 2.667v0h-18.667c-1.473 0-2.667-1.194-2.667-2.667v-18.667c0-1.473 1.194-2.667 2.667-2.667h16M1.333 9.333h2.667v18.667h18.667v2.667h-18.667c-1.473 0-2.667-1.194-2.667-2.667v0-18.667z"></path>
</svg>
