<!-- Generated by IcoMoon.io -->
<svg version="1.1" xmlns="http://www.w3.org/2000/svg" width="32" height="32" viewBox="0 0 32 32">
<title>cookie</title>
<path d="M16 4c-6.627 0-12 5.373-12 12v0c0 6.627 5.373 12 12 12v0c6.627 0 12-5.373 12-12v0c0-0.667-0.053-1.333-0.173-2-0.36-0.667-1.16-0.667-1.16-0.667h-2.667v-1.333c0-1.333-1.333-1.333-1.333-1.333h-2.667v-1.333c0-1.333-1.333-1.333-1.333-1.333h-1.333v-2.667c0-1.333-1.333-1.333-1.333-1.333M12.667 8c1.105 0 2 0.895 2 2v0c0 1.105-0.895 2-2 2v0c-1.105 0-2-0.895-2-2v0c0-1.105 0.895-2 2-2v0M8.667 13.333c1.105 0 2 0.895 2 2v0c0 1.105-0.895 2-2 2v0c-1.105 0-2-0.895-2-2v0c0-1.105 0.895-2 2-2v0M15.333 14.667c1.105 0 2 0.895 2 2v0c0 1.105-0.895 2-2 2v0c-1.105 0-2-0.895-2-2v0c0-1.105 0.895-2 2-2v0M22 17.333c1.105 0 2 0.895 2 2v0c0 1.105-0.895 2-2 2v0c-1.105 0-2-0.895-2-2v0c0-1.105 0.895-2 2-2v0M14.667 21.333c1.105 0 2 0.895 2 2v0c0 1.105-0.895 2-2 2v0c-1.105 0-2-0.895-2-2v0c0-1.105 0.895-2 2-2v0z"></path>
</svg>
