<!-- Generated by IcoMoon.io -->
<svg version="1.1" xmlns="http://www.w3.org/2000/svg" width="32" height="32" viewBox="0 0 32 32">
<title>counter</title>
<path d="M5.333 5.333h21.333c1.473 0 2.667 1.194 2.667 2.667v0 16c0 1.473-1.194 2.667-2.667 2.667h-21.333c-1.473 0-2.667-1.194-2.667-2.667v0-16c0-1.473 1.194-2.667 2.667-2.667v0M5.333 8v16h9.333v-16h-9.333M26.667 24v-16h-1.653c0.32 0.72 0.253 1.427 0.253 1.507-0.093 0.893-0.72 1.827-0.947 2.16l-3.107 3.4 4.427-0.027 0.013 1.627-6.933-0.040-0.053-1.333s4.067-4.307 4.267-4.693c0.187-0.373 0.947-2.6-0.933-2.6-1.64 0.067-1.453 1.733-1.453 1.733l-2.053 0.013s0.013-0.88 0.507-1.747h-1.667v16h3.44l-0.013-1.147 1.293-0.013s1.213-0.213 1.227-1.4c0.053-1.333-1.080-1.333-1.28-1.333-0.173 0-1.427 0.067-1.427 1.16h-2.027s0.053-2.747 3.453-2.747c3.467 0 3.28 2.693 3.28 2.693s0.053 1.667-1.48 2.293l0.693 0.493h2.173M11.893 21.333h-2v-7.733l-2.4 0.747v-1.64l4.187-1.493h0.213v10.12z"></path>
</svg>
