<!-- Generated by IcoMoon.io -->
<svg version="1.1" xmlns="http://www.w3.org/2000/svg" width="32" height="32" viewBox="0 0 32 32">
<title>credit-card-scan</title>
<path d="M2.667 5.333h5.333v-2.667h-5.333c-1.473 0-2.667 1.194-2.667 2.667v5.333h2.667v-5.333M29.333 2.667h-5.333v2.667h5.333v5.333h2.667v-5.333c0-1.473-1.194-2.667-2.667-2.667v0M2.667 21.333h-2.667v5.333c0 1.473 1.194 2.667 2.667 2.667v0h5.333v-2.667h-5.333v-5.333M29.333 26.667h-5.333v2.667h5.333c1.473 0 2.667-1.194 2.667-2.667v-5.333h-2.667v5.333M5.333 10.667v10.667c0 1.473 1.194 2.667 2.667 2.667h16c1.473 0 2.667-1.194 2.667-2.667v0-10.667c0-1.473-1.194-2.667-2.667-2.667v0h-16c-1.473 0-2.667 1.194-2.667 2.667v0M8 21.333v-5.333h16v5.333h-16M24 10.667v2.667h-16v-2.667h16z"></path>
</svg>
