<!-- Generated by IcoMoon.io -->
<svg version="1.1" xmlns="http://www.w3.org/2000/svg" width="32" height="32" viewBox="0 0 32 32">
<title>crosshairs-gps</title>
<path d="M16 10.667c2.946 0 5.333 2.388 5.333 5.333v0c0 2.946-2.388 5.333-5.333 5.333v0c-2.946 0-5.333-2.388-5.333-5.333v0c0-2.946 2.388-5.333 5.333-5.333v0M4.067 17.333h-2.733v-2.667h2.733c0.6-5.56 5.040-10 10.6-10.6v-2.733h2.667v2.733c5.56 0.6 10 5.040 10.6 10.6h2.733v2.667h-2.733c-0.6 5.56-5.040 10-10.6 10.6v2.733h-2.667v-2.733c-5.56-0.6-10-5.040-10.6-10.6M16 6.667c-5.155 0-9.333 4.179-9.333 9.333v0c0 5.155 4.179 9.333 9.333 9.333v0c5.155 0 9.333-4.179 9.333-9.333v0c0-5.155-4.179-9.333-9.333-9.333v0z"></path>
</svg>
