<!-- Generated by IcoMoon.io -->
<svg version="1.1" xmlns="http://www.w3.org/2000/svg" width="32" height="32" viewBox="0 0 32 32">
<title>currency-eur</title>
<path d="M9.427 14.667l-0.093 1.333 0.093 1.333h13.707l-1.133 2.667h-11.773c1.507 3.147 4.72 5.333 8.44 5.333 2.973 0 5.627-1.387 7.333-3.56v3.72c-1.99 1.563-4.531 2.507-7.293 2.507-0.014 0-0.028-0-0.042-0h0.002c-5.227 0-9.667-3.333-11.333-8h-4.667l1.333-2.667h2.733l-0.067-1.333 0.067-1.333h-4.067l1.333-2.667h3.333c1.667-4.667 6.107-8 11.333-8 3.333 0 6.4 1.387 8.573 3.613l-1.147 2.72c-1.724-2.239-4.405-3.667-7.42-3.667-0.002 0-0.005 0-0.007 0h0c-3.72 0-6.933 2.187-8.44 5.333h15.16l-1.133 2.667h-14.827z"></path>
</svg>
