<!-- Generated by IcoMoon.io -->
<svg version="1.1" xmlns="http://www.w3.org/2000/svg" width="32" height="32" viewBox="0 0 32 32">
<title>currency-gbp</title>
<path d="M8.667 28v-1.667c1.253-0.613 2.32-1.573 3.080-2.733s1.147-2.467 1.16-3.933l-0.027-1.307-0.12-1.027h-3.427v-2.667h3.2c-0.202-1.086-0.332-2.351-0.36-3.641l-0-0.026c0.040-2.187 0.68-3.893 1.933-5.12 1.227-1.213 2.92-1.88 4.987-1.88 0.947 0 1.76 0.093 2.413 0.267 0.667 0.16 1.16 0.36 1.573 0.6l-0.733 2.32c-0.347-0.187-0.76-0.36-1.293-0.52-0.547-0.133-1.2-0.2-1.96-0.213-1.427 0.027-2.427 0.467-3.093 1.32-0.667 0.84-0.947 1.933-0.933 3.267l0.133 1.987 0.267 1.64h5.2v2.667h-4.947c0.12 1.333 0.067 2.667-0.187 3.947-0.4 1.6-1.213 2.96-2.427 4.053h10.893v2.667h-15.333z"></path>
</svg>
