<!-- Generated by IcoMoon.io -->
<svg version="1.1" xmlns="http://www.w3.org/2000/svg" width="32" height="32" viewBox="0 0 32 32">
<title>database</title>
<path d="M16 4c-5.893 0-10.667 2.387-10.667 5.333s4.773 5.333 10.667 5.333 10.667-2.387 10.667-5.333-4.773-5.333-10.667-5.333M5.333 12v4c0 2.947 4.773 5.333 10.667 5.333s10.667-2.387 10.667-5.333v-4c0 2.947-4.773 5.333-10.667 5.333s-10.667-2.387-10.667-5.333M5.333 18.667v4c0 2.947 4.773 5.333 10.667 5.333s10.667-2.387 10.667-5.333v-4c0 2.947-4.773 5.333-10.667 5.333s-10.667-2.387-10.667-5.333z"></path>
</svg>
