<!-- Generated by IcoMoon.io -->
<svg version="1.1" xmlns="http://www.w3.org/2000/svg" width="32" height="32" viewBox="0 0 32 32">
<title>decimal-increase</title>
<path d="M29.333 22.667l-4 4v-2.667h-8v-2.667h8v-2.667l4 4M12 6.667c2.209 0 4 1.791 4 4v0 4c0 2.209-1.791 4-4 4v0c-2.209 0-4-1.791-4-4v0-4c0-2.209 1.791-4 4-4v0M12 9.333c-0.736 0-1.333 0.597-1.333 1.333v0 4c0 0.736 0.597 1.333 1.333 1.333v0c0.736 0 1.333-0.597 1.333-1.333v0-4c0-0.736-0.597-1.333-1.333-1.333v0M21.333 6.667c2.209 0 4 1.791 4 4v0 4c0 2.209-1.791 4-4 4v0c-2.209 0-4-1.791-4-4v0-4c0-2.209 1.791-4 4-4v0M21.333 9.333c-0.736 0-1.333 0.597-1.333 1.333v0 4c0 0.736 0.597 1.333 1.333 1.333v0c0.736 0 1.333-0.597 1.333-1.333v0-4c0-0.736-0.597-1.333-1.333-1.333v0M5.333 16c0.736 0 1.333 0.597 1.333 1.333v0c0 0.736-0.597 1.333-1.333 1.333v0c-0.736 0-1.333-0.597-1.333-1.333v0c0-0.736 0.597-1.333 1.333-1.333v0z"></path>
</svg>
