<!-- Generated by IcoMoon.io -->
<svg version="1.1" xmlns="http://www.w3.org/2000/svg" width="32" height="32" viewBox="0 0 32 32">
<title>developer-board</title>
<path d="M29.333 12v-2.667h-2.667v-2.667c0-1.473-1.194-2.667-2.667-2.667v0h-18.667c-1.473 0-2.667 1.194-2.667 2.667v0 18.667c0 1.473 1.194 2.667 2.667 2.667h18.667c1.473 0 2.667-1.194 2.667-2.667v0-2.667h2.667v-2.667h-2.667v-2.667h2.667v-2.667h-2.667v-2.667h2.667M24 25.333h-18.667v-18.667h18.667v18.667M8 17.333h6.667v5.333h-6.667v-5.333M16 9.333h5.333v4h-5.333v-4M8 9.333h6.667v6.667h-6.667v-6.667M16 14.667h5.333v8h-5.333v-8z"></path>
</svg>
