<!-- Generated by IcoMoon.io -->
<svg version="1.1" xmlns="http://www.w3.org/2000/svg" width="32" height="32" viewBox="0 0 32 32">
<title>dice-d2</title>
<path d="M6.667 4h18.667c1.473 0 2.667 1.194 2.667 2.667v0 18.667c0 1.473-1.194 2.667-2.667 2.667v0h-18.667c-1.473 0-2.667-1.194-2.667-2.667v0-18.667c0-1.473 1.194-2.667 2.667-2.667v0M6.667 6.667v18.667h18.667v-18.667h-18.667M17.853 12.707c-3.333-0.040-3.373 2.667-3.373 2.667s0.733-0.88 2.227-0.88c0.88 0 2.627 0.773 2.693 3.387 0.080 2.747-2.373 3.453-2.373 3.453s-4.667 1.147-4.627-4.453c0.040-6.293 5.453-5.773 5.453-5.773v1.6M15.933 16.133c-0.987-0.133-1.493 0.907-1.493 0.907l0.027 0.96c0 1.027 0.72 1.773 1.533 1.773s1.4-0.747 1.4-1.773-0.653-1.867-1.467-1.867z"></path>
</svg>
