<!-- Generated by IcoMoon.io -->
<svg version="1.1" xmlns="http://www.w3.org/2000/svg" width="32" height="32" viewBox="0 0 32 32">
<title>dice-d1</title>
<path d="M16 30.667c-0.44 0-0.84-0.213-1.093-0.573l-9.333-13.333c-0.15-0.212-0.24-0.475-0.24-0.76s0.090-0.548 0.243-0.764l-0.003 0.004 9.333-13.333c0.493-0.72 1.693-0.72 2.187 0l9.333 13.333c0.32 0.453 0.32 1.067 0 1.52l-9.333 13.333c-0.253 0.36-0.653 0.573-1.093 0.573M8.293 16l7.707 11.013 7.707-11.013-7.707-11.013-7.707 11.013M16 11c1.747 0 3.173 1.267 3.173 2.84 0 0.92-0.507 1.733-1.253 2.253 0.933 0.52 1.547 1.413 1.547 2.44 0 1.627-1.547 2.933-3.467 2.933s-3.467-1.307-3.467-2.933c0-1.027 0.613-1.92 1.547-2.44-0.747-0.52-1.24-1.333-1.24-2.253 0-1.573 1.413-2.84 3.16-2.84M16 16.867c-0.81 0-1.467 0.657-1.467 1.467v0c0 0.81 0.657 1.467 1.467 1.467v0c0.81 0 1.467-0.657 1.467-1.467v0c0-0.81-0.657-1.467-1.467-1.467v0M16 12.667c-0.667 0-1.2 0.6-1.2 1.333s0.533 1.333 1.2 1.333 1.2-0.6 1.2-1.333-0.533-1.333-1.2-1.333z"></path>
</svg>
