<!-- Generated by IcoMoon.io -->
<svg version="1.1" xmlns="http://www.w3.org/2000/svg" width="32" height="32" viewBox="0 0 32 32">
<title>dictionary</title>
<path d="M7.747 2.667c-1.307 0.12-2.413 1.333-2.413 2.667v21.333c0 1.4 1.267 2.667 2.667 2.667h16c1.4 0 2.667-1.267 2.667-2.667v-21.333c0-1.473-1.194-2.667-2.667-2.667v0h-8v9.333l-3.333-2-3.333 2v-9.333h-1.587M16 17.333h1.333c0.736 0 1.333 0.597 1.333 1.333v0 5.333h-1.333v-2.667h-1.333v2.667h-1.333v-5.333c0-0.736 0.597-1.333 1.333-1.333v0M16 18.667v1.333h1.333v-1.333h-1.333M20 20h4v1.333l-2.667 4h2.667v1.333h-4v-1.333l2.667-4h-2.667v-1.333z"></path>
</svg>
