<!-- Generated by IcoMoon.io -->
<svg version="1.1" xmlns="http://www.w3.org/2000/svg" width="32" height="32" viewBox="0 0 32 32">
<title>disk-alert</title>
<path d="M13.333 18.667c-1.473 0-2.667-1.194-2.667-2.667v0c0-1.48 1.187-2.667 2.667-2.667 1.473 0 2.667 1.194 2.667 2.667v0c0 1.473-1.194 2.667-2.667 2.667v0M13.333 5.333c-5.891 0-10.667 4.776-10.667 10.667v0c0 5.891 4.776 10.667 10.667 10.667v0c5.891 0 10.667-4.776 10.667-10.667v0c0-5.891-4.776-10.667-10.667-10.667v0M26.667 16h2.667v-6.667h-2.667M26.667 21.333h2.667v-2.667h-2.667v2.667z"></path>
</svg>
