<!-- Generated by IcoMoon.io -->
<svg version="1.1" xmlns="http://www.w3.org/2000/svg" width="32" height="32" viewBox="0 0 32 32">
<title>disqus-outline</title>
<path d="M15.867 19.333h-1.467v-6.667h1.467c2.133 0 3.6 1.2 3.6 3.333s-1.467 3.333-3.6 3.333M15.867 9.333h-5.067v13.333h4.933c4.667 0 7.467-2.8 7.467-6.667s-2.667-6.667-7.333-6.667M16 26.667c-2.533 0-4.933-0.933-6.8-2.533l-0.933-0.8-2.267 0.267 0.933-2.133-0.4-1.067c-0.667-1.467-0.933-2.933-0.933-4.533 0-5.867 4.8-10.667 10.533-10.667s10.4 4.933 10.4 10.8c0 5.867-4.8 10.667-10.533 10.667M16 2.667c-7.333 0-13.2 6-13.2 13.333 0 2 0.4 3.867 1.2 5.6l-2.133 5.467 5.733-0.8c2.267 2 5.333 3.2 8.533 3.2 7.333 0 13.2-6 13.2-13.333s-6-13.467-13.333-13.467z"></path>
</svg>
