<!-- Generated by IcoMoon.io -->
<svg version="1.1" xmlns="http://www.w3.org/2000/svg" width="32" height="32" viewBox="0 0 32 32">
<title>disqus</title>
<path d="M16.107 29.333c-3.267 0-6.253-1.187-8.56-3.16l-5.667 0.773 2.187-5.413c-0.733-1.693-1.187-3.533-1.187-5.533 0-7.333 5.92-13.333 13.227-13.333s13.227 6 13.227 13.333-5.92 13.333-13.227 13.333M23.333 15.96v-0.040c0-3.84-2.72-6.587-7.4-6.587h-5.053v13.333h4.987c4.707 0 7.467-2.853 7.467-6.707M16 19.387h-1.48v-6.773h1.48c2.16 0 3.6 1.24 3.6 3.387 0 2.173-1.44 3.387-3.6 3.387z"></path>
</svg>
