<!-- Generated by IcoMoon.io -->
<svg version="1.1" xmlns="http://www.w3.org/2000/svg" width="32" height="32" viewBox="0 0 32 32">
<title>dna</title>
<path d="M5.333 2.667h2.667v2.667c0 1.92 0.907 3.48 2.507 5.040 1.147 1.107 2.68 2.173 4.28 3.227l-2.44 1.587c-1.32-0.893-2.6-1.853-3.68-2.907-1.907-1.853-3.333-4.147-3.333-6.947v-2.667M24 2.667h2.667v2.667c0 2.8-1.427 5.093-3.333 6.947-1.88 1.84-4.28 3.36-6.613 4.84-2.333 1.493-4.6 2.947-6.213 4.507-1.6 1.56-2.507 3.12-2.507 5.040v2.667h-2.667v-2.667c0-2.8 1.427-5.093 3.333-6.947 1.88-1.84 4.28-3.36 6.613-4.84 2.333-1.493 4.6-2.947 6.213-4.507 1.6-1.56 2.507-3.12 2.507-5.040v-2.667M19.653 16.813c1.32 0.893 2.6 1.853 3.68 2.907 1.907 1.853 3.333 4.147 3.333 6.947v2.667h-2.667v-2.667c0-1.92-0.907-3.48-2.507-5.040-1.147-1.107-2.68-2.173-4.28-3.227l2.44-1.587M9.333 4h13.333v1.333l-0.080 0.667h-13.173l-0.080-0.667v-1.333M10.24 8h11.52c-0.32 0.453-0.693 0.92-1.2 1.413l-0.68 0.587h-7.787l-0.653-0.587c-0.507-0.493-0.88-0.96-1.2-1.413M12.12 22h7.787l0.653 0.587c0.507 0.493 0.88 0.96 1.2 1.413h-11.52c0.32-0.453 0.693-0.92 1.2-1.413l0.68-0.587M9.413 26h13.173l0.080 0.667v1.333h-13.333v-1.333l0.080-0.667z"></path>
</svg>
