<!-- Generated by IcoMoon.io -->
<svg version="1.1" xmlns="http://www.w3.org/2000/svg" width="32" height="32" viewBox="0 0 32 32">
<title>dns</title>
<path d="M9.333 12c-1.473 0-2.667-1.194-2.667-2.667v0c0-1.473 1.194-2.667 2.667-2.667v0c1.473 0 2.667 1.194 2.667 2.667v0c0 1.473-1.194 2.667-2.667 2.667v0M26.667 4h-21.333c-0.736 0-1.333 0.597-1.333 1.333v0 8c0 0.736 0.597 1.333 1.333 1.333v0h21.333c0.736 0 1.333-0.597 1.333-1.333v0-8c0-0.736-0.597-1.333-1.333-1.333v0M9.333 25.333c-1.473 0-2.667-1.194-2.667-2.667v0c0-1.473 1.194-2.667 2.667-2.667v0c1.473 0 2.667 1.194 2.667 2.667v0c0 1.473-1.194 2.667-2.667 2.667v0M26.667 17.333h-21.333c-0.736 0-1.333 0.597-1.333 1.333v0 8c0 0.736 0.597 1.333 1.333 1.333v0h21.333c0.736 0 1.333-0.597 1.333-1.333v0-8c0-0.736-0.597-1.333-1.333-1.333v0z"></path>
</svg>
