<!-- Generated by IcoMoon.io -->
<svg version="1.1" xmlns="http://www.w3.org/2000/svg" width="32" height="32" viewBox="0 0 32 32">
<title>dribbble-box</title>
<path d="M6.667 4h18.667c1.473 0 2.667 1.194 2.667 2.667v0 18.667c0 1.473-1.194 2.667-2.667 2.667v0h-18.667c-1.473 0-2.667-1.194-2.667-2.667v0-18.667c0-1.473 1.194-2.667 2.667-2.667v0M20.12 22c-0.373-1.813-0.827-3.453-1.347-4.907l1.493-0.107h0.027c0.867 0 1.827 0.107 2.853 0.347-0.374 1.945-1.475 3.582-3.003 4.651l-0.024 0.016M16 23.28c-1.613 0-3.12-0.533-4.32-1.427 0.253-0.427 0.8-1.24 1.653-2.080 0.933-0.867 2.187-1.773 3.813-2.293 0.56 1.547 1.053 3.32 1.44 5.32-0.813 0.307-1.68 0.48-2.587 0.48M8.72 16v-0.107l0.8 0.013c1.467 0 4.013-0.133 6.613-0.947l0.413 0.96c-1.733 0.587-3.093 1.507-4.093 2.427-0.973 0.88-1.627 1.76-2.013 2.32-1.067-1.253-1.72-2.88-1.72-4.667M12.787 9.48c0.507 0.6 1.52 1.907 2.6 3.96-2.2 0.653-4.413 0.8-5.76 0.8h-0.693c0.544-2.106 1.951-3.81 3.811-4.741l0.042-0.019M16 8.72c1.72 0 3.293 0.613 4.547 1.6-0.96 1.147-2.227 1.973-3.587 2.56-0.785-1.523-1.617-2.828-2.553-4.050l0.047 0.063c0.493-0.107 1.013-0.173 1.547-0.173M21.72 11.507c0.907 1.16 1.48 2.587 1.547 4.147-1.053-0.213-2.040-0.32-2.973-0.32-0.747 0-1.453 0.053-2.12 0.173l-0.48-1.133c1.467-0.64 2.88-1.56 4.027-2.867M16 6.667c-5.155 0-9.333 4.179-9.333 9.333v0c0 5.155 4.179 9.333 9.333 9.333v0c5.155 0 9.333-4.179 9.333-9.333v0c0-5.155-4.179-9.333-9.333-9.333v0z"></path>
</svg>
