<!-- Generated by IcoMoon.io -->
<svg version="1.1" xmlns="http://www.w3.org/2000/svg" width="32" height="32" viewBox="0 0 32 32">
<title>duck</title>
<path d="M11.333 6.667c-1.105 0-2 0.895-2 2v0c0 1.105 0.895 2 2 2v0c1.105 0 2-0.895 2-2v0c0-1.105-0.895-2-2-2v0M13.333 2.667c3.682 0 6.667 2.985 6.667 6.667v0c0 2.267-1.133 4.267-2.853 5.467 2.107 0.2 4.48 0.68 6.853 1.867 4 2 5.333-0.667 5.333-0.667s-1.333 12-9.333 12h-8s-6.667 0-6.667-6.667c0-4 4-5.333 2.667-8-5.333 0-5.333-4.667-5.333-4.667 1.333 0.667 2.987 0.667 4 0.2 0.265-3.475 3.147-6.195 6.666-6.2h0z"></path>
</svg>
