<!-- Generated by IcoMoon.io -->
<svg version="1.1" xmlns="http://www.w3.org/2000/svg" width="32" height="32" viewBox="0 0 32 32">
<title>earth</title>
<path d="M23.867 23.187c-0.347-1.067-1.347-1.853-2.533-1.853h-1.333v-4c0-0.736-0.597-1.333-1.333-1.333v0h-8v-2.667h2.667c0.736 0 1.333-0.597 1.333-1.333v0-2.667h2.667c1.473 0 2.667-1.194 2.667-2.667v-0.547c3.941 1.62 6.665 5.428 6.665 9.873 0 2.777-1.063 5.306-2.805 7.201l0.007-0.008M14.667 26.573c-5.267-0.653-9.333-5.133-9.333-10.573 0-0.827 0.107-1.627 0.28-2.387l6.387 6.387v1.333c0 1.473 1.194 2.667 2.667 2.667v0M16 2.667c-7.364 0-13.333 5.97-13.333 13.333v0c0 7.364 5.97 13.333 13.333 13.333v0c7.364 0 13.333-5.97 13.333-13.333v0c0-7.364-5.97-13.333-13.333-13.333v0z"></path>
</svg>
