<!-- Generated by IcoMoon.io -->
<svg version="1.1" xmlns="http://www.w3.org/2000/svg" width="32" height="32" viewBox="0 0 32 32">
<title>email-secure</title>
<path d="M27.333 0c1.841 0 3.333 1.492 3.333 3.333v0 0.667c0.736 0 1.333 0.597 1.333 1.333v0 5.333c0 0.736-0.597 1.333-1.333 1.333v0h-6.667c-0.736 0-1.333-0.597-1.333-1.333v0-5.333c0-0.736 0.597-1.333 1.333-1.333v0-0.667c0-1.841 1.492-3.333 3.333-3.333v0M16 14.667l-10.667-6.667v2.667l10.667 6.667 5.573-3.48c0.68 0.507 1.52 0.813 2.427 0.813h5.333v9.333c0 1.473-1.194 2.667-2.667 2.667h-21.333c-1.473 0-2.667-1.194-2.667-2.667v0-16c0-1.473 1.194-2.667 2.667-2.667h14.667v5.333c0 0.48 0.080 0.933 0.24 1.333l-4.24 2.667M27.333 1.333c-1.105 0-2 0.895-2 2v0 0.667h4v-0.667c0-1.105-0.895-2-2-2v0z"></path>
</svg>
