<!-- Generated by IcoMoon.io -->
<svg version="1.1" xmlns="http://www.w3.org/2000/svg" width="32" height="32" viewBox="0 0 32 32">
<title>emoticon-devil</title>
<path d="M2 2.787c1.2 1.213 3.16 2.187 5.587 2.88 2.263-1.867 5.194-3 8.388-3 0.009 0 0.018 0 0.027 0h-0.001c3.187 0 6.12 1.12 8.413 3 2.427-0.693 4.387-1.667 5.587-2.88-0.040 2.173-1.133 4.16-2.96 5.747 1.436 2.080 2.293 4.656 2.293 7.431 0 0.012-0 0.025-0 0.037v-0.002c0 7.364-5.97 13.333-13.333 13.333v0c-7.364 0-13.333-5.97-13.333-13.333v0c0-2.773 0.84-5.333 2.293-7.467-1.827-1.587-2.92-3.573-2.96-5.747M26.667 16c0-5.891-4.776-10.667-10.667-10.667v0c-5.891 0-10.667 4.776-10.667 10.667v0c0 5.891 4.776 10.667 10.667 10.667v0c5.891 0 10.667-4.776 10.667-10.667v0M14 13.333c0 1.067-0.933 2-2 2s-2-0.933-2-2v-2l4 2M22 13.333c0 1.067-0.933 2-2 2s-2-0.933-2-2l4-2v2M16 22.973c-2.333 0-4.387-0.973-5.587-2.413l1.893-1.893c0.6 0.96 2.027 1.64 3.693 1.64s3.093-0.68 3.693-1.64l1.893 1.893c-1.2 1.44-3.253 2.413-5.587 2.413z"></path>
</svg>
