<!-- Generated by IcoMoon.io -->
<svg version="1.1" xmlns="http://www.w3.org/2000/svg" width="32" height="32" viewBox="0 0 32 32">
<title>emoticon-neutral</title>
<path d="M11.333 14.667c-1.105 0-2-0.895-2-2v0c0-1.105 0.895-2 2-2v0c1.105 0 2 0.895 2 2v0c0 1.105-0.895 2-2 2v0M20.667 14.667c-1.105 0-2-0.895-2-2v0c0-1.105 0.895-2 2-2v0c1.105 0 2 0.895 2 2v0c0 1.105-0.895 2-2 2v0M16 26.667c5.891 0 10.667-4.776 10.667-10.667v0c0-5.891-4.776-10.667-10.667-10.667v0c-5.891 0-10.667 4.776-10.667 10.667v0c0 5.891 4.776 10.667 10.667 10.667v0M16 2.667c7.364 0 13.333 5.97 13.333 13.333v0c0 7.364-5.97 13.333-13.333 13.333v0c-7.373 0-13.333-6-13.333-13.333 0-7.364 5.97-13.333 13.333-13.333v0M12 18.667h8c0.736 0 1.333 0.597 1.333 1.333v0c0 0.736-0.597 1.333-1.333 1.333v0h-8c-0.736 0-1.333-0.597-1.333-1.333v0c0-0.736 0.597-1.333 1.333-1.333v0z"></path>
</svg>
