<!-- Generated by IcoMoon.io -->
<svg version="1.1" xmlns="http://www.w3.org/2000/svg" width="32" height="32" viewBox="0 0 32 32">
<title>emoticon-happy</title>
<path d="M26.667 16c0-5.891-4.776-10.667-10.667-10.667v0c-5.891 0-10.667 4.776-10.667 10.667v0c0 5.891 4.776 10.667 10.667 10.667v0c5.891 0 10.667-4.776 10.667-10.667v0M29.333 16c0 7.364-5.97 13.333-13.333 13.333v0c-7.364 0-13.333-5.97-13.333-13.333v0c0-7.364 5.97-13.333 13.333-13.333v0c7.364 0 13.333 5.97 13.333 13.333v0M13.333 12.667c0 1.067-0.933 2-2 2s-2-0.933-2-2 0.933-2 2-2 2 0.933 2 2M22.667 12.667c0 1.067-0.933 2-2 2s-2-0.933-2-2 0.933-2 2-2 2 0.933 2 2M16 22.973c-2.333 0-4.387-0.973-5.587-2.413l1.893-1.893c0.6 0.96 2.027 1.64 3.693 1.64s3.093-0.68 3.693-1.64l1.893 1.893c-1.2 1.44-3.253 2.413-5.587 2.413z"></path>
</svg>
