<!-- Generated by IcoMoon.io -->
<svg version="1.1" xmlns="http://www.w3.org/2000/svg" width="32" height="32" viewBox="0 0 32 32">
<title>emoticon-cool</title>
<path d="M25.333 13.333c0 1.84-2.827 3.333-4.667 3.333s-3.667-1.493-3.667-3.333h-2c0 1.84-1.827 3.333-3.667 3.333s-4.667-1.493-4.667-3.333h-1c-0.213 0.853-0.333 1.747-0.333 2.667 0 5.891 4.776 10.667 10.667 10.667v0c5.891 0 10.667-4.776 10.667-10.667v0c0-0.92-0.12-1.813-0.333-2.667h-1M16 5.333c-3.947 0-7.4 2.147-9.24 5.333h18.48c-1.84-3.187-5.293-5.333-9.24-5.333M29.333 16c0 7.364-5.97 13.333-13.333 13.333v0c-7.364 0-13.333-5.97-13.333-13.333v0c0-7.364 5.97-13.333 13.333-13.333v0c7.364 0 13.333 5.97 13.333 13.333v0M16 22.973c-2.333 0-4.387-0.973-5.587-2.413l1.893-1.893c0.6 0.96 2.027 1.64 3.693 1.64s3.093-0.68 3.693-1.64l1.893 1.893c-1.2 1.44-3.253 2.413-5.587 2.413z"></path>
</svg>
