<!-- Generated by IcoMoon.io -->
<svg version="1.1" xmlns="http://www.w3.org/2000/svg" width="32" height="32" viewBox="0 0 32 32">
<title>ethernet</title>
<path d="M9.333 20h2.667v4h2.667v-4h2.667v4h2.667v-4h2.667v4h2.667v-12h-5.333v-4h-8v4h-5.333v12h2.667v-4M5.84 4h20.333c0 0 0 0 0 0 1.745 0 3.16 1.415 3.16 3.16 0 0.005 0 0.009-0 0.014v-0.001 19c0 1.745-1.415 3.16-3.16 3.16v0h-20.333c-0.004 0-0.009 0-0.013 0-1.745 0-3.16-1.415-3.16-3.16 0 0 0-0 0-0v0-19c0-1.76 1.413-3.173 3.173-3.173z"></path>
</svg>
