<!-- Generated by IcoMoon.io -->
<svg version="1.1" xmlns="http://www.w3.org/2000/svg" width="32" height="32" viewBox="0 0 32 32">
<title>etsy</title>
<path d="M8.96 27.707c2.013-0.093 4.467 0 6.867 0 2.467 0 5-0.16 7 0 0.8 0.067 1.547 0.547 2.2 0.12 0.52-0.653 0.133-1.547 0.253-2.427 0.213-1.693 1.76-3.707-0.493-4.133-0.96 0.88-0.32 1.707-0.853 2.8-0.667 1.307-3.027 1.76-5.267 1.933-1.947 0.16-5.333 0.347-6-0.973-0.613-1.107-0.28-2.827-0.28-4.253 0-1.6-0.173-3.147 0.28-4.373 2.427 0.173 5.6-0.813 7.333 0.267 1.16 0.667 0.493 2.080 1.84 2.533 0.92-0.253 0.427-1.44 0.373-2.533-0.040-0.747-0.040-1.747 0-2.573 0.040-1.12 0.453-2.413-0.747-2.44-0.947 0.747-0.227 1.987-1.227 2.68-0.307 0.227-1 0.333-1.467 0.333-1.84 0.227-4.72 0.067-6.267-0.213-0.2-2.24-0.187-5.293 0-7.533 0.827-0.827 2.76-0.867 4.053-0.853 2.28 0 5.827 0.2 6.507 1.333 0.373 0.6 0.080 1.933 0.733 2.067 1.333 0.307 0.68-2.067 0.747-3.16 0.040-0.827 0.4-1.347 0.24-1.947-0.427-0.587-1.067-0.293-1.453-0.24-4.2 0.547-10.533 0.24-14.987 0.24-0.533 0-1.467-0.267-1.84 0.36-0.267 1.413 1.653 0.827 2.32 1.587 0.227 0.24 0.547 1.333 0.613 2.067 0.2 1.947 0 4.92 0 7.787 0 3.013 0.24 6.067 0 7.907-0.107 0.64-0.467 1.667-0.613 1.813-0.827 0.84-3.040-0.080-2.827 1.707 0.787 0.52 1.907 0.173 2.96 0.12z"></path>
</svg>
