<!-- Generated by IcoMoon.io -->
<svg version="1.1" xmlns="http://www.w3.org/2000/svg" width="32" height="32" viewBox="0 0 32 32">
<title>evernote</title>
<path d="M20.12 15.507s0.253-1.707 1.213-1.707c1.013 0 2.373 2.28 2.373 2.28s-3.093-0.573-3.587-0.573M25.333 6.253c-0.48-0.8-2.893-1.707-4.147-1.707h-3.187s-1.067-1.88-3.493-1.88c-2.44 0-2.28 1.080-2.28 2v3.76l-1.107 1.16h-5.12s-1.413 0.96-1.413 3c0 2.080 0.64 9.213 4.92 9.88 5.067 0.773 5.933-1.573 5.933-1.853 0-1.2 0.027-3 0.027-3s1.48 2.827 3.72 2.827 3.533 1.293 3.533 2.613v2.453s-0.053 1.533-1.387 1.533h-2.813s-0.92-0.72-0.92-1.707c0-1 0.44-1.267 0.973-1.267 0.52 0 0.96 0.053 0.96 0.053v-2.080s-4.24-0.040-4.24 3.213c0 3.24 2.213 4.080 3.987 4.080h2.893s5.24-0.667 5.24-11-1.64-11.293-2.080-12.080M10 8.413h-4.32l5.413-5.453v4.373l-1.093 1.080z"></path>
</svg>
