<!-- Generated by IcoMoon.io -->
<svg version="1.1" xmlns="http://www.w3.org/2000/svg" width="32" height="32" viewBox="0 0 32 32">
<title>face</title>
<path d="M12 15.667c-0.92 0-1.667 0.746-1.667 1.667v0c0 0.92 0.746 1.667 1.667 1.667v0c0.92 0 1.667-0.746 1.667-1.667v0c0-0.92-0.746-1.667-1.667-1.667v0M20 15.667c-0.92 0-1.667 0.746-1.667 1.667v0c0 0.92 0.746 1.667 1.667 1.667v0c0.92 0 1.667-0.746 1.667-1.667v0c0-0.92-0.746-1.667-1.667-1.667v0M16 2.667c-7.364 0-13.333 5.97-13.333 13.333v0c0 7.364 5.97 13.333 13.333 13.333v0c7.364 0 13.333-5.97 13.333-13.333v0c0-7.364-5.97-13.333-13.333-13.333v0M16 26.667c-5.88 0-10.667-4.787-10.667-10.667 0-0.387 0-0.773 0.067-1.147 3.147-1.4 5.64-3.973 6.947-7.16 2.438 3.429 6.396 5.638 10.871 5.638 1.067 0 2.105-0.126 3.1-0.363l-0.091 0.018c0.28 0.947 0.44 1.96 0.44 3.013 0 5.88-4.787 10.667-10.667 10.667z"></path>
</svg>
