<!-- Generated by IcoMoon.io -->
<svg version="1.1" xmlns="http://www.w3.org/2000/svg" width="32" height="32" viewBox="0 0 32 32">
<title>facebook-box</title>
<path d="M25.333 5.333v4h-2.667c-0.736 0-1.333 0.597-1.333 1.333v0 2.667h4v4h-4v9.333h-4v-9.333h-2.667v-4h2.667v-3.333c0-2.587 2.093-4.667 4.667-4.667M26.667 2.667h-21.333c-1.473 0-2.667 1.194-2.667 2.667v21.333c0 1.473 1.194 2.667 2.667 2.667h21.333c1.473 0 2.667-1.194 2.667-2.667v0-21.333c0-1.473-1.194-2.667-2.667-2.667v0z"></path>
</svg>
