<!-- Generated by IcoMoon.io -->
<svg version="1.1" xmlns="http://www.w3.org/2000/svg" width="32" height="32" viewBox="0 0 32 32">
<title>feather</title>
<path d="M29.333 2.667s-10.187-0.493-18.213 10.507c-6.16 8.44-8.453 16.16-8.453 16.16l2.587-1.333c1.92-3.333 2.92-4.707 4.8-6.667 3.373 0.987 6.893 0.867 9.947-2.667-2.667-0.747-4.8-0.573-7.947-0.253 3.533-2.413 5.947-2.947 9.28-2.413l1.333-2.667c-2.4-0.453-4-0.493-6.373 0.053 2.627-1.853 4.453-2.893 7.707-2.72l1.613-2.573c-2.080-0.147-3.333 0.080-5.72 0.667 2.147-1.947 4.107-2.827 6.96-3 0 0 1.4-2.52 2.48-3.093z"></path>
</svg>
