<!-- Generated by IcoMoon.io -->
<svg version="1.1" xmlns="http://www.w3.org/2000/svg" width="32" height="32" viewBox="0 0 32 32">
<title>file-pdf</title>
<path d="M18.667 12h7.333l-7.333-7.333v7.333M9.333 2.667h10.667l8 8v16c0 1.473-1.194 2.667-2.667 2.667v0h-16c-1.473 0-2.667-1.194-2.667-2.667v-21.333c0-1.473 1.194-2.667 2.667-2.667v0M15.907 16.587c0.547 1.2 1.24 2.187 2.040 2.867l0.547 0.427c-1.16 0.213-2.76 0.587-4.453 1.24l-0.147 0.053 0.667-1.387c0.6-1.16 1.040-2.213 1.347-3.2M24.547 21.667c0.24-0.24 0.36-0.547 0.373-0.88 0.040-0.267-0.027-0.52-0.16-0.733-0.387-0.627-1.387-0.92-3.040-0.92l-1.72 0.093-1.16-0.773c-0.84-0.693-1.6-1.907-2.133-3.413l0.053-0.187c0.44-1.773 0.853-3.92-0.027-4.8-0.204-0.198-0.483-0.32-0.791-0.32-0.008 0-0.016 0-0.023 0l0.001-0h-0.32c-0.493 0-0.933 0.52-1.053 1.027-0.493 1.773-0.2 2.747 0.293 4.36v0.013c-0.333 1.173-0.76 2.533-1.44 3.907l-1.28 2.4-1.187 0.653c-1.6 1-2.36 2.12-2.507 2.827-0.053 0.253-0.027 0.48 0.067 0.72l0.040 0.067 0.64 0.413 0.587 0.147c1.080 0 2.307-1.267 3.96-4.093l0.24-0.093c1.373-0.44 3.080-0.747 5.373-1 1.373 0.68 2.987 0.987 4 0.987 0.587 0 0.987-0.147 1.213-0.4M24 20.72l0.12 0.147c-0.013 0.133-0.053 0.147-0.12 0.173h-0.053l-0.253 0.027c-0.613 0-1.56-0.253-2.533-0.68 0.12-0.133 0.173-0.133 0.307-0.133 1.867 0 2.4 0.333 2.533 0.467M11.773 22.667c-0.867 1.587-1.653 2.467-2.253 2.667 0.067-0.507 0.667-1.387 1.613-2.253l0.64-0.413M15.8 13.453c-0.307-1.2-0.32-2.173-0.093-2.733l0.093-0.16 0.2 0.067c0.227 0.32 0.253 0.747 0.12 1.467l-0.040 0.213-0.213 1.093-0.067 0.053z"></path>
</svg>
