<!-- Generated by IcoMoon.io -->
<svg version="1.1" xmlns="http://www.w3.org/2000/svg" width="32" height="32" viewBox="0 0 32 32">
<title>file-restore</title>
<path d="M18.667 2.667h-10.667c-1.473 0-2.667 1.194-2.667 2.667v21.333c0 1.473 1.194 2.667 2.667 2.667v0h16c1.473 0 2.667-1.194 2.667-2.667v-16l-8-8M16 24c-2.733 0-5.080-1.653-6.107-4h2.28c0.84 1.2 2.24 2 3.827 2 2.577 0 4.667-2.089 4.667-4.667v0c0-2.577-2.089-4.667-4.667-4.667v0c-1.8 0-3.333 1.040-4.133 2.533l2.133 2.133h-5.333v-5.333l1.733 1.733c1.187-1.84 3.24-3.067 5.6-3.067 3.682 0 6.667 2.985 6.667 6.667v0c0 3.682-2.985 6.667-6.667 6.667v0z"></path>
</svg>
