<!-- Generated by IcoMoon.io -->
<svg version="1.1" xmlns="http://www.w3.org/2000/svg" width="32" height="32" viewBox="0 0 32 32">
<title>file-lock</title>
<path d="M8 2.667c-1.473 0-2.667 1.194-2.667 2.667v21.333c0 1.473 1.194 2.667 2.667 2.667v0h16c1.473 0 2.667-1.194 2.667-2.667v-16l-8-8h-10.667M17.333 4.667l7.333 7.333h-7.333v-7.333M16 14.667c2.209 0 4 1.791 4 4v0 1.333h1.333v5.333h-10.667v-5.333h1.333v-1.333c0-2.187 1.787-4 4-4M16 17.333c-0.736 0-1.333 0.597-1.333 1.333v0 1.333h2.667v-1.333c0-0.707-0.6-1.333-1.333-1.333z"></path>
</svg>
