<!-- Generated by IcoMoon.io -->
<svg version="1.1" xmlns="http://www.w3.org/2000/svg" width="32" height="32" viewBox="0 0 32 32">
<title>file-powerpoint-box</title>
<path d="M13.067 17.867h3.333c2 0 2.88-0.373 3.733-1.093 0.853-0.733 1.2-1.773 1.2-3.133 0-1.293-0.333-2.307-1.2-3.133-0.867-0.787-1.693-1.173-3.733-1.173h-5.733v13.333h2.4v-4.8M25.333 4c1.473 0 2.667 1.194 2.667 2.667v0 18.667c0 1.473-1.194 2.667-2.667 2.667v0h-18.667c-1.473 0-2.667-1.194-2.667-2.667v0-18.667c0-1.473 1.194-2.667 2.667-2.667v0h18.667M13.067 16v-4.8h3.067c0.88 0 1.56 0.333 2 0.8s0.667 0.96 0.667 1.653c0 0.747-0.24 1.267-0.667 1.68s-0.933 0.667-1.84 0.667h-3.227z"></path>
</svg>
