<!-- Generated by IcoMoon.io -->
<svg version="1.1" xmlns="http://www.w3.org/2000/svg" width="32" height="32" viewBox="0 0 32 32">
<title>fingerprint</title>
<path d="M15.773 2.307c-4.533 0.080-7.467 2.12-7.467 2.12-0.373 0.24-0.467 0.787-0.213 1.16 0.267 0.413 0.787 0.48 1.187 0.2 0 0 5.747-4.253 14 0.053 0.387 0.227 0.907 0.093 1.133-0.307 0.253-0.4 0.080-0.907-0.373-1.16-2.227-1.173-4.333-1.76-6.227-1.973-0.707-0.080-1.387-0.107-2.040-0.093M16.293 5.787c-7.947-0.107-11.747 6.28-11.747 6.28-0.253 0.387-0.147 0.893 0.227 1.147 0.387 0.253 0.907 0.12 1.227-0.307 0 0 3.227-5.573 10.267-5.453 7.067 0.093 10.16 5.413 10.16 5.413 0.24 0.387 0.747 0.52 1.147 0.293 0.427-0.24 0.52-0.747 0.293-1.16 0 0-3.667-6.107-11.573-6.213M15.333 9.093c-2.24 0.16-4.387 0.973-6 2.32-3.173 2.627-5.2 7.44-2.973 13.92 0.147 0.44 0.627 0.667 1.067 0.52 0.427-0.147 0.667-0.627 0.507-1.053-2.053-5.96-0.227-9.867 2.467-12.133 2.627-2.147 7.267-2.667 10.72-0.533 1.693 1.067 3.013 2.907 3.68 4.72 0.68 1.813 0.64 3.573 0.093 4.4-0.56 0.867-1.693 1.187-2.693 0.933s-1.813-0.973-1.853-2.493c-0.040-2.28-1.827-3.693-3.68-3.907-1.787-0.213-3.853 0.747-4.387 2.88-1.013 3.893 1.533 9.427 7.427 11.267 0.44 0.133 0.907-0.107 1.053-0.547 0.133-0.44-0.093-0.92-0.56-1.053-5.107-1.587-7.040-6.427-6.307-9.28 0.32-1.28 1.44-1.72 2.613-1.613 1.16 0.133 2.16 0.827 2.16 2.28 0.067 2.187 1.493 3.667 3.12 4.080s3.507-0.107 4.507-1.64c1.040-1.56 0.867-3.76 0.080-5.88-0.8-2.133-2.28-4.24-4.373-5.56-1.661-1.040-3.679-1.657-5.841-1.657-0.291 0-0.579 0.011-0.864 0.033l0.038-0.002M15.813 12.333v0.013c-2.373 0.080-4.747 1.307-6.107 3.893-1.76 3.32-0.96 6.707 0.213 9.147 1.187 2.453 2.8 4.080 2.8 4.080 0.32 0.333 0.84 0.333 1.173 0.013s0.333-0.813 0.013-1.173c0 0-1.427-1.467-2.48-3.64s-1.693-4.92-0.253-7.64c1.493-2.8 4.16-3.48 6.507-2.8 2.373 0.693 4.36 2.76 4.32 5.813-0.053 0.467 0.28 0.867 0.747 0.893 0.453 0.040 0.853-0.307 0.893-0.853 0.080-3.813-2.48-6.573-5.493-7.453-0.633-0.188-1.361-0.296-2.113-0.296-0.077 0-0.154 0.001-0.231 0.003l0.011-0M16.107 19c-0.467 0.013-0.827 0.4-0.813 0.853 0 0 0.040 1.973 1.12 3.88 1.12 1.907 3.493 3.72 7.627 3.333 0.453-0.027 0.813-0.4 0.787-0.88-0.027-0.467-0.427-0.813-0.947-0.773-3.627 0.333-5.16-1.040-6.027-2.52-0.867-1.467-0.893-3.053-0.893-3.053s0-0 0-0c0-0.464-0.376-0.84-0.84-0.84-0.005 0-0.009 0-0.014 0h0.001z"></path>
</svg>
