<!-- Generated by IcoMoon.io -->
<svg version="1.1" xmlns="http://www.w3.org/2000/svg" width="32" height="32" viewBox="0 0 32 32">
<title>firefox</title>
<path d="M28 15.6c0-0.533-0.133-1.333-0.267-1.867-0.4-2.267-1.6-4.267-3.067-5.867-0.267-0.4-0.8-0.8-1.333-1.2-1.467-1.2-3.2-2-5.2-2.4-4-0.667-8 0.667-10.667 3.467v-0.133c-0.133-0.267-0.133-0.267-0.267-0.267-0.133-0.267-0.133-0.4-0.267-0.533 0-0.267-0.133-0.533-0.133-0.8-0.4 0.133-0.4 0.533-0.533 0.8-0.267 0.267-0.533 0.667-0.533 1.067-0.133 0.267-0.4 1.467-0.133 1.6h0.133v0.4c-0.267 0.267-0.4 0.4-0.4 0.533-0.4 0.8-0.8 1.467-0.933 2.267v0.4c-0.267 0.267-0.267 0.667-0.4 0.933 0.133 0 0.133-0.133 0.267-0.133-0.667 3.467 0.267 7.067 2.4 9.733 3.2 3.867 8.667 5.467 13.467 3.733 4.667-1.733 7.867-6.267 7.867-11.333v-0.4M18 5.467c2 0.4 3.867 1.333 5.333 2.667 0.133 0.133 0.267 0.4 0.267 0.4-0.4-0.4-1.333-1.067-1.867-0.8 0.133 0.4 1.733 2.4 1.867 2.533 0 0 0.4 1.733 0.533 1.867 0 0.267-0.933 3.733-0.933 4.267 0 0.133-1.2 2.533-1.067 2.533-0.4 0.933-0.8 0.933-0.933 1.067-0.133 0-0.933 0.267-1.867 0.533-0.8 0.133-1.733 0.4-2.4 0.267-0.4 0-0.933 0-1.333-0.267-0.133-0.133-1.2-0.667-1.467-0.8-0.4-0.133-0.667-0.4-0.933-0.667h1.467c0.8-0.133 4.267-1.333 4.133-1.867 0-0.4-0.667-0.667-0.933-0.933-0.4-0.133-2 0.133-2.667 0.4 0 0-2.533-0.667-3.2-1.2 0-0.133-0.133-0.933-0.133-1.067-0.133-0.133 0.4-0.533 0.4-0.533s1.333-1.333 1.333-1.467c0.267 0 0.533-0.267 0.667-0.4-0.133 0 0.133-0.133 0.533-0.4s0.667-0.267 0.667-0.667c0 0 0.667-1.2-0.133-1.067 0 0-1.2-0.133-1.6-0.133-0.4 0.267-0.533 0.133-0.933 0 0 0-0.267-0.267-0.267-0.4 0.133-0.267 1.067-2.267 1.467-2.4-0.267-0.533-1.6-0.133-1.867 0.267 0 0-1.067 0.8-1.6 0.933 0-0.133-0.667-0.267-1.333-0.267 2.4-2 5.6-2.933 8.8-2.4z"></path>
</svg>
