<!-- Generated by IcoMoon.io -->
<svg version="1.1" xmlns="http://www.w3.org/2000/svg" width="32" height="32" viewBox="0 0 32 32">
<title>fire</title>
<path d="M15.613 25.333c-2.373 0-4.28-1.88-4.28-4.187 0-2.16 1.373-3.68 3.733-4.16s4.8-1.613 6.16-3.44c0.52 1.72 0.773 3.533 0.773 5.387 0 3.52-2.853 6.4-6.387 6.4M18 0.893s0.987 3.533 0.987 6.4c0 2.747-1.8 4.973-4.547 4.973-2.76 0-4.84-2.227-4.84-4.973l0.040-0.493c-2.693 3.2-4.307 7.347-4.307 11.867 0 5.891 4.776 10.667 10.667 10.667v0c5.891 0 10.667-4.776 10.667-10.667v0c0-7.2-3.453-13.6-8.667-17.773z"></path>
</svg>
