<!-- Generated by IcoMoon.io -->
<svg version="1.1" xmlns="http://www.w3.org/2000/svg" width="32" height="32" viewBox="0 0 32 32">
<title>flag-checkered</title>
<path d="M19.2 8h7.467v13.333h-9.333l-0.533-2.667h-7.467v9.333h-2.667v-22.667h12l0.533 2.667M18.667 18.667h2.667v-2.667h2.667v-2.667h-2.667v-2.667h-2.667v2.667l-1.333-2.667v-2.667h-2.667v2.667h-2.667v-2.667h-2.667v2.667h2.667v2.667h-2.667v2.667h2.667v-2.667h2.667v2.667h2.667v-2.667l1.333 2.667v2.667M14.667 13.333v-2.667h2.667v2.667h-2.667M18.667 13.333h2.667v2.667h-2.667v-2.667z"></path>
</svg>
