<!-- Generated by IcoMoon.io -->
<svg version="1.1" xmlns="http://www.w3.org/2000/svg" width="32" height="32" viewBox="0 0 32 32">
<title>flash-red-eye</title>
<path d="M21.333 6.667c-0.747 0-1.333 0.587-1.333 1.333s0.587 1.333 1.333 1.333 1.333-0.587 1.333-1.333-0.587-1.333-1.333-1.333M21.333 2.667c-3.64 0-6.747 2.213-8 5.333 1.253 3.12 4.36 5.333 8 5.333s6.747-2.213 8-5.333c-1.253-3.12-4.36-5.333-8-5.333M21.333 4.667c1.841 0 3.333 1.492 3.333 3.333v0c0 1.841-1.492 3.333-3.333 3.333v0c-1.841 0-3.333-1.492-3.333-3.333v0c0-1.841 1.492-3.333 3.333-3.333v0M4 2.667v16h4v12l9.333-16h-5.333l1.493-3.333c-0.907-0.987-1.653-2.093-2.16-3.333 0.92-2.28 2.667-4.16 4.813-5.333h-12.147z"></path>
</svg>
