<!-- Generated by IcoMoon.io -->
<svg version="1.1" xmlns="http://www.w3.org/2000/svg" width="32" height="32" viewBox="0 0 32 32">
<title>flask-outline</title>
<path d="M6.667 25.333c0 0.736 0.597 1.333 1.333 1.333v0h16c0.736 0 1.333-0.597 1.333-1.333v0c0-0.28-0.093-0.547-0.24-0.76l-7.76-13.44v-5.8h-2.667v5.8l-7.76 13.44c-0.147 0.213-0.24 0.48-0.24 0.76M8 29.333c-2.209 0-4-1.791-4-4v0c0-0.8 0.24-1.547 0.667-2.173l7.333-12.747v-2.413c-0.736 0-1.333-0.597-1.333-1.333v0-1.333c0-1.473 1.194-2.667 2.667-2.667h5.333c1.473 0 2.667 1.194 2.667 2.667v0 1.333c0 0.736-0.597 1.333-1.333 1.333v0 2.413l7.333 12.747c0.427 0.627 0.667 1.373 0.667 2.173 0 2.209-1.791 4-4 4v0h-16M17.333 21.333l1.787-1.787 2.573 4.453h-11.387l3.547-6.147 3.48 3.48M16.667 16c0.368 0 0.667 0.298 0.667 0.667v0c0 0.368-0.298 0.667-0.667 0.667v0c-0.368 0-0.667-0.298-0.667-0.667v0c0-0.368 0.298-0.667 0.667-0.667v0z"></path>
</svg>
