<!-- Generated by IcoMoon.io -->
<svg version="1.1" xmlns="http://www.w3.org/2000/svg" width="32" height="32" viewBox="0 0 32 32">
<title>flattr</title>
<path d="M28 12v8c0 4.418-3.582 8-8 8v0h-14.12l8.88-8.867c0.413-0.413 0.827-0.827 1.027-0.8 0.213 0.040 0.213 0.52 0.213 1v3.333h2.667c2.209 0 4-1.791 4-4v0-7.453l5.333-5.333v6.12M4 20v-8c0-4.418 3.582-8 8-8v0h14.12l-8.88 8.867c-0.413 0.413-0.827 0.827-1.027 0.8-0.213-0.040-0.213-0.52-0.213-1v-3.333h-2.667c-2.209 0-4 1.791-4 4v0 7.453l-5.333 5.333v-6.12z"></path>
</svg>
