<!-- Generated by IcoMoon.io -->
<svg version="1.1" xmlns="http://www.w3.org/2000/svg" width="32" height="32" viewBox="0 0 32 32">
<title>flip-to-back</title>
<path d="M20 22.667h2.667v-2.667h-2.667M20 6.667h2.667v-2.667h-2.667M6.667 9.333h-2.667v16c0 1.473 1.194 2.667 2.667 2.667v0h16v-2.667h-16M25.333 22.667c1.473 0 2.667-1.194 2.667-2.667v0h-2.667M25.333 12h2.667v-2.667h-2.667M25.333 17.333h2.667v-2.667h-2.667M12 22.667v-2.667h-2.667c0 1.473 1.194 2.667 2.667 2.667v0M17.333 4h-2.667v2.667h2.667M25.333 4v2.667h2.667c0-1.473-1.194-2.667-2.667-2.667v0M17.333 20h-2.667v2.667h2.667M12 4c-1.48 0-2.667 1.187-2.667 2.667h2.667M12 14.667h-2.667v2.667h2.667M12 9.333h-2.667v2.667h2.667v-2.667z"></path>
</svg>
