<!-- Generated by IcoMoon.io -->
<svg version="1.1" xmlns="http://www.w3.org/2000/svg" width="32" height="32" viewBox="0 0 32 32">
<title>flip-to-front</title>
<path d="M9.333 28h2.667v-2.667h-2.667M14.667 28h2.667v-2.667h-2.667M25.333 20h-13.333v-13.333h13.333M25.333 4h-13.333c-1.48 0-2.667 1.187-2.667 2.667v13.333c0 1.473 1.194 2.667 2.667 2.667v0h13.333c1.473 0 2.667-1.194 2.667-2.667v0-13.333c0-1.473-1.194-2.667-2.667-2.667v0M20 28h2.667v-2.667h-2.667M4 12h2.667v-2.667h-2.667M6.667 28v-2.667h-2.667c0 1.473 1.194 2.667 2.667 2.667v0M4 22.667h2.667v-2.667h-2.667M4 17.333h2.667v-2.667h-2.667v2.667z"></path>
</svg>
