<!-- Generated by IcoMoon.io -->
<svg version="1.1" xmlns="http://www.w3.org/2000/svg" width="32" height="32" viewBox="0 0 32 32">
<title>floppy</title>
<path d="M6 29.333l-3.333-3.333v-20.667c0-1.473 1.194-2.667 2.667-2.667h21.333c1.473 0 2.667 1.194 2.667 2.667v0 21.333c0 1.473-1.194 2.667-2.667 2.667h-4v-9.333c0-0.736-0.597-1.333-1.333-1.333h-12c-0.736 0-1.333 0.597-1.333 1.333v0 9.333h-2M6.667 5.333v8c0 0.736 0.597 1.333 1.333 1.333v0h16c0.736 0 1.333-0.597 1.333-1.333v0-8h-18.667M10.667 21.333h4v5.333h-4v-5.333M26.667 5.333v1.333h1.333v-1.333h-1.333z"></path>
</svg>
