<!-- Generated by IcoMoon.io -->
<svg version="1.1" xmlns="http://www.w3.org/2000/svg" width="32" height="32" viewBox="0 0 32 32">
<title>flower</title>
<path d="M4 17.333c0 6.627 5.373 12 12 12v0c0-6.667-5.373-12-12-12M16 7.333c1.841 0 3.333 1.492 3.333 3.333v0c0 1.841-1.492 3.333-3.333 3.333v0c-1.841 0-3.333-1.492-3.333-3.333v0c0-1.841 1.492-3.333 3.333-3.333v0M7.467 13.667c0 1.841 1.492 3.333 3.333 3.333v0c0.707 0 1.36-0.227 1.867-0.587v0.253c0 1.841 1.492 3.333 3.333 3.333v0c1.841 0 3.333-1.492 3.333-3.333v-0.253c0.507 0.36 1.16 0.587 1.867 0.587 1.841 0 3.333-1.492 3.333-3.333v0c0-1.333-0.787-2.467-1.907-3 1.12-0.533 1.907-1.68 1.907-3 0-1.841-1.492-3.333-3.333-3.333v0c-0.707 0-1.36 0.213-1.867 0.587v-0.253c0-1.841-1.492-3.333-3.333-3.333v0c-1.841 0-3.333 1.492-3.333 3.333v0 0.253c-0.507-0.373-1.16-0.587-1.867-0.587-1.841 0-3.333 1.492-3.333 3.333v0c0 1.32 0.787 2.467 1.907 3-1.12 0.533-1.907 1.667-1.907 3M16 29.333c6.627 0 12-5.373 12-12v0c-6.667 0-12 5.333-12 12z"></path>
</svg>
