<!-- Generated by IcoMoon.io -->
<svg version="1.1" xmlns="http://www.w3.org/2000/svg" width="32" height="32" viewBox="0 0 32 32">
<title>folder-lock-open</title>
<path d="M26.667 8c1.473 0 2.667 1.194 2.667 2.667v0 13.333c0 1.473-1.194 2.667-2.667 2.667h-21.333c-1.473 0-2.667-1.194-2.667-2.667v0-16c0-1.48 1.187-2.667 2.667-2.667h8l2.667 2.667h10.667M25.333 22.667v-5.333h-6.667v-2.667c0-0.736 0.597-1.333 1.333-1.333v0c0.736 0 1.333 0.597 1.333 1.333v0h2.667c0-2.209-1.791-4-4-4v0c-2.209 0-4 1.791-4 4v0 2.667h-1.333v5.333h10.667z"></path>
</svg>
