<!-- Generated by IcoMoon.io -->
<svg version="1.1" xmlns="http://www.w3.org/2000/svg" width="32" height="32" viewBox="0 0 32 32">
<title>folder-remove</title>
<path d="M13.333 5.333l2.667 2.667h10.667c1.473 0 2.667 1.194 2.667 2.667v0 13.333c0 1.473-1.194 2.667-2.667 2.667h-21.333c-1.473 0-2.667-1.194-2.667-2.667v0-16c0-1.48 1.187-2.667 2.667-2.667h8M16.613 14.507l2.84 2.827-2.84 2.827 1.893 1.893 2.827-2.84 2.827 2.84 1.893-1.893-2.84-2.827 2.84-2.827-1.893-1.893-2.827 2.84-2.827-2.84-1.893 1.893z"></path>
</svg>
