<!-- Generated by IcoMoon.io -->
<svg version="1.1" xmlns="http://www.w3.org/2000/svg" width="32" height="32" viewBox="0 0 32 32">
<title>folder-account</title>
<path d="M25.333 22.667h-10.667v-1.333c0-1.773 3.56-2.667 5.333-2.667s5.333 0.893 5.333 2.667M20 12c1.473 0 2.667 1.194 2.667 2.667v0c0 1.473-1.194 2.667-2.667 2.667v0c-1.473 0-2.667-1.194-2.667-2.667v0c0-1.473 1.194-2.667 2.667-2.667v0M26.667 8h-10.667l-2.667-2.667h-8c-1.48 0-2.667 1.187-2.667 2.667v16c0 1.473 1.194 2.667 2.667 2.667h21.333c1.473 0 2.667-1.194 2.667-2.667v0-13.333c0-1.473-1.194-2.667-2.667-2.667v0z"></path>
</svg>
