<!-- Generated by IcoMoon.io -->
<svg version="1.1" xmlns="http://www.w3.org/2000/svg" width="32" height="32" viewBox="0 0 32 32">
<title>folder-google-drive</title>
<path d="M18.333 12h3.187l3.813 6.667h-3.933l-3.4-6.053M24.4 22.667h-7.4l1.867-3.333h6.827l0.347 0.613M15.333 22.667l-1.467-2.853 3.787-6.613 2 3.547-3.32 5.92M26.667 8h-10.667l-2.667-2.667h-8c-1.48 0-2.667 1.187-2.667 2.667v16c0 1.473 1.194 2.667 2.667 2.667h21.333c1.473 0 2.667-1.194 2.667-2.667v0-13.333c0-1.473-1.194-2.667-2.667-2.667v0z"></path>
</svg>
