<!-- Generated by IcoMoon.io -->
<svg version="1.1" xmlns="http://www.w3.org/2000/svg" width="32" height="32" viewBox="0 0 32 32">
<title>food</title>
<path d="M20.667 28l-2-17.333h2.973l-1.507-6.053 2.32-0.613 1.667 6.667h5.213l-2 17.333h-6.667M6.667 14.667h6.667c2.209 0 4 1.791 4 4v0h-14.667c0-2.209 1.791-4 4-4v0M17.333 24c0 2.209-1.791 4-4 4v0h-6.667c-2.209 0-4-1.791-4-4v0h14.667M4 20h6.667l2 2 2-2h1.333c0.736 0 1.333 0.597 1.333 1.333v0c0 0.736-0.597 1.333-1.333 1.333h-12c-0.736 0-1.333-0.597-1.333-1.333v0c0-0.736 0.597-1.333 1.333-1.333v0z"></path>
</svg>
