<!-- Generated by IcoMoon.io -->
<svg version="1.1" xmlns="http://www.w3.org/2000/svg" width="32" height="32" viewBox="0 0 32 32">
<title>football-helmet</title>
<path d="M18 16c-1.105 0-2 0.895-2 2v0c0 1.105 0.895 2 2 2v0c1.105 0 2-0.895 2-2v0c0-1.105-0.895-2-2-2v0M18 4c6.253 0 11.333 4.773 11.333 10.667 0 2.16 0 4-1.213 6.667-5.453 0-6.787 5.333-11.453 5.333-2.907 0-4.307-2.293-4.6-5.333h-1.080l-1.707 5.733c-0.17 0.555-0.677 0.951-1.277 0.951-0.076 0-0.151-0.006-0.224-0.019l0.008 0.001h-3.787c-0.736 0-1.333-0.597-1.333-1.333v0c0-0.736 0.597-1.333 1.333-1.333v0-4c-0.736 0-1.333-0.597-1.333-1.333v0c0-0.736 0.597-1.333 1.333-1.333v0h5l0.64-2.147c-0.68-0.333-1.467-0.52-2.307-0.52h-0.573l-0.093-1.333c0-5.893 5.080-10.667 11.333-10.667M6.667 21.333v4h0.347l1.187-4h-1.533z"></path>
</svg>
