<!-- Generated by IcoMoon.io -->
<svg version="1.1" xmlns="http://www.w3.org/2000/svg" width="32" height="32" viewBox="0 0 32 32">
<title>football</title>
<path d="M10 10c2.227-2.173 5.053-3.747 7.827-4.427 2.787-0.68 5.507-0.467 6.973-0.24 1.48 0.2 1.693 0.413 1.907 1.88 0.2 1.453 0.4 4.187-0.28 6.96s-2.253 5.6-4.427 7.827c-2.227 2.173-5.053 3.747-7.827 4.427s-5.507 0.48-6.96 0.28c-1.467-0.213-1.68-0.427-1.88-1.907-0.227-1.467-0.44-4.187 0.24-6.973 0.68-2.773 2.253-5.6 4.427-7.827M9.733 21.053l1.213 1.213 1.613-1.6 1.613 1.6 1.213-1.213-1.6-1.613 2.213-2.227 1.613 1.613 1.213-1.213-1.613-1.613 2.227-2.213 1.613 1.6 1.213-1.213-1.6-1.613 1.6-1.613-1.213-1.213-1.613 1.6-1.613-1.6-1.213 1.213 1.6 1.613-2.213 2.227-1.613-1.613-1.213 1.213 1.613 1.613-2.227 2.213-1.613-1.6-1.213 1.213 1.6 1.613-1.6 1.613z"></path>
</svg>
