<!-- Generated by IcoMoon.io -->
<svg version="1.1" xmlns="http://www.w3.org/2000/svg" width="32" height="32" viewBox="0 0 32 32">
<title>format-header-4</title>
<path d="M4 5.333h2.667v8h5.333v-8h2.667v18.667h-2.667v-8h-5.333v8h-2.667v-18.667M20 5.333h6.667v2.667h-6.667v5.333h2.667c2.946 0 5.333 2.388 5.333 5.333v0c0 2.946-2.388 5.333-5.333 5.333v0h-2.667c-1.473 0-2.667-1.194-2.667-2.667v-1.333h2.667v1.333h2.667c1.473 0 2.667-1.194 2.667-2.667v0c0-1.473-1.194-2.667-2.667-2.667h-2.667c-1.473 0-2.667-1.194-2.667-2.667v0-5.333c0-1.473 1.194-2.667 2.667-2.667v0z"></path>
</svg>
