<!-- Generated by IcoMoon.io -->
<svg version="1.1" xmlns="http://www.w3.org/2000/svg" width="32" height="32" viewBox="0 0 32 32">
<title>format-list-bulleted</title>
<path d="M9.333 6.667h18.667v2.667h-18.667v-2.667M9.333 17.333v-2.667h18.667v2.667h-18.667M5.333 6c1.105 0 2 0.895 2 2v0c0 1.105-0.895 2-2 2v0c-1.105 0-2-0.895-2-2v0c0-1.105 0.895-2 2-2v0M5.333 14c1.105 0 2 0.895 2 2v0c0 1.105-0.895 2-2 2v0c-1.105 0-2-0.895-2-2v0c0-1.105 0.895-2 2-2v0M9.333 25.333v-2.667h18.667v2.667h-18.667M5.333 22c1.105 0 2 0.895 2 2v0c0 1.105-0.895 2-2 2v0c-1.105 0-2-0.895-2-2v0c0-1.105 0.895-2 2-2v0z"></path>
</svg>
