<!-- Generated by IcoMoon.io -->
<svg version="1.1" xmlns="http://www.w3.org/2000/svg" width="32" height="32" viewBox="0 0 32 32">
<title>format-color-fill</title>
<path d="M25.333 15.333s-2.667 2.893-2.667 4.667c0 1.473 1.194 2.667 2.667 2.667v0c1.473 0 2.667-1.194 2.667-2.667v0c0-1.773-2.667-4.667-2.667-4.667M6.947 13.333l6.387-6.387 6.387 6.387M22.080 11.92l-11.92-11.92-1.88 1.88 3.173 3.173-6.867 6.867c-0.787 0.747-0.787 2.040 0 2.827l7.333 7.333c0.387 0.387 0.907 0.587 1.413 0.587s1.027-0.2 1.413-0.587l7.333-7.333c0.787-0.787 0.787-2.080 0-2.827z"></path>
</svg>
