<!-- Generated by IcoMoon.io -->
<svg version="1.1" xmlns="http://www.w3.org/2000/svg" width="32" height="32" viewBox="0 0 32 32">
<title>format-header-1</title>
<path d="M4 5.333h2.667v8h5.333v-8h2.667v18.667h-2.667v-8h-5.333v8h-2.667v-18.667M28 24h-8c-1.473 0-2.667-1.194-2.667-2.667v0c0-0.707 0.267-1.333 0.72-1.813l6.493-6.973c0.493-0.48 0.787-1.147 0.787-1.88 0-1.473-1.194-2.667-2.667-2.667v0c-1.473 0-2.667 1.194-2.667 2.667v0h-2.667c0-2.946 2.388-5.333 5.333-5.333v0c2.946 0 5.333 2.388 5.333 5.333v0c0 1.467-0.6 2.8-1.56 3.773l-6.44 6.893h8v2.667z"></path>
</svg>
