<!-- Generated by IcoMoon.io -->
<svg version="1.1" xmlns="http://www.w3.org/2000/svg" width="32" height="32" viewBox="0 0 32 32">
<title>format-section</title>
<path d="M20.893 5.893c-1.188-0.721-2.623-1.148-4.158-1.148-0.047 0-0.095 0-0.142 0.001l0.007-0c-2.107 0-3.72 1.040-3.72 2.667 0 1.867 1.787 2.547 4.453 3.44 3.333 1.080 5.867 2.44 5.867 5.653-0.054 1.797-0.986 3.364-2.381 4.294l-0.020 0.012c0.867 0.813 1.347 1.96 1.333 3.147 0 3.76-3.467 5.333-6.8 5.333-1.947 0.080-3.88-0.44-5.533-1.467l0.867-2.040c1.387 0.947 3.027 1.453 4.707 1.467 2.293 0 4-1.040 4-2.933 0-1.653-1.040-2.573-4.373-3.72-3.667-1.267-6.2-2.6-6.2-5.653 0.093-1.76 1.107-3.36 2.667-4.187-0.84-0.76-1.32-1.867-1.333-3.013 0-3.147 2.893-5.080 6.573-5.080 1.72 0 3.413 0.387 4.933 1.187l-0.747 2.040M15.133 17.893c1.413 0.44 2.787 1.013 4.080 1.72 0.867-0.653 1.36-1.68 1.333-2.76 0-1.333-0.853-2.507-3.213-3.333-1.48-0.493-2.96-1.107-4.373-1.827-1 0.6-1.627 1.68-1.627 2.853 0 1.293 0.973 2.36 3.8 3.347z"></path>
</svg>
