<!-- Generated by IcoMoon.io -->
<svg version="1.1" xmlns="http://www.w3.org/2000/svg" width="32" height="32" viewBox="0 0 32 32">
<title>format-text</title>
<path d="M24.667 5.333l1.547 5.8-1.28 0.347c-0.6-1.16-1.213-2.32-1.92-2.907-0.707-0.573-1.533-0.573-2.347-0.573h-3.333v14c0 0.667 0 1.333 0.44 1.667 0.453 0.333 1.333 0.333 2.227 0.333v1.333h-8v-1.333c0.893 0 1.773 0 2.227-0.333 0.44-0.333 0.44-1 0.44-1.667v-14h-3.333c-0.813 0-1.64 0-2.347 0.573-0.707 0.587-1.32 1.747-1.92 2.907l-1.28-0.347 1.547-5.8h17.333z"></path>
</svg>
