<!-- Generated by IcoMoon.io -->
<svg version="1.1" xmlns="http://www.w3.org/2000/svg" width="32" height="32" viewBox="0 0 32 32">
<title>format-superscript</title>
<path d="M21.333 9.88l-6.12 6.12 6.12 6.12-1.88 1.88-6.12-6.12-6.12 6.12-1.88-1.88 6.12-6.12-6.12-6.12 1.88-1.88 6.12 6.12 6.12-6.12 1.88 1.88M29.133 12h-6.507v-1.333l1.187-1.093c1.013-0.853 1.76-1.573 2.267-2.173 0.493-0.587 0.747-1.133 0.76-1.64 0.002-0.025 0.003-0.054 0.003-0.083 0-0.334-0.139-0.636-0.363-0.85l-0-0c-0.24-0.253-0.627-0.373-1.147-0.387-0.413 0.013-0.773 0.093-1.12 0.227l-0.88 0.52-0.6-1.56c0.36-0.293 0.787-0.52 1.307-0.707s1.093-0.253 1.72-0.253c1.040 0 1.84 0.267 2.373 0.813 0.533 0.52 0.827 1.24 0.827 2.093-0.013 0.747-0.253 1.44-0.72 2.067-0.453 0.64-1.013 1.24-1.693 1.813l-0.853 0.693v0.027h3.44v1.827z"></path>
</svg>
