<!-- Generated by IcoMoon.io -->
<svg version="1.1" xmlns="http://www.w3.org/2000/svg" width="32" height="32" viewBox="0 0 32 32">
<title>foursquare</title>
<path d="M22.667 6.667l-0.573 3.333c-0.093 0.307-0.493 0.667-0.88 0.667h-5.213c-0.627 0-1.4 0.427-1.4 1.053v0.547c0 0.627 0.773 1.067 1.4 1.067h4.373c0.44 0 0.867 0.48 0.773 0.947-0.093 0.48-1.227 3.427-1.28 3.72-0.053 0.227-0.347 0.667-0.867 0.667h-3.84c-0.693 0-0.907 0.093-1.373 0.667-0.453 0.587-4.093 4.8-4.093 4.8-0.040 0.040-0.36-0.080-0.36-0.133v-17.333c0-0.4 0.813-1.333 1.333-1.333h11.333c0.427 0 0.773 0.813 0.667 1.333M22.667 19.267c0.147-0.64 2.373-10.307 2.96-13.2M23.44 2.667h-14.227c-1.973 0-2.547 1.48-2.547 2.4v22.613c0 1.040 0.56 1.44 0.88 1.56 0.32 0.133 1.187 0.24 1.707-0.36 0 0 6.28-7.253 6.4-7.373 0.173-0.173 0.173-0.173 0.347-0.173h4.347c1.827 0 2.12-1.333 2.32-2.067 0.147-0.64 2.373-10.307 2.96-13.2 0.453-2.213-0.107-3.4-2.187-3.4z"></path>
</svg>
