<!-- Generated by IcoMoon.io -->
<svg version="1.1" xmlns="http://www.w3.org/2000/svg" width="32" height="32" viewBox="0 0 32 32">
<title>gavel</title>
<path d="M3.067 27.040l12.8-12.8-1.867-1.893-0.96 0.947c-0.24 0.241-0.573 0.39-0.94 0.39s-0.7-0.149-0.94-0.39l-0.947-0.947c-0.241-0.24-0.39-0.573-0.39-0.94s0.149-0.7 0.39-0.94l7.547-7.547c0.24-0.241 0.573-0.39 0.94-0.39s0.7 0.149 0.94 0.39l0.947 0.947c0.52 0.52 0.52 1.36 0 1.88l-0.947 0.92 1.893 1.907c0.24-0.241 0.573-0.39 0.94-0.39s0.7 0.149 0.94 0.39l0 0c0.52 0.52 0.52 1.373 0 1.893l1.88 1.88 0.947-0.947c0.52-0.52 1.373-0.52 1.893 0l0.933 0.947c0.52 0.52 0.52 1.373 0 1.893l-7.533 7.533c-0.52 0.52-1.373 0.52-1.893 0l-0.933-0.933c-0.247-0.24-0.4-0.576-0.4-0.947s0.153-0.707 0.4-0.946l0-0 0.933-0.947-1.88-1.88-12.813 12.813c-0.24 0.241-0.573 0.39-0.94 0.39s-0.7-0.149-0.94-0.39l-0-0c-0.52-0.52-0.52-1.373 0-1.893M26.667 25.333c1.473 0 2.667 1.194 2.667 2.667v0 1.333h-13.333v-1.333c0-1.473 1.194-2.667 2.667-2.667v0h8z"></path>
</svg>
