<!-- Generated by IcoMoon.io -->
<svg version="1.1" xmlns="http://www.w3.org/2000/svg" width="32" height="32" viewBox="0 0 32 32">
<title>gender-female</title>
<path d="M16 5.333c4.418 0 8 3.582 8 8v0c0 3.96-2.88 7.253-6.667 7.893v2.773h2.667v2.667h-2.667v2.667h-2.667v-2.667h-2.667v-2.667h2.667v-2.773c-3.787-0.64-6.667-3.933-6.667-7.893 0-4.418 3.582-8 8-8v0M16 8c-2.946 0-5.333 2.388-5.333 5.333v0c0 2.946 2.388 5.333 5.333 5.333v0c2.946 0 5.333-2.388 5.333-5.333v0c0-2.946-2.388-5.333-5.333-5.333v0z"></path>
</svg>
