<!-- Generated by IcoMoon.io -->
<svg version="1.1" xmlns="http://www.w3.org/2000/svg" width="32" height="32" viewBox="0 0 32 32">
<title>gender-male</title>
<path d="M12 12c1.72 0 3.333 0.547 4.627 1.48l6.813-6.813h-6.107v-2.667h10.667v10.667h-2.667v-6.12l-6.813 6.787c0.933 1.333 1.48 2.933 1.48 4.667 0 4.418-3.582 8-8 8v0c-4.418 0-8-3.582-8-8v0c0-4.418 3.582-8 8-8v0M12 14.667c-2.946 0-5.333 2.388-5.333 5.333v0c0 2.946 2.388 5.333 5.333 5.333v0c2.946 0 5.333-2.388 5.333-5.333v0c0-2.946-2.388-5.333-5.333-5.333v0z"></path>
</svg>
