<!-- Generated by IcoMoon.io -->
<svg version="1.1" xmlns="http://www.w3.org/2000/svg" width="32" height="32" viewBox="0 0 32 32">
<title>gender-transgender</title>
<path d="M26.107 4h-6.107v-2.667h10.667v10.667h-2.667v-6.12l-6.44 6.44c0.694 1.036 1.108 2.31 1.108 3.681 0 3.211-2.269 5.891-5.292 6.525l-0.043 0.008v2.8h2.667v2.667h-2.667v2.667h-2.667v-2.667h-2.667v-2.667h2.667v-2.8c-3.064-0.643-5.331-3.322-5.331-6.532 0-1.36 0.407-2.625 1.107-3.68l-0.015 0.025-1.573-1.587-1.867 1.853-1.88-1.893 1.867-1.853-2.973-2.973v4.773h-2.667v-9.333h9.333v2.667h-4.787l2.973 2.987 1.92-1.907 1.893 1.893-1.92 1.907 1.56 1.573c1.027-0.707 2.36-1.12 3.693-1.12s2.613 0.4 3.667 1.107l6.44-6.44M16 12c-2.209 0-4 1.791-4 4v0c0 2.209 1.791 4 4 4v0c2.209 0 4-1.791 4-4v0c0-2.209-1.791-4-4-4v0z"></path>
</svg>
