<!-- Generated by IcoMoon.io -->
<svg version="1.1" xmlns="http://www.w3.org/2000/svg" width="32" height="32" viewBox="0 0 32 32">
<title>github-box</title>
<path d="M5.333 2.667h21.333c1.473 0 2.667 1.194 2.667 2.667v0 21.333c0 1.473-1.194 2.667-2.667 2.667h-6.867c-0.467-0.107-0.467-1.013-0.467-1.333v-3.653c0-1.24-0.44-2.053-0.92-2.467 2.973-0.333 6.093-1.453 6.093-6.547 0-1.48-0.507-2.667-1.373-3.613 0.133-0.333 0.6-1.72-0.133-3.52 0 0-1.12-0.36-3.667 1.36-1.053-0.293-2.2-0.44-3.333-0.44s-2.28 0.147-3.333 0.44c-2.547-1.72-3.667-1.36-3.667-1.36-0.733 1.8-0.267 3.187-0.133 3.52-0.867 0.947-1.373 2.133-1.373 3.613 0 5.080 3.107 6.227 6.067 6.56-0.373 0.333-0.72 0.92-0.84 1.787-0.76 0.32-2.72 0.92-3.88-1.107 0 0-0.707-1.28-2.040-1.373 0 0-1.307-0.027-0.133 0.8 0 0 0.907 0.413 1.52 1.96 0 0 0.787 2.587 4.48 1.787v2.253c0 0.32 0 1.227-0.48 1.333h-6.853c-1.473 0-2.667-1.194-2.667-2.667v-21.333c0-1.473 1.194-2.667 2.667-2.667v0z"></path>
</svg>
