<!-- Generated by IcoMoon.io -->
<svg version="1.1" xmlns="http://www.w3.org/2000/svg" width="32" height="32" viewBox="0 0 32 32">
<title>glass-tulip</title>
<path d="M10.667 2.667h10.667c-0.44 0.893-0.893 1.773-0.56 4s1.453 5.773 0.893 7.653c-0.56 1.867-2.773 2.053-3.893 4.16-1.107 2.107-1.107 6.147-0.333 8.053 0.787 1.907 2.333 1.693 3.12 1.8 0.773 0.107 0.773 0.56 0.773 1h-10.667c0-0.44 0-0.893 0.773-1 0.787-0.107 2.333 0.107 3.12-1.8 0.773-1.907 0.773-5.947-0.333-8.053-1.12-2.107-3.333-2.293-3.893-4.16-0.56-1.88 0.56-5.427 0.893-7.653s-0.12-3.107-0.56-4M13.333 5.333c0 1.587-0.227 2.893-0.48 4h6.173c-0.187-1.107-0.36-2.413-0.36-4h-5.333z"></path>
</svg>
