<!-- Generated by IcoMoon.io -->
<svg version="1.1" xmlns="http://www.w3.org/2000/svg" width="32" height="32" viewBox="0 0 32 32">
<title>gnome</title>
<path d="M24.56 2.667c-5.547 0-6.56 7.907-3.467 7.907 3.12 0 9.013-7.907 3.467-7.907M16 3.64c-0.107 0-0.2 0-0.293 0.013-3.12 0.4-2.027 5.84-0.373 5.933 1.627 0.107 3.387-5.947 0.667-5.947M10.573 5.787c-0.16 0-0.347 0.040-0.533 0.12-2.507 1.040-0.387 5.307 1.027 5.027 1.293-0.267 1.453-5.2-0.493-5.147M6.573 9.133c-0.213-0.013-0.453 0.067-0.693 0.24-2.013 1.387 0.667 4.733 1.853 4.213 1.027-0.453 0.373-4.4-1.16-4.453M17.72 11.693c-4.253 0.040-9.68 2.2-10.627 6.427-1.053 4.693 4.32 11.213 9.92 11.213 2.76 0 5.933-2.493 6.533-5.64 0.453-2.4-5.347-1.44-5.133 0.147 0.253 1.907-1.4 2.827-3.013 1.627-5.147-3.92 8.507-5.867 7.6-11.213-0.293-1.733-2.547-2.573-5.28-2.56z"></path>
</svg>
