<!-- Generated by IcoMoon.io -->
<svg version="1.1" xmlns="http://www.w3.org/2000/svg" width="32" height="32" viewBox="0 0 32 32">
<title>google-chrome</title>
<path d="M16 26.667l4.613-8h-0.013c0.453-0.8 0.733-1.693 0.733-2.667 0-1.6-0.72-3.027-1.84-4h6.387c0.507 1.24 0.787 2.587 0.787 4 0 5.891-4.776 10.667-10.667 10.667v0M5.333 16c0-1.947 0.52-3.76 1.427-5.333l4.627 8h0.013c0.92 1.587 2.6 2.667 4.6 2.667 0.6 0 1.173-0.12 1.72-0.307l-3.2 5.52c-5.187-0.72-9.187-5.16-9.187-10.547M20 16c0 2.209-1.791 4-4 4v0c-2.209 0-4-1.791-4-4v0c0-2.209 1.791-4 4-4v0c2.209 0 4 1.791 4 4v0M16 5.333c0.001 0 0.003 0 0.004 0 3.923 0 7.35 2.123 9.195 5.283l0.027 0.050h-9.227c-2.587 0-4.733 1.84-5.227 4.28l-3.173-5.507c1.965-2.509 4.995-4.107 8.399-4.107 0.001 0 0.001 0 0.002 0h-0M16 2.667c-7.364 0-13.333 5.97-13.333 13.333v0c0 7.364 5.97 13.333 13.333 13.333v0c7.364 0 13.333-5.97 13.333-13.333v0c0-7.364-5.97-13.333-13.333-13.333v0z"></path>
</svg>
