<!-- Generated by IcoMoon.io -->
<svg version="1.1" xmlns="http://www.w3.org/2000/svg" width="32" height="32" viewBox="0 0 32 32">
<title>google-circles-extended</title>
<path d="M24 25.333c-1.473 0-2.667-1.194-2.667-2.667v0c0-1.48 1.187-2.667 2.667-2.667 1.473 0 2.667 1.194 2.667 2.667v0c0 1.473-1.194 2.667-2.667 2.667v0M24 17.333c-2.946 0-5.333 2.388-5.333 5.333v0c0 2.946 2.388 5.333 5.333 5.333v0c2.946 0 5.333-2.388 5.333-5.333v0c0-2.946-2.388-5.333-5.333-5.333v0M16 14.8c-1.399 0-2.533 1.134-2.533 2.533v0c0 1.399 1.134 2.533 2.533 2.533v0c1.399 0 2.533-1.134 2.533-2.533v0c0-1.399-1.134-2.533-2.533-2.533v0M8 25.333c-1.473 0-2.667-1.194-2.667-2.667v0c0-1.48 1.187-2.667 2.667-2.667 1.473 0 2.667 1.194 2.667 2.667v0c0 1.473-1.194 2.667-2.667 2.667v0M8 17.333c-2.946 0-5.333 2.388-5.333 5.333v0c0 2.946 2.388 5.333 5.333 5.333v0c2.946 0 5.333-2.388 5.333-5.333v0c0-2.946-2.388-5.333-5.333-5.333v0M16 5.333c1.473 0 2.667 1.194 2.667 2.667v0c0 1.473-1.194 2.667-2.667 2.667v0c-1.473 0-2.667-1.194-2.667-2.667v0c0-1.48 1.187-2.667 2.667-2.667M16 13.333c2.946 0 5.333-2.388 5.333-5.333v0c0-2.946-2.388-5.333-5.333-5.333v0c-2.946 0-5.333 2.388-5.333 5.333v0c0 2.946 2.388 5.333 5.333 5.333v0z"></path>
</svg>
