<!-- Generated by IcoMoon.io -->
<svg version="1.1" xmlns="http://www.w3.org/2000/svg" width="32" height="32" viewBox="0 0 32 32">
<title>google-physical-web</title>
<path d="M16 2c6.627 0 12 5.373 12 12v0c0 3.48-1.48 6.627-3.853 8.813l-1.413-1.413c2.010-1.836 3.267-4.469 3.267-7.395 0-0.002 0-0.003 0-0.005v0c0-5.523-4.477-10-10-10v0c-5.523 0-10 4.477-10 10v0c0 2.933 1.267 5.573 3.267 7.4l-1.413 1.413c-2.373-2.187-3.853-5.333-3.853-8.813 0-6.627 5.373-12 12-12v0M16 6c4.418 0 8 3.582 8 8v0c0 2.373-1.040 4.52-2.667 6l-1.44-1.44c1.293-1.093 2.107-2.733 2.107-4.56 0-3.333-2.667-6-6-6s-6 2.667-6 6c0 1.827 0.813 3.467 2.107 4.56l-1.44 1.44c-1.627-1.48-2.667-3.627-2.667-6 0-4.418 3.582-8 8-8v0M10.813 23.533l4.24-4.253c0.52-0.52 1.373-0.52 1.893 0l4.24 4.253c0.52 0.52 0.52 1.36 0 1.88l-4.24 4.24c-0.52 0.52-1.373 0.52-1.893 0l-4.24-4.24c-0.241-0.24-0.39-0.573-0.39-0.94s0.149-0.7 0.39-0.94l0-0z"></path>
</svg>
