<!-- Generated by IcoMoon.io -->
<svg version="1.1" xmlns="http://www.w3.org/2000/svg" width="32" height="32" viewBox="0 0 32 32">
<title>google-plus-box</title>
<path d="M26.667 2.667c1.473 0 2.667 1.194 2.667 2.667v21.333c0 1.473-1.194 2.667-2.667 2.667h-21.333c-1.473 0-2.667-1.194-2.667-2.667v-21.333c0-1.473 1.194-2.667 2.667-2.667h21.333M26.667 16h-2.667v-2.667h-1.333v2.667h-2.667v1.333h2.667v2.667h1.333v-2.667h2.667v-1.333M12 15.053v2.28h3.813c-0.2 0.947-1.147 2.853-3.813 2.853-2.28 0-4.093-1.907-4.093-4.187s1.813-4.187 4.093-4.187c1.333 0 2.187 0.573 2.667 1.040l1.813-1.707c-1.147-1.147-2.667-1.813-4.48-1.813-3.72 0-6.667 2.947-6.667 6.667s2.947 6.667 6.667 6.667c3.813 0 6.387-2.667 6.387-6.48 0-0.467 0-0.76-0.107-1.133h-6.28z"></path>
</svg>
