<!-- Generated by IcoMoon.io -->
<svg version="1.1" xmlns="http://www.w3.org/2000/svg" width="32" height="32" viewBox="0 0 32 32">
<title>google-controller</title>
<path d="M10.627 21.333l-3.96 4c-0.44 0.4-1.027 0.667-1.667 0.667-1.289 0-2.333-1.045-2.333-2.333v0-0.333l1.333-9.84c0.285-3.089 2.862-5.489 6-5.493h12c3.147 0 5.72 2.413 6 5.493l1.333 9.84v0.333c0 1.289-1.045 2.333-2.333 2.333v0c-0.64 0-1.227-0.267-1.667-0.667l-3.96-4h-10.747M9.333 10.667v2.667h-2.667v1.333h2.667v2.667h1.333v-2.667h2.667v-1.333h-2.667v-2.667h-1.333M22 10.667c-0.552 0-1 0.448-1 1v0c0 0.552 0.448 1 1 1v0c0.552 0 1-0.448 1-1v0c0-0.552-0.448-1-1-1v0M19.667 13c-0.552 0-1 0.448-1 1v0c0 0.552 0.448 1 1 1v0c0.552 0 1-0.448 1-1v0c0-0.552-0.448-1-1-1v0M24.333 13c-0.552 0-1 0.448-1 1v0c0 0.552 0.448 1 1 1v0c0.552 0 1-0.448 1-1v0c0-0.552-0.448-1-1-1v0M22 15.333c-0.552 0-1 0.448-1 1v0c0 0.552 0.448 1 1 1v0c0.552 0 1-0.448 1-1v0c0-0.552-0.448-1-1-1v0z"></path>
</svg>
