<!-- Generated by IcoMoon.io -->
<svg version="1.1" xmlns="http://www.w3.org/2000/svg" width="32" height="32" viewBox="0 0 32 32">
<title>google-maps</title>
<path d="M6.667 5.333c-1.473 0-2.667 1.194-2.667 2.667v0 13.72l10.907-10.907c-0.153-0.63-0.24-1.353-0.24-2.097 0-0.003 0-0.007 0-0.010v0.001c0-1.213 0.267-2.36 0.787-3.373h-8.787M24 28c1.473 0 2.667-1.194 2.667-2.667v0-9.52c-1.013 1.52-2.253 3.133-3.613 4.853l-1.053 1.333-1.040-1.333c-1.773-2.2-3.333-4.24-4.44-6.12-0.453-0.773-0.84-1.533-1.147-2.307l-5.427 5.427 10.333 10.333h3.72M4 25.333c0 1.473 1.194 2.667 2.667 2.667v0h11.72l-9.387-9.387-5 5v1.72M22 20c3.48-4.493 6-7.867 6-11.24 0-3.36-2.667-6.093-6-6.093s-6 2.733-6 6.093c0 3.373 2.493 6.747 6 11.24M24.667 8.667c0 1.473-1.194 2.667-2.667 2.667v0c-1.473 0-2.667-1.194-2.667-2.667v0c0-1.473 1.194-2.667 2.667-2.667v0c1.473 0 2.667 1.194 2.667 2.667v0z"></path>
</svg>
