<!-- Generated by IcoMoon.io -->
<svg version="1.1" xmlns="http://www.w3.org/2000/svg" width="32" height="32" viewBox="0 0 32 32">
<title>google-circles-group</title>
<path d="M6.667 13.333c-1.473 0-2.667 1.194-2.667 2.667v0c0 1.473 1.194 2.667 2.667 2.667v0c1.48 0 2.667-1.187 2.667-2.667 0-1.473-1.194-2.667-2.667-2.667v0M6.667 21.333c-2.946 0-5.333-2.388-5.333-5.333v0c0-2.946 2.388-5.333 5.333-5.333v0c2.946 0 5.333 2.388 5.333 5.333v0c0 2.946-2.388 5.333-5.333 5.333v0M14 14.667h4.667v-4l5.333 5.333-5.333 5.333v-4h-4.667v-2.667M6.667 8c-0.6 0-1.187 0.067-1.747 0.187 2.587-4.12 7.187-6.853 12.413-6.853 8.107 0 14.667 6.56 14.667 14.667s-6.56 14.667-14.667 14.667c-5.227 0-9.827-2.733-12.413-6.853 0.56 0.12 1.147 0.187 1.747 0.187 1.067 0 2.080-0.213 3-0.587 1.933 2.007 4.643 3.253 7.645 3.253 0.008 0 0.016 0 0.023-0h-0.001c5.891 0 10.667-4.776 10.667-10.667v0c0-5.891-4.776-10.667-10.667-10.667v0c-3.013 0-5.72 1.24-7.667 3.253-0.92-0.373-1.933-0.587-3-0.587z"></path>
</svg>
