<!-- Generated by IcoMoon.io -->
<svg version="1.1" xmlns="http://www.w3.org/2000/svg" width="32" height="32" viewBox="0 0 32 32">
<title>google-circles</title>
<path d="M22.213 20h0.453c1.333 0 2.667-0.267 3.827-0.72-0.933 5.693-5.867 10.053-11.827 10.053-6.667 0-12-5.373-12-12 0-5.96 4.36-10.893 10.053-11.827-0.453 1.16-0.72 2.493-0.72 3.827v0.453c-3.093 1.093-5.333 4.053-5.333 7.547 0 4.418 3.582 8 8 8v0c3.493 0 6.453-2.24 7.547-5.333M22.667 13.333c2.209 0 4-1.791 4-4v0c0-2.209-1.791-4-4-4v0c-2.209 0-4 1.791-4 4v0c0 2.209 1.791 4 4 4v0M22.667 1.333c4.418 0 8 3.582 8 8v0c0 4.418-3.582 8-8 8v0c-4.418 0-8-3.582-8-8v0c0-4.427 3.587-8 8-8z"></path>
</svg>
