<!-- Generated by IcoMoon.io -->
<svg version="1.1" xmlns="http://www.w3.org/2000/svg" width="32" height="32" viewBox="0 0 32 32">
<title>google-cardboard</title>
<path d="M27.653 8h-23.387c-0.867 0-1.6 0.76-1.6 1.693v13.947c0 0.933 0.733 1.693 1.64 1.693h6.36c0.72 0 1.333-0.427 1.547-1.053l1.853-4.627c0.32-0.773 1.067-1.32 1.933-1.32s1.613 0.547 1.933 1.32l1.853 4.627c0.253 0.627 0.827 1.053 1.48 1.053h6.387c0.947 0 1.68-0.76 1.68-1.693v-13.947c0-0.933-0.733-1.693-1.68-1.693M9.627 19.44c-1.627 0-2.96-1.373-2.96-3.053 0-1.72 1.333-3.053 2.96-3.053s2.947 1.333 2.947 3.053c0 1.68-1.32 3.053-2.947 3.053M22.373 19.44c-1.627 0-2.947-1.373-2.947-3.053s1.32-3.053 2.947-3.053 2.96 1.373 2.96 3.053-1.333 3.053-2.96 3.053z"></path>
</svg>
