<!-- Generated by IcoMoon.io -->
<svg version="1.1" xmlns="http://www.w3.org/2000/svg" width="32" height="32" viewBox="0 0 32 32">
<title>google-keep</title>
<path d="M5.333 2.667h21.333c1.473 0 2.667 1.194 2.667 2.667v0 17.773l-6.227 6.227h-17.773c-1.473 0-2.667-1.194-2.667-2.667v-21.333c0-1.473 1.194-2.667 2.667-2.667v0M22.667 22.667v4.333l4.333-4.333h-4.333M13.333 25.333h5.333v-1.333h1.333v-6.667c1.613-1.213 2.667-3.147 2.667-5.333 0-3.682-2.985-6.667-6.667-6.667v0c-3.682 0-6.667 2.985-6.667 6.667v0c0 2.187 1.053 4.12 2.667 5.333v6.667h1.333v1.333M18.667 22.667h-5.333v-1.333h5.333v1.333M18.667 20h-5.333v-1.333h5.333v1.333M16 6.667c2.946 0 5.333 2.388 5.333 5.333v0c0 2-1.067 3.693-2.667 4.613v0.72h-5.333v-0.72c-1.6-0.92-2.667-2.613-2.667-4.613 0-2.946 2.388-5.333 5.333-5.333v0z"></path>
</svg>
