<!-- Generated by IcoMoon.io -->
<svg version="1.1" xmlns="http://www.w3.org/2000/svg" width="32" height="32" viewBox="0 0 32 32">
<title>grease-pencil</title>
<path d="M24.827 2c-0.68 0-1.36 0.253-1.88 0.787l-8.613 8.613 5.6 5.587 8.613-8.6c1.053-1.053 1.053-2.733 0-3.773l-1.827-1.827c-0.52-0.533-1.2-0.787-1.893-0.787M13.067 12.667l-8.76 8.76 0.933 0.933c-0.707 0.627-1.387 1.347-2.067 2.027-1.040 1.053-1.040 2.733 0 3.773s2.72 1.040 3.773 0c0.68-0.653 1.387-1.387 2.027-2.053l0.933 0.92 8.76-8.76"></path>
</svg>
