<!-- Generated by IcoMoon.io -->
<svg version="1.1" xmlns="http://www.w3.org/2000/svg" width="32" height="32" viewBox="0 0 32 32">
<title>grid-off</title>
<path d="M0 3.693l1.707-1.693 28.293 28.293-1.693 1.707-2.667-2.667h-20.307c-1.44 0-2.667-1.2-2.667-2.667v-20.307l-2.667-2.667M13.333 5.333v4.907l-2.667-2.667v-2.24h-2.24l-2.667-2.667h20.907c1.473 0 2.667 1.194 2.667 2.667v20.933l-2.667-2.667v-2.267h-2.24l-2.667-2.667h4.907v-5.333h-5.333v4.907l-2.667-2.667v-2.24h-2.24l-2.667-2.667h4.907v-5.333h-5.333M21.333 5.333v5.333h5.333v-5.333h-5.333M21.333 26.667h1.64l-1.64-1.64v1.64M5.333 10.667h1.64l-1.64-1.64v1.64M13.333 18.667h1.64l-1.64-1.64v1.64M18.667 26.667v-4.307l-1.027-1.027h-4.307v5.333h5.333M10.667 26.667v-5.333h-5.333v5.333h5.333M10.667 18.667v-4.307l-1.027-1.027h-4.307v5.333h5.333z"></path>
</svg>
