<!-- Generated by IcoMoon.io -->
<svg version="1.1" xmlns="http://www.w3.org/2000/svg" width="32" height="32" viewBox="0 0 32 32">
<title>group</title>
<path d="M10.667 10.667v5.333h6.667v-5.333h-6.667M1.333 1.333h5.333v1.333h18.667v-1.333h5.333v5.333h-1.333v18.667h1.333v5.333h-5.333v-1.333h-18.667v1.333h-5.333v-5.333h1.333v-18.667h-1.333v-5.333M6.667 25.333v1.333h18.667v-1.333h1.333v-18.667h-1.333v-1.333h-18.667v1.333h-1.333v18.667h1.333M8 8h12v5.333h4v10.667h-13.333v-5.333h-2.667v-10.667M20 18.667h-6.667v2.667h8v-5.333h-1.333v2.667z"></path>
</svg>
