<!-- Generated by IcoMoon.io -->
<svg version="1.1" xmlns="http://www.w3.org/2000/svg" width="32" height="32" viewBox="0 0 32 32">
<title>guitar-pick</title>
<path d="M25.333 5.467c-1.2-1.067-2.667-1.733-4.267-2.133-0.4-0.133-2.933-0.667-4.8-0.667h-0.533c-1.867 0-4.533 0.533-4.933 0.667-1.467 0.4-2.933 1.067-4.133 2.133-2.667 2.4-2.667 6.133-1.333 9.2 1.333 3.333 2.8 6.267 4.8 9.2 1.6 2.267 3.333 5.467 5.867 5.467s4.267-3.2 6-5.467c2-2.8 3.467-5.867 4.8-9.2 1.2-3.067 1.2-6.8-1.467-9.2z"></path>
</svg>
