<!-- Generated by IcoMoon.io -->
<svg version="1.1" xmlns="http://www.w3.org/2000/svg" width="32" height="32" viewBox="0 0 32 32">
<title>guitar-electric</title>
<path d="M27.333 2.667l-2.467 2.773 0.24 0.24-11.173 10.533c-0.293 0.293-1.333 0.787-1.587 0.16-0.6-1.547 1.293-1.707 0.987-1.973-1.413-0.693-3.027 0.507-3.107 0.573-0.973 0.733-1.56 1.6-1.88 2.533-0.4 1.213-1.453 1.36-2.040 1.387-1.453 0.093-2.307 0.48-2.973 1.413-0.307 0.413-0.8 1.027-0.667 2.307 0.213 1.387 1.267 3.16 2.080 4.053 0.867 0.92 1.987 1.84 3 2.333 0.72 0.333 1.16 0.44 2.213 0.173 0.933-0.24 1.853-0.987 2.24-1.973 0.32-0.853 0.36-1.467 0.507-2.16 0.187-0.893 0.307-1.040 1.253-1.467 0.893-0.387 1.373-0.44 2.107-1.2 0.52-0.547 0.787-1.133 0.947-1.76 0.133-0.533 0.227-1.2-0.027-1.28-0.227-0.2-0.627 1.080-1.573 0.48-0.68-0.427-0.6-1.493-0.013-2.093 3.813-3.88 6.933-7.053 10.773-10.933l0.307 0.307 2.853-2.427z"></path>
</svg>
