<!-- Generated by IcoMoon.io -->
<svg version="1.1" xmlns="http://www.w3.org/2000/svg" width="32" height="32" viewBox="0 0 32 32">
<title>hanger</title>
<path d="M27.68 21.787h-0.013c1 0.573 1.667 1.653 1.667 2.88 0 1.841-1.492 3.333-3.333 3.333v0h-20c-1.841 0-3.333-1.492-3.333-3.333v0c0-1.227 0.667-2.307 1.667-2.88h-0.013l10.347-5.973s0-1.147 1.333-2.48c1.333 0 2.667-1.2 2.667-2.667 0-1.473-1.194-2.667-2.667-2.667v0c-1.473 0-2.667 1.194-2.667 2.667v0h-2.667c0-2.946 2.388-5.333 5.333-5.333v0c2.946 0 5.333 2.388 5.333 5.333v0c-0.002 2.47-1.683 4.547-3.963 5.152l-0.037 0.008 10.347 5.96M6 25.333h20c0.227 0 0.453-0.12 0.573-0.333 0.187-0.333 0.093-0.72-0.24-0.907l-10.333-5.973-10.333 5.973c-0.333 0.187-0.427 0.573-0.24 0.907 0.12 0.213 0.347 0.333 0.573 0.333z"></path>
</svg>
