<!-- Generated by IcoMoon.io -->
<svg version="1.1" xmlns="http://www.w3.org/2000/svg" width="32" height="32" viewBox="0 0 32 32">
<title>headphones-settings</title>
<path d="M16 1.333c6.627 0 12 5.373 12 12v0 9.333c0 2.209-1.791 4-4 4v0h-4v-10.667h5.333v-2.667c0-5.155-4.179-9.333-9.333-9.333v0c-5.155 0-9.333 4.179-9.333 9.333v0 2.667h5.333v10.667h-4c-2.209 0-4-1.791-4-4v0-9.333c0-6.627 5.373-12 12-12v0M20 32v-2.667h2.667v2.667h-2.667M14.667 32v-2.667h2.667v2.667h-2.667M9.333 32v-2.667h2.667v2.667h-2.667z"></path>
</svg>
