<!-- Generated by IcoMoon.io -->
<svg version="1.1" xmlns="http://www.w3.org/2000/svg" width="32" height="32" viewBox="0 0 32 32">
<title>headphones-box</title>
<path d="M9.6 24c-0.88 0-1.6-0.72-1.6-1.6v-6.4c0-4.418 3.582-8 8-8v0c4.418 0 8 3.582 8 8v0 6.4c0 0.884-0.716 1.6-1.6 1.6v0h-3.733v-5.333h2.667v-2.667c0-2.946-2.388-5.333-5.333-5.333v0c-2.946 0-5.333 2.388-5.333 5.333v0 2.667h2.667v5.333M25.333 4h-18.667c-1.48 0-2.667 1.187-2.667 2.667v18.667c0 1.473 1.194 2.667 2.667 2.667v0h18.667c1.473 0 2.667-1.194 2.667-2.667v0-18.667c0-1.473-1.194-2.667-2.667-2.667v0z"></path>
</svg>
