<!-- Generated by IcoMoon.io -->
<svg version="1.1" xmlns="http://www.w3.org/2000/svg" width="32" height="32" viewBox="0 0 32 32">
<title>heart-pulse</title>
<path d="M10 5.333c-4.050 0-7.333 3.283-7.333 7.333v0c0 0.667 0.12 1.333 0.293 2h5.44l1.693-4.493c0.4-1.067 1.973-1.173 2.48 0l2.76 7.16 0.787-1.893c0.173-0.44 0.64-0.773 1.213-0.773h11.707c0.173-0.667 0.293-1.333 0.293-2 0-4.050-3.283-7.333-7.333-7.333v0c-2.48 0-4.667 1.24-6 3.12-1.333-1.88-3.52-3.12-6-3.12M4 16.667c-0.736 0-1.333 0.597-1.333 1.333v0c0 0.736 0.597 1.333 1.333 1.333v0h3.253l7.413 7.333c1.333 1.2 1.333 1.2 2.667 0l7.413-7.333h3.253c0.736 0 1.333-0.597 1.333-1.333v0c0-0.736-0.597-1.333-1.333-1.333v0h-10.133l-1.24 3.067c-0.533 1.347-2.067 1.16-2.56 0.040l-2.733-7.107-1.28 3.107c-0.2 0.507-0.653 0.893-1.253 0.893h-4.8z"></path>
</svg>
