<!-- Generated by IcoMoon.io -->
<svg version="1.1" xmlns="http://www.w3.org/2000/svg" width="32" height="32" viewBox="0 0 32 32">
<title>heart-box-outline</title>
<path d="M16 22.667l-0.96-0.88c-3.44-3.12-5.707-5.173-5.707-7.693 0-2.053 1.613-3.667 3.667-3.667 1.16 0 2.267 0.547 3 1.4 0.733-0.853 1.84-1.4 3-1.4 2.053 0 3.667 1.613 3.667 3.667 0 2.52-2.267 4.573-5.707 7.693l-0.96 0.88M6.667 4h18.667c1.473 0 2.667 1.194 2.667 2.667v0 18.667c0 1.473-1.194 2.667-2.667 2.667v0h-18.667c-1.473 0-2.667-1.194-2.667-2.667v0-18.667c0-1.473 1.194-2.667 2.667-2.667v0M6.667 6.667v18.667h18.667v-18.667h-18.667z"></path>
</svg>
