<!-- Generated by IcoMoon.io -->
<svg version="1.1" xmlns="http://www.w3.org/2000/svg" width="32" height="32" viewBox="0 0 32 32">
<title>heart-half-outline</title>
<path d="M22 6.667c-2 0-3.893 1.213-4.667 2.933v14.053c5.667-5.16 9.333-8.72 9.333-12.32 0-2.667-2-4.667-4.667-4.667M22 4c4.107 0 7.333 3.213 7.333 7.333 0 5.027-4.533 9.147-11.4 15.373l-1.933 1.76-1.933-1.76c-6.867-6.227-11.4-10.347-11.4-15.373 0-4.12 3.227-7.333 7.333-7.333 2.32 0 4.547 1.080 6 2.773 1.453-1.693 3.68-2.773 6-2.773z"></path>
</svg>
