<!-- Generated by IcoMoon.io -->
<svg version="1.1" xmlns="http://www.w3.org/2000/svg" width="32" height="32" viewBox="0 0 32 32">
<title>human-handsup</title>
<path d="M6.667 1.333c0 3.6 2.080 6.88 5.333 8.427v19.573h2.667v-9.333h2.667v9.333h2.667v-19.587c3.253-1.533 5.333-4.813 5.333-8.413h-2.667c0 3.682-2.985 6.667-6.667 6.667v0c-3.682 0-6.667-2.985-6.667-6.667v0M16 1.333c-1.48 0-2.667 1.187-2.667 2.667s1.187 2.667 2.667 2.667c1.48 0 2.667-1.187 2.667-2.667s-1.187-2.667-2.667-2.667z"></path>
</svg>
