<!-- Generated by IcoMoon.io -->
<svg version="1.1" xmlns="http://www.w3.org/2000/svg" width="32" height="32" viewBox="0 0 32 32">
<title>human-handsdown</title>
<path d="M16 1.333c-1.473 0-2.667 1.194-2.667 2.667v0c0 1.48 1.187 2.667 2.667 2.667s2.667-1.187 2.667-2.667c0-1.473-1.194-2.667-2.667-2.667v0M13.333 8c-0.36 0-0.667 0.147-0.92 0.373h-0.013l-7.067 7.080 1.893 1.88 4.773-4.787v16.787h2.667v-9.333h2.667v9.333h2.667v-16.787l4.773 4.787 1.893-1.88-7.067-7.080c-0.267-0.227-0.573-0.373-0.933-0.373"></path>
</svg>
