<!-- Generated by IcoMoon.io -->
<svg version="1.1" xmlns="http://www.w3.org/2000/svg" width="32" height="32" viewBox="0 0 32 32">
<title>image-filter-tilt-shift</title>
<path d="M7.573 26.32c1.938 1.598 4.37 2.663 7.036 2.942l0.057 0.005v-2.693c-1.989-0.255-3.761-1.028-5.223-2.177l0.023 0.017M17.333 26.573v2.693c2.667-0.267 5.12-1.333 7.093-2.947l-1.907-1.907c-1.467 1.147-3.24 1.92-5.187 2.16M24.413 22.533l1.907 1.907c1.613-1.973 2.68-4.44 2.947-7.107h-2.693c-0.255 1.989-1.028 3.761-2.177 5.223l0.017-0.023M20 16c0-2.209-1.791-4-4-4v0c-2.209 0-4 1.791-4 4v0c0 2.209 1.791 4 4 4v0c2.209 0 4-1.791 4-4v0M5.427 17.333h-2.693c0.267 2.667 1.333 5.12 2.947 7.093l1.907-1.907c-1.134-1.434-1.907-3.202-2.155-5.134l-0.005-0.052M7.587 9.467l-1.907-1.893c-1.598 1.938-2.663 4.37-2.942 7.036l-0.005 0.057h2.693c0.24-1.947 1.013-3.72 2.16-5.2M26.573 14.667h2.693c-0.267-2.667-1.333-5.12-2.947-7.093l-1.907 1.893c1.132 1.439 1.905 3.211 2.154 5.147l0.006 0.053M24.427 5.68c-1.938-1.598-4.37-2.663-7.036-2.942l-0.057-0.005v2.693c1.947 0.24 3.72 1.013 5.2 2.16M14.667 5.427v-2.693c-2.667 0.267-5.12 1.333-7.093 2.947l1.893 1.907c1.439-1.132 3.211-1.905 5.147-2.154l0.053-0.006z"></path>
</svg>
