<!-- Generated by IcoMoon.io -->
<svg version="1.1" xmlns="http://www.w3.org/2000/svg" width="32" height="32" viewBox="0 0 32 32">
<title>image-filter-vintage</title>
<path d="M16 21.333c-2.946 0-5.333-2.388-5.333-5.333v0c0-2.946 2.388-5.333 5.333-5.333v0c2.946 0 5.333 2.388 5.333 5.333v0c0 2.946-2.388 5.333-5.333 5.333v0M24.933 16.533c-0.321-0.186-0.699-0.365-1.091-0.515l-0.055-0.019c0.387-0.147 0.773-0.32 1.147-0.533 2.56-1.467 3.987-4.133 4-6.92-1.148-0.673-2.527-1.070-4-1.070s-2.852 0.397-4.038 1.091l0.038-0.020c-0.373 0.213-0.72 0.467-1.040 0.72 0.067-0.413 0.107-0.84 0.107-1.267 0-2.96-1.613-5.533-4-6.92-2.387 1.387-4 3.96-4 6.92 0 0.427 0.040 0.853 0.107 1.267-0.32-0.267-0.667-0.52-1.040-0.733-1.148-0.673-2.527-1.070-4-1.070s-2.852 0.397-4.038 1.091l0.038-0.020c0 2.76 1.427 5.467 4 6.92 0.373 0.213 0.76 0.387 1.147 0.547-0.387 0.133-0.773 0.307-1.147 0.52-2.406 1.408-3.997 3.978-4 6.92v0c1.148 0.673 2.527 1.070 4 1.070s2.852-0.397 4.038-1.091l-0.038 0.020c0.373-0.213 0.72-0.467 1.040-0.72-0.067 0.427-0.107 0.853-0.107 1.28 0 2.96 1.613 5.533 4 6.92 2.387-1.387 4-3.96 4-6.92 0-0.427-0.040-0.853-0.107-1.267 0.32 0.267 0.667 0.507 1.040 0.72 1.148 0.673 2.527 1.070 4 1.070s2.852-0.397 4.038-1.091l-0.038 0.020c-0.013-2.787-1.44-5.453-4-6.92z"></path>
</svg>
