<!-- Generated by IcoMoon.io -->
<svg version="1.1" xmlns="http://www.w3.org/2000/svg" width="32" height="32" viewBox="0 0 32 32">
<title>infinity</title>
<path d="M24.8 8.827c3.973 0 7.2 3.173 7.2 7.173 0 3.947-3.227 7.16-7.2 7.16-1.933 0-3.733-0.747-5.093-2.093l-3.707-3.28-3.773 3.347c-1.293 1.293-3.107 2.040-5.027 2.040-3.973 0-7.2-3.227-7.2-7.173s3.227-7.173 7.2-7.173c1.92 0 3.733 0.747 5.093 2.107l3.707 3.28 3.773-3.347c1.293-1.293 3.107-2.040 5.027-2.040M10.4 19.187l3.6-3.187-3.547-3.133c-0.907-0.907-2.040-1.373-3.253-1.373-2.493 0-4.533 2.013-4.533 4.507s2.040 4.507 4.533 4.507c1.213 0 2.347-0.467 3.2-1.32M21.6 12.813l-3.6 3.187 3.547 3.133c0.907 0.907 2.053 1.373 3.253 1.373 2.493 0 4.533-2.013 4.533-4.507s-2.040-4.507-4.533-4.507c-1.213 0-2.347 0.467-3.2 1.32z"></path>
</svg>
