<!-- Generated by IcoMoon.io -->
<svg version="1.1" xmlns="http://www.w3.org/2000/svg" width="32" height="32" viewBox="0 0 32 32">
<title>information-variant</title>
<path d="M18 5.333c-1.105 0-2 0.895-2 2v0c0 1.105 0.895 2 2 2v0c1.105 0 2-0.895 2-2v0c0-1.105-0.895-2-2-2v0M17.52 11.693c-1.587 0.133-5.92 3.587-5.92 3.587-0.267 0.2-0.187 0.187 0.027 0.56 0.213 0.36 0.187 0.387 0.44 0.213 0.267-0.173 0.707-0.453 1.44-0.907 2.827-1.813 0.453 2.373-0.76 9.427-0.48 3.493 2.667 1.693 3.48 1.16 0.8-0.52 2.947-2 3.16-2.147 0.293-0.2 0.080-0.36-0.147-0.693-0.16-0.227-0.32-0.067-0.32-0.067-0.867 0.573-2.453 1.773-2.667 1.013-0.253-0.76 1.373-5.973 2.267-9.56 0.147-0.853 0.547-2.72-1-2.587z"></path>
</svg>
