<!-- Generated by IcoMoon.io -->
<svg version="1.1" xmlns="http://www.w3.org/2000/svg" width="32" height="32" viewBox="0 0 32 32">
<title>internet-explorer</title>
<path d="M17.333 4l1.333 0.080c3.733-1.693 6.973-1.893 8.667-0.187 1.333 1.347 1.44 3.667 0.56 6.4 0.907 1.645 1.44 3.605 1.44 5.69 0 0.006 0 0.012 0 0.018v-0.001l-0.067 1.333h-17.16c0.493 3.040 2.64 5.333 5.227 5.333 1.747 0 3.293-1.053 4.267-2.667h7.067c-1.667 4.667-6.107 8-11.333 8-1.707 0-3.333-0.36-4.787-1-3.88 1.907-7.36 2.2-9.12 0.413-2.093-2.133-1.187-6.653 1.907-11.413 1.24-1.947 2.853-3.92 4.76-5.8l1.080-1.027c-1.56 0.92-3.56 2.32-5.587 4.387 1.171-5.496 5.984-9.559 11.746-9.56h0M17.333 9.333c-2.387 0-4.413 1.96-5.093 4.667h10.187c-0.68-2.707-2.707-4.667-5.093-4.667M26.747 5.413c-0.88-0.893-2.453-0.947-4.427-0.333 1.973 0.92 3.68 2.333 4.893 4.107 0.427-1.653 0.307-2.987-0.467-3.773M5.187 26.667c1.107 1.12 3.347 0.92 6.067-0.32-2.465-1.472-4.329-3.73-5.268-6.422l-0.026-0.085c-1.6 3.027-1.96 5.587-0.773 6.827z"></path>
</svg>
