<!-- Generated by IcoMoon.io -->
<svg version="1.1" xmlns="http://www.w3.org/2000/svg" width="32" height="32" viewBox="0 0 32 32">
<title>itunes</title>
<path d="M10.467 22.76c-1.093 0.133-5.8 0.8-5.053 4.253 0.84 4.053 7.747 3.107 7.693-1.68-0.027-3.24 0-13.067 0-13.067s-0.093-0.893 0.8-1.080l10.347-2.133s0.853-0.187 0.853 0.667v9.213s0.093 0.84-0.947 1.067c-1.040 0.16-5.613 0.533-5.24 4 0.413 4.093 7.747 3.533 7.747-1.24v-19.28s0.053-1.32-1.467-0.987l-12.533 2.547s-1.12 0.24-1.12 1.32v15.12s0 1.133-1.080 1.28z"></path>
</svg>
