<!-- Generated by IcoMoon.io -->
<svg version="1.1" xmlns="http://www.w3.org/2000/svg" width="32" height="32" viewBox="0 0 32 32">
<title>jira</title>
<path d="M16 2.667c1.163 0 2.107 0.943 2.107 2.107v0c0 1.163-0.943 2.107-2.107 2.107v0c-1.163 0-2.107-0.943-2.107-2.107v0c0-1.163 0.943-2.107 2.107-2.107v0M10.387 4.067c1.16 0 2.107 0.947 2.107 2.107s-0.947 2.107-2.107 2.107c-1.163 0-2.107-0.943-2.107-2.107v0c0-1.163 0.943-2.107 2.107-2.107v0M21.613 4.067c1.16 0 2.107 0.947 2.107 2.107s-0.947 2.107-2.107 2.107c-1.163 0-2.107-0.943-2.107-2.107v0c0-1.163 0.943-2.107 2.107-2.107v0M15.733 14.6c-2.8-2.813-2.107-4.213-2.107-4.213h4.92c0 2.107-2.813 4.213-2.813 4.213M18.547 28.627s0-2.8-5.613-8.413c-5.6-5.613-6.32-7.027-7.027-11.227 0 0 0.533-0.707 1.24 0 0.693 0.693 2.28 1.227 3.68 1.227 0 0 1.4 4.387 5.267 7.187 0 0 5.080-5.253 5.080-7.36 0 0 1.587 0.347 3.493-1.053 0 0 1.333-0.707 1.427 0 0.173 1.4-1.24 6.307-7.027 11.227 0 0 3.693 4.213 3.333 8.413h-3.853M12.227 21.613l2.987 3.333c-1.4 1.4-1.587 4.387-1.587 4.387h-4.2c0.693-5.613 2.8-7.72 2.8-7.72z"></path>
</svg>
