<!-- Generated by IcoMoon.io -->
<svg version="1.1" xmlns="http://www.w3.org/2000/svg" width="32" height="32" viewBox="0 0 32 32">
<title>jsfiddle</title>
<path d="M27.107 14.387c2.093 0.867 3.56 2.893 3.56 5.253 0 3.147-2.587 5.693-5.773 5.693h-17.693c-3.2-0.053-5.867-2.667-5.867-5.84 0-2.12 1.16-3.987 2.893-5-0.12-0.373-0.173-0.773-0.173-1.16 0-2.213 1.8-4 4.027-4 0.92 0 1.773 0.333 2.453 0.853 1.458-2.929 4.431-4.907 7.865-4.907 0.005 0 0.010 0 0.015 0h-0.001c4.813 0 8.72 3.853 8.72 8.6 0 0.173-0.013 0.347-0.027 0.507M12.293 14.467c-2.36 0-4.293 1.693-4.293 3.76 0 2.080 1.933 3.773 4.293 3.773 1.373 0 2.6-0.587 3.387-1.48l-1.347-1.52c-0.44 0.573-1.307 1-2.040 1-1.053 0-1.907-0.8-1.907-1.773 0-0.96 0.853-1.747 1.907-1.747 0.627 0 1.2 0.307 1.787 0.693 0.587 0.373 1.56 1.72 2.333 2.587 1.947 1.96 2.96 2.133 4.12 2.133 2.36 0 4.267-1.693 4.267-3.76 0-2.080-1.907-3.76-4.267-3.76-1.387 0-2.613 0.573-3.4 1.467l1.347 1.493c0.44-0.547 1.307-0.96 2.053-0.96 1.053 0 1.907 0.787 1.907 1.76 0 0.96-0.853 1.747-1.907 1.747-0.627 0-1.2-0.307-1.8-0.693-0.587-0.373-1.56-1.72-2.32-2.587-1.96-1.933-2.973-2.133-4.12-2.133z"></path>
</svg>
