<!-- Generated by IcoMoon.io -->
<svg version="1.1" xmlns="http://www.w3.org/2000/svg" width="32" height="32" viewBox="0 0 32 32">
<title>keg</title>
<path d="M6.667 29.333v-2.667h1.333v-5.333h-1.333v-2.667h1.333v-4h-1.333v-5.333h8v-5.333h-1.333v-1.333h5.333v1.333h-1.333v5.333h8v5.333h-1.333v4h1.333v2.667h-1.333v5.333h1.333v2.667h-18.667M22.667 12c0-0.736-0.597-1.333-1.333-1.333h-2.667c-0.736 0-1.333 0.597-1.333 1.333v0c0 0.736 0.597 1.333 1.333 1.333h2.667c0.736 0 1.333-0.597 1.333-1.333v0z"></path>
</svg>
