<!-- Generated by IcoMoon.io -->
<svg version="1.1" xmlns="http://www.w3.org/2000/svg" width="32" height="32" viewBox="0 0 32 32">
<title>kettle</title>
<path d="M16.667 4c-6.253 0-11.333 3.587-11.333 8 0 1.587 0.667 3.12 1.92 4.44-1.194 1.517-1.916 3.454-1.92 5.559v4.668c0 1.48 1.187 2.667 2.667 2.667h17.333c1.48 0 2.667-1.187 2.667-2.667v-4.667c0-1.627-0.453-3.24-1.333-4.667l2.667-2.667-4-4-2.8 2.8c-1.685-0.924-3.693-1.467-5.827-1.467-0.014 0-0.028 0-0.042 0h0.002c-2.467 0-4.733 0.707-6.6 1.88-0.48-0.587-0.733-1.213-0.733-1.88 0-2.387 3.28-4.333 7.333-4.333 1.907 0 3.733 0.44 5.107 1.227l2.693-2.693c-2.107-1.413-4.893-2.2-7.8-2.2M16.667 14.667c0.453 0 0.893 0.053 1.333 0.12-4.147 0.64-7.333 4.213-7.333 8.547v3.333h-2.667v-3.333c0-4.786 3.88-8.667 8.667-8.667v0z"></path>
</svg>
