<!-- Generated by IcoMoon.io -->
<svg version="1.1" xmlns="http://www.w3.org/2000/svg" width="32" height="32" viewBox="0 0 32 32">
<title>key-remove</title>
<path d="M8.667 4c2.613 0 4.84 1.667 5.653 4h15.013v4h-5.333v4h-4v-4h-5.68c-0.813 2.333-3.040 4-5.653 4-3.333 0-6-2.667-6-6s2.667-6 6-6M8.667 8c-1.105 0-2 0.895-2 2v0c0 1.105 0.895 2 2 2v0c1.105 0 2-0.895 2-2v0c0-1.105-0.895-2-2-2v0M19.453 18.667l1.88 1.88-3.453 3.453 3.453 3.453-1.88 1.88-3.453-3.453-3.453 3.453-1.88-1.88 3.453-3.453-3.453-3.453 1.88-1.88 3.453 3.453 3.453-3.453z"></path>
</svg>
