<!-- Generated by IcoMoon.io -->
<svg version="1.1" xmlns="http://www.w3.org/2000/svg" width="32" height="32" viewBox="0 0 32 32">
<title>key</title>
<path d="M9.333 18.667c-1.473 0-2.667-1.194-2.667-2.667v0c0-1.473 1.194-2.667 2.667-2.667v0c1.473 0 2.667 1.194 2.667 2.667v0c0 1.473-1.194 2.667-2.667 2.667v0M16.867 13.333c-1.127-3.133-4.073-5.333-7.533-5.333-0 0-0 0-0 0v0c-4.418 0-8 3.582-8 8v0c0 4.418 3.582 8 8 8v0c0 0 0 0 0 0 3.46 0 6.406-2.2 7.515-5.278l0.018-0.056h5.8v5.333h5.333v-5.333h2.667v-5.333h-13.8z"></path>
</svg>
