<!-- Generated by IcoMoon.io -->
<svg version="1.1" xmlns="http://www.w3.org/2000/svg" width="32" height="32" viewBox="0 0 32 32">
<title>keyboard-close</title>
<path d="M16 30.667l5.333-5.333h-10.667M25.333 10.667h-2.667v-2.667h2.667M25.333 14.667h-2.667v-2.667h2.667M21.333 10.667h-2.667v-2.667h2.667M21.333 14.667h-2.667v-2.667h2.667M21.333 20h-10.667v-2.667h10.667M9.333 10.667h-2.667v-2.667h2.667M9.333 14.667h-2.667v-2.667h2.667M10.667 12h2.667v2.667h-2.667M10.667 8h2.667v2.667h-2.667M14.667 12h2.667v2.667h-2.667M14.667 8h2.667v2.667h-2.667M26.667 4h-21.333c-1.48 0-2.667 1.187-2.667 2.667v13.333c0 1.473 1.194 2.667 2.667 2.667h21.333c1.473 0 2.667-1.194 2.667-2.667v0-13.333c0-1.473-1.194-2.667-2.667-2.667v0z"></path>
</svg>
