<!-- Generated by IcoMoon.io -->
<svg version="1.1" xmlns="http://www.w3.org/2000/svg" width="32" height="32" viewBox="0 0 32 32">
<title>keyboard-variant</title>
<path d="M8 21.333h16v2.667h-16v-2.667M8 17.333v2.667h-5.333v-2.667h5.333M9.333 20v-2.667h4v2.667h-4M14.667 20v-2.667h2.667v2.667h-2.667M18.667 20v-2.667h4v2.667h-4M24 20v-2.667h5.333v2.667h-5.333M2.667 13.333h4v2.667h-4v-2.667M25.333 16v-2.667h4v2.667h-4M24 16h-2.667v-2.667h2.667v2.667M10.667 16h-2.667v-2.667h2.667v2.667M16 16h-4v-2.667h4v2.667M20 16h-2.667v-2.667h2.667v2.667M2.667 12v-2.667h2.667v2.667h-2.667M6.667 12v-2.667h2.667v2.667h-2.667M10.667 12v-2.667h2.667v2.667h-2.667M14.667 12v-2.667h2.667v2.667h-2.667M18.667 12v-2.667h2.667v2.667h-2.667M22.667 12v-2.667h6.667v2.667h-6.667z"></path>
</svg>
