<!-- Generated by IcoMoon.io -->
<svg version="1.1" xmlns="http://www.w3.org/2000/svg" width="32" height="32" viewBox="0 0 32 32">
<title>kodi</title>
<path d="M16.040 1.333c-0.28 0-0.573 0.147-0.827 0.413l-3.373 3.373c-0.293 0.293-0.373 0.453-0.667 0.72-0.387 0.32-0.56 0.707-0.547 1.2 0.040 1.72 0.040 3.413 0.040 5.133v5.373c0 0.133 0 0.24 0.040 0.373 0.107 0.413 0.373 0.507 0.667 0.2 1.6-1.6 3.027-3.053 4.627-4.667 1.813-1.813 3.64-3.627 5.453-5.453 0.547-0.533 0.547-1.133 0-1.667-1.533-1.533-3.093-3.040-4.613-4.587-0.267-0.267-0.52-0.413-0.8-0.413M24.88 10.213c-0.28 0-0.547 0.12-0.8 0.373-1.533 1.547-3.080 3.067-4.627 4.627-0.52 0.52-0.52 1.093 0 1.627 1.533 1.533 3.053 3.080 4.587 4.613 0.533 0.547 1.093 0.547 1.627 0 1.48-1.453 3-2.96 4.453-4.453 0.227-0.227 0.453-0.44 0.547-0.747v-0.413c-0.093-0.32-0.32-0.507-0.547-0.76-1.493-1.493-2.96-3-4.453-4.493-0.253-0.253-0.52-0.373-0.787-0.373M6.373 10.787c-0.173-0.067-0.267 0.067-0.373 0.173-1.533 1.56-2.88 2.947-4.413 4.493-0.347 0.36-0.347 0.867 0 1.213 0.827 0.84 1.667 1.667 2.493 2.507 0.72 0.72 1.253 1.267 2 2 0.213 0.2 0.4 0.16 0.507-0.093 0.080-0.133 0.080-0.307 0.080-0.453v-9.12c0-0.107 0-0.24-0.040-0.333-0.027-0.173-0.093-0.32-0.253-0.387M16.12 19c-0.267 0-0.573 0.12-0.827 0.373-1.533 1.547-3.053 3.12-4.587 4.667-0.533 0.533-0.533 1.093 0 1.627 1.48 1.493 2.973 2.96 4.467 4.453 0.213 0.227 0.44 0.453 0.747 0.547h0.373c0.293-0.080 0.533-0.28 0.747-0.493 1.493-1.507 3-3 4.507-4.507 0.52-0.533 0.453-1.133-0.040-1.667-1.547-1.547-3.053-3.080-4.587-4.627-0.253-0.253-0.52-0.373-0.8-0.373z"></path>
</svg>
