<!-- Generated by IcoMoon.io -->
<svg version="1.1" xmlns="http://www.w3.org/2000/svg" width="32" height="32" viewBox="0 0 32 32">
<title>lan-connect</title>
<path d="M5.333 1.333c-1.48 0-2.667 1.187-2.667 2.667v5.333c0 1.48 1.187 2.667 2.667 2.667h-4v2.667h16v-2.667h-4c1.48 0 2.667-1.187 2.667-2.667v-5.333c0-1.48-1.187-2.667-2.667-2.667h-8M5.333 4h8v5.333h-8v-5.333M4 17.333v9.333h9.333v-2.667h-6.667v-6.667h-2.667M18.667 17.333c-1.48 0-2.667 1.187-2.667 2.667v5.333c0 1.48 1.187 2.667 2.667 2.667h-4v2.667h16v-2.667h-4c1.48 0 2.667-1.187 2.667-2.667v-5.333c0-1.48-1.187-2.667-2.667-2.667h-8M18.667 20h8v5.333h-8v-5.333z"></path>
</svg>
