<!-- Generated by IcoMoon.io -->
<svg version="1.1" xmlns="http://www.w3.org/2000/svg" width="32" height="32" viewBox="0 0 32 32">
<title>language-c</title>
<path d="M20.6 21.293l0.56 3.253c-0.347 0.187-0.907 0.36-1.653 0.52-0.76 0.173-1.653 0.267-2.68 0.267-2.947-0.053-5.16-0.933-6.64-2.613-1.52-1.693-2.24-3.84-2.24-6.44 0.053-3.080 0.96-5.44 2.72-7.093 1.707-1.667 3.893-2.52 6.533-2.52 1 0 1.867 0.093 2.587 0.253s1.253 0.333 1.6 0.533l-0.8 3.32-1.387-0.453c-0.533-0.133-1.16-0.2-1.867-0.2-1.533-0.013-2.813 0.48-3.813 1.467-1.013 0.973-1.52 2.467-1.573 4.453 0.013 1.813 0.493 3.227 1.44 4.267 0.947 1.027 2.267 1.56 3.987 1.573l1.773-0.16c0.573-0.107 1.053-0.253 1.453-0.427z"></path>
</svg>
