<!-- Generated by IcoMoon.io -->
<svg version="1.1" xmlns="http://www.w3.org/2000/svg" width="32" height="32" viewBox="0 0 32 32">
<title>language-swift</title>
<path d="M22.787 26.293c-3.147 1.813-7.453 2-11.813 0.133-3.475-1.517-6.308-3.96-8.262-7.019l-0.044-0.074c0.893 0.733 1.947 1.333 3.067 1.867 4.493 2.093 8.973 1.947 12.133 0-4.493-3.453-8.32-7.947-11.16-11.613-0.6-0.6-1.040-1.347-1.493-2.013 11.040 8.067 10.56 10.12 3.213-1.347 6.52 6.587 12.573 10.32 12.573 10.32 0.213 0.12 0.333 0.213 0.48 0.293 0.133-0.333 0.253-0.68 0.347-1.040 1.053-3.8-0.147-8.16-2.773-11.747 6.067 3.667 9.667 10.547 8.16 16.32-0.040 0.147-0.080 0.293-0.067 0.52 2.987 3.773 2.187 7.707 1.8 6.96-1.613-3.187-4.64-2.2-6.16-1.56z"></path>
</svg>
