<!-- Generated by IcoMoon.io -->
<svg version="1.1" xmlns="http://www.w3.org/2000/svg" width="32" height="32" viewBox="0 0 32 32">
<title>language-python-text</title>
<path d="M2.667 7.587c9.227-6.16 12.133 1.747 12.373 6.107 0.24 4.347-3.987 9.827-9.293 6.2v7.173l-3.080-2.040v-17.44M5.627 9.867v7.173c4.827 2.893 6.48 0.52 6.48-3.587 0-5.8-3.347-6-6.48-3.587M20.107 5.533s-0.24 4.653 0 9.227c0.48 4.573 6.147 1.027 6.147 1.027v-9.227l3.080 0.373v12.32c0 8.213-8.2 7.813-8.2 7.813l-1.027-3.067c7.173 0 6.267-4.76 6.267-4.76-8.68 3.387-9.347-2.427-9.347-2.427v-9.227l3.080-2.053z"></path>
</svg>
