<!-- Generated by IcoMoon.io -->
<svg version="1.1" xmlns="http://www.w3.org/2000/svg" width="32" height="32" viewBox="0 0 32 32">
<title>language-python</title>
<path d="M25.52 10c2.106 0 3.813 1.707 3.813 3.813v0 5.040c0 2.106-1.707 3.813-3.813 3.813h-9.52c0 0.52 0.427 1.28 0.947 1.28h5.72v2.24c0 2.106-1.707 3.813-3.813 3.813h-5.707c-2.106 0-3.813-1.707-3.813-3.813v0-5c0 0 0 0 0-0 0-2.099 1.701-3.8 3.8-3.8 0.005 0 0.009 0 0.014 0h6.999c0 0 0 0 0 0 2.099 0 3.8-1.701 3.8-3.8 0-0.005 0-0.009-0-0.014v0.001-3.573h1.573M19.813 25.72c-0.533 0-0.96 0.4-0.96 1.187s0.427 0.947 0.96 0.947c0.523 0 0.947-0.424 0.947-0.947v0c0-0.787-0.427-1.187-0.947-1.187M6.48 23.333c-2.106 0-3.813-1.707-3.813-3.813v0-5.040c0-2.106 1.707-3.813 3.813-3.813h9.52c0-0.52-0.427-1.28-0.947-1.28h-5.72v-2.24c0-2.106 1.707-3.813 3.813-3.813h5.707c2.106 0 3.813 1.707 3.813 3.813v0 5c0 0 0 0 0 0 0 2.099-1.701 3.8-3.8 3.8-0.005 0-0.009 0-0.014-0h-6.999c0 0 0 0-0 0-2.099 0-3.8 1.701-3.8 3.8 0 0.005 0 0.009 0 0.014v-0.001 3.573h-1.573M12.187 7.613c0.533 0 0.96-0.4 0.96-1.187s-0.427-0.947-0.96-0.947c-0.52 0-0.947 0.16-0.947 0.947s0.427 1.187 0.947 1.187z"></path>
</svg>
