<!-- Generated by IcoMoon.io -->
<svg version="1.1" xmlns="http://www.w3.org/2000/svg" width="32" height="32" viewBox="0 0 32 32">
<title>laptop-off</title>
<path d="M1.333 5.693l1.707-1.693 23.627 23.627-1.693 1.707-2.667-2.667h-22.307v-2.667h5.333c-1.473 0-2.667-1.194-2.667-2.667v0-13.333c0-0.293 0.053-0.573 0.133-0.84l-1.467-1.467M5.333 21.333h11.64l-11.64-11.64v11.64M26.667 21.333v-13.333h-16.24l-2.667-2.667h18.907c1.473 0 2.667 1.194 2.667 2.667v0 13.333c0 1.473-1.194 2.667-2.667 2.667h5.333v2.667h-2.907l-5.333-5.333h2.907z"></path>
</svg>
