<!-- Generated by IcoMoon.io -->
<svg version="1.1" xmlns="http://www.w3.org/2000/svg" width="32" height="32" viewBox="0 0 32 32">
<title>linkedin-box</title>
<path d="M25.333 25.333h-4v-7.067c0-1.105-0.895-2-2-2v0c-1.105 0-2 0.895-2 2v0 7.067h-4v-12h4v1.6c0.667-1.12 2.12-1.867 3.333-1.867 2.577 0 4.667 2.089 4.667 4.667v0M8.667 11.080c-1.333 0-2.413-1.080-2.413-2.413s1.080-2.413 2.413-2.413v0c1.333 0 2.413 1.080 2.413 2.413s-1.081 2.413-2.413 2.413v0M10.667 25.333h-4v-12h4M26.667 2.667h-21.333c-1.48 0-2.667 1.187-2.667 2.667v21.333c0 1.473 1.194 2.667 2.667 2.667h21.333c1.473 0 2.667-1.194 2.667-2.667v0-21.333c0-1.473-1.194-2.667-2.667-2.667v0z"></path>
</svg>
