<!-- Generated by IcoMoon.io -->
<svg version="1.1" xmlns="http://www.w3.org/2000/svg" width="32" height="32" viewBox="0 0 32 32">
<title>link-variant</title>
<path d="M14.12 17.88c0.547 0.52 0.547 1.373 0 1.893-0.52 0.52-1.373 0.52-1.893 0-1.205-1.207-1.95-2.873-1.95-4.713s0.745-3.507 1.95-4.713l4.72-4.72c1.207-1.205 2.873-1.95 4.713-1.95s3.507 0.745 4.713 1.95l-0-0c1.205 1.207 1.95 2.873 1.95 4.713s-0.745 3.507-1.95 4.713l-1.987 1.987c0.013-1.093-0.16-2.187-0.533-3.227l0.627-0.64c0.729-0.721 1.18-1.721 1.18-2.827s-0.451-2.106-1.18-2.826l-0-0c-0.721-0.729-1.721-1.18-2.827-1.18s-2.106 0.451-2.826 1.179l-4.707 4.707c-0.729 0.721-1.18 1.721-1.18 2.827s0.451 2.106 1.179 2.826l0 0M17.88 12.227c0.52-0.52 1.373-0.52 1.893 0 1.205 1.207 1.95 2.873 1.95 4.713s-0.745 3.507-1.95 4.713l-4.72 4.72c-1.207 1.205-2.873 1.95-4.713 1.95s-3.507-0.745-4.713-1.95l0 0c-1.205-1.207-1.95-2.873-1.95-4.713s0.745-3.507 1.95-4.713l1.987-1.987c-0.013 1.093 0.16 2.187 0.533 3.24l-0.627 0.627c-0.729 0.721-1.18 1.721-1.18 2.827s0.451 2.106 1.179 2.826l0 0c0.721 0.729 1.721 1.18 2.827 1.18s2.106-0.451 2.826-1.18l4.707-4.707c0.729-0.721 1.18-1.721 1.18-2.827s-0.451-2.106-1.18-2.826l-0-0c-0.253-0.237-0.41-0.574-0.41-0.947s0.157-0.709 0.41-0.946l0.001-0.001z"></path>
</svg>
