<!-- Generated by IcoMoon.io -->
<svg version="1.1" xmlns="http://www.w3.org/2000/svg" width="32" height="32" viewBox="0 0 32 32">
<title>link-variant-off</title>
<path d="M2.667 7.027l1.707-1.693 22.293 22.293-1.693 1.707-6.44-6.44-3.48 3.48c-1.207 1.205-2.873 1.95-4.713 1.95s-3.507-0.745-4.713-1.95l0 0c-1.205-1.207-1.95-2.873-1.95-4.713s0.745-3.507 1.95-4.713l1.987-1.987c-0.013 1.093 0.16 2.187 0.533 3.24l-0.627 0.627c-0.729 0.721-1.18 1.721-1.18 2.827s0.451 2.106 1.179 2.826l0 0c0.721 0.729 1.721 1.18 2.827 1.18s2.106-0.451 2.826-1.18l0-0 3.493-3.467-2.16-2.147c-0.013 0.32-0.147 0.653-0.387 0.907-0.52 0.52-1.373 0.52-1.893 0-1.202-1.2-1.946-2.86-1.946-4.693 0-0.146 0.005-0.29 0.014-0.433l-0.001 0.020-7.627-7.64M16.947 5.627c1.207-1.205 2.873-1.95 4.713-1.95s3.507 0.745 4.713 1.95l-0-0c1.205 1.207 1.95 2.873 1.95 4.713s-0.745 3.507-1.95 4.713l-1.987 1.987c0.013-1.093-0.16-2.187-0.533-3.227l0.627-0.64c0.729-0.721 1.18-1.721 1.18-2.827s-0.451-2.106-1.18-2.826l-0-0c-0.721-0.729-1.721-1.18-2.827-1.18s-2.106 0.451-2.826 1.179l-4.44 4.44-1.88-1.893 4.44-4.44M17.88 12.227c0.52-0.52 1.373-0.52 1.893 0 1.209 1.207 1.956 2.875 1.956 4.717 0 0.725-0.116 1.423-0.33 2.076l0.013-0.047-2.373-2.36c-0.067-0.907-0.453-1.8-1.16-2.493-0.253-0.237-0.41-0.574-0.41-0.947s0.157-0.709 0.41-0.946l0.001-0.001z"></path>
</svg>
