<!-- Generated by IcoMoon.io -->
<svg version="1.1" xmlns="http://www.w3.org/2000/svg" width="32" height="32" viewBox="0 0 32 32">
<title>link-off</title>
<path d="M2.667 7.027l1.707-1.693 22.293 22.293-1.693 1.707-5.333-5.333h-2.307v-2.307l-4.36-4.36h-2.307v-2.307l-3.333-3.347c-1.333 0.987-2.133 2.56-2.133 4.32 0 3.013 2.453 5.467 5.467 5.467h4v2.533h-4c-4.418 0-8-3.582-8-8v0c0-2.453 1.107-4.667 2.853-6.12l-2.853-2.853M21.333 8c4.418 0 8 3.582 8 8v0c0 2.947-1.6 5.533-4 6.92l-1.867-1.893c1.96-0.827 3.333-2.76 3.333-5.027 0-3.019-2.447-5.467-5.467-5.467v0h-4v-2.533h4M10.667 8h4v2.533h-1.707l-2.533-2.533h0.24M21.333 14.667v2.667h-1.573l-2.667-2.667h4.24z"></path>
</svg>
