<!-- Generated by IcoMoon.io -->
<svg version="1.1" xmlns="http://www.w3.org/2000/svg" width="32" height="32" viewBox="0 0 32 32">
<title>linux</title>
<path d="M17.573 19.333c-0.867 1.013-2.28 1.013-3.147 0l-4.507-5.333c-0.373 1.040-0.587 2.16-0.587 3.333 0 2.227 0.76 4.24 2 5.693 2 0.133 3.72 0.92 4.373 2.307h0.587c0.653-1.333 2.307-2.080 4.32-2.227 1.267-1.453 2.053-3.507 2.053-5.773 0-1.173-0.213-2.293-0.587-3.333l-4.507 5.333M26.667 27.667c0 0.733-0.933 1.667-1.667 1.667h-7.333c-0.733 0-1.667-0.933-1.667-1.667 0 0.733-0.933 1.667-1.667 1.667h-7.333c-0.733 0-1.667-0.933-1.667-1.667 0-1.733 1.253-3.253 3.067-4.133-1.067-1.747-1.733-3.893-1.733-6.2-1.333 2.667-3.067 3.413-3.88 2.667-0.787-0.747-0.4-2.893 1.347-4.787 0.987-1.080 2.533-2.387 3.613-2.88 0.427-0.92 0.973-1.76 1.587-2.493v-0.507c0-3.682 2.985-6.667 6.667-6.667v0c3.682 0 6.667 2.985 6.667 6.667v0.507c0.613 0.733 1.16 1.573 1.587 2.493 1.080 0.493 2.627 1.8 3.613 2.88 1.747 1.893 2.133 4.040 1.347 4.787-0.813 0.747-2.547 0-3.88-2.667 0 2.333-0.667 4.493-1.773 6.253 1.84 0.853 3.107 2.333 3.107 4.080M13.173 12c-0.56 0.667-0.56 1.693 0 2.333l1.667 2c0.547 0.64 1.44 0.64 2 0l1.667-2c0.547-0.64 0.547-1.667 0-2.333h-5.333M13.333 7c-0.733 0-1.333 0.867-1.333 2.333s0.6 2.333 1.333 2.333 1.333-0.867 1.333-2.333-0.6-2.333-1.333-2.333M18.667 7c-0.733 0-1.333 0.867-1.333 2.333s0.6 2.333 1.333 2.333 1.333-0.867 1.333-2.333-0.6-2.333-1.333-2.333z"></path>
</svg>
