<!-- Generated by IcoMoon.io -->
<svg version="1.1" xmlns="http://www.w3.org/2000/svg" width="32" height="32" viewBox="0 0 32 32">
<title>lock-plus</title>
<path d="M24 10.667h-1.333v-2.667c0-3.682-2.985-6.667-6.667-6.667v0c-3.682 0-6.667 2.985-6.667 6.667v0 2.667h-1.333c-1.473 0-2.667 1.194-2.667 2.667v13.333c0 1.473 1.194 2.667 2.667 2.667v0h16c1.473 0 2.667-1.194 2.667-2.667v-13.333c0-1.473-1.194-2.667-2.667-2.667v0M11.867 8c0-2.28 1.853-4.133 4.133-4.133s4.133 1.853 4.133 4.133v2.667h-8.267v-2.667M21.333 21.333h-4v4h-2.667v-4h-4v-2.667h4v-4h2.667v4h4v2.667z"></path>
</svg>
