<!-- Generated by IcoMoon.io -->
<svg version="1.1" xmlns="http://www.w3.org/2000/svg" width="32" height="32" viewBox="0 0 32 32">
<title>mail-ru</title>
<path d="M20.6 15.88c-0.147-2.947-2.333-4.72-4.973-4.72h-0.107c-3.053 0-4.733 2.4-4.733 5.12 0 3.053 2.040 4.987 4.72 4.987 3 0 4.96-2.2 5.107-4.787M15.533 8.52c2.040 0 3.96 0.907 5.36 2.32 0-0.68 0.44-1.187 1.107-1.187h0.147c0.987 0 1.187 0.933 1.187 1.227v10.533c-0.053 0.693 0.72 1.040 1.16 0.587 1.693-1.72 3.707-8.92-1.053-13.080-4.44-3.893-10.4-3.253-13.573-1.067-3.36 2.32-5.52 7.48-3.427 12.293 2.28 5.267 8.813 6.84 12.693 5.267 1.973-0.787 2.867 1.867 0.867 2.733-3.12 1.32-11.693 1.187-15.707-5.76-2.707-4.693-2.573-12.947 4.613-17.227 5.507-3.267 12.747-2.36 17.093 2.173 4.6 4.8 4.333 13.733-0.133 17.213-2.013 1.573-5.013 0.040-4.987-2.267l-0.027-0.747c-1.356 1.367-3.235 2.213-5.312 2.213-0.003 0-0.006 0-0.008 0h0c-4.027 0-7.533-3.547-7.533-7.573 0-4.067 3.507-7.653 7.533-7.653z"></path>
</svg>
