<!-- Generated by IcoMoon.io -->
<svg version="1.1" xmlns="http://www.w3.org/2000/svg" width="32" height="32" viewBox="0 0 32 32">
<title>map-marker-radius</title>
<path d="M16 2.667c4.413 0 8 3.547 8 7.933 0 5.947-8 14.733-8 14.733s-8-8.787-8-14.733c0-4.387 3.587-7.933 8-7.933M16 8c-1.473 0-2.667 1.194-2.667 2.667v0c0 1.473 1.194 2.667 2.667 2.667v0c1.473 0 2.667-1.194 2.667-2.667v0c0-1.473-1.194-2.667-2.667-2.667v0M26.667 25.333c0 2.947-4.773 5.333-10.667 5.333s-10.667-2.387-10.667-5.333c0-1.72 1.627-3.253 4.147-4.227l0.853 1.213c-1.44 0.6-2.333 1.427-2.333 2.347 0 1.84 3.587 3.333 8 3.333s8-1.493 8-3.333c0-0.92-0.893-1.747-2.333-2.347l0.853-1.213c2.52 0.973 4.147 2.507 4.147 4.227z"></path>
</svg>
