<!-- Generated by IcoMoon.io -->
<svg version="1.1" xmlns="http://www.w3.org/2000/svg" width="32" height="32" viewBox="0 0 32 32">
<title>matrix</title>
<path d="M2.667 2.667h5.333v2.667h-2.667v21.333h2.667v2.667h-5.333v-26.667M26.667 5.333h-2.667v-2.667h5.333v26.667h-5.333v-2.667h2.667v-21.333M12 6.667h1.333v6.667h1.333v1.333h-4v-1.333h1.333v-5.333l-1.333 0.667v-1.333l1.333-0.667M20 17.333h1.333v6.667h1.333v1.333h-4v-1.333h1.333v-5.333l-1.333 0.667v-1.333l1.333-0.667M12 17.333c1.467 0 2.667 1.787 2.667 4s-1.2 4-2.667 4-2.667-1.787-2.667-4 1.2-4 2.667-4M12 18.667c-0.733 0-1.333 1.2-1.333 2.667s0.6 2.667 1.333 2.667 1.333-1.2 1.333-2.667-0.6-2.667-1.333-2.667M20 6.667c1.467 0 2.667 1.787 2.667 4s-1.2 4-2.667 4-2.667-1.787-2.667-4 1.2-4 2.667-4M20 8c-0.733 0-1.333 1.2-1.333 2.667s0.6 2.667 1.333 2.667 1.333-1.2 1.333-2.667-0.6-2.667-1.333-2.667z"></path>
</svg>
