<!-- Generated by IcoMoon.io -->
<svg version="1.1" xmlns="http://www.w3.org/2000/svg" width="32" height="32" viewBox="0 0 32 32">
<title>medium</title>
<path d="M29.24 8.827l-8.053 13.133-5.76-9.387 4.573-7.453c0.227-0.347 0.667-0.493 1.040-0.387l8.2 4.093M29.333 26.373c0 0.76-0.667 1.053-1.48 0.64l-6.28-3.133 7.76-12.667v15.16M12 26.587c0 0.747-0.573 1.093-1.24 0.747l-7.36-3.653c-0.4-0.213-0.733-0.747-0.733-1.2v-16.96c0-0.6 0.44-0.853 0.987-0.613l7.947 3.973 0.4 0.613v17.093M20.387 23.28l-7.053-3.533v-8l7.053 11.533z"></path>
</svg>
