<!-- Generated by IcoMoon.io -->
<svg version="1.1" xmlns="http://www.w3.org/2000/svg" width="32" height="32" viewBox="0 0 32 32">
<title>medical-bag</title>
<path d="M13.333 4l-2.667 2.667v2.667h-4c-1.533 0-2.507 1.333-2.667 2.667l-1.333 13.333c-0.16 1.333 0.72 2.667 2.667 2.667h21.333c1.947 0 2.827-1.333 2.667-2.667l-1.333-13.333c-0.16-1.333-1.253-2.667-2.667-2.667h-4v-2.667l-2.667-2.667h-5.333M13.333 6.667h5.333v2.667h-5.333v-2.667M14.667 13.333h2.667v4h4v2.667h-4v4h-2.667v-4h-4v-2.667h4v-4z"></path>
</svg>
