<!-- Generated by IcoMoon.io -->
<svg version="1.1" xmlns="http://www.w3.org/2000/svg" width="32" height="32" viewBox="0 0 32 32">
<title>memory</title>
<path d="M22.667 22.667h-13.333v-13.333h13.333M28 14.667v-2.667h-2.667v-2.667c0-1.473-1.194-2.667-2.667-2.667h-2.667v-2.667h-2.667v2.667h-2.667v-2.667h-2.667v2.667h-2.667c-1.48 0-2.667 1.187-2.667 2.667v2.667h-2.667v2.667h2.667v2.667h-2.667v2.667h2.667v2.667c0 1.473 1.194 2.667 2.667 2.667h2.667v2.667h2.667v-2.667h2.667v2.667h2.667v-2.667h2.667c1.473 0 2.667-1.194 2.667-2.667v-2.667h2.667v-2.667h-2.667v-2.667M17.333 17.333h-2.667v-2.667h2.667M20 12h-8v8h8v-8z"></path>
</svg>
