<!-- Generated by IcoMoon.io -->
<svg version="1.1" xmlns="http://www.w3.org/2000/svg" width="32" height="32" viewBox="0 0 32 32">
<title>microphone-off</title>
<path d="M25.333 14.667c0 1.587-0.453 3.067-1.2 4.373l-1.64-1.64c0.36-0.827 0.573-1.747 0.573-2.733h2.267M20 14.88l-8-7.973v-0.24c0-2.209 1.791-4 4-4v0c2.209 0 4 1.791 4 4v0 8.213M5.693 4l22.307 22.307-1.693 1.693-5.587-5.587c-1.027 0.613-2.173 1.027-3.387 1.213v4.373h-2.667v-4.373c-4.373-0.653-8-4.413-8-8.96h2.267c0 4 3.387 6.8 7.067 6.8 1.080 0 2.133-0.253 3.080-0.693l-2.213-2.213-0.867 0.107c-2.209 0-4-1.791-4-4v0-0.96l-8-8.013 1.693-1.693z"></path>
</svg>
