<!-- Generated by IcoMoon.io -->
<svg version="1.1" xmlns="http://www.w3.org/2000/svg" width="32" height="32" viewBox="0 0 32 32">
<title>microscope</title>
<path d="M12.613 8.373l2.12 3.627c-3.44 0.347-6.067 3.213-6.067 6.667 0 3.682 2.985 6.667 6.667 6.667v0c2.733 0 5.080-1.64 6.107-4h-3.44v-2.667h10.667v2.667h-3c-0.569 2.135-1.719 3.95-3.269 5.324l-0.011 0.010h3.613v2.667h-21.333v-2.667h3.613c-2.22-1.962-3.613-4.816-3.613-7.996 0-0.002 0-0.003 0-0.005v0c0-4.84 3.28-9.067 7.947-10.293M16.987 2.76l1.013 1.733 1.147-0.667 4.667 8.080-4.627 2.667-4.667-8.080 1.16-0.667-1.013-1.733 2.32-1.333z"></path>
</svg>
