<!-- Generated by IcoMoon.io -->
<svg version="1.1" xmlns="http://www.w3.org/2000/svg" width="32" height="32" viewBox="0 0 32 32">
<title>microphone-variant-off</title>
<path d="M2.667 7.027l1.707-1.693 22.293 22.293-1.693 1.707-3.64-3.653c-0.196 2.793-2.508 4.985-5.333 4.987h-0c-2.946 0-5.333-2.388-5.333-5.333v0-1.333h-1.333l-1.12-10.907c-0.452-0.459-0.824-0.997-1.093-1.592l-0.014-0.035-4.44-4.44M12 4c2.946 0 5.333 2.388 5.333 5.333v0h-5.573l-3.653-3.653c0.973-1.013 2.36-1.68 3.893-1.68M15.787 13.093l-0.027 0.24-2.667-2.667h4.067c-0.24 0.933-0.72 1.76-1.373 2.427M14.667 24h-1.333v1.333c0 1.473 1.194 2.667 2.667 2.667v0c1.473 0 2.667-1.194 2.667-2.667v0-2.307l-3.533-3.533-0.467 4.507M24 13.333h2.667l-1.333 1.333 1.333 1.333h-2.667c-1.473 0-2.667 1.194-2.667 2.667v0 0.24l-2.267-2.24c0.8-2 2.707-3.333 4.933-3.333M10.667 16c0 0.736 0.597 1.333 1.333 1.333v0c0.28 0 0.533-0.080 0.747-0.227l-1.853-1.853c-0.147 0.213-0.227 0.467-0.227 0.747z"></path>
</svg>
