<!-- Generated by IcoMoon.io -->
<svg version="1.1" xmlns="http://www.w3.org/2000/svg" width="32" height="32" viewBox="0 0 32 32">
<title>mixcloud</title>
<path d="M28.147 24.667c-0.187 0-0.373-0.080-0.533-0.187-0.267-0.179-0.44-0.48-0.44-0.821 0-0.2 0.060-0.387 0.162-0.542l-0.002 0.004c0.907-1.333 1.387-2.907 1.387-4.547 0-1.627-0.48-3.2-1.387-4.573-0.099-0.149-0.158-0.331-0.158-0.528 0-0.336 0.173-0.632 0.434-0.803l0.004-0.002c0.44-0.293 1.053-0.173 1.347 0.267 1.069 1.574 1.707 3.515 1.707 5.606 0 0.012-0 0.024-0 0.036v-0.002c0 2.027-0.587 3.973-1.707 5.64-0.187 0.28-0.493 0.453-0.813 0.453M25.333 23.053c-0.16 0-0.347-0.053-0.52-0.16-0.258-0.179-0.425-0.473-0.425-0.807 0-0.207 0.064-0.398 0.174-0.556l-0.002 0.003c0.587-0.867 0.907-1.893 0.907-2.96 0-1.053-0.32-2.080-0.907-2.96-0.107-0.155-0.17-0.346-0.17-0.553 0-0.333 0.166-0.628 0.42-0.805l0.003-0.002c0.453-0.293 1.053-0.187 1.36 0.267 0.775 1.137 1.238 2.541 1.238 4.053s-0.463 2.916-1.254 4.078l0.016-0.025c-0.173 0.28-0.507 0.427-0.84 0.427M19.867 20.973c0.256 0.101 0.552 0.16 0.862 0.16 1.325 0 2.4-1.075 2.4-2.4 0-1.324-1.072-2.397-2.395-2.4h-0c-0.067 0.4-0.16 0.8-0.28 1.187-0.147 0.4-0.52 0.667-0.933 0.667-0.093 0-0.187-0.027-0.307-0.053-0.39-0.135-0.665-0.499-0.665-0.927 0-0.112 0.019-0.22 0.053-0.32l-0.002 0.007c0.187-0.573 0.293-1.187 0.293-1.8 0-3.187-2.6-5.76-5.8-5.76-2.293 0-4.347 1.333-5.267 3.333 0.893 0.267 1.72 0.72 2.387 1.387 0.387 0.387 0.387 1 0 1.387-0.373 0.373-1 0.373-1.373 0-0.613-0.613-1.427-0.96-2.307-0.96-1.794 0.008-3.246 1.46-3.253 3.253v0.001c0 1.787 1.467 3.24 3.253 3.24h13.333M20.8 14.333c1.947 0.427 3.427 2.16 3.427 4.24 0 2.4-1.96 4.347-4.36 4.347h-13.333c-2.867 0-5.2-2.32-5.2-5.187 0-2.613 1.933-4.76 4.44-5.133 1.053-3.107 4-5.267 7.32-5.267 4.013 0 7.32 3.093 7.707 7z"></path>
</svg>
