<!-- Generated by IcoMoon.io -->
<svg version="1.1" xmlns="http://www.w3.org/2000/svg" width="32" height="32" viewBox="0 0 32 32">
<title>monitor-multiple</title>
<path d="M29.333 22.667v-13.333h-21.333v13.333h21.333M29.333 6.667c1.473 0 2.667 1.194 2.667 2.667v13.333c0 1.473-1.194 2.667-2.667 2.667v0h-8v2.667h2.667v2.667h-10.667v-2.667h2.667v-2.667h-8c-1.48 0-2.667-1.187-2.667-2.667v-13.333c0-1.473 1.194-2.667 2.667-2.667v0h21.333M2.667 4v16h-2.667v-16c0-1.473 1.194-2.667 2.667-2.667v0h24v2.667h-24z"></path>
</svg>
