<!-- Generated by IcoMoon.io -->
<svg version="1.1" xmlns="http://www.w3.org/2000/svg" width="32" height="32" viewBox="0 0 32 32">
<title>mouse-variant</title>
<path d="M18.667 9.333h-5.333v-6.533c3.065 0.642 5.333 3.322 5.333 6.532 0 0 0 0.001 0 0.001v-0M5.333 9.333c0-0 0-0.001 0-0.001 0-3.21 2.269-5.89 5.29-6.524l0.043-0.008v6.533h-5.333M18.667 16c0 0 0 0.001 0 0.001 0 3.21-2.269 5.89-5.29 6.524l-0.043 0.008v1.467c0 2.209 1.791 4 4 4v0c2.209 0 4-1.791 4-4v0-6.667c0-2.946 2.388-5.333 5.333-5.333h2.667l-1.333 1.333 1.333 1.333h-2.667c-1.473 0-2.667 1.194-2.667 2.667v6.667c0 3.682-2.985 6.667-6.667 6.667v0c-3.682 0-6.667-2.985-6.667-6.667v0-1.467c-3.065-0.642-5.333-3.322-5.333-6.532 0-0 0-0.001 0-0.001v0-4h13.333v4z"></path>
</svg>
