<!-- Generated by IcoMoon.io -->
<svg version="1.1" xmlns="http://www.w3.org/2000/svg" width="32" height="32" viewBox="0 0 32 32">
<title>nest-protect</title>
<path d="M16 24c4.418 0 8-3.582 8-8v0c0-4.427-3.587-8-8-8-4.427 0-8 3.573-8 8 0 4.418 3.582 8 8 8v0M25.333 4c1.473 0 2.667 1.194 2.667 2.667v0 18.667c0 1.473-1.194 2.667-2.667 2.667v0h-18.667c-1.473 0-2.667-1.194-2.667-2.667v0-18.667c0-1.48 1.187-2.667 2.667-2.667h18.667M10.667 16c0-2.946 2.388-5.333 5.333-5.333v0c2.946 0 5.333 2.388 5.333 5.333v0c0 2.946-2.388 5.333-5.333 5.333v0c-2.946 0-5.333-2.388-5.333-5.333v0z"></path>
</svg>
