<!-- Generated by IcoMoon.io -->
<svg version="1.1" xmlns="http://www.w3.org/2000/svg" width="32" height="32" viewBox="0 0 32 32">
<title>nfc</title>
<path d="M14.12 10.213s0.8-0.36 1.307 0.213c0.507 0.587 1.8 2.827 1.8 5.067s-0.56 4.627-1.16 5.413c-0.573 0.8-1.147 0.8-1.587 0.507-0.427-0.28-7.147-5.413-7.507-5.56-0.373-0.147-0.507 0.213-0.147 2.147 0.36 2-0.227 2.547-0.733 2.627-0.493 0.040-2.013-0.36-2.093-4.413-0.067-4.040 1.013-4.693 1.52-4.693 0.947 0 8.173 6.48 8.667 6.427 0.44-0.067 0.653-2.813-0.187-4.987-0.96-2.347 0.12-2.747 0.12-2.747M25.733 6.173c2.427 4.813 2.267 9.373 2.267 9.827s0.16 5.013-2.267 9.827c0 0-0.627 0.733-1.573 0.293-0.933-0.44-0.613-1.587-0.613-1.587s1.973-3.8 1.92-8.467v-0.067c0.053-4.667-1.92-8.533-1.92-8.533s-0.32-1.147 0.613-1.587c0.947-0.44 1.573 0.293 1.573 0.293M21.027 8.333c1.987 3.613 1.853 7.213 1.827 7.667 0.027 0.453 0.16 3.893-1.827 7.8 0 0-0.627 0.733-1.573 0.293-0.933-0.44-0.613-1.587-0.613-1.587s1.28-1.84 1.48-6.44v-0.067c-0.133-4.627-1.48-6.36-1.48-6.36s-0.32-1.16 0.613-1.587c0.947-0.44 1.573 0.28 1.573 0.28z"></path>
</svg>
