<!-- Generated by IcoMoon.io -->
<svg version="1.1" xmlns="http://www.w3.org/2000/svg" width="32" height="32" viewBox="0 0 32 32">
<title>note-multiple-outline</title>
<path d="M4 8v21.333h24v2.667h-24c-1.473 0-2.667-1.194-2.667-2.667v0-21.333h2.667M21.333 12h7.333l-7.333-7.333v7.333M9.333 2.667h13.333l8 8v13.333c0 1.473-1.194 2.667-2.667 2.667v0h-18.667c-1.473 0-2.667-1.194-2.667-2.667v0-18.667c0-1.473 1.194-2.667 2.667-2.667v0M9.333 5.333v18.667h18.667v-9.333h-9.333v-9.333h-9.333z"></path>
</svg>
