<!-- Generated by IcoMoon.io -->
<svg version="1.1" xmlns="http://www.w3.org/2000/svg" width="32" height="32" viewBox="0 0 32 32">
<title>numeric--box6</title>
<path d="M20 12h-5.333v2.667h2.667c1.473 0 2.667 1.194 2.667 2.667v2.667c0 1.473-1.194 2.667-2.667 2.667v0h-2.667c-1.473 0-2.667-1.194-2.667-2.667v0-8c0-1.473 1.194-2.667 2.667-2.667h5.333M25.333 4h-18.667c-1.473 0-2.667 1.194-2.667 2.667v0 18.667c0 1.473 1.194 2.667 2.667 2.667v0h18.667c1.473 0 2.667-1.194 2.667-2.667v0-18.667c0-1.473-1.194-2.667-2.667-2.667v0M14.667 20h2.667v-2.667h-2.667v2.667z"></path>
</svg>
