<!-- Generated by IcoMoon.io -->
<svg version="1.1" xmlns="http://www.w3.org/2000/svg" width="32" height="32" viewBox="0 0 32 32">
<title>numeric--box-multiple-outline</title>
<path d="M28 22.667v-18.667h-18.667v18.667h18.667M28 1.333c1.473 0 2.667 1.194 2.667 2.667v0 18.667c0 1.473-1.194 2.667-2.667 2.667v0h-18.667c-1.473 0-2.667-1.194-2.667-2.667v-18.667c0-1.473 1.194-2.667 2.667-2.667h18.667M4 6.667v21.333h21.333v2.667h-21.333c-1.473 0-2.667-1.194-2.667-2.667v0-21.333h2.667M17.333 6.667h2.667c1.473 0 2.667 1.194 2.667 2.667v8c0 1.473-1.194 2.667-2.667 2.667v0h-2.667c-1.473 0-2.667-1.194-2.667-2.667v0-8c0-1.473 1.194-2.667 2.667-2.667v0M17.333 9.333v8h2.667v-8h-2.667z"></path>
</svg>
