<!-- Generated by IcoMoon.io -->
<svg version="1.1" xmlns="http://www.w3.org/2000/svg" width="32" height="32" viewBox="0 0 32 32">
<title>nutrition</title>
<path d="M29.333 24c0 2.946-2.388 5.333-5.333 5.333v0h-5.333c-2.946 0-5.333-2.388-5.333-5.333v0-2.667h16v2.667M5.333 4h13.333c1.473 0 2.667 1.194 2.667 2.667v0 12h-10.667v6.667h-5.333c-1.473 0-2.667-1.194-2.667-2.667v-16c0-1.473 1.194-2.667 2.667-2.667v0M5.333 8v2.667h2.667v-2.667h-2.667M18.667 10.667v-2.667h-8v2.667h8M5.333 13.333v2.667h2.667v-2.667h-2.667M10.667 13.333v2.667h8v-2.667h-8M5.333 18.667v2.667h2.667v-2.667h-2.667z"></path>
</svg>
