<!-- Generated by IcoMoon.io -->
<svg version="1.1" xmlns="http://www.w3.org/2000/svg" width="32" height="32" viewBox="0 0 32 32">
<title>odnoklassniki</title>
<path d="M23.773 16.987c-0.373-0.76-1.427-1.4-2.827-0.32-1.907 1.52-4.947 1.52-4.947 1.52s-3.040 0-4.947-1.52c-1.4-1.080-2.453-0.44-2.827 0.32-0.667 1.333 0.080 1.987 1.773 3.067 1.453 0.933 3.44 1.28 4.72 1.413l-1.067 1.067c-1.52 1.507-2.987 2.96-3.987 3.973-0.6 0.613-0.6 1.587 0 2.16l0.187 0.213c0.6 0.6 1.587 0.6 2.187 0l3.96-3.973c1.533 1.507 2.987 2.96 4 3.973 0.6 0.6 1.573 0.6 2.187 0l0.173-0.213c0.613-0.573 0.613-1.547 0-2.16l-3.973-3.973-1.053-1.080c1.267-0.12 3.227-0.48 4.667-1.4 1.693-1.080 2.44-1.733 1.773-3.067M16 6.093c1.84 0 3.333 1.493 3.333 3.32 0 1.84-1.493 3.32-3.333 3.32s-3.333-1.48-3.333-3.32c0-1.827 1.493-3.32 3.333-3.32M16 16.16c3.733 0 6.747-3.013 6.747-6.747 0-3.726-3.021-6.747-6.747-6.747s-6.747 3.021-6.747 6.747v0c0 3.733 3.013 6.747 6.747 6.747z"></path>
</svg>
