<!-- Generated by IcoMoon.io -->
<svg version="1.1" xmlns="http://www.w3.org/2000/svg" width="32" height="32" viewBox="0 0 32 32">
<title>oil-temperature</title>
<path d="M15.333 1.333c-1.105 0-2 0.895-2 2v0 16c-0.84 0.627-1.333 1.613-1.333 2.667 0 1.841 1.492 3.333 3.333 3.333v0c1.841 0 3.333-1.492 3.333-3.333v0c0-1.053-0.493-2-1.333-2.667v-2h5.333v-2.667h-5.333v-2.667h5.333v-2.667h-5.333v-2.667h5.333v-2.667h-5.333v-0.667c0-1.105-0.895-2-2-2v0M0 20v2.667c0.893 0 1.053 0.28 1.72 0.947s1.84 1.72 3.613 1.72 2.947-1.053 3.613-1.72c0.147-0.16 0.267-0.28 0.387-0.4v-3c-1.053 0.347-1.8 1.027-2.28 1.507-0.667 0.667-0.827 0.947-1.72 0.947s-1.053-0.28-1.72-0.947-1.84-1.72-3.613-1.72M21.333 20v2.667c0.893 0 1.053 0.28 1.72 0.947s1.84 1.72 3.613 1.72 2.947-1.053 3.613-1.72 0.827-0.947 1.72-0.947v-2.667c-1.773 0-2.947 1.053-3.613 1.72s-0.827 0.947-1.72 0.947-1.053-0.28-1.72-0.947-1.84-1.72-3.613-1.72M10.667 26.667c-1.773 0-2.947 1.053-3.613 1.72s-0.827 0.947-1.72 0.947-1.053-0.28-1.72-0.947c-0.48-0.48-1.227-1.16-2.28-1.507v3c0.12 0.12 0.24 0.24 0.387 0.4 0.667 0.667 1.84 1.72 3.613 1.72s2.947-1.053 3.613-1.72 0.827-0.947 1.72-0.947 1.053 0.28 1.72 0.947c0.587 0.573 1.533 1.453 2.947 1.667 0.213 0.053 0.44 0.053 0.667 0.053 1.773 0 2.947-1.053 3.613-1.72s0.827-0.947 1.72-0.947 1.053 0.28 1.72 0.947 1.84 1.72 3.613 1.72 2.947-1.053 3.613-1.72c0.147-0.16 0.267-0.28 0.387-0.4v-3c-1.053 0.347-1.8 1.027-2.28 1.507-0.667 0.667-0.827 0.947-1.72 0.947s-1.053-0.28-1.72-0.947-1.84-1.72-3.613-1.72-2.947 1.053-3.613 1.72-0.827 0.947-1.72 0.947c-0.293 0-0.493-0.040-0.667-0.107-0.373-0.133-0.6-0.387-1.053-0.84-0.667-0.667-1.84-1.72-3.613-1.72z"></path>
</svg>
