<!-- Generated by IcoMoon.io -->
<svg version="1.1" xmlns="http://www.w3.org/2000/svg" width="32" height="32" viewBox="0 0 32 32">
<title>oil</title>
<path d="M29.333 16.667s2.667 2.893 2.667 4.667c0 1.473-1.194 2.667-2.667 2.667v0c-1.473 0-2.667-1.194-2.667-2.667v0c0-1.773 2.667-4.667 2.667-4.667M8 8h5.333c0.736 0 1.333 0.597 1.333 1.333v0c0 0.736-0.597 1.333-1.333 1.333h-1.333v2.667h2.667c0.987 0 1.853 0.533 2.307 1.333l8.68-5.013 4.347 2.52c0.667 0.36 0.853 1.16 0.493 1.827-0.373 0.627-1.16 0.853-1.827 0.48l-2.8-1.613-4.867 8.427c-0.453 0.813-1.333 1.373-2.333 1.373h-12c-1.473 0-2.667-1.194-2.667-2.667v0-4c0-1.473 1.194-2.667 2.667-2.667v0h2.667v-2.667h-1.333c-0.736 0-1.333-0.597-1.333-1.333v0c0-0.736 0.597-1.333 1.333-1.333v0M6.667 16v4h12l2.747-4.76-4.613 2.667-1.213-1.907h-8.92M0.507 12.28l2.28-2.28c0.547-0.52 1.36-0.52 1.88 0s0.52 1.333 0 1.88l-2.28 2.28c-0.52 0.507-1.36 0.507-1.88 0-0.507-0.52-0.507-1.36 0-1.88z"></path>
</svg>
