<!-- Generated by IcoMoon.io -->
<svg version="1.1" xmlns="http://www.w3.org/2000/svg" width="32" height="32" viewBox="0 0 32 32">
<title>omega</title>
<path d="M25.533 25.333h-7.68v-2.84c2.813-2.16 4.267-4.84 4.267-8.040 0-2-0.573-3.573-1.693-4.733-1.133-1.16-2.6-1.72-4.387-1.72-1.8 0-3.28 0.56-4.427 1.733-1.16 1.16-1.733 2.76-1.733 4.773 0 3.173 1.453 5.84 4.267 7.987v2.84h-7.68v-2.84h4.747c-3.16-2.067-4.747-4.853-4.747-8.36 0-2.8 0.867-4.987 2.613-6.587 1.747-1.613 4.040-2.413 6.88-2.413 2.907 0 5.227 0.8 6.96 2.387 1.747 1.587 2.613 3.813 2.613 6.587 0 3.507-1.6 6.307-4.8 8.387h4.8v2.84z"></path>
</svg>
