<!-- Generated by IcoMoon.io -->
<svg version="1.1" xmlns="http://www.w3.org/2000/svg" width="32" height="32" viewBox="0 0 32 32">
<title>ornament</title>
<path d="M16 1.333c2.209 0 4 1.791 4 4v0 1.333c0.736 0 1.333 0.597 1.333 1.333v0 1.427c3.187 1.84 5.333 5.293 5.333 9.24 0 5.891-4.776 10.667-10.667 10.667v0c-5.891 0-10.667-4.776-10.667-10.667v0c0-3.947 2.147-7.4 5.333-9.24v-1.427c0-0.736 0.597-1.333 1.333-1.333v0-1.333c0-2.209 1.791-4 4-4v0M16 4c-0.736 0-1.333 0.597-1.333 1.333v0 1.333h2.667v-1.333c0-0.736-0.597-1.333-1.333-1.333v0M16 10.667c-2.373 0-4.493 1.027-5.96 2.667h11.92c-1.467-1.64-3.587-2.667-5.96-2.667M8.453 21.333h1.667l-2.12-2.093c0.067 0.76 0.227 1.427 0.453 2.093M16.787 21.333l-5.333-5.333h-2.907l5.333 5.333h2.907M23.547 16h-1.667l2.12 2.093c-0.067-0.76-0.227-1.427-0.453-2.093M15.213 16l5.333 5.333h2.907l-5.333-5.333h-2.907M16 26.667c2.373 0 4.493-1.027 5.96-2.667h-11.92c1.467 1.64 3.587 2.667 5.96 2.667z"></path>
</svg>
