<!-- Generated by IcoMoon.io -->
<svg version="1.1" xmlns="http://www.w3.org/2000/svg" width="32" height="32" viewBox="0 0 32 32">
<title>package-variant-closed</title>
<path d="M28 22c0 0.507-0.28 0.947-0.707 1.173l-10.533 5.92c-0.213 0.16-0.48 0.24-0.76 0.24s-0.547-0.080-0.76-0.24l-10.533-5.92c-0.423-0.226-0.707-0.665-0.707-1.17 0-0.001 0-0.003 0-0.004v0-12c0-0.507 0.28-0.947 0.707-1.173l10.533-5.92c0.213-0.16 0.48-0.24 0.76-0.24s0.547 0.080 0.76 0.24l10.533 5.92c0.427 0.227 0.707 0.667 0.707 1.173v12M16 5.533l-2.52 1.427 7.853 4.52 2.613-1.48-7.947-4.467M8.053 10l7.947 4.467 2.613-1.467-7.84-4.533-2.72 1.533M6.667 21.213l8 4.507v-8.947l-8-4.493v8.933M25.333 21.213v-8.933l-8 4.493v8.947l8-4.507z"></path>
</svg>
