<!-- Generated by IcoMoon.io -->
<svg version="1.1" xmlns="http://www.w3.org/2000/svg" width="32" height="32" viewBox="0 0 32 32">
<title>palette</title>
<path d="M23.333 16c-1.105 0-2-0.895-2-2v0c0-1.105 0.895-2 2-2v0c1.105 0 2 0.895 2 2v0c0 1.105-0.895 2-2 2v0M19.333 10.667c-1.105 0-2-0.895-2-2v0c0-1.105 0.895-2 2-2v0c1.105 0 2 0.895 2 2v0c0 1.105-0.895 2-2 2v0M12.667 10.667c-1.105 0-2-0.895-2-2v0c0-1.105 0.895-2 2-2v0c1.105 0 2 0.895 2 2v0c0 1.105-0.895 2-2 2v0M8.667 16c-1.105 0-2-0.895-2-2v0c0-1.105 0.895-2 2-2v0c1.105 0 2 0.895 2 2v0c0 1.105-0.895 2-2 2v0M16 4c-6.627 0-12 5.373-12 12v0c0 6.627 5.373 12 12 12v0c1.105 0 2-0.895 2-2v0c0-0.52-0.2-0.987-0.52-1.333-0.307-0.36-0.507-0.827-0.507-1.333 0-1.105 0.895-2 2-2v0h2.36c3.682 0 6.667-2.985 6.667-6.667v0c0-5.893-5.373-10.667-12-10.667z"></path>
</svg>
