<!-- Generated by IcoMoon.io -->
<svg version="1.1" xmlns="http://www.w3.org/2000/svg" width="32" height="32" viewBox="0 0 32 32">
<title>panorama-wide-angle</title>
<path d="M16 5.333c-3.64 0-6.96 0.32-10.6 0.96l-1.24 0.213-0.333 1.2c-0.773 2.76-1.16 5.533-1.16 8.293s0.387 5.533 1.16 8.293l0.333 1.187 1.24 0.213c3.64 0.653 6.96 0.973 10.6 0.973s6.96-0.32 10.6-0.96l1.24-0.213 0.333-1.187c0.773-2.773 1.16-5.547 1.16-8.307s-0.387-5.533-1.16-8.293l-0.333-1.187-1.24-0.213c-3.64-0.653-6.96-0.973-10.6-0.973M16 8c3.267 0 6.28 0.267 9.72 0.853 0.595 2.142 0.94 4.603 0.947 7.143v0.004c-0.007 2.544-0.352 5.005-0.993 7.343l0.046-0.196c-3.44 0.587-6.453 0.853-9.72 0.853s-6.28-0.267-9.72-0.853c-0.595-2.142-0.94-4.603-0.947-7.143v-0.004c0.007-2.544 0.352-5.005 0.993-7.343l-0.046 0.196c3.44-0.587 6.453-0.853 9.72-0.853z"></path>
</svg>
