<!-- Generated by IcoMoon.io -->
<svg version="1.1" xmlns="http://www.w3.org/2000/svg" width="32" height="32" viewBox="0 0 32 32">
<title>paperclip</title>
<path d="M22 8v15.333c0 2.946-2.388 5.333-5.333 5.333v0c-2.946 0-5.333-2.388-5.333-5.333v0-16.667c0-1.841 1.492-3.333 3.333-3.333v0c1.841 0 3.333 1.492 3.333 3.333v0 14c0 0.736-0.597 1.333-1.333 1.333v0c-0.736 0-1.333-0.597-1.333-1.333v0-12.667h-2v12.667c0 1.841 1.492 3.333 3.333 3.333v0c1.841 0 3.333-1.492 3.333-3.333v0-14c0-2.946-2.388-5.333-5.333-5.333v0c-2.946 0-5.333 2.388-5.333 5.333v0 16.667c0 4.050 3.283 7.333 7.333 7.333v0c4.050 0 7.333-3.283 7.333-7.333v0-15.333h-2z"></path>
</svg>
