<!-- Generated by IcoMoon.io -->
<svg version="1.1" xmlns="http://www.w3.org/2000/svg" width="32" height="32" viewBox="0 0 32 32">
<title>paw-off</title>
<path d="M2.667 5.693l1.707-1.693 24.293 24.293-1.693 1.707-2.667-2.667c-0.187 0.133-0.387 0.24-0.587 0.333-2.387 1.093-5.213-1.173-7.867-1.173s-5.507 2.36-7.853 1.173c-1.333-0.653-2.253-2.387-2.080-3.827 0.24-1.987 2.627-3.053 4.040-4.507 0.987-0.973 1.827-2.413 2.773-3.573l-10.067-10.067M11.133 4c1.573-0.227 3.24 1.493 3.72 3.867 0.24 1.133 0.16 2.213-0.187 3.053l-5.293-5.32c0.347-0.867 0.96-1.467 1.76-1.6M20.667 4c1.587 0.253 2.467 2.36 2 4.72-0.507 2.373-2.173 4.093-3.747 3.853-1.587-0.24-2.453-2.347-1.96-4.707 0.48-2.373 2.147-4.093 3.707-3.867M4 10.133c1.52-0.653 3.587 0.533 4.667 2.6 1.013 2.107 0.667 4.32-0.84 4.973s-3.56-0.52-4.613-2.613c-1.053-2.093-0.68-4.32 0.787-4.96M28 10.133c1.467 0.64 1.84 2.867 0.787 4.96s-3.107 3.267-4.613 2.613c-1.507-0.653-1.853-2.867-0.84-4.973 1.080-2.067 3.147-3.253 4.667-2.6z"></path>
</svg>
