<!-- Generated by IcoMoon.io -->
<svg version="1.1" xmlns="http://www.w3.org/2000/svg" width="32" height="32" viewBox="0 0 32 32">
<title>pencil-box</title>
<path d="M25.333 4c1.473 0 2.667 1.194 2.667 2.667v0 18.667c0 1.473-1.194 2.667-2.667 2.667v0h-18.667c-1.473 0-2.667-1.194-2.667-2.667v0-18.667c0-1.473 1.194-2.667 2.667-2.667v0h18.667M22.267 12.467c0.293-0.28 0.293-0.747 0-1.027l-1.707-1.707c-0.129-0.136-0.312-0.22-0.513-0.22s-0.384 0.084-0.513 0.22l-0 0-1.333 1.333 2.733 2.733 1.333-1.333M9.333 19.92v2.747h2.747l8.080-8.080-2.747-2.747-8.080 8.080z"></path>
</svg>
