<!-- Generated by IcoMoon.io -->
<svg version="1.1" xmlns="http://www.w3.org/2000/svg" width="32" height="32" viewBox="0 0 32 32">
<title>phone-locked</title>
<path d="M25.6 5.333h-4.533v-0.667c0-1.253 1.013-2.267 2.267-2.267s2.267 1.013 2.267 2.267M26.667 5.333v-0.667c0-1.841-1.492-3.333-3.333-3.333v0c-1.841 0-3.333 1.492-3.333 3.333v0 0.667c-0.736 0-1.333 0.597-1.333 1.333v0 5.333c0 0.736 0.597 1.333 1.333 1.333v0h6.667c0.736 0 1.333-0.597 1.333-1.333v0-5.333c0-0.736-0.597-1.333-1.333-1.333v0M26.667 20.667c-1.667 0-3.267-0.267-4.76-0.76-0.467-0.147-0.987-0.040-1.36 0.333l-2.933 2.933c-3.8-1.966-6.82-4.987-8.734-8.675l-0.053-0.112 2.933-2.933c0.373-0.373 0.48-0.893 0.333-1.36-0.482-1.414-0.76-3.044-0.76-4.738 0-0.008 0-0.016 0-0.024v0.001c0-0.736-0.597-1.333-1.333-1.333v0h-4.667c-0.736 0-1.333 0.597-1.333 1.333v0c0 12.518 10.148 22.667 22.667 22.667v0c0.736 0 1.333-0.597 1.333-1.333v-4.667c0-0.736-0.597-1.333-1.333-1.333v0z"></path>
</svg>
