<!-- Generated by IcoMoon.io -->
<svg version="1.1" xmlns="http://www.w3.org/2000/svg" width="32" height="32" viewBox="0 0 32 32">
<title>phone-voip</title>
<path d="M17.333 22.667v2.667h1.333c0.736 0 1.333 0.597 1.333 1.333v0h9.333v2.667h-9.333c0 0.736-0.597 1.333-1.333 1.333h-5.333c-0.736 0-1.333-0.597-1.333-1.333v0h-9.333v-2.667h9.333c0-0.736 0.597-1.333 1.333-1.333v0h1.333v-2.667h2.667M31.6 10.227c0.24 0.24 0.4 0.56 0.4 0.933s-0.147 0.707-0.387 0.947l-3.307 3.307c-0.24 0.24-0.573 0.387-0.973 0.387-0.333 0-0.667-0.133-0.907-0.373-1.093-0.973-2.253-1.813-3.56-2.467-0.44-0.213-0.747-0.68-0.747-1.2v-4.133c-1.933-0.627-4-0.96-6.12-0.96-2.133 0-4.2 0.333-6.133 0.973v4.133c0 0.533-0.307 0.987-0.747 1.2-1.293 0.653-2.493 1.48-3.547 2.467-0.242 0.231-0.571 0.373-0.933 0.373-0.369 0-0.703-0.147-0.947-0.387l-3.306-3.306c-0.239-0.24-0.387-0.572-0.387-0.937 0-0.003 0-0.007 0-0.010v0.001c0-0.373 0.147-0.707 0.387-0.947 4.067-3.853 9.56-6.227 15.613-6.227 6.040 0 11.533 2.373 15.6 6.227M14.667 13.333v6.667h-1.333v-6.667h1.333M16 13.333h4v4h-2.667v2.667h-1.333v-6.667M18.667 16v-1.333h-1.333v1.333h1.333z"></path>
</svg>
