<!-- Generated by IcoMoon.io -->
<svg version="1.1" xmlns="http://www.w3.org/2000/svg" width="32" height="32" viewBox="0 0 32 32">
<title>phone-missed</title>
<path d="M31.613 22.227c-4.067-3.867-9.56-6.227-15.613-6.227s-11.547 2.36-15.613 6.227c-0.24 0.24-0.387 0.573-0.387 0.947 0 0.36 0.147 0.693 0.387 0.933l3.307 3.307c0.24 0.24 0.573 0.4 0.973 0.4 0.333 0 0.667-0.147 0.907-0.387 1.053-0.987 2.24-1.813 3.547-2.467 0.44-0.213 0.747-0.667 0.747-1.2v-4.133c1.933-0.627 3.987-0.96 6.133-0.96 2.133 0 4.2 0.333 6.133 0.96v4.133c0 0.533 0.307 0.987 0.747 1.2 1.307 0.653 2.493 1.48 3.547 2.467 0.24 0.24 0.573 0.387 0.907 0.387 0.4 0 0.733-0.16 0.973-0.4l3.307-3.307c0.239-0.239 0.387-0.569 0.387-0.933v0c0-0.373-0.147-0.707-0.387-0.947M8.667 7.333l7.333 7.333 9.333-9.333-1.333-1.333-8 8-6-6h4.667v-2h-8v8h2v-4.667z"></path>
</svg>
