<!-- Generated by IcoMoon.io -->
<svg version="1.1" xmlns="http://www.w3.org/2000/svg" width="32" height="32" viewBox="0 0 32 32">
<title>pi-box</title>
<path d="M6.667 4c-1.473 0-2.667 1.194-2.667 2.667v0 18.667c0 1.473 1.194 2.667 2.667 2.667v0h18.667c1.473 0 2.667-1.194 2.667-2.667v0-18.667c0-1.473-1.194-2.667-2.667-2.667v0M8 9.333h14.667v2.667h-2.667v6.667c0 0.736 0.597 1.333 1.333 1.333v0c0.736 0 1.333-0.597 1.333-1.333v0h2.667c0 2.209-1.791 4-4 4v0c-2.209 0-4-1.791-4-4v0-6.667h-4v10.667h-2.667v-10.667h-2.667"></path>
</svg>
