<!-- Generated by IcoMoon.io -->
<svg version="1.1" xmlns="http://www.w3.org/2000/svg" width="32" height="32" viewBox="0 0 32 32">
<title>pig</title>
<path d="M12.667 12c-1.105 0-2 0.895-2 2v0c0 1.105 0.895 2 2 2v0c1.105 0 2-0.895 2-2v0c0-1.105-0.895-2-2-2v0M19.333 12c-1.105 0-2 0.895-2 2v0c0 1.105 0.895 2 2 2v0c1.105 0 2-0.895 2-2v0c0-1.105-0.895-2-2-2v0M16 5.333l0.907 0.040c1.253-1.053 2.853-1.92 4.053-2.24 2.493-0.667 6.88-0.16 7.453 1.973 0.413 1.56-0.947 3.493-3.040 4.733 1.636 2.029 2.627 4.638 2.627 7.479 0 0.005 0 0.010 0 0.015v-0.001c0 6.627-5.373 12-12 12v0c-6.627 0-12-5.373-12-12v0c0-2.84 0.987-5.44 2.627-7.493-2.093-1.24-3.453-3.173-3.040-4.733 0.573-2.133 4.96-2.64 7.453-1.973 1.2 0.32 2.8 1.187 4.053 2.24l0.907-0.040M13.333 21.333c0.736 0 1.333 0.597 1.333 1.333v0c0 0.736-0.597 1.333-1.333 1.333v0c-0.736 0-1.333-0.597-1.333-1.333v0c0-0.736 0.597-1.333 1.333-1.333v0M18.667 21.333c0.736 0 1.333 0.597 1.333 1.333v0c0 0.736-0.597 1.333-1.333 1.333v0c-0.736 0-1.333-0.597-1.333-1.333v0c0-0.736 0.597-1.333 1.333-1.333v0M16 17.333c-3.68 0-6.667 3.12-6.667 5.333s2.987 4 6.667 4 6.667-1.787 6.667-4-2.987-5.333-6.667-5.333M10.347 5.707c-0.6-0.16-4.227 0.093-4.227 0.093s2.947 2.333 3.533 2.493c0.6 0.16 3.373 0.28 3.56-0.427 0.2-0.72-2.28-2-2.867-2.16M21.653 5.707c-0.587 0.16-3.067 1.44-2.867 2.16 0.187 0.707 2.96 0.587 3.56 0.427 0.587-0.16 3.533-2.493 3.533-2.493s-3.627-0.253-4.227-0.093z"></path>
</svg>
