<!-- Generated by IcoMoon.io -->
<svg version="1.1" xmlns="http://www.w3.org/2000/svg" width="32" height="32" viewBox="0 0 32 32">
<title>pill</title>
<path d="M5.627 15.053l9.427-9.427c1.45-1.446 3.45-2.34 5.66-2.34s4.21 0.894 5.66 2.34l-0-0c3.12 3.12 3.12 8.187 0 11.32l-9.427 9.427c-3.133 3.12-8.2 3.12-11.32 0-1.446-1.45-2.34-3.45-2.34-5.66s0.894-4.21 2.34-5.66l-0 0M7.52 16.947c-0.97 0.961-1.57 2.293-1.57 3.766 0 0.491 0.067 0.967 0.192 1.418l-0.009-0.037 7.987-7.973 5.653 5.653 4.707-4.72c0.97-0.961 1.57-2.294 1.57-3.767s-0.6-2.805-1.569-3.766l-0-0c-0.961-0.97-2.294-1.57-3.767-1.57s-2.805 0.6-3.766 1.569l-9.427 9.427z"></path>
</svg>
