<!-- Generated by IcoMoon.io -->
<svg version="1.1" xmlns="http://www.w3.org/2000/svg" width="32" height="32" viewBox="0 0 32 32">
<title>pizza</title>
<path d="M16 20c-1.473 0-2.667-1.194-2.667-2.667v0c0-1.473 1.194-2.667 2.667-2.667v0c1.473 0 2.667 1.194 2.667 2.667v0c0 1.473-1.194 2.667-2.667 2.667v0M9.333 9.333c0-1.48 1.187-2.667 2.667-2.667 1.473 0 2.667 1.194 2.667 2.667v0c0 1.473-1.194 2.667-2.667 2.667v0c-1.473 0-2.667-1.194-2.667-2.667v0M16 2.667c-4.76 0-9.027 2.053-12 5.333l12 21.333 12-21.333c-2.96-3.28-7.24-5.333-12-5.333z"></path>
</svg>
