<!-- Generated by IcoMoon.io -->
<svg version="1.1" xmlns="http://www.w3.org/2000/svg" width="32" height="32" viewBox="0 0 32 32">
<title>plus-network</title>
<path d="M21.333 14.667v-2.667h-4v-4h-2.667v4h-4v2.667h4v4h2.667v-4h4M22.667 4c1.473 0 2.667 1.194 2.667 2.667v0 13.333c0 1.473-1.194 2.667-2.667 2.667h-5.333v2.667h1.333c0.736 0 1.333 0.597 1.333 1.333v0h9.333v2.667h-9.333c0 0.736-0.597 1.333-1.333 1.333v0h-5.333c-0.736 0-1.333-0.597-1.333-1.333v0h-9.333v-2.667h9.333c0-0.736 0.597-1.333 1.333-1.333v0h1.333v-2.667h-5.333c-1.473 0-2.667-1.194-2.667-2.667v0-13.333c0-1.473 1.194-2.667 2.667-2.667h13.333z"></path>
</svg>
