<!-- Generated by IcoMoon.io -->
<svg version="1.1" xmlns="http://www.w3.org/2000/svg" width="32" height="32" viewBox="0 0 32 32">
<title>pocket</title>
<path d="M29.333 16c0 7.364-5.97 13.333-13.333 13.333v0c-7.364 0-13.333-5.97-13.333-13.333v0-10c0-1.841 1.492-3.333 3.333-3.333v0h20c1.841 0 3.333 1.492 3.333 3.333v0 10M21.173 11l-5.173 5.173-5.173-5.187c-0.36-0.365-0.86-0.59-1.413-0.59s-1.053 0.226-1.413 0.59l-0 0c-0.365 0.36-0.59 0.86-0.59 1.413s0.226 1.053 0.59 1.413l0 0 6.573 6.613c0.76 0.773 2.053 0.773 2.84 0l6.587-6.6c0.787-0.787 0.787-2.053 0-2.827-0.36-0.365-0.86-0.59-1.413-0.59s-1.053 0.226-1.413 0.59l-0 0z"></path>
</svg>
