<!-- Generated by IcoMoon.io -->
<svg version="1.1" xmlns="http://www.w3.org/2000/svg" width="32" height="32" viewBox="0 0 32 32">
<title>pokeball</title>
<path d="M16 2.667c7.364 0 13.333 5.97 13.333 13.333v0c0 7.364-5.97 13.333-13.333 13.333v0c-7.364 0-13.333-5.97-13.333-13.333v0c0-7.364 5.97-13.333 13.333-13.333v0M16 5.333c-5.44 0-9.933 4.067-10.587 9.333h5.427c0.587-2.307 2.68-4 5.16-4s4.573 1.693 5.16 4h5.427c-0.653-5.267-5.147-9.333-10.587-9.333M16 26.667c5.44 0 9.933-4.067 10.587-9.333h-5.427c-0.587 2.307-2.68 4-5.16 4s-4.573-1.693-5.16-4h-5.427c0.653 5.267 5.147 9.333 10.587 9.333M16 13.333c-1.473 0-2.667 1.194-2.667 2.667v0c0 1.473 1.194 2.667 2.667 2.667v0c1.473 0 2.667-1.194 2.667-2.667v0c0-1.473-1.194-2.667-2.667-2.667v0z"></path>
</svg>
