<!-- Generated by IcoMoon.io -->
<svg version="1.1" xmlns="http://www.w3.org/2000/svg" width="32" height="32" viewBox="0 0 32 32">
<title>pool</title>
<path d="M2.667 20c2.227-1 4.44-2 6.667-2.44v-10.893c0-2.209 1.791-4 4-4v0c1.747 0 3.227 1.107 3.773 2.667h-3.773c-0.736 0-1.333 0.597-1.333 1.333v0 1.333h6.667v-1.333c0-2.209 1.791-4 4-4v0c1.747 0 3.227 1.107 3.773 2.667h-3.773c-0.736 0-1.333 0.597-1.333 1.333v0 13.253c2.667-0.427 5.333-2.587 8-2.587v2.667c-2.96 0-5.92 2.667-8.893 2.667-2.96 0-5.92-2.667-8.88-2.667-2.973 0-5.933 1.333-8.893 2.667v-2.667M18.667 10.667h-6.667v2.667h6.667v-2.667M18.667 16h-6.667v1.333c2.227 0.213 4.44 1.747 6.667 2.387v-3.72M2.667 25.333c2.96-1.333 5.92-2.667 8.893-2.667 2.96 0 5.92 2.667 8.88 2.667 2.973 0 5.933-2.667 8.893-2.667v2.667c-2.96 0-5.92 2.667-8.893 2.667-2.96 0-5.92-2.667-8.88-2.667-2.973 0-5.933 1.333-8.893 2.667v-2.667z"></path>
</svg>
