<!-- Generated by IcoMoon.io -->
<svg version="1.1" xmlns="http://www.w3.org/2000/svg" width="32" height="32" viewBox="0 0 32 32">
<title>popcorn</title>
<path d="M9.333 29.333h-3s-1 0-1.253-1.8l-2.36-22.453-0.053-0.413c0-1.107 1.2-2 2.667-2s2.667 0.893 2.667 2c0-1.107 1.2-2 2.667-2s2.667 0.893 2.667 2c0-1.107 1.2-2 2.667-2 1.453 0 2.667 0.88 2.667 2 0-1.107 1.2-2 2.667-2s2.667 0.893 2.667 2c0-1.107 1.2-2 2.667-2s2.667 0.893 2.667 2l-0.053 0.413-2.36 22.453c-0.253 1.8-1.253 1.8-1.253 1.8h-16.333M23.8 6.573c-0.4-0.72-1.347-1.24-2.467-1.24-1.080 0-2.187 0.48-2.667 1.16l-0.293 20.173h3.84l1.587-20.093M13.333 6.493c-0.48-0.68-1.587-1.16-2.667-1.16-1.12 0-2.067 0.52-2.467 1.24l1.587 20.093h3.84l-0.293-20.173z"></path>
</svg>
