<!-- Generated by IcoMoon.io -->
<svg version="1.1" xmlns="http://www.w3.org/2000/svg" width="32" height="32" viewBox="0 0 32 32">
<title>power-plug-off</title>
<path d="M10.667 4v4.24c4.133 4.067 8.133 8.16 12.267 12.16 0.267-0.4 0.8-0.667 1.067-1.2v-7.467c0-1.493-1.733-2.187-2.667-2.613v-5.12h-2.667v5.333h-5.333v-5.333h-2.667M4.373 5.333c-0.573 0.56-1.133 1.133-1.707 1.693l5.333 5.333v6.973c1.56 1.533 3.107 3.107 4.667 4.667v4h6.667v-4c0.293-0.36 0.6 0.44 0.893 0.587 1.6 1.6 3.067 3.2 4.667 4.8 0.667-0.533 1.2-1.2 1.733-1.733-7.467-7.467-14.933-14.8-22.267-22.267l0.013-0.053z"></path>
</svg>
