<!-- Generated by IcoMoon.io -->
<svg version="1.1" xmlns="http://www.w3.org/2000/svg" width="32" height="32" viewBox="0 0 32 32">
<title>printer-settings</title>
<path d="M24 2.667v5.333h-16v-5.333h16M25.333 14.667c0.736 0 1.333-0.597 1.333-1.333v0c0-0.736-0.597-1.333-1.333-1.333v0c-0.736 0-1.333 0.597-1.333 1.333v0c0 0.736 0.597 1.333 1.333 1.333v0M21.333 24v-6.667h-10.667v6.667h10.667M25.333 9.333c2.209 0 4 1.791 4 4v0 8h-5.333v5.333h-16v-5.333h-5.333v-8c0-2.209 1.791-4 4-4v0h18.667M20 32v-2.667h2.667v2.667h-2.667M14.667 32v-2.667h2.667v2.667h-2.667M9.333 32v-2.667h2.667v2.667h-2.667z"></path>
</svg>
