<!-- Generated by IcoMoon.io -->
<svg version="1.1" xmlns="http://www.w3.org/2000/svg" width="32" height="32" viewBox="0 0 32 32">
<title>projector</title>
<path d="M21.333 8c-1.507 0-2.973 0.467-4.213 1.333h-11.787c-1.48 0-2.667 1.187-2.667 2.667v8c0 1.48 1.187 2.667 2.667 2.667h1.333v1.333c0 0.736 0.597 1.333 1.333 1.333v0h2.667c0.736 0 1.333-0.597 1.333-1.333v0-1.333h8v1.333c0 0.736 0.597 1.333 1.333 1.333v0h2.667c0.736 0 1.333-0.597 1.333-1.333v0-1.333h1.333c1.48 0 2.667-1.187 2.667-2.667v-8c0-1.48-1.187-2.667-2.667-2.667h-1.133c-1.227-0.867-2.693-1.333-4.2-1.333M21.333 10c2.577 0 4.667 2.089 4.667 4.667v0c0 2.577-2.089 4.667-4.667 4.667v0c-2.577 0-4.667-2.089-4.667-4.667v0c0-2.577 2.089-4.667 4.667-4.667v0M5.333 12h5.333v1.333h-5.333v-1.333M21.333 12c-1.473 0-2.667 1.194-2.667 2.667v0c0 1.473 1.194 2.667 2.667 2.667v0c1.473 0 2.667-1.194 2.667-2.667v0c0-1.473-1.194-2.667-2.667-2.667v0M5.333 14.667h5.333v1.333h-5.333v-1.333M5.333 17.333h5.333v1.333h-5.333v-1.333z"></path>
</svg>
