<!-- Generated by IcoMoon.io -->
<svg version="1.1" xmlns="http://www.w3.org/2000/svg" width="32" height="32" viewBox="0 0 32 32">
<title>quadcopter</title>
<path d="M7.333 1.333c3.333 0 6 2.667 6 6 0 1.173-0.333 2.267-0.92 3.2l0.133 0.133h6.907l0.133-0.133c-0.587-0.933-0.92-2.027-0.92-3.2 0-3.333 2.667-6 6-6s6 2.667 6 6-2.667 6-6 6c-1.173 0-2.267-0.333-3.2-0.92l-1.467 1.467v4.24l1.467 1.467c0.933-0.587 2.027-0.92 3.2-0.92 3.333 0 6 2.667 6 6s-2.667 6-6 6-6-2.667-6-6c0-1.173 0.333-2.267 0.92-3.2l-0.133-0.133h-6.907l-0.133 0.133c0.587 0.933 0.92 2.027 0.92 3.2 0 3.333-2.667 6-6 6s-6-2.667-6-6 2.667-6 6-6c1.173 0 2.267 0.333 3.2 0.92l1.467-1.467v-4.24l-1.467-1.467c-0.933 0.587-2.027 0.92-3.2 0.92-3.333 0-6-2.667-6-6s2.667-6 6-6M7.333 4c-1.841 0-3.333 1.492-3.333 3.333v0c0 1.841 1.492 3.333 3.333 3.333v0c1.841 0 3.333-1.492 3.333-3.333v0c0-1.841-1.492-3.333-3.333-3.333v0M7.333 21.333c-1.841 0-3.333 1.492-3.333 3.333v0c0 1.841 1.492 3.333 3.333 3.333v0c1.841 0 3.333-1.492 3.333-3.333v0c0-1.841-1.492-3.333-3.333-3.333v0M24.667 4c-1.841 0-3.333 1.492-3.333 3.333v0c0 1.841 1.492 3.333 3.333 3.333v0c1.841 0 3.333-1.492 3.333-3.333v0c0-1.841-1.492-3.333-3.333-3.333v0M24.667 21.333c-1.841 0-3.333 1.492-3.333 3.333v0c0 1.841 1.492 3.333 3.333 3.333v0c1.841 0 3.333-1.492 3.333-3.333v0c0-1.841-1.492-3.333-3.333-3.333v0M5.213 23l1.507 0.88c0.173-0.133 0.387-0.213 0.613-0.213 0.552 0 1 0.448 1 1v0l-0.013 0.133 1.507 0.867-0.373 0.667-1.507-0.88c-0.173 0.133-0.387 0.213-0.613 0.213-0.552 0-1-0.448-1-1v0l0.013-0.133-1.507-0.867 0.373-0.667M4.84 8.333l1.507-0.867-0.013-0.133c0-0.552 0.448-1 1-1v0c0.227 0 0.44 0.080 0.613 0.213l1.507-0.88 0.373 0.667-1.507 0.867 0.013 0.133c0 0.552-0.448 1-1 1v0c-0.227 0-0.44-0.080-0.613-0.213l-1.507 0.88-0.373-0.667M22.547 5.667l1.507 0.88c0.173-0.133 0.387-0.213 0.613-0.213 0.552 0 1 0.448 1 1v0l-0.013 0.133 1.507 0.867-0.373 0.667-1.507-0.88c-0.173 0.133-0.387 0.213-0.613 0.213-0.552 0-1-0.448-1-1v0l0.013-0.133-1.507-0.867 0.373-0.667M22.173 25.667l1.493-1c0-0.552 0.448-1 1-1v0c0.227 0 0.44 0.080 0.613 0.213l1.507-0.88 0.373 0.667-1.493 1c0 0.552-0.448 1-1 1v0c-0.227 0-0.44-0.080-0.613-0.213l-1.507 0.88-0.373-0.667z"></path>
</svg>
