<!-- Generated by IcoMoon.io -->
<svg version="1.1" xmlns="http://www.w3.org/2000/svg" width="32" height="32" viewBox="0 0 32 32">
<title>quicktime</title>
<path d="M16 4c6.627 0 12 5.373 12 12v0c0 2.347-0.667 4.533-1.84 6.387l1.84 1.84v2.44c0 0.736-0.597 1.333-1.333 1.333v0h-2.427l-1.853-1.84c-1.796 1.154-3.989 1.84-6.342 1.84-0.016 0-0.031-0-0.047-0h0.002c-6.627 0-12-5.373-12-12v0c0-6.627 5.373-12 12-12v0M16 9.333c-3.682 0-6.667 2.985-6.667 6.667v0c0 3.682 2.985 6.667 6.667 6.667v0c0.867 0 1.68-0.16 2.44-0.467l-3.84-3.84c-1.040-1.027-1.040-2.733 0-3.773s2.733-1.040 3.773 0l3.84 3.84c0.293-0.747 0.453-1.573 0.453-2.427 0-3.682-2.985-6.667-6.667-6.667v0z"></path>
</svg>
