<!-- Generated by IcoMoon.io -->
<svg version="1.1" xmlns="http://www.w3.org/2000/svg" width="32" height="32" viewBox="0 0 32 32">
<title>radiator</title>
<path d="M10.6 4l-1.893 2.92 1.893 2.947h-0.013l-2.653 4.133-2.307-1.2 1.893-2.947-1.893-2.933 2.667-4.133 2.307 1.213M18.6 3.853l-1.893 2.947 1.893 2.933-0.013 0.013-2.653 4.12-2.307-1.2 1.893-2.933-1.893-2.933 2.667-4.133 2.307 1.187M26.667 3.853l-1.92 2.947 1.92 2.933v0.013l-2.667 4.12-2.333-1.2 1.893-2.933-1.893-2.933 2.667-4.133 2.333 1.187M2.667 29.333v-10.667c0-1.473 1.194-2.667 2.667-2.667h21.333c1.473 0 2.667 1.194 2.667 2.667v0 10.667h-2.667v-2.667h-21.333v2.667h-2.667M8 18.667c-0.736 0-1.333 0.597-1.333 1.333v0 2.667c0 0.736 0.597 1.333 1.333 1.333v0c0.736 0 1.333-0.597 1.333-1.333v0-2.667c0-0.736-0.597-1.333-1.333-1.333v0M13.333 18.667c-0.736 0-1.333 0.597-1.333 1.333v0 2.667c0 0.736 0.597 1.333 1.333 1.333v0c0.736 0 1.333-0.597 1.333-1.333v0-2.667c0-0.736-0.597-1.333-1.333-1.333v0M18.667 18.667c-0.736 0-1.333 0.597-1.333 1.333v0 2.667c0 0.736 0.597 1.333 1.333 1.333v0c0.736 0 1.333-0.597 1.333-1.333v0-2.667c0-0.736-0.597-1.333-1.333-1.333v0M24 18.667c-0.736 0-1.333 0.597-1.333 1.333v0 2.667c0 0.736 0.597 1.333 1.333 1.333v0c0.736 0 1.333-0.597 1.333-1.333v0-2.667c0-0.736-0.597-1.333-1.333-1.333v0z"></path>
</svg>
