<!-- Generated by IcoMoon.io -->
<svg version="1.1" xmlns="http://www.w3.org/2000/svg" width="32" height="32" viewBox="0 0 32 32">
<title>radioactive</title>
<path d="M16 13.333c1.473 0 2.667 1.194 2.667 2.667v0c0 1.473-1.194 2.667-2.667 2.667v0c-1.473 0-2.667-1.194-2.667-2.667v0c0-1.473 1.194-2.667 2.667-2.667v0M16 29.333c-2.6 0-5.040-0.747-7.080-2.040l4.413-6.667c0.766 0.445 1.686 0.707 2.667 0.707s1.901-0.262 2.693-0.721l-0.026 0.014 4.413 6.667c-1.998 1.28-4.436 2.040-7.051 2.040-0.010 0-0.021 0-0.031-0h0.002M2.667 16c0-5.52 3.333-10.267 8.147-12.293l2.973 7.44c-1.855 0.864-3.118 2.711-3.12 4.853v0h-8M21.333 16c0-2.16-1.28-4-3.12-4.853l2.973-7.44c4.827 2.071 8.147 6.783 8.147 12.27 0 0.008 0 0.016-0 0.025v-0.001h-8z"></path>
</svg>
