<!-- Generated by IcoMoon.io -->
<svg version="1.1" xmlns="http://www.w3.org/2000/svg" width="32" height="32" viewBox="0 0 32 32">
<title>raspberrypi</title>
<path d="M26.667 10.667h2.667v2.667h-2.667v-2.667M5.333 6.667h21.333c1.473 0 2.667 1.194 2.667 2.667v0h-4v2.667h-18.667v5.333h4v4h14.667v1.333h4c0 1.473-1.194 2.667-2.667 2.667h-5.333v1.333h-2.667v-1.333h-4v1.333h-5.333v-1.333h-4c-1.473 0-2.667-1.194-2.667-2.667v-13.333c0-1.473 1.194-2.667 2.667-2.667v0M25.333 20h-13.333v-6.667h13.333v1.333h4v2.667h-4v2.667M17.333 16v2.667h2.667v-2.667h-2.667M6.667 8v2.667h1.333v-2.667h-1.333M9.333 8v2.667h1.333v-2.667h-1.333M12 8v2.667h1.333v-2.667h-1.333M14.667 8v2.667h1.333v-2.667h-1.333M17.333 8v2.667h1.333v-2.667h-1.333M20 8v2.667h1.333v-2.667h-1.333M26.667 18.667h2.667v2.667h-2.667v-2.667z"></path>
</svg>
