<!-- Generated by IcoMoon.io -->
<svg version="1.1" xmlns="http://www.w3.org/2000/svg" width="32" height="32" viewBox="0 0 32 32">
<title>ray-start-end</title>
<path d="M5.333 12c1.747 0 3.227 1.107 3.773 2.667h13.787c0.547-1.56 2.027-2.667 3.773-2.667 2.209 0 4 1.791 4 4v0c0 2.209-1.791 4-4 4v0c-0.003 0-0.007 0-0.012 0-1.729 0-3.2-1.1-3.753-2.639l-0.009-0.028h-13.787c-0.561 1.566-2.033 2.667-3.762 2.667-0.004 0-0.008 0-0.012-0h0.001c-2.209 0-4-1.791-4-4v0c0-2.209 1.791-4 4-4v0z"></path>
</svg>
