<!-- Generated by IcoMoon.io -->
<svg version="1.1" xmlns="http://www.w3.org/2000/svg" width="32" height="32" viewBox="0 0 32 32">
<title>record-rec</title>
<path d="M16.667 6.667c-5.523 0-10 4.477-10 10v0c0 5.523 4.477 10 10 10v0c5.523 0 10-4.477 10-10v0c0-5.523-4.477-10-10-10v0M9.333 13.333h2.667c0.736 0 1.333 0.597 1.333 1.333v0 1.333c0 0.667-0.507 1.2-1.147 1.293l1.56 2.707h-1.547l-1.533-2.667v2.667h-1.333M16 13.333h2.667v1.333h-2.667v1.333h2.667v1.333h-2.667v1.333h2.667v1.333h-2.667c-0.736 0-1.333-0.597-1.333-1.333v0-4c0-0.736 0.597-1.333 1.333-1.333v0M21.333 13.333h2.667v1.333h-2.667v4h2.667v1.333h-2.667c-0.736 0-1.333-0.597-1.333-1.333v0-4c0-0.736 0.597-1.333 1.333-1.333v0M10.667 14.667v1.333h1.333v-1.333"></path>
</svg>
