<!-- Generated by IcoMoon.io -->
<svg version="1.1" xmlns="http://www.w3.org/2000/svg" width="32" height="32" viewBox="0 0 32 32">
<title>reddit</title>
<path d="M29.333 15.333c0-1.867-1.467-3.333-3.333-3.333-0.8 0-1.6 0.267-2.133 0.8-2-1.2-4.4-2-7.2-2.133l1.467-5.333 4.533 1.333c0 1.473 1.194 2.667 2.667 2.667v0c1.473 0 2.667-1.194 2.667-2.667v0c0-1.473-1.194-2.667-2.667-2.667v0c-0.933 0-1.867 0.533-2.267 1.333l-5.333-1.333c-0.4-0.133-0.667 0.133-0.8 0.533l-1.6 6.133c-2.667 0.133-5.2 0.933-7.2 2.133-0.533-0.533-1.333-0.8-2.133-0.8-1.867 0-3.333 1.467-3.333 3.333 0 1.2 0.533 2.133 1.467 2.8l-0.133 1.2c0 4.8 5.333 8.667 12 8.667s12-3.867 12-8.667l-0.133-1.2c0.933-0.667 1.467-1.6 1.467-2.8M12 15.733c0.933 0 1.6 0.8 1.6 1.6s-0.667 1.6-1.6 1.6-1.6-0.667-1.6-1.6 0.667-1.6 1.6-1.6M21.067 22.933c-2.4 1.467-7.733 1.467-10.133 0-0.267-0.267-0.4-0.667-0.133-0.933s0.667-0.4 0.933-0.133c1.6 1.2 6.933 1.2 8.533 0 0.267-0.267 0.667-0.133 0.933 0.133s0.133 0.667-0.133 0.933M20 18.933c-0.933 0-1.6-0.8-1.6-1.6 0-0.933 0.8-1.6 1.6-1.6 0.933 0 1.6 0.8 1.6 1.6 0 0.933-0.667 1.6-1.6 1.6z"></path>
</svg>
