<!-- Generated by IcoMoon.io -->
<svg version="1.1" xmlns="http://www.w3.org/2000/svg" width="32" height="32" viewBox="0 0 32 32">
<title>regex</title>
<path d="M21.333 22.56c-0.44 0.067-0.88 0.107-1.333 0.107s-0.893-0.040-1.333-0.107v-4.68l-3.333 3.307c-0.667-0.52-1.333-1.187-1.853-1.853l3.307-3.333h-4.68c-0.067-0.44-0.107-0.88-0.107-1.333s0.040-0.893 0.107-1.333h4.68l-3.307-3.333c0.253-0.333 0.52-0.667 0.867-0.987 0.32-0.347 0.653-0.613 0.987-0.867l3.333 3.307v-4.68c0.44-0.067 0.88-0.107 1.333-0.107s0.893 0.040 1.333 0.107v4.68l3.333-3.307c0.667 0.52 1.333 1.187 1.853 1.853l-3.307 3.333h4.68c0.067 0.44 0.107 0.88 0.107 1.333s-0.040 0.893-0.107 1.333h-4.68l3.307 3.333c-0.253 0.333-0.52 0.667-0.867 0.987-0.32 0.347-0.653 0.613-0.987 0.867l-3.333-3.307v4.68M6.667 25.333c0-1.473 1.194-2.667 2.667-2.667v0c1.473 0 2.667 1.194 2.667 2.667v0c0 1.473-1.194 2.667-2.667 2.667v0c-1.473 0-2.667-1.194-2.667-2.667v0z"></path>
</svg>
