<!-- Generated by IcoMoon.io -->
<svg version="1.1" xmlns="http://www.w3.org/2000/svg" width="32" height="32" viewBox="0 0 32 32">
<title>remote</title>
<path d="M16 0c-4.053 0-7.72 1.64-10.373 4.293l1.88 1.88c2.161-2.166 5.149-3.507 8.451-3.507 0.015 0 0.030 0 0.045 0h-0.002c3.333 0 6.32 1.333 8.48 3.52l1.88-1.88c-2.64-2.667-6.307-4.307-10.36-4.307M9.4 8.067l1.88 1.88c1.21-1.203 2.878-1.946 4.72-1.946s3.51 0.744 4.72 1.947l-0-0 1.88-1.88c-1.684-1.689-4.013-2.733-6.586-2.733-0.005 0-0.010 0-0.015 0h0.001c-2.573 0-4.907 1.040-6.6 2.733M16 20c-1.473 0-2.667-1.194-2.667-2.667v0c0-1.473 1.194-2.667 2.667-2.667v0c1.473 0 2.667 1.194 2.667 2.667v0c0 1.473-1.194 2.667-2.667 2.667v0M20 12h-8c-0.736 0-1.333 0.597-1.333 1.333v16c0 0.736 0.597 1.333 1.333 1.333v0h8c0.736 0 1.333-0.597 1.333-1.333v0-16c0-0.736-0.597-1.333-1.333-1.333v0z"></path>
</svg>
