<!-- Generated by IcoMoon.io -->
<svg version="1.1" xmlns="http://www.w3.org/2000/svg" width="32" height="32" viewBox="0 0 32 32">
<title>rename-box</title>
<path d="M24 22.667h-10l2.667-2.667h7.333M8 22.667v-3.333l10.507-10.467c0.253-0.267 0.68-0.267 0.947 0l2.347 2.347c0.267 0.267 0.267 0.68 0 0.947l-10.507 10.507M25.333 4h-18.667c-1.48 0-2.667 1.187-2.667 2.667v18.667c0 1.473 1.194 2.667 2.667 2.667v0h18.667c1.473 0 2.667-1.194 2.667-2.667v0-18.667c0-1.473-1.194-2.667-2.667-2.667v0z"></path>
</svg>
