<!-- Generated by IcoMoon.io -->
<svg version="1.1" xmlns="http://www.w3.org/2000/svg" width="32" height="32" viewBox="0 0 32 32">
<title>reproduction</title>
<path d="M16.96 17.533l1.2-1.187c-0.027-1.68 0.92-3.76 2.667-5.493 2.6-2.613 5.987-3.453 7.547-1.893s0.72 4.947-1.893 7.547c-1.733 1.747-3.813 2.693-5.493 2.667l-1.187 1.2c-0.467 0.44-1.133 0.507-1.667 0.173-1.12 0.4-2.133 0.893-2.72 1.853-0.707 1.173-0.707 3.067-1.453 4.2-0.747 1.147-2.24 1.533-3.813 1.533s-3.48-0.133-4.88-2.133l3.307 0.56c0.76 0.107 2.76-0.707 3.493-1.84 0.747-1.147 0.747-3.027 1.453-4.213 0.627-1.040 1.813-1.533 3.053-1.96-0.013-0.36 0.093-0.733 0.387-1.013M9.333 2.667c3.682 0 6.667 2.985 6.667 6.667v0c0 3.682-2.985 6.667-6.667 6.667v0c-3.682 0-6.667-2.985-6.667-6.667v0c0-3.682 2.985-6.667 6.667-6.667v0M9.333 5.333c-2.209 0-4 1.791-4 4v0c0 2.209 1.791 4 4 4v0c2.209 0 4-1.791 4-4v0c0-2.209-1.791-4-4-4v0z"></path>
</svg>
