<!-- Generated by IcoMoon.io -->
<svg version="1.1" xmlns="http://www.w3.org/2000/svg" width="32" height="32" viewBox="0 0 32 32">
<title>restore</title>
<path d="M17.333 4c-6.627 0-12 5.373-12 12v0h-4l5.187 5.187 0.093 0.187 5.387-5.373h-4c0-5.155 4.179-9.333 9.333-9.333v0c5.155 0 9.333 4.179 9.333 9.333v0c0 5.155-4.179 9.333-9.333 9.333v0c-2.573 0-4.907-1.053-6.587-2.747l-1.893 1.893c2.151 2.174 5.135 3.52 8.433 3.52 0.017 0 0.033-0 0.050-0h-0.003c6.627 0 12-5.373 12-12v0c0-6.627-5.373-12-12-12v0M16 10.667v6.667l5.707 3.387 0.96-1.613-4.667-2.773v-5.667h-2z"></path>
</svg>
