<!-- Generated by IcoMoon.io -->
<svg version="1.1" xmlns="http://www.w3.org/2000/svg" width="32" height="32" viewBox="0 0 32 32">
<title>ribbon</title>
<path d="M17.88 25.747l4.24 4.253 1.88-1.907-4.227-4.227M20.72 15.373h-0.013l-4.707 4.72-4.707-4.72h-0.013c-1.203-1.202-1.947-2.863-1.947-4.697 0-0.003 0-0.007 0-0.010v0.001c0-3.682 2.985-6.667 6.667-6.667v0c3.682 0 6.667 2.985 6.667 6.667v0c0 1.84-0.747 3.507-1.947 4.707M22.533 17.333c1.728-1.687 2.8-4.040 2.8-6.643 0-0.008 0-0.017-0-0.025v0.001c0-5.155-4.179-9.333-9.333-9.333v0c-5.155 0-9.333 4.179-9.333 9.333v0c0 2.613 1.080 4.973 2.8 6.667l4.653 4.667-6.12 6.093 1.88 1.907 12.653-12.667z"></path>
</svg>
