<!-- Generated by IcoMoon.io -->
<svg version="1.1" xmlns="http://www.w3.org/2000/svg" width="32" height="32" viewBox="0 0 32 32">
<title>router-wireless</title>
<path d="M5.333 17.333h21.333c0.736 0 1.333 0.597 1.333 1.333v0 5.333c0 0.736-0.597 1.333-1.333 1.333v0h-21.333c-0.736 0-1.333-0.597-1.333-1.333v0-5.333c0-0.736 0.597-1.333 1.333-1.333v0M12 22.667h1.333v-2.667h-1.333v2.667M6.667 20v2.667h2.667v-2.667h-2.667M25.333 9.24l-1.867 1.88c-1.926-1.928-4.587-3.12-7.527-3.12-0.012 0-0.023 0-0.035 0h0.002c-2.947 0-5.613 1.187-7.547 3.12l-1.867-1.88c2.405-2.413 5.733-3.907 9.409-3.907 0.002 0 0.003 0 0.005 0h-0c3.68 0 7.013 1.493 9.427 3.907M21.56 13.013l-1.867 1.88c-0.971-0.964-2.309-1.56-3.786-1.56-0 0-0 0-0.001 0h0c-1.48 0-2.813 0.6-3.773 1.56l-1.867-1.88c1.444-1.448 3.441-2.344 5.647-2.344s4.203 0.896 5.646 2.344l0 0z"></path>
</svg>
