<!-- Generated by IcoMoon.io -->
<svg version="1.1" xmlns="http://www.w3.org/2000/svg" width="32" height="32" viewBox="0 0 32 32">
<title>rss</title>
<path d="M8.24 20.853c1.605 0 2.907 1.301 2.907 2.907v0c0 1.573-1.307 2.907-2.907 2.907-1.573 0-2.907-1.333-2.907-2.907 0-1.605 1.301-2.907 2.907-2.907v0M5.333 5.92c11.458 0 20.747 9.289 20.747 20.747v0h-3.773c0-9.374-7.599-16.973-16.973-16.973v0-3.773M5.333 13.467c7.29 0 13.2 5.91 13.2 13.2v0h-3.773c0-5.206-4.22-9.427-9.427-9.427v0-3.773z"></path>
</svg>
