<!-- Generated by IcoMoon.io -->
<svg version="1.1" xmlns="http://www.w3.org/2000/svg" width="32" height="32" viewBox="0 0 32 32">
<title>run</title>
<path d="M22.827 13.333l-1.44-2.427-0.973 3.827 3.32 6.053v8.547h-2.4v-6.667l-3.107-4.147-2.133 6.013-6.427 2.8-1.4-2 5.587-3.293 3.36-13.147-2.813 0.88v4.893h-2.4v-6.933l7.227-2.253 0.667-0.107c0.827 0 1.547 0.453 1.947 1.12l2.667 4.44h4.827v2.4h-6.507M22.667 5.067c-1.333 0-2.4-1.067-2.4-2.4s1.067-2.4 2.4-2.4 2.4 1.067 2.4 2.4-1.067 2.4-2.4 2.4M9.333 12v2.667h-4c-0.736 0-1.333-0.597-1.333-1.333v0c0-0.736 0.597-1.333 1.333-1.333v0h4M12.333 17.333l-0.667 2.667h-5c-0.736 0-1.333-0.597-1.333-1.333v0c0-0.736 0.597-1.333 1.333-1.333h5.667M9.333 6.667v2.667h-5.333c-0.736 0-1.333-0.597-1.333-1.333v0c0-0.736 0.597-1.333 1.333-1.333v0h5.333z"></path>
</svg>
