<!-- Generated by IcoMoon.io -->
<svg version="1.1" xmlns="http://www.w3.org/2000/svg" width="32" height="32" viewBox="0 0 32 32">
<title>sale</title>
<path d="M24.867 3.8l0.813 5.147 4.68 2.387-2.36 4.667 2.373 4.667-4.72 2.387-0.813 5.147-5.187-0.813-3.693 3.68-3.707-3.733-5.147 0.853-0.827-5.187-4.653-2.373 2.373-4.667-2.36-4.627 4.68-2.413 0.813-5.107 5.16 0.853 3.707-3.747 3.693 3.693 5.173-0.813M12.667 9.333c-1.105 0-2 0.895-2 2v0c0 1.105 0.895 2 2 2v0c1.105 0 2-0.895 2-2v0c0-1.105-0.895-2-2-2v0M19.333 18.667c-1.105 0-2 0.895-2 2v0c0 1.105 0.895 2 2 2v0c1.105 0 2-0.895 2-2v0c0-1.105-0.895-2-2-2v0M11.213 22.667l11.453-11.453-1.88-1.88-11.453 11.453 1.88 1.88z"></path>
</svg>
