<!-- Generated by IcoMoon.io -->
<svg version="1.1" xmlns="http://www.w3.org/2000/svg" width="32" height="32" viewBox="0 0 32 32">
<title>satellite-variant</title>
<path d="M15.493 1.333l7.547 7.56-2.827 2.827-2.827-2.827-1.893 1.893 3.107 3.093-1.547 1.56 0.6 0.613c0.414-0.198 0.899-0.314 1.412-0.314 0.923 0 1.758 0.375 2.361 0.98l0 0-4.707 4.707c-0.606-0.604-0.981-1.439-0.981-2.361 0-0.513 0.116-0.998 0.323-1.432l-0.009 0.020-0.613-0.6-1.56 1.547-3.093-3.107-1.893 1.893 2.827 2.827-2.827 2.827-7.56-7.547 2.853-2.827 2.827 2.827 1.88-1.88-3.773-3.773c-1.040-1.040-1.040-2.733 0-3.773l0.947-0.947c1.040-1.040 2.733-1.040 3.773 0l3.773 3.773 1.88-1.88-2.827-2.827 2.827-2.853M24 18.667c0 2.946-2.388 5.333-5.333 5.333v0-2.667c1.473 0 2.667-1.194 2.667-2.667v0h2.667M29.333 18.667c0 5.891-4.776 10.667-10.667 10.667v0-2.667c4.418 0 8-3.582 8-8v0h2.667z"></path>
</svg>
