<!-- Generated by IcoMoon.io -->
<svg version="1.1" xmlns="http://www.w3.org/2000/svg" width="32" height="32" viewBox="0 0 32 32">
<title>satellite</title>
<path d="M6.667 24l4.667-6 3.333 4 4.667-6 6 8M6.667 16v-2.667c3.682 0 6.667-2.985 6.667-6.667v0h2.667c0 5.155-4.179 9.333-9.333 9.333v0M6.667 6.667h4c0 2.209-1.791 4-4 4v0M25.333 4h-18.667c-1.473 0-2.667 1.194-2.667 2.667v0 18.667c0 1.473 1.194 2.667 2.667 2.667v0h18.667c1.473 0 2.667-1.194 2.667-2.667v0-18.667c0-1.473-1.194-2.667-2.667-2.667v0z"></path>
</svg>
