<!-- Generated by IcoMoon.io -->
<svg version="1.1" xmlns="http://www.w3.org/2000/svg" width="32" height="32" viewBox="0 0 32 32">
<title>scale</title>
<path d="M11.28 20.080l-1.88 1.88-1.827-1.827c-1.132 1.439-1.905 3.211-2.154 5.147l-0.006 0.053h2.587v2.667h-5.333v-1.333c0-6.453 4.587-11.827 10.667-13.067v-2.667l-10.667-4.267v-2.667h26.667v2.667l-10.667 4.267v2.667c6.080 1.24 10.667 6.613 10.667 13.067v1.333h-5.333v-2.667h2.587c-0.255-1.989-1.028-3.761-2.177-5.223l0.017 0.023-1.827 1.827-1.88-1.88 1.827-1.84c-1.444-1.132-3.22-1.905-5.16-2.154l-0.053-0.006v2.587h-2.667v-2.587c-1.947 0.24-3.733 1.013-5.213 2.16l1.827 1.84M16 24c1.473 0 2.667 1.194 2.667 2.667v0c0 1.473-1.194 2.667-2.667 2.667v0c-0.427 0-0.827-0.093-1.173-0.28l-5.133-2.387 5.133-2.387c0.347-0.187 0.747-0.28 1.173-0.28z"></path>
</svg>
