<!-- Generated by IcoMoon.io -->
<svg version="1.1" xmlns="http://www.w3.org/2000/svg" width="32" height="32" viewBox="0 0 32 32">
<title>scale-bathroom</title>
<path d="M6.667 2.667h18.667c1.473 0 2.667 1.194 2.667 2.667v21.333c0 1.473-1.194 2.667-2.667 2.667v0h-18.667c-1.473 0-2.667-1.194-2.667-2.667v-21.333c0-1.473 1.194-2.667 2.667-2.667v0M16 5.333c-2.946 0-5.333 2.388-5.333 5.333v0h4.347l-0.547-3.693 2.733 3.693h4.133c0-2.946-2.388-5.333-5.333-5.333v0M6.667 13.333v13.333h18.667v-13.333h-18.667z"></path>
</svg>
