<!-- Generated by IcoMoon.io -->
<svg version="1.1" xmlns="http://www.w3.org/2000/svg" width="32" height="32" viewBox="0 0 32 32">
<title>screen-rotation</title>
<path d="M10 28.667c-4.333-2.080-7.453-6.32-7.933-11.333h-2c0.68 8.213 7.547 14.667 15.933 14.667l0.88-0.040-5.080-5.080M19.773 28.253l-16.027-16.027 8.48-8.48 16.027 16.027M13.64 2.333c-0.36-0.365-0.86-0.59-1.413-0.59s-1.053 0.226-1.413 0.59l-8.48 8.48c-0.365 0.36-0.59 0.86-0.59 1.413s0.226 1.053 0.59 1.413l16.027 16.027c0.787 0.787 2.053 0.787 2.827 0l8.48-8.48c0.787-0.787 0.787-2.053 0-2.827l-16.027-16.027M22 3.333c4.333 2.093 7.453 6.32 7.933 11.333h2c-0.68-8.213-7.547-14.667-15.933-14.667l-0.88 0.040 5.080 5.080 1.8-1.787z"></path>
</svg>
