<!-- Generated by IcoMoon.io -->
<svg version="1.1" xmlns="http://www.w3.org/2000/svg" width="32" height="32" viewBox="0 0 32 32">
<title>screen-rotation-lock</title>
<path d="M22.4 3.333c0-1.253 1.013-2.267 2.267-2.267s2.267 1.013 2.267 2.267v0.667h-4.533v-0.667M21.333 12h6.667c0.736 0 1.333-0.597 1.333-1.333v0-5.333c0-0.736-0.597-1.333-1.333-1.333v0-0.667c0-1.841-1.492-3.333-3.333-3.333v0c-1.841 0-3.333 1.492-3.333 3.333v0 0.667c-0.736 0-1.333 0.597-1.333 1.333v0 5.333c0 0.736 0.597 1.333 1.333 1.333v0M11.293 27.333c-4.36-2.080-7.48-6.32-7.96-11.333h-2c0.667 8.213 7.547 14.667 15.933 14.667l0.88-0.040-5.080-5.093-1.773 1.8M31 17.027l-3.427-3.427-1.88 1.88 2.973 2.96-7.56 7.56-15.107-15.107 7.56-7.56 2.8 2.813 1.88-1.88-3.267-3.267c-0.36-0.365-0.86-0.59-1.413-0.59s-1.053 0.226-1.413 0.59l-8.48 8.48c-0.365 0.36-0.59 0.86-0.59 1.413s0.226 1.053 0.59 1.413l16.027 16.027c0.787 0.787 2.053 0.787 2.827 0l8.48-8.48c0.787-0.787 0.787-2.053 0-2.827z"></path>
</svg>
