<!-- Generated by IcoMoon.io -->
<svg version="1.1" xmlns="http://www.w3.org/2000/svg" width="32" height="32" viewBox="0 0 32 32">
<title>screwdriver</title>
<path d="M24 2.44c-0.667 0-1.333 0.227-1.88 0.773l-11.453 11.453 2 2-4.667 4.667h-2.667l-2.667 5.333 2.667 2.667 5.333-2.667v-2.667l4.667-4.667 2 2 11.453-11.453c0.827-1.213 1.040-2.72 0-3.76l-2.907-2.907c-0.472-0.478-1.126-0.773-1.85-0.773-0.010 0-0.021 0-0.031 0h0.002M24 5.333l2.667 2.667-9.333 9.333-2.667-2.667 9.333-9.333z"></path>
</svg>
