<!-- Generated by IcoMoon.io -->
<svg version="1.1" xmlns="http://www.w3.org/2000/svg" width="32" height="32" viewBox="0 0 32 32">
<title>seat-recline-extra</title>
<path d="M7.133 7.52c-1.2-0.853-1.493-2.507-0.653-3.72 0.853-1.2 2.507-1.493 3.72-0.653 1.2 0.853 1.493 2.507 0.653 3.72-0.853 1.2-2.507 1.493-3.72 0.653M21.333 25.333h-9.427c-1.973 0-3.653-1.44-3.947-3.387l-2.627-12.613h-2.667l2.667 13.013c0.504 3.219 3.258 5.653 6.58 5.653 0.002 0 0.005 0 0.007 0h9.413M21.64 20h-6.507l-1.373-5.467c2.107 1.187 4.373 2.053 6.867 1.627v-2.827c-2.173 0.4-4.587-0.373-6.253-1.68l-2.187-1.693c-0.307-0.24-0.653-0.4-1.013-0.507-0.25-0.076-0.537-0.12-0.834-0.12-0.172 0-0.34 0.015-0.504 0.043l0.018-0.002h-0.027c-1.427 0.26-2.495 1.494-2.495 2.977 0 0.178 0.015 0.351 0.045 0.521l-0.003-0.018 1.8 7.893c0.358 1.864 1.975 3.253 3.918 3.253 0.006 0 0.011 0 0.017-0h9.132l5.093 4 2-2"></path>
</svg>
