<!-- Generated by IcoMoon.io -->
<svg version="1.1" xmlns="http://www.w3.org/2000/svg" width="32" height="32" viewBox="0 0 32 32">
<title>select-inverse</title>
<path d="M6.667 4h2.667v2.667h2.667v-2.667h2.667v2.667h2.667v-2.667h2.667v2.667h2.667v-2.667h2.667v2.667h2.667v2.667h-2.667v2.667h2.667v2.667h-2.667v2.667h2.667v2.667h-2.667v2.667h2.667v2.667h-2.667v2.667h-2.667v-2.667h-2.667v2.667h-2.667v-2.667h-2.667v2.667h-2.667v-2.667h-2.667v2.667h-2.667v-2.667h-2.667v-2.667h2.667v-2.667h-2.667v-2.667h2.667v-2.667h-2.667v-2.667h2.667v-2.667h-2.667v-2.667h2.667v-2.667z"></path>
</svg>
