<!-- Generated by IcoMoon.io -->
<svg version="1.1" xmlns="http://www.w3.org/2000/svg" width="32" height="32" viewBox="0 0 32 32">
<title>select-all</title>
<path d="M12 12h8v8h-8M9.333 22.667h13.333v-13.333h-13.333M20 6.667h2.667v-2.667h-2.667M20 28h2.667v-2.667h-2.667M25.333 22.667h2.667v-2.667h-2.667M25.333 12h2.667v-2.667h-2.667M25.333 28c1.473 0 2.667-1.194 2.667-2.667v0h-2.667M25.333 17.333h2.667v-2.667h-2.667M14.667 28h2.667v-2.667h-2.667M12 4h-2.667v2.667h2.667M4 22.667h2.667v-2.667h-2.667M6.667 28v-2.667h-2.667c0 1.473 1.194 2.667 2.667 2.667v0M25.333 4v2.667h2.667c0-1.473-1.194-2.667-2.667-2.667v0M17.333 4h-2.667v2.667h2.667M4 12h2.667v-2.667h-2.667M9.333 28h2.667v-2.667h-2.667M4 17.333h2.667v-2.667h-2.667M4 6.667h2.667v-2.667c-1.473 0-2.667 1.194-2.667 2.667v0z"></path>
</svg>
