<!-- Generated by IcoMoon.io -->
<svg version="1.1" xmlns="http://www.w3.org/2000/svg" width="32" height="32" viewBox="0 0 32 32">
<title>server-security</title>
<path d="M4 1.333h21.333c0.736 0 1.333 0.597 1.333 1.333v0 5.333c0 0.736-0.597 1.333-1.333 1.333h-21.333c-0.736 0-1.333-0.597-1.333-1.333v0-5.333c0-0.736 0.597-1.333 1.333-1.333v0M4 12h21.333c0.736 0 1.333 0.597 1.333 1.333v0 0.893l-3.333-1.48-8.667 3.84v3.413h-10.667c-0.736 0-1.333-0.597-1.333-1.333v-5.333c0-0.736 0.597-1.333 1.333-1.333v0M4 22.667h10.667c0.080 3 1.333 5.867 3.28 8h-13.947c-0.736 0-1.333-0.597-1.333-1.333v0-5.333c0-0.736 0.597-1.333 1.333-1.333v0M10.667 6.667h1.333v-2.667h-1.333v2.667M10.667 17.333h1.333v-2.667h-1.333v2.667M10.667 28h1.333v-2.667h-1.333v2.667M5.333 4v2.667h2.667v-2.667h-2.667M5.333 14.667v2.667h2.667v-2.667h-2.667M5.333 25.333v2.667h2.667v-2.667h-2.667M23.333 16l6 2.667v4c0 3.707-2.56 7.16-6 8-3.44-0.84-6-4.293-6-8v-4l6-2.667M23.333 18.587l-3.333 1.493v3.547c0 2.053 1.427 3.973 3.333 4.453v-9.493z"></path>
</svg>
