<!-- Generated by IcoMoon.io -->
<svg version="1.1" xmlns="http://www.w3.org/2000/svg" width="32" height="32" viewBox="0 0 32 32">
<title>server-network-off</title>
<path d="M17.333 24h1.333c0.736 0 1.333 0.597 1.333 1.333v0h0.973l-3.64-3.64v2.307M29.333 25.333v1.573l-1.573-1.573h1.573M28 28.96l-1.693 1.707-2.667-2.667h-3.64c0 0.736-0.597 1.333-1.333 1.333v0h-5.333c-0.736 0-1.333-0.597-1.333-1.333v0h-9.333v-2.667h9.333c0-0.736 0.597-1.333 1.333-1.333h1.333v-2.667h-9.333c-0.736 0-1.333-0.597-1.333-1.333v0-5.333c0-0.736 0.597-1.333 1.333-1.333v0h3.64l-2.667-2.667h-0.973c-0.736 0-1.333-0.597-1.333-1.333v0-0.973l-2.667-2.667 1.707-1.693 24.96 24.96M5.333 2.667h21.333c0.736 0 1.333 0.597 1.333 1.333v0 5.333c0 0.736-0.597 1.333-1.333 1.333v0h-13.573l-3.76-3.76v-1.573h-1.573l-2.64-2.667h0.213M26.667 13.333c0.736 0 1.333 0.597 1.333 1.333v0 5.333c0 0.736-0.597 1.333-1.333 1.333v0h-2.907l-8-8h10.907M12 8h1.333v-2.667h-1.333v2.667M12 18.667h1.333v-0.973l-1.333-1.333v2.307M6.667 16v2.667h2.667v-2.667h-2.667z"></path>
</svg>
