<!-- Generated by IcoMoon.io -->
<svg version="1.1" xmlns="http://www.w3.org/2000/svg" width="32" height="32" viewBox="0 0 32 32">
<title>settings-box</title>
<path d="M23 16c0 0.307-0.027 0.613-0.067 0.907l1.973 1.547c0.173 0.147 0.227 0.387 0.107 0.6l-1.867 3.227c-0.12 0.2-0.36 0.28-0.573 0.2l-2.32-0.933c-0.48 0.373-1.013 0.68-1.587 0.92l-0.333 2.467c-0.040 0.227-0.24 0.4-0.467 0.4h-3.733c-0.227 0-0.427-0.173-0.467-0.4l-0.333-2.467c-0.587-0.24-1.107-0.547-1.587-0.92l-2.32 0.933c-0.213 0.080-0.453 0-0.573-0.2l-1.867-3.227c-0.041-0.068-0.065-0.15-0.065-0.238 0-0.146 0.067-0.276 0.171-0.362l0.001-0.001 1.973-1.547c-0.040-0.293-0.067-0.6-0.067-0.907s0.027-0.613 0.067-0.907l-1.973-1.547c-0.105-0.087-0.171-0.217-0.171-0.363 0-0.087 0.024-0.169 0.065-0.239l-0.001 0.002 1.867-3.227c0.12-0.213 0.36-0.293 0.573-0.213l2.32 0.947c0.48-0.373 1-0.693 1.587-0.92l0.333-2.48c0.040-0.213 0.24-0.387 0.467-0.387h3.733c0.227 0 0.427 0.173 0.467 0.387l0.333 2.48c0.573 0.227 1.107 0.547 1.587 0.92l2.32-0.947c0.213-0.080 0.453 0 0.573 0.213l1.867 3.227c0.12 0.2 0.067 0.453-0.107 0.6l-1.973 1.547c0.040 0.293 0.067 0.6 0.067 0.907M25.333 4h-18.667c-1.48 0-2.667 1.187-2.667 2.667v18.667c0 1.473 1.194 2.667 2.667 2.667v0h18.667c1.473 0 2.667-1.194 2.667-2.667v0-18.667c0-1.473-1.194-2.667-2.667-2.667v0M16 13.333c-1.48 0-2.667 1.187-2.667 2.667 0 1.473 1.194 2.667 2.667 2.667v0c1.473 0 2.667-1.194 2.667-2.667v0c0-1.473-1.194-2.667-2.667-2.667v0z"></path>
</svg>
