<!-- Generated by IcoMoon.io -->
<svg version="1.1" xmlns="http://www.w3.org/2000/svg" width="32" height="32" viewBox="0 0 32 32">
<title>shovel-off</title>
<path d="M20.133 2.413l-3.773 3.787c-0.476 0.483-0.77 1.147-0.77 1.88s0.294 1.397 0.77 1.88l-0-0 1.88 1.893-0.907 0.973 1.92 1.92 0.973-0.973 1.853 1.853c1.040 1.040 2.733 1.040 3.773 0l3.773-3.787-9.493-9.427M23.907 13.707l-5.64-5.627 1.88-1.88 5.64 5.64-1.88 1.867M27.6 26.987l-1.88 1.88-10.387-10.36-1.333 1.333 3.773 3.747-1.773 1.867c-6.667 6.547-11.333 1.88-11.333 1.88s-4.747-4.667 1.853-11.333l1.893-1.867 3.76 3.773 1.333-1.333-10.373-10.333 1.893-1.893 22.573 22.64z"></path>
</svg>
