<!-- Generated by IcoMoon.io -->
<svg version="1.1" xmlns="http://www.w3.org/2000/svg" width="32" height="32" viewBox="0 0 32 32">
<title>silverware-variant</title>
<path d="M10.8 17.787l-5.587-5.573c-0.964-0.967-1.56-2.3-1.56-3.773s0.596-2.807 1.56-3.773l-0 0 9.36 9.333-3.773 3.787M17.88 17.333l9.173 9.173-1.88 1.88-9.173-9.173-9.173 9.173-1.88-1.88 12.867-12.88-0.267-0.293c-0.482-0.478-0.78-1.141-0.78-1.873s0.298-1.395 0.78-1.873l0-0 5.787-5.827 1.24 1.227-4.32 4.347 1.28 1.253 4.32-4.333 1.227 1.227-4.333 4.32 1.253 1.28 4.347-4.333 1.227 1.253-5.827 5.787c-1.040 1.040-2.72 1.040-3.747 0l-0.293-0.267-1.827 1.813z"></path>
</svg>
