<!-- Generated by IcoMoon.io -->
<svg version="1.1" xmlns="http://www.w3.org/2000/svg" width="32" height="32" viewBox="0 0 32 32">
<title>sim</title>
<path d="M26.667 5.333c0-1.473-1.194-2.667-2.667-2.667v0h-10.667l-8 8v16c0 1.473 1.194 2.667 2.667 2.667v0h16c1.473 0 2.667-1.194 2.667-2.667v-21.333M12 25.333h-2.667v-2.667h2.667v2.667M22.667 25.333h-2.667v-2.667h2.667v2.667M12 20h-2.667v-5.333h2.667v5.333M17.333 25.333h-2.667v-5.333h2.667v5.333M17.333 17.333h-2.667v-2.667h2.667v2.667M22.667 20h-2.667v-5.333h2.667v5.333z"></path>
</svg>
