<!-- Generated by IcoMoon.io -->
<svg version="1.1" xmlns="http://www.w3.org/2000/svg" width="32" height="32" viewBox="0 0 32 32">
<title>skip-next-circle-outline</title>
<path d="M16 2.667c-7.364 0-13.333 5.97-13.333 13.333v0c0 7.364 5.97 13.333 13.333 13.333v0c7.364 0 13.333-5.97 13.333-13.333v0c0-7.364-5.97-13.333-13.333-13.333v0M16 5.333c5.88 0 10.667 4.787 10.667 10.667s-4.787 10.667-10.667 10.667-10.667-4.787-10.667-10.667 4.787-10.667 10.667-10.667M10.667 10.667v10.667l6.667-5.333M18.667 10.667v10.667h2.667v-10.667"></path>
</svg>
