<!-- Generated by IcoMoon.io -->
<svg version="1.1" xmlns="http://www.w3.org/2000/svg" width="32" height="32" viewBox="0 0 32 32">
<title>skull</title>
<path d="M16 2.667c-6.627 0-12 5.373-12 12v0c0.004 4.136 2.102 7.781 5.291 9.933l0.043 0.027v4.707h2.667v-4h2.667v4h2.667v-4h2.667v4h2.667v-4.72c3.293-2.2 5.333-5.947 5.333-9.947 0-6.627-5.373-12-12-12v0M10.667 14.667c1.473 0 2.667 1.194 2.667 2.667v0c0 1.473-1.194 2.667-2.667 2.667v0c-1.473 0-2.667-1.194-2.667-2.667v0c0-1.473 1.194-2.667 2.667-2.667v0M21.333 14.667c1.473 0 2.667 1.194 2.667 2.667v0c0 1.473-1.194 2.667-2.667 2.667v0c-1.473 0-2.667-1.194-2.667-2.667v0c0-1.473 1.194-2.667 2.667-2.667v0M16 18.667l2 4h-4l2-4z"></path>
</svg>
