<!-- Generated by IcoMoon.io -->
<svg version="1.1" xmlns="http://www.w3.org/2000/svg" width="32" height="32" viewBox="0 0 32 32">
<title>skype-business</title>
<path d="M16.040 22.040c-3.547 0-5.133-1.747-5.133-3.053 0-0.667 0.493-1.147 1.173-1.147 1.52 0 1.133 2.16 3.96 2.16 1.453 0 2.267-0.76 2.267-1.573 0-0.48-0.24-1.013-1.2-1.253l-3.16-0.787c-2.547-0.64-3.013-2.013-3.013-3.307 0-2.693 2.533-3.707 4.907-3.707 2.16 0 4.773 1.213 4.773 2.827 0 0.693-0.613 1.093-1.28 1.093-1.333 0-1.067-1.8-3.68-1.8-1.293 0-2.013 0.587-2.013 1.427s1.027 1.080 1.907 1.32l2.347 0.52c2.56 0.573 3.213 2.067 3.213 3.467 0 2.187-1.68 3.813-5.067 3.813M24 8c2.76 2.72 3.8 6.52 3.147 10.067 0.547 0.96 0.853 2.080 0.853 3.267 0 3.682-2.985 6.667-6.667 6.667v0c-1.187 0-2.307-0.307-3.267-0.853-3.547 0.653-7.347-0.387-10.067-3.147-2.76-2.72-3.8-6.52-3.147-10.067-0.547-0.96-0.853-2.080-0.853-3.267 0-3.682 2.985-6.667 6.667-6.667v0c1.187 0 2.307 0.307 3.267 0.853 3.547-0.653 7.347 0.387 10.067 3.147M10.667 6.667c-2.209 0-4 1.791-4 4v0c0 1.053 0.4 2 1.067 2.72-0.933 2.987-0.227 6.373 2.133 8.747 1.573 1.566 3.743 2.533 6.138 2.533 0.931 0 1.829-0.146 2.67-0.417l-0.062 0.017c0.72 0.667 1.667 1.067 2.72 1.067 2.209 0 4-1.791 4-4v0c0-1.053-0.4-2-1.067-2.72 0.933-2.987 0.227-6.373-2.133-8.747-1.573-1.566-3.743-2.533-6.138-2.533-0.931 0-1.829 0.146-2.67 0.417l0.062-0.017c-0.72-0.667-1.667-1.067-2.72-1.067z"></path>
</svg>
