<!-- Generated by IcoMoon.io -->
<svg version="1.1" xmlns="http://www.w3.org/2000/svg" width="32" height="32" viewBox="0 0 32 32">
<title>skype</title>
<path d="M24 8c2.76 2.72 3.8 6.52 3.147 10.067 0.547 0.96 0.853 2.080 0.853 3.267 0 3.682-2.985 6.667-6.667 6.667v0c-1.187 0-2.307-0.307-3.267-0.853-3.547 0.653-7.347-0.387-10.067-3.147-2.76-2.72-3.8-6.52-3.147-10.067-0.547-0.96-0.853-2.080-0.853-3.267 0-3.682 2.985-6.667 6.667-6.667v0c1.187 0 2.307 0.307 3.267 0.853 3.547-0.653 7.347 0.387 10.067 3.147M16.053 22.88c3.827 0 5.733-1.84 5.733-4.32 0-1.587-0.747-3.28-3.64-3.933l-2.653-0.587c-1.013-0.227-2.16-0.533-2.16-1.48 0-0.96 0.8-1.627 2.267-1.627 2.973 0 2.693 2.040 4.173 2.040 0.773 0 1.44-0.453 1.44-1.24 0-1.827-2.92-3.2-5.4-3.2-2.68 0-5.547 1.147-5.547 4.187 0 1.467 0.52 3.027 3.4 3.747l3.587 0.907c1.080 0.267 1.347 0.867 1.347 1.427 0 0.907-0.907 1.8-2.547 1.8-3.213 0-2.773-2.467-4.493-2.467-0.773 0-1.333 0.533-1.333 1.293 0 1.48 1.773 3.453 5.827 3.453z"></path>
</svg>
