<!-- Generated by IcoMoon.io -->
<svg version="1.1" xmlns="http://www.w3.org/2000/svg" width="32" height="32" viewBox="0 0 32 32">
<title>slack</title>
<path d="M13.64 14.88l3.573-1.187 1.147 3.427-3.573 1.187-1.147-3.427M23.587 18.28c0.72-0.24 1.080-1.027 0.867-1.747-0.24-0.72-1.027-1.12-1.747-0.867l-1.733 0.573-1.147-3.427 1.733-0.587c0.72-0.227 1.107-1.027 0.867-1.747s-1.027-1.147-1.76-0.867l-1.72 0.573-0.6-1.787c-0.24-0.72-1.013-1.12-1.747-0.867-0.72 0.24-1.107 1.027-0.867 1.747l0.6 1.787-3.573 1.187-0.6-1.787c-0.24-0.72-1.013-1.133-1.747-0.867-0.72 0.24-1.080 1.027-0.867 1.733l0.6 1.8-1.733 0.587c-0.72 0.24-1.080 1.027-0.867 1.747 0.187 0.533 0.707 0.933 1.267 0.947l0.48-0.080 1.733-0.573 1.147 3.427-1.733 0.587c-0.72 0.227-1.107 1.027-0.867 1.747 0.187 0.56 0.707 0.933 1.267 0.947l0.493-0.080 1.72-0.573 0.6 1.787c0.187 0.573 0.707 0.933 1.267 0.947l0.48-0.080c0.72-0.24 1.107-1.013 0.867-1.747l-0.6-1.787 3.573-1.187 0.6 1.787c0.16 0.56 0.707 0.92 1.267 0.933l0.48-0.067c0.72-0.24 1.080-1.027 0.867-1.733l-0.6-1.8 1.733-0.587M28.227 12.333c2.747 9.16 0.6 13.133-8.56 15.893-9.16 2.747-13.133 0.6-15.893-8.56-2.747-9.16-0.6-13.133 8.56-15.893 9.16-2.747 13.133-0.6 15.893 8.56z"></path>
</svg>
