<!-- Generated by IcoMoon.io -->
<svg version="1.1" xmlns="http://www.w3.org/2000/svg" width="32" height="32" viewBox="0 0 32 32">
<title>smoking-off</title>
<path d="M21.093 18.667l5.333 5.333h2.907v-5.333M2.667 24h4v-5.333h-4M4.373 5.333l-1.707 1.693 3.253 3.253c-2.013 1.2-3.253 3.373-3.253 5.72h2.667c0.002-1.695 1.057-3.143 2.546-3.724l0.027-0.009 6.4 6.4h-4.973v5.333h10.307l5.333 5.333 1.693-1.707M13.333 4v1.333c0 1.453-0.8 2.8-2.067 3.493l1.92 1.933c1.708-1.22 2.81-3.194 2.813-5.426v-1.334h-2.667z"></path>
</svg>
