<!-- Generated by IcoMoon.io -->
<svg version="1.1" xmlns="http://www.w3.org/2000/svg" width="32" height="32" viewBox="0 0 32 32">
<title>snapchat</title>
<path d="M16 27.267c-1.587 0-2.533-0.68-3.373-1.267-0.627-0.427-1.187-0.84-1.853-0.947-1.533-0.080-1.987 0-2.813 0.147-0.147 0-0.32-0.040-0.387-0.28-0.24-1-0.307-1.28-0.48-1.307-1.76-0.28-2.84-0.68-3.053-1.173-0.040-0.307 0.053-0.44 0.2-0.44 1.427-0.253 2.693-1 3.76-2.253 0.84-0.96 1.24-1.893 1.28-1.987 0.213-0.427 0.253-0.8 0.133-1.093-0.227-0.547-1-0.787-1.84-1.067-0.453-0.173-1.187-0.547-1.093-1.067 0.080-0.373 0.573-0.64 1.267-0.587 0.467 0.213 0.867 0.32 1.227 0.32 0.44 0 0.64-0.16 0.693-0.213-0.147-2.347-0.267-4.387 0.253-5.547 1.56-3.493 4.853-3.773 6.080-3.773s4.52 0.28 6.080 3.773c0.52 1.16 0.4 3.2 0.253 5.547 0.053 0.053 0.253 0.213 0.693 0.213 0.36 0 0.76-0.107 1.227-0.32 0.693-0.053 1.187 0.213 1.267 0.587 0.093 0.52-0.64 0.893-1.093 1.067-0.84 0.28-1.613 0.52-1.84 1.067-0.12 0.293-0.080 0.667 0.133 1.093 0.040 0.093 0.44 1.027 1.28 1.987 1.067 1.253 2.333 2 3.76 2.253 0.147 0 0.24 0.133 0.2 0.44-0.213 0.493-1.293 0.893-3.053 1.173-0.173 0.027-0.24 0.307-0.48 1.307-0.067 0.24-0.24 0.28-0.387 0.28-0.827-0.147-1.28-0.227-2.813-0.147-0.667 0.107-1.227 0.52-1.853 0.947-0.84 0.587-1.787 1.267-3.373 1.267z"></path>
</svg>
