<!-- Generated by IcoMoon.io -->
<svg version="1.1" xmlns="http://www.w3.org/2000/svg" width="32" height="32" viewBox="0 0 32 32">
<title>snowman</title>
<path d="M22.667 22.667c0 3.682-2.985 6.667-6.667 6.667v0c-3.682 0-6.667-2.985-6.667-6.667v0c0-2 0.867-3.773 2.253-5-0.573-0.853-0.92-1.893-0.92-3v-0.547l-3.947-2.293-0.28-0.213-3.387 0.907-0.347-1.28 2.947-0.787-2.64-1.533 0.667-1.16 2.64 1.533-0.787-2.96 1.28-0.333 0.92 3.387 0.32 0.133 3.587 2.067c0.509-0.72 1.177-1.295 1.956-1.68l0.030-0.014c-0.96-0.733-1.627-1.893-1.627-3.227 0-2.209 1.791-4 4-4v0c2.209 0 4 1.791 4 4v0c0 1.333-0.667 2.493-1.627 3.227 0.8 0.387 1.48 0.973 1.987 1.693l3.587-2.067 0.32-0.133 0.92-3.387 1.28 0.333-0.787 2.96 2.64-1.533 0.667 1.16-2.64 1.533 2.947 0.787-0.347 1.28-3.387-0.907-0.28 0.213-3.947 2.293v0.547c0 1.107-0.347 2.147-0.92 3 1.387 1.227 2.253 3 2.253 5z"></path>
</svg>
