<!-- Generated by IcoMoon.io -->
<svg version="1.1" xmlns="http://www.w3.org/2000/svg" width="32" height="32" viewBox="0 0 32 32">
<title>sort-numeric</title>
<path d="M10.373 9.333c1.733 0.053 2.96 0.707 3.72 1.947 0.747 1.253 1.12 2.8 1.093 4.653 0.013 2.067-0.4 3.707-1.187 4.893-0.827 1.173-2.067 1.8-3.72 1.84-1.68-0.053-2.893-0.667-3.667-1.92-0.773-1.24-1.16-2.813-1.16-4.747s0.4-3.52 1.213-4.747c0.787-1.253 2-1.867 3.707-1.92M10.333 11.507c-0.587 0-1.053 0.36-1.4 1.107-0.347 0.72-0.507 1.88-0.507 3.387-0.013 1.533 0.16 2.667 0.493 3.387 0.347 0.747 0.827 1.107 1.44 1.107 1.227 0 1.853-1.507 1.867-4.493 0-2.973-0.627-4.467-1.893-4.493M17.773 22.667v-2.373l0.573 0.027 0.72-0.027 1.387-0.253c0.453-0.147 0.88-0.333 1.227-0.6 0.44-0.307 0.8-0.667 1.080-1.093 0.293-0.413 0.493-0.853 0.613-1.307l-0.040-0.013c-0.6 0.56-1.493 0.84-2.707 0.853-1.133-0.013-2.080-0.347-2.84-1.013s-1.12-1.627-1.173-2.867c0.013-1.333 0.467-2.413 1.347-3.293 0.893-0.88 2.040-1.333 3.533-1.373 1.667 0.053 2.893 0.6 3.68 1.653 0.787 1.013 1.173 2.347 1.173 3.933-0.013 1.28-0.2 2.413-0.587 3.427-0.387 0.987-0.907 1.827-1.6 2.507-0.613 0.56-1.347 0.987-2.2 1.293-0.853 0.293-1.8 0.467-2.84 0.52h-1.347M21.413 11.507c-0.547 0.013-0.987 0.227-1.333 0.64-0.333 0.413-0.507 0.973-0.507 1.667 0 0.587 0.16 1.067 0.467 1.467 0.32 0.413 0.8 0.613 1.44 0.627 0.427 0 0.787-0.093 1.080-0.253 0.293-0.173 0.507-0.373 0.653-0.613 0.12-0.147 0.16-0.413 0.16-0.76 0.013-0.733-0.133-1.36-0.44-1.907s-0.813-0.84-1.52-0.867M12.333 6.667l4.333-4.333 4.333 4.333h-8.667M21 25.333l-4.333 4.333-4.333-4.333h8.667z"></path>
</svg>
