<!-- Generated by IcoMoon.io -->
<svg version="1.1" xmlns="http://www.w3.org/2000/svg" width="32" height="32" viewBox="0 0 32 32">
<title>sort-alphabetical</title>
<path d="M12.333 6.667l4.333-4.333 4.333 4.333h-8.667M21 25.333l-4.333 4.333-4.333-4.333h8.667M11.853 19.067h-3.853l-0.96 3.6h-3.16l4.12-13.333h4l4.173 13.333h-3.28l-1.040-3.6M8.44 16.907h2.973l-0.84-2.827-0.347-1.293-0.333-1.28h-0.040l-0.293 1.293-0.32 1.307-0.8 2.8M17.4 22.667v-1.68l6.333-9.027v-0.080h-5.733v-2.547h9.64v1.787l-6.187 8.88v0.107h6.28v2.56h-10.333z"></path>
</svg>
