<!-- Generated by IcoMoon.io -->
<svg version="1.1" xmlns="http://www.w3.org/2000/svg" width="32" height="32" viewBox="0 0 32 32">
<title>source-pull</title>
<path d="M8 4c2.209 0 4 1.791 4 4v0c0 1.747-1.107 3.227-2.667 3.773v8.453c1.56 0.547 2.667 2.027 2.667 3.773 0 2.209-1.791 4-4 4v0c-2.209 0-4-1.791-4-4v0c0-1.747 1.107-3.227 2.667-3.773v-8.453c-1.566-0.561-2.667-2.033-2.667-3.762 0-0.004 0-0.008 0-0.012v0.001c0-2.209 1.791-4 4-4v0M8 6.667c-0.736 0-1.333 0.597-1.333 1.333v0c0 0.736 0.597 1.333 1.333 1.333v0c0.736 0 1.333-0.597 1.333-1.333v0c0-0.736-0.597-1.333-1.333-1.333v0M8 22.667c-0.736 0-1.333 0.597-1.333 1.333v0c0 0.736 0.597 1.333 1.333 1.333v0c0.736 0 1.333-0.597 1.333-1.333v0c0-0.736-0.597-1.333-1.333-1.333v0M28 24c0 2.209-1.791 4-4 4v0c-2.209 0-4-1.791-4-4v0c0-1.747 1.107-3.227 2.667-3.773v-10.893h-2.667v4.333l-5.667-5.667 5.667-5.667v4.333h2.667c1.473 0 2.667 1.194 2.667 2.667v10.893c1.56 0.547 2.667 2.027 2.667 3.773M24 22.667c-0.736 0-1.333 0.597-1.333 1.333v0c0 0.736 0.597 1.333 1.333 1.333v0c0.736 0 1.333-0.597 1.333-1.333v0c0-0.736-0.597-1.333-1.333-1.333v0z"></path>
</svg>
