<!-- Generated by IcoMoon.io -->
<svg version="1.1" xmlns="http://www.w3.org/2000/svg" width="32" height="32" viewBox="0 0 32 32">
<title>source-commit-start</title>
<path d="M16 9.333c3.682 0 6.667 2.985 6.667 6.667v0c0 0 0 0.001 0 0.001 0 3.21-2.269 5.89-5.29 6.524l-0.043 0.008v5.467h-2.667v-5.467c-3.065-0.642-5.333-3.322-5.333-6.532 0-0 0-0.001 0-0.001v0c0-3.682 2.985-6.667 6.667-6.667v0M16 12c-2.209 0-4 1.791-4 4v0c0 2.209 1.791 4 4 4v0c2.209 0 4-1.791 4-4v0c0-2.209-1.791-4-4-4v0z"></path>
</svg>
