<!-- Generated by IcoMoon.io -->
<svg version="1.1" xmlns="http://www.w3.org/2000/svg" width="32" height="32" viewBox="0 0 32 32">
<title>source-branch</title>
<path d="M17.333 18.667c-4.48 0-5.947 1.8-6.427 2.987 1.427 0.613 2.427 2.027 2.427 3.68 0 2.209-1.791 4-4 4v0c-2.209 0-4-1.791-4-4v0c0-1.747 1.107-3.227 2.667-3.773v-11.12c-1.566-0.561-2.667-2.033-2.667-3.762 0-0.004 0-0.008 0-0.012v0.001c0-2.209 1.791-4 4-4v0c2.209 0 4 1.791 4 4v0c0 1.747-1.107 3.227-2.667 3.773v7.053c1.173-0.867 2.88-1.493 5.333-1.493 3.56 0 4.747-1.787 5.133-2.973-1.459-0.619-2.464-2.039-2.467-3.693v-0c0-2.209 1.791-4 4-4v0c2.209 0 4 1.791 4 4v0c0 1.787-1.173 3.333-2.787 3.813-0.347 1.907-1.64 5.52-6.547 5.52M9.333 24c-0.736 0-1.333 0.597-1.333 1.333v0c0 0.736 0.597 1.333 1.333 1.333v0c0.736 0 1.333-0.597 1.333-1.333v0c0-0.736-0.597-1.333-1.333-1.333v0M9.333 5.333c-0.736 0-1.333 0.597-1.333 1.333v0c0 0.736 0.597 1.333 1.333 1.333v0c0.736 0 1.333-0.597 1.333-1.333v0c0-0.736-0.597-1.333-1.333-1.333v0M22.667 8c-0.736 0-1.333 0.597-1.333 1.333v0c0 0.736 0.597 1.333 1.333 1.333v0c0.736 0 1.333-0.597 1.333-1.333v0c0-0.736-0.597-1.333-1.333-1.333v0z"></path>
</svg>
