<!-- Generated by IcoMoon.io -->
<svg version="1.1" xmlns="http://www.w3.org/2000/svg" width="32" height="32" viewBox="0 0 32 32">
<title>speaker-off</title>
<path d="M2.667 7.027l1.707-1.693 23.627 23.627-1.693 1.707-1.947-1.947c-0.453 0.387-1.027 0.613-1.693 0.613h-13.333c-1.473 0-2.667-1.194-2.667-2.667v-15.64l-4-4M16 24c-2.209 0-4-1.791-4-4v0c0-1.013 0.373-1.947 1-2.667l-1.893-1.867c-1.107 1.2-1.773 2.787-1.773 4.533 0 3.682 2.985 6.667 6.667 6.667v0c1.747 0 3.333-0.667 4.533-1.773l-1.867-1.893c-0.733 0.627-1.653 1-2.667 1M22.667 20c0-3.682-2.985-6.667-6.667-6.667v0h-0.24l-8.933-8.933c0.387-1.013 1.36-1.733 2.507-1.733h13.333c1.473 0 2.667 1.194 2.667 2.667v17.573l-2.667-2.68v-0.227M16 5.333c-1.48 0-2.667 1.187-2.667 2.667 0 1.473 1.194 2.667 2.667 2.667v0c1.473 0 2.667-1.194 2.667-2.667v0c0-1.473-1.194-2.667-2.667-2.667v0z"></path>
</svg>
