<!-- Generated by IcoMoon.io -->
<svg version="1.1" xmlns="http://www.w3.org/2000/svg" width="32" height="32" viewBox="0 0 32 32">
<title>stocking</title>
<path d="M22.667 2.667c1.473 0 2.667 1.194 2.667 2.667v4c0 1.473-1.194 2.667-2.667 2.667v0 10.667c0 1.133-0.667 2.093-1.68 2.48l-8.32 3.88c-1.333 0.627-2.947 0.053-3.56-1.28l-1.107-2.413c-0.667-1.333-0.067-2.933 1.267-3.547l4.067-1.907v-7.88c-1.473 0-2.667-1.194-2.667-2.667v0-4c0-1.473 1.194-2.667 2.667-2.667h9.333M13.333 5.333v4h9.333v-4h-9.333z"></path>
</svg>
