<!-- Generated by IcoMoon.io -->
<svg version="1.1" xmlns="http://www.w3.org/2000/svg" width="32" height="32" viewBox="0 0 32 32">
<title>stove</title>
<path d="M8 18.667h2.667l4 4h-2.667l-4-4M5.333 5.333h1.333v-1.333c0-0.736 0.597-1.333 1.333-1.333v0h5.333c0.736 0 1.333 0.597 1.333 1.333v0 1.333h2.667v-1.333c0-0.736 0.597-1.333 1.333-1.333h5.333c0.736 0 1.333 0.597 1.333 1.333v0 1.333h1.333c1.473 0 2.667 1.194 2.667 2.667v0 17.333c0 1.473-1.194 2.667-2.667 2.667v0 1.333h-4v-1.333h-13.333v1.333h-4v-1.333c-1.473 0-2.667-1.194-2.667-2.667v0-17.333c0-1.473 1.194-2.667 2.667-2.667v0M24 9.333c0.736 0 1.333 0.597 1.333 1.333v0c0 0.736-0.597 1.333-1.333 1.333v0c-0.736 0-1.333-0.597-1.333-1.333v0c0-0.736 0.597-1.333 1.333-1.333v0M18.667 9.333c0.736 0 1.333 0.597 1.333 1.333v0c0 0.736-0.597 1.333-1.333 1.333v0c-0.736 0-1.333-0.597-1.333-1.333v0c0-0.736 0.597-1.333 1.333-1.333v0M26.667 8h-21.333v5.333h21.333v-5.333M5.333 25.333h21.333v-9.333h-21.333v9.333M8 9.333c0.736 0 1.333 0.597 1.333 1.333v0c0 0.736-0.597 1.333-1.333 1.333v0c-0.736 0-1.333-0.597-1.333-1.333v0c0-0.736 0.597-1.333 1.333-1.333v0M17.333 18.667h2.667l4 4h-2.667l-4-4z"></path>
</svg>
