<!-- Generated by IcoMoon.io -->
<svg version="1.1" xmlns="http://www.w3.org/2000/svg" width="32" height="32" viewBox="0 0 32 32">
<title>subway</title>
<path d="M11.333 20c0.736 0 1.333 0.597 1.333 1.333v0c0 0.736-0.597 1.333-1.333 1.333v0c-0.736 0-1.333-0.597-1.333-1.333v0c0-0.736 0.597-1.333 1.333-1.333v0M9.333 12h13.333v6.667h-13.333v-6.667M20.667 20c0.736 0 1.333 0.597 1.333 1.333v0c0 0.736-0.597 1.333-1.333 1.333v0c-0.736 0-1.333-0.597-1.333-1.333v0c0-0.736 0.597-1.333 1.333-1.333v0M24 21.173v-9.173c0-3.493-3.573-4-8-4-4 0-8 0.493-8 4v9.173c0 1.929 1.564 3.493 3.493 3.493v0l-1.493 1.493v0.507h2.227l2-2h3.773l2 2h2v-0.507l-1.507-1.493c1.933 0 3.507-1.56 3.507-3.493M23.733 3.733c3.56 1.387 5.6 4.333 5.6 8.080v17.52h-26.667v-17.52c0-3.747 2.040-6.693 5.6-8.080 2.4-0.947 5.253-1.067 7.733-1.067s5.333 0.12 7.733 1.067z"></path>
</svg>
