<!-- Generated by IcoMoon.io -->
<svg version="1.1" xmlns="http://www.w3.org/2000/svg" width="32" height="32" viewBox="0 0 32 32">
<title>surround-sound</title>
<path d="M26.667 5.333h-21.333c-1.473 0-2.667 1.194-2.667 2.667v0 16c0 1.473 1.194 2.667 2.667 2.667h21.333c1.473 0 2.667-1.194 2.667-2.667v0-16c0-1.473-1.194-2.667-2.667-2.667v0M10.347 21.653l-1.88 1.88c-1.935-1.913-3.133-4.567-3.133-7.501 0-0.011 0-0.023 0-0.034v0.002c0-2.733 1.040-5.467 3.12-7.547l1.88 1.88c-1.441 1.455-2.332 3.457-2.333 5.666v0c0 2.053 0.787 4.093 2.347 5.653M16 21.333c-2.946 0-5.333-2.388-5.333-5.333v0c0-2.946 2.388-5.333 5.333-5.333v0c2.946 0 5.333 2.388 5.333 5.333v0c0 2.946-2.388 5.333-5.333 5.333v0M23.547 23.547l-1.88-1.88c1.441-1.455 2.332-3.456 2.333-5.666v-0c0-2.053-0.787-4.093-2.347-5.653l1.88-1.88c1.935 1.913 3.133 4.567 3.133 7.501 0 0.011-0 0.023-0 0.034v-0.002c0 2.733-1.040 5.467-3.12 7.547M16 13.333c-1.473 0-2.667 1.194-2.667 2.667v0c0 1.473 1.194 2.667 2.667 2.667v0c1.473 0 2.667-1.194 2.667-2.667v0c0-1.473-1.194-2.667-2.667-2.667v0z"></path>
</svg>
