<!-- Generated by IcoMoon.io -->
<svg version="1.1" xmlns="http://www.w3.org/2000/svg" width="32" height="32" viewBox="0 0 32 32">
<title>swim</title>
<path d="M2.667 24c2.96-1.333 5.92-2.667 8.893-2.667 2.96 0 5.92 2.667 8.88 2.667 2.973 0 5.933-2.667 8.893-2.667v4c-2.96 0-5.92 2.667-8.893 2.667-2.96 0-5.92-2.667-8.88-2.667-2.973 0-5.933 1.333-8.893 2.667v-4M11.56 17.333c-1.040 0-2.067 0.16-3.093 0.427l6.56-4.587-1.387-1.653c-0.187-0.227-0.307-0.533-0.307-0.853 0-0.453 0.227-0.867 0.587-1.107l7.627-5.333 1.533 2.173-6.453 4.52 6.973 8.307c-1.053 0.44-2.107 0.773-3.16 0.773-2.96 0-5.92-2.667-8.88-2.667M24 9.333c1.473 0 2.667 1.194 2.667 2.667v0c0 1.473-1.194 2.667-2.667 2.667v0c-1.473 0-2.667-1.194-2.667-2.667v0c0-1.473 1.194-2.667 2.667-2.667v0z"></path>
</svg>
