<!-- Generated by IcoMoon.io -->
<svg version="1.1" xmlns="http://www.w3.org/2000/svg" width="32" height="32" viewBox="0 0 32 32">
<title>switch</title>
<path d="M17.333 24h1.333c0.736 0 1.333 0.597 1.333 1.333v0h9.333v2.667h-9.333c0 0.736-0.597 1.333-1.333 1.333v0h-5.333c-0.736 0-1.333-0.597-1.333-1.333v0h-9.333v-2.667h9.333c0-0.736 0.597-1.333 1.333-1.333h1.333v-2.667h-4c-0.736 0-1.333-0.597-1.333-1.333v-16c0-0.736 0.597-1.333 1.333-1.333h10.667c0.736 0 1.333 0.597 1.333 1.333v0 16c0 0.736-0.597 1.333-1.333 1.333h-4v2.667M17.333 8h1.333v-2.667h-1.333v2.667M12 5.333v2.667h2.667v-2.667h-2.667M12 10.667v2.667h2.667v-2.667h-2.667M12 16v2.667h2.667v-2.667h-2.667z"></path>
</svg>
