<!-- Generated by IcoMoon.io -->
<svg version="1.1" xmlns="http://www.w3.org/2000/svg" width="32" height="32" viewBox="0 0 32 32">
<title>sync</title>
<path d="M16 24c-4.418 0-8-3.582-8-8v0c0-1.333 0.333-2.627 0.933-3.733l-1.947-1.947c-1.037 1.607-1.653 3.57-1.653 5.677 0 0.001 0 0.002 0 0.003v-0c0 5.891 4.776 10.667 10.667 10.667v0 4l5.333-5.333-5.333-5.333M16 5.333v-4l-5.333 5.333 5.333 5.333v-4c4.418 0 8 3.582 8 8v0c0 1.333-0.333 2.627-0.933 3.733l1.947 1.947c1.037-1.607 1.653-3.57 1.653-5.677 0-0.001 0-0.002 0-0.003v0c0-5.891-4.776-10.667-10.667-10.667v0z"></path>
</svg>
