<!-- Generated by IcoMoon.io -->
<svg version="1.1" xmlns="http://www.w3.org/2000/svg" width="32" height="32" viewBox="0 0 32 32">
<title>sync-alert</title>
<path d="M14.667 17.333h2.667v-8h-2.667M28 5.333h-8v8l2.987-2.987c1.448 1.447 2.344 3.445 2.347 5.653v0c0 0 0 0 0 0 0 3.46-2.2 6.406-5.278 7.515l-0.056 0.018v2.787c4.6-1.187 8-5.347 8-10.32 0-2.947-1.213-5.6-3.147-7.52M14.667 22.667h2.667v-2.667h-2.667M4 16c0 2.947 1.213 5.6 3.147 7.52l-3.147 3.147h8v-8l-2.987 2.987c-1.448-1.447-2.344-3.445-2.347-5.653v-0c0-0 0-0 0-0 0-3.46 2.2-6.406 5.278-7.515l0.056-0.018v-2.787c-4.6 1.187-8 5.347-8 10.32z"></path>
</svg>
