<!-- Generated by IcoMoon.io -->
<svg version="1.1" xmlns="http://www.w3.org/2000/svg" width="32" height="32" viewBox="0 0 32 32">
<title>table-row-remove</title>
<path d="M12.547 17.333l3.453 3.453 3.453-3.453 1.88 1.88-3.453 3.453 3.453 3.453-1.88 1.88-3.453-3.453-3.453 3.453-1.88-1.88 3.453-3.453-3.453-3.453 1.88-1.88M29.333 12c0 1.473-1.194 2.667-2.667 2.667h-21.333c-1.473 0-2.667-1.194-2.667-2.667v0-4c0-1.473 1.194-2.667 2.667-2.667h21.333c1.473 0 2.667 1.194 2.667 2.667v0 4M5.333 12h5.333v-4h-5.333v4M13.333 12h5.333v-4h-5.333v4M21.333 12h5.333v-4h-5.333v4z"></path>
</svg>
