<!-- Generated by IcoMoon.io -->
<svg version="1.1" xmlns="http://www.w3.org/2000/svg" width="32" height="32" viewBox="0 0 32 32">
<title>table-edit</title>
<path d="M28.933 17.8l-1.333 1.333-2.733-2.733 1.333-1.333c0.28-0.293 0.747-0.293 1.027 0l1.707 1.707c0.293 0.28 0.293 0.747 0 1.027M16 25.253l8.093-8.080 2.733 2.733-8.080 8.093h-2.747v-2.747M5.333 2.667h18.667c1.473 0 2.667 1.194 2.667 2.667v5.56l-5.107 5.107h-5.56v5.56l-2.44 2.44h-8.227c-1.473 0-2.667-1.194-2.667-2.667v0-16c0-1.473 1.194-2.667 2.667-2.667v0M5.333 8v5.333h8v-5.333h-8M16 8v5.333h8v-5.333h-8M5.333 16v5.333h8v-5.333h-8z"></path>
</svg>
