<!-- Generated by IcoMoon.io -->
<svg version="1.1" xmlns="http://www.w3.org/2000/svg" width="32" height="32" viewBox="0 0 32 32">
<title>table-large</title>
<path d="M5.333 4h21.333c1.473 0 2.667 1.194 2.667 2.667v0 20c0 1.473-1.194 2.667-2.667 2.667h-21.333c-1.473 0-2.667-1.194-2.667-2.667v-20c0-1.473 1.194-2.667 2.667-2.667v0M5.333 9.333v4h5.333v-4h-5.333M13.333 9.333v4h5.333v-4h-5.333M26.667 13.333v-4h-5.333v4h5.333M5.333 16v4h5.333v-4h-5.333M5.333 26.667h5.333v-4h-5.333v4M13.333 16v4h5.333v-4h-5.333M13.333 26.667h5.333v-4h-5.333v4M26.667 26.667v-4h-5.333v4h5.333M26.667 16h-5.333v4h5.333v-4z"></path>
</svg>
