<!-- Generated by IcoMoon.io -->
<svg version="1.1" xmlns="http://www.w3.org/2000/svg" width="32" height="32" viewBox="0 0 32 32">
<title>table-row-plus-before</title>
<path d="M29.333 18.667c0-1.473-1.194-2.667-2.667-2.667h-21.333c-1.473 0-2.667 1.194-2.667 2.667v0 9.333h2.667v-2.667h5.333v2.667h2.667v-2.667h5.333v2.667h2.667v-2.667h5.333v2.667h2.667v-9.333M5.333 18.667h5.333v4h-5.333v-4M13.333 18.667h5.333v4h-5.333v-4M26.667 18.667v4h-5.333v-4h5.333M14.667 13.333h2.667v-4h4v-2.667h-4v-4h-2.667v4h-4v2.667h4v4z"></path>
</svg>
