<!-- Generated by IcoMoon.io -->
<svg version="1.1" xmlns="http://www.w3.org/2000/svg" width="32" height="32" viewBox="0 0 32 32">
<title>tag-text-outline</title>
<path d="M7.333 9.333c1.105 0 2-0.895 2-2v0c0-1.105-0.895-2-2-2v0c-1.105 0-2 0.895-2 2v0c0 1.105 0.895 2 2 2v0M28.547 15.44c0.48 0.48 0.787 1.147 0.787 1.893 0 0.733-0.293 1.4-0.787 1.88l-9.333 9.333c-0.48 0.48-1.147 0.787-1.88 0.787s-1.4-0.307-1.893-0.787l-11.987-12c-0.493-0.48-0.787-1.147-0.787-1.88v-9.333c0-1.48 1.187-2.667 2.667-2.667h9.333c0.733 0 1.4 0.293 1.88 0.773l12 12M17.333 26.667l9.333-9.333-11.333-11.333-9.333 9.333 11.333 11.333M13.453 11.88l1.88-1.88 7.333 7.333-1.88 1.88-7.333-7.333M10.12 15.213l1.88-1.88 5.333 5.333-1.88 1.88-5.333-5.333z"></path>
</svg>
