<!-- Generated by IcoMoon.io -->
<svg version="1.1" xmlns="http://www.w3.org/2000/svg" width="32" height="32" viewBox="0 0 32 32">
<title>tag-faces</title>
<path d="M20 24c-4.427 0-8-3.587-8-8 0-4.427 3.573-8 8-8 4.418 0 8 3.582 8 8v0c0 4.418-3.582 8-8 8v0M5.333 17.333c-0.736 0-1.333-0.597-1.333-1.333v0c0-0.736 0.597-1.333 1.333-1.333v0c0.736 0 1.333 0.597 1.333 1.333v0c0 0.736-0.597 1.333-1.333 1.333v0M29.333 4h-19.16c-0.88 0-1.667 0.427-2.173 1.080l-8 10.92 8 10.907c0.507 0.667 1.293 1.093 2.173 1.093h19.16c1.473 0 2.667-1.194 2.667-2.667v0-18.667c0-1.473-1.194-2.667-2.667-2.667v0M17.333 14.667c0.736 0 1.333-0.597 1.333-1.333v0c0-0.736-0.597-1.333-1.333-1.333v0c-0.736 0-1.333 0.597-1.333 1.333v0c0 0.736 0.597 1.333 1.333 1.333v0M20 21.333c2.48 0 4.467-1.707 5.067-4h-10.133c0.6 2.293 2.587 4 5.067 4M22.667 14.667c0.736 0 1.333-0.597 1.333-1.333v0c0-0.736-0.597-1.333-1.333-1.333v0c-0.736 0-1.333 0.597-1.333 1.333v0c0 0.736 0.597 1.333 1.333 1.333v0z"></path>
</svg>
