<!-- Generated by IcoMoon.io -->
<svg version="1.1" xmlns="http://www.w3.org/2000/svg" width="32" height="32" viewBox="0 0 32 32">
<title>tag</title>
<path d="M7.333 9.333c-1.105 0-2-0.895-2-2v0c0-1.105 0.895-2 2-2v0c1.105 0 2 0.895 2 2v0c0 1.105-0.895 2-2 2v0M28.547 15.44l-12-12c-0.48-0.48-1.147-0.773-1.88-0.773h-9.333c-1.48 0-2.667 1.187-2.667 2.667v9.333c0 0.733 0.293 1.4 0.787 1.88l11.987 12c0.493 0.48 1.16 0.787 1.893 0.787s1.4-0.307 1.88-0.787l9.333-9.333c0.493-0.48 0.787-1.147 0.787-1.88 0-0.747-0.307-1.413-0.787-1.893z"></path>
</svg>
