<!-- Generated by IcoMoon.io -->
<svg version="1.1" xmlns="http://www.w3.org/2000/svg" width="32" height="32" viewBox="0 0 32 32">
<title>target</title>
<path d="M14.667 2.667v2.76c-4.828 0.631-8.609 4.412-9.234 9.186l-0.006 0.054h-2.76v2.667h2.76c0.631 4.828 4.412 8.609 9.186 9.234l0.054 0.006v2.76h2.667v-2.76c4.828-0.631 8.609-4.412 9.234-9.186l0.006-0.054h2.76v-2.667h-2.76c-0.631-4.828-4.412-8.609-9.186-9.234l-0.054-0.006v-2.76M14.667 8.107v2.56h2.667v-2.547c3.333 0.547 6 3.213 6.56 6.547h-2.56v2.667h2.547c-0.547 3.333-3.213 6-6.547 6.56v-2.56h-2.667v2.547c-3.333-0.547-6-3.213-6.56-6.547h2.56v-2.667h-2.547c0.547-3.333 3.213-6 6.547-6.56M16 14.667c-0.736 0-1.333 0.597-1.333 1.333v0c0 0.736 0.597 1.333 1.333 1.333v0c0.736 0 1.333-0.597 1.333-1.333v0c0-0.736-0.597-1.333-1.333-1.333v0z"></path>
</svg>
