<!-- Generated by IcoMoon.io -->
<svg version="1.1" xmlns="http://www.w3.org/2000/svg" width="32" height="32" viewBox="0 0 32 32">
<title>teamviewer</title>
<path d="M25.333 4c1.473 0 2.667 1.194 2.667 2.667v0 18.667c0 1.473-1.194 2.667-2.667 2.667v0h-18.667c-1.473 0-2.667-1.194-2.667-2.667v0-18.667c0-1.473 1.194-2.667 2.667-2.667v0h18.667M16 6.667c-5.155 0-9.333 4.179-9.333 9.333v0c0 5.155 4.179 9.333 9.333 9.333v0c5.155 0 9.333-4.179 9.333-9.333v0c0-5.155-4.179-9.333-9.333-9.333v0M9.333 16l4-4v2.667h5.333v-2.667l4 4-4 4v-2.667h-5.333v2.667l-4-4z"></path>
</svg>
