<!-- Generated by IcoMoon.io -->
<svg version="1.1" xmlns="http://www.w3.org/2000/svg" width="32" height="32" viewBox="0 0 32 32">
<title>television-guide</title>
<path d="M28 22.667v-16h-24v16h24M28 4c1.473 0 2.667 1.194 2.667 2.667v0 16c0 1.473-1.194 2.667-2.667 2.667v0h-6.667v2.667h-10.667v-2.667h-6.667c-1.473 0-2.667-1.194-2.667-2.667v-16c0-1.473 1.194-2.667 2.667-2.667v0h24M6.667 9.333h8v5.333h-8v-5.333M6.667 17.333h8v2.667h-8v-2.667M17.333 9.333h8v2.667h-8v-2.667M17.333 14.667h8v5.333h-8v-5.333z"></path>
</svg>
