<!-- Generated by IcoMoon.io -->
<svg version="1.1" xmlns="http://www.w3.org/2000/svg" width="32" height="32" viewBox="0 0 32 32">
<title>texture</title>
<path d="M12.387 28h3.773l11.84-11.84v-3.773M25.333 28c0.733 0 1.4-0.293 1.88-0.787 0.493-0.48 0.787-1.147 0.787-1.88v-2.667l-5.333 5.333M6.667 4c-1.473 0-2.667 1.194-2.667 2.667v0 2.667l5.333-5.333M15.84 4l-11.84 11.84v3.773l15.613-15.613M26 4.107l-21.893 21.893c0.12 0.467 0.36 0.88 0.68 1.213 0.333 0.32 0.747 0.56 1.213 0.68l21.907-21.893c-0.253-0.933-0.973-1.653-1.907-1.893z"></path>
</svg>
