<!-- Generated by IcoMoon.io -->
<svg version="1.1" xmlns="http://www.w3.org/2000/svg" width="32" height="32" viewBox="0 0 32 32">
<title>thermometer</title>
<path d="M22.667 22.667c0 3.682-2.985 6.667-6.667 6.667v0c-3.682 0-6.667-2.985-6.667-6.667v0c0-2.187 1.053-4.12 2.667-5.333v-10.667c0-2.209 1.791-4 4-4v0c2.209 0 4 1.791 4 4v0 10.667c1.613 1.213 2.667 3.147 2.667 5.333M14.667 10.667v8.227c-1.56 0.547-2.667 2.027-2.667 3.773 0 2.209 1.791 4 4 4v0c2.209 0 4-1.791 4-4v0c0-1.747-1.107-3.227-2.667-3.773v-8.227h-2.667z"></path>
</svg>
