<!-- Generated by IcoMoon.io -->
<svg version="1.1" xmlns="http://www.w3.org/2000/svg" width="32" height="32" viewBox="0 0 32 32">
<title>thumb-down-outline</title>
<path d="M25.333 20v-16h5.333v16h-5.333M20 4c1.473 0 2.667 1.194 2.667 2.667v0 13.333c0 0.733-0.293 1.4-0.787 1.88l-8.773 8.787-1.413-1.413c-0.36-0.36-0.587-0.853-0.587-1.413l0.040-0.413 1.267-6.093h-8.413c-1.473 0-2.667-1.194-2.667-2.667v-2.667c0-0.347 0.067-0.667 0.187-0.973l4.027-9.4c0.4-0.96 1.347-1.627 2.453-1.627h12M20 6.667h-12.040l-3.96 9.333v2.667h11.707l-1.507 7.093 5.8-5.8v-13.293z"></path>
</svg>
