<!-- Generated by IcoMoon.io -->
<svg version="1.1" xmlns="http://www.w3.org/2000/svg" width="32" height="32" viewBox="0 0 32 32">
<title>thumb-down</title>
<path d="M25.333 20h5.333v-16h-5.333M20 4h-12c-1.107 0-2.053 0.667-2.453 1.627l-4.027 9.4c-0.12 0.307-0.187 0.627-0.187 0.973v2.667c0 1.473 1.194 2.667 2.667 2.667v0h8.413l-1.267 6.093c-0.027 0.133-0.040 0.267-0.040 0.413 0 0.56 0.227 1.053 0.587 1.413l1.413 1.413 8.773-8.787c0.493-0.48 0.787-1.147 0.787-1.88v-13.333c0-1.473-1.194-2.667-2.667-2.667v0z"></path>
</svg>
