<!-- Generated by IcoMoon.io -->
<svg version="1.1" xmlns="http://www.w3.org/2000/svg" width="32" height="32" viewBox="0 0 32 32">
<title>ticket-account</title>
<path d="M26.667 16c0 1.473 1.194 2.667 2.667 2.667v0 5.333c0 1.473-1.194 2.667-2.667 2.667h-21.333c-1.473 0-2.667-1.194-2.667-2.667v0-5.333c1.473 0 2.667-1.194 2.667-2.667v0c0-1.473-1.194-2.667-2.667-2.667v0-5.333c0-1.473 1.194-2.667 2.667-2.667h21.333c1.473 0 2.667 1.194 2.667 2.667v0 5.333c-1.473 0-2.667 1.194-2.667 2.667v0M22 21.667c0-2-4-3-6-3s-6 1-6 3v1h12v-1M16 16.333c1.657 0 3-1.343 3-3v0c0-1.657-1.343-3-3-3v0c-1.657 0-3 1.343-3 3v0c0 1.657 1.343 3 3 3v0z"></path>
</svg>
