<!-- Generated by IcoMoon.io -->
<svg version="1.1" xmlns="http://www.w3.org/2000/svg" width="32" height="32" viewBox="0 0 32 32">
<title>timer-off</title>
<path d="M16 26.667c-5.155 0-9.333-4.179-9.333-9.333v0c0-1.707 0.467-3.333 1.267-4.667l12.733 12.72c-1.333 0.813-2.96 1.28-4.667 1.28M4 5.333l-1.667 1.693 3.667 3.68c-1.253 1.853-2 4.137-2 6.595 0 0.011 0 0.022 0 0.033v-0.002c0 6.627 5.373 12 12 12v0c2.453 0 4.733-0.733 6.667-2l3.333 3.333 1.667-1.693-10.28-10.307-13.387-13.333M14.667 12.587l2.667 2.667v-4.587h-2.667M20 1.333h-8v2.667h8M25.387 6.067l-1.893 1.893c-2.034-1.636-4.648-2.625-7.493-2.627h-0c-2.44 0-4.707 0.733-6.6 2l1.933 1.92c1.373-0.787 2.973-1.253 4.667-1.253 5.155 0 9.333 4.179 9.333 9.333v0c0 1.693-0.467 3.293-1.253 4.667l1.92 1.92c1.267-1.88 2-4.147 2-6.587 0-2.827-0.987-5.427-2.627-7.48l1.893-1.893-1.88-1.893z"></path>
</svg>
