<!-- Generated by IcoMoon.io -->
<svg version="1.1" xmlns="http://www.w3.org/2000/svg" width="32" height="32" viewBox="0 0 32 32">
<title>timer</title>
<path d="M16 26.667c-5.155 0-9.333-4.179-9.333-9.333v0c0-5.155 4.179-9.333 9.333-9.333v0c5.155 0 9.333 4.179 9.333 9.333v0c0 5.155-4.179 9.333-9.333 9.333v0M25.373 9.853l1.893-1.893c-0.6-0.68-1.2-1.293-1.88-1.88l-1.893 1.92c-2.067-1.68-4.667-2.667-7.493-2.667-6.627 0-12 5.373-12 12v0c0 6.627 5.373 12 12 12v0c6.667 0 12-5.373 12-12 0-2.827-0.987-5.427-2.627-7.48M14.667 18.667h2.667v-8h-2.667M20 1.333h-8v2.667h8v-2.667z"></path>
</svg>
