<!-- Generated by IcoMoon.io -->
<svg version="1.1" xmlns="http://www.w3.org/2000/svg" width="32" height="32" viewBox="0 0 32 32">
<title>timer-1</title>
<path d="M17.2 17.627c0 0.8-0.053 1.48-0.16 2.040s-0.267 1-0.48 1.36c-0.213 0.347-0.48 0.6-0.787 0.76s-0.68 0.213-1.107 0.213c-0.387 0-0.76-0.053-1.080-0.213s-0.587-0.413-0.8-0.76c-0.213-0.36-0.387-0.8-0.507-1.36s-0.173-1.24-0.173-2.040v-3.333c0-0.8 0.053-1.48 0.173-2.027s0.28-0.987 0.507-1.333c0.213-0.333 0.48-0.573 0.8-0.733 0.32-0.147 0.68-0.2 1.080-0.2 0.413 0 0.773 0.053 1.080 0.2 0.32 0.147 0.587 0.387 0.8 0.733 0.213 0.333 0.387 0.773 0.493 1.32s0.173 1.227 0.173 2.027v3.347M18.427 9.4c-0.427-0.533-1-0.933-1.64-1.173-0.623-0.228-1.342-0.36-2.091-0.36-0.010 0-0.020 0-0.030 0h0.002c-0.773 0-1.48 0.133-2.12 0.36-0.64 0.24-1.213 0.627-1.64 1.173-0.453 0.547-0.8 1.267-1.053 2.12-0.24 0.867-0.373 1.933-0.373 3.187v2.56c0 1.253 0.12 2.32 0.373 3.187 0.253 0.88 0.6 1.587 1.067 2.133 0.453 0.547 1 0.947 1.64 1.187 0.631 0.236 1.359 0.373 2.12 0.373s1.489-0.137 2.163-0.387l-0.043 0.014c0.64-0.24 1.2-0.64 1.627-1.187 0.453-0.547 0.8-1.253 1.040-2.133 0.24-0.867 0.373-1.933 0.373-3.187v-2.56c0-1.253-0.12-2.32-0.373-3.187-0.24-0.853-0.587-1.587-1.040-2.12M31.707 19.16c-0.187-0.373-0.467-0.707-0.84-0.987s-0.813-0.52-1.347-0.707-1.133-0.36-1.8-0.507c-0.467-0.093-0.853-0.2-1.16-0.293-0.307-0.12-0.56-0.227-0.733-0.347-0.161-0.095-0.288-0.232-0.371-0.395l-0.003-0.005c-0.074-0.152-0.118-0.331-0.12-0.519v-0.001c0-0.187 0.053-0.373 0.133-0.547 0.080-0.185 0.203-0.338 0.357-0.451l0.003-0.002c0.173-0.133 0.36-0.24 0.6-0.32s0.533-0.12 0.853-0.12c0.333 0 0.627 0.040 0.88 0.147 0.253 0.093 0.467 0.227 0.64 0.387 0.173 0.173 0.293 0.347 0.387 0.56 0.080 0.213 0.147 0.427 0.147 0.653h2.587c0-0.52-0.107-1-0.32-1.453s-0.52-0.84-0.933-1.173c-0.387-0.333-0.867-0.587-1.44-0.787-0.56-0.2-1.227-0.293-1.947-0.293-0.68 0-1.28 0.093-1.853 0.28-0.547 0.187-1.027 0.44-1.427 0.76-0.373 0.293-0.667 0.693-0.88 1.12-0.194 0.381-0.307 0.83-0.307 1.306 0 0.014 0 0.028 0 0.042l-0-0.002c0 0.493 0.107 0.92 0.307 1.28 0.213 0.373 0.48 0.693 0.88 0.973 0.333 0.28 0.773 0.507 1.28 0.707s1.080 0.347 1.693 0.48c0.52 0.107 0.947 0.227 1.267 0.347s0.573 0.253 0.76 0.387c0.173 0.133 0.293 0.32 0.333 0.453 0.093 0.16 0.12 0.333 0.12 0.533 0 0.413-0.173 0.747-0.533 1.013s-0.88 0.387-1.587 0.387c-0.267 0-0.547-0.027-0.827-0.107-0.283-0.071-0.532-0.181-0.756-0.326l0.010 0.006c-0.227-0.147-0.427-0.347-0.547-0.587-0.147-0.24-0.227-0.547-0.24-0.893h-2.52c0 0.507 0.107 0.947 0.32 1.4 0.213 0.44 0.52 0.867 0.933 1.24 0.413 0.36 0.92 0.653 1.533 0.88s1.307 0.32 2.093 0.32c0.72 0 1.333-0.067 1.933-0.24 0.573-0.173 1.067-0.427 1.48-0.72 0.413-0.307 0.72-0.68 0.947-1.107s0.307-0.893 0.307-1.413-0.093-0.987-0.293-1.36M0 10.293v2.24l4-1.333v12.8h2.667v-16h-0.333l-6.333 2.293z"></path>
</svg>
