<!-- Generated by IcoMoon.io -->
<svg version="1.1" xmlns="http://www.w3.org/2000/svg" width="32" height="32" viewBox="0 0 32 32">
<title>timelapse</title>
<path d="M16 26.667c-5.891 0-10.667-4.776-10.667-10.667v0c0-5.891 4.776-10.667 10.667-10.667v0c5.891 0 10.667 4.776 10.667 10.667v0c0 5.891-4.776 10.667-10.667 10.667v0M16 2.667c-7.364 0-13.333 5.97-13.333 13.333v0c0 7.364 5.97 13.333 13.333 13.333v0c7.364 0 13.333-5.97 13.333-13.333v0c0-7.364-5.97-13.333-13.333-13.333v0M21.653 10.347c-1.438-1.449-3.43-2.347-5.633-2.347-0.007 0-0.015 0-0.022 0h0.001v8l-5.653 5.653c1.447 1.446 3.446 2.34 5.653 2.34s4.206-0.894 5.653-2.34l-0 0c1.452-1.445 2.35-3.444 2.35-5.653s-0.898-4.209-2.35-5.653l-0-0z"></path>
</svg>
