<!-- Generated by IcoMoon.io -->
<svg version="1.1" xmlns="http://www.w3.org/2000/svg" width="32" height="32" viewBox="0 0 32 32">
<title>tor</title>
<path d="M16 18.667c-1.333 0-4 1.333-4 2.667 0 2.667 4 2.667 4 2.667v-1.333c-0.736 0-1.333-0.597-1.333-1.333v0c0-0.736 0.597-1.333 1.333-1.333v0-1.333M16 25.333s-5.333-0.667-5.333-3.333c0-4 4-5 5.333-5v-1.667c-1.333 0-6.667 2-6.667 6 0 5.333 6.667 5.333 6.667 5.333v-1.333M13.427 9.373l1.587 0.707c0.573-3.253 2.107-5.413 2.107-5.413-0.573 1.373-0.947 2.507-1.187 3.4 1.613-3.333 4.88-5.4 4.88-5.4-1.351 1.363-2.52 2.91-3.465 4.599l-0.055 0.107c2.107-2.24 5.027-3.707 5.027-3.707-3.587 2.293-5.2 5.933-5.6 6.947l0.733 0.107c0 0.693 0 1.333 0.333 1.84 1.013 2.52 6.213 2.733 6.213 8.773s-5.373 8-8.227 8c-2.853 0-9.107-1.293-9.107-8s6.6-6.76 7.773-9.44c0.16-0.507-1.013-2.52-1.013-2.52z"></path>
</svg>
