<!-- Generated by IcoMoon.io -->
<svg version="1.1" xmlns="http://www.w3.org/2000/svg" width="32" height="32" viewBox="0 0 32 32">
<title>tower-fire</title>
<path d="M22.667 5.333v5.333h1.333v2.667h-0.48l4.48 17.333h-2.76l-0.747-2.893-8.493-4.907-8.493 4.907-0.747 2.893h-2.76l4.48-17.333h-0.48v-2.667h1.333v-5.333h-1.333v-1.333l8-2.667 8 2.667v1.333h-1.333M9.707 19.24l-1.267 4.92 4.893-2.827-3.627-2.093M20.76 13.333h-9.52l-0.84 3.227 5.6 3.24 5.6-3.24-0.84-3.227M23.56 24.16l-1.267-4.92-3.627 2.093 4.893 2.827z"></path>
</svg>
