<!-- Generated by IcoMoon.io -->
<svg version="1.1" xmlns="http://www.w3.org/2000/svg" width="32" height="32" viewBox="0 0 32 32">
<title>traffic-light</title>
<path d="M16 12c-1.473 0-2.667-1.194-2.667-2.667v0c0-1.473 1.194-2.667 2.667-2.667v0c1.48 0 2.667 1.187 2.667 2.667 0 1.473-1.194 2.667-2.667 2.667v0M16 18.667c-1.473 0-2.667-1.194-2.667-2.667v0c0-1.473 1.194-2.667 2.667-2.667v0c1.48 0 2.667 1.187 2.667 2.667 0 1.473-1.194 2.667-2.667 2.667v0M16 25.333c-1.473 0-2.667-1.194-2.667-2.667v0c0-1.473 1.194-2.667 2.667-2.667v0c1.48 0 2.667 1.187 2.667 2.667 0 1.473-1.194 2.667-2.667 2.667v0M26.667 13.333h-4v-1.52c2.293-0.6 4-2.667 4-5.147h-4v-1.333c0-0.736-0.597-1.333-1.333-1.333h-10.667c-0.736 0-1.333 0.597-1.333 1.333v0 1.333h-4c0 2.48 1.707 4.547 4 5.147v1.52h-4c0 2.48 1.707 4.547 4 5.147v1.52h-4c0 2.48 1.707 4.547 4 5.147v1.52c0 0.736 0.597 1.333 1.333 1.333h10.667c0.736 0 1.333-0.597 1.333-1.333v-1.52c2.293-0.6 4-2.667 4-5.147h-4v-1.52c2.293-0.6 4-2.667 4-5.147z"></path>
</svg>
