<!-- Generated by IcoMoon.io -->
<svg version="1.1" xmlns="http://www.w3.org/2000/svg" width="32" height="32" viewBox="0 0 32 32">
<title>train</title>
<path d="M24 13.333h-16v-6.667h16M16 22.667c-1.473 0-2.667-1.194-2.667-2.667v0c0-1.48 1.187-2.667 2.667-2.667 1.473 0 2.667 1.194 2.667 2.667v0c0 1.473-1.194 2.667-2.667 2.667v0M5.333 20.667c0 2.577 2.089 4.667 4.667 4.667v0l-2 2v0.667h16v-0.667l-2-2c2.577 0 4.667-2.089 4.667-4.667v-14c0-4.667-4.773-5.333-10.667-5.333s-10.667 0.667-10.667 5.333v14z"></path>
</svg>
