<!-- Generated by IcoMoon.io -->
<svg version="1.1" xmlns="http://www.w3.org/2000/svg" width="32" height="32" viewBox="0 0 32 32">
<title>trello</title>
<path d="M5.333 4h21.333c0.736 0 1.333 0.597 1.333 1.333v0 21.333c0 0.736-0.597 1.333-1.333 1.333v0h-21.333c-0.736 0-1.333-0.597-1.333-1.333v0-21.333c0-0.736 0.597-1.333 1.333-1.333v0M7.333 6.667c-0.368 0-0.667 0.298-0.667 0.667v0 16c0 0.368 0.298 0.667 0.667 0.667h6.667c0.368 0 0.667-0.298 0.667-0.667v0-16c0-0.368-0.298-0.667-0.667-0.667v0h-6.667M18 6.667c-0.368 0-0.667 0.298-0.667 0.667v0 8c0 0.368 0.298 0.667 0.667 0.667v0h6.667c0.368 0 0.667-0.298 0.667-0.667v-8c0-0.368-0.298-0.667-0.667-0.667h-6.667z"></path>
</svg>
