<!-- Generated by IcoMoon.io -->
<svg version="1.1" xmlns="http://www.w3.org/2000/svg" width="32" height="32" viewBox="0 0 32 32">
<title>truck</title>
<path d="M24 24.667c-1.105 0-2-0.895-2-2v0c0-1.105 0.895-2 2-2v0c1.105 0 2 0.895 2 2v0c0 1.105-0.895 2-2 2v0M26 12.667l2.613 3.333h-5.947v-3.333M8 24.667c-1.105 0-2-0.895-2-2v0c0-1.105 0.895-2 2-2v0c1.105 0 2 0.895 2 2v0c0 1.105-0.895 2-2 2v0M26.667 10.667h-4v-5.333h-18.667c-1.48 0-2.667 1.187-2.667 2.667v14.667h2.667c0 2.209 1.791 4 4 4v0c2.209 0 4-1.791 4-4v0h8c0 2.209 1.791 4 4 4v0c2.209 0 4-1.791 4-4v0h2.667v-6.667l-4-5.333z"></path>
</svg>
