<!-- Generated by IcoMoon.io -->
<svg version="1.1" xmlns="http://www.w3.org/2000/svg" width="32" height="32" viewBox="0 0 32 32">
<title>twitter-circle</title>
<path d="M23.613 12.44c0.64-0.533 1.387-1.173 1.72-1.88-0.547 0.28-1.2 0.453-1.92 0.547 0.667-0.48 1.213-1.107 1.493-1.96-0.693 0.373-1.4 0.693-2.28 0.853-2.067-2.493-7.013-0.467-6.133 3.267-3.48-0.213-5.6-1.787-7.36-3.72-1 1.627-0.133 4.093 1.053 4.773-0.613-0.040-1.080-0.227-1.52-0.44 0.053 2.053 1.187 3.040 2.773 3.573-0.48 0.093-1.013 0.12-1.52 0.040 0.493 1.427 1.52 2.32 3.28 2.507-1.2 1.013-3.413 1.72-5.2 1.44 1.533 0.973 3.28 1.747 5.707 1.64 5.88-0.267 9.813-4.48 9.907-10.64M16 2.667c7.364 0 13.333 5.97 13.333 13.333v0c0 7.364-5.97 13.333-13.333 13.333v0c-7.364 0-13.333-5.97-13.333-13.333v0c0-7.364 5.97-13.333 13.333-13.333v0z"></path>
</svg>
