<!-- Generated by IcoMoon.io -->
<svg version="1.1" xmlns="http://www.w3.org/2000/svg" width="32" height="32" viewBox="0 0 32 32">
<title>twitter-box</title>
<path d="M23.613 12.44c-0.093 6.16-4.027 10.373-9.907 10.64-2.427 0.107-4.173-0.667-5.707-1.64 1.787 0.28 4-0.427 5.2-1.44-1.76-0.187-2.787-1.080-3.28-2.507 0.507 0.080 1.040 0.053 1.52-0.040-1.587-0.533-2.72-1.52-2.773-3.573 0.44 0.213 0.907 0.4 1.52 0.44-1.187-0.68-2.053-3.147-1.053-4.773 1.76 1.933 3.88 3.507 7.36 3.72-0.88-3.733 4.067-5.76 6.133-3.267 0.88-0.16 1.587-0.48 2.28-0.853-0.28 0.853-0.827 1.48-1.493 1.96 0.72-0.093 1.373-0.267 1.92-0.547-0.333 0.707-1.080 1.347-1.72 1.88M26.667 2.667h-21.333c-1.473 0-2.667 1.194-2.667 2.667v21.333c0 1.473 1.194 2.667 2.667 2.667h21.333c1.473 0 2.667-1.194 2.667-2.667v0-21.333c0-1.473-1.194-2.667-2.667-2.667v0z"></path>
</svg>
