<!-- Generated by IcoMoon.io -->
<svg version="1.1" xmlns="http://www.w3.org/2000/svg" width="32" height="32" viewBox="0 0 32 32">
<title>umbraco</title>
<path d="M11.467 11.467l-1.907-0.293c-0.893 4.387-0.947 7.813 0.587 9.493 1.32 1.48 5.707 1.48 5.707 1.48s4.533 0 5.853-1.48c1.533-1.68 1.467-5.107 0.587-9.493l-1.907 0.293s1.667 7.040-0.8 8.12c-1.173 0.507-3.733 0.507-3.733 0.507s-2.413 0-3.587-0.507c-2.467-1.080-0.8-8.12-0.8-8.12M16 4c6.627 0 12 5.373 12 12v0c0 6.627-5.373 12-12 12v0c-6.627 0-12-5.373-12-12v0c0-6.627 5.373-12 12-12v0z"></path>
</svg>
