<!-- Generated by IcoMoon.io -->
<svg version="1.1" xmlns="http://www.w3.org/2000/svg" width="32" height="32" viewBox="0 0 32 32">
<title>ungroup</title>
<path d="M2.667 2.667h5.333v1.333h9.333v-1.333h5.333v5.333h-1.333v4h2.667v-1.333h5.333v5.333h-1.333v8h1.333v5.333h-5.333v-1.333h-8v1.333h-5.333v-5.333h1.333v-2.667h-4v1.333h-5.333v-5.333h1.333v-9.333h-1.333v-5.333M24 16v-1.333h-2.667v2.667h1.333v5.333h-5.333v-1.333h-2.667v2.667h1.333v1.333h8v-1.333h1.333v-8h-1.333M17.333 8v-1.333h-9.333v1.333h-1.333v9.333h1.333v1.333h4v-2.667h-1.333v-5.333h5.333v1.333h2.667v-4h-1.333M16 16h-1.333v2.667h2.667v-1.333h1.333v-2.667h-2.667v1.333z"></path>
</svg>
