<!-- Generated by IcoMoon.io -->
<svg version="1.1" xmlns="http://www.w3.org/2000/svg" width="32" height="32" viewBox="0 0 32 32">
<title>usb</title>
<path d="M20 9.333v5.333h1.333v2.667h-4v-10.667h2.667l-4-5.333-4 5.333h2.667v10.667h-4v-2.76c0.933-0.493 1.6-1.44 1.6-2.573 0-1.62-1.313-2.933-2.933-2.933v0c-1.627 0-2.933 1.307-2.933 2.933 0 1.133 0.667 2.080 1.6 2.573v2.76c0 1.473 1.194 2.667 2.667 2.667v0h4v4.067c-0.947 0.48-1.6 1.467-1.6 2.6 0 1.62 1.313 2.933 2.933 2.933v0c1.62 0 2.933-1.313 2.933-2.933v0c0-1.133-0.653-2.12-1.6-2.6v-4.067h4c1.473 0 2.667-1.194 2.667-2.667v0-2.667h1.333v-5.333h-5.333z"></path>
</svg>
