<!-- Generated by IcoMoon.io -->
<svg version="1.1" xmlns="http://www.w3.org/2000/svg" width="32" height="32" viewBox="0 0 32 32">
<title>vector-square</title>
<path d="M2.667 2.667h8v2.667h10.667v-2.667h8v8h-2.667v10.667h2.667v8h-8v-2.667h-10.667v2.667h-8v-8h2.667v-10.667h-2.667v-8M21.333 10.667v-2.667h-10.667v2.667h-2.667v10.667h2.667v2.667h10.667v-2.667h2.667v-10.667h-2.667M5.333 5.333v2.667h2.667v-2.667h-2.667M24 5.333v2.667h2.667v-2.667h-2.667M5.333 24v2.667h2.667v-2.667h-2.667M24 24v2.667h2.667v-2.667h-2.667z"></path>
</svg>
