<!-- Generated by IcoMoon.io -->
<svg version="1.1" xmlns="http://www.w3.org/2000/svg" width="32" height="32" viewBox="0 0 32 32">
<title>vector-circle</title>
<path d="M12 2.667v2.747c-3.050 1.176-5.418 3.54-6.574 6.509l-0.027 0.077h-2.733v8h2.747c1.172 3.053 3.537 5.422 6.509 6.574l0.077 0.026v2.733h8v-2.747c3.053-1.172 5.422-3.537 6.574-6.509l0.026-0.077h2.733v-8h-2.747c-1.176-3.050-3.54-5.418-6.509-6.574l-0.077-0.027v-2.733M14.667 5.333h2.667v2.667h-2.667M12 8.333v2.333h8v-2.333c1.573 0.813 2.853 2.093 3.667 3.667h-2.333v8h2.333c-0.828 1.58-2.087 2.838-3.62 3.644l-0.047 0.022v-2.333h-8v2.333c-1.58-0.828-2.838-2.087-3.644-3.62l-0.022-0.047h2.333v-8h-2.333c0.828-1.58 2.087-2.838 3.62-3.644l0.047-0.022M5.333 14.667h2.667v2.667h-2.667M24 14.667h2.667v2.667h-2.667M14.667 24h2.667v2.667h-2.667"></path>
</svg>
