<!-- Generated by IcoMoon.io -->
<svg version="1.1" xmlns="http://www.w3.org/2000/svg" width="32" height="32" viewBox="0 0 32 32">
<title>vector-difference-ab</title>
<path d="M4 1.333c-1.48 0-2.667 1.187-2.667 2.667v2.667h2.667v-2.667h2.667v-2.667h-2.667M9.333 1.333v2.667h4v-2.667h-4M16 1.333v2.667h2.667v2.667h2.667v-2.667c0-1.48-1.187-2.667-2.667-2.667h-2.667M1.333 9.333v4h2.667v-4h-2.667M18.667 9.333v9.333h-9.333v8c0 1.48 1.187 2.667 2.667 2.667h14.667c1.48 0 2.667-1.187 2.667-2.667v-14.667c0-1.48-1.187-2.667-2.667-2.667h-8M21.333 12h5.333v14.667h-14.667v-5.333h6.667c1.48 0 2.667-1.187 2.667-2.667v-6.667M1.333 16v2.667c0 1.48 1.187 2.667 2.667 2.667h2.667v-2.667h-2.667v-2.667h-2.667z"></path>
</svg>
