<!-- Generated by IcoMoon.io -->
<svg version="1.1" xmlns="http://www.w3.org/2000/svg" width="32" height="32" viewBox="0 0 32 32">
<title>vector-curve</title>
<path d="M24.667 2.667c1.105 0 2 0.895 2 2v0c0 1.105-0.895 2-2 2v0c-0.307 0-0.6-0.067-0.867-0.2l-4.92 4.933 0.453 0.6c2.92-1.68 6.347-2.667 10-2.667l1.333 0.040v2.68l-1.333-0.053c-3.44 0-6.667 1-9.333 2.72 0 2.916-2.364 5.28-5.28 5.28v0c-1.72 2.667-2.72 5.893-2.72 9.333l0.053 1.333h-2.68l-0.040-1.333c0-3.653 0.987-7.080 2.667-10l-0.6-0.453-4.933 4.92c0.133 0.267 0.2 0.56 0.2 0.867 0 1.105-0.895 2-2 2v0c-1.105 0-2-0.895-2-2v0c0-1.105 0.895-2 2-2v0c0.307 0 0.6 0.067 0.867 0.2l4.92-4.933c-0.707-0.893-1.12-2.040-1.12-3.267 0-2.946 2.388-5.333 5.333-5.333v0c1.227 0 2.373 0.413 3.267 1.12l4.933-4.92c-0.133-0.267-0.2-0.56-0.2-0.867 0-1.105 0.895-2 2-2v0M14.667 12c-1.473 0-2.667 1.194-2.667 2.667v0c0 1.473 1.194 2.667 2.667 2.667v0c1.473 0 2.667-1.194 2.667-2.667v0c0-1.473-1.194-2.667-2.667-2.667v0z"></path>
</svg>
