<!-- Generated by IcoMoon.io -->
<svg version="1.1" xmlns="http://www.w3.org/2000/svg" width="32" height="32" viewBox="0 0 32 32">
<title>vector-intersection</title>
<path d="M4.187 1.333c-1.576 0-2.853 1.277-2.853 2.853v0 2.48h2.667v-2.667h2.667v-2.667h-2.48M9.333 1.333v2.667h4v-2.667h-4M16 1.333v2.667h2.667v2.667h2.667v-2.48c0-1.573-1.28-2.853-2.853-2.853h-2.48M1.333 9.333v4h2.667v-4h-2.667M12 9.333c-1.48 0-2.667 1.187-2.667 2.667v9.333h9.147c1.576 0 2.853-1.277 2.853-2.853v0-9.147h-9.333M24 9.333v2.667h2.667v2.667h2.667v-2.667c0-1.48-1.187-2.667-2.667-2.667h-2.667M12 12h6.667v6.667h-6.667v-6.667M1.333 16v2.48c0 1.573 1.28 2.853 2.853 2.853h2.48v-2.667h-2.667v-2.667h-2.667M26.667 17.333v4h2.667v-4h-2.667M9.333 24v2.667c0 1.48 1.187 2.667 2.667 2.667h2.667v-2.667h-2.667v-2.667h-2.667M26.667 24v2.667h-2.667v2.667h2.667c1.48 0 2.667-1.187 2.667-2.667v-2.667h-2.667M17.333 26.667v2.667h4v-2.667h-4z"></path>
</svg>
