<!-- Generated by IcoMoon.io -->
<svg version="1.1" xmlns="http://www.w3.org/2000/svg" width="32" height="32" viewBox="0 0 32 32">
<title>vector-difference-ba</title>
<path d="M26.667 29.333c1.48 0 2.667-1.187 2.667-2.667v-2.667h-2.667v2.667h-2.667v2.667h2.667M21.333 29.333v-2.667h-4v2.667h4M14.667 29.333v-2.667h-2.667v-2.667h-2.667v2.667c0 1.48 1.187 2.667 2.667 2.667h2.667M29.333 21.333v-4h-2.667v4h2.667M12 21.333v-9.333h9.333v-8c0-1.48-1.187-2.667-2.667-2.667h-14.667c-1.48 0-2.667 1.187-2.667 2.667v14.667c0 1.48 1.187 2.667 2.667 2.667h8M9.333 18.667h-5.333v-14.667h14.667v5.333h-6.667c-1.48 0-2.667 1.187-2.667 2.667v6.667M29.333 14.667v-2.667c0-1.48-1.187-2.667-2.667-2.667h-2.667v2.667h2.667v2.667h2.667z"></path>
</svg>
