<!-- Generated by IcoMoon.io -->
<svg version="1.1" xmlns="http://www.w3.org/2000/svg" width="32" height="32" viewBox="0 0 32 32">
<title>vector-arrange-below</title>
<path d="M26.667 29.333c1.48 0 2.667-1.187 2.667-2.667v-14.667c0-1.48-1.187-2.667-2.667-2.667h-14.667c-1.48 0-2.667 1.187-2.667 2.667v14.667c0 1.48 1.187 2.667 2.667 2.667h14.667M26.667 26.667h-14.667v-14.667h14.667v14.667M6.667 21.333v-2.667h-2.667v-14.667h14.667v2.667h2.667v-2.667c0-1.48-1.187-2.667-2.667-2.667h-14.667c-1.48 0-2.667 1.187-2.667 2.667v14.667c0 1.48 1.187 2.667 2.667 2.667h2.667z"></path>
</svg>
