<!-- Generated by IcoMoon.io -->
<svg version="1.1" xmlns="http://www.w3.org/2000/svg" width="32" height="32" viewBox="0 0 32 32">
<title>vector-selection</title>
<path d="M4 1.333h2.667v2.667h-2.667v2.667h-2.667v-2.667c0-1.473 1.194-2.667 2.667-2.667v0M18.667 1.333c1.473 0 2.667 1.194 2.667 2.667v0 2.667h-2.667v-2.667h-2.667v-2.667h2.667M26.667 9.333c1.473 0 2.667 1.194 2.667 2.667v0 2.667h-2.667v-2.667h-2.667v-2.667h2.667M29.333 26.667c0 1.473-1.194 2.667-2.667 2.667h-2.667v-2.667h2.667v-2.667h2.667v2.667M26.667 17.333h2.667v4h-2.667v-4M17.333 12v-2.667h4v4h-2.667v-1.333h-1.333M17.333 29.333v-2.667h4v2.667h-4M12 29.333c-1.473 0-2.667-1.194-2.667-2.667v-2.667h2.667v2.667h2.667v2.667h-2.667M9.333 21.333v-4h2.667v1.333h1.333v2.667h-4M9.333 4v-2.667h4v2.667h-4M4 21.333c-1.473 0-2.667-1.194-2.667-2.667v-2.667h2.667v2.667h2.667v2.667h-2.667M1.333 9.333h2.667v4h-2.667v-4M12 9.333h2.667v2.667h-2.667v2.667h-2.667v-2.667c0-1.473 1.194-2.667 2.667-2.667v0M21.333 18.667c0 1.473-1.194 2.667-2.667 2.667h-2.667v-2.667h2.667v-2.667h2.667v2.667z"></path>
</svg>
