<!-- Generated by IcoMoon.io -->
<svg version="1.1" xmlns="http://www.w3.org/2000/svg" width="32" height="32" viewBox="0 0 32 32">
<title>vimeo</title>
<path d="M29.333 9.893c-0.12 2.6-1.933 6.16-5.44 10.693-3.627 4.747-6.693 7.080-9.227 7.080-1.533 0-2.853-1.44-3.933-4.333-0.733-2.613-1.4-5.253-2.147-7.893-0.8-2.88-1.653-4.32-2.587-4.32-0.187 0-0.88 0.427-2.080 1.267l-1.253-1.627c1.333-1.16 2.613-2.32 3.893-3.48 1.76-1.52 3.080-2.32 3.947-2.4 2.080-0.213 3.36 1.227 3.84 4.267 0.52 3.293 0.88 5.333 1.080 6.133 0.573 2.72 1.24 4.053 1.973 4.053 0.56 0 1.4-0.853 2.52-2.627 1.12-1.76 1.72-3.107 1.8-4.040 0.16-1.52-0.44-2.28-1.8-2.28-0.64 0-1.293 0.147-1.973 0.44 1.307-4.307 3.813-6.4 7.507-6.28 2.747 0.080 4.040 1.867 3.88 5.347z"></path>
</svg>
