<!-- Generated by IcoMoon.io -->
<svg version="1.1" xmlns="http://www.w3.org/2000/svg" width="32" height="32" viewBox="0 0 32 32">
<title>violin</title>
<path d="M14.667 2.667c-0.736 0-1.333 0.597-1.333 1.333v0 8c0 0.368 0.298 0.667 0.667 0.667h2c0.368 0 0.667 0.298 0.667 0.667v0c0 0.368-0.298 0.667-0.667 0.667v0h-2c-1.027 0-2-0.973-2-2v-5.12c-2.307 0.587-4 2.627-4 5.12v2c1.841 0 3.333 1.492 3.333 3.333v0c0 1.841-1.492 3.333-3.333 3.333v2c0 3.693 2.973 6.667 6.667 6.667h2.667c3.693 0 6.667-2.973 6.667-6.667v-2c-1.841 0-3.333-1.492-3.333-3.333v0c0-1.841 1.492-3.333 3.333-3.333v0-2c0-2.96-2.373-5.333-5.333-5.333v-2.667c0-0.736-0.597-1.333-1.333-1.333h-2.667M14.333 22h3.333l-0.667 4.667h-2l-0.667-4.667z"></path>
</svg>
