<!-- Generated by IcoMoon.io -->
<svg version="1.1" xmlns="http://www.w3.org/2000/svg" width="32" height="32" viewBox="0 0 32 32">
<title>vlc</title>
<path d="M16 1.333c-0.56 0-1.080 0.307-1.333 1l-1.493 4.173c0.64 0.693 1.867 0.827 2.827 0.827s2.187-0.133 2.84-0.827l-1.507-4.173c-0.24-0.667-0.773-1-1.333-1M11.253 11.88l-1.92 5.333c1.427 1.813 4.347 2.12 6.667 2.12s5.24-0.307 6.667-2.12l-1.92-5.333c-1.067 1.227-3.093 1.453-4.747 1.453s-3.68-0.227-4.747-1.453M7.253 20c-1.093 0-2.24 0.867-2.547 1.92l-1.96 6.827c-0.293 1.053 0.32 1.92 1.427 1.92h23.667c1.093 0 1.707-0.867 1.413-1.92l-1.96-6.827c-0.307-1.053-1.453-1.92-2.547-1.92h-1.080l0.453 1.293c0.16 0.427 0.267 0.96 0 1.333-1.667 2.307-5.267 2.707-8.12 2.707s-6.453-0.4-8.12-2.707c-0.267-0.373-0.16-0.907 0-1.333l0.453-1.293h-1.080z"></path>
</svg>
