<!-- Generated by IcoMoon.io -->
<svg version="1.1" xmlns="http://www.w3.org/2000/svg" width="32" height="32" viewBox="0 0 32 32">
<title>wallet-giftcard</title>
<path d="M26.667 18.667h-21.333v-8h6.773l-2.773 3.773 2.16 1.56 4.507-6.133 4.507 6.133 2.16-1.56-2.773-3.773h6.773M26.667 25.333h-21.333v-2.667h21.333M12 5.333c0.736 0 1.333 0.597 1.333 1.333v0c0 0.736-0.597 1.333-1.333 1.333v0c-0.736 0-1.333-0.597-1.333-1.333v0c0-0.736 0.597-1.333 1.333-1.333v0M20 5.333c0.736 0 1.333 0.597 1.333 1.333v0c0 0.736-0.597 1.333-1.333 1.333v0c-0.736 0-1.333-0.597-1.333-1.333v0c0-0.736 0.597-1.333 1.333-1.333v0M26.667 8h-2.907c0.147-0.413 0.24-0.867 0.24-1.333 0-2.209-1.791-4-4-4v0c-1.4 0-2.613 0.72-3.333 1.8l-0.667 0.867-0.667-0.88c-0.72-1.067-1.933-1.787-3.333-1.787-2.209 0-4 1.791-4 4v0c0 0.467 0.093 0.92 0.24 1.333h-2.907c-1.48 0-2.667 1.187-2.667 2.667v14.667c0 1.48 1.187 2.667 2.667 2.667h21.333c1.48 0 2.667-1.187 2.667-2.667v-14.667c0-1.48-1.187-2.667-2.667-2.667z"></path>
</svg>
