<!-- Generated by IcoMoon.io -->
<svg version="1.1" xmlns="http://www.w3.org/2000/svg" width="32" height="32" viewBox="0 0 32 32">
<title>wan</title>
<path d="M16 2.667c-5.891 0-10.667 4.776-10.667 10.667v0c0 5.373 4 9.893 9.333 10.573v1.427h-1.333c-0.736 0-1.333 0.597-1.333 1.333v0h-9.333v2.667h9.333c0 0.736 0.597 1.333 1.333 1.333v0h5.333c0.736 0 1.333-0.597 1.333-1.333v0h9.333v-2.667h-9.333c0-0.736-0.597-1.333-1.333-1.333v0h-1.333v-1.427c5.333-0.667 9.333-5.2 9.333-10.573 0-5.891-4.776-10.667-10.667-10.667v0M16 5.333s0.987 1.707 1.68 4h-3.36c0.693-2.293 1.68-4 1.68-4M13.027 5.907c-0.36 0.667-0.907 1.88-1.373 3.427h-2.573c0.92-1.547 2.253-2.76 3.947-3.427M18.973 5.92c1.693 0.667 3.027 1.867 3.947 3.413h-2.573c-0.467-1.547-1.013-2.76-1.373-3.413M8.12 12h2.973c-0.053 0.44-0.093 0.88-0.093 1.333s0.040 0.893 0.093 1.333h-2.973c-0.077-0.401-0.121-0.862-0.121-1.333s0.044-0.932 0.128-1.379l-0.007 0.046M13.76 12h4.48c0.053 0.44 0.093 0.88 0.093 1.333s-0.040 0.893-0.093 1.333h-4.48c-0.053-0.44-0.093-0.88-0.093-1.333s0.040-0.893 0.093-1.333M20.907 12h2.973c0.077 0.401 0.121 0.862 0.121 1.333s-0.044 0.932-0.128 1.379l0.007-0.046h-2.973c0.053-0.44 0.093-0.88 0.093-1.333s-0.040-0.893-0.093-1.333M9.080 17.333h2.573c0.467 1.547 1.013 2.76 1.373 3.413-1.693-0.667-3.027-1.867-3.947-3.413M14.32 17.333h3.36c-0.693 2.293-1.68 4-1.68 4s-0.987-1.707-1.68-4M20.347 17.333h2.573c-0.92 1.547-2.253 2.76-3.947 3.427 0.36-0.667 0.907-1.88 1.373-3.427z"></path>
</svg>
