<!-- Generated by IcoMoon.io -->
<svg version="1.1" xmlns="http://www.w3.org/2000/svg" width="32" height="32" viewBox="0 0 32 32">
<title>washing-machine</title>
<path d="M19.773 14.893c0.964 0.967 1.56 2.3 1.56 3.773s-0.596 2.807-1.56 3.773l0-0c-0.967 0.964-2.3 1.56-3.773 1.56s-2.807-0.596-3.773-1.56l0 0 7.547-7.547M8 2.667h16c1.473 0 2.667 1.194 2.667 2.667v21.333c0 1.473-1.194 2.667-2.667 2.667v0h-16c-1.473 0-2.667-1.194-2.667-2.667v-21.333c0-1.473 1.194-2.667 2.667-2.667v0M9.333 5.333c-0.736 0-1.333 0.597-1.333 1.333v0c0 0.736 0.597 1.333 1.333 1.333v0c0.736 0 1.333-0.597 1.333-1.333v0c0-0.736-0.597-1.333-1.333-1.333v0M13.333 5.333c-0.736 0-1.333 0.597-1.333 1.333v0c0 0.736 0.597 1.333 1.333 1.333v0c0.736 0 1.333-0.597 1.333-1.333v0c0-0.736-0.597-1.333-1.333-1.333v0M16 10.667c-4.418 0-8 3.582-8 8v0c0 4.418 3.582 8 8 8v0c4.418 0 8-3.582 8-8v0c0-4.418-3.582-8-8-8v0z"></path>
</svg>
