<!-- Generated by IcoMoon.io -->
<svg version="1.1" xmlns="http://www.w3.org/2000/svg" width="32" height="32" viewBox="0 0 32 32">
<title>watch-vibrate</title>
<path d="M4 22.667v-13.333h2.667v13.333h-2.667M25.333 22.667v-13.333h2.667v13.333h-2.667M29.333 12h2.667v8h-2.667v-8M0 20v-8h2.667v8h-2.667M23.947 15.96c0 2.533-1.187 4.8-3.040 6.267l-0.947 5.707h-7.96l-0.973-5.707c-1.851-1.472-3.027-3.724-3.027-6.251 0-0.006 0-0.011 0-0.017v0.001c0-2.533 1.173-4.8 3.027-6.253l0.973-5.707h7.96l0.947 5.707c1.858 1.466 3.040 3.717 3.040 6.244 0 0.003 0 0.006 0 0.009v-0.001M10 15.96c0 3.307 2.667 5.987 5.96 5.987 3.306 0 5.987-2.68 5.987-5.987v0c0-3.293-2.68-5.96-5.987-5.96-3.292 0-5.96 2.668-5.96 5.96v0z"></path>
</svg>
