<!-- Generated by IcoMoon.io -->
<svg version="1.1" xmlns="http://www.w3.org/2000/svg" width="32" height="32" viewBox="0 0 32 32">
<title>watch</title>
<path d="M8 16c0-4.418 3.582-8 8-8v0c4.418 0 8 3.582 8 8v0c0 4.418-3.582 8-8 8v0c-4.418 0-8-3.582-8-8v0M26.667 16c0-0.006 0-0.012 0-0.019 0-3.377-1.581-6.385-4.044-8.324l-0.023-0.017-1.267-7.64h-10.667l-1.267 7.64c-2.485 1.956-4.067 4.963-4.067 8.341 0 0.007 0 0.014 0 0.020v-0.001c0 3.387 1.587 6.413 4.067 8.36l1.267 7.64h10.667l1.267-7.64c2.486-1.959 4.067-4.97 4.067-8.35 0-0.003 0-0.007 0-0.010v0.001z"></path>
</svg>
