<!-- Generated by IcoMoon.io -->
<svg version="1.1" xmlns="http://www.w3.org/2000/svg" width="32" height="32" viewBox="0 0 32 32">
<title>water-percent</title>
<path d="M16 4.333s-8 9-8 14.333c0 4.427 3.587 8 8 8 4.418 0 8-3.582 8-8v0c0-5.333-8-14.333-8-14.333M19.293 13.293l1.413 1.413-8 8-1.413-1.413M13 13.333c0.92 0 1.667 0.746 1.667 1.667v0c0 0.92-0.746 1.667-1.667 1.667v0c-0.92 0-1.667-0.746-1.667-1.667v0c0-0.92 0.746-1.667 1.667-1.667v0M19 19.333c0.92 0 1.667 0.746 1.667 1.667v0c0 0.92-0.746 1.667-1.667 1.667v0c-0.92 0-1.667-0.746-1.667-1.667v0c0-0.92 0.746-1.667 1.667-1.667v0z"></path>
</svg>
