<!-- Generated by IcoMoon.io -->
<svg version="1.1" xmlns="http://www.w3.org/2000/svg" width="32" height="32" viewBox="0 0 32 32">
<title>water-pump</title>
<path d="M25.333 19.333s2.667 2.893 2.667 4.667c0 1.473-1.194 2.667-2.667 2.667v0c-1.473 0-2.667-1.194-2.667-2.667v0c0-1.773 2.667-4.667 2.667-4.667M6.667 24v-12c-1.473 0-2.667-1.194-2.667-2.667v0c0-1.473 1.194-2.667 2.667-2.667v0-1.333c0-1.473 1.194-2.667 2.667-2.667h2.667c1.473 0 2.667 1.194 2.667 2.667v0 1.333h10.667c1.473 0 2.667 1.194 2.667 2.667v5.333c0.736 0 1.333 0.597 1.333 1.333v0c0 0.736-0.597 1.333-1.333 1.333v0h-5.333c-0.736 0-1.333-0.597-1.333-1.333v0c0-0.736 0.597-1.333 1.333-1.333v0-2.667h-8v12h1.333c1.473 0 2.667 1.194 2.667 2.667v2.667h-16v-2.667c0-1.473 1.194-2.667 2.667-2.667h1.333z"></path>
</svg>
