<!-- Generated by IcoMoon.io -->
<svg version="1.1" xmlns="http://www.w3.org/2000/svg" width="32" height="32" viewBox="0 0 32 32">
<title>weather-snowy-rainy</title>
<path d="M24.667 24.893c0 1.72-1.333 3.107-3 3.107s-3-1.387-3-3.107c0-2.067 3-5.56 3-5.56s3 3.493 3 5.56M5.333 23.147c-0.187-0.72 0.24-1.48 0.973-1.667l3.027-0.813-2.227-2.187c-0.533-0.533-0.533-1.4 0-1.947 0.533-0.533 1.427-0.533 1.947 0l2.213 2.2 0.787-3c0.187-0.747 0.947-1.173 1.667-0.973 0.747 0.187 1.173 0.947 0.947 1.68l-0.773 3 3-0.773c0.119-0.039 0.256-0.061 0.397-0.061 0.618 0 1.137 0.425 1.281 0.999l0.002 0.009c0.2 0.72-0.227 1.48-0.973 1.667l-3 0.787 2.2 2.213c0.533 0.52 0.533 1.413 0 1.947s-1.413 0.533-1.933 0l-2.2-2.227-0.813 3.027c-0.187 0.747-0.947 1.16-1.667 0.973-0.747-0.187-1.16-0.947-0.973-1.68l0.787-2.987-2.987 0.787c-0.733 0.187-1.493-0.227-1.68-0.973M1.333 14.667c0-3.682 2.985-6.667 6.667-6.667v0c1.333-3.133 4.4-5.333 8-5.333 4.573 0 8.32 3.547 8.667 8.040l0.667-0.040c2.946 0 5.333 2.388 5.333 5.333v0c0 2.946-2.388 5.333-5.333 5.333v0c-0.736 0-1.333-0.597-1.333-1.333v0c0-0.736 0.597-1.333 1.333-1.333v0c1.473 0 2.667-1.194 2.667-2.667v0c0-1.473-1.194-2.667-2.667-2.667v0h-2.667v-1.333c0-3.682-2.985-6.667-6.667-6.667v0c-3.333 0-6.067 2.427-6.587 5.587-0.44-0.16-0.92-0.253-1.413-0.253-2.209 0-4 1.791-4 4v0c0 1.133 0.467 2.147 1.213 2.88 0.48 0.52 0.467 1.333-0.040 1.84-0.24 0.241-0.573 0.39-0.94 0.39s-0.7-0.149-0.94-0.39l-0-0c-1.211-1.205-1.96-2.872-1.96-4.715 0-0.002 0-0.004 0-0.006v0z"></path>
</svg>
