<!-- Generated by IcoMoon.io -->
<svg version="1.1" xmlns="http://www.w3.org/2000/svg" width="32" height="32" viewBox="0 0 32 32">
<title>weather-pouring</title>
<path d="M12 16c0.707 0.187 1.133 0.92 0.947 1.627l-1.733 6.44c-0.187 0.72-0.92 1.133-1.627 0.947-0.565-0.145-0.976-0.65-0.976-1.251 0-0.134 0.021-0.264 0.059-0.385l-0.002 0.009 1.707-6.44c0.187-0.72 0.92-1.133 1.627-0.947M17.333 16c0.707 0.187 1.133 0.92 0.947 1.627l-2.76 10.307c-0.187 0.733-0.92 1.133-1.64 0.947-0.707-0.213-1.133-0.92-0.947-1.64l2.773-10.293c0.187-0.72 0.92-1.133 1.627-0.947M22.667 16c0.707 0.187 1.133 0.92 0.947 1.627l-1.733 6.44c-0.187 0.72-0.92 1.133-1.627 0.947-0.565-0.145-0.976-0.65-0.976-1.251 0-0.134 0.020-0.264 0.058-0.385l-0.002 0.009 1.707-6.44c0.187-0.72 0.92-1.133 1.627-0.947M22.667 13.333v-1.333c0-3.682-2.985-6.667-6.667-6.667v0c-3.333 0-6.067 2.427-6.587 5.587-0.44-0.16-0.92-0.253-1.413-0.253-2.209 0-4 1.791-4 4v0c0 1.48 0.8 2.773 2 3.467v-0.013c0.667 0.373 0.853 1.213 0.493 1.827-0.373 0.627-1.16 0.853-1.827 0.48v0.013c-2.006-1.168-3.333-3.308-3.333-5.758 0-0.005 0-0.011 0-0.016v0.001c0-3.682 2.985-6.667 6.667-6.667v0c1.333-3.133 4.4-5.333 8-5.333 4.573 0 8.32 3.547 8.667 8.040l0.667-0.040c2.946 0 5.333 2.388 5.333 5.333v0c0 2-1.067 3.693-2.667 4.613-0.667 0.36-1.453 0.147-1.827-0.493-0.36-0.64-0.173-1.453 0.493-1.827v0.013c0.8-0.453 1.333-1.32 1.333-2.307 0-1.473-1.194-2.667-2.667-2.667v0h-2.667z"></path>
</svg>
