<!-- Generated by IcoMoon.io -->
<svg version="1.1" xmlns="http://www.w3.org/2000/svg" width="32" height="32" viewBox="0 0 32 32">
<title>weather-sunset-down</title>
<path d="M4 16h5.333c0-3.682 2.985-6.667 6.667-6.667v0c3.682 0 6.667 2.985 6.667 6.667v0h5.333c0.736 0 1.333 0.597 1.333 1.333v0c0 0.736-0.597 1.333-1.333 1.333v0h-24c-0.736 0-1.333-0.597-1.333-1.333v0c0-0.736 0.597-1.333 1.333-1.333v0M20 16c0-2.209-1.791-4-4-4v0c-2.209 0-4 1.791-4 4v0h8M16 2.667l3.187 4.56c-0.987-0.36-2.067-0.56-3.187-0.56s-2.2 0.2-3.187 0.56l3.187-4.56M4.453 9.333l5.547-0.467c-0.82 0.695-1.511 1.51-2.056 2.423l-0.024 0.044c-0.587 0.987-0.92 2-1.107 3.053l-2.36-5.053M27.533 9.333l-2.36 5.053c-0.4-2.233-1.544-4.147-3.16-5.522l-0.013-0.011 5.533 0.48M16.947 27.613l4.147-4.147c0.52-0.52 0.52-1.373 0-1.893-0.24-0.241-0.573-0.39-0.94-0.39s-0.7 0.149-0.94 0.39l-3.213 3.213-3.213-3.213c-0.24-0.241-0.573-0.39-0.94-0.39s-0.7 0.149-0.94 0.39l-0 0c-0.52 0.52-0.52 1.373 0 1.893l4.147 4.147c0.28 0.253 0.6 0.387 0.947 0.387s0.667-0.133 0.947-0.387z"></path>
</svg>
