<!-- Generated by IcoMoon.io -->
<svg version="1.1" xmlns="http://www.w3.org/2000/svg" width="32" height="32" viewBox="0 0 32 32">
<title>weather-night</title>
<path d="M23.667 5.453l-3.373 2.587 1.213 4.080-3.507-2.413-3.507 2.413 1.213-4.080-3.373-2.587 4.253-0.12 1.413-4 1.413 4 4.253 0.12M28.333 14.667l-2.187 1.667 0.787 2.64-2.267-1.56-2.267 1.56 0.787-2.64-2.187-1.667 2.747-0.067 0.92-2.6 0.92 2.6 2.747 0.067M25.293 21.267c1.107-0.107 2.293 1.467 1.587 2.467-0.427 0.6-0.88 1.16-1.44 1.693-5.213 5.24-13.653 5.24-18.853 0-5.213-5.2-5.213-13.653 0-18.853 0.533-0.533 1.093-1.013 1.693-1.44 1-0.707 2.573 0.48 2.467 1.587-0.36 3.813 0.92 7.773 3.853 10.693 2.406 2.418 5.736 3.915 9.416 3.915 0.45 0 0.895-0.022 1.333-0.066l-0.055 0.004M23.107 23.96c-4.075-0.241-7.706-1.962-10.401-4.628l0.001 0.001c-2.893-2.92-4.44-6.667-4.653-10.427-3.747 4.187-3.6 10.613 0.413 14.64 4.027 4.013 10.453 4.16 14.64 0.413z"></path>
</svg>
