<!-- Generated by IcoMoon.io -->
<svg version="1.1" xmlns="http://www.w3.org/2000/svg" width="32" height="32" viewBox="0 0 32 32">
<title>webcam</title>
<path d="M16 2.667c5.155 0 9.333 4.179 9.333 9.333v0c0 5.155-4.179 9.333-9.333 9.333v0c-5.155 0-9.333-4.179-9.333-9.333v0c0-5.155 4.179-9.333 9.333-9.333v0M16 5.333c-3.682 0-6.667 2.985-6.667 6.667v0c0 3.682 2.985 6.667 6.667 6.667v0c3.682 0 6.667-2.985 6.667-6.667v0c0-3.682-2.985-6.667-6.667-6.667v0M16 8c2.209 0 4 1.791 4 4v0c0 2.209-1.791 4-4 4v0c-2.209 0-4-1.791-4-4v0c0-2.209 1.791-4 4-4v0M8 29.333c-1.473 0-2.667-1.194-2.667-2.667v0c0-0.507 0.133-0.973 0.387-1.373l2.427-4.213c2.092 1.814 4.841 2.92 7.849 2.92 0.002 0 0.003 0 0.004 0h-0c3 0 5.747-1.107 7.853-2.92l2.427 4.213c0.253 0.4 0.387 0.867 0.387 1.373 0 1.473-1.194 2.667-2.667 2.667v0h-16z"></path>
</svg>
