<!-- Generated by IcoMoon.io -->
<svg version="1.1" xmlns="http://www.w3.org/2000/svg" width="32" height="32" viewBox="0 0 32 32">
<title>weight-kilogram</title>
<path d="M16 4c2.946 0 5.333 2.388 5.333 5.333v0c0 0.973-0.253 1.88-0.72 2.667h3.387c1.267 0 2.333 0.893 2.6 2.080 2.68 10.68 2.733 10.96 2.733 11.253 0 1.473-1.194 2.667-2.667 2.667h-21.333c-1.473 0-2.667-1.194-2.667-2.667v0c0-0.293 0.053-0.573 2.733-11.253 0.267-1.187 1.333-2.080 2.6-2.080h3.387c-0.452-0.754-0.72-1.664-0.72-2.636 0-0.011 0-0.021 0-0.032v0.002c0-2.946 2.388-5.333 5.333-5.333v0M16 6.667c-1.473 0-2.667 1.194-2.667 2.667v0c0 1.473 1.194 2.667 2.667 2.667v0c1.473 0 2.667-1.194 2.667-2.667v0c0-1.473-1.194-2.667-2.667-2.667v0M12.053 20.587l1.813 3.413h2.28l-2.72-4.453 2.507-3.627h-2.333l-1.773 3.187h-0.64v-3.187h-1.893v8.080h1.893v-3.413h0.867M23.080 22.88v-2.973h-3.147v1.48h1.267v1l-0.467 0.187-0.813 0.093c-0.467 0-0.84-0.2-1.107-0.533-0.253-0.347-0.387-0.8-0.387-1.347v-1.667c0-0.547 0.133-0.987 0.4-1.32 0.267-0.347 0.613-0.507 1.053-0.507s0.787 0.107 0.973 0.32c0.213 0.213 0.347 0.533 0.413 0.96h1.76l0.013-0.040c-0.067-0.84-0.373-1.507-0.88-2-0.52-0.48-1.307-0.72-2.347-0.72-0.96 0-1.733 0.307-2.347 0.92-0.613 0.6-0.92 1.413-0.92 2.387v1.68c0 0.987 0.32 1.787 0.947 2.4 0.613 0.613 1.427 0.92 2.427 0.92 0.787 0 1.453-0.12 1.973-0.373s0.92-0.533 1.187-0.867z"></path>
</svg>
