<!-- Generated by IcoMoon.io -->
<svg version="1.1" xmlns="http://www.w3.org/2000/svg" width="32" height="32" viewBox="0 0 32 32">
<title>whatsapp</title>
<path d="M22.333 18.613c0.333 0.173 0.547 0.267 0.613 0.4 0.080 0.147 0.053 0.813-0.28 1.573-0.267 0.747-1.653 1.467-2.267 1.493s-0.627 0.48-3.947-0.973c-3.32-1.453-5.32-5-5.48-5.227s-1.28-1.84-1.227-3.48c0.067-1.627 0.92-2.4 1.267-2.72 0.32-0.347 0.68-0.387 0.907-0.347h0.627c0.2 0 0.48-0.080 0.733 0.6l0.92 2.493c0.080 0.173 0.133 0.373 0.013 0.587l-0.36 0.547-0.52 0.56c-0.16 0.16-0.347 0.333-0.16 0.667 0.16 0.347 0.827 1.453 1.76 2.373 1.213 1.173 2.28 1.56 2.6 1.733 0.32 0.187 0.52 0.16 0.72-0.053l1.080-1.253c0.253-0.333 0.467-0.253 0.773-0.147l2.227 1.173M16 2.667c7.364 0 13.333 5.97 13.333 13.333v0c0 7.364-5.97 13.333-13.333 13.333v0c-2.627 0-5.067-0.76-7.133-2.067l-6.2 2.067 2.067-6.2c-1.296-2.016-2.067-4.477-2.067-7.118 0-0.005 0-0.011 0-0.016v0.001c0-7.364 5.97-13.333 13.333-13.333v0M16 5.333c-5.891 0-10.667 4.776-10.667 10.667v0c0 2.293 0.72 4.413 1.947 6.147l-1.28 3.853 3.853-1.28c1.703 1.217 3.827 1.947 6.122 1.947 0.009 0 0.017 0 0.026-0h-0.001c5.891 0 10.667-4.776 10.667-10.667v0c0-5.891-4.776-10.667-10.667-10.667v0z"></path>
</svg>
