<!-- Generated by IcoMoon.io -->
<svg version="1.1" xmlns="http://www.w3.org/2000/svg" width="32" height="32" viewBox="0 0 32 32">
<title>wheelchair-accessibility</title>
<path d="M24.533 14.933l-5.467 0.267 3.067-3.467c0.267-0.4 0.4-1.067 0.267-1.733-0.133-0.4-0.267-0.8-0.667-1.067l-7.2-4.267c-0.533-0.4-1.333-0.267-1.867 0.133l-3.6 3.333c-0.667 0.667-0.8 1.6-0.133 2.267 0.533 0.667 1.6 0.667 2.267 0.133l2.667-2.4 2.533 1.467-5.6 5.733c-0.133 0.133-0.133 0.267-0.267 0.267-0.667 0.267-1.333 0.533-1.867 0.933l2 2c0.667-0.267 1.333-0.533 2-0.533 2.533 0 4.667 2.133 4.667 4.667 0 0.8-0.133 1.467-0.533 2l2 2c0.8-1.2 1.2-2.533 1.2-4 0-1.6-0.533-3.2-1.467-4.4l4.4-0.4-0.267 6.4c-0.133 0.933 0.533 1.6 1.467 1.733h0.133c0.8 0 1.467-0.667 1.6-1.467l0.267-7.867c0-0.4-0.133-0.933-0.4-1.2-0.4-0.4-0.8-0.533-1.2-0.533M24 7.333c1.473 0 2.667-1.194 2.667-2.667v0c0-1.473-1.194-2.667-2.667-2.667v0c-1.473 0-2.667 1.194-2.667 2.667v0c0 1.473 1.194 2.667 2.667 2.667v0M16.667 28.8c-1.2 0.8-2.533 1.2-4 1.2-4 0-7.333-3.333-7.333-7.333 0-1.467 0.4-2.8 1.2-4l2 2c-0.267 0.667-0.533 1.333-0.533 2 0 2.533 2.133 4.667 4.667 4.667 0.8 0 1.467-0.133 2-0.533l2 2z"></path>
</svg>
