<!-- Generated by IcoMoon.io -->
<svg version="1.1" xmlns="http://www.w3.org/2000/svg" width="32" height="32" viewBox="0 0 32 32">
<title>white-balance-sunny</title>
<path d="M4.733 24.72l1.88 1.88 2.4-2.387-1.893-1.893M14.667 29.933h2.667v-3.933h-2.667M16 7.333c-4.418 0-8 3.582-8 8v0c0 4.418 3.582 8 8 8v0c4.418 0 8-3.582 8-8v0c0-4.427-3.587-8-8-8M26.667 16.667h4v-2.667h-4M22.987 24.213l2.4 2.387 1.88-1.88-2.387-2.4M27.267 5.947l-1.88-1.88-2.4 2.387 1.893 1.893M17.333 0.733h-2.667v3.933h2.667M5.333 14h-4v2.667h4M9.013 6.453l-2.4-2.387-1.88 1.88 2.387 2.4 1.893-1.893z"></path>
</svg>
