<!-- Generated by IcoMoon.io -->
<svg version="1.1" xmlns="http://www.w3.org/2000/svg" width="32" height="32" viewBox="0 0 32 32">
<title>white-balance-incandescent</title>
<path d="M22.987 24.2l2.4 2.4 1.88-1.893-2.387-2.387M26.667 16.667h4v-2.667h-4M20 8.413v-6.413h-8v6.413c-2.387 1.387-4 3.96-4 6.92 0 4.418 3.582 8 8 8v0c4.418 0 8-3.582 8-8v0c0-2.96-1.613-5.533-4-6.92M5.333 14h-4v2.667h4M14.667 29.933h2.667v-3.933h-2.667M4.733 24.707l1.88 1.893 2.4-2.4-1.893-1.88-2.387 2.387z"></path>
</svg>
