<!-- Generated by IcoMoon.io -->
<svg version="1.1" xmlns="http://www.w3.org/2000/svg" width="32" height="32" viewBox="0 0 32 32">
<title>wifi-off</title>
<path d="M3.040 4l-1.707 1.693 1.96 1.96c-0.573 0.347-1.147 0.733-1.693 1.147l2.4 3.2c0.707-0.533 1.44-1 2.213-1.427l2.973 2.973c-0.987 0.453-1.933 1-2.787 1.653l2.4 3.2c1.040-0.773 2.213-1.373 3.467-1.773l3.4 3.373c-1.667 0.093-3.213 0.667-4.467 1.6l4.8 6.4 3.28-4.36 4.373 4.36 1.68-1.707M16 4c-2.867 0-5.6 0.507-8.133 1.427l3.187 3.2c1.613-0.413 3.24-0.627 4.947-0.627 4.507 0 8.667 1.48 12 4l2.4-3.2c-4.013-3.013-8.987-4.8-14.4-4.8M16 12c-0.507 0-1 0-1.493 0.067l4.253 4.267c1.627 0.373 3.147 1.093 4.44 2.067l2.4-3.2c-2.667-2.013-6-3.2-9.6-3.2z"></path>
</svg>
