<!-- Generated by IcoMoon.io -->
<svg version="1.1" xmlns="http://www.w3.org/2000/svg" width="32" height="32" viewBox="0 0 32 32">
<title>wii</title>
<path d="M23.787 22.587h-2.493v-8.2h2.493v8.2M24 11.44c0 0.813-0.667 1.48-1.467 1.48-0.817 0-1.48-0.663-1.48-1.48v0c0-0.827 0.667-1.493 1.48-1.493 0.8 0 1.467 0.667 1.467 1.493M29.093 22.587h-2.507v-8.2h2.507v8.2M29.333 11.44c0 0.813-0.667 1.48-1.493 1.48-0.817 0-1.48-0.663-1.48-1.48v0c-0.001-0.019-0.001-0.041-0.001-0.063 0-0.822 0.666-1.488 1.488-1.488s1.488 0.666 1.488 1.488c0 0.022-0 0.044-0.001 0.066l0-0.003M17.2 10.733h2.667l-2.827 9.933s-0.373 2.053-2 2.053c-1.613 0-1.987-2.053-1.987-2.053l-1.787-6.48-1.787 6.48s-0.387 2.053-2 2.053-1.987-2.053-1.987-2.053l-2.827-9.933h2.667l2.293 8.827 1.853-7.16c0.427-1.8 1.787-1.773 1.787-1.773s1.36-0.027 1.787 1.773l1.84 7.16 2.307-8.827z"></path>
</svg>
