<!-- Generated by IcoMoon.io -->
<svg version="1.1" xmlns="http://www.w3.org/2000/svg" width="32" height="32" viewBox="0 0 32 32">
<title>xbox-controller</title>
<path d="M11.667 21c-2.667 0-3.667 3-6.333 4.333-2.667 0-4.667-4 0.667-15.333h0.333l0.587-1.107s3.747-2.227 5.52-0.587h7.12c1.773-1.64 5.52 0.587 5.52 0.587l0.587 1.107h0.333c5.333 11.333 3.333 15.333 0.667 15.333-2.667-1.333-3.667-4.333-6.333-4.333h-8.667M16 9.333c-0.736 0-1.333 0.597-1.333 1.333v0c0 0.736 0.597 1.333 1.333 1.333v0c0.736 0 1.333-0.597 1.333-1.333v0c0-0.736-0.597-1.333-1.333-1.333v0z"></path>
</svg>
