<!-- Generated by IcoMoon.io -->
<svg version="1.1" xmlns="http://www.w3.org/2000/svg" width="32" height="32" viewBox="0 0 32 32">
<title>xda</title>
<path d="M0 22.387l4.32-5.093-4.32-5.093 2.067-1.72 4 4.733 4-4.733 2.067 1.72-4.32 5.093 4.32 5.093-2.067 1.707-4-4.76-4 4.76-2.067-1.707M32.067 22.667c0 0.736-0.597 1.333-1.333 1.333h-4c-1.473 0-2.667-1.194-2.667-2.667v0-2.667c0-1.473 1.194-2.667 2.667-2.667h2.667v-2.667h-5.333v-2.667h6.667c0.736 0 1.333 0.597 1.333 1.333v0M29.4 18.667h-2.667v2.667h2.667v-2.667M21.4 22.667c0 0.736-0.597 1.333-1.333 1.333v0h-4c-1.473 0-2.667-1.194-2.667-2.667v-8c0-1.473 1.194-2.667 2.667-2.667v0h2.667v-4h2.667v16M18.733 21.333v-8h-2.667v8h2.667z"></path>
</svg>
