<!-- Generated by IcoMoon.io -->
<svg version="1.1" xmlns="http://www.w3.org/2000/svg" width="32" height="32" viewBox="0 0 32 32">
<title>xing-circle</title>
<path d="M16 2.667c-7.364 0-13.333 5.97-13.333 13.333v0c0 7.364 5.97 13.333 13.333 13.333v0c7.364 0 13.333-5.97 13.333-13.333v0c0-7.364-5.97-13.333-13.333-13.333v0M21.133 8h2.52c0.16 0 0.267 0.053 0.347 0.16 0.053 0.107 0.053 0.24 0 0.387l-5.547 9.8 3.547 6.44c0.040 0.133 0.040 0.28 0 0.387-0.093 0.107-0.2 0.16-0.347 0.16h-2.507c-0.387 0-0.573-0.253-0.693-0.48l-3.56-6.507c0.187-0.347 5.573-9.867 5.573-9.867 0.133-0.24 0.293-0.48 0.667-0.48M10 11.427h2.52c0.373 0 0.56 0.24 0.68 0.467l1.72 3c-0.093 0.173-2.693 4.773-2.693 4.773-0.133 0.227-0.307 0.48-0.68 0.48h-2.507c-0.147 0-0.253-0.067-0.32-0.147-0.053-0.133-0.053-0.267 0-0.413l2.653-4.693-1.68-2.893c-0.080-0.173-0.093-0.307-0.027-0.413s0.187-0.16 0.333-0.16z"></path>
</svg>
