<!-- Generated by IcoMoon.io -->
<svg version="1.1" xmlns="http://www.w3.org/2000/svg" width="32" height="32" viewBox="0 0 32 32">
<title>yeast</title>
<path d="M24 18.667c2.946 0 5.333 2.388 5.333 5.333v0c0 2.946-2.388 5.333-5.333 5.333v0c-2.946 0-5.333-2.388-5.333-5.333v0l0.12-1.133c-0.053-0.933-0.227-1.747-0.72-2.2-0.267-0.267-0.64-0.413-1.067-0.493-1.28 0.733-2.76 1.16-4.333 1.16-4.786 0-8.667-3.88-8.667-8.667v0c0-4.786 3.88-8.667 8.667-8.667v0c4.786 0 8.667 3.88 8.667 8.667v0c0 1.573-0.427 3.053-1.16 4.333 0.080 0.427 0.227 0.8 0.493 1.067 0.453 0.493 1.267 0.667 2.2 0.72l1.133-0.12M10 13.333c1.105 0 2 0.895 2 2v0c0 1.105-0.895 2-2 2v0c-1.105 0-2-0.895-2-2v0c0-1.105 0.895-2 2-2v0M12.667 6.667c-3.333 0-6 2.667-6 6s2.667 6 6 6 6-2.667 6-6-2.667-6-6-6z"></path>
</svg>
