<!-- Generated by IcoMoon.io -->
<svg version="1.1" xmlns="http://www.w3.org/2000/svg" width="32" height="32" viewBox="0 0 32 32">
<title>yelp</title>
<path d="M14.12 2.667c0.853 0 1.213 0.36 1.32 1.293l0.28 4.227 0.32 5.533c0.027 0.467-0.040 0.947-0.227 1.373-0.293 0.6-0.96 0.76-1.507 0.347-0.307-0.253-0.56-0.587-0.773-0.947l-4.973-8.427c-0.48-0.813-0.333-1.347 0.467-1.853 0.973-0.64 3.947-1.547 5.093-1.547M19.773 19.8l0.347 0.080 5.147 1.867c0.88 0.32 1.12 0.813 0.733 1.68-0.587 1.507-1.547 2.787-2.773 3.84-0.613 0.533-1.227 0.44-1.613-0.227l-3.027-5.28c-0.52-0.947 0.12-2.027 1.187-1.96M6 18.667c0-0.987 0-1.933 0.333-2.84 0.293-0.893 0.773-1.16 1.667-0.8l4.84 2.053c0.613 0.253 0.96 0.68 0.933 1.373-0.040 0.693-0.48 0.987-1.067 1.187l-4.907 1.613c-0.933 0.307-1.413 0.027-1.613-0.92-0.12-0.56-0.227-1.133-0.187-1.667M15.96 28c-0.027 1.080-0.493 1.493-1.547 1.333-1.387-0.267-2.667-0.8-3.8-1.653-0.56-0.427-0.68-1.080-0.267-1.64l3.613-4.747c0.307-0.4 0.747-0.493 1.227-0.307 0.507 0.187 0.773 0.587 0.773 1.133v5.88M19.267 17.76c-0.96 0.013-1.627-1.093-1.080-1.88 1.107-1.653 2.28-3.267 3.453-4.867 0.36-0.547 0.947-0.587 1.44-0.133 1.24 1.12 2.133 2.453 2.64 4.080 0.187 0.6-0.053 1.147-0.613 1.307l-4.987 1.293-0.853 0.2z"></path>
</svg>
