<!-- Generated by IcoMoon.io -->
<svg version="1.1" xmlns="http://www.w3.org/2000/svg" width="32" height="32" viewBox="0 0 32 32">
<title>yin-yang</title>
<path d="M16 2.667c7.364 0 13.333 5.97 13.333 13.333v0c0 7.364-5.97 13.333-13.333 13.333v0c-7.364 0-13.333-5.97-13.333-13.333v0c0-7.364 5.97-13.333 13.333-13.333v0M16 5.333c-5.891 0-10.667 4.776-10.667 10.667v0c0 5.891 4.776 10.667 10.667 10.667v0c-2.946 0-5.333-2.388-5.333-5.333v0c0-2.946 2.388-5.333 5.333-5.333v0c2.946 0 5.333-2.388 5.333-5.333v0c0-2.946-2.388-5.333-5.333-5.333v0M16 8.667c1.105 0 2 0.895 2 2v0c0 1.105-0.895 2-2 2v0c-1.105 0-2-0.895-2-2v0c0-1.105 0.895-2 2-2v0M16 19.333c-1.105 0-2 0.895-2 2v0c0 1.105 0.895 2 2 2v0c1.105 0 2-0.895 2-2v0c0-1.105-0.895-2-2-2v0z"></path>
</svg>
